<?xml version="1.0" encoding="UTF-8" standalone="no"?>
<!-- Created with Inkscape (http://www.inkscape.org/) -->

<svg
   xmlns:dc="http://purl.org/dc/elements/1.1/"
   xmlns:cc="http://creativecommons.org/ns#"
   xmlns:rdf="http://www.w3.org/1999/02/22-rdf-syntax-ns#"
   xmlns:svg="http://www.w3.org/2000/svg"
   xmlns="http://www.w3.org/2000/svg"
   xmlns:sodipodi="http://sodipodi.sourceforge.net/DTD/sodipodi-0.dtd"
   xmlns:inkscape="http://www.inkscape.org/namespaces/inkscape"
   id="svg2441"
   sodipodi:version="0.32"
   inkscape:version="0.92 r13675"
   width="402"
   height="258"
   version="1.0"
   sodipodi:docname="czech_republic.svg"
   inkscape:label="Map"
   inkscape:output_extension="org.inkscape.output.svg.inkscape">
  <defs
     id="defs51" />
  <metadata
     id="metadata2446">
    <rdf:RDF>
      <cc:Work
         rdf:about="">
        <dc:format>image/svg+xml</dc:format>
        <dc:type
           rdf:resource="http://purl.org/dc/dcmitype/StillImage" />
        <cc:license
           rdf:resource="http://creativecommons.org/licenses/by-sa/2.5/" />
        <dc:creator>
          <cc:Agent>
            <dc:title>David Paloch</dc:title>
          </cc:Agent>
        </dc:creator>
        <dc:date>2007-01-13</dc:date>
        <dc:subject>
          <rdf:Bag>
            <rdf:li>map</rdf:li>
            <rdf:li>Czechia</rdf:li>
          </rdf:Bag>
        </dc:subject>
        <dc:title>Blank map of the Czechia and its regions</dc:title>
      </cc:Work>
      <cc:License
         rdf:about="http://creativecommons.org/licenses/by-sa/2.5/">
        <cc:permits
           rdf:resource="http://web.resource.org/cc/Reproduction" />
        <cc:permits
           rdf:resource="http://web.resource.org/cc/Distribution" />
        <cc:requires
           rdf:resource="http://web.resource.org/cc/Notice" />
        <cc:requires
           rdf:resource="http://web.resource.org/cc/Attribution" />
        <cc:permits
           rdf:resource="http://web.resource.org/cc/DerivativeWorks" />
        <cc:requires
           rdf:resource="http://web.resource.org/cc/ShareAlike" />
      </cc:License>
    </rdf:RDF>
  </metadata>
  <sodipodi:namedview
     inkscape:window-height="1001"
     inkscape:window-width="1280"
     inkscape:pageshadow="2"
     inkscape:pageopacity="0"
     guidetolerance="10.0"
     gridtolerance="10.0"
     objecttolerance="10.0"
     borderopacity="1.0"
     bordercolor="#666666"
     pagecolor="#ffffff"
     id="base"
     inkscape:grid-bbox="false"
     inkscape:guide-bbox="true"
     inkscape:zoom="1.0000001"
     inkscape:cx="-12.490093"
     inkscape:cy="203.23488"
     inkscape:window-x="27"
     inkscape:window-y="0"
     inkscape:current-layer="Country"
     showguides="true"
     showgrid="false"
     fit-margin-top="0"
     fit-margin-left="0"
     fit-margin-right="0"
     fit-margin-bottom="0"
     inkscape:window-maximized="0" />
  <g
     inkscape:groupmode="layer"
     id="Country"
     inkscape:label="Country"
     style="display:inline;opacity:1"
     transform="translate(-2482.2212,-2850.3237)">
    <path
       style="color:#000000;display:inline;overflow:visible;visibility:visible;opacity:1;fill:#8485c2;fill-opacity:1;fill-rule:evenodd;stroke:none;stroke-width:16;stroke-linecap:butt;stroke-linejoin:miter;stroke-miterlimit:4;stroke-dasharray:none;stroke-dashoffset:0;stroke-opacity:1;marker:none;marker-start:none;marker-mid:none;marker-end:none"
       d="m 2615.0231,2869.1549 c -0.2586,-0.01 -0.4842,0.1374 -0.6294,0.506 -0.2314,0.5874 -0.8204,0.7901 -0.9548,1.1831 -0.167,0.4879 0.394,1.8184 -0.4433,2.2971 -0.6911,0.3951 -0.8877,1.3284 -0.8911,1.9478 -0.01,0.6996 1.5445,1.3638 2.301,0.9822 0.5493,-0.2772 1.9546,-1.1369 1.8931,0.032 -0.035,0.6738 -1.9123,0.693 -1.2991,1.2179 0.3915,0.335 0.2425,0.3307 0.2499,0.7094 0.01,0.5207 1.6139,0.6665 2.4,0.9983 0.7129,0.3008 1.2415,0.549 2.0935,0.4066 0.9112,-0.1522 0.5657,1.0278 0.018,1.5159 -0.5158,0.4605 0.4624,2.2779 -0.8981,2.2368 -0.6206,-0.018 -1.0159,-0.1573 -1.5537,0.4368 -0.3859,0.4263 -1.4727,0.2856 -2.1572,0.5754 -0.8526,0.3609 -1.4155,-0.2493 -2.0674,-0.624 -0.9175,-0.5272 -1.449,0.9317 -2.0936,1.4859 -0.4582,0.394 -0.4857,1.0622 -1.1905,1.3657 -0.7672,0.3302 -1.342,0.9355 -2.2986,0.9196 -0.7775,-0.012 -1.5962,0.4881 -2.2279,0.9452 -0.6772,0.4899 -1.5591,1.1031 -2.3339,1.1114 -1.0309,0.011 -1.2739,0.9278 -2.0983,1.1832 -0.708,0.2194 -1.5855,0.4297 -2.11,0.4714 -0.4479,0.035 -1.2772,-0.9512 -1.9472,-1.0514 -0.805,-0.1203 -2.0031,0.2878 -2.2351,1.0514 -0.2776,0.9142 -0.9718,1.6789 -1.9779,1.2316 -0.5482,-0.2436 -1.6967,-0.2223 -1.1765,0.6032 0.4254,0.6748 -1.386,0.8194 -0.5682,1.6036 0.6203,0.5949 0.9297,1.768 -0.1107,2.1306 -0.5045,0.1758 -1.5622,-0.9693 -1.4334,0.037 0.1359,1.0613 -0.8546,1.1193 -1.6786,1.1461 -0.9442,0.03 -1.6388,-0.4751 -2.5014,-0.654 -1.0363,-0.2147 -2.0528,0.5435 -2.9115,0.3213 -0.5766,-0.1493 -1.2165,-0.5851 -1.3203,0.2657 -0.1157,0.9507 -1.7727,0.8301 -2.15,0.2889 -0.5053,-0.7248 -1.279,-0.7803 -2.0228,-0.7949 -0.6966,-0.013 -0.6727,0.9782 -1.0703,1.3125 -0.545,0.458 -1.8994,0.6212 -2.7347,0.1409 -0.9787,-0.5625 -1.6213,0.5162 -2.4708,0.5616 -0.7512,0.04 -0.4897,0.5501 -0.1956,0.9913 0.3322,0.4985 1.228,1.8012 0.2498,2.3431 -0.6087,0.3374 -2.0137,1.2028 -1.2447,1.7863 0.5897,0.4474 0.1871,1.0697 -0.5422,1.1645 -0.7664,0.1 -0.9122,1.1599 -1.6621,1.6269 -0.4649,0.2895 -0.6717,1.7313 -1.4876,0.9612 -0.562,-0.5303 -1.3551,-0.695 -1.9827,-1.0282 -0.7348,-0.3903 -0.9159,-1.2153 -1.2401,-1.8556 -0.2551,-0.504 -1.4192,-1.3062 -1.5465,-0.8735 -0.2185,0.7422 0.6258,1.5738 -0.118,2.3524 -0.5262,0.551 -1.3508,0.9804 -1.9237,1.2201 -0.6267,0.2624 -0.8049,0.6775 -0.6789,1.2571 0.1104,0.5078 0.1298,1.0948 -0.6978,1.1276 -0.7539,0.03 -1.6112,0.3432 -1.7635,-0.6539 -0.1238,-0.8109 -1.3876,-1.0423 -1.622,-0.8041 -0.3098,0.3147 -0.9884,1.0288 -1.009,1.9572 -0.011,0.5182 -1.0249,0.6614 -0.9548,1.4396 0.085,0.9348 -0.3959,1.8302 -0.7425,2.6366 -0.218,0.5068 -0.6853,0.642 -0.7875,1.3125 -0.1485,0.973 -1.6328,0.043 -2.2302,-0.064 -0.547,-0.099 -0.8738,-0.046 -1.2826,-0.6285 -0.5215,-0.7418 -1.3427,0.7481 -1.8554,1.1878 -0.3924,0.3364 -1.3488,0.081 -2.0039,0.1663 -0.8928,0.1168 -1.3607,-1.424 -2.1454,-0.654 -0.6496,0.6377 -0.093,1.6877 -0.3842,2.2577 -0.3995,0.7805 -0.2663,1.5932 -0.2357,2.4033 0.042,1.1219 -1.4585,0.9198 -1.7871,1.7007 -0.2809,0.6676 -0.6301,1.5509 -1.471,1.5529 -0.8411,0 -0.6379,0.1556 -1.4334,0 -0.7957,-0.1557 -1.4753,-0.5304 -2.1124,-0.9984 -0.7206,-0.5292 -1.5692,-0.8118 -2.3387,-1.257 -0.8098,-0.4685 -1.4962,-1.5162 -2.4212,-1.4789 -0.7271,0.029 -0.679,1.4069 -0.8605,1.9225 -0.1278,0.3632 -0.4059,-1.4927 -1.2448,-1.331 -0.8719,0.1681 -1.6823,0.6908 -2.5226,1.033 -0.7876,0.3207 -0.8518,1.2545 -1.662,1.5159 -0.7762,0.2503 -0.4444,1.8679 -1.0209,1.5181 -0.5825,-0.3535 -1.177,-1.7618 -1.7751,-1.5227 -0.7962,0.3179 -1.6283,0.5529 -2.3788,-0.084 -0.7113,-0.603 -1.1376,1.2081 -2.07,0.7926 -0.809,-0.3607 -1.2346,0.5262 -2.15,0.5176 -0.8667,-0.01 -2.1002,-0.3745 -2.6853,0.5244 -0.4931,0.7578 -1.461,1.3216 -1.5017,2.2855 -0.026,0.611 0.6444,2.2619 -0.4857,1.8878 -0.8308,-0.275 -2.0936,-0.586 -2.2632,0.4876 -0.1407,0.8907 -0.8782,1.4353 -1.8129,1.2225 -1.0842,-0.247 -0.8033,1.1902 -0.6483,1.8902 0.2307,1.0431 -1.3567,0.9808 -1.9569,1.4997 -0.6309,0.5454 -1.1377,1.4406 -1.1739,2.1652 -0.031,0.624 0.8754,2.1076 -0.3607,1.5483 -0.961,-0.435 -0.9269,1.156 -0.7286,1.6845 0.2069,0.5513 -1.111,1.1075 -0.2263,1.6637 0.8844,0.556 0.2132,1.6318 -0.5587,2.008 -0.5451,0.2657 -1.7715,0.7519 -1.7352,-0.03 0.039,-0.8529 -0.9729,-1.4062 -0.7237,-1.7932 0.165,-0.2562 1.1603,-0.2787 0.5704,-0.6978 -0.8506,-0.6045 0.7788,-1.4862 -0.3488,-2.0797 -0.7572,-0.3986 -1.9132,-0.788 -2.1195,-1.6083 -0.2482,-0.9876 1.6218,0.4311 1.3462,-0.7788 -0.2228,-0.9784 -1.2601,-1.3394 -2.2113,-1.2985 -0.9645,0.041 -1.7243,-0.3133 -1.4241,-1.3796 0.2494,-0.8856 -0.092,-1.8895 -0.6954,-2.6529 -0.5619,-0.7101 -1.7731,-0.5827 -2.5014,-0.3188 -0.8277,0.2999 -1.6379,-0.3359 -2.2726,-0.2033 -0.7959,0.1662 0.6151,0.6459 0.9995,0.9428 0.6532,0.5043 -0.6321,1.2244 0.1321,1.8301 0.5137,0.4071 1.1414,1.2383 0.1509,1.5898 -0.5796,0.2058 -1.6162,0.4274 -1.6409,1.2063 -0.4607,1.082 -0.2876,0.4364 0.547,1.3518 0.4159,0.3047 1.3177,1.1532 2.0251,1.1969 0.9334,0.057 0.9578,1.1252 1.4617,1.6846 0.5303,0.5889 0.9307,1.3441 1.4805,1.9434 0.4308,0.4695 0.5113,1.2373 0.7073,1.8301 0.2114,0.6393 -0.7932,0.9829 -1.0656,1.5806 -0.3863,0.8475 -0.2125,1.7193 -0.2287,2.5372 -0.015,0.7925 0.618,1.5688 1.5795,1.7332 0.4358,0.075 0.5836,0.8666 1.2448,1.019 0.6816,0.1571 1.8816,1.0522 1.7729,1.4327 -0.071,0.2467 -1.4764,1.3087 -0.6295,1.6892 0.8525,0.383 2.1038,-0.3133 2.7607,0.4136 0.5441,0.6021 0.52,1.7593 1.5347,1.9203 1.0183,0.1614 1.1714,1.2254 2.0039,1.6868 0.7368,0.4083 1.4447,0.7823 2.2373,0.9983 0.6044,0.1647 1.4668,0.3662 0.8464,1.1184 -0.5272,0.6395 0.7144,0.6715 1.0798,0.2773 0.5659,-0.6108 1.0354,0.3935 1.4664,0.6216 0.6796,0.3598 1.6596,0.9961 0.8534,1.7955 -0.5714,0.5664 -1.9207,1.4542 -0.6365,2.2068 0.7226,0.4235 1.4232,1.1125 2.367,1.0353 0.9232,-0.076 1.8551,0.6415 1.5064,1.6175 -0.2665,0.7457 -0.6127,1.6561 -1.3367,2.1144 -0.8749,0.5538 -0.2119,2.0969 -1.2589,2.2692 -1.0275,0.1689 -0.2196,1.8918 -1.0444,1.592 -0.8535,-0.31 -0.803,0.963 -0.8417,1.4859 -0.047,0.6413 -0.6203,1.6571 -0.686,2.595 -0.061,0.864 -1.3406,1.1234 -1.9426,1.71 -0.5709,0.5561 -2.0107,0.5795 -1.978,1.2917 0.035,0.7805 -0.4746,1.7397 0.5752,2.2322 0.7393,0.3468 0.7105,1.3659 1.1741,1.9827 0.4317,0.5744 0.9387,0.9842 1.6809,1.1115 0.896,0.1537 1.1579,1.3303 2.1595,1.2663 0.6318,-0.04 0.9755,-0.021 1.2589,0.7095 0.3462,0.8915 -0.074,1.5146 -0.2003,2.3292 -0.1035,0.6686 -0.1536,1.5436 0.1107,1.9041 0.3277,0.4468 -0.096,1.663 0.7804,1.0652 1.062,-0.725 1.5362,0.4751 1.3556,1.2872 -0.204,0.917 1.3106,1.5369 0.6436,2.35 -0.6185,0.754 0.1183,1.3951 0.2475,2.0935 0.1713,0.9261 0.5483,2.0064 1.6409,2.3386 0.7082,0.2154 1.2434,-0.4186 1.6974,-0.3697 0.6453,0.07 0.7092,1.8064 0.3112,2.4263 -0.4612,0.7185 0.6354,1.6079 -0.038,2.045 -0.626,0.4066 -0.45,0.7743 0.066,1.1855 0.6133,0.4888 0.5899,1.7001 0.6484,2.5788 0.07,1.0415 1.3705,1.3662 2.2396,1.4465 0.9384,0.087 1.1497,1.1949 1.9757,1.5575 0.7014,0.308 1.4589,0.8252 1.5559,1.6477 0.092,0.7741 -0.5672,1.7233 0.4786,2.0011 1.1317,0.3004 -0.034,1.5175 0.9454,1.8971 0.9117,0.3533 1.8299,0.6016 2.8314,0.5916 0.8561,-0.01 1.7782,0.1843 2.4188,0.7718 0.7568,0.6941 0.4014,-0.4755 0.4101,-0.9567 0.017,-0.9333 1.5923,-0.01 2.2633,0.111 0.8719,0.1543 1.8083,-0.079 2.4801,0.6678 0.5408,0.6003 1.243,0.9041 1.7447,1.5875 0.3956,0.5389 0.7833,1.3247 1.7091,1.2386 0.7769,-0.072 0.6136,1.2373 0.4386,1.6152 -0.2864,0.6184 -0.2648,2.1099 0.5399,2.008 1.0527,-0.133 0.8346,0.8786 1.3178,1.3749 0.4361,0.4479 1.2629,0.058 1.4547,0.8527 0.1605,0.6654 -0.091,1.3085 0.9147,1.4882 0.7795,0.1393 0.084,1.4036 0.3395,1.7747 0.4,0.5808 1.5775,0.9777 2.1123,1.7378 0.3919,0.557 1.1294,0.7794 1.5088,1.2199 0.5575,0.6475 -0.4409,1.7489 -0.046,2.5604 0.4361,0.8989 1.5164,1.1941 2.2444,1.8671 0.7061,0.653 1.6668,0.759 2.6168,0.5339 0.7392,-0.1753 1.8063,-0.5279 2.3175,0.3373 0.3547,0.6004 1.1941,0.8213 1.7116,1.2872 0.5131,0.4618 1.161,0.8299 1.4074,1.5435 0.2867,0.8306 1.6471,1.033 1.5937,1.8163 -0.079,1.1712 1.6257,0.4309 1.1458,1.6222 -0.2561,0.6355 0.6702,1.4441 0.224,2.2738 -0.2809,0.5222 0.7407,1.0972 0.085,1.7862 -0.7594,0.798 0.494,1.4141 0.9619,1.8718 0.5637,0.5517 1.238,1.0909 2.044,1.3541 0.5467,0.1786 0.9984,0.6685 1.4239,1.0745 0.4292,0.4096 1.6035,1.5657 1.4334,0.2957 -0.1143,-0.8535 -0.1215,-1.6749 0.943,-1.9225 0.6798,-0.1581 1.0132,-0.087 1.5843,0.2958 0.5786,0.3869 1.4982,-0.1514 2.1855,-0.2034 0.9854,-0.075 0.3745,1.4177 1.0184,2.0335 0.6604,0.6317 2.0419,-0.9767 1.6692,0.081 -0.3468,0.984 0.3855,1.394 0.5516,2.2231 0.1537,0.767 0.3122,1.8604 0.9972,2.2644 0.759,0.4477 0.5982,1.3701 1.4547,1.6732 0.8292,0.2934 1.871,0.3005 2.6475,-0.095 0.3442,-0.1753 0.7595,-0.7325 1.0325,-0.081 0.3281,0.7828 0.5952,1.5714 0.91,2.3477 0.3006,0.7408 0.2124,1.9698 1.226,2.0312 0.8992,0.054 0.8651,0.6945 0.976,1.3125 0.1368,0.762 1.1462,1.2115 1.0421,2.0174 -0.055,0.4231 -0.6344,0.7402 -0.7003,1.116 -0.1293,0.7392 1.4232,0.8587 2.1713,0.8781 0.9071,0.024 1.8795,0 2.558,0.6887 0.5646,0.5725 1.398,0.8535 1.8625,1.5713 0.4701,0.7267 0.8409,1.8142 1.5418,2.0613 0.8066,0.2842 0.932,0.8845 1.9355,1.0305 0.7727,0.1125 2.1052,-0.1261 2.2773,1.0075 0.082,0.5372 0.806,0.6049 0.8912,0.959 0.1898,0.7891 0.9714,1.0985 1.7187,1.2941 0.6848,0.1792 0.1949,0.9634 0.099,1.4927 -0.1803,0.9958 -1.9573,-0.3672 -1.9072,0.9174 0.02,0.5246 -1.0155,0.449 -0.4904,1.2895 0.5609,0.8975 2.4009,0.013 1.9049,0.9981 -0.3675,0.7296 0.01,0.8941 0.3065,1.4258 0.4261,0.7507 0.6547,-0.7323 0.7496,0.1733 0.1229,1.171 1.9182,-0.2648 1.8908,0.8135 -0.024,0.9685 1.3352,0.3068 1.8814,0.027 0.6885,-0.352 1.7366,0.3797 2.5061,0.4967 0.8288,0.1263 1.7449,0.04 2.5696,0.2635 0.7766,0.2102 1.2692,1.1603 2.209,0.7071 0.6266,-0.3022 1.115,0.2603 1.6786,0.6285 0.7361,0.481 1.737,0.8978 2.466,1.4904 0.729,0.5927 1.3059,0.121 1.8412,-0.3442 0.3614,-0.3142 0.2208,-1.6199 0.8841,-1.0121 0.7532,0.69 1.7132,-0.058 1.6125,-0.751 -0.07,-0.4771 -0.7745,-1.0276 0.1698,-1.0722 0.8649,-0.041 1.6087,0.5663 2.1925,0.5221 0.3832,-0.029 0.5281,-0.825 0.771,-1.3055 0.361,-0.7146 0.7325,-1.6805 0.6011,-2.5719 -0.1103,-0.748 0.2612,-1.6867 0.9336,-1.0883 0.6568,0.5843 1.5566,0.8935 1.6857,1.9109 0.046,0.367 0.4288,0.7523 1.023,0.245 0.3403,-0.2904 0.5753,0.7329 1.2614,0.5129 0.5179,-0.1659 0.7833,0.4007 1.1081,0.5639 0.3635,0.1827 0.8005,1.3055 0.8534,0.4714 0.055,-0.8727 1.2282,-0.9005 1.622,-1.368 0.5603,-0.6653 1.5084,-0.8656 1.6384,0.1594 0.09,0.7102 0.5819,0.9251 1.3792,0.8019 0.7751,-0.1199 0.5812,1.466 1.0633,2.0312 0.5839,0.6848 1.3776,-0.2002 2.2184,0.1501 0.6256,0.2607 0.01,-0.9254 0.7945,-1.227 0.9262,-0.3554 -0.2738,-1.3843 0,-2.2483 0.2605,-0.8293 0.5737,-1.707 0.04,-2.6181 -0.421,-0.7191 0.2699,-1.5814 0.5706,-2.3155 0.2877,-0.7021 0.3535,-1.9382 1.2259,-2.0358 0.9129,-0.1021 1.5744,-0.7128 2.1854,-1.2825 0.5399,-0.5031 0.7076,-1.1995 1.3627,-1.6499 0.5434,-0.3735 -0.6109,-1.3833 0.2664,-1.9087 0.8314,-0.4979 -0.2207,-1.6654 0.4597,-2.0543 0.7547,-0.4313 1.732,-0.038 2.5037,0.2519 0.5644,0.2124 1.1589,-0.7422 1.714,0.012 0.5682,0.7718 1.5748,0.6565 2.4448,0.8112 0.8326,0.148 1.6996,0.9118 2.6428,0.6885 0.6996,-0.1656 1.3836,-1.2969 0.5658,-1.7931 -0.7102,-0.4309 -2.0927,-0.7497 -1.4217,-1.8925 0.4166,-0.7094 0.01,-1.7033 0.5117,-2.3894 0.3153,-0.4273 0.1782,-0.8733 0.884,-1.0375 0.675,-0.157 0.1,-1.4345 0.3513,-2.052 0.2932,-0.7201 -0.6718,-1.904 -0.257,-2.4864 0.4755,-0.6674 0.9353,-1.8851 0.4763,-2.4541 -0.4482,-0.5553 -0.2656,-0.9706 -0.019,-1.4997 0.2321,-0.4977 -0.7678,-1.4862 -0.6978,-2.3847 0.064,-0.8166 0.143,-1.7967 0.8676,-2.3432 0.594,-0.448 0.2105,-1.1604 0.165,-1.7353 -0.062,-0.7877 0.9663,-0.4836 1.5088,-0.8712 0.4849,-0.3464 1.1864,0.6186 2.0911,0.2612 0.9781,-0.3866 0.5008,1.7623 1.8129,1.837 0.9884,0.056 1.9042,-0.096 2.8858,-0.1479 0.9826,-0.052 1.3857,0.5882 1.4522,1.4789 0.062,0.8377 0.7151,1.571 0.088,2.5071 -0.6168,0.9197 1.1585,0.7894 1.6997,0.8135 0.6434,0.029 0.9518,-1.3411 1.9851,-1.5089 0.9891,-0.1607 1.96,0.9155 2.6169,0.3719 0.4492,-0.3715 0.1313,-1.0426 0.7403,-1.5181 0.639,-0.4991 -0.6153,-2.0053 0.2145,-2.0705 0.626,-0.049 0.5585,1.2511 1.5136,1.4281 1.1183,0.2073 1.3191,-0.6102 2.3457,-0.3928 1.0266,0.2173 0.9649,0.01 1.655,0.3812 0.6901,0.3755 0.9865,0.9561 1.6031,1.3726 0.6104,0.4124 1.1769,0.9475 1.9403,1.1277 1.0045,0.2371 2.0656,0.2526 3.0648,0.5315 1.0856,0.3031 1.0008,1.3576 1.4876,2.1005 0.5865,0.8952 1.514,0.8682 2.308,1.2594 0.7593,0.3741 1.447,0.8947 2.3787,0.9335 0.7607,0.032 1.6767,-0.3178 2.1831,0.5824 0.4214,0.7489 1.59,0.3787 2.2869,1.16 0.5335,0.5982 0.9299,1.8488 1.7186,1.7793 0.9421,-0.083 1.898,-0.3468 2.8243,0.095 0.7676,0.3659 1.5386,-0.2922 1.8554,-1.1392 0.3617,-0.9668 1.7239,-0.6533 2.5863,-0.5129 0.7363,0.1197 1.3108,-0.7922 1.9851,-0.1272 0.7335,0.7237 -0.8205,0.4555 -0.3278,1.0792 0.2672,0.3381 0.8618,0.1327 1.1033,0.6077 0.2152,0.423 0.5305,-0.7342 0.7144,-0.721 0.2918,0.021 0.6644,1.2624 1.2424,1.7909 0.5946,0.5438 1.3734,0.095 1.8059,0.5129 0.3791,0.3673 -0.411,0.9585 0.521,1.1901 0.7468,0.1856 0.2621,-0.5227 0.4809,-0.6471 0.3304,-0.1877 0.3291,0.3986 1.0162,0.5408 0.9351,0.1936 -1.5479,1.3816 -0.316,1.6592 1.0829,0.244 1.0523,1.114 1.9733,1.5182 0.8355,0.3666 1.611,1.0101 2.459,1.4604 0.7827,0.4155 1.5922,0.7013 2.3952,1.1832 0.7794,0.4676 1.7509,0.4064 2.598,0.7417 0.8464,0.3351 1.731,0.1894 2.631,0.1686 1.535,-0.035 3.0795,0.3068 4.5877,0.3144 0.8706,0.01 1.7547,0.01 2.5792,-0.3121 0.7817,-0.3039 1.6574,0.4367 2.4872,0.6794 1.0117,0.2959 1.7843,-0.9277 2.407,-0.1525 0.6345,0.7897 1.3864,0.4351 1.9804,-0.1364 0.5697,-0.5481 1.123,-0.9546 1.2942,-1.86 0.1237,-0.6538 1.546,-0.7861 1.5278,-1.7378 -0.014,-0.73 0.3233,-1.4219 0.5045,-2.0427 0.1997,-0.6843 1.4111,-0.6343 2.1902,-0.1918 0.5913,0.3359 1.9704,0.4983 2.2891,-0.035 0.3867,-0.647 0.9071,-1.2163 1.5372,-0.4553 0.4123,0.4981 0.8405,0.8875 1.754,1.0514 0.7405,0.1329 1.3901,1.0314 2.3881,0.9058 0.87,-0.1093 2.1528,-0.5339 2.8267,0.2681 0.5428,0.646 1.2586,1.4678 0.8535,2.3454 -0.2719,0.5891 -0.2084,2.3647 0.6931,1.673 0.6596,-0.506 1.7187,-0.5589 2.5485,-0.5915 0.6378,-0.025 0.8287,0.8636 1.1763,1.1738 0.49,0.4372 0.9226,1.2151 1.9168,0.8828 0.7935,-0.2653 1.864,0.7065 2.2538,0.208 0.5118,-0.6546 1.0646,-0.2536 1.5701,-0.1387 0.7089,0.161 1.2343,-0.6373 1.7729,-0.8457 0.5525,-0.2139 1.3397,0.2513 1.8318,0.8803 0.5396,0.6901 0.6847,1.7674 0.323,2.5188 -0.3655,0.7594 0.8772,0.5589 0.323,1.405 -0.4331,0.661 0.3456,1.5938 0.3701,2.2761 0.024,0.6749 -0.4705,1.6286 0.6483,1.7654 0.9619,0.1177 1.2823,-0.3852 1.6313,-0.9636 0.2521,-0.4175 0.2257,-1.1071 0.4857,-1.6684 0.3562,-0.7684 -0.3385,-1.9741 0.4551,-2.6411 0.7528,-0.6329 1.1794,-1.4056 1.2046,-2.4842 0.019,-0.8006 0.8782,-1.509 1.0279,-2.4101 0.1318,-0.7926 1.0806,-1.3149 1.3627,-2.059 0.2639,-0.6961 0.5854,-1.1472 1.1151,-1.5875 0.4892,-0.4065 0.8514,-0.8217 1.391,-1.1438 0.4383,-0.2616 0.2655,-0.9848 0.7638,-1.4003 0.5361,-0.447 0.6158,-1.397 0.5257,-2.2415 -0.072,-0.6677 0.743,-1.2513 1.2283,-1.4443 0.5778,-0.2296 1.3961,-0.2649 1.6339,-1.0144 0.1809,-0.5704 0.8468,-0.7113 1.181,-1.3449 0.3265,-0.6188 1.1928,-1.1656 2.0465,-0.4945 0.6231,0.4902 1.8473,-0.1022 2.414,0.5962 0.5058,0.6233 1.1512,0.3851 1.6974,0.8088 0.5082,0.3943 1.0923,1.5839 1.9969,0.855 0.5557,-0.4479 0.2855,0.6967 0.8322,0.9567 0.7106,0.338 1.3923,0.8987 1.8365,1.4789 0.2524,0.3297 1.0672,-0.3331 1.7352,0.048 0.5773,0.3298 0.7702,-0.8203 1.5583,-0.8989 0.9941,-0.1 0.9403,-1.6178 1.853,-1.9804 0.7943,-0.3155 1.6601,0.3987 2.3199,0.8943 0.6531,0.4908 1.1059,1.0749 1.7681,1.5044 0.6009,0.3897 1.7131,0.2017 2.0557,-0.1596 0.5676,-0.5982 1.3891,-0.5329 2.1713,-0.7185 0.8115,-0.1926 0.062,-1.3452 1.2236,-1.3888 0.629,-0.024 0.822,-0.9355 1.4994,-1.2409 0.6598,-0.2976 1.5256,0.027 2.176,-0.4922 0.6982,-0.5575 2.0638,0.036 2.4731,-1.1139 0.3337,-0.9377 1.2832,-1.4336 1.6927,-2.3269 0.367,-0.8008 1.5308,-1.1152 1.8531,-1.814 0.4245,-0.9205 0.9665,-1.2575 2.1029,-1.1346 0.8893,0.096 1.7975,-0.2977 2.6121,0.1364 0.8228,0.4383 1.3401,-0.1218 1.7351,-0.5176 0.4723,-0.4731 -0.094,-1.7513 0.481,-2.5049 0.5374,-0.705 -0.1876,-1.8483 0.4243,-2.5604 0.7158,-0.833 -0.1858,-2.0005 0.5281,-2.7729 0.4852,-0.5249 1.3049,-0.8412 2.0558,-0.8528 0.9904,-0.015 1.9933,-0.2729 2.8856,-0.072 0.8897,0.2008 1.7261,-0.024 2.4425,-0.4992 0.6852,-0.454 1.4462,-0.9135 1.9708,-1.5714 0.2966,-0.3716 0.5516,-0.6256 0.9902,-0.9681 0.4758,-0.3715 0.1545,-1.5954 0.7779,-2.2923 0.7066,-0.7897 0.03,-1.7698 -0.146,-2.6182 -0.1468,-0.7084 0.3289,-1.1796 -0.1085,-1.9041 -0.3841,-0.6363 0.2163,-1.4739 1.0138,-1.904 0.9438,-0.5091 0.1795,-1.7812 0.1508,-2.625 -0.022,-0.6676 0.6689,-0.8688 0.785,-1.5922 0.1398,-0.8698 0.6627,-1.7184 -0.1249,-2.5256 -0.6652,-0.682 0.055,-1.6015 0.7945,-2.1353 0.7472,-0.5397 1.6625,-1.3383 1.3745,-2.5834 -0.2621,-1.133 1.4071,-0.5717 2.1077,-1.1738 0.6061,-0.5213 1.7557,0.4869 2.4187,-0.061 0.6857,-0.5656 1.483,-0.6297 2.1077,-1.264 0.4253,-0.4319 0.9895,-0.3724 1.4357,-0.7903 0.6234,-0.5836 1.7438,-0.4446 2.5557,-0.8411 0.9055,-0.4424 0.9193,-1.6812 1.7468,-2.156 0.3411,-0.1956 -0.01,-0.7956 0.5659,-1.0352 0.9017,-0.3786 -0.4181,-1.7387 -0.3018,-2.662 0.1378,-1.0935 1.7647,0.2271 2.3387,-0.3582 0.4353,-0.444 0.4447,-0.9453 1.207,-1.1601 0.7563,-0.213 0.3527,-1.4278 1.1175,-1.8648 0.7459,-0.4259 0.7926,-1.6817 1.4806,-2.3731 0.547,-0.55 1.7736,-0.884 1.4923,-1.6361 -0.1496,-0.3999 -0.7721,-0.8208 -0.7803,-1.3332 -0.01,-0.2647 0.092,-0.5082 0.3111,-0.7025 0.7348,-0.6503 1.6316,-1.2442 2.6216,-1.3957 0.5446,-0.084 0.8947,-0.2363 1.042,0.4737 0.217,1.045 1.6716,0.2721 2.3929,0.083 0.7364,-0.193 1.7969,-1.1565 2.2044,-0.677 0.6316,0.7434 1.7716,0.049 2.3245,0.7186 0.4627,0.5596 1.4781,0.7794 2.1218,0.3166 0.7949,-0.5714 1.3243,-1.3059 2.216,-1.7978 0.9064,-0.4999 1.9405,-0.1015 2.8055,-0.4945 0.5626,-0.2557 -0.5608,-0.2191 -0.5021,-0.855 0.08,-0.862 1.2405,-1.2103 0.9807,-2.2091 -0.2294,-0.8821 -0.8298,-1.2751 -1.1764,-1.9364 -0.3664,-0.6989 0.081,-1.8035 -0.4079,-2.1398 -0.7435,-0.5124 -0.563,-1.5714 -0.8817,-2.3085 -0.378,-0.8743 -0.7397,-1.7664 -0.9123,-2.7221 -0.1311,-0.7253 0.5612,-1.8163 -0.5423,-2.0913 -0.7672,-0.1912 -1.8129,-0.8845 -2.4353,-0.091 -0.6988,0.8918 -1.6658,0.063 -2.2326,-0.3259 -0.6377,-0.4372 -0.4886,-2.1248 -1.7517,-1.6613 -0.9259,0.3397 -1.9647,-0.2182 -2.8738,-0.3928 -0.7634,-0.1469 -1.0133,-1.1534 -0.7685,-1.9019 0.2739,-0.8382 -0.3201,-1.248 -0.8912,-1.7723 -0.5861,-0.5381 -0.3446,-1.5703 -0.811,-2.2692 -0.478,-0.7163 -0.1859,-1.5156 -0.9383,-2.1698 -0.5637,-0.4902 -1.5081,-1.6836 -1.1434,-2.4703 0.2721,-0.5872 1.3866,-0.8578 0.9547,-1.5552 -0.1955,-0.3156 1.5536,-0.9192 0.5282,-1.1322 -0.7381,-0.1535 -1.7095,-0.3501 -1.6598,-1.3125 0.043,-0.8343 0.4013,-1.619 0.2641,-2.4588 -0.086,-0.5271 -0.1502,-1.4325 -0.969,-0.9012 -0.4811,0.3123 -1.04,-1.0036 -1.3956,-0.1848 -0.2737,0.63 0.8704,1.4345 -0.1579,1.8301 -0.9012,0.3467 -1.7703,-0.14 -2.624,0.037 -0.3914,0.082 -0.4236,-0.5313 -0.8133,-0.7995 -0.6109,-0.4204 -1.0453,-0.7755 -1.8649,-0.9035 -0.886,-0.1384 -0.7093,-1.7815 -1.8671,-1.2225 -0.8187,0.3953 -1.9649,0.6872 -2.6806,0.018 -0.48,-0.4485 -2.2999,-0.8073 -1.6314,0.1225 0.1919,0.2667 1.2026,0.1776 0.6248,0.5153 -0.6385,0.3732 0.7559,0.7162 -0.3655,0.8111 -0.9877,0.084 -2.1792,0.4537 -3.0034,-0.3027 -0.8455,-0.776 0.05,-2.0041 -0.4504,-2.8792 -0.4767,-0.8338 -1.9534,-0.5864 -2.7701,-0.5847 -1.0574,0 -1.4153,-0.1923 -1.0797,-1.0837 0.4867,-1.2927 -1.2855,-1.1985 -2.1124,-1.5159 -0.7441,-0.2857 -0.574,0.8211 -0.6931,1.2917 -0.2121,0.8386 -1.1009,-0.4091 -1.7965,-0.5153 -0.8301,-0.1268 -1.5676,-0.1652 -2.0439,-0.9682 -0.4152,-0.6998 0.3401,-1.5804 -0.8511,-2.149 -0.4519,-0.2158 -0.022,-1.0854 -0.7733,-1.167 -0.879,-0.096 -0.6821,-1.1643 -1.5772,-1.4836 -1.0093,-0.3601 -2.2035,-0.1007 -2.4731,0.862 -0.1905,0.6808 -0.1995,2.7992 0.8512,1.9641 0.6751,-0.5366 1.3599,-0.5935 1.3532,0.3375 -0.01,0.6604 0.4735,1.4417 -0.5777,1.5689 -0.8239,0.1 -1.5945,-0.6213 -2.0557,-0.4297 -0.5511,0.2288 -0.9101,0.764 -1.7257,0.8249 -0.7901,0.058 -1.4677,0.9851 -1.8789,1.7239 -0.5345,0.9599 -1.5308,0.7601 -2.4425,0.8849 -0.7558,0.1036 -1.5744,0.8512 -1.9638,-0.2079 -0.2676,-0.7279 -2.0732,-0.8055 -1.721,-1.5389 0.5586,-1.1637 -0.9501,-1.0999 -1.5772,-1.3311 -0.6553,-0.2415 -1.5128,-0.5848 -1.5112,-1.435 0,-0.5543 -0.01,-1.4608 -0.7969,-1.8926 -0.4004,-0.2181 -0.2414,-0.6287 -0.2051,-1.153 0.028,-0.4074 -0.6136,-0.9427 -1.3036,-1.2502 -0.641,-0.2854 -0.328,-1.556 -1.094,-1.9964 -0.6716,-0.3862 -1.1913,-1.2821 -1.6974,-0.8874 -0.633,0.4939 -0.8037,1.2699 -1.853,0.8134 -0.9255,-0.4026 -0.5326,-1.7717 -1.5371,-2.0797 -0.8342,-0.2558 -1.3301,-0.7948 -1.813,-1.5044 -0.3783,-0.5558 -0.7938,-1.0759 -0.038,-1.4719 0.6612,-0.3464 1.5187,-0.427 2.2538,-0.7649 0.8643,-0.3972 1.8316,-0.6571 2.7465,-0.7233 1.207,-0.088 0.9744,-1.1294 1.4051,-1.8116 0.5712,-0.9047 2.0077,0.6058 2.4943,-0.5176 0.3361,-0.776 0.01,-1.7621 0.4149,-2.4772 0.2977,-0.5247 -1.3325,-0.8774 -1.985,-1.2964 -0.9346,-0.5999 -0.2788,-1.5983 -0.099,-2.3477 0.1859,-0.7751 1.0194,-1.3124 1.0633,-2.0774 0.035,-0.6081 -1.2101,-0.1025 -1.5276,-0.9244 -0.3117,-0.8063 -1.45,-1.6563 -2.2256,-1.0975 -0.7575,0.5456 0.5086,2.0181 -0.6813,2.5557 -0.8413,0.3802 -1.4752,1.2007 -1.9379,2.0266 -0.4313,0.7698 -1.8406,1.2632 -2.3505,0.3605 -0.4547,-0.8049 -1.6437,-0.4343 -2.2349,0.06 -0.7252,0.6064 -1.5526,-0.238 -2.3552,-0.2912 -0.8578,-0.056 -1.6818,0.1146 -2.4589,0.5707 -0.7231,0.4245 -1.1268,1.0758 -1.8036,1.4998 -1.1966,0.7496 -0.7365,-1.0142 -1.1929,-1.5945 -0.3599,-0.4576 -0.9951,-0.2447 -1.5064,-0.6978 -0.5097,-0.4515 -2.0472,-0.555 -2.0535,0.6655 -0.01,1.1651 -0.9439,0.2533 -1.207,-0.409 -0.3519,-0.8856 0.456,-1.378 0.396,-2.193 -0.046,-0.6389 0.3154,-1.9297 -0.3206,-2.1305 -1.0542,-0.3329 -1.7717,0.7012 -2.8431,0.7579 -1.1548,0.062 -1.9778,-0.6483 -2.8102,-1.19 -0.8463,-0.5508 -1.508,-1.3785 -2.268,-2.0451 -0.8298,-0.7276 -0.053,-1.8183 -0.462,-2.4309 -0.5843,-0.8755 -1.9036,0.2053 -2.881,0.2981 -1.035,0.099 -2.0926,-0.4223 -2.5816,-1.227 -0.5682,-0.9355 -1.9052,-0.4893 -2.8148,-0.5616 -1.0594,-0.085 -1.4667,-1.3588 -2.3128,-1.398 -0.7358,-0.034 -1.2867,-0.3872 -2.0488,0.1733 -0.6069,0.4465 -1.1694,-0.9072 -1.8553,-1.0907 -0.9665,-0.2586 -1.7607,-1.2006 -2.6333,-1.3055 -0.815,-0.098 -1.1712,0.9976 -1.5348,1.6637 -0.3485,0.6386 -1.1551,1.3692 -0.943,2.0335 0.2262,0.7084 1.3144,0.8822 1.8436,1.4673 0.3613,0.3996 1.1415,0.232 1.3249,0.9822 0.216,0.8839 -0.2421,2.0274 0.5352,2.6203 0.7817,0.5965 0.7362,1.4624 0.8605,2.2877 0.1419,0.9425 1.284,1.0711 2.0534,1.2802 0.9491,0.2579 1.8894,0.6112 2.3221,1.6638 0.3144,0.7643 0.715,1.7773 0.1132,2.3062 -0.6559,0.5765 -0.7126,1.5055 0.1486,1.9132 0.638,0.3022 0.6546,1.3777 0.132,1.8603 -0.059,0.7234 -1.2965,0.5454 -1.2896,-0.3398 0.01,-0.5372 -0.6791,-0.8164 -0.7639,-1.5482 -0.1048,-0.9056 -1.1656,0.2067 -1.0325,0.8551 0.2302,1.122 -1.2459,1.077 -1.9568,0.7024 -0.9566,-0.504 -1.6599,0.3144 -2.3198,0.8019 -0.6153,0.4544 0.3479,1.4121 -0.7096,1.71 -0.9976,0.2809 -1.1175,-1.423 -1.9403,-0.7049 -0.6223,0.5431 -1.3004,0.9901 -1.879,1.5829 -0.6192,0.6345 -0.5178,1.5923 -0.8369,2.3732 -0.2858,0.6992 -0.4702,1.5031 -1.1269,1.9896 -0.722,0.5347 -1.6877,0.7816 -2.0982,1.6522 -0.2813,0.5965 -0.398,1.2375 -1.1646,1.509 -0.9375,0.3319 -2.0525,0.4048 -2.9281,-0.012 -0.9076,-0.4317 -1.9671,-0.3667 -2.7041,-1.2016 -0.538,-0.6094 -0.7916,-1.4796 -1.5347,-1.8117 -0.4538,-0.2028 -0.7098,-0.2983 -0.5612,-0.8919 0.1746,-0.6965 -1.5575,-0.9001 -1.5088,-1.7747 0.024,-0.439 0.087,-0.6826 -0.028,-1.123 -0.1402,-0.536 -0.1036,-1.5519 0.2498,-2.1652 0.1678,-0.2912 -0.1336,-0.7982 -0.33,-1.1022 -0.3201,-0.4956 -0.5599,-1.4202 -1.523,-1.4905 -0.8506,-0.062 -0.9658,-1.3372 -1.4404,-1.7563 -0.4994,-0.4407 -1.2067,-1.0453 -1.6715,-1.5782 -0.6414,-0.7353 -0.8932,-1.629 -1.6456,-2.2831 -0.6306,-0.5482 -0.8178,-1.9149 -1.6715,-1.8764 -0.6829,0.03 -1.4651,0.9526 -2.0015,0.014 -0.4115,-0.7197 -1.0286,-1.3677 -1.4406,-1.9803 -0.3417,-0.5084 0.4087,-1.6792 0.071,-2.364 -0.3879,-0.7864 -1.6206,0.017 -2.2891,-0.2195 -0.6019,-0.2131 -1.187,-0.4326 -1.4712,0.275 -0.2144,0.5341 -1.1313,0.9552 -1.4334,0.073 -0.263,-0.7673 -0.6532,-1.5133 -1.1693,-2.1837 -0.4156,-0.5397 -0.9206,-1.4177 -1.8105,-0.8479 -0.9886,0.6328 -0.3659,-1.3515 -1.1316,-1.8487 -0.6199,-0.4025 -0.064,-2.1896 0.653,-1.6361 0.4032,0.311 0.9266,1.9516 1.398,1.0884 0.4751,-0.8702 -1.3542,-1.6799 -0.6931,-2.3362 0.376,-0.3733 1.4932,0.2006 1.4098,-0.7556 -0.1039,-1.1896 1.5111,-0.5867 2.2066,-0.7279 0.5444,-0.1105 1.2703,-1.0346 1.0986,-1.4743 -0.3536,-0.906 0.5991,-1.0827 1.0185,-0.3327 0.3705,0.6625 1.8202,0.2764 2.0369,-0.7025 0.1801,-0.8133 1.3876,-0.9003 1.8106,-1.5159 0.4232,-0.6159 -0.6941,-1.7026 0.488,-2.045 1.0608,-0.3073 -0.5647,-1.6492 -0.1084,-1.9873 0.5303,-0.393 1.3964,-0.4812 2.0535,-0.8388 0.6379,-0.3473 -0.3443,-1.1687 -0.5848,-1.599 -0.4155,-0.7441 -1.0554,-1.3989 -1.8601,-1.7448 -0.8551,-0.3675 -1.3062,-1.2009 -1.6974,-1.9987 -0.2935,-0.5985 -1.1988,-0.6096 -1.4853,-1.4582 -0.3218,-0.9534 -1.7271,-0.4136 -2.5367,-0.1963 -0.8221,0.2205 -1.7628,-0.2607 -2.5202,-0.6101 -0.9231,-0.426 -1.6919,0.2004 -1.9874,1.0051 -0.2738,0.7459 -0.1454,1.8072 -1.1151,2.1837 -0.9021,0.3503 -1.2715,-0.012 -1.5301,-0.7255 -0.327,-0.9032 -1.3869,-1.0466 -2.1689,-1.3934 -0.8075,-0.3582 -1.8279,-0.4407 -2.638,0.058 -0.7206,0.4432 -1.1818,1.1787 -1.6598,1.8486 -0.4621,0.6478 0.2562,2.0972 -0.9525,2.0289 -0.7533,-0.042 -0.7535,1.6343 -1.7257,0.9289 -0.5292,-0.384 -2.1799,-0.8606 -1.5583,-1.4096 0.4422,-0.3905 1.5372,-0.4917 1.7375,-1.0884 0.1249,-0.3716 -0.604,-0.3983 -0.4809,-1.0328 0.1893,-0.9755 -0.5627,-1.8651 -0.87,-2.7893 -0.2488,-0.7486 -0.658,-1.1454 -1.4805,-1.3633 -0.957,-0.2534 -1.7072,0.2026 -2.4848,0.5777 -0.7052,0.3402 -1.4706,0.4341 -2.1053,0.9913 -0.5238,0.4599 -2.0808,0.1975 -1.6974,-0.8919 0.2914,-0.8282 -0.413,-1.6138 -0.8535,-2.3062 -0.53,-0.8331 -0.8698,-1.6961 -0.9689,-2.6713 -0.083,-0.8113 -0.9259,-1.9373 -1.846,-1.2916 -0.4724,0.3314 -0.5296,1.2303 -1.3437,1.0282 -1.0417,-0.2585 -1.6377,0.6636 -2.6853,0.49 -0.8443,-0.1401 -2.0331,0.283 -2.4259,-0.7835 -0.3371,-0.9152 -1.4454,-0.9759 -2.2869,-1.1022 -1.0369,-0.1557 -1.7529,-1.0078 -2.6546,-1.4373 -0.6863,-0.3269 -1.6695,0.1523 -2.3197,-0.1248 -0.8533,-0.3635 -1.9175,0.4154 -2.4212,-0.245 -0.6166,-0.8081 -1.5476,-0.5755 -2.2892,-1.2801 -0.5872,-0.5579 -1.4523,-1.0388 -2.242,-1.2039 -1.0787,-0.2255 -1.2799,1.2241 -1.7281,1.9248 -0.4318,0.6754 -1.8832,1.3895 -1.9238,0.2589 -0.024,-0.6887 -0.7613,-1.3159 -0.4385,-1.6499 0.5144,-0.5322 0.5107,-1.142 0.5235,-1.6199 0.014,-0.5245 -0.2908,-1.3486 -0.9148,-1.9434 -0.6573,-0.6264 -1.2361,-1.2391 -2.117,-1.3425 -0.9275,-0.1088 -1.3908,-0.8876 -1.8059,-1.5783 -0.4704,-0.7823 -0.9942,-1.5283 -0.9007,-2.5164 0.081,-0.8479 -0.9566,-1.9085 -0.4196,-2.5489 0.4873,-0.581 1.8096,-1.1732 1.3297,-1.978 -0.2986,-0.5006 -1.0369,-0.6546 -0.8393,-1.4234 0.282,-1.0978 -1.6032,-0.3184 -1.886,-1.0722 -0.2024,-0.5392 0.2335,-1.5486 -0.7544,-1.1092 -0.67,0.2981 -1.2063,0.6874 -1.6974,1.294 -0.6121,0.756 -1.5807,-0.7839 -1.3203,-1.6452 0.2526,-0.8359 -0.1544,-1.6527 -1.2118,-1.1184 -0.8188,0.4135 -0.7501,1.6905 -1.497,1.8023 -0.5792,0.087 -1.7299,0.7425 -1.7422,-0.4228 -0.01,-0.4444 0.8334,-0.8144 0.046,-1.0769 -0.9056,-0.3021 -1.9082,-0.2913 -2.8763,-0.201 -0.8181,0.077 -1.2728,-1.528 -1.7729,-0.8133 -0.5149,0.7356 -1.1691,0.946 -1.886,1.3309 -0.6523,0.3503 -1.0572,1.3221 -0.3867,2.0428 0.4928,0.5294 0.9354,0.097 1.3815,-0.052 0.5113,-0.1718 0.761,1.0231 0.995,1.5204 0.1844,0.3923 -0.916,0.4546 -0.4433,1.1116 0.5896,0.8192 -0.2449,1.7139 -0.7544,2.2923 -0.6769,0.7686 0.032,1.2259 0.2263,1.8487 0.2254,0.7231 -1.0542,1.0118 -0.4927,1.8855 0.3198,0.4975 0.8378,1.9141 -0.2616,1.7008 -0.9759,-0.1894 -1.7852,0.6861 -2.7984,0.1526 -0.6368,-0.3355 -1.6304,-1.1107 -2.1972,-0.6287 -0.6797,0.5781 -1.435,-0.429 -1.9945,-0.409 -0.5923,0.022 -1.2447,0.5057 -1.9497,0.1456 -0.784,-0.4003 -0.5224,0.3867 -0.6412,0.8828 -0.1795,0.7482 -1.0566,1.3944 -1.0091,2.3523 0.046,0.9355 -0.9029,1.7978 -1.7965,1.5436 -0.8875,-0.2524 -1.7039,-0.8143 -2.664,-0.2311 -1.0322,0.6271 -0.092,-1.7692 -1.3957,-1.5528 -0.7611,0.1263 -1.3734,0.014 -1.9614,-0.5545 -0.5703,-0.5515 -1.3958,-0.3426 -2.1878,-0.7026 -1.0555,-0.4796 -0.4348,-1.4366 -0.2711,-2.1374 0.1919,-0.8221 0.7696,-1.5152 1.4522,-2.0982 0.5785,-0.4941 0.7037,-2.2457 0.064,-2.6713 -0.6028,-0.4008 -1.5652,0.502 -2.3293,0.7788 -0.7109,0.2573 -2.1872,1.1469 -2.6522,0.2263 -0.492,-0.9738 0.9113,-1.2861 1.2542,-2.045 0.3889,-0.8607 0.4399,-1.7355 0.5917,-2.6713 0.1863,-1.1478 -1.1361,-1.0347 -1.4051,-1.8116 -0.3502,-1.0117 -1.312,-0.7967 -2.0864,-0.8596 -0.4543,-0.037 -0.072,-1.3981 -0.917,-1.3519 -0.8537,0.047 -1.5406,-0.6698 -0.7921,-1.3678 0.7728,-0.7211 -0.8936,-1.6401 -0.896,-0.4854 0,0.5543 0.3157,2.0775 -0.5917,1.3772 -0.6117,-0.4721 -1.6184,-1.4265 -2.1712,-0.6562 -0.5732,0.7985 -1.6988,1.3494 -2.5863,0.892 -0.8319,-0.4288 -0.7598,-1.536 -1.5112,-2.0266 -0.8077,-0.5272 -1.4448,1.2034 -2.0087,0.2911 -0.3246,-0.5254 -1.0438,-1.2344 -1.6125,-1.2431 z"
       id="Czechia"
       sodipodi:nodetypes="csssssssssssssssssssssssssssssssssssssssssssssssssssssssssssssssssssssssssssssssssssssssssssssssssssssssssccssssssssssssssssssssssssssssssssssssssssssssssssssssssssssssssssssssssssssssssssssssssssssssssssssssssssssssssssssssssssssssssssssssssssssssssssssssssssssssssssssssssssssssssssssssssssssssssssssssssssssssssssssssssssssssssssssssssssssssssssssssssssssssssssssssssssssssssssssssssssssssssssssssssssssssssssssssssssssssssssssssssssssssssssssssssssssssssssssssssssssssssssssssssssssssssssssssssssssssssssssssssscssssssssssssssssssssssssssssssssssssssssssssssssssssssssssssssssssssssssssssssssssssssssssssssssssssssssssssssssssssssssssssssssssssssssssc"
       inkscape:connector-curvature="0" />
    <path
       style="color:#000000;display:inline;overflow:visible;visibility:visible;opacity:1;fill:none;fill-opacity:1;fill-rule:evenodd;stroke:#000000;stroke-width:16;stroke-linecap:butt;stroke-linejoin:miter;stroke-miterlimit:4;stroke-dasharray:none;stroke-dashoffset:0;stroke-opacity:1;marker:none;marker-start:none;marker-mid:none;marker-end:none"
       d="m 5281,1823 c 1.7672,1.9526 1.8028,-0.3323 6.456,-1.5366 3.431,-0.8879 6.9502,-1.7154 10.2968,-2.7621 2.1206,-0.6633 4.8328,0.6464 7.2586,0.5322 4.0314,-0.1899 8.1271,-0.7952 12.1056,0.1725 3.17,0.771 6.4256,0.5759 9.6426,1.0007 3.4549,0.4563 6.9522,0.4037 10.4083,0.7496 1.9531,0.1955 3.8506,0.8775 5.8321,0.8437"
       id="PL-SK"
       sodipodi:nodetypes="csssssss"
       inkscape:connector-curvature="0" />
    <text
       xml:space="preserve"
       style="font-style:normal;font-variant:normal;font-weight:normal;font-stretch:normal;font-size:17.723629px;line-height:125%;font-family:ABeeZee;-inkscape-font-specification:ABeeZee;text-align:start;letter-spacing:0px;word-spacing:0px;text-anchor:start;fill:#000000;fill-opacity:1;stroke:none;stroke-width:1px;stroke-linecap:butt;stroke-linejoin:miter;stroke-opacity:1"
       x="2483.1008"
       y="3129.603"
       id="text4325"
       sodipodi:linespacing="125%"><tspan
         sodipodi:role="line"
         id="tspan4327"
         x="2483.1008"
         y="3129.603">Original map by Wikipedia user Caroig</tspan><tspan
         sodipodi:role="line"
         x="2483.1008"
         y="3151.7576"
         id="tspan4329">This file is licensed under the Creative Commons Attribution-Share Alike 3.0 Unported license.</tspan><tspan
         sodipodi:role="line"
         x="2483.1008"
         y="3173.9121"
         id="tspan4331">https://en.wikipedia.org/wiki/File:Czechia_-_outline_map.svg</tspan></text>
  </g>
</svg>
