<?xml version="1.0" standalone="no"?>
<!DOCTYPE svg PUBLIC "-//W3C//DTD SVG 20010904//EN"
 "http://www.w3.org/TR/2001/REC-SVG-20010904/DTD/svg10.dtd">
<svg version="1.0" xmlns="http://www.w3.org/2000/svg"
 width="400px" height="400px" viewBox="0 0 3740.998580 1967.178205"
 preserveAspectRatio="xMidYMid meet">
<metadata>
Created by potrace 1.13, written by Peter Selinger 2001-2015
</metadata>
<g transform="translate(-159.107784,2231.284815) scale(0.100000,-0.100000)"
fill="#000000" stroke="none">
<path d="M18345 22309 c-25 -9 -65 -46 -65 -60 0 -30 36 -78 81 -109 56 -38
169 -155 169 -175 0 -7 13 -39 29 -71 34 -71 52 -119 58 -159 3 -16 22 -52 43
-80 51 -68 80 -124 80 -157 0 -15 9 -42 19 -60 10 -18 22 -55 25 -83 3 -27 12
-85 18 -128 10 -68 10 -83 -4 -110 -9 -18 -21 -47 -28 -65 -7 -17 -28 -46 -47
-62 -41 -36 -125 -80 -153 -80 -11 0 -47 -9 -79 -21 -33 -11 -70 -21 -83 -22
-20 -2 -98 -35 -160 -68 -10 -5 -26 -9 -35 -9 -34 0 -242 -109 -286 -149 -24
-23 -49 -41 -56 -41 -21 0 -181 -162 -181 -183 0 -11 -20 -41 -44 -66 -24 -25
-62 -65 -85 -89 -27 -28 -41 -52 -41 -70 0 -15 -9 -38 -20 -52 -11 -14 -20
-31 -20 -38 0 -7 -10 -27 -22 -43 -19 -25 -23 -43 -22 -98 1 -42 8 -79 19
-100 9 -19 23 -55 31 -82 8 -26 19 -51 25 -55 6 -3 19 -27 30 -52 11 -25 39
-75 63 -111 23 -36 62 -97 86 -136 23 -38 53 -79 67 -90 13 -11 38 -43 56 -72
86 -137 118 -182 199 -273 48 -54 98 -116 112 -138 13 -22 37 -49 53 -61 72
-56 135 -91 162 -91 22 0 37 -9 56 -34 34 -45 141 -91 192 -83 46 8 103 53
127 101 24 49 14 60 -78 85 -57 16 -77 28 -122 72 -30 29 -54 58 -54 64 0 17
-100 114 -176 172 -49 36 -78 68 -95 100 -13 25 -31 48 -40 50 -16 5 -39 43
-39 65 0 9 -35 56 -73 98 -8 8 -34 30 -58 49 -24 19 -55 50 -68 70 -51 77 -94
155 -103 190 -5 20 -24 54 -41 76 -31 39 -32 43 -33 146 -1 59 -4 111 -7 116
-4 6 5 25 18 43 13 18 30 58 37 89 7 31 21 71 33 89 80 129 125 190 155 210
19 13 44 31 55 40 49 42 125 82 185 97 36 9 100 34 143 56 45 23 92 39 112 39
19 0 54 9 77 19 24 11 69 28 102 37 32 10 69 28 81 42 12 13 33 29 46 36 13 6
30 24 37 38 7 15 40 50 75 79 34 28 80 79 102 112 50 76 48 73 75 130 27 59
30 164 6 199 -9 12 -16 34 -16 48 0 14 -8 39 -18 55 -11 18 -21 58 -24 97 -6
68 -50 203 -81 243 -20 27 -67 129 -67 146 0 20 -24 59 -73 117 -15 18 -33 48
-41 67 -10 23 -26 39 -50 49 -21 9 -40 26 -45 40 -13 33 -91 58 -168 53 -32
-2 -72 0 -88 3 -17 4 -40 4 -50 -1z"/>
<path d="M13705 21188 c-11 -7 -41 -15 -66 -19 -77 -12 -120 -39 -151 -94 -58
-102 -14 -206 93 -218 53 -7 159 -60 159 -80 0 -12 43 -82 79 -128 12 -15 30
-49 42 -75 11 -27 28 -58 38 -69 35 -40 52 -107 47 -192 -5 -101 -30 -147 -93
-174 -24 -10 -58 -30 -76 -43 -18 -14 -61 -35 -98 -48 -36 -13 -74 -32 -85
-42 -42 -37 -190 -136 -205 -136 -9 0 -28 -13 -42 -30 -15 -16 -44 -39 -64
-50 -21 -11 -50 -28 -64 -38 -14 -9 -44 -29 -65 -43 -22 -15 -51 -42 -65 -60
-34 -45 -89 -157 -89 -181 0 -11 -4 -27 -10 -37 -17 -33 -11 -191 9 -229 6
-11 11 -33 11 -47 0 -78 106 -313 176 -391 24 -26 44 -53 44 -59 0 -39 96 -79
127 -54 34 28 52 70 42 97 -6 15 -6 37 -1 56 22 73 6 171 -33 218 -14 16 -25
40 -25 53 0 13 -7 28 -15 32 -18 11 -65 101 -65 128 0 11 -9 40 -20 64 -24 51
-19 133 11 193 21 42 86 105 150 148 24 15 54 40 67 54 13 14 55 40 95 59 40
19 88 49 107 66 19 17 39 31 44 31 4 0 21 11 38 25 16 14 42 25 57 25 16 0 46
13 68 29 22 16 49 31 60 35 25 8 181 159 213 206 13 19 35 48 49 63 21 23 28
45 38 130 24 191 25 221 3 271 -10 25 -23 46 -27 46 -13 0 -117 101 -153 148
-26 35 -31 48 -26 76 5 24 1 39 -14 58 -11 14 -21 35 -23 46 -5 35 -107 126
-170 151 -31 13 -60 27 -63 32 -7 12 -35 11 -59 -3z"/>
<path d="M10014 17825 c-15 -14 -41 -35 -58 -46 -17 -11 -42 -34 -56 -50 -14
-17 -82 -89 -152 -159 -113 -114 -131 -129 -170 -135 -49 -8 -88 -26 -107 -49
-8 -9 -21 -16 -30 -16 -10 0 -40 -11 -68 -25 -41 -19 -54 -31 -63 -59 -6 -20
-26 -51 -43 -70 -61 -65 -77 -89 -78 -115 -3 -62 -9 -85 -30 -107 -20 -21 -21
-27 -10 -48 16 -28 20 -113 8 -142 -6 -14 -4 -46 6 -90 10 -46 14 -100 11
-159 -2 -49 -6 -135 -9 -189 -4 -88 -2 -103 16 -133 l21 -33 -22 -30 c-12 -16
-24 -47 -26 -67 -7 -46 -24 -93 -34 -93 -11 0 -32 -89 -25 -110 3 -10 1 -21
-5 -25 -6 -3 -8 -10 -5 -15 3 -5 1 -11 -5 -15 -5 -3 -10 -14 -10 -23 0 -9 -12
-28 -26 -43 -24 -25 -25 -29 -13 -69 10 -33 10 -46 0 -62 -6 -10 -10 -27 -7
-36 4 -11 -10 -42 -34 -77 -22 -33 -40 -65 -40 -71 0 -5 -13 -23 -30 -39 -16
-15 -32 -41 -35 -56 -4 -16 -15 -35 -24 -41 -10 -7 -23 -23 -30 -35 -7 -15
-21 -23 -37 -23 -15 0 -39 -11 -56 -25 -17 -14 -42 -25 -59 -25 -50 0 -101
-28 -157 -88 -86 -91 -113 -159 -72 -184 12 -8 20 -24 20 -41 0 -42 14 -61 62
-82 44 -20 60 -34 52 -46 -7 -12 20 -27 56 -31 32 -3 35 -6 35 -35 0 -20 9
-42 26 -60 34 -35 58 -118 47 -158 -10 -37 15 -66 77 -90 51 -19 85 -8 85 26
0 12 5 19 13 17 6 -3 12 -10 12 -15 0 -6 3 -15 8 -19 14 -14 7 -54 -12 -66
-15 -9 -18 -19 -14 -42 8 -41 19 -53 54 -61 37 -8 84 -74 74 -104 -3 -11 4
-40 20 -72 14 -29 25 -58 25 -63 0 -6 9 -22 20 -36 11 -14 20 -33 20 -43 0 -9
18 -37 40 -61 22 -24 40 -48 40 -53 0 -5 12 -16 28 -24 15 -8 41 -23 58 -35
25 -16 46 -20 95 -19 77 2 134 28 173 79 22 29 34 36 62 36 43 0 93 20 118 48
10 12 31 24 48 27 18 4 37 19 48 38 12 20 34 35 61 45 24 8 57 24 74 37 16 13
45 26 62 30 18 3 35 11 38 15 3 5 43 27 88 48 81 39 95 51 252 216 43 45 127
155 146 191 21 39 67 131 88 174 9 19 28 41 43 50 16 9 28 24 28 33 0 10 9 37
19 60 11 24 25 69 32 101 7 33 20 69 29 80 9 12 20 38 24 57 19 95 24 143 17
163 -10 26 10 124 45 214 13 34 24 81 24 105 0 24 7 56 15 72 8 15 15 39 15
53 0 13 5 34 12 46 6 12 17 45 23 72 8 37 18 53 36 62 13 6 44 32 67 57 55 57
81 59 125 9 18 -20 41 -44 52 -54 121 -109 196 -191 211 -229 20 -49 143 -180
213 -226 87 -57 100 -163 36 -299 -18 -39 -40 -77 -50 -85 -18 -15 -75 -122
-75 -141 0 -6 -11 -24 -25 -41 -13 -16 -30 -48 -37 -71 -6 -23 -23 -52 -37
-64 -14 -11 -26 -25 -27 -30 -3 -25 -77 -164 -95 -177 -23 -16 -45 -87 -61
-201 -7 -56 -14 -74 -35 -91 -20 -17 -24 -28 -19 -47 5 -21 -1 -31 -33 -59
-46 -40 -56 -59 -66 -118 -4 -25 -15 -54 -25 -65 -18 -21 -21 -32 -46 -180
-11 -64 -12 -95 -5 -107 10 -17 5 -48 -8 -48 -3 0 -15 -7 -25 -15 -15 -12 -20
-29 -21 -87 -2 -40 2 -87 8 -104 8 -26 6 -36 -13 -62 -21 -29 -22 -34 -10 -77
11 -38 10 -51 -1 -73 -13 -26 -16 -40 -21 -107 -3 -35 -23 -51 -43 -35 -21 17
-55 2 -67 -30 -5 -16 -27 -40 -49 -55 -36 -25 -42 -27 -81 -17 -95 24 -133 24
-173 0 -52 -32 -116 -89 -110 -98 10 -16 -88 -100 -116 -100 -19 0 -49 -31
-49 -51 0 -9 -16 -23 -35 -32 -27 -13 -35 -23 -35 -42 0 -15 -12 -38 -27 -53
-21 -21 -29 -41 -35 -87 -4 -33 -11 -80 -15 -105 -5 -25 -6 -67 -3 -95 4 -32
1 -60 -8 -78 -11 -25 -11 -33 2 -60 19 -42 31 -88 27 -110 -1 -10 4 -26 12
-35 8 -10 15 -38 16 -64 0 -27 5 -57 11 -68 6 -12 9 -29 5 -39 -3 -10 3 -29
14 -43 11 -13 23 -38 27 -54 3 -16 17 -40 30 -54 13 -14 29 -41 35 -60 17 -49
24 -57 89 -86 41 -18 66 -38 89 -70 17 -25 31 -49 31 -54 0 -15 52 -50 76 -50
24 0 54 -33 54 -61 0 -12 -15 -20 -52 -29 -157 -36 -267 -81 -311 -129 -19
-20 -38 -31 -57 -31 -40 0 -96 -22 -170 -67 -53 -33 -66 -45 -68 -69 -4 -40
-27 -54 -87 -54 -53 0 -74 -13 -88 -53 -4 -9 -17 -21 -30 -26 -14 -5 -27 -21
-31 -35 -6 -23 -29 -33 -58 -25 -2 0 -37 -19 -78 -42 -41 -23 -93 -51 -115
-62 -37 -18 -89 -82 -132 -161 -7 -12 -28 -37 -48 -54 -19 -18 -35 -42 -35
-53 0 -11 -4 -29 -10 -39 -12 -22 -22 -84 -21 -124 1 -15 -3 -34 -9 -41 -7 -8
-3 -18 15 -35 13 -12 27 -37 31 -54 3 -17 15 -43 25 -58 11 -14 19 -31 19 -37
0 -17 43 -51 65 -51 13 0 27 -10 35 -25 8 -14 28 -29 46 -34 18 -5 48 -20 66
-34 27 -20 59 -30 116 -37 2 0 35 -30 74 -67 l70 -68 84 -1 c79 0 89 -3 176
-47 77 -38 109 -48 182 -57 49 -6 102 -18 118 -26 15 -8 54 -17 87 -19 32 -3
86 -16 120 -30 38 -16 91 -28 139 -31 42 -3 95 -13 118 -21 33 -12 49 -12 83
-3 22 6 58 10 79 9 29 -2 50 5 86 29 55 37 77 39 146 12 64 -25 116 -25 158 0
17 11 50 23 72 26 45 7 56 17 62 59 3 17 14 52 24 78 l19 49 -28 24 c-15 13
-37 24 -47 24 -10 0 -22 5 -25 10 -8 13 -55 13 -75 0 -21 -13 -40 7 -40 45 0
25 9 41 40 69 22 20 47 36 56 36 32 0 54 -20 54 -50 0 -28 3 -30 38 -30 52 0
64 14 44 50 -24 41 -6 56 76 64 37 4 86 9 110 12 28 4 56 1 82 -10 51 -20 95
-20 112 -1 7 8 37 40 66 71 28 31 55 68 58 82 4 15 13 40 21 55 8 16 14 47 14
70 1 23 10 71 21 107 11 36 23 76 26 89 4 13 24 38 45 55 36 28 45 31 112 31
46 0 79 5 86 13 7 6 28 12 46 12 25 0 43 -11 88 -54 30 -30 55 -60 55 -68 1
-7 7 -24 14 -37 10 -19 11 -31 3 -49 -8 -18 -7 -35 6 -75 10 -29 16 -74 15
-102 -1 -27 1 -83 4 -124 5 -68 9 -77 37 -100 17 -15 31 -36 31 -47 0 -12 9
-28 21 -35 23 -16 34 -101 16 -130 -9 -14 -3 -26 33 -66 125 -135 188 -196
222 -214 20 -10 38 -22 40 -26 7 -18 96 -83 113 -83 15 0 17 -7 13 -45 -4 -36
-1 -51 15 -71 17 -22 19 -32 10 -58 -5 -17 -9 -55 -7 -84 2 -43 7 -56 29 -73
22 -18 26 -28 25 -73 0 -28 2 -73 6 -100 6 -44 10 -50 43 -63 20 -8 44 -24 54
-34 10 -10 28 -19 41 -19 12 0 33 -12 47 -26 22 -24 103 -69 112 -62 2 2 11
-3 20 -10 9 -8 21 -11 26 -8 13 9 26 -14 23 -41 -2 -15 4 -23 20 -28 13 -4 36
-21 52 -37 26 -28 41 -35 74 -37 6 -1 29 -18 50 -40 20 -21 48 -41 62 -45 14
-3 49 -28 79 -55 46 -44 60 -51 109 -57 31 -4 83 -2 117 3 33 6 74 11 92 11
50 1 104 33 140 82 18 25 73 88 123 140 49 52 103 116 120 142 57 86 128 149
222 197 96 49 127 59 213 66 39 3 77 8 85 10 8 3 62 11 120 20 211 30 239 36
375 85 23 8 65 86 65 121 1 13 7 35 15 49 8 14 14 34 15 45 0 11 14 32 30 47
19 16 30 36 30 52 0 14 11 42 25 62 14 21 28 49 31 63 3 14 14 45 25 68 15 32
20 62 19 120 -1 43 -1 96 0 118 4 107 3 138 -4 240 -9 110 -9 110 20 159 47
79 67 89 158 81 71 -7 80 -10 119 -46 23 -22 58 -44 79 -50 21 -5 41 -16 45
-23 4 -8 33 -29 63 -47 110 -67 105 -59 108 -158 3 -66 0 -96 -12 -119 -42
-82 38 -268 124 -287 27 -6 57 -28 82 -62 7 -10 33 -34 58 -53 25 -19 53 -45
63 -57 9 -12 32 -25 49 -28 18 -4 48 -17 68 -29 19 -12 49 -28 65 -37 17 -8
34 -24 40 -36 11 -25 45 -43 82 -43 16 0 39 -12 58 -30 24 -23 50 -34 109 -47
l77 -17 30 32 c22 24 39 32 64 32 27 0 42 9 73 43 72 77 90 102 101 142 9 33
19 45 62 69 44 24 59 28 101 23 31 -4 63 -16 83 -32 23 -17 46 -25 74 -25 22
0 42 -4 45 -9 3 -4 36 -23 73 -41 63 -30 73 -32 135 -25 41 4 75 2 87 -4 20
-11 24 -15 84 -70 33 -31 41 -34 94 -32 65 2 208 -23 228 -39 35 -29 224 -42
270 -18 11 6 49 15 85 19 98 12 157 24 173 37 7 6 37 17 66 23 63 13 177 63
188 82 4 8 22 21 38 30 17 8 39 24 49 36 11 12 24 21 31 21 6 0 36 30 66 67
30 37 84 97 122 133 49 49 67 73 67 92 0 15 5 30 10 33 6 4 17 22 24 40 10 24
26 39 52 50 34 14 36 17 31 49 -4 23 1 46 14 70 10 20 19 54 19 76 0 27 8 51
23 71 19 26 22 44 23 124 0 66 5 99 15 111 17 21 18 253 1 296 -13 33 6 58 43
58 14 0 39 9 57 20 40 24 79 25 121 3 21 -11 57 -17 103 -18 41 0 78 -6 86
-13 9 -7 53 -15 99 -18 46 -3 104 -12 128 -20 25 -8 56 -14 70 -14 33 0 115
-52 138 -86 16 -25 16 -27 -3 -41 -10 -8 -31 -19 -45 -24 -36 -13 -73 -104
-65 -156 4 -21 2 -78 -3 -128 -9 -90 6 -306 24 -335 4 -7 10 -60 13 -119 5
-119 5 -119 -2 -181 -3 -25 -10 -94 -15 -155 -12 -139 -29 -236 -45 -255 -7
-8 -30 -49 -51 -90 -35 -70 -116 -171 -210 -260 -34 -33 -165 -188 -165 -196
0 -5 -16 -26 -35 -47 -20 -21 -58 -72 -85 -112 -34 -50 -64 -83 -94 -100 -50
-29 -71 -51 -81 -83 -8 -28 -58 -104 -80 -122 -8 -7 -15 -17 -15 -22 0 -20
-55 -80 -91 -98 -21 -11 -52 -40 -70 -64 -32 -45 -85 -87 -126 -100 -11 -4
-41 -22 -65 -41 -23 -19 -49 -35 -56 -35 -7 0 -28 -11 -45 -24 -18 -14 -58
-34 -90 -46 -33 -12 -81 -42 -108 -66 -37 -33 -58 -44 -82 -44 -18 0 -48 -11
-68 -24 -20 -14 -53 -28 -75 -32 -21 -3 -43 -10 -49 -14 -34 -25 -190 -58
-305 -64 -54 -3 -101 -12 -130 -25 -44 -19 -210 -35 -330 -30 -65 2 -101 2
-335 -1 -126 -2 -252 3 -315 10 -189 23 -488 28 -538 9 -24 -9 -159 -21 -242
-22 -19 0 -55 8 -80 17 -32 13 -85 19 -185 23 -77 2 -151 9 -165 14 -14 5 -54
11 -90 13 -36 3 -92 11 -125 20 -86 22 -285 37 -385 29 -47 -3 -132 -8 -190
-10 -58 -1 -127 -8 -154 -14 -27 -7 -86 -13 -130 -14 -45 -2 -95 -7 -111 -12
-17 -6 -45 -8 -63 -5 -18 2 -52 -3 -75 -12 -39 -15 -94 -18 -242 -14 -22 0
-62 -1 -90 -2 -140 -8 -464 2 -515 15 -33 8 -89 13 -140 11 -117 -4 -364 45
-416 82 -31 23 -87 44 -229 87 -49 15 -99 35 -110 45 -11 10 -45 30 -75 44
-30 15 -62 33 -70 41 -8 7 -26 16 -40 20 -14 4 -46 29 -71 55 -32 33 -57 49
-83 54 -21 4 -62 18 -92 32 -29 13 -59 24 -68 24 -8 0 -30 15 -50 33 -19 19
-54 39 -78 46 -24 7 -55 24 -69 38 -15 13 -42 32 -60 41 -19 9 -36 26 -38 37
-2 11 -21 39 -42 64 -42 47 -74 109 -109 211 -12 36 -31 75 -42 86 -46 51 -72
227 -55 369 3 28 10 88 15 135 5 47 14 99 21 116 8 22 9 48 3 89 -8 47 -6 66
5 91 34 70 -27 130 -122 120 -27 -3 -91 -10 -141 -15 -93 -9 -134 -22 -134
-43 0 -7 -12 -29 -26 -49 -25 -37 -26 -39 -15 -128 8 -60 8 -98 2 -110 -6 -10
-7 -49 -4 -88 4 -54 2 -78 -11 -103 -9 -18 -16 -47 -16 -64 0 -17 -7 -49 -15
-71 -18 -52 -18 -115 0 -139 8 -11 15 -37 15 -58 0 -54 20 -128 41 -156 14
-18 15 -29 8 -55 -12 -41 -2 -111 21 -140 28 -36 55 -90 60 -122 3 -21 14 -34
35 -44 17 -8 46 -26 65 -41 19 -15 49 -34 66 -43 21 -11 33 -26 37 -46 5 -23
13 -31 38 -36 46 -10 172 -70 188 -89 7 -8 10 -20 7 -25 -4 -6 6 -18 21 -28
15 -9 37 -27 48 -39 16 -18 35 -23 94 -28 55 -4 83 -11 105 -27 16 -12 41 -22
55 -21 36 1 59 -19 74 -64 13 -36 19 -41 85 -64 56 -20 76 -32 94 -60 17 -25
34 -36 63 -42 21 -5 47 -16 58 -25 11 -11 44 -20 86 -24 51 -4 89 -16 162 -52
52 -25 112 -52 134 -60 22 -8 66 -24 97 -36 51 -19 72 -20 190 -16 73 3 159 8
191 12 45 4 71 1 117 -16 45 -16 81 -22 147 -22 49 1 108 1 133 1 306 -2 451
3 505 17 34 8 78 13 102 9 22 -3 65 1 95 8 29 8 76 14 103 14 28 1 85 5 128 9
47 6 100 5 137 -1 54 -9 65 -7 105 12 54 26 111 28 160 5 33 -16 38 -16 88 0
66 21 119 21 194 2 31 -8 79 -15 106 -15 26 0 57 -5 67 -10 41 -22 118 -30
157 -16 34 12 45 11 108 -10 39 -13 90 -23 115 -24 25 0 65 -10 90 -21 36 -16
56 -19 115 -13 140 12 201 16 243 15 24 -1 52 3 62 9 16 8 28 6 58 -11 l38
-22 68 27 c77 31 106 29 148 -11 21 -20 33 -24 55 -19 68 17 96 18 139 1 47
-18 75 -17 199 6 33 6 100 12 150 14 49 2 101 7 115 11 33 10 58 6 100 -14 41
-19 185 -20 290 -3 36 6 128 16 205 21 180 13 221 22 330 75 50 24 106 46 125
49 76 10 129 28 151 52 12 13 29 24 36 24 19 0 111 47 149 76 17 13 35 24 41
24 5 0 18 9 29 21 21 24 77 49 108 49 11 0 32 7 46 15 14 8 40 22 59 31 19 9
49 27 66 40 18 13 37 24 43 24 15 0 122 102 122 116 0 6 21 31 48 54 26 23 59
54 75 67 15 14 27 29 27 34 0 6 30 40 66 77 36 36 72 78 80 93 7 15 29 36 47
48 18 11 39 31 46 43 7 13 37 43 67 68 29 25 54 52 54 61 0 9 15 29 33 46 51
49 90 100 103 140 8 21 36 58 68 88 31 28 56 59 56 68 0 10 6 20 14 23 8 3 22
22 32 42 20 45 122 192 133 192 3 0 15 14 25 31 10 16 34 45 53 62 42 39 63
76 63 114 0 19 12 41 34 65 25 26 32 42 29 61 -3 13 0 28 6 31 6 4 11 15 11
25 0 10 6 31 14 47 15 30 14 67 -2 164 -7 44 -6 66 8 107 21 63 16 93 -22 149
-31 46 -30 59 9 112 21 27 24 40 18 70 -4 20 -12 43 -18 50 -6 8 -11 77 -11
182 -1 147 -3 170 -19 188 -12 13 -15 22 -8 27 18 11 12 42 -13 72 -31 37 -19
67 22 57 15 -4 32 -10 37 -14 6 -4 26 -11 45 -15 29 -6 171 -70 230 -104 110
-63 206 -103 267 -113 152 -23 332 14 388 81 16 18 40 33 61 37 39 7 84 39 84
59 0 7 10 26 23 42 13 15 29 42 36 58 6 17 30 43 52 59 32 22 39 33 35 50 -3
12 1 31 8 42 7 10 18 35 25 55 6 20 21 45 31 54 12 10 20 31 20 49 1 17 9 45
18 62 46 84 74 147 78 172 12 82 11 216 -2 258 -7 25 -16 76 -20 113 -4 40
-13 77 -25 93 -10 15 -19 35 -19 43 0 9 -25 42 -55 73 -30 31 -55 62 -55 69 0
7 -12 20 -27 30 -39 24 -83 65 -83 77 0 26 -90 106 -162 144 -88 46 -139 93
-156 140 -19 54 -48 87 -99 112 -26 13 -66 33 -88 44 -67 34 -88 43 -145 67
-30 13 -69 36 -87 52 -31 29 -35 30 -96 23 -77 -8 -112 3 -147 46 -26 31 -26
31 -58 14 -37 -19 -99 -14 -160 11 -21 9 -46 12 -66 7 -41 -9 -85 -60 -86
-100 0 -26 9 -38 59 -76 32 -25 69 -49 82 -53 13 -4 53 -18 88 -32 36 -14 90
-29 120 -33 36 -5 78 -21 116 -44 33 -20 69 -36 81 -36 11 0 31 -12 45 -26 13
-14 40 -34 59 -44 19 -10 44 -27 54 -39 11 -12 25 -21 32 -21 7 0 24 -14 36
-31 13 -17 39 -39 60 -50 38 -19 112 -77 163 -127 17 -16 60 -50 98 -76 39
-28 69 -57 73 -71 3 -13 17 -33 30 -46 13 -12 24 -30 24 -40 0 -10 11 -30 24
-46 34 -41 44 -64 50 -116 3 -26 8 -58 12 -71 3 -13 -4 -61 -15 -105 -12 -44
-21 -88 -21 -96 0 -22 -47 -120 -65 -135 -8 -7 -17 -28 -20 -49 -3 -20 -12
-49 -19 -66 -8 -16 -19 -43 -25 -60 -6 -16 -44 -64 -85 -106 -64 -68 -79 -78
-125 -88 -28 -6 -62 -11 -74 -11 -67 0 -259 62 -299 97 -21 19 -148 83 -164
83 -17 0 -123 49 -164 76 -19 13 -61 32 -92 43 -71 24 -128 66 -128 94 0 19
102 127 139 146 9 5 45 12 81 16 136 14 169 36 230 150 29 54 31 66 25 118 -3
31 -14 76 -25 99 -10 22 -16 47 -13 54 3 8 -7 28 -21 45 -14 17 -26 34 -26 38
0 6 -61 78 -88 103 -63 61 -127 107 -153 113 -19 4 -43 18 -54 30 -20 23 -115
86 -146 98 -9 3 -42 39 -73 80 -31 41 -66 77 -79 80 -12 4 -59 9 -104 13 -74
6 -84 5 -113 -16 -36 -26 -81 -23 -169 10 -33 13 -65 18 -91 15 -32 -4 -41 -1
-50 14 -23 44 -13 65 55 110 36 23 73 55 82 69 46 72 264 299 316 327 35 19
77 76 77 105 0 12 10 20 34 24 21 4 41 16 51 32 9 14 27 30 41 36 27 13 84 90
90 123 2 11 8 40 14 65 5 25 12 69 14 98 3 29 13 65 22 80 14 25 15 36 4 78
-6 27 -16 81 -20 119 -13 97 -18 115 -46 156 -20 29 -23 41 -15 60 7 20 4 32
-20 64 -31 42 -36 61 -16 68 9 3 9 7 1 18 -6 8 -14 30 -18 49 -9 50 -19 223
-17 305 1 68 0 71 -36 111 -21 23 -43 50 -49 60 -6 10 -30 26 -52 34 -45 15
-50 28 -32 76 9 23 7 33 -10 57 -20 26 -20 30 -6 45 8 10 15 33 15 52 0 19 3
58 7 86 10 83 -33 124 -131 124 -30 0 -31 1 -33 51 -2 42 -8 58 -37 92 -22 25
-35 51 -35 68 0 38 -16 76 -48 115 -55 67 -70 91 -106 161 -36 70 -66 103 -94
103 -12 0 -124 49 -162 71 -8 5 -26 14 -40 19 -43 17 -55 27 -52 44 2 9 -1 16
-6 16 -5 0 -49 39 -98 86 -49 48 -108 102 -131 121 -24 20 -43 40 -43 46 0 14
-51 67 -64 67 -6 0 -31 14 -55 30 -24 17 -55 30 -68 30 -13 0 -60 14 -103 31
-74 28 -80 33 -80 59 0 39 -61 97 -119 113 -35 9 -52 22 -77 57 -34 47 -86 93
-126 111 -13 5 -32 15 -43 22 -94 56 -116 67 -135 67 -47 0 -105 54 -116 107
-9 45 -70 98 -121 106 -22 4 -46 13 -53 22 -6 8 -28 17 -49 21 -20 3 -51 15
-69 25 -19 11 -38 17 -43 14 -14 -9 -30 4 -90 70 l-53 60 -61 1 c-89 0 -174
41 -252 119 -34 34 -77 68 -95 75 -18 6 -42 15 -53 19 -11 4 -40 17 -65 29
-25 12 -58 22 -75 22 -16 0 -79 16 -139 36 -84 27 -117 43 -142 68 -26 27 -46
36 -115 50 -46 10 -109 30 -139 46 -30 15 -86 33 -125 40 -38 7 -79 17 -90 23
-11 6 -45 12 -75 13 -67 3 -196 20 -247 33 -47 12 -167 29 -253 36 -144 12
-172 16 -195 27 -21 9 -34 7 -79 -16 l-54 -28 -176 13 c-173 12 -176 12 -220
-9 -24 -12 -51 -22 -60 -22 -10 0 -26 -5 -37 -11 -14 -7 -51 -7 -122 0 -82 8
-104 7 -117 -3 -8 -8 -42 -21 -75 -31 -33 -9 -76 -27 -95 -40 -19 -12 -60 -28
-90 -35 -30 -7 -75 -21 -99 -32 -24 -10 -49 -17 -55 -15 -6 3 -27 -3 -46 -13
-80 -41 -145 -60 -200 -60 -44 0 -61 -4 -75 -20 -14 -15 -31 -20 -72 -20 -47
0 -58 -4 -92 -35 -21 -19 -58 -42 -82 -50 -24 -9 -51 -23 -60 -31 -10 -9 -35
-17 -56 -18 -41 -3 -141 -34 -192 -60 -17 -9 -35 -14 -40 -11 -5 3 -59 -18
-121 -45 -62 -28 -118 -50 -126 -50 -7 0 -25 -16 -40 -35 -15 -20 -48 -45 -75
-56 -26 -11 -59 -34 -73 -50 -15 -16 -36 -29 -50 -29 -13 0 -50 -18 -82 -40
-33 -22 -64 -40 -70 -40 -5 0 -31 -13 -57 -30 -26 -16 -54 -30 -62 -30 -8 0
-26 -16 -40 -35 -20 -25 -41 -38 -83 -50 -73 -22 -208 -94 -222 -120 -6 -11
-31 -33 -56 -50 -25 -16 -83 -74 -130 -128 -46 -53 -99 -111 -118 -127 -18
-17 -39 -42 -45 -57 -7 -16 -33 -44 -58 -63 -26 -19 -51 -39 -57 -45 -19 -18
-94 -67 -128 -84 -18 -9 -42 -30 -53 -48 -35 -56 -92 -36 -162 59 -16 20 -86
104 -158 187 -71 82 -159 186 -195 231 -36 45 -113 134 -171 198 -102 111
-171 194 -249 298 -19 26 -47 59 -62 75 -14 15 -30 38 -34 51 -4 13 -33 52
-64 88 -32 36 -66 83 -76 104 -10 22 -35 58 -57 80 -21 23 -45 52 -52 66 -25
46 -243 293 -278 315 -50 30 -165 141 -214 207 -24 33 -62 68 -90 84 -26 16
-77 50 -112 76 -74 55 -107 60 -147 23z m18 -546 c32 -33 58 -65 58 -69 0 -5
19 -20 43 -34 63 -38 212 -193 232 -244 10 -24 29 -49 46 -59 15 -9 42 -37 58
-62 29 -44 90 -113 142 -157 13 -12 42 -53 63 -92 21 -39 56 -85 77 -102 22
-17 39 -36 39 -41 0 -6 34 -43 75 -83 42 -41 75 -81 75 -92 0 -11 -17 -29 -40
-43 -48 -30 -189 -183 -225 -246 -15 -25 -31 -45 -36 -45 -5 0 -15 -16 -23
-35 -8 -19 -22 -35 -30 -35 -36 0 -58 -81 -72 -275 -3 -38 -12 -77 -19 -85 -7
-8 -13 -40 -13 -71 0 -31 -8 -73 -17 -95 -11 -25 -16 -64 -15 -109 3 -169 2
-172 -25 -199 -14 -14 -25 -32 -25 -41 0 -9 -18 -43 -40 -77 -22 -34 -43 -78
-46 -97 -3 -20 -20 -54 -37 -75 -16 -21 -34 -57 -39 -80 -5 -23 -13 -59 -18
-81 -5 -27 -19 -48 -44 -68 -21 -17 -36 -38 -36 -50 -1 -33 -27 -58 -105 -102
-38 -22 -88 -50 -110 -62 -79 -44 -141 -71 -178 -78 -21 -3 -47 -15 -58 -26
-32 -32 -94 -60 -137 -62 -33 -1 -48 6 -86 37 -25 20 -46 42 -46 47 0 5 -19
33 -41 62 -23 29 -46 64 -51 78 -5 14 -22 36 -38 48 -17 12 -30 30 -30 40 0
11 -15 37 -34 60 -19 22 -44 58 -57 78 -12 21 -40 57 -61 80 -21 24 -38 46
-38 51 0 4 -13 22 -29 39 -15 17 -47 66 -71 110 -23 43 -49 85 -57 95 -8 9
-16 32 -18 52 -3 32 2 40 50 81 49 41 80 82 182 233 17 26 40 58 50 72 10 14
26 43 36 65 10 22 31 54 46 70 16 17 31 46 34 66 3 21 21 70 40 110 61 131 68
151 61 171 -3 11 1 37 9 57 8 20 25 70 37 111 12 41 27 86 33 100 14 33 29
278 28 455 -1 77 -1 149 0 160 0 11 1 83 2 160 1 77 6 146 11 154 5 7 8 37 7
67 -1 47 2 55 26 71 14 10 40 33 58 50 17 19 46 36 66 39 19 4 51 15 71 25 21
11 59 19 85 20 26 0 57 4 68 9 50 22 76 12 137 -51z m6223 -189 c139 -17 158
-20 170 -30 6 -5 53 -12 104 -14 68 -4 100 -10 124 -25 19 -11 65 -24 109 -29
42 -6 114 -23 160 -40 45 -16 108 -35 138 -42 52 -12 86 -27 156 -69 17 -10
46 -22 65 -26 19 -4 57 -20 84 -36 28 -15 71 -31 95 -35 25 -3 55 -12 67 -20
61 -38 154 -83 207 -99 36 -11 68 -28 84 -47 41 -46 81 -65 171 -82 74 -14 88
-21 133 -61 29 -26 60 -45 73 -45 22 0 165 -113 165 -130 0 -5 30 -20 68 -35
45 -18 81 -41 108 -70 32 -33 57 -48 112 -65 39 -12 81 -33 93 -46 12 -13 31
-24 42 -24 30 0 99 -44 124 -78 22 -29 141 -102 168 -102 7 0 35 -18 60 -40
26 -22 63 -49 84 -59 20 -11 43 -32 51 -47 8 -15 27 -35 42 -44 15 -9 50 -37
78 -63 28 -26 57 -47 65 -47 8 0 36 -19 63 -42 82 -72 102 -88 110 -88 4 0 32
-30 62 -66 30 -35 72 -78 93 -95 20 -16 37 -39 37 -49 0 -11 9 -29 20 -40 11
-11 20 -25 20 -32 0 -14 123 -133 161 -155 21 -12 28 -26 32 -59 2 -23 15 -57
28 -75 13 -19 40 -66 61 -106 20 -40 49 -88 64 -107 15 -19 33 -54 40 -78 19
-66 49 -146 82 -220 17 -37 35 -98 40 -137 6 -38 17 -79 25 -92 9 -13 20 -60
26 -104 10 -87 27 -163 40 -180 5 -5 11 -35 14 -65 4 -30 12 -86 18 -125 6
-38 10 -120 9 -181 -1 -71 2 -114 9 -119 14 -8 14 -52 1 -60 -19 -12 0 -126
27 -167 19 -28 23 -44 18 -68 -8 -37 -47 -86 -85 -105 -16 -8 -84 -69 -151
-136 -67 -67 -149 -140 -182 -162 -36 -25 -70 -58 -86 -85 -27 -45 -100 -92
-168 -106 -17 -4 -37 -14 -44 -22 -7 -9 -31 -25 -53 -36 -23 -11 -60 -34 -84
-50 -23 -16 -57 -34 -75 -40 -17 -6 -43 -21 -57 -33 -14 -12 -43 -28 -64 -35
-21 -7 -51 -23 -65 -36 -25 -22 -246 -135 -321 -164 -19 -8 -46 -22 -59 -32
-13 -10 -29 -18 -36 -18 -15 0 -108 -40 -195 -84 -36 -19 -96 -38 -135 -45
-95 -16 -251 -58 -301 -82 -23 -10 -55 -19 -72 -19 -18 0 -60 -11 -94 -23
-106 -40 -246 -79 -471 -132 -139 -33 -160 -41 -170 -62 -11 -25 -21 -28 -107
-38 -99 -11 -174 -23 -215 -34 -111 -29 -224 -49 -310 -56 -33 -2 -76 -9 -95
-15 -19 -5 -62 -10 -95 -10 -68 0 -215 -24 -244 -39 -11 -6 -35 -11 -54 -11
-18 0 -71 -11 -117 -25 -60 -18 -107 -25 -167 -25 -50 0 -97 -6 -118 -14 -36
-15 -131 -30 -255 -41 -41 -4 -86 -12 -100 -20 -31 -16 -138 -30 -203 -26 -27
1 -72 -3 -100 -8 -100 -20 -338 -26 -722 -18 -66 2 -137 -1 -159 -7 -27 -6
-49 -5 -74 4 -23 8 -94 13 -211 13 -151 0 -182 3 -221 19 -34 15 -58 18 -97
14 -30 -4 -63 -1 -80 6 -38 15 -129 28 -238 33 -49 3 -128 6 -175 8 -66 3 -98
10 -141 31 -31 14 -64 26 -73 26 -10 0 -25 4 -35 10 -10 5 -68 20 -128 33 -73
16 -122 32 -148 50 -22 15 -43 27 -48 27 -5 0 -27 13 -50 29 -24 16 -72 35
-112 44 -110 25 -232 72 -275 106 -21 17 -48 31 -58 31 -11 0 -22 6 -25 14 -3
8 -34 28 -69 46 -107 54 -154 83 -200 125 -64 58 -93 81 -125 101 -15 10 -40
29 -54 43 -14 14 -39 38 -55 52 -69 62 -164 180 -191 239 -11 25 -30 54 -42
64 -12 11 -21 27 -21 36 0 10 -13 34 -29 54 -29 36 -46 68 -87 166 -10 24 -36
64 -56 88 -21 24 -38 44 -39 45 0 1 -3 61 -5 132 -2 72 -9 145 -15 163 -7 20
-8 53 -4 80 4 26 9 92 10 146 5 154 16 265 32 339 8 37 12 75 9 84 -4 9 0 26
9 39 15 23 22 60 29 149 3 36 28 110 84 250 11 28 30 84 42 125 34 111 42 133
61 160 9 14 24 47 33 73 9 27 27 65 41 85 14 20 25 44 25 53 0 9 20 36 45 60
45 43 75 90 75 115 0 7 11 25 24 41 13 15 28 45 34 66 7 26 31 57 72 97 34 33
67 60 74 60 6 0 29 -17 51 -38 22 -21 54 -48 71 -60 17 -12 53 -53 79 -92 26
-38 51 -70 55 -70 17 0 71 -53 88 -85 26 -50 98 -105 136 -105 18 0 51 -9 74
-20 70 -34 96 -36 111 -7 9 18 11 37 6 64 -14 68 2 117 60 183 40 45 38 56
-15 118 -102 117 -136 152 -160 166 -50 28 -135 120 -237 255 -37 48 -37 57 1
107 20 26 36 52 36 59 0 6 18 24 39 41 22 16 48 46 57 66 9 21 25 40 35 43 31
10 125 96 227 207 92 100 161 161 213 188 13 7 43 29 66 49 70 60 100 81 140
95 21 8 52 21 68 30 17 9 42 16 57 16 16 0 42 13 62 30 19 17 49 36 68 42 31
11 44 18 118 68 17 12 54 33 83 48 137 74 175 96 207 127 41 39 73 55 155 79
117 35 244 80 293 105 22 11 42 27 46 36 11 29 71 46 139 39 71 -7 168 20 223
61 17 13 44 27 60 30 49 11 256 75 309 97 74 30 88 34 230 69 22 5 132 12 245
15 113 4 210 10 216 15 7 5 64 8 127 6 63 -2 132 -1 154 3 56 11 128 11 218 0z
m-5567 -4452 c7 -7 12 -20 12 -29 0 -56 95 -103 226 -112 34 -3 73 -11 87 -18
32 -17 77 -83 77 -112 0 -13 9 -30 20 -40 11 -9 20 -26 20 -37 0 -12 16 -46
35 -76 19 -30 35 -60 35 -68 0 -7 15 -24 33 -36 18 -12 37 -32 43 -44 13 -25
65 -121 79 -146 6 -10 17 -26 25 -35 20 -24 35 -50 68 -120 33 -68 55 -86 133
-110 89 -27 134 -58 213 -142 16 -18 48 -42 70 -54 23 -11 57 -35 76 -54 19
-18 67 -51 107 -74 40 -23 75 -46 78 -51 3 -6 26 -10 50 -10 24 0 46 -4 50 -9
5 -9 23 -18 130 -66 58 -27 138 -54 156 -55 8 0 33 -16 55 -35 21 -20 50 -38
64 -42 14 -3 40 -14 58 -25 26 -16 42 -18 82 -13 37 5 55 3 72 -9 13 -9 43
-16 72 -16 32 0 60 -7 83 -21 31 -19 53 -22 236 -26 111 -3 226 -4 255 -4 33
1 66 -6 90 -17 49 -25 172 -45 220 -37 30 5 44 2 64 -14 14 -12 38 -21 53 -21
15 0 38 -9 52 -19 17 -14 36 -19 61 -17 20 2 41 1 46 -2 6 -3 54 -7 108 -8 78
-2 108 2 141 16 39 17 46 17 114 3 69 -16 73 -15 120 5 40 17 56 19 90 11 23
-5 64 -9 90 -9 26 0 62 1 78 1 273 1 435 9 461 22 44 22 227 40 389 38 41 -1
86 5 108 14 20 8 52 15 71 15 18 0 53 7 77 16 31 11 63 14 107 10 51 -4 71 -2
102 14 25 13 69 22 127 26 48 3 111 13 138 21 28 8 113 17 190 20 85 3 153 10
174 19 18 8 47 14 63 14 16 0 47 9 70 21 22 11 49 18 59 16 11 -3 52 -1 92 3
39 5 114 14 166 20 51 6 110 18 130 26 20 9 63 23 96 30 33 8 114 32 180 54
66 21 154 46 195 55 41 10 86 24 99 33 14 8 72 25 130 38 57 14 123 35 146 48
22 14 77 31 121 40 78 14 218 57 231 70 4 3 14 6 23 6 8 0 33 9 55 20 21 11
59 24 84 29 25 5 64 16 86 25 22 8 53 15 68 16 15 0 64 18 108 39 44 22 94 43
111 46 16 4 46 18 65 31 20 13 44 24 54 24 17 0 103 43 123 61 6 5 27 9 48 9
31 0 40 4 47 23 9 24 16 28 131 67 36 13 79 33 96 46 37 29 55 30 84 6 29 -24
20 -73 -18 -98 -15 -10 -43 -34 -62 -53 -19 -20 -44 -41 -55 -47 -11 -6 -25
-21 -31 -32 -6 -12 -18 -30 -27 -40 -10 -10 -17 -24 -17 -30 0 -6 -16 -23 -35
-38 -32 -24 -35 -30 -29 -61 6 -30 2 -38 -25 -64 -30 -27 -31 -30 -17 -57 13
-25 12 -35 -5 -98 -29 -100 -48 -252 -50 -384 0 -63 -6 -131 -12 -150 l-12
-35 -95 0 c-70 -1 -108 4 -145 18 -27 11 -89 25 -136 32 -47 7 -94 17 -105 23
-10 5 -44 13 -74 17 -30 3 -68 10 -85 15 -16 4 -57 13 -90 20 -63 12 -129 40
-180 76 -49 35 -198 111 -230 118 -29 6 -120 17 -140 16 -56 -1 -245 -29 -262
-38 -12 -7 -37 -12 -57 -12 -21 0 -61 -15 -103 -37 -37 -20 -88 -40 -113 -44
-25 -3 -58 -11 -75 -17 -16 -6 -57 -20 -90 -30 -135 -44 -181 -64 -206 -88
-22 -21 -32 -24 -66 -18 -30 4 -50 1 -81 -15 -45 -23 -47 -28 -44 -166 1 -36
-5 -46 -59 -99 -32 -32 -59 -65 -59 -72 0 -7 -9 -18 -21 -24 -28 -16 -78 17
-114 74 -6 10 -35 21 -70 27 -33 6 -76 15 -95 19 -19 5 -68 13 -108 19 -41 6
-92 20 -115 30 -29 13 -47 16 -59 10 -27 -14 -45 -11 -73 15 -30 28 -76 35
-255 40 -69 1 -156 9 -195 16 -97 18 -174 18 -189 -1 -13 -18 -68 -39 -101
-39 -12 0 -42 -15 -66 -34 -24 -18 -54 -36 -66 -40 -12 -4 -35 -21 -50 -37
-15 -17 -44 -39 -63 -49 -55 -28 -105 -97 -105 -145 0 -33 -4 -42 -27 -53 -34
-16 -34 -24 -6 -62 l21 -29 -24 -32 -25 -32 -89 2 c-133 3 -149 10 -170 79
-23 71 -83 155 -133 183 -21 12 -51 40 -68 61 -50 68 -112 112 -153 110 -20 0
-58 -1 -84 -1 -27 -1 -64 -9 -85 -20 -60 -31 -135 -59 -161 -59 -13 -1 -36
-12 -50 -26 -50 -49 -86 -81 -115 -102 -16 -11 -34 -35 -40 -54 -6 -19 -20
-39 -31 -45 -11 -5 -34 -19 -50 -31 -17 -12 -47 -29 -68 -39 -21 -10 -41 -25
-46 -34 -11 -21 -25 -135 -23 -190 1 -24 -5 -56 -13 -71 -11 -22 -12 -34 -3
-57 10 -26 8 -35 -10 -65 -23 -37 -22 -75 3 -128 6 -14 10 -33 8 -42 -3 -10 0
-18 6 -18 6 0 14 0 19 -1 12 0 33 -49 27 -59 -4 -6 -34 -8 -72 -5 -50 4 -71
10 -95 30 -16 14 -36 25 -43 25 -17 0 -121 54 -144 74 -10 9 -41 23 -70 32
-37 11 -63 27 -89 56 -20 22 -56 59 -79 83 -41 42 -57 85 -30 85 8 0 8 3 1 8
-14 9 -44 87 -44 112 0 11 -4 28 -9 38 -12 23 -31 80 -42 122 -5 19 -6 100 -3
180 l6 145 -31 42 c-17 24 -33 59 -36 78 -2 22 -19 53 -45 83 -22 27 -40 53
-40 59 0 6 -15 20 -32 32 -18 11 -43 28 -56 37 -15 12 -26 13 -35 6 -11 -9
-212 -29 -250 -24 -10 1 -31 -5 -47 -13 -16 -8 -53 -15 -83 -15 -45 0 -61 -5
-92 -30 -38 -30 -50 -34 -93 -30 -17 1 -44 -19 -100 -78 -50 -51 -91 -83 -114
-91 -28 -9 -49 -28 -83 -77 -25 -35 -50 -64 -55 -64 -13 0 -51 18 -85 39 -16
11 -40 20 -53 20 -37 1 -72 44 -72 88 0 21 -7 49 -16 62 -9 12 -25 57 -35 98
-11 42 -24 82 -30 89 -5 7 -9 47 -7 92 3 84 -8 112 -42 112 -9 0 -29 9 -44 21
-22 17 -26 28 -26 70 0 38 -6 58 -25 83 -14 18 -25 45 -25 59 0 15 -4 27 -9
27 -5 0 -28 20 -52 45 -30 31 -59 50 -92 60 -49 15 -157 97 -157 120 0 29 -36
44 -125 50 -92 7 -112 15 -161 60 -15 14 -32 25 -39 25 -7 0 -18 6 -24 14 -6
7 -25 16 -40 19 -45 9 -72 44 -69 89 1 23 -4 44 -15 56 -9 10 -17 30 -17 44 0
14 -11 41 -25 61 -13 20 -28 54 -34 74 -19 77 -33 240 -27 318 16 207 16 204
44 219 15 8 36 23 46 35 11 12 31 21 46 21 15 0 33 7 40 15 15 18 51 20 68 3z
m9765 -798 c127 -60 140 -84 74 -134 -22 -16 -40 -20 -93 -18 -60 3 -68 0 -90
-23 -23 -25 -25 -25 -60 -10 -44 18 -163 11 -243 -15 -72 -24 -83 -19 -75 34
5 27 19 55 43 82 20 23 43 52 51 64 18 26 73 39 160 40 36 0 72 5 80 10 28 18
69 10 153 -30z m53 -392 c38 1 77 -4 99 -14 21 -8 48 -13 61 -10 13 4 38 0 56
-8 75 -31 114 -115 83 -175 -8 -17 -15 -42 -15 -56 0 -17 -15 -44 -40 -72 -21
-25 -49 -65 -61 -90 l-22 -45 -54 6 c-30 3 -97 17 -149 31 -106 28 -195 32
-234 12 -28 -15 -248 -31 -274 -21 -13 5 -16 22 -16 79 0 41 5 86 11 102 6 15
15 56 19 91 8 65 30 102 60 102 9 0 45 12 80 26 44 18 93 28 162 33 54 4 101
11 105 15 4 4 21 3 38 -1 16 -4 58 -6 91 -5z m-9629 -460 c30 -28 33 -122 4
-159 -10 -13 -21 -37 -25 -54 -15 -63 -28 -151 -28 -185 1 -19 -6 -62 -14 -94
-10 -38 -13 -74 -8 -100 4 -23 8 -59 9 -81 7 -135 18 -201 37 -222 11 -12 18
-31 16 -45 -4 -31 -75 -51 -193 -53 -49 -1 -130 -7 -178 -13 -72 -10 -94 -9
-121 2 -26 11 -91 26 -126 30 -3 1 -26 9 -50 20 -106 43 -136 55 -160 60 -14
3 -50 20 -81 39 -44 26 -71 35 -125 40 -65 6 -71 8 -106 48 -59 68 -63 81 -46
136 14 43 22 52 79 85 35 21 74 38 87 38 14 0 29 11 42 33 24 40 26 43 96 97
31 25 80 65 108 90 93 82 186 135 292 165 32 10 88 32 124 50 43 21 78 32 103
31 31 -1 43 4 59 24 26 33 41 38 117 39 53 1 69 -3 88 -21z m6681 -280 c17
-14 15 -53 -3 -68 -8 -7 -30 -16 -47 -19 -22 -5 -41 -19 -60 -46 -77 -109 -88
-127 -88 -138 0 -7 -9 -23 -20 -37 -23 -29 -28 -137 -8 -173 6 -12 12 -52 14
-89 1 -51 8 -81 29 -122 23 -45 28 -71 31 -148 8 -177 6 -316 -5 -336 -16 -31
-58 -33 -132 -6 -36 13 -88 24 -114 24 -45 0 -50 3 -119 71 -39 40 -88 83
-108 97 -99 65 -127 182 -67 277 23 36 29 56 25 77 -5 25 -1 30 31 46 25 11
39 26 44 45 4 16 32 52 61 80 37 37 68 82 103 151 28 55 62 112 78 128 15 16
27 37 27 47 0 12 21 29 63 50 34 18 96 50 137 71 73 38 97 42 128 18z m608
-68 c13 0 32 -8 42 -18 10 -10 56 -44 103 -75 46 -31 97 -70 113 -87 16 -16
33 -30 37 -30 5 0 20 -22 33 -49 14 -27 31 -51 39 -54 22 -8 73 -89 80 -125 8
-40 72 -119 109 -135 32 -15 106 -82 144 -133 71 -94 131 -123 259 -124 53 0
78 5 103 20 18 11 48 20 66 20 25 0 38 7 50 25 9 14 33 33 54 44 20 10 46 28
56 40 11 12 25 21 33 21 8 0 36 23 64 50 27 28 56 50 64 50 19 0 19 -34 0 -50
-9 -7 -12 -22 -9 -39 4 -18 0 -32 -10 -40 -9 -8 -16 -23 -16 -35 0 -12 -16
-37 -35 -56 -20 -19 -40 -51 -45 -70 -12 -43 -70 -121 -104 -139 -13 -7 -33
-30 -45 -52 -23 -40 -110 -93 -171 -104 -17 -3 -54 -11 -83 -19 -57 -15 -209
-13 -290 4 -26 6 -61 10 -77 10 -16 0 -44 9 -62 20 -18 11 -40 20 -48 20 -8 0
-38 11 -65 24 -45 21 -54 22 -87 10 -41 -14 -82 -7 -125 21 -14 9 -49 19 -79
22 -30 3 -54 9 -54 13 0 7 -37 24 -106 50 -19 7 -40 26 -53 51 -12 21 -26 39
-31 39 -11 0 -81 70 -117 116 -23 31 -25 39 -19 101 4 38 10 82 12 99 5 27 0
38 -28 67 -18 19 -51 40 -73 47 -75 23 -115 80 -115 164 0 42 3 48 48 81 26
20 70 58 99 84 28 27 68 55 89 61 21 7 61 26 89 42 41 23 58 28 94 23 24 -3
54 -5 67 -5z m2873 -139 c12 -22 5 -31 -24 -31 -26 0 -50 24 -40 40 10 17 54
11 64 -9z m-9857 -11 c7 -11 30 -33 51 -47 31 -21 36 -29 25 -37 -7 -6 -21
-23 -31 -38 -27 -43 -62 -38 -88 13 -17 34 -19 46 -9 68 6 15 10 32 9 37 -5
31 25 33 43 4z m4462 -51 c18 -17 19 -23 7 -71 -18 -76 -48 -154 -76 -202 -26
-44 -43 -142 -30 -173 4 -10 7 -43 6 -73 -1 -52 13 -156 39 -280 12 -54 12
-55 -20 -83 -23 -20 -40 -27 -65 -25 -55 3 -113 -63 -85 -97 9 -11 8 -20 -8
-42 -10 -15 -17 -33 -15 -39 5 -14 -52 -39 -66 -30 -6 4 -24 0 -41 -9 l-30
-16 -69 71 c-38 38 -74 70 -80 70 -19 0 -51 39 -51 63 0 12 -9 40 -20 62 -11
22 -20 43 -20 47 0 5 -12 27 -27 51 -29 46 -63 132 -63 159 0 31 42 88 78 105
20 10 39 28 46 45 5 15 23 32 38 39 15 6 30 20 34 31 3 11 21 26 40 34 19 8
34 18 34 23 0 5 20 33 45 62 25 29 45 63 45 75 0 15 12 30 34 44 19 11 38 29
41 40 3 10 22 31 43 46 20 15 51 41 69 57 51 48 127 55 167 16z m3699 11 c12
-4 37 -21 55 -37 32 -27 33 -30 24 -70 -5 -23 -20 -55 -33 -71 -13 -16 -32
-42 -42 -58 -64 -106 -94 -138 -120 -129 -12 4 -43 10 -69 12 -41 4 -52 10
-85 51 -21 25 -49 63 -63 83 -14 21 -39 57 -57 82 -18 24 -34 55 -37 68 -2 13
-8 32 -12 43 -11 29 12 35 139 35 66 0 122 3 126 6 8 9 145 -3 174 -15z
m-5062 -139 c13 -10 42 -26 63 -36 21 -10 41 -26 43 -35 4 -17 46 -40 98 -56
26 -8 30 -14 31 -49 1 -22 11 -73 23 -114 11 -41 21 -85 21 -98 0 -13 13 -34
30 -50 35 -30 36 -38 14 -82 -15 -30 -15 -36 0 -75 9 -23 16 -67 16 -99 0 -52
3 -59 34 -88 23 -20 36 -42 38 -62 2 -23 10 -33 33 -41 59 -21 78 -41 70 -76
-4 -17 -2 -36 3 -43 38 -48 14 -122 -43 -133 -81 -15 -355 -251 -397 -342 -13
-30 -30 -48 -51 -57 -18 -7 -47 -34 -64 -59 -30 -42 -65 -66 -96 -66 -7 0 -46
32 -87 70 -41 39 -93 80 -115 91 -22 11 -60 37 -85 58 -25 20 -59 47 -77 59
-67 47 -102 91 -123 153 -12 34 -19 67 -16 74 2 7 25 23 51 35 26 12 49 30 52
39 3 9 31 41 62 72 118 117 149 192 157 374 7 164 4 273 -7 303 -18 46 21 192
51 192 5 0 25 16 44 35 20 19 42 35 49 35 8 0 21 7 28 17 17 20 100 73 115 73
6 0 22 -8 35 -19z m-3536 -512 c0 -7 -8 -15 -17 -17 -18 -3 -25 18 -11 32 10
10 28 1 28 -15z"/>
<path d="M17084 15478 c-15 -13 -42 -27 -58 -33 -37 -12 -49 -52 -50 -165 0
-67 4 -84 38 -155 53 -113 98 -155 164 -155 27 0 72 31 72 50 0 5 16 25 35 44
19 20 35 45 35 56 0 11 10 34 21 50 18 24 21 37 15 77 -3 26 -12 62 -20 78 -8
17 -24 53 -36 82 -24 55 -38 64 -120 83 -62 13 -64 13 -96 -12z"/>
<path d="M15175 14674 c-125 -27 -159 -49 -220 -143 -66 -105 -114 -136 -236
-156 -47 -7 -83 -45 -74 -77 16 -54 33 -68 83 -68 26 0 73 -9 104 -20 31 -11
63 -18 70 -15 7 2 43 6 79 8 59 4 72 8 120 46 30 23 68 59 84 80 17 21 44 46
62 56 17 9 34 25 37 34 3 9 14 27 25 41 18 22 27 91 22 167 -1 6 -16 21 -35
32 -31 20 -73 25 -121 15z"/>
<path d="M18932 14480 c-20 -14 -56 -32 -79 -39 -30 -8 -47 -20 -58 -41 -34
-65 -10 -115 73 -157 19 -9 36 -23 39 -32 3 -9 11 -30 19 -48 8 -17 14 -38 14
-46 0 -8 11 -22 25 -31 24 -16 27 -16 56 4 16 12 38 38 48 58 11 21 42 60 70
89 29 29 51 60 51 72 0 12 6 32 14 44 11 17 13 33 5 72 -5 27 -15 55 -22 62
-8 8 -50 14 -115 16 -98 4 -104 3 -140 -23z"/>
<path d="M13544 13788 c-39 -24 -44 -32 -44 -63 0 -34 -18 -88 -60 -180 -43
-94 -39 -117 31 -176 73 -61 132 -56 176 14 14 23 32 45 39 49 6 5 20 34 29
65 10 32 26 83 36 114 11 30 19 62 19 71 0 9 7 21 15 28 17 14 10 90 -9 102
-6 4 -51 7 -100 6 -78 -2 -94 -5 -132 -30z"/>
<path d="M16190 13334 c-42 -17 -79 -67 -87 -118 -6 -39 -16 -50 -65 -75 -41
-20 -87 -87 -88 -125 0 -20 11 -40 38 -66 l37 -38 52 11 c63 13 80 2 123 -84
33 -64 45 -76 80 -79 41 -4 45 -2 98 41 63 51 82 91 58 118 -16 18 -16 22 -2
50 18 34 21 77 6 86 -14 9 -13 81 2 105 10 15 10 27 0 54 -8 21 -10 50 -6 71
10 57 -4 65 -115 64 -60 0 -109 -5 -131 -15z"/>
<path d="M23957 17149 c-12 -13 -25 -18 -35 -14 -9 4 -37 10 -62 12 -38 4 -54
0 -101 -28 -63 -38 -103 -89 -94 -120 9 -26 -18 -82 -49 -102 -37 -24 -86
-123 -86 -172 0 -28 -9 -55 -28 -86 -28 -43 -32 -56 -51 -140 -4 -20 -17 -49
-28 -65 -24 -35 -36 -139 -21 -188 9 -29 7 -43 -11 -86 -12 -28 -25 -75 -28
-103 -3 -29 -14 -78 -25 -109 -17 -47 -19 -65 -10 -105 15 -74 14 -130 -3
-163 -16 -31 -12 -96 8 -135 6 -11 10 -56 8 -101 -2 -65 1 -87 17 -115 11 -19
22 -58 25 -88 4 -29 15 -67 25 -85 10 -17 17 -41 15 -51 -7 -33 -3 -128 6
-160 5 -16 12 -62 14 -101 3 -39 15 -97 27 -130 11 -32 25 -79 31 -104 5 -24
26 -63 45 -86 18 -23 34 -45 34 -48 0 -11 102 -166 110 -166 7 0 43 -47 143
-187 21 -28 58 -63 82 -78 25 -14 45 -30 45 -34 0 -5 14 -11 32 -15 36 -7 68
-32 68 -54 0 -29 59 -138 96 -179 22 -22 54 -48 72 -57 17 -9 43 -34 57 -55
15 -25 36 -43 58 -50 18 -6 47 -25 63 -42 29 -31 96 -69 121 -69 7 0 13 -3 13
-7 0 -5 24 -20 53 -36 42 -21 67 -46 118 -114 35 -47 69 -95 75 -104 13 -22
47 -48 97 -73 20 -11 37 -25 37 -33 0 -7 21 -23 47 -36 28 -13 53 -34 63 -52
16 -31 124 -95 225 -135 14 -5 30 -21 35 -35 6 -15 20 -27 37 -30 44 -10 58
-20 61 -48 2 -19 13 -29 45 -42 50 -20 87 -52 87 -76 0 -9 7 -22 15 -29 8 -7
19 -26 23 -43 6 -22 20 -36 55 -54 39 -21 49 -32 58 -66 7 -26 27 -56 56 -84
27 -26 57 -71 75 -111 17 -37 39 -78 49 -91 11 -13 19 -35 19 -48 0 -26 27
-70 70 -114 40 -40 70 -87 70 -107 0 -31 50 -112 97 -156 40 -38 43 -44 43
-95 0 -47 5 -61 39 -105 21 -28 42 -63 46 -76 4 -14 13 -32 20 -40 7 -8 22
-34 34 -57 12 -24 25 -43 30 -43 4 0 36 -18 69 -40 43 -27 62 -46 62 -60 0
-11 13 -38 29 -61 16 -22 32 -53 36 -68 6 -30 21 -47 68 -82 15 -11 27 -27 27
-34 0 -8 24 -42 54 -76 37 -42 56 -73 60 -98 12 -84 19 -109 48 -171 17 -36
41 -76 54 -90 60 -65 84 -94 84 -101 0 -16 110 -61 135 -55 18 5 32 -2 59 -27
32 -31 34 -35 21 -54 -13 -18 -12 -23 10 -43 29 -27 30 -46 11 -111 -13 -42
-13 -49 5 -75 10 -16 19 -37 19 -46 0 -10 16 -35 35 -57 19 -21 35 -45 35 -53
0 -8 14 -34 30 -56 17 -24 30 -54 30 -71 0 -22 9 -37 35 -58 19 -15 35 -34 35
-41 0 -28 172 -172 205 -172 13 0 30 -11 39 -25 9 -14 23 -25 30 -25 21 0 86
-66 86 -87 0 -10 7 -27 15 -37 8 -10 12 -23 9 -28 -7 -11 24 -48 40 -48 18 0
73 -74 80 -108 4 -17 20 -41 34 -52 15 -11 36 -27 47 -36 11 -8 35 -25 54 -37
19 -12 38 -34 42 -49 13 -48 107 -159 169 -199 22 -14 23 -19 13 -42 -11 -24
-8 -30 28 -74 35 -42 99 -157 99 -177 0 -4 17 -24 38 -46 20 -21 44 -45 52
-54 8 -9 36 -34 62 -57 26 -22 50 -49 53 -59 3 -10 18 -23 33 -29 27 -12 122
-112 122 -129 0 -6 13 -23 28 -40 15 -16 33 -41 39 -54 16 -35 93 -78 140 -78
21 -1 56 -7 78 -15 55 -20 66 -19 174 17 124 40 267 130 277 172 3 16 27 49
54 75 26 25 62 69 80 96 18 28 44 59 58 71 28 23 25 50 -5 61 -10 4 -28 19
-41 34 -12 15 -37 30 -55 34 -70 14 -67 11 -67 88 -1 40 -8 90 -16 112 -9 22
-18 51 -21 65 -2 14 -22 66 -44 116 -21 50 -39 98 -39 106 0 8 -22 34 -49 59
-27 24 -77 69 -110 99 -34 30 -61 62 -61 71 0 9 -9 28 -20 42 -11 14 -20 34
-20 45 0 11 -12 30 -26 41 -14 11 -27 31 -28 43 -2 13 -13 39 -25 58 -11 19
-27 48 -34 63 -8 16 -25 34 -38 41 -18 9 -23 19 -21 38 2 20 -5 31 -32 47 -22
14 -43 41 -61 79 -15 31 -31 64 -35 72 -4 8 -16 20 -28 26 -28 14 -162 156
-162 172 0 6 -4 12 -9 12 -5 0 -23 21 -40 48 -17 26 -48 70 -70 97 -23 30 -42
66 -46 90 -9 54 -28 81 -73 104 -34 17 -40 27 -56 83 -27 94 -32 105 -63 125
-39 24 -73 61 -73 79 0 33 -51 93 -102 121 -29 15 -57 37 -63 48 -10 22 -71
103 -89 120 -19 18 -73 128 -81 162 -7 35 -110 147 -145 158 -11 4 -20 12 -20
20 0 7 -13 25 -30 38 -16 14 -30 35 -30 46 0 11 -18 39 -40 63 -22 24 -43 54
-46 68 -11 47 -28 83 -51 108 -13 14 -23 30 -23 37 0 6 -11 22 -25 35 -14 13
-25 32 -25 41 0 11 -22 32 -54 53 -29 19 -67 52 -82 73 -16 21 -39 49 -52 63
-12 14 -25 32 -28 42 -2 9 -15 23 -28 31 -17 12 -22 22 -18 45 3 25 -1 32 -31
51 -30 18 -77 91 -77 119 0 4 -9 15 -19 24 -11 9 -17 24 -15 35 3 11 -11 37
-40 71 -32 37 -46 63 -46 83 0 18 -6 32 -16 36 -9 3 -15 16 -14 32 3 46 1 50
-40 71 -44 22 -48 34 -24 62 14 14 14 20 4 33 -7 8 -21 15 -31 15 -39 0 -66
22 -82 68 -10 26 -17 55 -17 65 0 10 -10 31 -21 47 -18 24 -21 37 -16 80 7 57
-5 97 -33 117 -12 9 -20 26 -20 43 0 16 -4 31 -9 34 -5 3 -12 25 -15 48 -7 47
-31 76 -154 188 -41 36 -72 73 -72 83 0 11 -11 32 -25 49 -14 16 -25 35 -25
43 0 7 -6 18 -14 24 -8 6 -19 32 -25 56 -7 27 -24 57 -45 77 -41 41 -56 69
-56 106 0 16 -9 37 -19 46 -11 10 -32 43 -47 74 -15 30 -42 72 -60 92 -32 35
-74 117 -74 144 0 7 -12 23 -26 37 -14 13 -32 36 -40 52 -8 15 -20 27 -27 27
-18 0 -77 86 -77 112 0 12 -11 34 -25 48 -22 23 -43 81 -62 168 -3 12 -32 47
-64 76 -37 34 -59 63 -59 76 0 12 -18 42 -40 67 -22 25 -40 49 -40 54 0 4 -9
11 -20 14 -22 7 -80 85 -80 109 0 8 -11 28 -25 44 -14 17 -25 38 -25 47 0 10
-11 28 -25 41 -14 13 -25 34 -25 49 0 17 -8 29 -25 37 -14 6 -25 14 -25 18 0
4 -20 13 -45 19 -32 8 -45 16 -45 29 0 9 -9 31 -20 47 -11 17 -20 40 -20 52 0
26 -61 90 -109 116 l-34 18 7 62 c6 61 5 64 -24 92 -16 16 -30 37 -30 47 0 10
-4 18 -8 18 -21 0 -80 71 -86 104 -4 21 -26 58 -57 93 -27 32 -61 82 -76 111
-24 49 -76 102 -100 102 -17 0 -43 35 -43 58 0 28 -39 87 -69 103 -20 12 -23
19 -19 61 4 32 0 55 -9 69 -8 11 -13 29 -10 39 7 28 -30 97 -69 128 -19 15
-34 32 -34 38 0 6 -9 19 -21 30 -17 16 -20 26 -15 61 5 40 3 43 -44 86 -28 25
-50 54 -50 64 0 11 -10 29 -23 41 -13 12 -34 51 -47 87 -14 36 -29 65 -35 65
-5 0 -4 4 4 9 11 7 10 14 -6 37 -12 16 -22 38 -24 49 -4 17 -13 20 -64 22 -49
2 -63 -2 -78 -18z m24 -521 c16 -18 29 -42 29 -55 0 -12 5 -25 10 -28 21 -13
51 -86 48 -118 -1 -18 6 -44 15 -57 9 -14 17 -33 17 -43 0 -10 8 -31 19 -45
10 -15 28 -59 39 -97 15 -51 31 -80 57 -105 43 -42 75 -100 75 -134 0 -14 8
-30 18 -35 10 -5 30 -32 45 -59 15 -28 42 -66 60 -86 83 -91 154 -198 176
-268 7 -20 28 -51 48 -70 94 -87 141 -151 149 -204 4 -29 17 -57 35 -77 16
-17 29 -37 29 -43 0 -10 31 -48 96 -114 13 -14 24 -30 24 -37 0 -6 29 -51 65
-101 35 -49 67 -101 70 -115 4 -14 28 -49 54 -78 50 -56 137 -181 164 -235 9
-17 33 -46 54 -64 46 -41 103 -114 103 -133 0 -7 16 -27 35 -44 19 -17 35 -39
35 -47 0 -32 53 -117 105 -169 37 -37 57 -66 65 -96 6 -24 28 -61 50 -85 29
-31 43 -58 52 -97 6 -30 18 -63 25 -74 7 -11 13 -26 13 -33 0 -8 22 -39 50
-70 32 -35 52 -69 56 -91 4 -20 13 -45 20 -56 8 -11 14 -26 14 -34 0 -8 10
-28 23 -45 12 -17 31 -51 41 -76 33 -80 40 -92 96 -156 102 -116 140 -166 140
-188 1 -34 35 -100 75 -144 20 -23 47 -69 60 -104 31 -86 86 -180 132 -226 65
-66 100 -119 133 -199 18 -43 41 -87 51 -99 10 -11 19 -24 19 -30 0 -17 111
-228 130 -249 11 -12 20 -26 20 -33 0 -6 13 -26 29 -44 15 -18 31 -43 35 -54
4 -12 27 -44 51 -70 25 -26 48 -57 51 -68 4 -12 33 -46 65 -77 33 -31 59 -62
59 -70 0 -14 41 -78 75 -119 12 -14 22 -36 23 -49 0 -13 5 -27 9 -30 5 -3 26
-31 48 -61 21 -30 63 -81 92 -112 29 -31 53 -62 53 -68 0 -6 23 -37 50 -69 28
-32 50 -66 50 -77 0 -10 16 -41 35 -69 20 -27 46 -66 59 -85 13 -19 38 -48 55
-65 17 -16 36 -46 41 -67 11 -37 86 -134 128 -163 12 -9 22 -21 22 -27 0 -23
50 -116 65 -122 9 -3 21 -19 26 -35 6 -18 22 -34 40 -42 20 -8 37 -27 51 -56
11 -24 35 -56 53 -71 18 -15 41 -43 50 -63 10 -20 30 -44 46 -53 16 -9 29 -23
29 -30 0 -33 62 -131 133 -208 42 -47 77 -90 77 -96 0 -10 70 -101 113 -147
10 -11 27 -36 37 -56 11 -20 26 -39 35 -42 9 -4 15 -18 15 -36 0 -19 12 -41
38 -68 59 -63 92 -105 92 -115 0 -6 18 -30 39 -54 21 -25 46 -60 55 -79 10
-19 30 -42 47 -51 35 -18 89 -98 89 -132 0 -13 13 -42 29 -65 15 -23 32 -53
36 -67 4 -14 19 -43 33 -64 15 -25 26 -60 29 -95 5 -55 4 -57 -36 -99 -30 -30
-49 -42 -70 -42 -44 0 -113 63 -146 134 -16 32 -45 75 -67 95 -21 20 -38 45
-38 56 0 24 -95 126 -150 160 -49 31 -83 86 -76 122 6 30 1 41 -59 128 -22 32
-49 73 -60 91 -11 18 -63 66 -116 106 -153 116 -246 205 -253 243 -4 17 -19
44 -35 59 -16 16 -32 39 -36 53 -10 39 -44 86 -91 122 -25 18 -47 44 -50 56
-3 13 -19 29 -35 36 -18 7 -35 25 -43 44 -13 30 -27 39 -101 61 -18 6 -31 17
-33 29 -2 11 -10 25 -18 31 -16 13 -44 76 -44 100 0 10 -12 32 -26 51 -17 22
-23 40 -19 53 5 15 -3 31 -24 56 -17 19 -31 41 -31 49 0 8 -9 20 -19 27 -22
16 -51 85 -58 140 -3 21 -15 46 -29 59 -13 12 -24 26 -24 30 0 15 -46 55 -77
68 -18 8 -33 20 -33 27 0 8 -3 14 -7 15 -32 3 -49 12 -83 46 -22 21 -40 47
-40 59 0 11 -9 29 -20 39 -11 10 -20 29 -20 43 0 16 -15 39 -46 67 -37 35 -44
47 -39 67 6 22 0 30 -33 54 -21 15 -45 42 -52 58 -8 17 -26 44 -42 59 -15 16
-28 35 -28 43 0 7 -13 20 -29 29 -36 18 -42 34 -23 63 13 20 13 24 -2 41 -9
10 -34 27 -56 37 -41 20 -43 22 -41 64 2 30 -3 37 -51 73 -26 19 -38 36 -38
52 0 18 -12 32 -40 51 -28 19 -41 34 -42 53 -1 14 -2 33 -3 41 0 8 -8 26 -17
40 -9 14 -19 45 -23 70 -4 24 -17 58 -30 75 -26 36 -55 97 -55 118 0 20 -61
95 -139 174 -33 33 -61 68 -61 76 0 8 -9 26 -20 39 -10 14 -17 28 -13 31 3 4
-1 17 -9 29 -9 13 -19 39 -23 58 -4 21 -22 50 -43 70 -59 57 -82 89 -89 123
-9 49 -39 102 -73 130 -16 14 -30 29 -30 33 0 5 -8 35 -17 67 -16 51 -26 66
-81 113 -35 30 -68 54 -74 54 -5 0 -23 11 -40 25 -16 14 -38 25 -49 25 -11 0
-38 12 -62 27 -110 70 -144 97 -166 133 -14 21 -28 37 -32 34 -5 -2 -16 0 -26
5 -10 5 -26 12 -35 15 -11 3 -18 15 -18 30 0 28 -25 46 -65 46 -41 0 -67 17
-152 103 -10 10 -38 37 -62 60 -24 23 -69 67 -100 98 -32 31 -71 64 -87 72
-16 8 -45 31 -63 51 -19 20 -39 36 -44 36 -6 0 -28 15 -51 34 -23 18 -59 42
-81 54 -22 11 -51 32 -65 47 -14 14 -41 35 -60 46 -19 11 -44 34 -55 52 -11
18 -27 43 -35 57 -39 64 -54 79 -100 104 -28 15 -55 36 -61 47 -5 11 -34 30
-64 43 -60 27 -72 43 -82 114 -7 43 -17 59 -79 125 -54 57 -74 86 -83 121 -7
29 -19 50 -34 57 -30 16 -45 37 -57 80 -6 21 -20 41 -35 49 -25 14 -36 60 -14
60 17 0 2 80 -20 110 -14 20 -18 41 -16 90 3 62 -2 102 -26 210 -10 45 -9 52
10 77 18 22 21 34 15 72 -4 25 -11 54 -16 64 -5 9 -11 50 -13 90 -2 39 -11 92
-20 117 -23 61 -23 334 0 370 5 8 10 29 11 45 2 56 35 260 44 280 6 11 21 49
34 85 84 225 98 242 157 178z"/>
<path d="M4188 17073 c-13 -14 -35 -32 -50 -41 -16 -9 -28 -21 -28 -26 0 -6
-14 -25 -32 -43 -31 -32 -31 -33 -12 -54 18 -20 18 -21 1 -34 -10 -7 -34 -15
-55 -18 -40 -7 -65 -39 -82 -108 -18 -73 -42 -122 -69 -145 -23 -19 -30 -35
-35 -81 -4 -32 -15 -72 -26 -88 -11 -17 -20 -44 -20 -61 0 -23 -7 -36 -26 -49
-22 -14 -25 -21 -19 -51 8 -43 -1 -74 -22 -74 -12 0 -14 -7 -10 -34 3 -18 1
-38 -3 -42 -5 -5 -11 -25 -13 -44 -3 -19 -12 -55 -21 -79 -9 -24 -13 -54 -10
-67 4 -16 1 -31 -9 -42 -9 -10 -18 -33 -20 -52 -2 -19 -13 -56 -25 -81 -21
-44 -21 -49 -7 -97 14 -47 14 -54 -2 -89 -10 -21 -29 -43 -42 -49 -35 -18 -38
-27 -39 -131 -1 -81 -5 -101 -25 -136 -13 -23 -27 -62 -30 -87 -7 -59 -15 -98
-28 -137 -7 -22 -7 -44 0 -69 9 -33 6 -46 -20 -108 -34 -79 -49 -189 -30 -224
10 -18 8 -24 -13 -37 -22 -15 -24 -21 -23 -111 1 -90 2 -97 25 -112 15 -10 22
-22 19 -34 -5 -18 -1 -22 98 -98 26 -21 50 -48 56 -68 6 -19 23 -38 40 -47 16
-9 29 -19 29 -24 0 -4 16 -25 35 -45 21 -22 35 -48 36 -64 1 -15 3 -53 5 -85
3 -51 1 -60 -21 -79 -15 -13 -25 -32 -25 -47 0 -14 -2 -42 -4 -61 -12 -86 -18
-100 -55 -122 -36 -22 -53 -42 -57 -66 -2 -8 -10 -22 -18 -31 -9 -10 -16 -28
-16 -41 0 -27 -16 -82 -37 -126 -11 -23 -13 -42 -7 -65 5 -19 9 -37 9 -40 0
-11 -40 -64 -78 -101 -32 -32 -36 -41 -27 -58 15 -27 6 -38 -36 -46 -47 -9
-94 -49 -94 -80 0 -13 10 -34 23 -46 15 -16 22 -36 23 -63 1 -22 4 -48 8 -57
6 -13 1 -21 -17 -29 -20 -9 -27 -20 -29 -48 -3 -31 -8 -37 -35 -46 -28 -8 -35
-17 -49 -60 -17 -52 -34 -80 -34 -55 0 7 -13 -1 -29 -19 -37 -41 -49 -116 -29
-176 12 -33 14 -66 9 -117 -1 -4 -19 -19 -41 -33 -34 -21 -39 -29 -30 -44 7
-14 5 -25 -10 -43 -26 -34 -30 -121 -6 -147 18 -20 18 -21 -8 -51 -31 -37 -32
-47 -9 -72 16 -18 15 -21 -28 -61 -24 -23 -58 -52 -75 -64 -83 -59 -124 -125
-124 -198 0 -18 -5 -46 -10 -60 -7 -17 -7 -33 0 -45 7 -14 3 -26 -20 -55 -20
-26 -30 -49 -30 -72 0 -19 -9 -48 -21 -64 -29 -42 -61 -128 -60 -163 1 -18
-14 -53 -39 -93 -23 -37 -40 -76 -39 -91 1 -15 -9 -52 -22 -82 -20 -48 -23
-69 -21 -165 3 -108 2 -111 -27 -158 -39 -61 -58 -131 -41 -152 10 -12 8 -16
-11 -24 -13 -5 -36 -12 -51 -15 -25 -6 -26 -7 -13 -32 12 -23 11 -30 -6 -58
-10 -17 -19 -41 -19 -52 0 -25 -15 -39 -52 -48 -25 -6 -28 -11 -28 -47 0 -40
-26 -103 -61 -148 -11 -13 -19 -32 -19 -41 0 -10 -7 -30 -15 -46 -9 -19 -11
-32 -5 -38 32 -32 -13 -82 -63 -71 -14 3 -33 -4 -52 -20 l-29 -24 27 -25 c26
-24 27 -27 13 -53 -17 -34 -22 -79 -11 -117 4 -15 4 -31 -1 -35 -26 -18 -78
-97 -76 -114 2 -10 -6 -28 -17 -38 -11 -11 -28 -33 -36 -49 -8 -16 -24 -35
-36 -44 -16 -11 -26 -38 -40 -108 -10 -51 -18 -105 -19 -119 0 -14 -9 -34 -19
-43 -27 -25 -71 -139 -69 -179 1 -17 -2 -59 -6 -91 -6 -48 -14 -66 -40 -90
-17 -17 -33 -35 -35 -41 -2 -5 -7 -20 -12 -33 -13 -33 -12 -38 16 -90 14 -26
25 -61 25 -79 0 -33 17 -51 80 -85 17 -10 29 -22 26 -27 -9 -14 13 -27 104
-61 47 -18 94 -40 105 -50 11 -10 39 -27 63 -39 27 -14 42 -28 42 -40 0 -12
17 -29 46 -46 44 -26 47 -26 114 -14 63 11 72 16 96 50 16 24 24 45 20 57 -4
10 3 40 15 67 12 26 23 62 24 79 2 17 13 56 25 85 12 30 26 78 31 105 5 28 18
63 29 78 11 15 20 33 20 40 0 8 6 22 14 33 7 11 16 34 20 51 4 17 16 41 26 52
11 12 17 28 14 36 -3 9 4 27 15 42 14 18 21 41 21 69 0 29 6 47 20 60 13 12
19 30 19 54 -1 25 10 56 35 99 20 35 36 74 36 85 0 12 9 36 20 52 11 17 20 37
20 45 0 8 14 35 30 60 16 25 30 52 30 61 0 9 13 45 29 80 15 35 31 81 34 103
3 21 15 56 27 77 11 22 20 48 20 57 0 10 7 27 15 38 8 10 15 26 15 34 0 8 7
28 15 44 8 16 18 47 21 70 4 22 11 47 17 54 5 7 11 32 13 56 2 25 12 59 24 78
11 18 20 46 20 62 0 33 33 108 56 126 7 7 14 27 14 44 0 17 7 40 15 50 8 11
15 31 15 46 0 14 12 38 28 55 28 30 58 101 71 170 4 22 15 54 23 70 45 88 68
142 68 161 0 12 6 27 14 33 8 6 17 36 20 65 4 30 16 71 27 92 10 21 19 46 19
56 0 16 40 99 59 122 5 6 12 23 16 38 4 14 18 36 31 49 13 12 24 30 24 40 0 9
7 33 15 52 8 20 15 50 15 66 0 20 9 39 27 55 14 13 27 37 28 53 4 50 17 83 36
94 14 7 19 21 19 52 0 23 7 55 15 71 8 15 13 31 10 36 -2 4 7 18 20 30 14 13
25 29 25 35 0 6 9 28 20 50 11 22 20 45 20 52 0 7 16 45 35 86 19 41 35 83 35
94 0 28 48 144 70 168 25 29 40 60 40 87 1 22 23 93 48 148 6 14 23 57 37 95
15 39 36 84 46 101 10 17 19 38 19 46 0 9 7 21 16 28 21 19 44 77 44 115 0 17
7 45 15 62 8 17 19 52 24 79 6 34 17 53 35 67 14 10 26 24 26 30 0 19 52 142
68 160 23 25 43 84 51 142 0 6 19 32 40 58 22 26 47 69 56 96 8 26 24 65 35
87 11 21 20 48 20 59 0 11 6 30 14 41 8 11 22 47 31 79 10 33 23 71 31 85 13
26 44 96 63 143 19 49 89 59 128 18 23 -23 128 -90 172 -108 18 -8 51 -25 73
-39 21 -14 69 -35 106 -48 173 -59 171 -58 229 -51 76 9 95 18 145 63 24 21
55 46 70 55 16 10 34 32 42 50 7 17 27 47 44 65 16 18 33 48 36 67 4 18 22 50
42 70 27 29 34 43 29 59 -12 35 -4 110 14 144 6 11 11 35 11 52 0 18 9 43 20
57 11 14 20 32 20 39 0 7 14 30 32 49 27 31 31 44 30 86 -1 45 2 52 38 86 27
24 42 47 46 72 10 63 26 105 47 128 17 19 19 27 9 48 -16 34 -3 58 48 90 58
37 94 88 86 125 -8 44 11 129 38 170 17 25 24 50 25 90 1 49 4 58 33 82 76 63
88 77 88 106 0 42 48 171 75 204 13 15 26 37 30 48 3 11 17 23 30 26 41 10 49
28 35 83 -10 43 -9 53 9 87 19 35 19 39 4 56 -15 17 -15 19 2 38 17 19 15 50
-5 50 -15 0 -12 21 9 62 24 48 35 139 19 173 -6 14 -26 35 -44 46 -18 11 -50
43 -70 70 -20 28 -46 55 -58 60 -12 6 -32 16 -46 25 -32 19 -215 17 -245 -3
-11 -7 -36 -13 -56 -13 -21 0 -74 -17 -124 -39 -68 -30 -96 -49 -121 -81 -19
-24 -35 -52 -36 -64 -2 -35 -3 -40 -17 -65 -7 -12 -11 -32 -8 -42 3 -12 -2
-24 -13 -32 -24 -16 -70 -140 -70 -186 0 -12 -8 -38 -19 -59 -11 -22 -21 -70
-24 -120 -4 -45 -12 -92 -18 -104 -7 -12 -13 -29 -13 -38 -1 -8 -7 -33 -13
-55 -7 -22 -17 -69 -24 -105 -15 -83 -44 -192 -58 -218 -6 -11 -11 -30 -11
-41 0 -11 -11 -32 -23 -48 -13 -15 -27 -40 -30 -54 -4 -15 -20 -40 -36 -55
-69 -69 -130 -124 -138 -125 -52 -5 -126 -2 -133 6 -5 6 -9 35 -11 65 -1 30
-6 66 -11 79 -7 18 -4 29 12 46 12 13 20 35 20 56 0 47 20 97 54 141 16 20 35
58 42 84 10 41 9 52 -8 92 -16 36 -19 60 -16 118 3 40 1 77 -5 83 -14 14 0 30
36 39 18 5 37 18 42 29 6 12 17 28 24 37 7 8 15 46 16 83 3 60 1 69 -21 89
-13 13 -24 31 -24 40 0 32 23 93 43 115 11 11 20 32 20 46 0 13 10 36 23 50
29 31 43 78 37 120 -4 25 -15 38 -47 58 -53 32 -78 54 -100 87 -16 24 -23 26
-104 31 -55 2 -105 -1 -137 -9 -27 -7 -77 -19 -110 -27 -47 -10 -60 -17 -61
-32 -1 -11 -2 -27 -3 -37 -1 -11 -17 -20 -52 -28 -33 -8 -66 -25 -90 -47 -54
-49 -75 -40 -72 29 1 29 -2 80 -7 113 -9 53 -7 62 10 80 14 15 22 41 25 86 5
63 5 65 -32 107 -30 33 -48 44 -88 52 -106 22 -192 32 -232 27 -23 -2 -60 -1
-82 3 -35 6 -43 4 -63 -17z m542 -580 c25 -15 30 -23 26 -43 -3 -14 0 -39 6
-56 9 -27 7 -39 -16 -85 -19 -41 -25 -63 -20 -87 6 -29 4 -32 -19 -32 -31 0
-60 -27 -52 -48 3 -8 -4 -25 -15 -37 -27 -29 -34 -149 -13 -214 l15 -43 -37
-31 c-30 -25 -36 -35 -32 -57 4 -17 -3 -46 -19 -79 -14 -31 -22 -62 -18 -75 3
-14 -1 -27 -10 -35 -9 -8 -16 -22 -16 -32 0 -21 -21 -45 -63 -72 -34 -22 -40
-18 -66 36 -28 57 -27 147 2 183 17 23 18 30 8 62 -9 27 -10 49 -2 82 6 25 11
67 11 93 0 27 5 57 10 67 6 11 12 82 14 158 2 82 9 148 16 162 7 13 10 40 7
65 -5 34 -2 47 14 61 10 9 22 15 25 11 3 -3 26 10 51 29 39 30 52 34 103 34
37 0 70 -6 90 -17z m-731 -1144 c24 -11 46 -29 48 -40 3 -10 9 -19 14 -19 4 0
20 -19 33 -42 14 -24 45 -55 68 -70 24 -16 66 -43 95 -62 29 -19 68 -39 88
-46 19 -6 62 -38 94 -71 l59 -59 39 17 c21 9 62 22 91 28 55 11 64 20 90 87
l11 27 58 -20 c45 -16 73 -36 127 -90 52 -52 78 -70 105 -75 57 -9 91 -25 108
-51 9 -13 29 -31 45 -39 30 -15 158 -28 258 -26 99 3 100 1 99 -76 0 -37 1
-108 3 -159 3 -82 1 -94 -18 -115 -12 -12 -33 -44 -47 -70 -14 -25 -38 -64
-54 -85 -42 -58 -168 -173 -189 -173 -11 0 -32 9 -49 20 -19 12 -47 20 -74 20
-34 0 -51 6 -70 24 -15 14 -63 43 -107 65 -67 34 -84 47 -93 74 -25 67 -36 79
-91 99 -30 12 -71 23 -91 25 -34 5 -38 2 -88 -61 -29 -36 -70 -75 -91 -87 -34
-19 -63 -57 -65 -84 0 -5 -8 -19 -18 -30 -12 -14 -16 -28 -11 -48 5 -24 0 -35
-29 -66 -53 -55 -87 -111 -87 -143 0 -16 -9 -46 -19 -66 -55 -107 -62 -122
-54 -122 4 -1 -6 -13 -24 -28 -30 -26 -31 -30 -35 -123 -3 -94 -4 -97 -40
-144 -21 -27 -38 -53 -38 -60 0 -6 -11 -26 -25 -45 -15 -21 -23 -41 -19 -52 4
-13 -6 -30 -31 -55 -38 -38 -50 -75 -62 -188 -3 -27 -11 -59 -19 -70 -8 -11
-14 -29 -14 -41 0 -12 -7 -27 -15 -34 -8 -7 -15 -23 -15 -35 0 -12 -7 -28 -16
-36 -30 -25 -63 -105 -61 -148 1 -33 -3 -44 -21 -57 -20 -14 -22 -22 -17 -58
6 -36 3 -47 -19 -73 -14 -17 -26 -40 -26 -52 0 -12 -21 -41 -49 -69 -48 -45
-50 -49 -44 -90 3 -24 2 -42 -4 -42 -5 0 -28 -17 -50 -37 -40 -38 -45 -49 -68
-165 -3 -15 -13 -29 -23 -32 -24 -8 -96 -79 -100 -98 -1 -9 2 -19 8 -23 14 -9
12 -38 -4 -61 -14 -17 -16 -18 -31 -3 -12 12 -14 21 -6 42 6 14 7 42 4 62 -4
25 -1 41 11 53 9 11 16 35 15 58 0 47 10 115 21 129 4 6 10 23 14 38 4 15 18
38 32 50 27 23 84 137 84 168 0 10 5 21 11 24 5 4 9 17 8 28 -2 38 0 46 32 81
24 28 32 50 40 103 5 37 19 85 29 106 11 21 18 43 14 49 -3 5 0 26 8 46 23 56
39 103 48 140 5 19 15 41 24 51 9 10 13 21 9 24 -3 4 5 20 19 35 13 15 25 37
26 50 0 13 12 32 26 43 16 13 26 30 26 47 0 15 9 41 20 57 11 17 20 39 20 50
0 11 7 28 15 39 8 10 17 39 21 65 3 25 12 56 20 68 8 12 14 33 14 47 0 13 9
46 21 73 13 29 19 60 16 79 -9 58 17 161 53 205 28 35 31 46 26 80 -5 32 -3
42 16 56 56 46 89 79 92 93 2 8 6 28 11 43 6 24 2 32 -31 62 -22 19 -44 34
-49 35 -6 0 -27 11 -47 25 -52 35 -136 67 -186 70 -58 3 -95 43 -87 95 3 19 5
42 4 50 -3 77 5 179 16 200 30 54 63 180 70 265 10 131 14 158 25 169 6 6 10
25 10 44 0 47 19 107 42 132 23 24 15 24 67 -1z m-812 -3879 c-3 -13 0 -20 9
-20 19 0 18 -49 -2 -71 -13 -15 -20 -32 -23 -61 -1 -4 -10 -9 -20 -13 -22 -7
-34 -42 -17 -49 16 -7 -14 -26 -41 -26 -28 0 -38 16 -25 43 10 22 27 80 37
130 3 15 12 27 20 27 17 0 39 36 30 50 -3 6 4 10 16 10 16 0 20 -5 16 -20z
m-82 -310 c-3 -5 -10 -10 -16 -10 -5 0 -9 5 -9 10 0 6 7 10 16 10 8 0 12 -4 9
-10z m-271 -841 c-3 -5 -9 -7 -14 -4 -4 3 -10 -2 -14 -10 -7 -20 -26 -19 -26
0 0 9 10 19 23 24 25 10 40 5 31 -10z m-255 -571 c1 -28 7 -60 12 -70 14 -27
-35 -151 -66 -168 -13 -7 -27 -10 -32 -7 -4 3 -13 -1 -20 -8 -10 -11 -8 -19 7
-38 18 -22 18 -26 5 -37 -13 -11 -20 -10 -40 0 -26 14 -35 60 -12 60 15 0 52
57 52 81 0 9 8 32 17 50 33 69 37 85 35 137 -2 47 0 52 19 52 18 0 21 -7 23
-52z m-149 -402 c0 -8 -4 -18 -10 -21 -5 -3 -10 -16 -10 -27 0 -11 -8 -35 -18
-52 -11 -17 -20 -48 -21 -69 -4 -85 -75 -162 -127 -138 -31 14 -30 25 1 45 14
9 25 26 25 39 0 12 9 39 20 60 11 21 18 42 16 46 -3 4 5 18 18 30 13 12 26 36
30 52 7 38 76 69 76 35z m-269 -691 c3 -28 2 -56 -4 -62 -5 -7 -7 -22 -4 -33
4 -14 -4 -30 -23 -50 -21 -22 -31 -44 -36 -80 -6 -44 -9 -50 -30 -50 -23 0
-64 31 -64 49 0 24 36 125 71 199 34 71 44 83 62 80 18 -2 23 -11 28 -53z"/>
<path d="M30172 16419 c-13 -5 -70 -12 -125 -15 -56 -3 -125 -12 -154 -20 -28
-8 -65 -14 -82 -14 -31 0 -95 -33 -119 -62 -6 -8 -31 -23 -54 -33 -57 -25 -88
-53 -88 -81 0 -29 -12 -37 -99 -65 -56 -18 -79 -31 -98 -56 -14 -18 -33 -33
-43 -33 -36 0 -58 -32 -64 -95 -5 -49 -2 -64 13 -82 20 -23 40 -27 147 -25 71
2 73 3 120 47 27 26 54 43 62 40 17 -6 52 12 52 28 0 29 21 36 65 23 33 -11
50 -11 81 -1 22 7 72 17 113 24 41 6 80 16 87 22 6 5 29 9 50 9 129 -3 218 1
235 10 11 6 25 7 32 3 6 -4 48 -8 92 -9 101 -3 208 -12 259 -24 24 -5 47 -5
57 1 22 11 126 11 234 -1 50 -5 119 -4 187 3 l107 11 38 -27 c22 -15 51 -27
65 -27 15 0 33 -6 40 -13 26 -25 75 -39 97 -28 11 6 42 13 68 15 49 4 88 14
134 36 21 9 37 8 85 -5 32 -10 91 -21 129 -25 39 -4 104 -13 145 -20 41 -7 98
-9 127 -6 31 4 62 1 77 -5 18 -8 36 -9 65 -2 30 8 59 6 128 -8 69 -14 96 -16
124 -8 26 8 42 8 57 0 11 -6 39 -11 61 -11 22 0 55 -9 74 -20 18 -11 56 -23
83 -26 27 -3 66 -9 86 -15 21 -5 49 -7 63 -3 14 3 41 0 63 -9 21 -8 85 -18
142 -22 80 -6 113 -12 140 -28 19 -12 37 -25 38 -29 2 -4 21 -8 43 -8 22 0 67
-11 100 -25 33 -14 69 -23 79 -20 10 3 37 -1 61 -10 24 -9 71 -25 104 -36 33
-11 71 -30 85 -44 30 -29 93 -44 179 -45 56 0 69 -4 110 -33 47 -34 73 -46
148 -66 23 -6 64 -28 90 -48 41 -31 55 -36 107 -38 46 -2 63 -6 71 -20 5 -10
21 -27 34 -39 14 -12 43 -37 65 -57 23 -20 61 -46 85 -59 24 -12 58 -37 75
-54 17 -18 63 -50 101 -71 39 -22 91 -62 118 -91 26 -29 72 -69 103 -89 30
-20 60 -47 66 -60 6 -13 24 -29 40 -36 21 -9 36 -27 54 -67 13 -30 42 -74 64
-98 22 -24 40 -50 40 -58 0 -24 50 -103 75 -120 14 -9 25 -21 25 -27 0 -6 8
-23 19 -37 10 -15 24 -52 31 -82 7 -30 20 -64 30 -75 43 -50 73 -138 78 -232
5 -90 4 -92 -28 -141 l-33 -51 -58 1 c-51 1 -63 5 -89 30 -22 20 -37 27 -51
23 -13 -5 -30 2 -53 22 -18 15 -47 36 -65 45 -18 10 -31 25 -31 36 0 11 -15
31 -34 46 -19 14 -37 35 -41 45 -8 26 -39 36 -98 32 -39 -2 -53 1 -72 19 -20
19 -29 21 -67 14 -24 -5 -48 -9 -54 -9 -6 0 -25 -13 -43 -28 -18 -15 -39 -27
-47 -27 -8 0 -25 -23 -38 -52 -21 -47 -27 -51 -61 -55 -21 -2 -51 -14 -69 -27
-22 -17 -51 -25 -98 -30 -37 -4 -74 -9 -81 -12 -14 -5 -57 -86 -57 -107 0 -19
-85 -129 -111 -142 -49 -27 -134 30 -170 113 -17 40 -30 48 -67 43 -8 -1 -24
4 -36 12 -12 9 -42 21 -65 28 -46 14 -65 36 -75 86 -3 20 -23 51 -50 79 -25
25 -48 56 -52 68 -3 11 -18 33 -33 48 -14 14 -32 33 -39 42 -7 9 -24 16 -37
16 -13 0 -48 9 -76 21 -35 13 -64 18 -88 14 -38 -5 -59 4 -157 73 -40 28 -51
32 -71 23 -43 -20 -99 22 -83 64 8 20 2 28 -40 64 -59 50 -105 56 -120 16 -13
-34 -53 -42 -111 -22 -49 18 -59 16 -119 -18 -21 -12 -27 -12 -42 2 -10 9 -18
22 -18 30 0 7 -15 22 -32 33 -18 11 -36 30 -39 42 -5 21 -11 23 -63 21 -45 -2
-63 -7 -89 -29 -17 -15 -51 -35 -74 -45 -25 -11 -44 -26 -48 -41 -15 -47 -34
-58 -105 -58 -58 0 -73 -4 -113 -31 -25 -16 -62 -47 -82 -67 -34 -35 -36 -40
-31 -87 l6 -50 -61 -60 c-34 -33 -72 -76 -85 -96 -13 -21 -34 -39 -50 -43 -28
-7 -54 -28 -54 -45 0 -5 -8 -10 -17 -9 -10 0 -31 -3 -48 -7 -27 -6 -32 -3 -50
27 -11 18 -20 44 -20 58 0 17 -6 26 -20 28 -64 11 -93 24 -98 42 -4 16 -14 20
-46 20 -39 0 -41 1 -52 43 -18 67 -37 96 -74 114 -19 9 -35 20 -35 23 0 13
-112 21 -126 9 -13 -10 -38 -12 -147 -10 -27 1 -45 8 -61 26 -13 14 -30 25
-39 25 -9 0 -19 5 -22 10 -3 6 -19 10 -35 10 -16 0 -32 -4 -35 -10 -3 -5 -15
-10 -26 -10 -10 0 -19 -4 -19 -9 0 -13 -57 -31 -96 -31 -27 0 -34 -4 -34 -19
0 -14 -20 -30 -68 -56 -49 -25 -75 -47 -93 -75 -24 -39 -33 -44 -75 -41 -12 1
-33 -9 -48 -23 -50 -51 -105 -30 -208 81 -17 18 -44 35 -62 38 -17 4 -42 14
-55 22 -27 17 -97 11 -127 -12 -24 -18 -56 -19 -99 -1 -24 10 -35 22 -35 36 0
33 -41 46 -87 28 -23 -10 -46 -12 -58 -7 -36 14 -61 9 -91 -17 -16 -14 -48
-41 -71 -61 -24 -19 -59 -58 -79 -85 l-36 -50 12 -65 c8 -49 8 -68 -1 -79 -9
-11 -6 -20 15 -40 14 -15 26 -30 26 -35 0 -4 3 -14 6 -23 4 -11 -2 -19 -22
-26 -19 -8 -24 -14 -17 -21 15 -15 5 -43 -20 -54 -12 -6 -24 -19 -26 -30 -7
-39 -45 -41 -80 -6 -10 10 -26 24 -37 32 -11 8 -33 32 -51 54 -74 96 -103 176
-114 318 -5 62 -18 173 -29 247 -12 74 -20 162 -19 195 4 85 3 110 -5 195 -8
83 -9 115 -6 145 1 11 1 85 0 165 -2 158 6 241 25 280 7 14 16 50 20 80 6 47
13 62 52 101 39 41 47 56 58 115 11 59 11 76 -2 116 -13 42 -19 48 -49 54 -55
10 -139 -30 -198 -94 -27 -29 -64 -59 -82 -67 -19 -8 -34 -19 -34 -25 0 -6
-15 -23 -33 -39 -27 -24 -35 -43 -51 -112 -10 -46 -22 -92 -27 -101 -5 -9 -14
-74 -20 -145 -6 -70 -15 -138 -21 -150 -12 -25 -13 -93 -3 -303 4 -85 8 -200
10 -255 2 -55 8 -136 13 -180 6 -44 13 -107 17 -140 4 -36 2 -82 -4 -115 -7
-30 -15 -73 -20 -95 -4 -22 -1 -112 5 -200 7 -88 11 -170 8 -182 -3 -11 1 -32
10 -45 26 -39 22 -142 -8 -226 -28 -81 -28 -141 2 -199 13 -25 13 -34 3 -47
-10 -12 -9 -18 8 -35 17 -17 19 -27 13 -63 -4 -24 -5 -66 -2 -95 4 -34 1 -58
-7 -69 -7 -10 -9 -23 -4 -33 22 -41 -1 -256 -32 -298 -5 -7 -9 -40 -9 -73 -1
-52 3 -63 25 -84 18 -17 23 -30 20 -49 -5 -23 0 -28 36 -43 24 -9 48 -28 55
-43 8 -14 35 -46 61 -70 25 -24 58 -61 72 -83 23 -34 31 -39 55 -34 33 7 58
-1 58 -18 0 -7 15 -27 34 -44 19 -17 37 -40 41 -51 3 -11 37 -41 76 -66 38
-26 69 -53 69 -61 0 -38 40 -91 89 -117 27 -15 64 -45 81 -67 19 -24 36 -37
43 -33 20 12 50 3 87 -27 32 -24 42 -27 88 -22 39 3 57 1 70 -11 19 -17 117
-69 147 -78 11 -3 31 -2 43 3 18 6 31 3 53 -13 16 -11 29 -26 29 -33 0 -24 34
-43 105 -61 39 -9 89 -27 111 -41 23 -13 60 -26 83 -30 22 -4 46 -13 52 -20 6
-8 16 -14 21 -14 5 0 26 -11 46 -25 20 -14 46 -25 58 -25 12 0 35 -7 50 -15
16 -8 45 -15 64 -15 20 0 54 -9 75 -21 22 -11 65 -25 95 -30 30 -6 75 -22 100
-35 24 -13 59 -24 76 -24 19 0 38 -8 50 -21 16 -18 26 -20 69 -14 57 7 158
-13 198 -40 17 -11 36 -15 52 -11 15 4 37 0 54 -9 46 -23 117 -36 235 -41 79
-3 122 -10 154 -24 37 -17 69 -20 191 -21 80 -1 174 -8 209 -15 53 -10 69 -10
96 1 51 22 149 22 182 0 21 -14 40 -16 86 -12 41 4 71 1 95 -10 39 -16 80 -10
98 14 8 11 37 15 125 18 63 2 176 8 250 14 111 9 147 8 207 -4 106 -22 184
-20 217 6 14 11 30 18 35 15 5 -4 22 -1 38 5 29 12 107 27 178 33 22 2 59 9
83 14 24 6 55 7 70 3 50 -13 284 -4 359 14 40 9 77 14 82 11 15 -10 63 15 106
55 35 32 49 38 105 43 36 4 89 10 117 13 29 3 58 12 64 19 6 8 26 14 44 14 38
0 61 23 57 57 -4 26 10 41 62 69 26 14 32 14 72 -1 24 -9 48 -14 54 -10 5 3
10 23 10 44 0 65 48 90 97 51 41 -32 92 -26 139 15 21 19 42 35 45 35 4 0 9
10 13 23 7 29 79 115 134 161 36 29 46 34 65 25 24 -11 62 -91 54 -113 -3 -8
0 -34 7 -58 9 -27 10 -51 5 -66 -6 -16 -4 -32 6 -51 8 -16 12 -31 8 -34 -3 -3
-6 -48 -8 -99 -1 -51 -8 -105 -15 -119 -9 -21 -9 -42 0 -100 21 -138 22 -165
7 -195 -17 -34 -16 -103 2 -156 10 -30 10 -42 -2 -65 -13 -28 -22 -137 -19
-243 1 -30 1 -100 1 -155 -1 -55 -1 -125 0 -155 0 -30 0 -100 -1 -155 -1 -178
0 -324 3 -347 1 -13 0 -74 -3 -137 -4 -84 -2 -125 8 -156 16 -45 14 -148 -6
-380 -6 -71 -9 -148 -5 -170 8 -57 6 -131 -6 -197 -8 -48 -7 -62 7 -82 11 -19
15 -40 11 -78 -2 -30 2 -76 10 -106 11 -41 12 -60 3 -87 -7 -22 -9 -56 -4 -92
4 -32 8 -123 9 -203 2 -80 8 -173 14 -207 13 -74 16 -221 8 -317 -4 -50 -2
-79 9 -105 12 -28 12 -40 3 -58 -9 -17 -9 -29 0 -50 11 -28 8 -213 -4 -233 -3
-5 2 -21 11 -35 20 -30 14 -113 -10 -150 -10 -16 -13 -43 -10 -105 2 -46 0
-97 -5 -114 -5 -17 -16 -54 -25 -82 -9 -29 -16 -58 -16 -65 0 -8 -21 -56 -46
-107 -43 -85 -51 -95 -96 -118 -28 -14 -53 -35 -58 -48 -12 -34 -45 -54 -125
-78 -38 -11 -91 -34 -117 -50 -46 -29 -111 -48 -233 -68 -33 -5 -76 -14 -95
-21 -55 -17 -142 -29 -315 -44 -88 -7 -194 -18 -235 -24 -51 -8 -105 -8 -168
-2 -52 6 -103 6 -115 2 -12 -4 -123 -9 -247 -10 -123 -1 -227 -4 -230 -6 -9
-6 -150 -6 -270 0 -135 6 -140 6 -235 2 -92 -4 -406 19 -480 35 -27 6 -145 12
-261 14 -163 2 -218 5 -240 17 -16 8 -45 18 -64 22 -35 8 -110 39 -185 78 -22
11 -59 30 -83 42 -24 12 -58 35 -75 51 -80 74 -112 92 -189 108 -41 9 -97 25
-124 36 -29 13 -66 20 -93 19 -25 -1 -64 3 -86 9 -45 12 -187 32 -225 32 -31
0 -180 61 -310 126 -100 50 -234 137 -285 184 -44 41 -70 52 -154 63 -132 17
-214 5 -258 -39 -21 -21 -24 -31 -20 -87 3 -46 11 -74 30 -104 31 -49 123
-121 166 -129 16 -4 32 -12 35 -20 3 -8 12 -14 20 -14 29 0 107 -31 133 -53
15 -12 50 -43 79 -69 33 -29 70 -51 96 -58 24 -7 59 -21 78 -32 37 -22 71 -34
130 -48 19 -5 75 -23 125 -40 51 -18 125 -35 173 -40 46 -5 90 -14 97 -20 8
-6 38 -15 67 -20 52 -8 113 -23 174 -41 17 -5 51 -9 75 -9 73 0 220 -57 245
-95 17 -26 168 -105 201 -105 11 0 30 -12 44 -26 21 -22 30 -25 64 -20 29 5
51 1 80 -13 22 -10 44 -16 50 -13 5 4 51 7 100 8 50 1 154 5 233 10 136 7 144
6 172 -14 25 -19 37 -21 108 -15 62 4 92 2 132 -11 38 -13 81 -17 159 -15 206
4 393 -7 435 -26 28 -12 52 -15 80 -10 79 12 171 14 204 4 25 -8 44 -7 80 4
26 9 66 21 89 27 46 12 171 12 178 0 2 -4 26 -5 52 -3 27 2 57 3 68 3 117 -1
174 2 201 12 23 8 47 8 85 1 30 -6 71 -8 93 -5 21 2 55 -1 75 -8 31 -10 43 -9
89 9 29 12 75 21 102 21 27 0 52 4 55 10 3 5 14 10 24 10 10 0 38 9 62 19 24
11 67 23 94 26 28 4 59 13 70 19 11 6 49 11 85 12 49 0 74 6 100 22 19 12 47
22 62 22 34 0 169 54 183 73 5 8 26 22 45 32 19 10 38 23 42 30 4 7 32 23 63
35 30 12 55 26 55 30 0 5 20 20 44 34 25 14 48 35 51 46 3 11 24 38 46 61 21
22 39 48 39 58 0 10 14 36 32 59 29 38 118 271 137 362 4 19 13 46 20 59 10
17 11 49 7 115 -10 142 -23 266 -34 321 -10 47 -9 52 19 87 29 37 35 58 22 72
-5 4 -9 42 -9 84 -1 43 -2 84 -4 92 -1 8 2 33 6 55 13 59 9 224 -6 275 -8 25
-14 50 -14 55 -4 30 -20 83 -31 101 -8 12 -15 54 -16 95 -3 83 16 129 55 129
31 0 167 -41 195 -59 20 -13 64 -16 230 -18 113 -1 220 -2 236 -3 17 0 66 3
110 9 44 5 121 14 170 20 50 6 106 15 125 21 19 6 60 10 90 9 35 0 75 7 110
21 84 33 191 71 212 75 20 4 141 64 201 99 21 13 49 39 62 58 25 38 49 52 77
49 29 -4 107 36 173 89 34 27 67 50 72 50 6 0 49 45 98 100 48 55 110 119 137
142 51 43 114 128 138 188 7 19 19 44 26 54 7 10 10 31 7 46 -3 15 0 31 6 34
6 4 11 24 11 45 0 28 10 52 35 87 20 27 44 63 55 80 11 17 47 52 81 78 43 33
59 52 55 63 -4 9 0 25 7 37 8 12 17 39 21 61 6 39 7 49 5 98 -1 12 7 51 17 86
16 53 25 68 51 84 27 16 34 26 39 67 4 27 12 51 19 54 21 8 57 144 51 190 -3
23 -2 58 3 78 10 43 -17 257 -36 279 -6 8 -13 43 -16 79 -6 97 -29 147 -94
209 -51 48 -55 54 -40 66 14 10 15 17 6 43 -6 18 -9 37 -6 44 2 7 0 23 -4 36
-5 12 -5 32 0 45 12 32 -8 87 -53 138 -31 37 -36 49 -36 95 0 32 -5 56 -14 63
-8 7 -17 23 -20 36 -3 13 -22 33 -41 45 -37 23 -41 31 -25 60 7 13 6 27 -4 47
-17 33 -42 115 -50 159 -2 17 -21 47 -40 66 -20 20 -36 46 -36 57 0 13 -19 41
-45 65 -38 38 -45 50 -45 83 0 32 -6 43 -30 61 -16 13 -30 31 -30 42 0 11 -13
29 -30 41 -18 14 -32 35 -36 55 -8 42 -54 97 -100 119 -26 12 -41 29 -56 63
-11 26 -29 57 -40 68 -10 12 -27 37 -37 55 -10 19 -33 44 -51 57 -18 12 -41
35 -50 50 -9 15 -24 33 -34 41 -28 23 -181 101 -316 162 -94 41 -96 42 -225
44 -71 2 -155 6 -186 10 -43 6 -73 2 -135 -15 -43 -12 -111 -23 -151 -24 -40
-2 -78 -7 -85 -13 -23 -18 -116 -43 -155 -42 -57 3 -101 -10 -174 -48 -44 -23
-84 -36 -125 -40 -38 -3 -72 -14 -97 -29 -20 -14 -52 -27 -70 -30 -17 -3 -58
-15 -91 -25 -32 -11 -66 -17 -76 -14 -29 9 -70 91 -70 139 0 23 4 46 10 52 14
14 29 133 39 326 10 188 6 226 -29 285 -22 37 -26 68 -34 256 -3 59 -1 69 16
78 16 9 19 17 14 45 -5 22 -2 41 8 56 9 14 14 46 14 79 0 30 5 66 12 79 7 13
14 42 15 64 7 100 7 215 0 225 -4 7 -2 17 3 24 12 16 22 83 14 92 -4 4 -7 34
-8 68 0 34 -6 78 -12 97 -6 19 -15 52 -21 73 -5 21 -16 46 -25 56 -9 10 -16
29 -16 43 0 14 -9 33 -21 44 -30 27 -72 101 -64 114 4 6 -10 40 -29 76 -20 35
-36 75 -36 88 0 21 -21 53 -122 184 -18 21 -28 47 -28 67 0 25 -8 39 -35 59
-19 15 -35 32 -35 37 0 21 -51 116 -72 135 -13 11 -42 33 -65 48 -23 15 -44
34 -47 42 -7 19 -66 54 -91 54 -34 0 -69 24 -75 50 -7 30 -123 127 -163 136
-16 3 -58 35 -95 71 -36 35 -78 71 -93 79 -15 7 -40 29 -56 48 -38 46 -94 69
-168 68 -48 -1 -68 4 -97 24 -21 13 -39 29 -39 34 -7 54 -49 90 -107 90 -16 0
-68 18 -115 40 -47 22 -91 40 -98 40 -7 0 -78 32 -158 72 l-146 72 -120 6
c-119 5 -121 5 -215 53 -72 36 -106 47 -140 47 -25 0 -62 8 -83 19 -23 12 -79
23 -152 31 -102 10 -117 10 -131 -4 -8 -9 -20 -16 -25 -16 -16 0 -72 31 -103
57 -23 19 -37 23 -60 19 -21 -4 -43 0 -67 13 -27 15 -64 20 -169 24 -74 3
-157 9 -185 12 -43 6 -54 4 -75 -15 -23 -21 -31 -22 -123 -16 -53 4 -116 14
-139 22 -44 15 -189 23 -288 14 -35 -2 -89 4 -150 17 -154 35 -220 42 -257 26
-45 -18 -230 -17 -318 3 -121 27 -299 15 -408 -28 -21 -8 -43 -7 -95 7 -147
37 -369 55 -420 34z m2498 -2215 c25 -7 70 -16 100 -20 85 -10 228 -61 290
-104 14 -10 41 -21 60 -25 19 -4 55 -18 80 -30 25 -13 56 -27 70 -31 30 -8 77
-40 105 -71 21 -23 88 -63 106 -63 19 0 148 -102 155 -122 3 -11 21 -37 39
-57 18 -20 37 -52 44 -72 15 -47 56 -85 108 -98 37 -10 43 -16 57 -56 8 -25
38 -71 66 -102 28 -33 50 -67 50 -79 0 -13 5 -26 10 -29 6 -3 10 -19 10 -35 0
-47 29 -58 150 -59 l105 -1 34 49 c18 27 44 60 58 73 14 13 29 33 34 45 4 12
28 32 51 44 24 12 45 25 48 29 3 4 15 11 28 14 12 4 30 20 40 34 26 42 115
122 134 122 9 0 23 6 30 14 14 16 111 122 134 147 9 10 25 14 43 11 16 -2 38
1 49 7 42 23 218 -41 280 -101 110 -107 122 -122 122 -148 0 -16 15 -47 36
-74 l35 -47 -16 -49 c-9 -28 -20 -50 -25 -50 -4 0 -17 -15 -28 -33 -20 -34
-120 -110 -201 -153 -25 -13 -86 -37 -136 -54 -49 -17 -108 -43 -130 -59 -27
-19 -57 -30 -90 -34 -28 -2 -89 -18 -136 -35 -47 -17 -99 -30 -115 -30 -16 1
-43 -6 -60 -15 -25 -13 -39 -14 -70 -6 -22 7 -64 8 -99 4 -33 -3 -91 -7 -128
-9 -37 -1 -73 -8 -79 -14 -7 -7 -21 -12 -33 -12 -12 0 -25 -4 -30 -9 -13 -12
-149 -60 -200 -71 -22 -5 -53 -14 -70 -20 -16 -6 -57 -10 -90 -9 -33 1 -77 -1
-98 -6 -23 -4 -68 -3 -112 5 -67 11 -82 11 -174 -10 -98 -23 -103 -23 -183 -7
-81 16 -214 25 -473 33 -71 2 -158 9 -193 15 -35 6 -78 9 -97 6 -19 -3 -49 -1
-67 4 -33 10 -157 19 -303 23 -44 1 -107 8 -140 15 -33 7 -91 15 -130 17 -38
3 -85 9 -104 14 -22 6 -39 6 -46 0 -15 -13 -37 -13 -170 -5 -60 4 -139 9 -175
10 -68 2 -74 3 -155 37 -135 55 -192 68 -297 66 -57 0 -122 4 -145 11 -23 6
-81 13 -130 15 -115 5 -227 29 -290 60 -28 15 -54 26 -59 26 -4 0 -15 7 -24
15 -16 15 -151 57 -225 70 -42 7 -110 38 -120 55 -4 6 -37 31 -73 56 -37 25
-94 65 -127 90 -33 24 -71 49 -85 56 -43 20 -60 40 -60 68 0 42 20 60 72 64
26 2 54 9 62 15 26 22 45 77 51 147 3 38 8 79 11 91 2 13 4 25 4 28 -1 19 35
66 68 89 37 25 43 26 99 17 33 -5 78 -19 99 -30 21 -12 54 -21 72 -21 19 0 46
-8 60 -18 15 -10 35 -22 45 -25 11 -4 17 -17 17 -34 0 -16 7 -38 15 -50 8 -11
17 -40 21 -64 11 -75 45 -99 166 -119 104 -17 154 0 192 65 14 24 26 50 26 58
0 9 4 17 8 19 16 6 70 84 75 108 5 20 25 34 94 67 137 65 140 66 206 52 71
-15 120 -3 161 40 l29 30 48 -18 c26 -10 60 -28 75 -40 15 -11 40 -21 56 -21
16 0 47 -9 69 -20 22 -12 43 -19 48 -16 4 3 24 -14 43 -38 30 -35 48 -46 97
-60 48 -13 67 -25 96 -58 19 -23 35 -45 35 -50 0 -12 51 -36 95 -43 22 -4 45
-12 52 -17 14 -12 115 -14 132 -4 12 8 65 90 95 149 10 20 37 59 60 86 23 27
52 66 66 87 24 36 126 153 196 225 19 20 62 47 97 62 68 28 128 29 217 1z
m-1575 -174 c0 -8 -8 -16 -17 -18 -13 -2 -18 3 -18 18 0 15 5 20 18 18 9 -2
17 -10 17 -18z m-1880 -1029 c66 -61 111 -90 181 -117 37 -14 85 -37 108 -53
22 -15 66 -38 96 -50 30 -13 64 -30 75 -37 11 -8 30 -14 43 -14 13 0 36 -7 51
-14 15 -8 37 -13 47 -10 10 3 55 -12 99 -32 74 -35 87 -38 175 -39 82 -1 103
-5 154 -29 33 -16 65 -34 72 -41 7 -7 28 -15 46 -19 18 -3 46 -19 61 -36 16
-16 43 -32 63 -36 19 -3 37 -10 40 -15 3 -5 27 -9 54 -9 27 0 77 -7 112 -15
35 -8 81 -13 103 -10 22 2 88 8 147 14 113 12 136 8 188 -29 28 -20 46 -21
197 -5 35 4 49 -1 93 -31 57 -39 138 -59 185 -45 17 4 89 6 160 4 116 -4 135
-8 174 -30 44 -26 58 -26 161 -8 173 30 256 33 340 14 58 -14 178 -31 210 -30
14 0 68 5 120 10 56 5 148 6 225 0 72 -4 276 -10 455 -13 309 -4 369 -10 385
-35 11 -19 52 -12 112 19 32 17 79 36 106 41 26 6 73 24 104 41 43 23 70 30
105 29 88 -2 204 37 235 78 9 12 26 15 75 13 35 -1 121 3 193 9 100 8 135 15
154 30 14 11 40 19 63 19 25 0 41 5 44 15 9 22 68 55 98 55 36 0 163 65 176
90 6 11 34 31 63 45 29 13 81 52 115 85 63 62 84 70 90 34 2 -10 12 -28 23
-39 18 -20 18 -38 15 -330 -3 -250 -1 -315 10 -337 19 -38 18 -139 -3 -183 -9
-19 -34 -46 -55 -60 -21 -14 -38 -32 -38 -40 0 -19 -104 -95 -130 -95 -30 0
-60 -18 -60 -35 0 -8 -13 -24 -30 -36 -16 -12 -32 -34 -35 -49 -7 -34 -31 -56
-120 -111 -38 -24 -71 -47 -73 -51 -2 -4 -27 -14 -55 -24 -29 -9 -59 -23 -68
-30 -8 -8 -31 -16 -50 -20 -46 -8 -89 -25 -89 -35 0 -5 -33 -18 -72 -30 -40
-12 -89 -30 -108 -41 -19 -10 -44 -18 -55 -18 -12 0 -34 -13 -50 -30 l-28 -29
-93 6 c-61 4 -108 2 -140 -7 -47 -12 -98 -19 -279 -40 -44 -5 -102 -15 -130
-23 -27 -9 -81 -18 -120 -22 -38 -4 -77 -13 -85 -20 -15 -13 -131 -28 -205
-26 -22 0 -65 0 -95 -1 -131 -4 -177 -1 -215 14 -27 11 -53 14 -80 9 -22 -4
-53 -3 -68 2 -16 5 -67 6 -115 2 -48 -3 -107 -8 -132 -9 -25 -1 -55 -8 -66
-14 -23 -12 -148 -2 -213 17 -19 6 -38 8 -43 5 -21 -13 -174 -18 -328 -11 -89
4 -124 10 -157 26 -23 12 -60 21 -82 21 -22 0 -51 4 -65 10 -14 5 -70 11 -124
14 -75 3 -111 10 -153 29 -63 27 -246 46 -266 26 -13 -13 -75 -7 -120 12 -28
11 -34 11 -52 -5 -14 -12 -26 -16 -43 -10 -13 4 -40 6 -61 5 -37 -2 -79 16
-127 54 -16 12 -57 25 -105 33 -44 7 -98 22 -120 32 -22 11 -64 21 -93 24 -59
4 -75 14 -92 56 -25 60 -148 88 -133 30 4 -15 0 -20 -16 -20 -14 0 -21 6 -21
20 0 29 -75 107 -117 121 -20 6 -50 20 -67 29 -44 26 -88 33 -122 19 -16 -6
-54 -11 -84 -10 -50 2 -57 5 -85 39 -16 20 -47 53 -68 72 -22 19 -50 46 -63
60 -13 14 -29 30 -35 35 -6 6 -29 27 -50 48 -22 20 -49 37 -61 37 -13 0 -41
20 -67 48 -35 36 -49 60 -58 100 -14 63 -52 114 -104 144 -22 12 -39 29 -39
37 -1 37 -157 123 -267 148 -57 13 -51 49 16 102 24 20 38 37 35 46 -4 9 6 21
25 33 40 24 91 89 91 116 0 12 -5 37 -10 56 -17 58 -24 278 -10 295 18 21 47
10 95 -34z m7715 -812 c60 7 221 6 300 -2 63 -6 79 -11 98 -33 13 -15 51 -36
86 -48 105 -37 206 -124 295 -254 21 -31 53 -67 70 -80 17 -12 31 -32 31 -43
0 -10 23 -41 50 -67 28 -27 50 -57 50 -68 0 -12 9 -29 21 -40 26 -23 59 -86
59 -112 0 -10 11 -29 25 -42 35 -33 75 -107 75 -139 0 -16 28 -74 65 -136 36
-59 65 -111 65 -116 0 -4 16 -47 35 -95 19 -47 35 -98 35 -113 0 -14 12 -46
26 -71 33 -58 64 -139 64 -168 0 -13 7 -47 15 -75 7 -29 16 -74 19 -100 3 -27
9 -54 14 -60 16 -20 42 -123 42 -166 0 -23 9 -59 20 -80 31 -62 35 -112 13
-162 -14 -33 -17 -56 -12 -89 10 -69 -4 -144 -34 -187 -19 -27 -27 -52 -27
-81 0 -24 -6 -53 -14 -65 -8 -12 -17 -38 -21 -57 -4 -19 -18 -56 -31 -82 -13
-26 -24 -56 -24 -66 0 -10 -15 -33 -34 -51 -19 -18 -42 -54 -52 -80 -9 -25
-25 -57 -36 -70 -10 -13 -18 -36 -18 -52 0 -15 -4 -31 -10 -34 -5 -3 -10 -20
-10 -37 0 -16 -9 -41 -20 -55 -11 -14 -20 -34 -20 -44 0 -9 -13 -28 -28 -41
-30 -24 -82 -116 -82 -144 0 -42 -108 -199 -168 -245 -20 -16 -50 -39 -66 -51
-17 -13 -40 -35 -53 -49 -28 -33 -171 -105 -238 -120 -54 -12 -183 -58 -253
-89 -47 -22 -236 -73 -267 -72 -11 0 -74 1 -140 3 -73 1 -128 -2 -140 -8 -12
-7 -59 -9 -130 -6 -71 4 -118 2 -131 -5 -54 -29 -152 36 -204 135 -34 65 -113
162 -164 199 -37 27 -41 35 -42 75 -2 59 -11 108 -24 124 -6 7 -11 28 -11 46
1 19 -2 82 -5 141 -6 102 -5 107 16 118 17 9 21 20 20 53 -1 23 -1 48 -1 55 1
19 40 14 72 -9 16 -11 29 -17 29 -14 0 4 12 -3 26 -14 15 -12 33 -21 41 -21 8
0 27 -12 41 -28 50 -50 109 -83 187 -101 60 -15 85 -17 108 -9 21 8 48 8 92
-1 104 -19 186 -14 272 16 43 14 90 25 105 24 16 -1 45 6 65 16 21 9 53 18 71
20 47 5 79 24 133 76 34 33 62 50 104 62 46 14 68 28 116 77 32 33 59 64 59
69 0 5 12 12 28 15 61 16 192 128 192 166 0 30 48 106 76 120 29 15 80 148 91
238 3 30 12 64 19 75 20 32 24 106 7 150 -14 38 -16 48 -15 105 0 14 1 45 1
69 1 24 -3 49 -8 55 -11 14 -32 90 -36 131 -1 17 -13 51 -25 74 -15 31 -20 53
-16 75 6 34 -31 145 -58 175 -8 9 -19 28 -25 44 -8 20 -17 27 -37 27 -33 0
-67 36 -118 124 -38 64 -44 70 -130 114 -50 26 -113 50 -139 54 -27 5 -68 20
-92 34 -34 19 -62 26 -127 30 -46 3 -117 9 -159 14 -42 4 -118 4 -168 -1 -50
-5 -111 -5 -136 0 -24 5 -46 7 -47 5 -6 -5 -204 -26 -239 -25 -20 1 -52 -7
-70 -18 -19 -10 -52 -22 -74 -26 -22 -3 -59 -17 -83 -30 -81 -45 -168 -45
-198 0 -15 23 -14 26 13 61 24 33 28 45 26 98 -1 34 -2 82 -2 109 0 27 -5 47
-11 47 -8 0 -11 27 -11 78 0 150 -7 269 -18 290 -14 26 -7 97 13 147 9 20 16
45 16 55 0 15 33 50 72 75 8 6 26 18 39 27 13 9 50 24 82 32 32 8 75 28 95 44
80 62 195 112 260 112 26 0 60 7 76 15 16 8 46 18 67 21 20 4 50 15 66 25 23
15 39 17 88 12 33 -4 76 -6 95 -4z m-7631 -415 c3 -2 -4 -11 -15 -18 -16 -12
-21 -13 -33 -1 -19 18 -4 37 22 29 12 -3 24 -8 26 -10z m7204 -1021 c25 -14
218 -10 344 8 69 10 87 10 121 -4 27 -11 57 -14 93 -11 40 4 70 0 114 -15 95
-34 126 -60 140 -119 2 -7 28 -42 59 -78 35 -41 56 -75 56 -90 0 -14 7 -41 15
-61 8 -19 15 -46 15 -58 0 -13 10 -45 23 -72 19 -41 22 -63 19 -133 -4 -133
-4 -252 2 -293 3 -20 -1 -55 -9 -78 -8 -23 -15 -55 -15 -72 0 -22 -13 -46 -48
-86 -33 -38 -56 -77 -71 -121 -29 -89 -105 -157 -219 -199 -44 -16 -91 -41
-105 -55 -15 -14 -33 -26 -41 -26 -7 0 -47 -13 -87 -30 -41 -16 -86 -30 -101
-30 -15 0 -37 -4 -50 -9 -37 -14 -141 6 -206 39 -33 16 -67 30 -75 30 -9 0
-31 9 -50 20 -18 11 -58 28 -89 39 -30 10 -63 23 -74 29 -48 25 -191 90 -211
97 -14 4 -26 17 -29 33 -4 15 -13 36 -20 47 -8 11 -14 29 -14 40 0 12 -6 27
-12 33 -13 13 -36 108 -37 152 -1 14 15 56 34 93 33 66 34 71 23 123 -8 41 -8
57 2 69 10 12 9 20 -5 41 -13 20 -16 38 -11 74 4 32 1 59 -9 83 -18 43 -20
150 -3 176 9 15 9 25 0 46 -18 38 -15 80 8 117 11 18 20 40 20 49 0 23 28 45
80 63 25 8 47 21 49 28 2 7 20 29 40 48 39 37 103 60 171 60 22 0 54 9 71 19
27 16 36 18 52 8 11 -7 29 -17 40 -24z"/>
<path d="M23960 10570 c-19 -4 -120 -10 -225 -13 -104 -3 -199 -9 -210 -13
-11 -4 -32 -18 -47 -32 -23 -21 -36 -25 -83 -23 -50 1 -59 -2 -83 -27 -15 -16
-36 -46 -47 -66 -17 -32 -18 -38 -5 -46 8 -5 25 -10 38 -10 13 0 37 -7 54 -16
20 -10 43 -14 67 -10 75 12 206 9 247 -7 29 -11 66 -14 129 -11 89 4 90 4 180
-41 51 -25 99 -45 108 -45 18 0 123 -34 172 -56 45 -20 148 -44 188 -44 53 0
75 -12 153 -83 104 -97 162 -140 229 -171 33 -16 79 -46 102 -67 23 -21 54
-41 70 -44 15 -3 48 -17 73 -31 25 -14 78 -40 118 -59 81 -38 182 -97 225
-132 16 -13 59 -32 97 -44 38 -11 86 -34 105 -49 20 -16 54 -31 76 -35 26 -5
45 -15 57 -32 30 -43 286 -300 312 -313 14 -7 52 -42 84 -78 33 -35 77 -75 98
-88 21 -14 44 -36 50 -49 6 -14 18 -27 28 -30 21 -7 45 -69 45 -121 1 -25 9
-52 23 -71 12 -17 22 -41 22 -54 0 -12 10 -33 21 -45 12 -13 25 -40 29 -61 4
-21 21 -78 38 -128 17 -49 36 -120 42 -157 12 -68 27 -117 46 -153 6 -11 14
-37 18 -58 4 -23 21 -54 43 -77 30 -34 36 -50 46 -117 5 -43 18 -90 28 -104
12 -17 20 -54 25 -115 3 -49 10 -94 15 -99 22 -29 26 -62 13 -100 -11 -35 -11
-49 3 -110 9 -38 19 -74 23 -78 4 -5 5 -40 2 -78 -4 -61 -1 -77 21 -122 26
-53 39 -159 23 -186 -18 -29 -33 -107 -24 -130 9 -25 -5 -78 -29 -116 -7 -11
-13 -30 -13 -43 0 -13 -4 -31 -9 -40 -5 -9 -12 -39 -15 -67 -12 -99 -42 -250
-54 -272 -6 -12 -9 -28 -6 -36 3 -9 -1 -26 -10 -39 -15 -24 -25 -112 -13 -124
15 -15 6 -44 -18 -60 -19 -13 -25 -25 -25 -54 0 -28 -6 -43 -23 -57 -34 -26
-48 -57 -41 -91 5 -23 -1 -35 -30 -67 -20 -21 -36 -42 -36 -46 0 -10 -55 -40
-67 -37 -13 3 -53 -13 -53 -21 0 -5 -13 -14 -30 -21 -24 -10 -30 -18 -30 -44
0 -22 -10 -44 -33 -69 -28 -32 -38 -37 -78 -37 -40 0 -50 -5 -92 -46 -27 -25
-63 -54 -81 -63 -48 -23 -128 -120 -123 -148 3 -14 -4 -30 -18 -43 -15 -14
-21 -29 -18 -41 10 -35 -16 -68 -61 -77 -23 -5 -40 -13 -39 -18 1 -5 4 -21 8
-34 8 -35 -13 -59 -56 -65 -20 -2 -48 -11 -63 -19 -20 -10 -37 -11 -64 -5 -87
21 -89 22 -110 1 -10 -10 -42 -32 -69 -47 -28 -15 -56 -37 -63 -50 -8 -16 -25
-25 -53 -29 -40 -7 -83 -33 -131 -81 -26 -26 -106 -69 -146 -78 -14 -4 -57
-37 -96 -75 -47 -45 -87 -74 -120 -87 -27 -10 -52 -23 -56 -28 -7 -12 -96 -47
-119 -47 -9 0 -28 -9 -42 -20 -14 -11 -36 -20 -50 -20 -13 0 -41 -11 -62 -26
-21 -14 -56 -29 -79 -33 -22 -4 -75 -28 -117 -53 -42 -25 -92 -48 -112 -52
-20 -4 -50 -18 -66 -31 -16 -14 -32 -25 -36 -25 -3 0 -32 -12 -63 -27 -42 -19
-65 -38 -85 -70 -32 -48 -30 -48 -155 -33 -80 9 -85 8 -140 -19 -53 -27 -74
-34 -145 -46 -46 -9 -100 -42 -137 -85 -19 -22 -39 -40 -45 -40 -21 0 -91 -43
-122 -76 -28 -29 -35 -32 -62 -24 -29 8 -147 -2 -158 -14 -3 -3 -18 1 -34 10
-33 17 -98 7 -124 -20 -9 -9 -33 -16 -53 -16 -20 0 -45 -7 -56 -15 -10 -8 -56
-26 -102 -40 -46 -14 -86 -30 -89 -35 -3 -4 -24 -11 -48 -15 -23 -4 -64 -16
-92 -26 -27 -10 -72 -20 -100 -23 -32 -4 -65 -16 -91 -35 -30 -20 -46 -26 -57
-19 -9 5 -58 11 -109 14 -80 4 -98 2 -131 -14 -28 -15 -45 -18 -72 -12 -38 9
-61 -3 -67 -35 -5 -28 -52 -48 -94 -41 -19 4 -34 11 -34 16 0 17 -40 21 -72 6
-18 -8 -46 -14 -61 -14 -15 0 -36 -7 -45 -16 -29 -25 -74 -30 -117 -12 -27 12
-52 15 -83 10 -28 -4 -52 -2 -68 6 -20 11 -37 10 -106 -5 -46 -11 -96 -27
-113 -36 -25 -15 -58 -17 -209 -17 -161 0 -183 2 -215 20 -64 37 -196 30 -316
-16 -26 -10 -76 -15 -144 -16 -100 0 -106 -1 -133 -27 -24 -23 -32 -25 -60
-17 -18 6 -69 9 -113 8 -75 -2 -105 -5 -263 -19 -53 -5 -66 -2 -91 16 -28 21
-33 21 -108 9 -43 -7 -127 -14 -188 -14 -98 -2 -119 -5 -195 -34 -93 -36 -128
-36 -206 -1 -35 16 -52 17 -139 9 -54 -6 -115 -7 -136 -4 -26 5 -44 2 -55 -7
-12 -10 -41 -13 -98 -12 -45 2 -168 3 -274 3 -117 0 -201 4 -213 10 -11 6 -38
12 -59 13 -22 1 -40 4 -40 8 0 20 -59 28 -135 19 -44 -5 -118 -15 -165 -20
-47 -6 -117 -19 -156 -28 -59 -15 -75 -16 -100 -5 -16 6 -47 12 -69 13 -22 0
-55 9 -73 20 -41 25 -107 26 -147 1 -44 -26 -203 -27 -279 -1 -30 10 -65 17
-78 14 -82 -14 -116 -22 -135 -32 -12 -7 -31 -12 -43 -12 -12 0 -35 -8 -52
-18 -29 -17 -30 -16 -47 5 -27 32 -109 44 -216 32 -39 -5 -83 -5 -100 -1 -28
8 -49 6 -152 -18 -31 -7 -62 -6 -120 6 -75 16 -95 16 -252 -1 -25 -3 -74 2
-110 11 -46 10 -87 13 -133 9 -43 -5 -85 -2 -117 6 -36 9 -53 9 -63 1 -14 -11
-257 -6 -453 9 -5 1 -77 -4 -160 -9 -102 -7 -155 -7 -169 0 -11 6 -43 7 -80 3
-84 -9 -265 -6 -361 6 -44 5 -127 14 -185 19 -58 6 -136 14 -175 18 -38 5 -86
5 -105 0 -54 -12 -159 -9 -224 7 -43 10 -65 11 -79 3 -12 -6 -43 -7 -81 -3
-34 4 -101 8 -151 9 -49 0 -95 4 -100 8 -20 13 -140 19 -168 9 -24 -10 -34 -7
-80 25 -50 34 -54 36 -118 30 -36 -3 -73 -8 -82 -12 -9 -3 -32 -1 -50 5 -19 7
-71 13 -115 16 -55 2 -93 10 -121 24 -47 24 -68 25 -171 7 -61 -11 -84 -11
-124 -1 -32 9 -59 10 -81 4 -26 -7 -45 -5 -86 11 -33 13 -96 25 -168 31 -64 6
-132 17 -151 25 -28 12 -92 16 -286 18 -207 3 -256 6 -282 20 -23 12 -59 16
-140 16 -70 0 -127 6 -162 16 -39 12 -67 14 -100 8 -25 -4 -90 -8 -145 -7 -84
0 -110 5 -160 26 -70 29 -235 60 -303 56 -26 -1 -67 3 -91 10 -23 7 -86 14
-140 17 -162 7 -209 12 -243 23 -19 6 -56 10 -83 9 -57 -2 -164 14 -245 37
-30 8 -70 15 -90 15 -46 0 -153 26 -191 46 -19 10 -64 16 -127 18 -76 2 -106
8 -137 25 -22 11 -53 21 -68 21 -16 0 -72 9 -125 19 -54 11 -126 23 -162 26
-36 4 -69 11 -75 16 -5 5 -27 9 -48 9 -22 0 -61 11 -89 25 -27 14 -63 25 -79
25 -16 0 -48 9 -72 20 -76 35 -159 60 -203 60 -63 0 -162 24 -254 60 -57 23
-121 43 -200 64 -25 6 -56 17 -69 25 -14 8 -47 19 -75 26 -101 25 -352 119
-392 146 -23 16 -67 38 -98 49 -31 12 -77 34 -102 48 -25 15 -67 39 -93 54
-25 15 -71 39 -101 53 -30 14 -71 34 -90 44 -19 11 -60 27 -91 35 -31 9 -65
26 -74 36 -10 12 -31 20 -48 20 -16 0 -51 13 -76 28 -25 15 -70 38 -100 50
-30 12 -117 64 -195 115 -78 52 -153 101 -168 110 -15 9 -35 30 -44 47 -10 16
-32 36 -49 44 -82 39 -171 140 -241 272 -14 27 -42 61 -61 74 -51 35 -210 193
-217 217 -4 11 -15 28 -26 38 -11 10 -20 26 -20 35 0 9 -11 27 -25 40 -14 13
-25 33 -25 45 0 11 -4 25 -9 31 -8 8 -35 54 -59 100 -13 26 -32 87 -32 105 0
9 -11 26 -25 39 -14 13 -25 31 -25 41 0 10 -4 20 -9 23 -16 10 -91 174 -91
199 0 15 -9 41 -20 59 -11 18 -20 42 -20 53 0 11 -9 34 -20 50 -11 17 -20 43
-20 58 0 16 -5 37 -11 48 -16 31 -63 207 -75 284 -3 22 -11 67 -16 100 -17 95
-12 230 9 263 13 20 18 42 16 82 -4 70 -4 75 2 262 5 176 20 317 35 332 5 5
10 46 10 91 0 86 22 189 45 215 8 9 15 26 15 38 0 12 4 30 10 40 28 51 69 144
75 170 7 34 40 82 56 82 6 0 36 21 68 48 63 52 137 106 187 137 96 60 140 85
152 85 7 0 48 17 91 39 43 21 96 44 117 51 21 7 51 22 67 32 15 11 53 23 85
28 67 10 113 24 163 51 20 10 50 19 66 19 16 0 44 11 63 25 19 14 42 25 53 25
25 0 58 19 79 45 9 12 39 28 65 35 26 7 71 26 99 41 28 16 66 29 84 29 18 0
47 8 64 19 17 10 60 22 96 25 36 4 85 16 109 27 24 11 63 22 85 26 23 3 59 15
81 26 26 13 73 23 132 28 51 4 105 14 120 22 51 27 175 42 418 51 55 2 115 11
155 24 140 45 172 53 191 47 11 -4 42 1 69 10 38 13 60 14 94 7 42 -9 143 -1
166 13 6 4 84 11 173 16 89 5 230 13 312 19 83 6 171 12 197 13 25 2 53 9 61
16 37 30 62 131 37 146 -6 3 -10 16 -10 29 0 34 -38 62 -108 80 -80 20 -158
20 -197 0 -16 -8 -63 -17 -105 -20 -105 -7 -125 -7 -207 1 -46 5 -88 3 -115
-4 -24 -6 -88 -14 -143 -17 -192 -10 -225 -13 -263 -22 -20 -5 -50 -10 -67
-11 -16 0 -46 -6 -65 -13 -20 -7 -82 -11 -145 -10 -78 1 -117 -3 -138 -13 -16
-8 -39 -12 -51 -10 -11 3 -54 -6 -93 -20 -40 -14 -92 -25 -115 -25 -23 0 -55
-4 -72 -9 -67 -20 -173 -40 -201 -39 -16 0 -65 -5 -108 -12 -60 -10 -87 -20
-120 -45 -47 -37 -159 -70 -210 -62 -46 7 -224 -30 -256 -54 -26 -19 -137 -44
-242 -56 -33 -3 -56 -13 -78 -34 -18 -16 -43 -29 -57 -29 -13 0 -41 -15 -63
-35 -21 -19 -48 -35 -59 -35 -37 0 -151 -58 -196 -100 -24 -22 -48 -40 -53
-40 -6 0 -39 -9 -74 -21 -43 -13 -80 -19 -112 -16 -39 3 -54 0 -75 -17 -43
-34 -107 -73 -148 -91 -21 -9 -48 -24 -59 -35 -11 -10 -37 -25 -57 -34 -30
-12 -38 -20 -38 -40 0 -21 -7 -27 -37 -36 -55 -15 -117 -72 -118 -107 0 -18
-5 -27 -14 -25 -16 3 -51 -26 -51 -42 0 -18 -37 -87 -59 -110 -11 -12 -25 -43
-32 -71 -6 -27 -17 -60 -25 -71 -7 -12 -18 -50 -24 -85 -7 -35 -21 -85 -33
-111 -14 -33 -18 -58 -14 -84 5 -28 1 -46 -15 -71 -17 -28 -19 -43 -14 -84 5
-34 2 -64 -9 -95 -8 -25 -15 -56 -15 -67 0 -203 -2 -361 -5 -397 -20 -249 -23
-457 -6 -498 6 -15 15 -47 21 -72 10 -42 16 -79 38 -235 4 -33 16 -74 25 -92
9 -18 17 -41 17 -52 0 -11 16 -53 36 -93 33 -67 51 -118 73 -204 5 -18 24 -56
44 -85 19 -30 45 -85 57 -124 23 -76 52 -136 109 -224 41 -62 56 -98 65 -152
4 -20 20 -56 36 -80 16 -24 30 -48 30 -53 0 -6 11 -21 24 -35 13 -15 44 -57
70 -96 25 -38 61 -86 79 -105 19 -19 49 -55 68 -80 41 -55 112 -125 151 -148
16 -9 38 -32 49 -50 30 -52 122 -152 139 -152 19 0 59 -35 94 -83 28 -38 109
-87 145 -87 11 0 26 -7 33 -16 37 -46 59 -64 77 -64 12 0 58 -21 103 -46 46
-25 104 -49 130 -53 45 -7 65 -19 163 -91 22 -16 56 -34 75 -41 181 -58 236
-83 271 -120 31 -33 42 -39 78 -39 27 0 61 -10 99 -31 74 -41 126 -67 242
-124 52 -26 102 -53 111 -61 8 -8 22 -14 30 -14 27 -1 104 -41 136 -72 28 -27
41 -32 110 -38 59 -6 100 -17 172 -49 51 -23 99 -40 105 -38 6 3 27 -2 46 -10
45 -19 162 -49 226 -59 27 -4 67 -14 89 -24 22 -9 48 -14 57 -12 10 2 37 -5
60 -16 46 -22 176 -48 199 -40 8 3 41 -9 74 -25 33 -17 78 -31 100 -33 75 -3
140 -16 195 -39 97 -39 234 -80 275 -81 68 -2 148 -15 187 -30 27 -10 74 -13
168 -10 123 3 131 2 162 -20 23 -17 41 -23 65 -20 22 3 47 -3 77 -20 34 -19
56 -24 105 -23 34 1 64 6 67 10 9 16 56 10 91 -12 34 -21 83 -20 83 1 0 19 34
10 62 -17 32 -31 85 -42 206 -42 59 -1 97 -7 130 -21 62 -25 113 -38 192 -45
36 -4 72 -9 80 -12 8 -3 33 -7 55 -8 22 -2 65 -8 95 -14 35 -7 66 -7 85 -2 17
5 70 11 119 14 70 4 93 2 104 -10 11 -11 29 -13 71 -9 47 5 67 2 126 -23 47
-19 77 -26 90 -21 31 12 137 11 151 -1 23 -19 126 -32 237 -29 87 1 119 6 166
25 59 24 87 24 126 -1 11 -7 40 -16 65 -19 25 -4 66 -16 91 -27 38 -17 54 -19
90 -11 27 6 58 6 79 0 19 -5 67 -12 105 -16 39 -3 75 -10 82 -14 22 -14 108
-17 204 -7 91 9 95 8 129 -15 25 -17 60 -27 120 -35 47 -6 110 -18 141 -26 31
-7 70 -11 86 -8 16 3 79 1 140 -5 94 -10 114 -9 139 4 38 20 47 19 102 -9 68
-34 101 -39 152 -21 35 12 50 13 78 4 26 -9 53 -8 107 0 40 7 84 9 98 6 13 -4
46 1 71 9 63 22 94 20 115 -5 17 -21 18 -21 50 -4 22 11 42 14 60 10 55 -15
168 -28 228 -26 34 1 64 -3 68 -9 9 -15 41 -12 54 4 12 14 46 11 68 -6 7 -5
16 -7 20 -5 5 3 30 1 55 -4 29 -5 73 -4 115 2 38 6 82 10 98 10 96 -2 177 -9
227 -21 67 -15 88 -5 88 41 0 35 5 38 81 45 56 5 64 3 88 -20 23 -22 40 -27
107 -32 48 -4 86 -13 96 -22 20 -16 113 -11 132 8 5 5 30 10 54 10 38 0 50 -5
79 -37 33 -34 37 -36 67 -25 18 7 42 12 53 12 46 0 54 10 47 56 -6 40 -4 44
15 44 13 0 30 -14 45 -38 13 -20 39 -50 57 -67 36 -33 82 -38 169 -17 33 7 49
7 59 -1 9 -8 58 -12 135 -12 82 0 129 -5 145 -14 20 -11 31 -11 65 0 23 8 68
15 101 15 190 4 243 13 279 49 14 14 18 14 47 -2 108 -61 131 -68 161 -43 17
13 23 29 23 61 0 24 4 49 8 56 14 22 62 24 106 4 38 -16 41 -20 22 -26 -15 -4
-21 -15 -21 -34 0 -53 45 -68 78 -26 24 30 45 32 73 4 16 -16 31 -20 72 -18
29 2 62 0 74 -5 31 -10 123 22 123 43 0 25 20 41 39 32 21 -11 50 -8 80 8 19
11 29 10 60 -2 20 -9 63 -17 97 -19 42 -3 70 -11 91 -26 19 -13 46 -22 69 -22
21 0 62 -10 92 -22 47 -20 56 -21 90 -8 20 7 56 12 79 11 23 -1 44 3 48 9 10
16 111 12 125 -5 8 -10 20 -13 34 -9 11 4 43 8 71 9 198 10 300 20 363 36 40
11 77 17 82 14 5 -3 7 -19 4 -34 -7 -32 1 -40 55 -52 44 -10 87 6 95 36 4 15
8 17 18 7 16 -16 37 -15 72 3 45 24 71 19 100 -20 29 -38 52 -43 95 -20 22 11
37 12 62 5 54 -16 116 -12 157 10 28 15 47 19 79 14 36 -5 49 -2 88 24 28 19
66 33 98 37 64 9 126 35 177 75 42 33 71 38 90 15 6 -8 15 -14 18 -13 9 2 120
-12 149 -19 16 -3 30 3 47 22 14 15 32 25 39 22 8 -3 20 -1 27 3 8 5 25 3 42
-6 23 -12 36 -13 68 -3 30 9 46 9 65 1 21 -10 26 -9 35 8 12 22 40 26 57 9 9
-9 20 -9 43 0 34 12 54 7 47 -12 -14 -40 40 -59 100 -36 15 6 52 13 82 15 29
3 63 10 74 16 11 6 54 12 96 15 41 2 79 7 85 11 6 5 30 14 54 22 37 12 53 11
119 -3 45 -10 93 -28 115 -44 39 -26 39 -26 121 -14 134 20 176 30 202 47 13
9 28 13 34 10 5 -3 35 -7 67 -7 43 -1 60 2 69 15 7 9 17 16 22 16 6 0 16 6 22
14 7 8 26 18 42 21 24 6 33 2 50 -19 25 -32 69 -34 122 -6 42 23 64 25 118 9
31 -10 47 -9 91 6 30 11 75 17 105 16 59 -2 101 15 132 55 19 24 27 26 112 29
79 3 96 7 131 30 24 16 67 32 104 38 50 9 65 15 73 34 6 13 22 28 36 33 14 5
25 14 25 20 0 16 43 22 73 11 23 -9 37 -7 79 15 28 14 71 29 97 34 61 11 135
32 141 39 18 23 98 74 174 111 66 32 101 44 140 45 29 1 68 9 87 18 65 29 212
69 237 64 18 -3 33 3 50 20 23 23 28 24 68 14 37 -9 53 -8 108 10 57 19 70 28
111 80 37 47 53 60 83 65 20 3 57 17 82 30 44 23 106 45 165 59 16 3 47 20 69
36 25 18 52 29 72 29 48 0 83 17 94 45 6 15 20 27 37 30 15 3 39 12 53 20 14
8 47 27 74 42 27 15 60 38 73 50 36 34 59 43 91 37 34 -7 76 12 111 50 14 14
33 26 42 26 21 0 85 34 114 60 11 11 42 29 68 40 63 28 117 76 117 104 0 13 9
31 20 41 20 18 23 18 68 2 26 -9 52 -17 57 -17 10 0 44 27 105 83 14 13 37 31
53 41 15 10 27 27 27 37 0 10 9 24 21 31 11 7 35 34 54 59 21 30 43 48 61 52
28 6 114 79 114 96 0 4 12 21 27 37 29 30 53 69 53 86 0 5 9 19 21 31 12 12
25 34 31 48 5 15 27 41 49 59 22 17 50 49 64 70 13 20 34 40 47 43 13 4 45 36
73 74 70 95 84 111 109 117 32 8 137 121 130 139 -3 10 8 26 31 44 34 26 105
154 105 189 0 40 25 118 46 143 13 16 24 42 24 58 0 16 7 38 15 49 8 10 15 37
15 59 0 23 9 58 20 80 11 22 20 46 20 54 0 8 6 37 14 65 15 52 34 204 53 411
15 168 -2 375 -43 520 -7 28 -15 94 -18 147 -2 54 -8 103 -12 109 -4 6 -6 80
-6 164 0 149 0 154 -24 176 -13 12 -24 31 -24 41 0 10 -10 32 -22 49 -12 16
-24 47 -25 67 -10 123 -16 153 -32 165 -22 15 -33 45 -20 53 7 4 6 10 -1 19
-6 7 -15 39 -20 71 -8 50 -16 63 -53 98 -48 45 -52 53 -62 138 -3 32 -11 60
-16 63 -5 4 -9 26 -9 50 0 32 -11 67 -40 124 -22 43 -40 86 -40 94 0 8 -11 22
-25 31 -14 9 -25 26 -25 37 0 12 -9 32 -20 46 -11 14 -20 38 -20 53 0 28 -16
47 -63 70 -31 15 -67 71 -67 104 0 12 -5 27 -11 33 -6 6 -13 26 -14 45 -2 18
-3 38 -4 45 -2 23 -33 43 -66 43 -28 0 -41 8 -72 46 -37 44 -86 82 -199 151
-29 18 -72 53 -96 78 -23 24 -47 45 -51 45 -14 0 -87 73 -87 87 0 20 -61 59
-122 78 -32 10 -58 22 -58 26 0 5 -11 9 -23 9 -27 0 -51 23 -62 58 -7 25 -37
41 -130 67 -96 28 -102 31 -108 63 -5 26 -19 38 -89 76 -46 25 -98 56 -117 71
-29 20 -46 25 -97 25 -82 0 -112 12 -129 54 -16 37 -31 46 -76 46 -17 0 -45
11 -63 25 -18 14 -42 25 -52 25 -11 0 -24 10 -29 22 -7 14 -21 22 -45 25 -19
2 -60 16 -90 32 -30 15 -93 36 -140 45 -47 10 -95 22 -108 27 -13 5 -37 9 -55
9 -48 0 -123 26 -162 56 -28 21 -38 24 -50 14 -8 -6 -24 -9 -37 -5 -43 12 -53
13 -88 5z"/>
<path d="M20493 10161 c-17 -11 -45 -40 -62 -65 -18 -25 -36 -46 -40 -46 -4 0
-24 -16 -44 -35 -27 -26 -52 -39 -99 -50 -71 -16 -142 -61 -146 -92 -2 -16 6
-26 33 -39 34 -16 39 -16 71 0 19 9 52 16 73 16 21 0 44 6 50 14 6 7 39 30 74
51 34 21 83 59 109 85 55 55 96 144 77 166 -16 20 -58 17 -96 -5z"/>
<path d="M33965 9541 c-27 -9 -79 -30 -115 -47 -41 -20 -81 -32 -109 -32 -24
-1 -49 -6 -54 -11 -6 -6 -36 -11 -67 -11 -32 0 -71 -7 -88 -15 -62 -32 -436
-41 -587 -16 -42 7 -66 18 -81 34 -27 32 -80 57 -118 57 -30 0 -119 -25 -203
-56 -39 -14 -43 -19 -43 -50 0 -41 18 -80 52 -110 37 -35 126 -75 186 -84 30
-5 59 -14 62 -20 4 -6 31 -18 61 -26 30 -9 78 -22 108 -30 107 -30 306 -19
416 23 22 9 88 19 146 23 118 8 164 26 187 73 7 15 25 30 40 33 15 4 61 25
102 48 41 22 93 49 116 60 45 24 114 95 114 119 0 21 -39 57 -59 56 -9 -1 -38
-8 -66 -18z"/>
<path d="M21315 8588 c-22 -13 -53 -37 -70 -54 -16 -16 -47 -43 -67 -58 -36
-27 -36 -28 -33 -85 4 -57 6 -60 71 -126 75 -75 128 -115 154 -115 10 0 29 -9
43 -20 34 -27 61 -25 77 4 7 14 26 30 43 37 25 10 37 10 76 -6 25 -10 73 -22
106 -27 33 -5 94 -20 135 -33 41 -14 108 -27 149 -31 42 -4 102 -18 135 -32
34 -13 76 -24 95 -24 18 1 46 -5 63 -14 16 -8 36 -13 43 -11 26 11 246 -65
309 -107 28 -18 100 -39 166 -50 37 -5 100 -26 153 -50 17 -8 49 -20 70 -26
21 -6 50 -22 65 -34 15 -13 42 -31 60 -42 34 -19 52 -60 52 -119 0 -16 12 -57
26 -90 54 -127 74 -191 73 -234 0 -26 -2 -102 -4 -171 -2 -69 -4 -139 -4 -156
-1 -25 -23 -53 -126 -158 -69 -71 -125 -132 -125 -137 0 -17 -45 -49 -68 -49
-36 0 -62 -18 -62 -44 0 -25 -17 -36 -54 -36 -13 0 -35 -9 -49 -20 -14 -11
-32 -20 -40 -20 -20 0 -30 -45 -15 -69 18 -30 3 -36 -38 -16 -26 12 -52 16
-88 12 -29 -2 -66 1 -89 9 -34 12 -41 11 -70 -6 -64 -38 -97 -52 -112 -46 -8
3 -23 -3 -33 -14 -10 -11 -41 -23 -79 -29 -34 -5 -71 -15 -82 -20 -11 -6 -40
-11 -66 -11 -30 0 -58 -8 -83 -23 -56 -34 -92 -48 -147 -57 -27 -5 -81 -14
-118 -20 -63 -11 -70 -10 -90 8 -37 33 -45 33 -86 7 -23 -14 -49 -25 -58 -25
-10 0 -29 -7 -43 -15 -72 -41 -92 -40 -115 5 -20 39 -61 47 -91 19 -23 -21
-34 -22 -90 -4 -16 5 -31 -2 -58 -26 -37 -32 -37 -32 -72 -16 -48 23 -77 21
-104 -8 -13 -14 -34 -25 -46 -25 -24 0 -86 31 -117 58 -16 14 -21 14 -53 -1
-19 -9 -56 -17 -81 -17 -34 0 -53 -6 -70 -22 -21 -20 -27 -21 -73 -10 -56 13
-84 6 -115 -28 -30 -34 -56 -39 -117 -25 -46 10 -60 10 -89 -2 -64 -27 -114
-42 -167 -49 -32 -4 -65 -16 -80 -28 -15 -12 -40 -30 -55 -40 -28 -17 -29 -17
-68 10 -32 22 -42 24 -54 14 -8 -7 -21 -10 -29 -7 -7 3 -59 -6 -116 -19 -56
-13 -118 -24 -138 -24 -21 0 -52 -4 -71 -10 -25 -7 -40 -6 -62 5 -15 8 -51 15
-79 15 -27 0 -50 4 -50 9 0 17 -67 19 -152 4 -92 -16 -121 -32 -137 -76 -13
-33 -49 -36 -75 -8 -26 28 -67 34 -117 17 -62 -22 -79 -20 -132 15 -46 30 -48
31 -96 18 -47 -12 -50 -11 -81 14 -38 32 -58 34 -112 6 -36 -19 -45 -20 -84
-9 -24 7 -53 10 -64 7 -12 -3 -34 -2 -51 3 -20 6 -46 4 -80 -6 -47 -14 -52
-14 -82 5 -29 18 -40 19 -107 10 -41 -5 -92 -7 -112 -3 -21 3 -46 0 -59 -6
-12 -7 -36 -14 -53 -16 -17 -3 -47 -7 -66 -11 -47 -8 -73 -5 -86 13 -7 8 -29
14 -58 14 -31 0 -63 9 -94 25 -54 29 -72 31 -110 11 -26 -13 -89 -19 -178 -17
-23 1 -53 -3 -67 -8 -18 -7 -41 -5 -82 6 -45 13 -61 14 -76 5 -26 -17 -43 -15
-89 9 -44 23 -48 34 -24 60 14 16 13 19 -18 43 -47 35 -155 44 -189 15 -25
-21 -37 -23 -93 -10 -27 7 -60 5 -110 -5 -80 -17 -92 -16 -196 21 -96 34 -163
38 -168 10 -8 -39 -48 -47 -61 -12 -12 31 -41 54 -79 62 -23 5 -33 3 -38 -8
-5 -15 -79 -33 -168 -41 -41 -3 -53 0 -71 18 -12 12 -24 27 -26 34 -2 7 -34
20 -71 31 -38 10 -85 29 -105 43 -62 41 -214 65 -421 67 -58 0 -113 6 -125 13
-21 11 -49 12 -257 5 -95 -2 -135 -18 -127 -48 7 -27 -13 -23 -52 11 -37 33
-89 47 -118 32 -22 -12 -182 -4 -200 11 -7 5 -13 18 -13 28 0 21 -32 41 -53
33 -8 -3 -56 -6 -106 -7 -69 -1 -96 -6 -104 -17 -8 -10 -33 -16 -72 -18 -76
-3 -115 -11 -115 -23 0 -17 -29 -9 -40 10 -14 27 -72 61 -104 61 -15 0 -49
-11 -77 -25 -54 -28 -122 -35 -157 -16 -11 6 -36 11 -54 11 -26 0 -44 10 -78
41 -37 35 -48 40 -74 34 -67 -13 -164 -24 -226 -25 -49 0 -76 6 -108 22 -42
22 -44 23 -57 4 -8 -10 -16 -24 -18 -29 -6 -18 -37 1 -37 23 0 28 -11 31 -136
35 -60 1 -126 8 -147 15 -22 6 -41 9 -44 6 -3 -3 -20 2 -37 11 -26 14 -59 16
-196 14 -137 -2 -173 1 -210 15 -27 11 -74 18 -120 18 -61 1 -86 6 -134 30
-62 31 -81 33 -366 38 -121 3 -127 4 -183 36 -57 32 -58 32 -87 16 -26 -16
-33 -16 -71 -4 -38 13 -44 12 -80 -8 -42 -24 -66 -21 -75 12 -4 17 -19 25 -77
39 -40 9 -81 17 -93 17 -11 0 -26 6 -33 13 -8 8 -44 11 -119 10 -100 -2 -108
-1 -140 23 -29 22 -39 25 -81 19 -31 -4 -51 -3 -56 4 -3 6 -25 11 -47 11 -64
0 -166 19 -248 47 -64 21 -86 24 -146 19 -50 -5 -80 -3 -105 8 -19 7 -67 17
-107 21 -50 5 -90 16 -130 36 -31 16 -88 37 -127 46 -123 28 -259 75 -295 102
-19 15 -51 33 -70 41 -38 15 -203 169 -225 211 -26 49 -53 163 -44 187 5 12 4
33 -1 47 -7 19 -4 37 11 72 11 27 27 65 34 86 7 20 30 64 51 96 34 52 49 64
119 100 50 25 101 42 135 46 30 4 75 13 100 21 25 8 73 13 110 11 36 -2 82 0
102 5 20 4 81 10 135 13 83 5 103 9 135 31 23 17 44 24 56 20 11 -4 66 -1 123
5 57 6 127 13 154 15 28 1 86 7 130 13 44 6 110 15 146 20 37 4 71 11 77 15 9
6 126 14 302 21 36 1 83 6 105 11 22 4 47 8 55 8 8 1 25 22 37 49 30 62 35
186 10 234 -18 35 -51 58 -67 48 -6 -4 -45 1 -86 11 -86 19 -147 11 -220 -28
-34 -18 -60 -21 -217 -26 -127 -3 -181 -1 -192 8 -16 13 -40 3 -69 -29 -12
-13 -31 -21 -52 -21 -18 0 -55 -7 -80 -16 -38 -13 -71 -15 -163 -10 -64 4
-132 7 -151 8 -82 3 -178 -21 -235 -58 -24 -15 -32 -16 -68 -5 -110 32 -117
32 -184 -5 -37 -20 -73 -34 -90 -32 -16 1 -42 -5 -58 -14 -17 -9 -42 -19 -58
-23 -15 -3 -36 -14 -46 -24 -10 -10 -43 -37 -72 -59 -67 -49 -119 -99 -119
-113 0 -6 -8 -23 -19 -37 -10 -15 -28 -65 -41 -112 -12 -47 -28 -92 -35 -100
-32 -38 -55 -101 -55 -154 0 -30 -4 -57 -9 -60 -10 -6 -22 -63 -23 -111 -2
-50 21 -197 33 -212 7 -8 12 -29 11 -48 -1 -19 3 -37 8 -40 6 -3 10 -14 10
-23 0 -9 6 -29 14 -44 8 -14 19 -42 26 -62 6 -20 16 -36 21 -36 5 0 13 -10 18
-23 5 -12 33 -55 62 -94 30 -40 62 -84 73 -99 10 -14 39 -35 65 -46 25 -11 53
-26 61 -33 17 -14 149 -55 178 -55 11 0 36 -7 56 -15 20 -9 41 -13 46 -10 6 3
51 -8 102 -24 50 -17 102 -31 115 -31 13 0 38 -7 54 -16 19 -9 65 -16 124 -19
51 -2 103 -9 115 -15 13 -7 50 -13 84 -14 46 -2 71 -8 101 -28 29 -18 59 -27
106 -31 36 -3 96 -17 134 -31 39 -15 88 -26 117 -26 27 0 59 -5 71 -11 11 -7
68 -13 126 -14 79 -1 122 -8 170 -24 35 -12 70 -20 78 -17 8 3 40 0 71 -8 138
-34 199 -46 228 -46 18 0 56 -11 85 -24 33 -15 66 -23 84 -20 17 2 49 7 71 10
26 4 51 1 65 -7 14 -7 67 -13 130 -15 58 -1 114 -6 125 -12 28 -16 128 -42
161 -42 15 0 47 7 70 15 59 20 169 11 248 -20 67 -27 159 -33 213 -14 25 9 42
8 78 -5 26 -9 50 -13 54 -11 4 3 25 -1 46 -9 22 -7 66 -16 99 -20 103 -13 119
-15 167 -21 26 -3 75 -17 108 -31 68 -27 210 -39 283 -22 31 7 52 4 98 -12 33
-11 70 -20 83 -20 12 0 37 -5 54 -11 23 -8 37 -7 59 4 24 13 48 14 143 6 63
-6 140 -14 171 -19 30 -6 77 -10 105 -10 27 0 67 -5 89 -11 54 -14 220 -19
270 -9 30 7 46 5 62 -5 12 -8 44 -14 75 -14 71 1 222 -16 280 -32 39 -10 55
-10 105 4 60 17 168 15 187 -4 5 -5 48 -6 95 -3 74 5 93 3 135 -15 30 -13 68
-21 95 -20 25 1 64 -5 86 -14 28 -10 83 -15 179 -15 101 -1 144 -5 160 -15 12
-8 61 -25 109 -37 88 -21 170 -23 254 -5 22 5 47 2 74 -9 25 -10 53 -14 74
-10 21 4 44 0 64 -11 34 -17 164 -24 258 -13 29 3 76 1 105 -6 46 -10 60 -9
106 8 l53 19 24 -23 c22 -21 28 -22 67 -12 51 13 64 12 143 -12 188 -59 210
-63 280 -59 67 4 95 -1 196 -35 40 -13 52 -13 90 -1 29 9 85 14 164 13 128 -2
199 -12 255 -37 40 -17 178 -16 233 2 63 21 219 15 257 -10 14 -9 50 -20 80
-24 63 -8 61 -8 160 1 41 4 100 6 130 6 210 -7 280 -5 332 7 47 12 66 12 99 2
38 -12 43 -11 80 15 38 26 41 26 97 15 51 -11 62 -10 102 8 53 23 97 21 155
-9 21 -11 51 -20 66 -20 15 0 42 -6 60 -14 19 -7 55 -17 82 -20 41 -6 57 -3
112 23 41 20 81 31 108 31 34 0 48 6 66 26 18 21 27 24 49 18 15 -4 41 -7 57
-7 40 1 157 34 224 63 57 25 49 26 142 -13 22 -9 37 -6 79 11 29 12 72 22 96
22 24 0 63 6 86 14 24 8 88 18 142 22 55 3 115 13 133 20 31 13 36 12 73 -11
55 -35 91 -40 128 -21 18 9 44 17 59 17 66 2 285 9 368 12 61 2 101 9 123 21
19 10 36 15 40 12 3 -3 11 -1 18 5 8 7 22 6 45 -4 31 -12 41 -11 124 17 49 16
128 45 175 63 47 18 91 33 98 33 7 0 26 7 43 15 27 15 120 31 216 39 39 3 85
28 111 59 6 7 26 12 44 11 34 -3 126 26 162 51 11 8 38 15 60 15 28 0 73 16
151 55 62 31 130 58 151 62 65 9 148 59 167 99 17 35 49 54 92 54 31 0 139
101 158 148 8 21 33 52 56 70 23 18 41 37 41 42 0 5 11 21 24 35 14 15 22 33
20 40 -3 8 4 26 15 42 16 22 19 35 12 58 -9 34 3 78 30 113 12 16 16 33 13 51
-4 17 1 41 10 59 22 42 20 86 -6 158 -14 40 -19 67 -13 80 5 10 9 66 10 124 2
105 -5 137 -48 215 -6 11 -19 36 -30 56 -12 22 -42 51 -77 73 -65 41 -71 50
-77 119 -3 31 -12 56 -27 72 -13 14 -27 42 -30 63 -14 85 -17 96 -31 111 -8 9
-25 28 -37 42 -13 14 -41 31 -63 38 -22 8 -48 20 -57 28 -21 19 -147 44 -215
44 -76 -1 -100 11 -195 101 -22 21 -54 40 -73 44 -44 8 -105 -3 -128 -24 -15
-13 -26 -14 -78 -4 -33 6 -66 9 -74 6 -8 -3 -31 3 -52 14 -21 12 -55 23 -75
27 -21 3 -38 10 -38 15 0 5 -33 8 -72 7 -97 -2 -147 10 -183 43 -16 15 -53 33
-82 41 -45 11 -54 10 -77 -4 -21 -14 -44 -16 -131 -12 -88 4 -114 9 -161 32
-31 15 -64 38 -75 52 -28 35 -100 40 -154 9z"/>
<path d="M32709 7753 c-13 -7 -35 -14 -49 -17 -49 -11 -90 -44 -90 -74 0 -44
24 -68 108 -108 42 -20 86 -44 97 -54 22 -20 104 -50 136 -50 11 0 37 -9 57
-19 82 -42 203 -33 238 17 8 12 33 27 55 33 80 25 103 96 48 151 l-30 31 -127
-7 c-125 -6 -128 -6 -164 19 -21 14 -38 34 -38 44 0 36 -28 46 -125 46 -51 0
-102 -5 -116 -12z"/>
</g>
</svg>
