<?xml version="1.0" standalone="no"?>
<!DOCTYPE svg PUBLIC "-//W3C//DTD SVG 20010904//EN"
 "http://www.w3.org/TR/2001/REC-SVG-20010904/DTD/svg10.dtd">
<svg version="1.0" xmlns="http://www.w3.org/2000/svg"
 width="400px" height="400px" viewBox="0 0 3099.846489 1967.733031"
 preserveAspectRatio="xMidYMid meet">
<metadata>
Created by potrace 1.13, written by Peter Selinger 2001-2015
</metadata>
<g transform="translate(-292.813492,2224.727447) scale(0.100000,-0.100000)"
fill="#000000" stroke="none">
<path d="M5964 22235 c-29 -7 -62 -20 -75 -29 -13 -9 -29 -16 -36 -16 -8 0
-32 -12 -54 -27 l-40 -26 -117 27 c-64 15 -147 37 -184 48 -61 18 -74 19 -160
8 -51 -7 -151 -13 -223 -13 -83 0 -141 -5 -161 -13 -23 -10 -52 -11 -115 -4
-65 6 -90 5 -111 -6 -24 -12 -32 -12 -63 3 -33 16 -37 16 -64 0 -32 -19 -67
-22 -76 -7 -3 6 -21 10 -39 10 -19 0 -49 6 -67 14 -39 16 -195 14 -226 -2 -15
-8 -33 -7 -68 3 -67 21 -101 19 -124 -6 -19 -21 -63 -34 -146 -44 -22 -3 -52
-7 -66 -10 -14 -3 -45 1 -68 8 -56 20 -77 12 -95 -33 -8 -21 -24 -41 -36 -45
-11 -3 -20 -12 -20 -19 0 -7 -10 -26 -22 -42 -13 -15 -21 -38 -20 -51 2 -13
-7 -40 -20 -61 -13 -20 -24 -48 -25 -62 -1 -14 -7 -56 -13 -95 -22 -140 -22
-151 -6 -183 9 -17 16 -40 16 -51 0 -11 12 -33 26 -50 22 -27 24 -33 12 -53
-7 -13 -13 -63 -14 -118 -2 -117 -10 -193 -26 -236 -9 -26 -9 -36 1 -48 7 -8
10 -19 7 -24 -3 -5 -2 -22 3 -38 4 -17 2 -57 -5 -95 -7 -36 -12 -90 -11 -120
0 -30 -5 -71 -12 -91 -7 -21 -10 -47 -6 -58 3 -11 3 -25 -2 -32 -9 -15 -13
-54 -17 -189 -2 -53 -9 -105 -15 -117 -6 -12 -9 -33 -5 -46 3 -15 0 -33 -9
-47 -10 -13 -13 -33 -10 -54 3 -19 -1 -44 -11 -64 -9 -17 -14 -36 -11 -41 3
-4 7 -39 10 -77 2 -37 7 -85 11 -105 4 -24 3 -38 -4 -38 -17 0 -21 -27 -7 -54
8 -14 10 -26 6 -26 -4 0 -12 -10 -18 -22 -12 -28 -7 -219 7 -262 6 -20 7 -43
0 -64 -5 -20 -5 -43 0 -57 6 -16 5 -36 -2 -56 -8 -22 -8 -41 1 -67 9 -29 21
-188 21 -272 1 -60 -2 -100 -10 -142 -6 -31 -6 -74 1 -120 6 -40 11 -84 10
-98 -4 -103 -11 -152 -30 -192 -11 -26 -21 -54 -21 -63 0 -9 -7 -30 -16 -47
-10 -20 -14 -44 -11 -65 4 -19 1 -43 -6 -53 -8 -14 -8 -24 2 -43 16 -30 10
-72 -20 -121 -20 -35 -23 -53 -25 -175 -1 -111 -6 -147 -23 -194 -22 -58 -30
-135 -17 -156 4 -6 2 -21 -5 -33 -12 -23 -13 -60 -3 -134 4 -25 1 -51 -6 -65
-20 -36 -21 -427 -2 -457 9 -14 13 -35 9 -56 -3 -19 -1 -51 4 -72 11 -51 -5
-142 -38 -208 -14 -28 -27 -67 -30 -86 -2 -19 -10 -44 -17 -55 -17 -26 -26
-104 -16 -130 6 -15 1 -27 -17 -47 -23 -24 -24 -29 -13 -63 9 -28 9 -43 0 -65
-12 -29 -8 -279 4 -299 4 -5 2 -12 -4 -16 -22 -13 -19 -289 4 -332 18 -37 21
-102 5 -153 -5 -19 -12 -48 -14 -65 -2 -16 -8 -53 -13 -82 -5 -33 -5 -59 2
-70 9 -16 9 -55 2 -139 -2 -16 -9 -41 -16 -55 -8 -13 -15 -53 -16 -89 -3 -73
-11 -126 -24 -155 -25 -59 -28 -86 -18 -176 5 -52 11 -112 14 -134 15 -142 21
-282 13 -297 -14 -27 -14 -95 1 -113 10 -12 13 -53 12 -161 -1 -80 -4 -149 -7
-154 -3 -5 2 -30 11 -57 10 -26 17 -58 16 -70 -1 -12 3 -34 8 -47 6 -17 5 -38
-5 -68 -7 -24 -19 -81 -26 -128 -6 -47 -19 -97 -28 -113 -13 -22 -13 -31 -3
-45 24 -33 25 -45 12 -127 -7 -46 -10 -91 -6 -100 3 -9 1 -26 -5 -37 -8 -16
-8 -31 1 -59 11 -32 11 -42 -3 -62 -12 -18 -15 -44 -12 -108 2 -46 4 -86 5
-89 1 -3 1 -61 0 -130 -1 -116 0 -127 19 -144 12 -11 21 -23 21 -29 0 -5 9
-21 20 -37 21 -29 18 -40 -12 -40 -17 0 -23 -12 -18 -35 6 -24 12 -146 11
-215 0 -41 5 -97 12 -125 11 -41 11 -61 0 -120 -10 -50 -11 -83 -4 -115 25
-115 32 -198 19 -224 -7 -13 -6 -26 3 -42 11 -21 10 -27 -8 -47 -25 -26 -34
-81 -20 -120 8 -23 6 -32 -12 -51 -11 -12 -21 -34 -21 -48 0 -14 -7 -42 -15
-61 -8 -20 -15 -58 -15 -84 0 -26 -5 -77 -12 -113 -17 -98 -14 -131 26 -235 6
-16 9 -49 8 -72 -2 -27 2 -50 13 -67 10 -15 19 -43 20 -64 1 -21 7 -48 14 -59
6 -12 11 -51 11 -86 0 -37 7 -81 16 -103 11 -26 18 -77 20 -154 4 -115 4 -115
35 -141 19 -15 30 -33 28 -45 -1 -10 1 -33 5 -49 5 -25 -2 -50 -39 -129 -25
-53 -48 -116 -51 -139 -4 -23 -13 -55 -21 -70 -22 -44 -51 -147 -59 -207 -3
-30 -12 -65 -19 -76 -10 -16 -13 -60 -11 -167 l2 -145 32 -27 c33 -27 40 -51
46 -144 3 -50 7 -56 54 -97 43 -37 50 -48 43 -66 -8 -23 4 -86 25 -126 15 -30
4 -72 -29 -111 -16 -20 -26 -47 -31 -87 -4 -32 -15 -72 -26 -89 -16 -26 -19
-46 -16 -101 2 -38 9 -83 17 -101 12 -30 11 -34 -11 -58 -17 -18 -27 -44 -32
-83 -16 -125 -25 -168 -37 -190 -6 -12 -10 -31 -7 -40 3 -10 2 -33 -4 -51 -5
-20 -6 -40 -1 -50 5 -9 12 -61 14 -116 3 -55 8 -111 10 -125 22 -108 31 -148
39 -166 6 -12 7 -35 4 -50 -4 -16 -8 -65 -11 -108 -4 -65 -1 -85 14 -110 18
-29 18 -37 4 -131 -7 -55 -12 -124 -10 -154 4 -49 9 -59 45 -93 23 -21 51 -38
62 -38 12 0 34 -14 50 -31 24 -27 35 -31 79 -32 62 -1 79 13 116 94 32 73 45
157 40 264 -5 107 11 150 77 204 28 23 59 41 70 41 10 0 29 6 41 14 21 13 118
26 237 31 30 1 96 8 145 14 50 7 144 13 210 15 72 1 129 7 143 15 17 9 37 10
70 4 26 -5 97 -8 157 -6 61 1 139 2 175 2 180 -3 331 6 361 21 25 14 210 21
250 10 22 -7 43 -5 73 6 22 9 59 19 81 23 22 4 50 13 62 19 14 8 69 12 144 13
108 0 126 -2 150 -20 35 -26 35 -26 112 0 65 22 110 24 334 13 91 -4 118 -2
143 11 38 20 100 17 161 -6 51 -19 194 -25 204 -8 8 12 58 12 71 -1 15 -15
113 -20 156 -8 29 9 50 7 100 -7 49 -13 114 -18 303 -22 132 -2 251 -4 265 -4
14 -1 52 2 85 6 74 9 249 10 375 2 59 -4 113 -2 144 6 42 10 55 9 106 -10 57
-21 58 -21 88 -1 17 10 39 19 49 19 66 1 123 -5 151 -17 25 -10 48 -11 100 -3
37 5 81 10 97 9 91 -1 218 -11 275 -20 36 -6 97 -13 135 -15 39 -2 89 -8 112
-13 23 -5 47 -6 54 -1 19 12 63 11 75 -1 7 -7 21 -7 43 1 24 9 43 9 69 1 54
-16 159 -25 322 -28 80 -1 170 -4 200 -7 43 -3 67 2 110 21 130 57 160 64 335
74 257 15 293 13 338 -17 19 -12 35 -15 59 -9 18 4 45 7 59 6 16 -1 34 7 49
23 26 28 61 32 80 10 7 -8 28 -15 47 -15 19 0 41 -6 49 -14 23 -24 121 -31
160 -13 25 12 40 14 60 7 14 -6 44 -10 67 -10 31 0 48 -7 69 -27 31 -30 43
-31 167 -14 63 8 88 8 98 -1 8 -6 33 -15 56 -19 23 -4 91 -18 151 -32 77 -17
114 -22 126 -15 10 7 37 6 80 -1 115 -21 125 -24 155 -47 34 -25 58 -30 97
-20 19 6 34 3 50 -8 29 -20 126 -21 154 -2 18 13 26 13 65 -1 27 -9 60 -13 86
-9 28 4 52 0 74 -11 22 -11 62 -17 114 -18 44 -1 90 -7 101 -13 17 -9 29 -7
65 12 26 13 65 24 95 25 46 2 56 -1 83 -28 26 -25 41 -31 79 -32 26 -1 58 -3
72 -6 14 -2 63 -5 110 -7 47 -1 101 -6 120 -9 19 -4 49 -4 65 1 19 6 42 5 65
-3 19 -7 91 -13 159 -14 68 -1 134 -4 146 -7 12 -3 39 3 61 15 34 17 56 20
177 17 95 -1 150 2 175 11 20 8 51 11 67 7 25 -5 163 -15 215 -16 8 0 42 2 75
4 38 3 76 0 102 -9 38 -13 48 -13 95 3 39 13 95 18 208 21 199 5 272 9 450 23
187 16 184 16 395 6 105 -4 192 -13 210 -21 47 -20 150 -34 278 -39 64 -3 122
-8 128 -12 6 -3 115 -8 242 -10 128 -2 250 -5 272 -8 22 -3 57 0 78 6 28 9 41
8 49 0 21 -21 53 -13 88 23 30 31 40 35 87 35 34 0 67 -7 94 -22 31 -16 46
-19 58 -11 10 6 56 11 103 11 77 1 91 4 139 32 49 29 56 31 93 20 32 -9 51 -8
89 4 47 14 118 15 170 1 20 -5 33 -3 47 10 16 14 24 15 54 5 63 -20 244 -3
324 31 45 19 63 21 305 19 27 0 57 -5 68 -11 15 -8 34 -5 82 12 50 19 81 23
162 21 99 -1 142 7 299 55 38 12 70 14 140 8 50 -4 115 -7 143 -7 49 1 54 -1
68 -28 8 -16 15 -55 15 -87 0 -67 15 -128 40 -163 10 -14 18 -38 18 -53 -1
-37 27 -73 86 -114 39 -27 58 -33 100 -33 82 1 120 14 160 56 29 31 35 45 31
67 -3 17 2 38 11 52 13 21 14 29 2 60 -11 33 -11 38 5 50 9 6 17 17 17 24 0 6
4 11 8 11 16 0 31 49 43 137 16 115 15 130 -9 156 -16 18 -21 41 -26 117 -3
52 -13 145 -21 205 -24 167 -36 308 -29 330 3 11 7 86 9 166 2 80 9 157 14
172 7 19 6 40 -6 79 -20 69 -20 165 0 252 14 62 14 73 1 113 -14 40 -14 47 1
70 12 17 15 36 11 58 -4 18 -2 43 3 57 7 18 3 37 -16 79 -21 44 -25 68 -24
127 1 59 -2 78 -19 102 -16 22 -21 47 -23 102 -2 41 -7 79 -11 86 -11 19 -16
360 -6 428 5 32 14 95 21 139 6 44 17 91 24 105 7 14 16 79 19 145 7 113 31
239 55 284 6 11 11 45 11 76 0 30 7 72 16 93 9 20 18 64 19 97 4 113 16 380
20 425 2 31 -2 52 -15 70 -27 38 -21 160 11 220 42 80 31 162 -31 237 -22 26
-45 53 -50 60 -25 31 -175 48 -204 24 -37 -31 -71 -137 -56 -177 9 -21 5 -43
-19 -113 -33 -97 -42 -141 -47 -223 -1 -31 -8 -67 -15 -79 -6 -12 -12 -43 -13
-68 -1 -25 -8 -62 -16 -81 -7 -19 -19 -51 -26 -70 -7 -19 -16 -75 -20 -125 -4
-49 -13 -107 -20 -128 -9 -27 -13 -95 -13 -240 1 -130 -3 -218 -11 -247 -7
-26 -14 -133 -16 -250 -5 -278 -5 -321 -1 -420 2 -47 0 -114 -5 -150 -10 -69
-21 -261 -20 -320 2 -47 3 -610 2 -634 -1 -11 11 -42 25 -69 18 -35 24 -59 20
-81 -4 -18 2 -54 12 -86 11 -31 16 -66 13 -80 -4 -14 -4 -88 -2 -165 7 -181 6
-205 -8 -295 -14 -90 -36 -140 -70 -157 -16 -9 -61 -13 -125 -12 -55 0 -131
-5 -170 -12 -77 -14 -129 -14 -345 -4 -152 7 -373 7 -525 0 -49 -3 -180 -6
-290 -9 -227 -5 -305 -11 -387 -32 -32 -8 -69 -12 -82 -8 -27 6 -131 -16 -193
-42 -20 -9 -59 -20 -87 -25 -28 -6 -71 -14 -96 -20 -25 -6 -72 -14 -105 -19
-33 -4 -91 -15 -130 -24 -38 -9 -82 -16 -97 -16 -14 0 -54 -7 -89 -16 -53 -14
-102 -15 -358 -8 -432 11 -445 12 -571 23 -155 14 -399 20 -433 10 -16 -4 -41
-3 -59 3 -23 8 -40 8 -64 -1 -28 -10 -38 -9 -64 4 -18 9 -39 13 -48 10 -44
-19 -147 -32 -176 -23 -17 5 -121 11 -231 13 -387 8 -558 16 -578 26 -11 6
-37 8 -58 5 -20 -3 -72 -1 -115 5 -54 7 -90 7 -118 0 -32 -8 -51 -7 -82 4 -33
11 -50 11 -104 0 -41 -9 -72 -10 -87 -4 -13 5 -56 9 -96 9 -40 0 -142 1 -227
4 -85 2 -162 0 -170 -4 -16 -8 -115 20 -152 44 -31 20 -126 30 -160 17 -18 -7
-58 -7 -125 0 -170 18 -306 30 -369 33 -92 5 -192 16 -259 30 -41 8 -87 10
-145 4 -47 -4 -119 -5 -161 -2 -52 4 -79 3 -83 -5 -11 -18 -126 -13 -212 10
-55 15 -94 19 -130 15 -40 -5 -62 -1 -100 16 -42 18 -54 19 -91 10 -23 -7 -48
-10 -55 -7 -27 10 -230 33 -249 28 -11 -3 -39 0 -63 7 -24 6 -119 13 -212 15
-93 1 -185 6 -205 10 -23 4 -51 2 -80 -8 -41 -14 -46 -14 -76 4 -66 41 -420
96 -490 77 -20 -6 -40 -5 -51 1 -11 6 -97 13 -192 16 -95 3 -177 8 -183 12
-16 10 -298 6 -347 -5 -27 -7 -174 -9 -370 -7 -179 1 -332 -1 -341 -6 -11 -5
-30 -1 -55 12 -28 14 -57 19 -99 18 -134 -3 -213 0 -277 10 -44 7 -75 8 -92 1
-31 -11 -247 -17 -264 -6 -15 9 -187 10 -708 2 -294 -5 -401 -9 -430 -20 -43
-15 -107 -27 -169 -32 -22 -1 -74 -5 -115 -9 -41 -3 -98 -13 -127 -22 -44 -14
-62 -15 -115 -5 -44 8 -126 9 -273 4 -115 -4 -262 -5 -325 -1 -68 3 -125 1
-140 -5 -14 -6 -92 -9 -175 -9 -138 2 -154 0 -200 -21 -47 -22 -59 -23 -227
-21 -142 3 -181 7 -201 20 -16 10 -34 14 -52 9 -14 -3 -56 -8 -93 -10 -37 -2
-120 -6 -185 -10 -65 -3 -126 -2 -135 2 -9 5 -46 9 -82 10 -36 0 -76 4 -89 7
-13 4 -43 2 -65 -3 -31 -7 -60 -5 -116 8 -63 15 -121 18 -363 17 -257 -1 -289
1 -303 16 -10 11 -16 45 -19 107 -2 50 -8 99 -12 109 -5 10 -7 56 -5 103 2 47
4 99 5 115 0 17 0 68 -1 115 -4 126 4 268 16 282 5 7 13 47 16 88 3 41 11 125
17 185 15 153 18 276 8 370 -4 44 -10 116 -14 160 -3 44 -8 100 -10 124 -3 24
-8 87 -10 140 -3 53 -9 130 -14 171 -5 41 -7 78 -4 84 19 29 27 227 21 486 -2
63 1 133 5 155 23 111 23 310 1 545 -2 25 -6 90 -8 145 -4 93 -24 245 -41 307
-4 17 -1 46 10 79 15 44 16 57 5 90 -10 29 -11 75 -5 181 4 79 9 179 10 223
12 330 16 391 24 420 5 19 5 38 0 46 -5 8 -10 48 -10 89 -1 41 -1 95 -2 120 0
25 5 75 12 112 9 47 9 82 3 120 -6 29 -8 85 -5 123 3 39 0 129 -6 200 -6 72
-11 173 -12 225 0 52 -1 111 -2 130 -1 34 0 55 4 170 1 31 -3 65 -8 75 -13 27
-9 242 6 287 10 30 10 45 0 72 -11 30 -10 42 9 93 17 47 20 66 12 92 -9 31 -5
228 5 262 3 8 1 39 -5 67 -6 36 -6 59 1 76 9 18 6 42 -9 102 -11 44 -23 126
-27 184 -11 170 -4 417 14 454 13 28 34 173 27 185 -4 5 1 49 10 98 15 85 28
300 25 412 -1 30 4 63 12 75 10 16 13 77 12 271 -1 181 2 264 12 300 7 28 13
84 13 125 0 41 0 107 -1 145 0 68 19 163 40 203 9 17 26 142 37 277 7 83 19
160 29 175 10 16 34 256 34 346 1 28 8 64 15 80 11 21 13 49 10 99 -3 39 -5
87 -5 107 1 21 -7 51 -19 70 -22 37 -26 82 -9 125 11 30 24 210 21 306 -2 40
4 73 18 103 32 73 32 75 45 464 3 85 9 173 15 195 17 72 21 131 11 158 -7 19
-6 39 3 72 15 47 7 107 -15 120 -12 8 -10 140 2 173 6 15 4 32 -4 50 -16 31
-14 114 3 157 9 23 9 41 -1 80 -11 43 -12 86 -7 223 2 45 -11 155 -22 192 -18
62 -12 133 15 182 25 45 25 46 15 168 -10 107 -9 125 5 147 9 13 14 31 11 39
-3 8 -1 56 5 107 6 51 10 107 9 126 0 18 9 52 21 75 15 30 22 61 23 116 1 41
4 80 8 85 7 12 4 94 -5 115 -13 34 -13 97 1 133 10 27 13 56 9 97 -6 57 -6 59
29 89 l35 31 47 -25 c26 -14 53 -25 60 -25 7 0 23 -6 35 -14 27 -17 208 -34
337 -32 73 1 103 -3 128 -16 37 -20 90 -23 124 -8 17 8 40 7 88 -6 65 -17 127
-19 300 -9 47 3 97 6 111 7 15 0 35 -3 45 -7 11 -5 64 -10 119 -11 183 -5 274
-10 280 -16 3 -3 21 -2 40 2 19 4 73 3 122 -2 121 -14 219 -11 269 8 43 16 50
16 264 -6 123 -13 264 -16 317 -5 31 5 55 3 92 -11 48 -17 51 -17 91 1 35 16
48 17 88 7 47 -11 368 -8 484 4 36 4 90 0 148 -11 146 -26 355 -36 428 -20 24
5 38 3 51 -9 10 -9 45 -21 79 -27 53 -10 67 -8 121 11 42 16 70 20 93 15 18
-3 58 -9 88 -12 30 -3 61 -10 68 -15 6 -6 42 -9 80 -8 103 4 102 4 182 -12 41
-9 91 -16 110 -17 19 -1 64 -8 100 -17 36 -8 85 -17 110 -19 25 -2 85 -9 135
-14 65 -8 101 -7 130 1 45 12 151 14 235 3 30 -3 188 -7 350 -8 162 -2 301 -6
308 -11 8 -5 64 -10 125 -12 62 -3 141 -8 177 -13 71 -10 242 -16 385 -13 50
1 115 -1 145 -5 49 -6 175 -6 415 -1 44 1 98 1 120 -1 22 -2 85 2 140 9 55 7
138 14 185 15 47 1 111 6 142 10 44 6 68 4 100 -8 49 -19 38 -18 301 -13 145
3 210 9 245 20 54 18 74 19 179 10 54 -5 83 -2 111 9 28 11 49 13 78 7 104
-24 185 -32 230 -25 73 12 448 15 535 5 58 -7 90 -6 140 6 61 15 107 15 334
-1 17 -1 51 -8 77 -16 43 -12 54 -11 102 5 42 15 58 16 75 7 12 -7 36 -14 54
-16 192 -22 232 -25 246 -18 9 4 48 9 86 10 39 1 83 3 98 4 16 1 53 -4 83 -11
45 -11 66 -11 131 2 64 12 87 13 137 2 38 -8 67 -9 77 -3 10 5 33 9 52 9 19 0
55 11 81 25 56 30 60 30 94 6 39 -26 191 -24 221 3 18 17 37 19 166 17 79 0
148 -2 152 -3 5 -1 22 1 39 5 16 4 81 14 144 21 108 12 117 12 159 -7 38 -17
59 -19 136 -14 50 3 107 13 127 22 21 8 55 15 77 15 22 0 51 4 65 10 18 7 35
5 61 -6 19 -8 45 -12 58 -10 12 3 51 12 87 20 73 17 225 20 283 5 30 -8 50 -6
89 7 47 15 178 21 199 9 8 -6 157 -5 274 1 33 1 115 5 182 8 68 3 132 10 142
16 22 11 162 4 203 -12 20 -7 38 -6 70 5 68 24 188 39 233 30 23 -5 59 -5 85
0 32 6 67 4 117 -6 52 -11 84 -12 113 -6 23 5 78 9 123 9 45 -1 93 0 107 1 50
3 140 -8 153 -20 15 -12 60 -10 232 10 139 16 320 21 385 12 32 -5 73 -5 98 1
29 7 53 6 72 -1 20 -8 36 -7 60 3 26 11 40 12 65 3 25 -9 43 -9 76 0 69 19
124 22 142 8 17 -12 21 -66 33 -447 5 -154 11 -236 22 -314 6 -41 6 -81 1
-100 -5 -17 -9 -58 -9 -91 0 -33 -5 -89 -10 -125 -17 -117 -10 -483 11 -538 5
-13 9 -48 9 -78 0 -32 6 -64 15 -78 14 -20 14 -28 0 -67 -14 -37 -14 -54 -4
-107 9 -49 9 -69 -1 -93 -9 -21 -12 -78 -10 -187 3 -229 3 -275 -4 -293 -4 -9
2 -23 14 -34 23 -21 26 -62 6 -88 -21 -27 -11 -132 15 -165 18 -23 20 -35 14
-97 -3 -38 -2 -84 4 -101 6 -22 6 -35 -2 -43 -5 -5 -16 -48 -22 -93 -7 -46
-20 -123 -30 -171 -16 -78 -17 -106 -8 -245 7 -97 8 -163 2 -174 -5 -10 -7
-65 -5 -124 2 -58 0 -120 -6 -137 -23 -73 -38 -250 -26 -299 4 -16 2 -43 -3
-60 -6 -18 -12 -64 -14 -103 -2 -38 -11 -89 -19 -111 -9 -27 -13 -68 -11 -117
2 -41 0 -100 -4 -131 -4 -31 -4 -82 1 -113 5 -32 10 -78 12 -103 2 -25 5 -49
6 -55 2 -5 -2 -30 -9 -55 -9 -29 -11 -72 -7 -125 4 -44 8 -107 10 -140 3 -33
10 -107 16 -165 6 -58 12 -132 13 -165 1 -33 8 -70 15 -82 6 -12 12 -52 12
-89 0 -50 5 -75 21 -100 20 -32 20 -40 9 -121 -6 -48 -15 -94 -20 -102 -10
-20 -15 -438 -5 -504 4 -30 2 -53 -4 -61 -8 -10 -6 -31 10 -80 16 -53 18 -71
8 -82 -7 -9 -9 -31 -5 -62 3 -28 1 -62 -5 -81 -8 -24 -8 -39 1 -61 8 -20 9
-34 2 -43 -17 -21 -32 -193 -20 -227 7 -22 7 -43 -1 -75 -6 -24 -11 -79 -11
-122 0 -43 -7 -113 -15 -157 -8 -43 -15 -113 -16 -155 0 -42 0 -103 -1 -136 0
-33 -1 -125 -2 -205 -1 -165 -3 -168 -79 -132 -23 10 -54 22 -69 26 -15 3 -44
17 -64 31 -20 14 -46 25 -57 25 -11 0 -43 6 -71 14 -28 8 -82 22 -121 32 -38
9 -80 23 -92 30 -12 8 -37 14 -55 14 -18 0 -46 7 -63 16 -17 9 -49 16 -73 15
-34 -2 -52 4 -79 25 -19 14 -53 28 -76 31 -23 3 -54 12 -69 19 -15 8 -45 14
-68 14 -27 0 -43 5 -47 15 -4 11 -17 15 -47 14 -45 -2 -100 21 -155 67 -18 16
-72 43 -120 61 -47 18 -97 39 -111 46 -14 8 -43 17 -64 20 -22 4 -43 12 -47
18 -4 7 -22 12 -41 12 -50 -1 -130 24 -179 56 -28 18 -63 31 -98 34 -29 4 -64
13 -77 22 -13 8 -43 15 -68 15 -53 0 -88 12 -118 40 -12 11 -30 20 -41 20 -11
0 -61 23 -112 50 -51 28 -101 50 -113 50 -11 0 -36 7 -55 15 -20 8 -63 15 -96
15 -46 0 -71 6 -116 30 -31 17 -63 30 -71 30 -7 0 -28 15 -46 34 -18 19 -49
40 -69 49 -30 12 -37 21 -43 53 -9 52 -28 250 -33 344 -5 105 -10 168 -22 298
-6 63 -9 118 -5 123 3 5 -4 24 -15 43 -12 18 -21 51 -21 72 -1 22 -8 71 -16
109 -8 39 -19 102 -24 140 -13 106 -28 165 -50 202 -11 19 -20 44 -20 56 0 36
-44 91 -94 115 -26 13 -53 34 -61 46 -22 33 -59 47 -145 57 -41 4 -99 12 -127
17 -44 8 -57 6 -80 -9 -38 -25 -49 -32 -115 -63 -64 -31 -165 -136 -193 -202
-96 -220 -96 -223 -89 -502 5 -204 4 -245 -11 -297 -9 -33 -21 -79 -26 -103
-5 -24 -16 -65 -26 -91 -16 -47 -16 -49 5 -76 24 -31 30 -112 12 -160 -8 -21
-5 -36 11 -72 18 -39 20 -54 12 -94 -11 -55 -4 -72 37 -89 59 -24 140 16 140
70 0 9 13 34 29 54 27 34 51 108 51 158 0 11 9 51 19 87 34 115 45 374 18 417
-11 19 -17 246 -8 324 10 92 64 233 99 261 14 11 49 26 79 35 54 16 54 16 88
-11 51 -38 138 -153 159 -207 10 -26 22 -50 27 -54 5 -3 18 -22 29 -43 15 -30
20 -68 25 -177 12 -292 12 -341 4 -409 -15 -119 -11 -438 6 -465 3 -5 0 -21
-6 -37 -18 -43 -29 -145 -18 -165 6 -10 28 -30 49 -43 22 -14 40 -31 40 -39 0
-20 50 -66 71 -66 11 0 29 11 41 25 36 41 127 27 190 -31 21 -18 48 -35 60
-38 201 -38 298 -76 393 -151 33 -26 52 -33 107 -38 75 -7 93 -15 166 -73 52
-42 70 -90 80 -202 4 -55 4 -113 -1 -129 -5 -15 -10 -46 -12 -68 -4 -45 -14
-85 -44 -165 -11 -30 -22 -67 -25 -82 -5 -23 -35 -62 -113 -145 -30 -31 -65
-29 -106 7 -22 18 -54 34 -88 41 -30 6 -76 27 -104 46 -27 19 -66 45 -85 58
-19 13 -46 33 -59 44 -26 22 -56 27 -66 11 -3 -5 -24 -10 -45 -10 -30 0 -54
-11 -104 -45 -37 -25 -70 -45 -74 -45 -5 0 -19 -11 -32 -25 -17 -18 -23 -35
-22 -62 2 -45 65 -199 93 -229 11 -12 48 -29 82 -39 34 -9 67 -21 72 -25 6 -4
46 -10 89 -14 66 -6 85 -12 112 -34 73 -60 97 -75 146 -93 28 -10 54 -23 58
-28 3 -6 28 -15 55 -21 27 -6 56 -17 65 -25 8 -7 60 -24 116 -38 105 -26 152
-45 173 -71 7 -9 28 -18 47 -22 19 -3 50 -19 70 -35 20 -16 44 -29 54 -29 9 0
27 -11 39 -24 15 -16 39 -26 74 -31 29 -4 66 -15 82 -26 17 -10 46 -25 65 -34
19 -9 46 -27 60 -39 14 -13 35 -29 48 -36 42 -21 135 -41 165 -34 19 4 34 1
46 -10 21 -19 103 -44 182 -55 32 -5 74 -18 95 -29 62 -32 73 -35 187 -36 98
-1 110 -4 125 -23 21 -26 104 -63 157 -69 22 -3 67 -12 100 -21 33 -9 76 -18
95 -21 19 -3 45 -11 57 -19 12 -8 45 -16 75 -18 96 -8 134 -15 189 -37 30 -11
92 -24 139 -28 47 -5 99 -15 115 -24 17 -9 46 -16 65 -16 19 -1 63 -7 97 -14
34 -7 67 -10 73 -6 13 8 48 2 65 -11 6 -4 39 -12 75 -19 37 -6 81 -22 102 -36
20 -14 45 -24 55 -23 33 4 138 -14 159 -28 12 -7 42 -12 72 -11 36 2 56 -3 70
-15 10 -9 27 -17 38 -17 10 -1 30 -7 44 -15 14 -8 45 -14 70 -15 52 0 176 -24
217 -42 15 -7 42 -22 58 -35 27 -19 68 -30 127 -32 9 -1 30 -13 47 -27 26 -22
37 -25 71 -19 23 4 54 18 70 31 29 25 100 156 100 185 0 25 -29 44 -61 41 -17
-2 -53 9 -90 28 -33 17 -83 35 -110 41 -26 6 -65 21 -84 35 -20 13 -44 24 -54
24 -10 0 -38 7 -61 15 -24 8 -82 17 -129 20 -76 5 -88 8 -106 30 -16 20 -28
25 -65 24 -54 -2 -124 13 -145 31 -10 8 -29 10 -59 6 -34 -5 -55 -2 -90 14
-25 11 -80 27 -123 36 -43 9 -94 19 -114 23 -20 4 -67 25 -105 46 -65 37 -74
39 -159 40 -64 1 -99 6 -120 18 -16 9 -44 17 -61 17 -17 0 -49 6 -70 13 -23 8
-50 11 -64 6 -41 -12 -46 -10 -81 23 -30 29 -39 32 -101 34 -59 1 -71 4 -92
27 -22 23 -29 25 -77 20 -51 -5 -56 -3 -89 29 -19 19 -50 40 -69 47 -19 6 -40
19 -47 30 -11 15 -26 18 -76 18 -41 0 -80 7 -113 20 -27 12 -77 31 -110 42
-33 12 -86 36 -119 52 -48 26 -65 30 -101 25 -38 -6 -48 -3 -103 35 -36 25
-79 45 -104 49 -97 17 -162 40 -191 70 -33 33 -115 75 -168 85 -20 4 -47 17
-61 30 -14 13 -42 27 -62 30 -20 4 -36 10 -36 14 0 11 -108 63 -145 71 -22 4
-32 13 -39 38 -8 28 -6 37 13 60 64 79 117 259 107 363 -5 49 -3 83 8 120 9
29 16 72 16 95 0 23 7 58 15 78 9 20 13 41 10 45 -5 9 78 26 105 22 8 -1 33
-10 55 -20 37 -17 100 -28 202 -36 23 -2 53 -11 68 -21 21 -14 51 -18 141 -20
94 -1 118 -5 134 -19 11 -10 20 -15 20 -11 0 4 14 -1 30 -11 17 -9 30 -20 30
-24 0 -14 83 -39 153 -45 41 -4 94 -17 124 -30 28 -13 59 -24 68 -24 8 0 37
-11 63 -25 29 -15 73 -27 112 -31 40 -4 79 -15 100 -28 19 -12 44 -27 55 -34
53 -32 66 -36 85 -24 22 14 43 8 86 -25 17 -13 45 -23 63 -23 42 0 89 -36 146
-112 40 -53 45 -66 45 -113 0 -50 2 -54 55 -104 30 -29 67 -54 84 -57 17 -4
36 -13 42 -20 25 -31 106 -8 142 39 13 18 26 43 30 57 24 104 58 136 120 111
18 -7 43 -14 57 -15 14 -1 43 -7 65 -13 22 -6 69 -18 105 -27 36 -8 90 -22
120 -31 30 -9 71 -17 90 -19 62 -7 204 -34 233 -45 16 -6 50 -11 77 -11 27 0
51 -4 54 -8 3 -4 54 -9 115 -10 60 -1 122 -7 137 -13 16 -5 45 -7 65 -4 24 4
55 0 95 -15 66 -23 192 -50 241 -50 22 0 33 -6 38 -19 9 -29 35 -31 210 -17
91 7 108 11 180 34 57 18 62 22 112 98 29 43 53 84 53 90 0 6 11 21 25 34 15
14 25 35 25 51 0 29 -23 55 -39 45 -16 -11 -179 -5 -221 6 -8 3 -33 10 -55 16
-22 6 -54 11 -70 10 -17 0 -41 4 -52 11 -12 6 -37 11 -55 10 -33 -1 -155 18
-169 26 -4 3 -50 9 -103 15 -53 5 -110 17 -127 25 -17 9 -67 18 -122 21 -50 2
-164 8 -252 12 -88 4 -166 11 -173 15 -6 5 -53 13 -103 18 -51 6 -101 16 -113
24 -12 7 -57 15 -101 19 -44 3 -90 8 -101 10 -12 3 -56 0 -98 -5 -66 -8 -80
-7 -113 9 -21 11 -54 22 -72 26 -59 11 -81 31 -81 76 0 21 -4 50 -10 64 -5 14
-12 46 -16 72 -3 25 -15 66 -26 91 -15 33 -18 51 -11 67 13 28 4 106 -12 112
-7 3 -10 15 -7 30 2 14 -2 32 -11 42 -13 14 -15 33 -11 97 5 76 6 111 5 230
-1 219 1 290 10 307 6 10 11 72 13 136 1 65 8 127 14 139 7 12 12 28 12 36 0
8 6 20 14 26 38 32 36 308 -3 395 -13 27 -16 46 -10 57 5 10 4 28 -3 47 -9 24
-9 38 3 69 11 26 15 64 13 123 -2 47 -4 103 -4 124 0 22 -5 45 -11 52 -6 7 -8
26 -4 43 4 19 1 38 -8 53 -10 16 -14 47 -12 98 2 49 -2 82 -11 95 -7 11 -16
47 -19 80 -3 33 -8 76 -11 95 -15 87 -18 214 -6 238 12 24 7 194 -6 219 -14
26 -6 140 13 186 19 46 19 72 -1 102 -15 23 -12 63 6 75 17 11 19 74 3 92 -14
16 -14 20 1 52 22 46 20 98 -5 140 -16 27 -19 43 -13 68 5 18 7 51 5 74 -2 28
3 46 14 58 13 13 16 26 10 59 -4 23 -8 75 -9 114 -1 40 -5 76 -9 79 -3 4 -1
16 4 27 8 14 8 26 -2 43 -10 20 -10 29 1 48 10 20 10 28 -4 47 -22 32 -20 43
13 89 l29 41 -2 232 c-2 127 1 243 5 257 5 14 15 94 24 179 13 131 13 157 1
170 -20 23 -29 116 -15 143 19 35 16 71 -8 93 -21 20 -22 23 -13 155 5 74 6
138 1 143 -11 11 -3 230 9 262 10 26 0 68 -19 80 -17 10 -13 31 13 70 18 26
25 49 24 84 0 26 8 72 17 102 9 30 20 81 25 114 8 50 6 62 -8 78 -21 23 -18
146 5 190 8 16 12 39 10 51 -3 11 -2 44 3 71 6 38 5 54 -6 66 -8 8 -14 29 -14
45 0 16 -8 43 -17 59 -9 17 -17 50 -19 75 -1 25 -7 68 -13 95 -31 149 -52 364
-40 407 7 27 7 44 -1 58 -6 11 -8 25 -5 30 3 5 6 99 7 209 1 144 -2 204 -11
215 -8 9 -11 43 -10 94 1 68 -2 89 -25 139 -29 61 -80 105 -151 128 -27 9 -30
15 -33 58 -2 36 -8 51 -25 61 -35 21 -113 26 -227 12 -74 -9 -133 -10 -200 -3
-78 7 -99 6 -120 -6 -14 -8 -64 -18 -113 -22 -83 -7 -90 -6 -125 17 -50 34
-134 51 -207 44 -72 -6 -75 -6 -245 0 -215 8 -256 11 -280 24 -13 7 -39 10
-64 6 -34 -5 -89 -6 -216 -6 -177 1 -491 -13 -590 -27 -30 -4 -132 -6 -227 -5
-135 2 -178 0 -200 -12 -15 -7 -73 -17 -127 -21 -55 -3 -103 -8 -108 -11 -10
-6 -285 -5 -393 1 -44 3 -93 5 -110 6 -16 0 -74 5 -128 11 -73 9 -103 8 -120
0 -54 -29 -116 -40 -163 -30 -33 7 -58 7 -84 -1 -24 -7 -53 -8 -82 -3 -69 13
-185 14 -193 2 -3 -5 -24 -20 -47 -31 -35 -18 -57 -20 -181 -19 -78 0 -200 -2
-272 -5 -174 -8 -331 -6 -440 4 -127 13 -322 5 -495 -19 -47 -6 -121 -15 -165
-20 -44 -4 -93 -12 -108 -19 -16 -6 -67 -11 -115 -11 -48 -1 -107 -6 -132 -11
-25 -6 -121 -14 -215 -18 -132 -6 -184 -5 -235 6 -38 9 -141 16 -250 18 -102
2 -198 9 -214 15 -16 6 -48 8 -70 5 -23 -3 -59 -2 -81 3 -31 6 -50 4 -82 -9
-32 -13 -50 -16 -75 -9 -18 5 -58 7 -88 4 -30 -3 -71 -5 -90 -4 -136 4 -195 9
-265 20 -113 19 -323 15 -357 -7 -7 -3 -78 -8 -158 -10 -85 -2 -170 -9 -206
-18 -48 -12 -96 -14 -210 -10 -81 3 -151 8 -156 11 -14 9 -138 26 -173 25 -16
-1 -52 -1 -79 -1 -29 0 -60 -7 -74 -16 -21 -14 -30 -14 -63 -4 -30 10 -44 10
-68 0 -20 -8 -44 -10 -68 -5 -21 5 -48 7 -59 6 -12 -1 -39 5 -59 13 -21 9 -61
16 -90 16 -29 0 -85 11 -124 23 -39 13 -84 23 -99 21 -15 -1 -73 -7 -129 -14
-87 -10 -109 -10 -145 3 -24 8 -94 21 -157 27 -105 11 -116 11 -127 -5 -10
-13 -20 -16 -41 -11 -15 4 -59 12 -98 17 -38 5 -77 10 -85 11 -8 1 -36 -2 -63
-6 -32 -6 -52 -5 -61 3 -9 8 -45 9 -112 5 -88 -6 -104 -4 -139 14 -23 11 -51
18 -65 15 -14 -2 -45 0 -69 6 -34 7 -53 6 -79 -4 -29 -13 -38 -13 -70 1 -25
10 -52 13 -82 9 -25 -3 -65 -1 -90 5 -25 7 -66 13 -91 14 -29 1 -55 10 -74 24
-33 26 -43 27 -115 6 -59 -18 -184 -20 -226 -4 -14 6 -38 10 -53 10 -30 0 -81
-21 -81 -32 0 -12 -23 -9 -54 7 -51 27 -105 28 -169 4 -62 -23 -75 -21 -128
22 l-26 20 -38 -22 -38 -23 -18 22 c-9 12 -19 28 -21 34 -3 9 -12 9 -36 -1
-21 -9 -41 -10 -59 -5 -16 5 -37 9 -48 9 -11 1 -45 5 -75 9 -40 5 -67 3 -98
-8 -39 -14 -47 -14 -79 -1 -19 8 -54 15 -76 15 -23 0 -48 7 -58 16 -10 9 -39
18 -63 19 -25 2 -59 6 -76 10 -28 6 -150 -13 -231 -37 -38 -11 -90 1 -134 29
-22 15 -151 18 -159 4 -10 -16 -125 -20 -179 -5 -65 17 -60 18 -86 -6 -18 -15
-32 -18 -65 -14 -22 3 -75 7 -116 9 -49 2 -108 14 -169 34 -103 34 -112 35
-187 16z m14889 -3422 c-7 -2 -19 -2 -25 0 -7 3 -2 5 12 5 14 0 19 -2 13 -5z
m-17776 -6759 c-3 -3 -12 -4 -19 -1 -8 3 -5 6 6 6 11 1 17 -2 13 -5z"/>
<path d="M16051 20694 c-18 -8 -53 -14 -77 -14 -25 0 -55 -7 -68 -15 -13 -9
-41 -15 -62 -14 -73 4 -207 -13 -249 -32 -23 -10 -68 -21 -101 -24 -42 -4 -73
-15 -109 -37 -101 -63 -128 -99 -154 -200 -36 -142 -36 -131 -1 -363 8 -54 14
-64 54 -100 25 -22 49 -52 55 -68 16 -41 55 -52 102 -28 28 15 61 20 133 23
l95 2 58 -40 c32 -23 70 -44 84 -47 27 -7 119 -82 119 -97 0 -5 11 -26 25 -46
14 -20 25 -44 25 -53 0 -9 9 -33 20 -54 15 -27 20 -56 20 -109 0 -40 -3 -82
-6 -93 -6 -22 -124 -86 -157 -85 -10 0 -37 -10 -60 -22 -36 -18 -143 -38 -212
-40 -11 0 -83 5 -160 12 -132 11 -143 11 -186 -8 -63 -27 -105 -72 -113 -121
-3 -21 -3 -46 0 -54 10 -27 85 -79 112 -78 15 0 43 0 62 -1 65 -2 85 -1 118 7
30 7 33 5 43 -24 13 -37 50 -56 79 -41 30 16 73 15 107 -3 40 -21 57 -21 73
-2 8 10 30 15 63 15 37 0 58 6 81 24 17 13 54 35 83 49 28 15 61 39 73 54 25
32 133 97 191 116 17 6 88 109 145 211 21 38 28 230 9 266 -8 14 -24 48 -36
75 -12 28 -31 62 -41 77 -10 14 -18 32 -18 38 0 7 -13 28 -30 47 -16 18 -30
38 -30 43 0 5 -17 18 -38 29 -21 11 -44 27 -51 35 -8 9 -24 16 -38 16 -13 0
-34 11 -47 25 -13 14 -38 28 -57 31 -36 7 -91 32 -99 45 -7 11 -140 13 -227 4
-60 -6 -77 -5 -98 9 -24 16 -25 20 -25 128 0 105 2 113 26 146 23 30 30 33 58
27 91 -18 93 -18 111 9 13 19 25 26 49 25 17 0 119 1 226 4 181 5 199 7 250
30 53 24 84 47 112 84 7 10 29 30 48 44 69 53 100 86 105 115 7 37 -4 54 -38
54 -15 0 -39 1 -54 2 -33 2 -144 0 -228 -4 -33 -2 -71 0 -85 4 -15 4 -39 1
-59 -8z"/>
<path d="M16990 20182 c-19 -10 -52 -29 -73 -43 -20 -13 -52 -33 -70 -44 -32
-21 -32 -22 -32 -100 0 -74 2 -80 22 -83 39 -6 99 17 176 68 42 28 82 60 88
73 6 12 21 32 32 44 31 34 9 69 -57 88 -27 8 -50 15 -51 15 0 0 -16 -8 -35
-18z"/>
<path d="M19285 20123 c-11 -3 -29 -13 -40 -23 -11 -10 -39 -27 -62 -39 -49
-24 -82 -67 -94 -123 -5 -22 -26 -65 -47 -96 -21 -32 -45 -75 -55 -96 -10 -21
-28 -47 -41 -57 -13 -10 -42 -51 -66 -91 -23 -40 -59 -98 -80 -129 -23 -35
-43 -83 -54 -130 -10 -41 -22 -84 -27 -97 -12 -31 -11 -99 1 -122 14 -27 110
-124 142 -144 15 -10 25 -23 22 -31 -3 -7 27 -40 73 -79 68 -58 82 -66 108
-61 17 3 53 10 80 15 110 21 133 27 156 43 13 10 36 17 51 17 16 0 41 12 61
30 19 17 39 30 44 30 6 0 25 17 44 37 19 20 84 87 144 148 61 62 121 127 134
144 26 35 42 121 22 121 -15 0 -14 24 4 66 8 19 14 35 13 37 -1 1 4 12 11 25
10 19 8 25 -13 47 -14 13 -21 27 -16 30 5 3 7 11 4 19 -3 7 0 26 6 41 9 25 8
31 -9 45 -15 11 -19 25 -17 58 2 35 -2 48 -21 65 -34 31 -43 58 -33 103 8 33
6 41 -9 54 -11 8 -22 25 -26 38 -10 36 -66 81 -118 96 -42 12 -53 12 -82 0
-29 -12 -45 -12 -112 1 -43 8 -78 14 -78 14 0 -1 -9 -3 -20 -6z m199 -80 c8
-21 -8 -38 -29 -29 -13 4 -14 10 -5 26 13 24 26 26 34 3z m76 -293 l25 -20
-27 -23 c-20 -16 -25 -26 -18 -37 5 -8 7 -29 4 -46 -4 -21 -1 -34 10 -43 22
-18 20 -67 -4 -101 -11 -16 -18 -34 -15 -42 3 -8 -8 -34 -25 -59 -16 -24 -30
-56 -30 -70 0 -34 -60 -113 -97 -127 -75 -29 -105 -32 -148 -13 -33 14 -46 29
-64 67 -36 77 -39 141 -7 209 14 32 26 67 26 79 1 35 83 159 126 188 48 33 70
35 93 6 21 -25 51 -19 51 10 0 44 57 56 100 22z"/>
<path d="M18145 20100 c-143 -27 -159 -34 -170 -73 -13 -45 -115 -253 -147
-299 -10 -14 -18 -33 -18 -41 0 -19 -73 -132 -114 -175 -21 -22 -36 -55 -49
-105 -32 -126 -32 -122 2 -146 17 -12 31 -28 31 -35 0 -7 11 -23 25 -36 14
-13 25 -30 25 -37 0 -8 23 -38 50 -67 28 -29 50 -58 50 -64 0 -6 11 -19 25
-28 14 -9 25 -24 25 -34 0 -36 68 -68 85 -40 12 19 33 10 43 -18 9 -26 13 -28
74 -29 61 -2 67 0 92 27 15 18 36 30 50 30 45 0 187 137 234 227 7 12 12 34
12 49 0 20 13 42 42 71 l42 43 3 131 2 131 -29 28 c-20 19 -31 42 -34 70 -3
23 -10 48 -16 55 -8 10 -8 20 0 36 7 12 14 36 15 53 3 28 -3 36 -48 67 -44 30
-53 41 -59 77 -4 23 -9 46 -12 51 -6 10 -143 77 -171 83 -11 3 -38 2 -60 -2z
m60 -415 c27 -32 48 -67 49 -83 3 -35 15 -81 28 -109 20 -41 -31 -181 -85
-232 -26 -23 -26 -23 -58 -5 -17 11 -36 28 -42 39 -6 11 -14 27 -19 35 -40 69
-49 124 -29 175 6 17 25 76 42 133 25 78 36 102 49 102 10 0 39 -25 65 -55z"/>
<path d="M27876 19928 c-10 -6 -55 -16 -100 -23 -45 -7 -96 -19 -114 -27 -30
-12 -35 -11 -46 5 -16 21 -45 22 -52 2 -4 -10 -20 -15 -44 -15 -50 0 -209 -37
-237 -56 -12 -8 -31 -14 -42 -14 -35 0 -151 -59 -177 -90 -21 -24 -34 -30 -64
-30 -46 0 -81 -14 -130 -50 -69 -52 -146 -89 -210 -100 -97 -18 -243 -61 -262
-78 -11 -9 -32 -14 -50 -12 -99 9 -122 4 -239 -53 -63 -31 -144 -65 -180 -76
-224 -69 -302 -89 -411 -106 -21 -3 -60 -20 -88 -38 -27 -18 -81 -52 -120 -76
-38 -25 -72 -52 -75 -61 -3 -8 -18 -24 -35 -33 -16 -10 -38 -37 -48 -60 -10
-23 -41 -65 -68 -94 -27 -28 -58 -66 -69 -84 -11 -18 -33 -37 -50 -42 -16 -5
-55 -33 -85 -61 -31 -28 -68 -61 -84 -74 -15 -13 -42 -53 -59 -90 -17 -37 -41
-78 -54 -92 -56 -59 -102 -118 -119 -151 -25 -49 -121 -150 -265 -279 -65 -58
-140 -135 -167 -171 -81 -107 -164 -189 -191 -189 -14 0 -32 -6 -40 -14 -18
-15 -116 -50 -146 -51 -29 -1 -168 -56 -225 -89 -14 -7 -37 -19 -52 -25 -27
-10 -28 -13 -28 -90 0 -58 4 -82 15 -91 8 -7 15 -20 15 -30 0 -9 11 -22 25
-28 26 -12 26 -27 -2 -67 -28 -42 -7 -104 31 -89 12 4 27 -4 48 -25 17 -17 34
-31 38 -31 13 0 60 60 60 76 0 8 7 26 16 39 9 15 17 50 19 83 3 83 22 130 56
137 67 15 93 -49 44 -107 -17 -21 -25 -41 -25 -69 0 -22 -8 -54 -17 -72 -9
-18 -21 -57 -25 -87 -28 -186 -28 -211 6 -390 9 -46 13 -93 10 -102 -3 -10 1
-30 9 -45 16 -30 46 -125 53 -170 3 -16 9 -80 14 -143 6 -63 14 -126 20 -140
5 -14 12 -104 15 -200 3 -96 10 -191 14 -210 5 -19 16 -61 25 -93 9 -32 16
-67 16 -78 0 -11 9 -37 20 -59 11 -22 20 -50 20 -63 0 -38 25 -89 59 -121 17
-17 31 -38 31 -48 0 -10 6 -34 14 -53 8 -19 17 -51 21 -72 3 -21 16 -49 29
-63 12 -14 28 -39 35 -56 7 -17 28 -46 47 -65 19 -18 34 -42 34 -53 1 -12 7
-32 15 -46 8 -14 14 -43 15 -65 0 -22 8 -54 18 -70 21 -34 33 -115 21 -137 -6
-10 0 -26 16 -48 34 -45 32 -69 -5 -81 -35 -13 -36 -16 -10 -44 19 -20 19 -24
5 -53 -22 -43 -1 -92 48 -116 20 -9 39 -21 42 -26 9 -14 -16 -24 -55 -22 l-36
3 4 -61 c3 -37 -1 -72 -9 -93 -15 -36 -13 -65 6 -87 18 -21 28 -77 15 -85 -6
-3 -10 -21 -10 -38 1 -18 -1 -84 -4 -147 -6 -123 -2 -150 19 -150 31 0 26 -50
-8 -79 -12 -9 -14 -30 -11 -91 3 -56 -1 -93 -12 -127 -13 -37 -15 -67 -9 -143
4 -67 3 -104 -6 -122 -10 -23 -8 -33 14 -70 13 -24 26 -52 28 -62 2 -11 18
-27 34 -36 20 -12 29 -23 26 -36 -2 -10 -4 -41 -5 -68 -1 -45 1 -50 27 -59 21
-7 37 -4 69 12 48 23 74 16 84 -26 5 -18 2 -28 -10 -35 -11 -6 -15 -16 -11
-28 6 -20 -27 -62 -60 -74 -16 -6 -17 -9 -5 -16 9 -5 19 -5 27 2 7 6 29 8 49
5 43 -7 64 0 64 22 0 9 7 26 15 38 13 18 12 22 -5 38 -11 10 -20 24 -20 32 0
7 -5 22 -12 32 -9 15 -7 27 11 64 12 25 29 48 37 51 14 5 34 45 38 76 1 8 8
28 14 43 7 16 12 41 12 57 0 16 4 31 9 35 5 3 12 19 16 36 5 24 2 36 -15 54
-21 23 -22 29 -14 112 9 97 9 92 -5 148 -30 114 -43 187 -45 256 -1 42 -7 83
-13 91 -8 9 -10 37 -4 91 6 67 11 81 34 103 15 14 31 24 35 22 37 -17 102 -66
102 -76 0 -8 16 -30 35 -49 19 -19 35 -41 35 -48 0 -8 12 -28 28 -46 15 -18
39 -59 53 -91 23 -52 24 -64 17 -120 -8 -56 -9 -111 -4 -188 1 -14 -4 -50 -12
-80 -34 -143 -40 -219 -29 -400 3 -57 9 -66 52 -80 42 -14 43 -25 10 -105 -14
-33 -25 -66 -25 -72 0 -18 18 -16 37 3 9 9 22 12 32 8 9 -4 27 -7 41 -8 27 -1
27 -4 10 84 -8 42 -6 46 21 68 17 14 29 33 29 47 0 27 3 29 43 39 26 6 29 3
53 -49 l25 -55 -26 -22 c-25 -22 -26 -24 -11 -53 21 -40 20 -52 -4 -65 -17 -9
-18 -15 -10 -31 6 -11 13 -42 15 -69 5 -57 -10 -76 -52 -65 -49 11 -73 33 -73
64 0 24 -15 41 -35 41 -2 0 -9 -17 -14 -37 -10 -34 -8 -40 11 -54 l21 -16 -24
-49 c-12 -27 -31 -58 -41 -68 -10 -11 -19 -25 -19 -30 -2 -12 -2 -12 12 -76 6
-25 11 -52 13 -60 1 -8 6 -30 10 -48 5 -22 4 -38 -5 -48 -10 -13 -9 -21 5 -45
9 -16 14 -34 11 -39 -4 -6 3 -25 14 -44 22 -36 28 -95 11 -112 -6 -6 -13 -36
-15 -67 -2 -31 -9 -66 -15 -77 -6 -11 -8 -36 -4 -54 3 -19 2 -41 -2 -48 -5 -7
-7 -38 -5 -69 1 -31 -3 -74 -9 -96 -10 -34 -10 -49 5 -92 9 -28 21 -51 26 -51
5 0 9 -7 9 -15 0 -9 12 -27 26 -40 22 -20 24 -26 13 -44 -11 -17 -10 -23 4
-39 22 -25 21 -33 -8 -61 -29 -27 -30 -34 -10 -51 13 -10 19 -10 33 4 23 20
42 21 42 1 0 -8 5 -15 10 -15 21 0 8 -26 -21 -43 -29 -16 -31 -20 -25 -55 4
-20 10 -62 15 -92 4 -30 11 -62 15 -70 4 -10 -2 -25 -15 -39 -28 -29 -17 -51
32 -67 41 -14 51 -47 20 -64 -22 -11 -27 -40 -11 -69 5 -10 10 -41 12 -70 2
-37 8 -53 20 -56 21 -7 68 4 68 16 0 5 17 17 38 28 34 17 39 25 51 80 8 36 10
72 6 88 -13 46 -7 153 10 189 9 19 13 39 10 44 -3 6 0 13 8 16 14 5 16 67 4
104 -14 40 -17 72 -8 88 6 12 6 34 0 62 -8 36 -7 47 5 56 22 15 22 97 1 169
-9 33 -19 78 -21 100 -18 170 -28 233 -40 267 -11 32 -12 54 -3 107 6 36 10
131 10 211 -1 80 -2 191 -2 246 -1 72 4 110 14 131 10 19 12 34 6 44 -13 21
-11 27 12 50 22 22 22 22 4 56 -17 31 -17 36 -3 61 13 22 14 40 6 102 -11 97
-25 139 -55 171 l-25 27 17 65 c11 46 13 71 7 84 -7 12 -7 25 -1 36 6 10 6 24
1 34 -13 24 1 188 18 207 25 31 124 12 162 -31 10 -11 22 -49 27 -89 6 -38 13
-87 17 -109 4 -22 7 -50 6 -62 -3 -49 -3 -61 2 -138 3 -44 6 -97 6 -119 -1
-21 8 -52 18 -70 12 -22 18 -49 17 -91 -2 -65 10 -105 32 -105 19 0 16 -14 -7
-35 -24 -21 -25 -34 -7 -69 14 -27 15 -47 3 -133 -9 -58 -1 -93 19 -93 19 0
24 -21 12 -48 -8 -17 -6 -31 6 -57 9 -19 22 -35 28 -35 6 0 8 -9 3 -22 -14
-44 -17 -84 -18 -268 -1 -195 11 -410 25 -447 5 -13 21 -26 41 -31 l33 -8 1
-68 c1 -53 6 -70 20 -82 18 -13 18 -15 2 -25 -19 -10 -25 -39 -9 -39 5 0 17
-7 25 -16 14 -14 14 -18 1 -37 -19 -27 -19 -42 1 -62 22 -21 12 -41 -25 -48
-30 -6 -31 -9 -31 -54 0 -27 7 -56 14 -65 20 -27 65 -22 98 9 23 22 30 24 43
13 23 -19 18 -38 -15 -55 -18 -9 -30 -23 -30 -36 0 -11 -12 -31 -26 -44 -24
-22 -26 -30 -20 -67 19 -120 19 -130 2 -140 -20 -11 -20 -29 1 -65 24 -42 11
-79 -34 -101 -23 -10 -45 -31 -57 -55 -18 -34 -18 -39 -4 -53 18 -19 136 -21
168 -4 20 11 56 68 52 83 -1 4 7 18 19 30 11 13 19 31 16 43 -6 33 25 87 58
103 38 18 58 43 42 53 -6 4 -12 36 -12 75 -1 52 4 80 22 116 24 51 29 77 15
77 -15 0 -31 47 -21 57 6 6 14 38 19 72 7 51 5 72 -11 121 -11 33 -17 71 -13
84 3 13 -1 37 -9 53 -11 21 -12 34 -5 47 5 10 7 34 3 54 -4 21 -7 64 -8 98 -1
33 -8 68 -15 76 -24 29 -35 191 -46 682 -1 43 -4 51 -27 60 -14 6 -34 17 -43
25 -15 12 -22 12 -53 -3 -42 -20 -70 -7 -53 24 12 22 -4 37 -44 42 -16 1 -34
11 -40 20 -8 14 -4 24 20 50 40 43 59 80 74 148 13 59 34 90 59 90 9 0 22 4
30 9 22 14 -2 37 -44 45 -61 12 -61 71 -1 170 20 33 36 67 36 77 0 24 -27 84
-44 98 -25 21 -12 54 30 83 41 29 70 35 76 18 2 -6 43 -12 94 -14 88 -3 134
-16 134 -37 0 -6 22 -36 50 -66 42 -45 48 -58 44 -83 -5 -22 -2 -31 15 -39 22
-12 28 -45 11 -56 -17 -11 -1 -127 22 -151 17 -20 18 -22 2 -35 -17 -14 -44
-69 -44 -88 0 -6 12 -21 27 -35 26 -24 26 -26 9 -45 -16 -18 -17 -21 0 -52 13
-26 14 -37 5 -51 -9 -14 -9 -24 0 -40 8 -14 10 -55 6 -117 -2 -53 -1 -122 4
-155 6 -32 11 -90 14 -130 2 -39 10 -118 18 -176 10 -75 12 -145 7 -245 -4
-90 -3 -146 3 -157 7 -11 7 -28 0 -55 -17 -60 -6 -99 38 -135 23 -19 39 -40
39 -52 0 -23 45 -96 66 -109 36 -21 23 -133 -18 -162 -18 -12 -19 -17 -8 -30
7 -8 18 -15 25 -15 6 0 20 -9 30 -20 17 -18 16 -19 -9 -26 -29 -7 -34 -22 -11
-30 24 -10 17 -34 -15 -52 -20 -11 -30 -26 -31 -42 -10 -168 -5 -242 17 -265
10 -9 25 -12 45 -8 39 8 58 -17 59 -78 0 -61 29 -99 74 -99 62 0 83 55 81 205
-2 112 -27 190 -66 211 -26 13 -30 20 -24 41 3 14 1 31 -6 39 -10 12 -5 22 26
54 21 22 42 37 47 34 17 -11 7 24 -12 41 -15 14 -34 18 -84 16 -74 -2 -92 15
-49 49 30 23 43 25 43 7 0 -19 37 -51 44 -39 3 5 19 12 35 15 37 8 51 43 24
62 -17 13 -17 15 0 44 11 19 16 39 12 52 -4 11 0 30 8 42 20 31 27 78 14 97
-7 12 -7 27 1 49 9 26 9 37 -4 56 -9 13 -17 54 -19 95 -3 40 -9 78 -15 85 -16
19 -30 166 -19 187 6 10 7 22 4 27 -3 5 0 22 5 37 8 20 6 40 -7 83 -15 48 -17
92 -15 301 2 154 -2 264 -9 295 -6 28 -11 61 -11 75 -1 61 5 172 15 246 7 60
7 86 -2 103 -17 32 -6 54 36 74 36 16 39 16 76 -3 21 -12 57 -22 79 -24 48 -5
51 -7 50 -43 0 -41 25 -83 49 -83 24 0 35 -25 20 -44 -18 -22 -21 -54 -5 -67
8 -6 14 -22 14 -35 0 -24 2 -30 33 -92 9 -19 17 -52 17 -75 0 -33 -6 -46 -27
-62 -24 -20 -25 -24 -15 -55 7 -18 12 -44 12 -57 0 -14 7 -32 16 -40 10 -10
14 -26 11 -42 -3 -16 4 -41 18 -66 22 -38 23 -42 9 -83 -13 -38 -13 -45 0 -64
12 -16 14 -36 10 -74 -4 -29 -3 -61 2 -71 13 -29 55 -294 54 -341 -1 -29 6
-51 20 -69 24 -30 26 -60 6 -82 -13 -14 -12 -22 10 -66 13 -28 24 -59 24 -71
0 -32 18 -44 51 -32 22 7 36 6 60 -6 18 -9 36 -16 41 -16 4 0 17 -9 28 -20 23
-23 59 -26 82 -7 14 11 30 56 28 82 0 6 -1 45 -3 87 -2 70 -5 80 -29 103 -16
15 -28 36 -28 50 0 23 -41 75 -60 75 -15 0 -22 38 -10 60 6 11 9 24 6 28 -3 5
4 23 15 40 20 34 27 116 10 126 -9 6 -6 118 5 169 3 15 1 34 -6 42 -6 7 -10
19 -9 27 4 19 -11 58 -22 58 -5 0 -9 6 -9 14 0 8 -5 16 -11 18 -7 2 -7 12 0
31 10 25 8 29 -16 38 l-27 10 22 22 c38 37 62 69 62 82 0 14 -32 45 -47 45 -6
0 -18 12 -28 26 -16 25 -16 27 4 48 12 12 21 29 21 37 0 8 6 21 13 28 10 10 5
18 -23 42 l-35 29 29 24 c17 14 24 26 17 30 -7 4 -7 15 -1 31 5 14 7 31 4 39
-3 8 4 24 16 36 15 15 21 31 19 55 -4 39 15 65 46 65 13 0 36 7 51 15 48 25
121 18 189 -19 50 -26 61 -36 63 -61 2 -17 14 -41 27 -55 13 -14 25 -37 27
-52 3 -29 -25 -68 -51 -68 -14 -1 -14 -2 -1 -13 8 -7 22 -25 30 -41 30 -59 35
-66 48 -66 23 0 26 -31 3 -46 -11 -8 -21 -21 -21 -29 0 -7 -12 -27 -26 -45
-25 -29 -25 -32 -10 -49 9 -10 16 -29 16 -43 0 -17 11 -35 30 -51 35 -30 37
-38 10 -62 -13 -12 -19 -30 -19 -54 1 -20 -3 -48 -9 -62 -6 -15 -8 -29 -5 -32
10 -10 10 -132 1 -205 -8 -60 -6 -81 7 -116 9 -24 16 -63 16 -87 0 -24 -1 -64
-1 -88 0 -24 11 -82 26 -127 l26 -83 -20 -26 c-20 -25 -20 -27 -4 -43 9 -10
24 -28 32 -40 10 -16 28 -25 58 -29 25 -3 46 -13 52 -23 13 -24 90 -46 101
-28 5 7 6 21 3 31 -4 13 1 17 25 17 35 0 48 15 30 36 -10 12 -7 20 16 44 26
27 26 30 11 51 -9 13 -16 35 -16 50 0 36 -43 164 -62 186 -27 30 -49 83 -41
96 4 7 11 35 15 62 4 28 12 79 18 115 12 72 7 106 -21 162 -11 21 -19 52 -19
69 0 18 -7 40 -16 50 -15 16 -14 19 10 40 20 17 26 32 26 64 0 22 -6 50 -14
61 -8 11 -17 37 -21 57 -6 29 -4 37 8 37 8 0 20 7 27 15 10 12 8 19 -10 38
-13 13 -23 28 -23 33 0 5 -8 15 -18 22 -26 18 -24 48 5 67 19 13 25 28 31 78
6 55 4 63 -14 78 -25 20 -18 57 13 64 136 28 158 23 178 -37 10 -33 20 -44 47
-53 44 -14 49 -28 16 -43 -32 -15 -32 -30 0 -42 20 -8 24 -16 23 -44 -1 -19 7
-47 16 -62 17 -25 17 -27 -3 -55 -26 -35 -26 -45 -1 -52 15 -4 20 -14 20 -36
0 -24 4 -31 20 -31 35 0 46 -43 27 -98 -25 -70 -22 -86 23 -116 41 -27 51 -46
25 -46 -8 0 -15 -6 -16 -12 -1 -7 -3 -31 -5 -53 -2 -25 2 -45 11 -55 11 -12
14 -32 10 -68 -2 -29 1 -65 6 -81 6 -18 7 -53 1 -94 -7 -56 -6 -71 11 -102 18
-37 18 -37 -2 -59 -22 -23 -28 -56 -12 -56 23 0 33 -99 45 -411 2 -60 21 -98
60 -124 21 -14 24 -24 25 -83 3 -127 8 -167 25 -199 26 -48 33 -129 12 -151
-19 -21 -32 -130 -18 -151 6 -7 31 -15 58 -17 30 -2 55 -11 69 -24 38 -35 75
-20 75 32 0 16 7 45 15 65 8 19 15 46 15 59 0 14 10 30 25 40 34 22 40 49 16
73 -26 26 -27 61 -1 93 12 16 16 28 10 34 -6 6 -6 21 2 40 6 18 8 39 3 50 -4
10 -7 29 -6 42 2 13 -5 34 -13 47 -16 24 -16 85 0 195 4 29 0 41 -25 68 -29
31 -31 37 -25 86 4 30 2 68 -4 87 -6 19 -13 55 -16 81 -3 25 -14 63 -25 85
-16 31 -18 46 -11 77 6 28 5 49 -5 72 -7 18 -11 34 -9 37 3 3 7 65 9 138 2 74
7 144 11 157 4 13 2 22 -5 22 -16 0 -14 30 3 49 13 14 13 23 0 71 -8 30 -21
70 -30 88 -14 31 -14 33 17 78 33 48 33 51 15 189 -3 17 -9 79 -15 139 -10 94
-9 112 4 133 22 33 44 28 94 -21 40 -41 43 -47 39 -88 -3 -23 -6 -50 -9 -58
-3 -10 10 -18 43 -26 74 -19 71 -14 54 -119 -2 -11 -6 -27 -9 -35 -4 -8 -6
-35 -4 -60 2 -36 6 -45 22 -48 11 -2 30 -13 42 -24 18 -17 25 -19 37 -9 24 20
59 9 70 -22 12 -32 -13 -73 -60 -97 -16 -8 -31 -16 -33 -18 -3 -1 3 -18 12
-38 13 -26 16 -48 11 -85 -4 -27 -10 -49 -15 -49 -16 0 -9 -71 9 -98 10 -15
17 -38 15 -52 -5 -44 20 -174 37 -197 19 -24 16 -55 -10 -140 -15 -49 -3 -173
31 -308 24 -94 41 -125 72 -125 12 0 30 -7 40 -14 11 -9 42 -13 93 -11 72 2
77 3 111 38 l36 35 -12 109 c-7 59 -14 123 -15 141 -1 17 -13 43 -26 57 -37
39 -55 192 -27 235 10 17 9 26 -5 50 -14 24 -15 35 -6 55 9 19 7 28 -11 50
-11 15 -18 32 -15 37 3 5 7 65 9 133 2 89 -1 139 -13 180 -12 44 -13 65 -5 96
6 22 7 42 3 44 -17 10 -20 69 -5 91 22 34 14 142 -13 163 -30 24 -43 56 -38
96 4 29 -1 42 -26 71 -27 31 -30 39 -24 80 8 61 20 80 69 110 23 15 52 37 65
51 27 27 48 25 100 -14 33 -25 39 -50 33 -145 -1 -20 3 -46 9 -57 6 -12 13
-40 16 -63 3 -24 15 -56 26 -72 12 -16 21 -37 20 -45 -1 -9 1 -51 5 -94 5 -76
6 -78 34 -84 16 -3 29 -10 29 -16 0 -6 9 -21 21 -33 18 -19 19 -27 10 -59 -6
-24 -7 -45 0 -63 7 -18 6 -34 -2 -53 -13 -32 -6 -49 20 -49 13 0 18 -7 17 -27
-1 -16 2 -33 7 -40 5 -7 -1 -18 -18 -29 -19 -13 -25 -23 -21 -39 3 -12 -1 -30
-9 -41 -21 -28 -18 -53 10 -90 14 -18 25 -38 25 -44 0 -7 10 -20 23 -30 l22
-18 -23 -25 c-20 -21 -22 -29 -13 -46 7 -11 12 -36 12 -53 0 -18 1 -49 1 -68
1 -19 -6 -66 -15 -105 -10 -38 -24 -121 -33 -182 -20 -138 -16 -148 59 -139
35 5 62 2 94 -10 38 -15 52 -16 89 -6 24 6 57 9 75 5 l32 -6 -7 36 c-4 21 -2
38 4 42 15 9 12 63 -6 142 -9 41 -13 88 -10 118 3 27 6 57 7 65 1 8 -5 31 -14
51 -14 31 -14 39 -1 63 8 16 14 39 14 52 0 12 4 25 9 29 16 9 40 107 40 165 1
30 3 96 5 145 3 62 0 107 -11 143 -8 29 -12 59 -9 67 3 8 -8 56 -25 107 -16
51 -27 103 -24 114 2 12 -2 41 -10 64 -8 23 -17 56 -19 73 -3 18 -12 70 -21
117 -9 47 -18 101 -20 121 -1 20 -8 46 -14 57 -6 11 -11 30 -11 40 0 34 42
131 59 137 9 3 42 29 74 59 32 29 74 62 93 72 34 19 34 19 59 -6 21 -21 24
-30 16 -55 -4 -17 -5 -39 -1 -50 4 -11 6 -45 5 -75 -1 -30 6 -85 16 -122 15
-56 16 -79 8 -132 -8 -52 -7 -70 5 -94 8 -16 15 -44 14 -63 0 -19 8 -59 17
-89 10 -30 20 -75 22 -100 3 -28 14 -54 28 -70 28 -31 36 -81 23 -138 -10 -42
-10 -44 22 -71 24 -20 31 -31 24 -42 -13 -20 -5 -204 12 -274 20 -85 33 -190
27 -214 -4 -15 4 -30 27 -51 38 -36 47 -36 105 -9 32 15 55 19 79 15 23 -4 37
-2 42 6 16 25 37 125 40 181 1 32 4 60 7 63 2 3 2 82 0 177 -3 95 -5 186 -5
202 0 17 -5 84 -10 150 -8 98 -15 131 -38 180 -23 49 -29 74 -29 137 0 46 -6
89 -14 105 -8 16 -22 64 -32 108 -10 44 -23 98 -29 120 -8 27 -9 59 -3 98 6
46 4 69 -9 110 -21 61 -21 180 0 211 7 12 36 45 65 74 28 29 51 59 51 67 0 8
3 15 8 15 4 0 30 22 57 50 28 27 59 50 71 50 33 0 63 -41 70 -96 4 -27 14 -60
22 -74 36 -56 61 -154 62 -238 0 -46 5 -93 11 -104 20 -38 10 -286 -13 -315
-6 -7 -3 -33 7 -72 12 -46 13 -66 5 -81 -8 -15 -7 -36 4 -81 9 -33 16 -73 16
-87 0 -15 7 -35 15 -46 10 -13 11 -25 4 -43 -11 -30 6 -63 46 -89 18 -12 25
-25 25 -48 0 -44 76 -126 116 -126 16 0 46 -5 67 -11 32 -9 42 -8 57 6 46 42
71 154 75 340 2 102 -6 136 -52 219 -10 18 -16 49 -14 77 1 25 -7 79 -18 120
-11 41 -19 85 -19 99 0 14 -6 59 -13 100 -10 62 -22 416 -17 510 6 125 -12
346 -37 425 -29 98 -12 158 63 223 28 25 52 53 52 61 1 41 32 97 83 148 31 31
59 66 62 77 20 74 33 99 86 159 48 55 63 82 85 150 14 45 26 101 25 123 -1 25
6 55 18 75 10 19 22 65 26 104 4 39 11 77 16 87 5 9 11 54 14 100 3 45 13 112
21 148 19 74 21 164 5 184 -12 14 -13 34 -11 256 1 82 6 150 12 157 5 7 7 25
4 40 -3 15 -8 57 -11 92 -3 35 -7 67 -9 70 -4 6 7 104 19 174 4 21 2 59 -4 85
-9 36 -8 57 2 91 11 36 11 55 1 100 -26 121 -26 125 3 167 33 48 40 119 16
147 -16 17 -14 22 20 90 20 40 37 78 37 85 0 7 11 34 25 61 18 36 23 58 18 84
-4 26 0 43 14 64 18 25 19 43 17 180 -2 84 -8 162 -14 172 -5 11 -10 32 -10
48 0 35 -32 88 -62 104 -13 6 -34 22 -48 34 -50 46 -125 55 -453 55 l-108 0
-34 32 c-119 115 -150 151 -147 173 2 13 -4 37 -12 54 -9 16 -16 43 -16 59 0
28 -26 62 -47 62 -17 0 -71 67 -89 108 -8 20 -26 48 -38 62 -13 14 -33 43 -44
65 -25 50 -61 84 -98 94 -22 5 -30 14 -32 34 -2 15 -7 27 -11 27 -9 0 -84 65
-140 121 -33 33 -110 80 -153 93 -11 3 -18 15 -18 29 0 14 -7 30 -16 38 -8 7
-22 26 -30 42 -13 24 -20 28 -42 24 -40 -8 -71 12 -82 53 -16 59 -121 172
-183 197 -23 10 -39 24 -43 38 -7 29 -29 48 -74 65 -50 19 -100 58 -110 86 -6
13 -21 29 -34 34 -13 5 -27 18 -31 30 -3 11 -24 29 -46 41 -22 11 -44 31 -49
45 -5 13 -24 33 -42 44 -18 11 -52 44 -76 74 -45 56 -80 73 -171 82 -18 2 -41
10 -51 19 -9 8 -22 15 -28 15 -6 0 -20 14 -32 31 -19 26 -28 30 -58 27 -30 -2
-39 1 -48 21 -15 28 -32 41 -59 41 -11 0 -37 11 -57 25 -20 14 -45 25 -56 25
-10 0 -33 11 -52 25 -19 14 -41 25 -49 25 -9 0 -43 14 -76 30 -39 20 -75 30
-105 30 -28 0 -56 8 -75 20 -32 21 -71 26 -95 10 -8 -5 -19 -5 -25 -1 -5 5
-30 11 -53 15 -24 4 -60 15 -80 25 -29 14 -70 20 -187 24 -97 4 -165 11 -194
21 -51 19 -79 20 -105 4z m273 -364 c21 -17 45 -27 78 -29 90 -7 168 -21 190
-33 12 -7 33 -12 47 -12 14 0 42 -11 62 -25 22 -15 51 -25 73 -25 20 0 45 -7
55 -15 11 -8 33 -15 49 -15 15 0 47 -11 70 -24 23 -12 69 -29 102 -35 59 -13
85 -22 115 -40 8 -5 34 -14 57 -20 23 -6 48 -17 55 -25 7 -7 26 -16 42 -20 17
-4 42 -18 58 -31 19 -16 47 -26 85 -30 48 -6 65 -14 98 -44 69 -65 147 -121
167 -121 10 0 22 -10 28 -24 5 -13 26 -36 48 -52 21 -15 44 -39 50 -53 7 -15
30 -34 51 -45 38 -18 82 -58 112 -102 47 -71 135 -167 160 -176 16 -5 29 -15
29 -22 0 -7 16 -27 35 -46 19 -19 35 -38 35 -42 0 -4 13 -29 29 -56 22 -35 45
-55 88 -78 42 -22 57 -35 55 -48 -2 -10 13 -34 35 -56 21 -22 48 -51 61 -65
17 -20 29 -25 46 -21 17 4 26 0 36 -19 8 -14 54 -68 104 -119 105 -108 173
-192 197 -240 9 -18 28 -50 44 -70 15 -20 24 -36 20 -36 -4 0 -1 -10 7 -22 19
-29 13 -45 -23 -64 -24 -12 -66 -15 -217 -13 -106 1 -207 -3 -232 -9 -25 -6
-86 -13 -136 -16 l-91 -6 -31 40 c-18 21 -31 49 -31 62 2 27 -20 188 -32 238
-18 74 -72 126 -94 90 -3 -5 -23 -10 -44 -10 -20 0 -62 -7 -92 -16 -45 -14
-80 -15 -219 -9 -91 4 -174 6 -185 5 -39 -4 -321 -11 -360 -9 -22 1 -58 2 -80
1 -22 0 -133 -1 -247 -1 -152 0 -215 -4 -240 -14 -24 -10 -41 -11 -63 -4 -18
7 -133 10 -287 9 -141 -2 -259 1 -262 6 -3 5 -54 8 -113 7 -116 -2 -235 -30
-282 -66 -13 -11 -40 -19 -60 -19 -47 0 -73 -19 -116 -85 -19 -30 -46 -62 -60
-71 -15 -10 -44 -44 -67 -76 -34 -50 -43 -59 -66 -56 -24 3 -27 7 -25 38 2 19
3 55 3 78 0 24 5 53 11 64 9 17 6 25 -18 50 -17 16 -43 31 -59 34 -83 12 -343
36 -369 34 -30 -3 -147 -3 -260 0 -57 2 -109 -5 -250 -30 -33 -6 -141 -12
-240 -15 -99 -2 -227 -5 -285 -6 -121 -3 -234 5 -304 22 -58 14 -284 -5 -328
-27 -15 -8 -40 -14 -56 -14 -16 0 -47 -7 -68 -16 -59 -25 -205 -64 -239 -64
-17 0 -36 5 -42 11 -19 19 -4 100 27 139 15 19 30 45 34 58 4 12 16 27 27 33
11 5 39 36 62 67 76 103 197 250 314 379 48 54 76 76 103 83 21 6 51 23 66 38
16 15 50 44 76 65 25 20 72 63 105 96 54 55 79 73 176 123 20 11 46 31 57 45
10 13 40 35 67 48 26 13 63 37 81 54 18 17 38 31 44 31 18 0 215 99 227 114 7
8 23 17 37 20 14 4 86 36 159 71 101 49 145 65 177 65 24 0 86 12 138 26 52
14 102 25 110 24 93 -14 240 6 314 41 22 11 56 19 75 19 20 0 50 8 66 19 17
10 48 24 69 31 21 7 55 27 75 45 54 49 89 63 136 54 28 -5 58 -1 100 12 33 10
77 19 97 19 20 0 39 4 43 9 3 6 47 9 98 9 50 0 105 4 121 11 19 8 50 9 83 5
32 -4 58 -2 66 4 14 12 73 30 104 31 12 1 35 -11 52 -25z m837 -1939 c10 -8
34 -15 52 -15 18 0 47 -7 63 -16 18 -9 38 -12 47 -8 10 4 44 13 77 20 50 10
61 9 68 -2 10 -18 51 -18 66 0 9 10 35 14 101 12 49 0 91 -3 93 -6 81 -89 87
-100 87 -163 0 -55 4 -67 39 -117 43 -61 81 -150 81 -189 0 -14 5 -39 12 -57
9 -26 9 -67 -2 -186 -7 -84 -12 -183 -12 -220 4 -185 -43 -243 -203 -254 -38
-3 -87 -12 -108 -20 -20 -8 -56 -14 -78 -14 -22 0 -50 -5 -62 -12 -19 -10
-193 -28 -312 -31 -42 -1 -385 12 -490 18 -33 3 -112 7 -175 10 -129 6 -183 8
-385 20 -131 7 -144 6 -205 -16 -72 -25 -155 -29 -174 -8 -18 20 -76 189 -76
222 0 16 -5 38 -12 50 -6 12 -13 73 -15 135 -3 62 -10 151 -17 197 -12 81 -11
87 22 217 19 76 31 145 28 161 -7 35 27 141 59 182 19 26 34 33 100 44 50 9
113 12 185 8 59 -3 111 -2 115 1 4 4 44 8 88 9 45 0 103 4 129 8 25 4 77 2
114 -4 53 -8 74 -7 94 3 19 9 42 10 86 4 32 -4 115 -10 184 -12 69 -2 135 -6
147 -10 16 -5 23 -2 27 11 4 13 18 19 52 21 26 1 54 7 63 12 21 13 24 12 47
-5z m-2910 -70 c4 -8 12 -15 19 -15 7 0 18 -6 25 -14 6 -8 18 -12 27 -9 8 3
19 0 24 -8 5 -8 9 -9 9 -2 0 13 65 53 87 53 8 0 27 -13 42 -29 25 -26 33 -29
72 -24 24 2 57 9 73 14 21 6 51 2 118 -17 136 -38 134 -36 142 -155 4 -55 11
-112 17 -125 6 -19 5 -31 -5 -46 -15 -21 -13 -78 4 -123 5 -14 5 -50 -2 -91
-7 -49 -7 -77 1 -103 7 -22 11 -81 8 -151 -2 -63 1 -125 6 -137 8 -17 5 -33
-8 -62 -16 -36 -16 -41 -1 -62 19 -28 21 -65 4 -75 -23 -14 -83 -3 -201 37
-65 22 -126 37 -136 34 -10 -3 -38 1 -62 9 -56 19 -152 38 -205 41 -22 1 -50
8 -61 14 -39 20 -502 13 -593 -9 -56 -14 -156 -28 -282 -41 -94 -10 -120 -10
-133 1 -8 7 -15 18 -15 25 0 6 -8 22 -19 34 -10 11 -22 44 -25 73 -4 28 -16
68 -27 89 -10 21 -19 48 -19 59 0 12 -18 56 -40 97 -33 63 -40 86 -40 132 0
40 -6 66 -22 91 -47 74 -50 82 -37 111 10 26 9 48 -5 167 -2 18 -9 39 -15 46
-14 17 -4 91 14 106 22 18 128 44 174 42 24 -1 50 3 57 9 14 11 28 11 184 -8
30 -3 67 -15 81 -25 25 -19 28 -19 59 -3 25 13 46 15 90 10 41 -5 71 -2 104 9
26 9 52 13 58 10 6 -4 54 -8 107 -10 53 -1 108 -5 123 -9 20 -5 31 -2 45 14
12 15 29 21 60 21 23 0 45 5 48 10 10 16 65 12 71 -5z m1034 -90 c0 -8 -9 -15
-20 -15 -11 0 -20 7 -20 15 0 8 9 15 20 15 11 0 20 -7 20 -15z m-2640 -92 c0
-8 9 -28 20 -44 20 -27 20 -30 4 -54 -14 -22 -15 -31 -4 -69 6 -24 11 -52 9
-62 -5 -36 13 -102 32 -120 17 -16 18 -19 4 -34 -12 -13 -14 -33 -10 -90 3
-39 11 -84 19 -99 7 -14 11 -39 10 -56 -10 -120 -3 -270 15 -303 7 -13 15 -58
18 -100 3 -43 12 -87 19 -99 8 -12 14 -33 14 -46 0 -55 69 -105 175 -126 93
-18 161 -16 270 8 91 21 104 21 145 8 34 -11 60 -12 105 -5 33 5 78 11 100 14
22 3 63 17 92 30 50 25 53 25 104 11 37 -11 59 -13 77 -6 15 6 36 8 48 5 12
-3 36 -1 54 6 30 10 35 9 51 -11 20 -24 46 -22 75 6 13 14 23 14 66 5 27 -7
71 -12 98 -12 26 0 65 -7 86 -16 61 -26 154 -20 221 12 50 25 60 26 104 18 27
-6 53 -8 58 -5 5 3 34 4 65 3 47 -3 56 -7 56 -23 0 -10 -9 -23 -20 -29 -11 -6
-20 -18 -20 -26 0 -13 9 -15 56 -9 73 8 83 12 124 50 20 19 51 35 72 39 21 4
50 17 65 30 15 13 40 29 55 37 14 8 43 35 63 62 26 33 43 47 60 47 17 0 25 -6
25 -17 0 -27 52 -146 70 -160 19 -15 128 -49 200 -63 30 -6 116 -13 190 -16
83 -3 162 -12 205 -23 80 -21 106 -25 155 -21 94 6 150 3 207 -10 48 -11 67
-11 85 -2 13 6 37 13 53 16 17 3 48 8 70 11 22 4 50 11 62 17 23 11 57 5 138
-24 38 -14 50 -14 160 1 50 7 122 13 160 15 39 2 93 10 120 20 124 41 118 40
130 22 17 -22 38 -20 72 7 19 16 52 27 103 36 128 20 261 52 367 87 56 19 109
34 118 34 22 0 81 65 110 122 14 25 38 56 55 68 16 12 33 33 36 48 3 15 25 68
49 117 41 86 74 192 75 245 2 92 18 221 32 252 9 20 27 43 40 51 30 19 125 32
141 19 7 -5 44 -13 82 -16 107 -11 398 -13 419 -3 21 10 63 10 216 -1 92 -7
95 -8 109 -37 8 -16 20 -42 28 -57 7 -14 13 -33 13 -42 0 -8 9 -30 20 -48 11
-18 29 -63 41 -100 11 -37 25 -70 30 -73 5 -4 9 -17 9 -30 0 -25 9 -52 40
-120 63 -136 63 -137 66 -232 2 -63 8 -101 18 -115 11 -15 13 -34 9 -64 -3
-24 -1 -56 6 -71 6 -16 13 -125 16 -258 3 -126 8 -242 11 -256 3 -14 0 -44 -6
-65 -7 -21 -16 -61 -21 -89 -14 -86 -29 -168 -39 -213 -6 -23 -10 -80 -10
-125 0 -46 -9 -123 -20 -173 -11 -49 -20 -103 -20 -120 0 -17 -7 -51 -16 -75
-9 -24 -22 -68 -30 -97 -13 -50 -65 -163 -87 -191 -7 -7 -10 -26 -9 -41 2 -19
-6 -38 -27 -62 -23 -26 -27 -38 -19 -46 9 -9 7 -12 -8 -12 -16 0 -21 7 -21 33
-5 174 -13 341 -17 355 -3 9 -8 82 -11 162 -3 80 -10 188 -16 240 -5 52 -11
118 -12 145 -4 58 -26 141 -56 205 -11 25 -21 60 -21 79 0 49 -33 96 -85 120
-25 12 -48 21 -51 21 -4 0 -22 14 -42 31 -32 28 -40 31 -88 27 -55 -5 -88 -24
-97 -57 -2 -9 4 -43 14 -75 13 -41 17 -74 13 -110 -3 -28 0 -78 6 -111 6 -33
11 -77 10 -98 0 -27 8 -50 30 -80 26 -36 30 -53 35 -127 3 -47 8 -112 12 -145
3 -33 5 -106 4 -163 -2 -68 3 -118 12 -150 9 -26 18 -74 21 -107 5 -40 13 -67
28 -82 19 -20 21 -34 21 -160 1 -84 -4 -155 -12 -182 -7 -24 -13 -65 -13 -89
0 -25 -7 -56 -15 -69 -8 -12 -12 -30 -9 -39 4 -9 -2 -40 -13 -69 -11 -29 -17
-62 -14 -73 11 -43 -144 -242 -189 -242 -41 0 -61 42 -73 155 -10 98 -14 111
-51 151 -33 38 -34 42 -34 119 0 51 -5 88 -13 100 -9 13 -14 53 -14 109 -1 71
-5 94 -21 115 -22 31 -36 132 -33 241 1 42 -3 89 -10 105 -7 17 -13 57 -14 90
-4 107 -35 193 -93 257 -22 24 -25 36 -25 102 1 57 6 84 21 110 18 30 19 36 6
55 -13 18 -13 24 5 48 23 33 41 137 37 205 -4 48 -32 104 -69 139 -12 11 -26
34 -32 52 -11 36 -37 46 -61 22 -21 -21 -39 -14 -39 14 0 24 -20 41 -50 41
-23 0 -76 -61 -78 -90 -1 -12 -11 -21 -28 -25 -15 -4 -33 -12 -39 -20 -11 -13
-36 -248 -46 -430 -2 -44 -8 -96 -14 -115 -5 -19 -12 -51 -15 -71 -6 -38 -47
-85 -80 -91 -11 -2 -25 -13 -31 -26 -19 -39 -46 -62 -73 -62 -15 0 -42 -8 -61
-18 -19 -11 -41 -17 -47 -15 -18 7 -16 69 3 99 26 38 64 265 70 409 6 147 6
130 -2 210 -7 64 -23 86 -89 122 -16 8 -37 26 -47 38 -14 18 -31 23 -89 28
-82 7 -123 -9 -134 -51 -3 -13 -16 -40 -29 -60 -19 -30 -25 -57 -31 -142 -5
-58 -8 -121 -7 -140 0 -19 1 -84 1 -145 1 -60 5 -144 10 -185 7 -57 6 -80 -5
-96 -7 -12 -14 -46 -15 -75 -1 -30 -8 -66 -16 -81 -30 -62 -1 -118 62 -118 21
0 55 -5 75 -11 49 -15 80 -7 119 30 18 17 41 33 52 36 19 6 21 3 18 -37 -2
-23 0 -86 5 -138 7 -82 5 -103 -12 -155 -11 -33 -23 -96 -26 -140 -4 -43 -13
-104 -20 -135 -20 -85 -11 -326 15 -412 11 -38 17 -77 14 -88 -3 -11 -1 -29 6
-42 7 -12 12 -38 13 -58 1 -28 5 -36 24 -38 28 -4 29 -18 1 -25 -17 -5 -20
-10 -14 -29 3 -13 6 -32 4 -43 -9 -85 5 -203 27 -220 9 -7 11 -27 7 -72 -6
-61 -7 -63 -48 -86 -23 -13 -66 -27 -96 -30 -30 -3 -63 -9 -74 -12 -30 -9 -42
21 -61 150 -8 61 -19 135 -24 165 -7 49 -5 159 6 290 12 148 12 245 -1 270 -8
15 -17 58 -20 96 -4 38 -13 91 -21 118 -8 27 -14 66 -14 85 0 20 -9 47 -20 61
-11 14 -20 37 -20 52 0 16 -16 50 -34 76 -39 54 -54 89 -61 137 -2 18 -27 69
-56 113 l-52 80 -50 -4 c-112 -8 -153 -60 -103 -132 21 -31 25 -49 26 -112 0
-41 -2 -100 -6 -130 -6 -51 -4 -59 20 -87 29 -35 32 -50 12 -78 -23 -34 -29
-65 -12 -65 21 0 31 -39 13 -53 -21 -18 -28 -68 -12 -97 17 -29 19 -88 6 -123
-7 -17 -6 -30 4 -43 9 -14 12 -44 8 -104 -9 -167 -5 -201 27 -253 17 -27 30
-56 30 -64 0 -9 12 -50 26 -91 14 -41 23 -84 20 -96 -3 -11 -1 -39 5 -61 11
-44 -6 -134 -38 -203 -19 -41 -64 -66 -103 -57 -16 3 -45 2 -66 -4 -60 -16
-93 8 -95 69 0 19 -4 44 -8 55 -5 13 -1 40 11 75 15 43 18 69 13 120 -3 35
-11 70 -17 77 -7 9 -8 37 -4 81 10 97 8 267 -4 342 -6 36 -7 79 -3 95 3 17 7
48 9 70 1 22 4 69 7 105 7 99 -10 189 -43 227 -15 17 -30 37 -32 44 -3 8 -22
14 -51 15 -26 1 -67 5 -92 8 -66 10 -110 -18 -118 -75 -3 -23 -15 -51 -26 -63
-12 -13 -24 -34 -27 -47 -9 -43 -20 -183 -17 -229 1 -25 3 -135 4 -245 2 -133
7 -207 15 -220 6 -11 15 -56 18 -99 4 -44 11 -87 17 -97 9 -18 21 -144 20
-209 -2 -44 -31 -70 -80 -70 -45 0 -127 40 -123 59 2 8 -11 31 -28 52 -35 44
-35 40 -14 151 17 84 16 87 -3 120 -11 19 -20 54 -21 83 -3 71 -31 106 -95
120 -27 5 -28 8 -23 43 13 80 -50 97 -171 47 -24 -9 -43 -18 -43 -20 0 -1 7
-15 15 -31 10 -20 11 -32 3 -41 -6 -7 -7 -25 -4 -40 15 -62 27 -120 31 -148 2
-16 12 -55 23 -85 19 -54 19 -56 0 -125 -14 -50 -28 -78 -50 -99 -31 -28 -32
-28 -116 -22 -47 4 -94 12 -103 17 -10 5 -38 6 -62 3 -44 -6 -48 -5 -93 39
-46 43 -48 46 -35 70 10 19 11 33 2 58 -8 26 -7 43 4 74 22 63 18 87 -22 139
-45 59 -79 77 -113 64 -14 -5 -47 -8 -74 -5 -42 4 -53 1 -72 -18 -13 -13 -26
-36 -29 -52 -3 -15 -10 -43 -14 -60 -7 -26 -5 -38 11 -59 19 -23 19 -30 8 -67
-22 -77 -33 -87 -99 -87 -50 0 -64 4 -96 30 -25 20 -49 30 -72 30 -27 0 -35 5
-44 28 -6 15 -17 40 -25 55 -8 16 -14 42 -14 57 0 43 -28 142 -45 159 -22 23
-141 27 -188 7 -40 -16 -67 -61 -67 -111 0 -55 -98 -108 -130 -70 -7 8 -39 25
-72 37 -33 12 -62 27 -65 35 -3 7 -11 13 -18 13 -19 0 -74 30 -102 56 -15 14
-34 47 -44 74 -9 27 -31 66 -48 87 -51 64 -63 104 -47 155 11 37 11 47 -2 66
-13 19 -12 24 7 48 12 15 21 34 21 42 0 9 6 23 14 31 18 20 22 63 11 121 -10
57 -28 85 -66 100 -40 17 -126 6 -161 -20 -15 -11 -36 -20 -46 -20 -40 0 -66
-34 -68 -89 -2 -29 -6 -66 -10 -84 -4 -18 -8 -41 -10 -52 -1 -11 -3 -23 -3
-26 -2 -12 -43 -49 -55 -49 -8 0 -32 19 -54 42 -42 43 -54 77 -70 209 -4 31
-13 63 -19 70 -6 8 -13 28 -15 44 l-3 30 -73 -2 c-64 -2 -73 0 -70 15 2 10 18
19 43 24 22 5 44 13 49 18 6 6 14 6 22 -1 7 -6 18 -8 24 -4 13 8 13 35 0 35
-23 0 -7 19 28 33 33 13 37 19 36 48 -1 19 2 39 6 44 4 6 10 25 14 44 8 43
-15 81 -49 81 -13 0 -36 5 -52 11 -40 17 -114 18 -143 2 -14 -7 -37 -17 -52
-23 -26 -9 -33 -28 -30 -80 4 -73 15 -115 32 -127 11 -8 20 -18 20 -24 0 -15
-40 -10 -46 6 -8 19 -25 19 -68 -1 -36 -18 -86 -13 -86 8 0 6 -11 26 -25 44
-14 18 -25 44 -25 58 0 40 -38 96 -65 96 -35 0 -42 20 -15 42 21 17 23 23 13
49 -9 23 -9 31 0 33 7 1 35 11 62 20 28 10 65 21 84 24 46 9 53 37 45 177 -4
81 -2 124 9 165 8 30 13 72 11 94 -2 27 2 46 16 64 11 13 20 32 20 42 0 9 11
38 25 64 39 73 34 97 -25 135 l-50 33 -43 -21 c-24 -12 -59 -21 -78 -21 -45
-1 -69 -23 -102 -91 -20 -43 -33 -58 -54 -64 -14 -3 -40 -17 -56 -31 -34 -29
-52 -30 -110 -5 -39 17 -48 27 -81 96 -21 43 -44 84 -52 92 -8 8 -14 24 -14
36 -1 12 -7 33 -15 47 -8 14 -14 48 -15 75 0 28 -6 59 -14 70 -16 24 -53 135
-62 190 -4 22 -10 47 -15 56 -4 8 -10 50 -13 93 -6 78 -49 240 -67 251 -16 11
-49 83 -49 109 0 14 -5 28 -11 32 -30 18 -47 94 -54 240 -6 141 -7 150 -31
175 l-25 26 20 54 c12 30 21 63 21 75 0 11 7 29 15 40 8 10 15 38 15 60 0 44
24 126 60 209 12 29 19 59 15 73 -8 31 36 119 80 162 28 27 42 34 69 32 18 -1
52 6 76 17 46 20 70 18 70 -6z m2628 0 c-2 -17 -9 -28 -18 -28 -9 0 -16 11
-18 28 -3 22 1 27 18 27 17 0 21 -5 18 -27z m2400 -2635 c18 -18 14 -35 -10
-41 -26 -7 -48 8 -48 34 0 22 39 26 58 7z m516 -141 c17 -22 22 -50 28 -135
13 -189 14 -265 4 -367 -12 -133 -8 -235 10 -262 8 -12 14 -34 14 -48 0 -14 8
-38 18 -52 17 -27 20 -59 23 -313 3 -177 -21 -255 -84 -281 -47 -20 -69 0 -96
91 -15 50 -21 90 -18 110 4 20 -1 48 -14 81 -11 28 -17 60 -14 70 4 12 -4 37
-20 64 -19 34 -26 59 -26 98 1 101 -5 162 -18 185 -10 19 -10 30 -1 53 8 19
10 48 6 82 -9 63 -16 142 -16 181 0 16 -5 35 -11 42 -6 7 -8 26 -4 42 3 16 1
41 -5 56 -7 20 -7 40 0 68 7 26 8 44 1 51 -15 18 -11 105 5 121 8 8 14 21 14
28 0 33 30 57 78 61 87 7 104 4 126 -26z m-5559 -347 c-3 -5 -13 -10 -21 -10
-8 0 -14 5 -14 10 0 6 9 10 21 10 11 0 17 -4 14 -10z m20 -80 c4 -6 1 -18 -6
-26 -11 -13 -14 -13 -27 0 -8 8 -11 19 -8 25 9 14 33 14 41 1z m795 -194 c0
-11 -19 -15 -25 -6 -3 5 1 10 9 10 9 0 16 -2 16 -4z m-756 -1294 c10 -16 -19
-82 -36 -82 -22 0 -24 18 -4 26 8 3 12 12 9 20 -10 28 16 60 31 36z m1291
-318 c12 -5 14 -9 4 -14 -15 -10 -41 -1 -33 11 6 11 8 11 29 3z m2193 -86 c-7
-19 -38 -22 -38 -4 0 10 9 16 21 16 12 0 19 -5 17 -12z m-78 -143 c0 -8 -6
-15 -14 -15 -17 0 -28 14 -19 24 12 12 33 6 33 -9z m39 -78 c6 -8 8 -17 4 -20
-11 -12 -50 -7 -62 7 -10 12 -8 15 11 19 13 2 26 5 29 6 4 0 12 -5 18 -12z
m10 -313 c3 -2 -4 -11 -15 -19 -24 -19 -79 -16 -79 5 0 23 72 34 94 14z m1189
-81 c-16 -16 -48 -8 -48 12 0 7 12 18 28 23 21 7 28 6 30 -6 2 -8 -2 -21 -10
-29z m-2460 -920 c2 -8 -5 -13 -17 -13 -21 0 -35 13 -24 24 10 10 36 3 41 -11z
m-723 -337 c0 -10 10 -22 22 -27 28 -10 20 -39 -11 -39 -22 1 -42 13 -65 43
-11 14 -11 20 -1 32 18 22 55 15 55 -9z"/>
<path d="M28700 17226 c-89 -25 -280 -155 -280 -191 0 -26 120 -135 176 -160
49 -22 60 -23 144 -15 50 5 99 14 108 22 37 29 77 82 90 120 12 36 11 43 -8
81 -28 54 -85 113 -132 138 -42 22 -38 21 -98 5z"/>
<path d="M25866 17211 c-3 -4 -23 -11 -44 -15 -32 -5 -45 -15 -80 -62 -47 -63
-50 -84 -30 -190 15 -85 54 -134 106 -134 20 0 54 6 77 14 22 8 61 18 87 21
39 5 53 13 75 42 33 44 34 77 2 195 -21 80 -26 88 -63 112 -40 26 -118 36
-130 17z"/>
<path d="M27822 15776 c-50 -47 -51 -53 -52 -198 0 -28 -1 -46 -4 -155 -3 -94
-2 -105 20 -134 18 -24 21 -36 14 -55 -6 -15 -6 -42 1 -72 10 -39 9 -59 -5
-105 -9 -32 -14 -62 -11 -68 4 -5 27 -7 56 -3 71 9 151 -24 167 -70 15 -42 8
-60 -33 -86 -41 -25 -100 -26 -179 -1 -159 50 -233 71 -256 71 -14 0 -56 9
-95 19 -84 23 -238 51 -281 51 -17 0 -45 5 -63 11 -28 10 -31 15 -31 52 0 36
5 45 33 64 18 12 46 22 62 21 196 -6 234 5 261 72 9 22 20 40 25 40 5 0 9 9 9
20 0 11 3 20 8 20 14 1 44 52 55 98 7 26 12 72 11 102 -2 30 2 65 9 78 8 17 8
25 -1 34 -7 7 -12 20 -12 29 0 28 -59 109 -80 109 -10 0 -30 6 -46 14 -20 11
-33 12 -46 5 -11 -6 -36 -8 -56 -4 -32 5 -45 1 -92 -33 -31 -22 -53 -45 -51
-53 2 -8 4 -44 5 -81 2 -66 2 -67 -26 -77 -16 -6 -40 -19 -54 -30 -29 -23 -54
-18 -54 10 0 20 -39 35 -64 26 -8 -3 -28 8 -45 24 -27 26 -38 29 -84 28 -48
-2 -56 -6 -100 -50 -45 -44 -48 -50 -46 -94 4 -64 -26 -84 -69 -46 -25 21 -27
33 -10 61 20 32 -2 45 -52 32 -34 -8 -43 -7 -57 6 -10 11 -41 19 -82 23 -101
9 -148 -13 -178 -81 -31 -71 -50 -202 -34 -234 8 -14 9 -36 2 -71 -7 -37 -6
-56 4 -75 7 -14 16 -41 20 -61 5 -28 2 -38 -14 -53 -12 -11 -21 -27 -21 -37 0
-20 20 -69 29 -70 3 0 14 -2 23 -4 22 -4 97 -8 121 -6 23 1 107 88 107 110 0
9 4 21 8 27 23 25 53 133 47 165 -5 28 -2 39 14 53 12 11 21 28 21 38 0 36 29
78 55 78 13 0 27 -6 32 -12 18 -29 35 -106 34 -153 -2 -40 -8 -56 -31 -80 -16
-16 -34 -43 -39 -58 -16 -41 -13 -123 4 -157 23 -44 2 -126 -56 -216 -11 -18
-20 -49 -21 -70 0 -22 -5 -47 -10 -57 -5 -10 -11 -41 -14 -70 -3 -29 -7 -71
-10 -93 -4 -29 -1 -52 11 -75 28 -55 86 -129 100 -129 8 0 20 -8 27 -18 19
-27 46 -38 105 -45 29 -3 66 -13 84 -23 18 -9 55 -16 83 -16 54 0 100 -10 153
-34 40 -18 57 -18 74 2 9 11 24 15 50 11 25 -3 47 1 66 13 38 23 86 34 148 35
54 1 195 52 255 91 74 49 155 117 176 148 12 18 47 45 78 62 39 21 82 60 148
134 172 192 160 174 165 243 5 83 -8 104 -90 147 -95 49 -110 82 -62 134 14
15 25 34 25 42 0 8 13 27 29 42 51 47 52 58 37 337 -6 100 -20 175 -42 219 -8
16 -17 48 -20 70 -10 66 -25 79 -98 84 -52 3 -69 9 -87 28 -32 34 -54 30 -107
-20z m-657 -1067 c33 -6 69 -12 80 -13 11 -1 30 -8 42 -14 12 -7 54 -19 93
-27 39 -8 88 -24 109 -35 66 -33 114 -46 168 -45 63 2 80 -12 85 -69 4 -48
-22 -70 -105 -92 -32 -8 -82 -30 -110 -48 -57 -36 -110 -62 -197 -94 -109 -41
-127 -44 -222 -37 -51 4 -104 8 -118 9 -30 2 -140 81 -140 100 0 7 -9 21 -20
31 -30 27 -35 77 -16 163 34 152 44 161 196 172 52 4 95 7 96 8 0 1 27 -3 59
-9z"/>
<path d="M30232 15668 c5 -15 28 -18 29 -3 0 6 -7 12 -17 13 -10 3 -15 -1 -12
-10z"/>
<path d="M25707 15507 c-35 -25 -38 -32 -33 -59 3 -17 1 -60 -5 -95 -9 -49 -8
-67 1 -78 8 -9 10 -27 6 -46 -3 -18 0 -39 8 -52 13 -19 27 -147 30 -270 1 -21
7 -42 15 -46 12 -8 12 -19 2 -70 -7 -34 -9 -71 -6 -82 6 -17 12 -19 49 -14 38
6 44 4 49 -14 3 -12 13 -21 25 -21 17 0 20 8 24 60 5 71 15 84 65 85 33 0 39
4 64 50 21 36 28 64 29 101 0 28 7 74 15 102 15 48 14 56 -3 114 -14 45 -17
70 -10 93 4 16 6 46 3 65 -3 19 1 57 9 84 12 39 12 55 3 85 l-12 36 -144 0
c-143 0 -145 0 -184 -28z"/>
<path d="M28577 15448 c-45 -33 -57 -47 -57 -69 0 -16 -5 -40 -12 -54 -8 -17
-8 -32 -1 -47 7 -16 7 -31 0 -48 -6 -14 -11 -52 -12 -85 -1 -33 -6 -85 -10
-115 -5 -30 -8 -66 -6 -80 1 -14 3 -61 5 -105 3 -111 3 -110 29 -142 13 -15
27 -40 31 -55 12 -50 56 -46 124 13 24 22 39 27 60 23 35 -7 47 6 63 68 11 41
11 49 -4 66 -24 26 -21 38 12 63 32 24 67 90 58 112 -3 8 1 23 8 34 8 11 16
44 18 74 3 30 11 80 18 112 9 44 9 61 0 70 -6 6 -11 24 -11 40 0 19 -14 44
-42 78 -41 47 -45 49 -94 49 -38 0 -55 5 -69 20 -26 29 -44 25 -108 -22z"/>
<path d="M25285 15424 c-86 -35 -89 -38 -97 -75 -3 -19 -13 -54 -21 -79 -13
-41 -12 -48 5 -88 23 -51 18 -101 -13 -140 -25 -32 -24 -40 11 -107 17 -31 30
-67 30 -79 0 -12 5 -27 11 -33 7 -7 8 -23 3 -45 -7 -31 -7 -68 2 -77 1 -2 24
-7 51 -12 27 -5 58 -20 73 -34 33 -31 53 -32 74 -1 9 14 32 32 51 42 29 14 35
22 35 48 0 18 5 37 11 43 7 7 11 44 10 97 -2 64 2 92 13 108 18 25 21 94 7
132 -8 19 -6 30 10 49 23 30 24 41 4 71 -9 13 -18 52 -22 87 -8 90 -13 96 -80
102 -32 3 -69 8 -83 11 -14 2 -52 -6 -85 -20z"/>
<path d="M16945 19455 c-16 -13 -35 -24 -42 -25 -39 -1 -169 -184 -161 -227 4
-22 82 -63 118 -63 14 0 43 9 65 20 22 11 45 20 53 20 16 0 168 156 188 193
28 53 -18 85 -146 101 -38 5 -50 2 -75 -19z"/>
<path d="M10478 19114 c-45 -19 -68 -60 -68 -120 0 -24 -6 -58 -14 -76 -8 -18
-22 -60 -33 -93 -18 -60 -37 -86 -83 -116 -21 -14 -25 -24 -26 -67 0 -50 -15
-82 -38 -82 -17 -1 -56 -36 -56 -52 0 -7 -9 -19 -20 -26 -26 -16 -66 -79 -74
-119 -4 -17 -25 -55 -47 -84 -21 -29 -39 -60 -39 -69 0 -10 -13 -34 -30 -55
-16 -21 -30 -49 -30 -63 0 -40 -23 -95 -47 -115 -13 -10 -23 -28 -23 -40 0
-35 -22 -97 -73 -207 -14 -30 -29 -66 -33 -80 -14 -49 -74 -172 -97 -199 -13
-15 -49 -80 -80 -143 -31 -64 -64 -121 -73 -128 -19 -17 -39 -55 -60 -117 -19
-57 -56 -109 -84 -118 -11 -3 -20 -15 -20 -25 0 -10 -5 -22 -11 -26 -6 -3 -17
-21 -24 -38 -7 -17 -32 -52 -54 -78 -23 -25 -41 -56 -41 -68 0 -12 -9 -39 -19
-59 -32 -60 -61 -127 -61 -139 0 -10 -9 -34 -45 -117 -7 -16 -15 -48 -18 -71
-3 -26 -19 -61 -42 -94 -20 -29 -39 -67 -42 -84 -3 -17 -13 -40 -23 -51 -19
-20 -40 -73 -64 -155 -8 -25 -37 -84 -65 -132 -28 -47 -51 -94 -51 -105 0 -10
-10 -34 -21 -53 -28 -46 -59 -136 -59 -171 0 -23 -11 -38 -55 -72 -53 -42 -95
-103 -95 -139 0 -22 -39 -89 -62 -106 -21 -15 -15 -34 8 -25 12 4 15 0 12 -18
-2 -17 -11 -25 -28 -27 -37 -6 -47 -18 -55 -70 -3 -26 -11 -61 -17 -78 -9 -26
-7 -36 15 -70 15 -21 47 -52 71 -67 46 -29 47 -29 226 -26 25 0 93 0 152 -1
66 -1 127 5 160 14 29 8 79 17 112 21 32 4 76 13 97 20 23 8 62 12 96 10 56
-5 198 -6 276 -4 21 0 44 -4 51 -10 7 -6 33 -11 57 -10 29 1 60 -6 88 -21 38
-19 55 -21 104 -16 50 5 63 3 84 -14 24 -18 27 -19 52 -4 25 15 29 14 78 -19
29 -19 70 -38 92 -42 22 -4 56 -15 76 -25 28 -14 42 -16 59 -9 16 7 34 6 64
-4 24 -8 51 -13 61 -10 10 3 33 -3 50 -12 27 -13 41 -14 93 -5 69 13 217 6
249 -11 13 -7 39 -8 72 -3 29 4 72 8 97 8 40 1 45 -2 48 -22 2 -13 -3 -31 -10
-40 -21 -26 -88 -139 -88 -149 0 -5 -16 -32 -35 -59 -19 -27 -35 -54 -35 -61
0 -6 -13 -22 -29 -35 -34 -27 -63 -83 -80 -153 -7 -27 -21 -66 -30 -85 -33
-63 -61 -144 -68 -195 -3 -27 -14 -63 -24 -80 -10 -17 -20 -64 -24 -107 -6
-63 -12 -81 -31 -99 -13 -12 -24 -31 -24 -41 0 -10 -18 -38 -40 -62 -22 -24
-40 -49 -40 -56 0 -6 -6 -24 -14 -38 -8 -15 -21 -46 -31 -68 -10 -26 -35 -55
-64 -77 -37 -28 -57 -56 -91 -123 -24 -47 -43 -94 -43 -103 2 -28 -37 -164
-57 -201 -34 -63 -48 -107 -43 -134 4 -21 -2 -35 -24 -59 -16 -18 -37 -58 -47
-92 -19 -65 -63 -149 -106 -205 -15 -19 -37 -69 -50 -110 -12 -41 -47 -126
-78 -188 -44 -88 -65 -119 -93 -137 -41 -27 -134 -131 -148 -166 -5 -14 -27
-37 -49 -52 -36 -25 -48 -28 -128 -28 -49 0 -111 5 -137 11 -27 6 -52 8 -57 5
-5 -3 -51 9 -102 26 -87 29 -99 30 -188 24 -52 -4 -106 -12 -120 -17 -27 -11
-154 -45 -207 -56 -43 -9 -101 -58 -118 -100 -8 -19 -15 -58 -15 -87 0 -46 4
-56 38 -92 57 -61 98 -116 106 -140 4 -12 24 -43 45 -68 21 -25 48 -71 61
-103 12 -31 33 -68 45 -82 13 -14 32 -46 43 -71 12 -25 37 -58 57 -74 20 -15
45 -46 55 -69 9 -23 47 -74 83 -113 37 -40 78 -96 93 -125 15 -29 35 -65 45
-80 11 -14 19 -36 19 -47 0 -12 15 -38 34 -58 18 -21 36 -48 40 -61 4 -12 23
-34 42 -48 19 -15 43 -46 53 -69 10 -23 40 -68 65 -99 25 -31 46 -67 46 -80 0
-13 13 -43 30 -67 16 -24 30 -49 30 -56 0 -17 58 -81 80 -88 10 -3 23 -19 30
-36 7 -16 21 -34 30 -39 10 -5 28 -30 40 -56 13 -25 29 -48 37 -51 8 -3 26
-28 41 -55 15 -27 35 -64 44 -81 10 -18 31 -44 48 -60 16 -15 30 -36 30 -46 0
-10 9 -26 19 -35 10 -10 24 -36 30 -59 26 -100 89 -147 199 -147 57 0 62 2
108 46 27 26 78 70 114 99 36 28 97 84 135 124 39 40 88 85 110 101 22 16 78
65 124 109 45 45 90 81 97 81 8 0 43 28 78 63 35 34 77 74 92 88 16 14 46 48
67 75 21 27 57 74 80 104 63 82 77 106 77 138 0 35 70 132 176 244 40 42 82
94 93 115 15 30 139 161 279 296 7 7 31 30 55 53 23 22 52 46 64 52 12 7 37
34 54 60 18 26 48 65 66 86 18 22 33 44 33 48 0 5 11 24 24 41 13 18 45 72 70
121 26 49 62 111 81 137 19 27 41 63 48 81 8 18 52 67 98 108 46 41 109 100
139 132 30 32 73 65 95 74 22 9 55 27 73 41 18 14 49 29 68 34 65 19 154 84
154 114 0 26 -82 94 -180 150 -19 11 -49 29 -65 41 -50 35 -137 74 -164 74
-15 0 -64 10 -111 21 -74 18 -140 27 -335 43 -22 2 -71 11 -110 20 -110 26
-106 25 -95 47 6 10 8 19 5 19 -15 0 28 60 60 84 34 26 36 30 30 71 -7 41 -6
43 34 71 33 23 40 33 36 52 -4 15 3 37 17 60 13 20 22 43 20 49 -2 7 4 25 12
40 7 16 17 51 20 78 5 33 16 59 32 76 14 15 30 46 35 69 5 24 21 67 34 97 14
29 25 57 25 62 0 4 8 16 19 25 10 9 27 38 36 64 10 26 29 60 42 75 12 16 23
36 23 46 0 10 9 26 21 37 11 10 32 42 45 71 14 29 32 53 40 53 8 0 14 5 14 11
0 6 22 36 49 67 27 31 54 67 60 79 16 31 14 99 -4 117 -24 24 -8 45 38 48 33
2 43 7 46 23 2 11 18 45 37 75 53 87 75 159 62 203 -15 49 3 162 32 192 13 14
23 41 27 76 3 30 11 65 18 79 7 14 16 51 20 83 4 31 11 60 16 63 5 3 9 25 9
49 0 33 8 55 36 96 20 30 38 68 41 86 3 19 19 44 39 63 19 17 48 58 65 91 16
34 43 78 58 99 20 28 32 62 41 117 8 43 13 82 12 86 -2 5 6 20 16 35 19 27 52
94 79 162 23 55 17 111 -13 134 -13 10 -31 31 -39 46 -8 16 -24 31 -35 35 -11
4 -27 20 -35 36 -9 17 -26 31 -43 35 -15 3 -49 12 -77 21 -27 8 -106 19 -175
25 -69 5 -138 14 -155 19 -16 6 -48 13 -70 16 -22 3 -58 12 -80 21 -22 8 -65
16 -95 17 -30 1 -75 9 -99 18 -31 11 -63 14 -111 10 -56 -5 -74 -2 -106 15
-22 11 -52 23 -69 26 -91 15 -135 26 -151 35 -11 5 -31 12 -46 16 -15 3 -35
16 -43 29 -15 22 -14 27 4 57 12 19 21 49 21 67 0 18 14 57 30 87 17 30 30 65
30 79 0 17 8 29 27 38 15 7 54 53 88 103 48 70 70 94 102 109 30 13 46 29 59
60 13 28 25 40 36 38 10 -1 22 7 29 20 6 13 28 39 48 59 20 20 71 74 114 120
43 46 157 165 253 263 96 99 174 182 174 186 0 3 30 31 68 61 96 78 139 124
147 158 4 17 28 49 61 80 30 28 54 55 54 60 0 5 18 20 40 32 40 23 80 73 80
100 0 7 9 23 21 35 11 12 23 36 26 54 2 18 17 44 33 59 21 20 29 39 34 82 5
40 16 69 37 98 17 22 35 41 39 41 5 0 20 21 33 47 14 29 32 49 45 53 29 7 62
57 62 94 0 27 -20 57 -91 136 -14 15 -45 33 -68 40 -23 6 -57 20 -75 31 -44
26 -286 53 -407 45 -48 -3 -89 -2 -93 1 -3 4 -25 8 -49 10 -23 2 -67 11 -98
19 -31 7 -139 21 -240 30 -101 9 -192 20 -202 26 -29 15 -133 30 -232 33 -49
1 -101 7 -115 12 -14 6 -85 9 -160 7 -101 -3 -150 1 -195 13 -33 9 -79 15
-103 15 -30 -1 -61 9 -109 33 -39 21 -80 35 -101 35 -20 0 -55 11 -80 26 -44
26 -275 111 -380 139 -29 8 -85 15 -125 15 -61 0 -78 4 -109 25 -43 29 -50 29
-100 9z m380 -292 c24 -30 44 -42 99 -59 37 -12 87 -24 109 -28 23 -3 52 -16
64 -28 13 -12 45 -24 74 -29 108 -17 142 -25 165 -37 14 -8 38 -11 58 -8 36 6
155 -13 188 -30 11 -6 52 -11 91 -11 42 0 86 -6 105 -15 19 -8 43 -18 54 -23
29 -11 244 -13 283 -2 26 8 39 6 69 -12 28 -16 45 -19 78 -14 30 4 52 1 74
-10 18 -10 79 -21 143 -27 62 -6 121 -15 131 -21 45 -24 160 -46 269 -52 125
-6 168 -19 168 -47 0 -34 -65 -144 -112 -190 -27 -25 -48 -49 -48 -53 0 -5
-18 -28 -40 -53 -22 -25 -40 -51 -40 -57 -1 -10 -57 -65 -145 -140 -22 -18
-57 -41 -77 -49 -35 -15 -107 -97 -108 -124 0 -6 -16 -20 -35 -32 -19 -11 -35
-26 -35 -33 0 -19 -63 -104 -94 -129 -28 -22 -116 -149 -116 -167 0 -6 -13
-20 -29 -32 -17 -11 -33 -31 -37 -43 -3 -12 -24 -45 -45 -74 -22 -29 -54 -77
-72 -107 -21 -35 -72 -90 -146 -156 -76 -67 -120 -114 -132 -140 -24 -54 -67
-106 -111 -135 -20 -14 -56 -50 -78 -80 -23 -31 -71 -78 -109 -105 -37 -27
-73 -61 -79 -75 -21 -47 -94 -134 -129 -156 -19 -12 -45 -39 -59 -60 -13 -22
-28 -39 -32 -39 -5 0 -23 -12 -40 -27 -18 -16 -43 -36 -57 -46 -30 -22 -33
-69 -8 -137 35 -95 88 -130 210 -135 48 -2 108 -11 132 -19 31 -12 62 -15 105
-10 50 4 68 2 101 -15 23 -13 58 -21 86 -21 56 0 125 -23 156 -52 21 -20 26
-20 63 -8 37 12 42 11 80 -13 22 -15 46 -27 54 -27 8 0 16 -5 18 -10 2 -6 19
-3 43 9 26 13 44 16 52 10 6 -6 28 -10 50 -9 64 0 160 -15 176 -28 9 -8 33
-11 64 -9 32 3 71 -3 118 -18 39 -12 83 -26 98 -29 41 -10 67 -59 67 -129 0
-45 -4 -61 -20 -74 -11 -10 -20 -25 -20 -35 0 -29 -21 -111 -36 -141 -8 -16
-14 -38 -14 -50 0 -22 -2 -30 -55 -190 -34 -101 -73 -176 -157 -298 -67 -99
-110 -191 -105 -224 3 -17 -3 -50 -13 -75 -32 -78 -70 -236 -70 -287 0 -16
-18 -44 -54 -81 -35 -38 -55 -69 -60 -92 -17 -97 -25 -123 -50 -159 -15 -21
-40 -77 -56 -125 -34 -99 -43 -117 -80 -166 -15 -19 -35 -59 -44 -89 -10 -30
-39 -91 -66 -135 -27 -45 -52 -89 -56 -99 -3 -10 -27 -29 -51 -44 -27 -16 -51
-39 -58 -57 -7 -17 -27 -48 -44 -70 -17 -21 -31 -46 -31 -55 0 -9 -7 -25 -15
-35 -8 -11 -15 -27 -15 -37 0 -9 -13 -41 -30 -72 -16 -31 -30 -69 -30 -84 0
-16 -9 -39 -20 -53 -11 -14 -20 -37 -20 -52 0 -17 -10 -34 -27 -47 -47 -35
-61 -51 -66 -80 -6 -27 -92 -121 -112 -121 -5 0 -21 -9 -34 -19 -22 -16 -23
-21 -13 -64 8 -41 7 -52 -13 -90 -13 -23 -26 -64 -30 -90 -7 -48 -7 -48 46
-101 59 -59 116 -83 152 -64 11 6 40 8 66 4 48 -6 76 5 111 46 20 23 173 62
208 53 15 -4 65 -9 112 -12 118 -6 130 -8 175 -21 22 -6 52 -13 66 -16 15 -3
37 -14 49 -24 l23 -19 -26 -39 c-15 -21 -27 -50 -27 -65 0 -14 -13 -43 -30
-64 -16 -21 -34 -55 -40 -75 -6 -21 -18 -44 -27 -51 -25 -21 -73 -100 -73
-121 0 -10 -16 -28 -35 -40 -19 -13 -40 -36 -46 -51 -7 -15 -28 -36 -49 -47
-20 -10 -43 -26 -51 -36 -7 -9 -31 -27 -51 -40 -21 -13 -45 -39 -54 -56 -9
-18 -32 -51 -50 -72 -19 -22 -34 -46 -34 -53 0 -8 -10 -24 -22 -37 -54 -54
-208 -225 -208 -229 0 -11 -134 -182 -152 -195 -10 -7 -24 -28 -32 -46 -8 -18
-45 -69 -84 -114 -38 -45 -80 -102 -92 -126 -13 -27 -60 -82 -118 -137 -53
-51 -105 -109 -114 -129 -9 -19 -43 -61 -75 -92 -132 -131 -211 -202 -258
-234 -87 -60 -119 -84 -158 -122 l-38 -37 -47 27 c-47 26 -113 104 -149 178
-10 19 -32 52 -50 73 -18 20 -33 44 -33 53 0 8 -26 42 -57 73 -85 86 -110 115
-117 139 -4 12 -23 29 -42 38 -20 10 -39 27 -44 39 -8 20 -41 52 -110 105 -18
14 -39 30 -45 35 -21 18 -55 73 -55 88 0 18 -60 117 -70 117 -4 0 -23 30 -41
67 -19 38 -44 76 -57 87 -13 10 -28 28 -33 40 -5 11 -20 39 -34 61 -13 22 -41
73 -61 112 -20 40 -50 85 -68 99 -17 15 -40 44 -51 65 -11 22 -34 63 -52 93
-48 81 -49 96 -14 130 29 28 33 29 68 18 21 -7 72 -11 115 -9 71 2 78 0 101
-25 14 -15 41 -30 63 -34 22 -3 48 -11 59 -17 29 -15 136 -27 155 -17 9 5 35
4 61 -1 24 -6 98 -11 165 -12 l121 -2 28 33 c31 37 68 90 86 124 17 32 39 153
39 218 1 30 7 66 15 80 8 14 14 37 15 51 0 14 16 46 35 70 19 24 35 47 35 52
0 4 20 50 45 103 25 52 45 102 45 112 1 40 30 95 73 137 26 24 47 51 47 60 0
8 18 24 40 35 35 18 39 24 34 46 -4 15 -1 31 8 42 19 22 44 79 53 118 3 18 19
53 36 78 16 26 29 51 29 56 0 5 25 42 55 81 30 39 55 79 55 89 0 10 11 32 25
48 18 21 25 42 25 71 0 23 9 59 20 81 11 22 20 46 20 55 0 9 6 26 14 38 8 12
17 56 21 97 8 85 33 148 75 197 17 18 30 38 30 43 0 6 15 27 33 47 18 21 43
55 56 77 12 21 44 64 71 95 26 31 51 68 55 83 4 15 24 46 46 69 21 23 44 58
50 78 6 20 20 47 29 61 23 33 34 86 21 95 -24 14 -11 46 24 61 19 8 35 21 35
29 0 20 61 129 75 134 14 5 95 94 95 104 0 11 31 51 93 123 26 30 47 64 47 77
1 26 23 69 68 127 17 24 32 51 32 61 0 24 -30 99 -39 99 -4 0 -25 15 -46 34
-21 19 -63 47 -94 62 -53 27 -60 28 -210 29 -86 0 -183 -2 -216 -6 -43 -5 -73
-2 -105 9 -34 12 -87 17 -220 17 -116 1 -188 6 -214 14 -21 7 -54 11 -73 8
-45 -8 -233 20 -253 37 -26 22 -53 27 -140 27 -67 -1 -94 4 -122 19 -42 22
-154 50 -202 50 -17 0 -36 4 -42 9 -14 13 -164 44 -204 42 -113 -5 -168 -9
-191 -16 -17 -4 -37 -1 -57 9 -40 20 -91 20 -121 0 -14 -10 -48 -17 -94 -19
-46 -2 -90 -11 -120 -24 -62 -27 -92 -28 -81 -3 4 9 8 33 9 52 0 19 3 42 6 50
4 8 27 83 53 165 26 83 54 164 62 180 30 61 91 154 127 194 20 23 37 49 37 59
0 11 9 27 20 37 18 16 40 71 54 138 4 15 10 27 14 27 4 0 25 25 47 56 22 32
54 73 71 93 18 21 41 65 53 104 11 37 34 88 51 112 16 24 30 52 30 63 0 11 7
25 15 32 9 7 15 29 15 50 0 26 8 48 24 67 35 42 73 123 95 203 11 40 24 77 29
84 5 6 15 29 22 51 7 22 20 58 30 80 10 22 30 68 44 102 14 35 35 77 46 95 11
18 25 51 31 72 7 24 31 61 65 96 30 31 54 65 54 74 0 45 125 264 181 319 22
22 39 49 43 70 4 19 13 40 21 47 8 7 15 18 15 25 0 20 47 110 66 125 19 17 47
70 75 145 11 31 35 75 52 98 18 23 50 76 71 117 21 41 49 88 62 103 13 16 24
36 24 46 0 9 11 32 25 51 14 19 25 44 25 57 0 29 27 88 64 138 57 78 80 83
124 27z m1725 -4942 c3 -11 1 -22 -3 -25 -11 -7 -32 30 -23 39 11 11 21 6 26
-14z"/>
<path d="M5560 15655 c-129 -22 -213 -55 -264 -103 -35 -33 -46 -50 -46 -73 0
-17 -6 -42 -14 -57 -7 -15 -12 -49 -11 -77 5 -113 -38 -382 -65 -409 -5 -5
-10 -24 -10 -41 0 -18 -9 -58 -19 -91 -11 -32 -29 -99 -41 -149 -11 -49 -28
-108 -37 -130 -38 -94 -74 -165 -83 -165 -15 0 -33 -81 -21 -93 20 -20 12 -36
-23 -51 -33 -14 -34 -16 -23 -45 9 -25 8 -33 -6 -48 -9 -11 -19 -43 -22 -73
-5 -54 -24 -126 -50 -186 -9 -21 -13 -88 -14 -220 -1 -104 -3 -224 -5 -266 -5
-103 1 -108 139 -120 102 -8 108 -8 193 21 48 16 103 36 123 45 21 9 85 18
155 22 65 3 154 15 197 25 64 15 87 17 122 8 29 -7 49 -8 62 -1 10 6 66 11
123 11 58 0 146 3 195 7 77 5 93 4 104 -10 11 -12 11 -19 1 -30 -6 -8 -10 -25
-9 -38 2 -13 -1 -30 -6 -38 -5 -8 -13 -37 -17 -65 -5 -27 -12 -71 -16 -97 -5
-25 -20 -64 -35 -85 -15 -22 -27 -51 -27 -65 0 -14 -8 -36 -19 -49 -10 -13
-24 -42 -31 -64 -7 -22 -21 -48 -31 -57 -9 -10 -21 -27 -25 -40 -3 -12 -20
-43 -35 -69 -16 -25 -29 -53 -29 -61 0 -8 -14 -27 -31 -44 -36 -34 -88 -125
-100 -174 -18 -79 -32 -127 -45 -158 -8 -18 -14 -43 -14 -57 0 -14 -14 -37
-36 -57 -31 -30 -36 -42 -41 -94 -2 -32 -9 -64 -14 -70 -21 -26 -59 -107 -59
-127 -1 -31 -33 -98 -58 -121 -21 -18 -24 -18 -74 -3 -29 9 -89 24 -133 33
-44 9 -89 23 -100 30 -11 8 -39 14 -64 14 -25 0 -57 8 -75 19 -17 10 -68 24
-113 32 -80 12 -84 12 -134 -11 -72 -34 -139 -99 -140 -136 0 -16 -4 -38 -8
-49 -6 -14 1 -31 27 -65 19 -25 42 -50 52 -57 20 -14 65 -189 62 -241 -1 -18
5 -44 14 -57 12 -18 18 -63 24 -158 4 -74 13 -143 19 -155 6 -11 11 -30 11
-42 0 -12 12 -38 28 -57 24 -33 28 -47 34 -147 11 -190 28 -308 51 -351 29
-54 30 -170 3 -237 -19 -45 -19 -47 -1 -88 10 -23 26 -45 36 -51 25 -13 173
-11 206 3 15 7 49 30 75 53 71 61 109 89 141 103 17 7 47 27 67 45 21 17 57
46 80 62 23 17 60 44 83 60 23 17 58 45 77 62 19 18 49 40 67 48 18 9 38 25
44 37 25 47 153 135 289 200 36 17 83 49 105 72 53 53 123 103 166 117 19 7
47 25 63 41 16 16 43 32 59 35 16 3 32 14 34 24 3 9 24 24 47 33 23 9 56 32
74 51 19 19 56 43 83 52 28 10 64 30 80 46 21 18 41 27 65 27 19 0 56 11 82
25 26 14 54 25 63 25 9 0 33 7 52 15 20 8 53 15 74 15 46 0 158 38 200 68 17
12 34 22 38 22 21 0 76 57 85 89 30 108 -2 139 -145 140 -144 2 -226 9 -240
21 -7 6 -63 15 -125 20 -62 6 -127 17 -144 25 -41 19 -149 38 -211 37 -27 -1
-55 4 -62 10 -20 17 -15 96 11 173 66 191 92 249 136 298 16 19 35 56 42 83 7
27 33 79 60 116 26 37 48 71 48 76 0 5 13 33 29 63 16 30 40 81 52 114 12 33
32 74 44 90 12 17 32 57 44 89 12 33 31 72 41 87 11 15 20 33 20 41 0 19 27
93 50 139 11 21 20 49 20 61 0 13 29 67 65 120 36 54 65 101 65 106 0 5 8 16
18 25 10 9 31 45 46 79 15 35 34 76 42 91 8 16 14 34 14 41 0 7 13 25 30 41
18 17 32 43 35 64 8 54 25 102 49 141 11 19 19 41 18 48 -2 8 10 42 27 75 31
65 54 129 66 185 4 18 20 62 36 97 25 56 28 70 20 110 -5 26 -14 52 -20 58
-14 14 -217 16 -336 4 -44 -5 -112 -10 -151 -12 -39 -1 -80 -8 -91 -14 -14 -7
-70 -9 -164 -6 -97 3 -147 1 -156 -7 -18 -15 -154 -3 -211 19 -36 13 -50 14
-74 5 -20 -7 -37 -8 -49 -2 -10 6 -32 10 -49 10 -46 0 -55 33 -31 122 11 39
28 83 39 98 28 38 46 82 104 255 27 83 56 160 64 172 8 12 14 29 14 38 0 29
95 199 140 250 54 62 110 151 137 220 25 63 23 114 -4 136 -8 7 -49 14 -91 17
-69 3 -84 1 -142 -26 -108 -49 -148 -55 -305 -43 -77 5 -162 14 -190 20 -27 5
-77 14 -110 20 -33 5 -85 16 -115 24 -79 21 -318 27 -410 12z m230 -210 c39
-31 105 -45 181 -39 62 5 81 3 109 -12 28 -14 54 -18 125 -17 105 2 222 -22
236 -49 14 -27 -1 -96 -25 -116 -34 -27 -62 -80 -91 -172 -14 -47 -31 -98 -37
-115 -6 -16 -16 -61 -22 -100 -6 -38 -19 -84 -29 -102 -9 -18 -17 -43 -17 -55
0 -15 -17 -41 -45 -68 -25 -24 -45 -49 -45 -56 0 -6 -22 -45 -50 -85 -33 -51
-47 -82 -44 -95 3 -13 -3 -32 -18 -50 -14 -16 -34 -45 -45 -64 l-21 -35 27
-50 c24 -42 35 -52 83 -71 30 -11 68 -19 84 -17 16 3 74 -5 129 -16 85 -17
102 -18 111 -6 14 19 163 5 198 -19 21 -13 36 -14 88 -7 54 8 70 6 108 -11 30
-13 56 -17 78 -13 19 3 100 8 180 9 107 3 157 8 184 20 36 15 38 15 64 -7 l26
-23 -21 -43 c-12 -23 -21 -53 -19 -67 2 -16 -7 -32 -29 -53 -20 -18 -33 -40
-33 -54 0 -13 -7 -46 -15 -73 -9 -27 -24 -87 -34 -134 -18 -83 -45 -143 -84
-187 -27 -30 -67 -120 -67 -150 0 -14 -24 -64 -52 -111 -29 -48 -59 -102 -66
-121 -7 -19 -19 -42 -26 -50 -17 -19 -86 -150 -86 -163 0 -6 -16 -46 -35 -89
-19 -44 -35 -93 -35 -109 0 -20 -8 -35 -24 -46 -30 -19 -105 -137 -138 -217
-14 -32 -32 -66 -40 -76 -9 -10 -21 -36 -28 -57 -13 -40 -55 -122 -71 -139 -5
-5 -9 -21 -9 -37 0 -16 -12 -41 -30 -62 -17 -18 -37 -53 -45 -77 -9 -24 -26
-60 -39 -79 -19 -28 -25 -54 -31 -135 -10 -138 -9 -172 5 -206 15 -36 37 -49
85 -49 20 0 54 -9 77 -21 31 -16 53 -20 87 -16 25 3 92 0 148 -6 161 -19 163
-41 11 -114 -152 -73 -197 -93 -211 -93 -7 0 -38 -22 -68 -49 -29 -26 -65 -52
-79 -56 -14 -4 -41 -18 -60 -31 -19 -13 -47 -24 -62 -24 -16 0 -36 -8 -46 -17
-38 -39 -99 -82 -137 -97 -22 -9 -67 -43 -100 -75 -33 -32 -76 -68 -95 -81
-19 -13 -55 -42 -80 -64 -25 -23 -65 -52 -89 -66 -24 -14 -65 -44 -90 -67 -74
-70 -122 -53 -134 47 -3 25 -10 63 -17 85 -25 85 -32 122 -36 190 -6 102 -31
248 -59 341 -14 45 -25 92 -25 105 0 13 -7 33 -15 43 -24 31 -19 93 8 110 42
26 82 29 123 7 21 -12 44 -21 51 -21 7 0 27 -16 46 -35 32 -33 92 -64 149 -78
41 -11 122 36 160 92 34 51 67 141 68 183 0 15 7 53 16 85 9 32 19 70 21 86 3
15 9 30 14 33 5 3 9 15 9 28 0 12 11 45 25 72 14 27 25 57 25 67 0 11 9 32 21
48 11 16 25 45 30 64 6 20 30 64 54 100 25 35 47 77 51 92 3 15 13 38 21 51
14 22 32 93 38 145 1 15 3 31 4 35 0 5 10 19 21 32 11 13 20 32 20 42 0 11 9
31 20 45 11 14 20 33 20 42 0 10 4 21 9 27 5 5 26 54 46 109 20 55 45 120 55
145 10 25 22 56 25 70 4 14 17 52 30 85 13 34 27 76 30 95 3 19 10 39 14 45 5
5 14 26 20 46 6 20 27 58 46 85 19 27 35 54 35 61 0 6 16 33 36 59 72 94 98
177 74 239 -10 26 -12 27 -63 20 -67 -9 -157 -34 -182 -51 -11 -8 -31 -14 -46
-14 -15 0 -61 -11 -103 -25 -42 -14 -89 -25 -104 -25 -16 0 -47 -9 -70 -20
-31 -15 -47 -18 -67 -10 -18 7 -42 5 -82 -5 -32 -8 -82 -15 -113 -16 -30 0
-77 -5 -105 -10 -27 -5 -93 -16 -145 -23 -52 -8 -102 -17 -110 -20 -8 -4 -58
-13 -110 -22 -52 -8 -111 -17 -130 -21 -19 -3 -44 -12 -55 -19 -28 -20 -111
-18 -119 2 -13 33 -6 169 10 199 16 31 19 49 33 175 9 77 49 245 76 313 8 20
15 49 15 63 0 13 11 46 24 72 13 27 27 66 31 88 4 21 15 60 25 85 11 25 26 86
35 135 22 120 64 288 88 349 10 28 23 68 28 90 14 63 30 146 38 195 4 25 11
52 16 60 6 8 15 37 20 63 11 53 29 68 100 84 50 11 135 5 155 -12z"/>
<path d="M15251 15019 c-19 -11 -55 -22 -80 -24 -25 -2 -58 -9 -72 -15 -20 -9
-32 -9 -47 -1 -35 18 -57 13 -92 -24 -19 -20 -48 -39 -65 -43 -21 -5 -35 -19
-47 -43 -17 -34 -17 -37 2 -89 11 -30 20 -66 20 -80 0 -17 11 -32 34 -48 24
-16 36 -34 40 -58 5 -26 13 -35 34 -40 49 -10 75 -28 110 -76 18 -27 37 -48
40 -48 58 -4 92 -17 132 -51 25 -22 52 -51 60 -65 10 -16 34 -32 69 -45 29
-10 65 -26 79 -36 61 -44 129 -82 145 -83 31 0 54 -18 60 -47 10 -47 44 -93
69 -93 45 0 158 -52 158 -73 0 -7 13 -21 30 -32 24 -16 48 -61 38 -70 -47 -43
-95 -75 -113 -75 -25 0 -159 -50 -217 -81 -22 -11 -48 -17 -60 -14 -28 6 -38
0 -66 -46 -27 -45 -28 -81 -3 -117 18 -25 19 -33 7 -109 -7 -45 -17 -88 -23
-95 -6 -7 -14 -35 -18 -63 -4 -31 -16 -60 -30 -75 -12 -14 -26 -36 -30 -50 -4
-14 -20 -44 -36 -68 -42 -63 -37 -110 19 -158 33 -28 55 -38 95 -43 41 -5 52
-10 55 -26 7 -38 44 -67 78 -62 16 3 52 0 80 -7 39 -10 223 -13 260 -5 5 1 22
-3 37 -9 40 -17 65 -15 94 8 19 14 41 20 80 20 56 0 161 36 194 66 13 11 29
15 51 12 44 -7 56 -1 78 34 10 17 55 57 101 89 68 48 87 57 111 52 27 -5 110
15 165 40 12 5 29 27 38 49 15 39 19 42 66 52 16 3 33 19 45 42 l19 36 -22 17
c-15 12 -48 21 -100 25 -116 10 -153 21 -183 54 -41 46 -105 52 -173 19 -81
-40 -143 -103 -152 -154 -3 -23 -13 -47 -21 -54 -9 -7 -73 -13 -176 -16 -267
-7 -361 -13 -396 -24 -36 -12 -125 5 -143 27 -18 22 1 131 27 160 14 14 33 43
44 64 11 21 29 41 40 45 11 3 27 16 37 29 44 55 80 71 178 77 110 7 138 21
164 82 18 43 23 188 8 267 -5 25 -1 46 14 77 12 24 23 62 26 86 8 76 13 87 51
111 61 38 114 174 105 269 -4 38 -11 51 -34 68 -20 14 -29 29 -29 49 0 20 -9
35 -30 50 -17 12 -38 36 -47 53 -36 71 -128 157 -168 157 -14 0 -35 14 -54 38
-16 20 -39 46 -51 57 -11 11 -37 37 -57 58 -37 38 -60 46 -81 25 -6 -6 -34
-11 -63 -10 -28 0 -62 -3 -75 -8 -25 -10 -45 3 -70 46 -9 16 -27 20 -111 25
-62 3 -112 12 -133 22 -44 22 -78 21 -119 -4z m297 -270 c13 -5 33 -9 45 -9
12 0 43 -11 69 -25 26 -14 62 -25 80 -25 26 -1 46 -13 96 -59 34 -31 62 -64
62 -73 0 -17 45 -58 63 -58 5 0 34 -22 62 -50 29 -27 64 -52 77 -55 23 -6 24
-11 24 -73 1 -37 -4 -70 -9 -73 -20 -14 -129 66 -149 109 -10 19 -23 28 -47
32 -32 5 -44 15 -54 51 -3 9 -18 19 -34 22 -16 3 -42 19 -59 35 -22 21 -45 31
-81 36 -28 3 -56 13 -63 21 -7 8 -19 15 -26 15 -8 0 -14 5 -14 10 0 6 -7 10
-15 10 -9 0 -18 6 -21 14 -3 8 -24 27 -47 42 -48 32 -106 93 -107 112 0 10 14
11 63 6 34 -4 72 -11 85 -15z"/>
<path d="M24595 12268 c-38 -37 -52 -89 -29 -112 8 -8 14 -19 14 -25 0 -16 35
-31 74 -31 22 0 38 -6 44 -16 11 -21 46 -14 50 9 2 10 -9 34 -24 54 -17 22
-29 52 -32 82 -8 80 -39 93 -97 39z"/>
<path d="M27740 12150 c0 -5 5 -10 10 -10 6 0 10 5 10 10 0 6 -4 10 -10 10 -5
0 -10 -4 -10 -10z"/>
<path d="M28920 12050 c0 -5 7 -10 15 -10 8 0 15 5 15 10 0 6 -7 10 -15 10 -8
0 -15 -4 -15 -10z"/>
<path d="M32260 11334 c-8 -3 -24 -9 -35 -14 -11 -5 -35 -11 -54 -14 -43 -8
-71 -32 -71 -62 0 -26 21 -109 44 -172 12 -33 13 -49 5 -64 -15 -27 -3 -153
17 -183 8 -12 12 -30 8 -39 -3 -9 1 -27 10 -40 16 -26 46 -152 46 -198 0 -18
13 -43 37 -69 l36 -40 -16 -123 c-17 -119 -17 -124 2 -166 14 -32 17 -50 10
-68 -6 -16 -5 -38 3 -65 15 -52 20 -170 19 -446 -1 -72 3 -129 9 -135 5 -5 10
-23 10 -39 0 -15 5 -37 10 -48 8 -13 7 -31 -1 -60 -10 -32 -10 -62 1 -147 8
-59 15 -145 15 -192 0 -64 6 -100 24 -145 19 -50 22 -70 16 -120 -3 -33 -6
-69 -5 -80 1 -11 2 -65 4 -120 2 -77 7 -111 24 -148 14 -32 19 -55 13 -65 -25
-49 -32 -222 -11 -276 5 -15 10 -46 10 -68 0 -23 5 -56 12 -73 9 -25 8 -46 -3
-95 -12 -54 -20 -67 -56 -97 -59 -49 -86 -103 -77 -160 7 -48 58 -122 85 -122
9 -1 23 -9 31 -18 22 -26 49 -125 48 -181 0 -26 0 -186 0 -357 1 -315 12 -473
37 -512 16 -24 30 -178 27 -293 -3 -117 -28 -404 -36 -416 -15 -22 -251 -40
-337 -25 -103 17 -152 20 -183 9 -21 -7 -46 -6 -96 7 -56 13 -82 14 -149 6
-45 -6 -111 -8 -146 -4 -48 4 -72 2 -98 -11 -42 -20 -112 -35 -206 -44 -39 -4
-75 -11 -79 -14 -11 -12 16 -101 38 -125 11 -12 26 -33 32 -45 10 -19 23 -24
75 -30 49 -5 70 -13 91 -33 21 -20 33 -24 58 -19 22 4 51 -1 91 -15 50 -19 64
-21 99 -12 55 15 181 7 276 -18 58 -15 122 -22 249 -26 94 -3 172 -7 174 -9 2
-2 43 5 91 15 48 10 103 18 123 19 20 0 61 11 90 26 119 56 129 66 135 138 2
23 7 62 10 88 4 34 2 53 -10 70 -9 12 -16 29 -16 36 0 8 -10 28 -22 45 -18 25
-22 43 -20 90 2 49 -1 63 -22 87 -21 25 -25 44 -31 132 -4 58 -3 119 2 138 13
46 10 118 -4 155 -17 41 -31 229 -20 257 5 13 9 56 8 96 -1 53 4 85 18 116 22
50 20 166 -4 226 -14 35 -36 132 -36 160 0 8 5 35 12 60 6 25 13 77 14 116 1
38 7 80 14 91 6 12 11 31 11 42 0 12 4 29 9 39 16 31 34 99 29 113 -3 8 4 38
14 68 16 41 18 58 10 76 -11 23 -9 154 3 271 5 39 3 69 -4 83 -20 36 -15 103
9 144 21 35 21 41 10 105 -7 37 -15 74 -17 82 -9 26 -9 74 -1 95 8 19 29 208
28 250 -1 36 -7 80 -14 105 -4 15 -1 40 9 62 21 52 21 232 -1 284 -9 21 -16
66 -16 99 0 42 -6 70 -21 94 -16 26 -20 48 -18 107 1 41 -3 83 -9 95 -7 12
-13 31 -15 43 -5 42 -29 111 -47 135 -13 17 -15 28 -8 35 15 15 12 58 -5 94
-10 19 -16 60 -17 109 -1 75 -2 79 -36 115 -33 35 -34 39 -28 87 5 37 2 59 -9
81 -16 31 -18 87 -12 292 2 72 0 89 -13 93 -17 6 -40 49 -40 77 0 9 -5 29 -12
43 -10 22 -8 29 12 50 20 21 22 28 12 50 -7 14 -12 37 -12 51 0 19 -7 28 -29
35 -29 10 -29 12 -25 72 4 65 -9 119 -37 152 -9 11 -20 37 -23 57 -10 55 -42
85 -96 91 -25 3 -52 3 -60 1z"/>
<path d="M27296 10604 c-19 -19 -19 -24 -2 -46 24 -33 39 -24 51 30 6 28 4 32
-13 32 -12 0 -28 -7 -36 -16z"/>
<path d="M27850 10516 c0 -9 7 -16 16 -16 17 0 14 22 -4 28 -7 2 -12 -3 -12
-12z"/>
<path d="M25060 10245 c0 -8 9 -15 20 -15 13 0 18 5 14 15 -4 8 -12 15 -20 15
-8 0 -14 -7 -14 -15z"/>
<path d="M27214 10139 c-16 -17 -16 -22 -4 -29 19 -12 51 -12 68 -1 12 7 12
12 1 30 -17 27 -41 27 -65 0z"/>
<path d="M23879 9956 c-2 -2 -33 -6 -69 -8 -73 -5 -66 6 -58 -94 1 -18 -7 -42
-19 -60 -28 -40 -34 -122 -16 -214 9 -41 16 -98 17 -126 0 -32 7 -59 17 -70
10 -11 19 -43 21 -75 3 -34 12 -67 25 -85 14 -21 19 -39 15 -67 -2 -21 1 -44
8 -51 8 -11 9 -20 0 -36 -8 -15 -8 -25 -1 -34 7 -8 10 -53 9 -113 -2 -80 1
-105 15 -126 10 -16 16 -45 16 -79 0 -99 8 -173 24 -208 11 -27 15 -75 15
-210 1 -113 8 -238 22 -355 12 -99 26 -245 31 -325 5 -80 13 -158 19 -174 6
-16 15 -82 20 -145 6 -64 13 -131 16 -149 4 -18 8 -58 11 -90 2 -31 6 -88 10
-127 11 -132 12 -330 3 -449 -7 -95 -6 -130 6 -175 8 -31 19 -118 24 -195 6
-76 12 -142 15 -146 3 -5 7 -86 10 -181 2 -95 9 -236 14 -313 16 -220 -6 -709
-36 -818 -15 -54 -15 -57 4 -85 15 -20 22 -53 28 -114 6 -81 9 -89 41 -120 19
-18 34 -39 34 -46 0 -7 6 -13 13 -13 95 -3 174 -14 188 -26 8 -8 21 -14 27
-14 6 0 15 -7 20 -15 6 -11 30 -17 83 -21 41 -3 107 -12 147 -21 41 -8 90 -13
109 -10 37 6 63 -3 130 -49 29 -20 46 -24 72 -20 29 4 40 0 73 -29 21 -19 47
-35 59 -35 12 0 35 -15 51 -32 l31 -33 116 -1 c86 -1 126 -5 156 -18 29 -13
79 -19 185 -23 198 -7 198 -7 262 -1 42 3 64 1 79 -10 14 -9 32 -12 55 -7 20
3 41 2 48 -4 7 -6 62 -14 122 -17 189 -12 207 -14 284 -24 41 -5 89 -9 105 -8
51 2 77 1 155 -6 109 -10 118 -10 195 9 73 17 205 15 275 -5 25 -7 40 -5 69 9
34 18 41 18 114 4 65 -13 79 -14 93 -2 22 19 210 38 247 26 18 -6 37 -5 55 2
58 23 135 30 176 16 26 -9 46 -11 63 -4 13 5 43 9 66 9 23 0 51 7 61 15 11 8
28 12 38 9 11 -3 41 2 67 12 47 17 49 16 94 -6 51 -26 122 -24 143 4 14 20 38
20 53 2 27 -32 130 -27 201 9 14 7 46 24 71 38 43 22 52 23 109 15 79 -12 141
8 165 53 8 16 22 41 29 56 8 16 16 48 17 73 2 28 9 52 21 63 19 19 23 44 10
64 -17 27 -58 30 -192 16 -166 -17 -170 -18 -300 -14 -58 2 -139 -2 -180 -9
-41 -7 -136 -14 -210 -16 -209 -4 -422 -13 -453 -19 -15 -2 -47 1 -71 7 -35 9
-50 9 -76 -2 -19 -8 -61 -15 -94 -15 -34 -1 -77 -7 -96 -13 -19 -6 -44 -12
-55 -12 -11 0 -60 0 -109 0 -49 0 -111 -7 -137 -14 -57 -17 -201 -14 -429 8
-80 8 -159 12 -176 9 -18 -3 -35 0 -38 6 -5 7 -45 11 -107 11 -55 0 -110 5
-121 11 -12 6 -71 13 -132 15 -61 2 -156 7 -211 12 -55 5 -131 6 -169 2 -38
-4 -81 -4 -95 0 -82 25 -118 30 -228 34 -90 3 -128 8 -145 20 -12 9 -33 16
-45 16 -13 0 -40 11 -61 24 -20 12 -48 26 -61 31 -13 4 -48 22 -79 40 l-55 34
-126 -4 c-125 -4 -126 -5 -153 -34 -32 -35 -61 -52 -74 -43 -21 15 -54 94 -54
131 0 35 -6 44 -66 95 -36 31 -73 56 -83 56 -21 0 -41 19 -41 40 0 9 -9 33
-19 54 -11 21 -23 52 -27 69 -3 16 -20 60 -37 96 -27 59 -31 78 -33 176 -2 61
-4 115 -5 120 -3 30 5 151 11 160 8 10 10 21 31 163 l12 84 -37 35 c-32 31
-36 41 -37 87 0 28 -2 61 -3 74 -2 12 5 40 15 62 24 52 27 233 5 268 -13 22
-17 82 -6 102 7 13 7 34 0 67 -10 41 -9 50 9 74 28 38 19 101 -26 195 -29 60
-35 84 -37 153 -2 44 -9 87 -16 96 -12 15 -24 100 -22 165 0 19 1 64 2 100 2
86 -12 200 -29 225 -10 17 -9 31 7 91 14 49 17 76 10 88 -6 11 -6 21 1 29 16
20 6 270 -12 298 -12 18 -16 49 -15 120 0 62 -4 105 -13 120 -7 14 -12 48 -10
81 1 31 -2 59 -8 62 -5 3 -8 18 -6 34 2 15 -4 43 -12 62 -9 19 -19 55 -24 80
-20 112 -26 136 -38 159 -9 16 -11 38 -5 70 10 62 7 206 -6 245 -17 50 -36
295 -29 371 5 55 3 74 -10 88 -8 10 -16 32 -17 49 -1 16 -5 61 -8 99 -4 41 -2
77 4 89 7 12 7 21 0 25 -5 3 -10 18 -10 33 0 15 -9 45 -19 67 -13 30 -15 47
-9 67 6 17 6 34 -1 47 -6 11 -11 28 -11 38 -1 33 -63 86 -81 69z"/>
<path d="M31026 9444 c-22 -15 -49 -24 -74 -24 -60 0 -70 -18 -72 -130 -2
-133 -1 -140 21 -189 14 -29 19 -55 15 -75 -4 -21 0 -44 14 -71 25 -49 25 -67
0 -83 -18 -11 -20 -21 -16 -125 3 -114 15 -154 57 -202 9 -11 23 -40 29 -65 7
-25 17 -51 23 -59 13 -15 15 -356 3 -368 -3 -4 6 -19 21 -35 24 -25 25 -31 15
-65 -40 -139 -57 -434 -27 -479 19 -29 43 -42 90 -50 43 -7 106 -37 127 -62
25 -28 40 -119 47 -277 3 -82 10 -157 15 -165 6 -8 11 -87 11 -175 2 -208 14
-363 32 -398 8 -16 11 -41 8 -60 -3 -18 -1 -77 5 -132 6 -55 12 -147 14 -205
5 -122 28 -183 86 -223 51 -34 67 -38 96 -25 24 11 26 16 21 55 -4 40 -2 46
28 69 46 34 48 47 17 91 -16 23 -29 59 -33 93 -4 30 -14 98 -21 150 -10 67
-11 106 -4 132 9 32 7 42 -11 66 -20 27 -24 55 -22 137 4 115 -3 296 -12 318
-7 17 -9 43 -4 70 4 23 7 85 6 137 -1 52 -1 106 -1 120 0 14 0 57 -1 95 -1 39
-1 84 -1 100 1 17 2 62 2 100 1 39 8 103 16 144 13 66 13 79 -1 127 -15 54
-15 55 10 98 23 40 25 47 14 95 -6 28 -15 53 -20 57 -5 3 -9 24 -9 48 0 29 -8
52 -25 76 -31 42 -43 50 -76 50 -32 0 -51 21 -48 52 1 13 -3 48 -9 78 -7 30
-11 64 -11 75 2 46 -41 125 -67 125 -21 0 -17 41 10 93 19 38 22 55 16 87 -4
22 -13 47 -20 55 -9 11 -11 33 -7 75 4 36 3 62 -4 65 -7 5 -7 11 0 19 7 8 6
21 -4 39 -8 15 -11 27 -8 27 3 0 0 7 -7 15 -8 9 -10 28 -5 54 6 34 3 43 -24
73 -38 44 -54 84 -46 120 4 15 2 43 -4 60 -6 18 -13 51 -16 73 -15 113 -26
131 -89 145 -28 6 -41 3 -70 -16z"/>
<path d="M32861 5270 c-13 -9 -28 -85 -27 -135 1 -55 14 -77 96 -166 25 -27
61 -68 80 -91 19 -24 58 -63 85 -88 94 -85 196 -195 209 -226 7 -16 36 -50 63
-75 28 -24 57 -58 66 -74 8 -17 24 -39 36 -49 12 -11 21 -31 21 -48 0 -16 8
-45 18 -66 10 -20 19 -55 21 -77 1 -22 6 -53 11 -70 11 -36 14 -153 7 -254 -4
-71 -4 -75 25 -105 22 -23 28 -37 24 -56 -2 -14 -9 -44 -14 -67 -7 -31 -6 -50
4 -68 17 -33 2 -240 -20 -284 -9 -17 -15 -44 -14 -60 2 -29 -16 -61 -35 -61
-15 0 -117 51 -117 59 0 4 -9 17 -19 28 -29 31 -51 90 -51 136 0 22 -5 57 -11
78 -10 32 -9 42 5 63 22 34 20 43 -11 58 -28 13 -28 13 -46 133 -2 11 -9 34
-16 50 -7 17 -17 54 -22 84 -4 30 -15 61 -24 71 -16 17 -21 100 -7 114 4 5 7
29 7 54 0 42 -4 50 -36 74 -31 23 -47 26 -103 26 -36 0 -69 -4 -72 -9 -2 -5
-22 -13 -43 -19 l-39 -10 5 -158 c3 -86 5 -181 5 -210 -1 -32 4 -62 13 -76 8
-12 14 -41 13 -64 -1 -22 5 -48 12 -57 10 -12 11 -41 5 -128 -4 -61 -9 -128
-10 -147 -5 -63 -16 -134 -27 -162 -11 -30 -81 -98 -101 -98 -6 -1 -30 -9 -52
-20 -61 -29 -73 -26 -97 28 -25 57 -39 130 -56 308 -5 49 -13 79 -26 93 -15
16 -17 26 -9 43 6 14 6 33 0 53 -15 48 -23 59 -47 71 -18 10 -19 13 -7 20 23
14 25 37 6 63 -11 13 -19 34 -19 46 0 12 -7 28 -15 35 -8 7 -18 25 -23 41 -4
18 -26 41 -62 66 l-55 39 3 54 c2 30 -1 76 -6 102 -7 37 -6 52 5 68 15 21 15
29 -6 120 -6 25 -10 68 -11 96 0 35 -6 59 -19 75 -19 23 -19 23 -77 8 -75 -19
-81 -32 -88 -173 -5 -89 -10 -114 -25 -130 -17 -19 -18 -28 -9 -84 8 -50 7
-71 -5 -100 -8 -20 -18 -73 -22 -117 -4 -43 -12 -91 -18 -105 -5 -14 -10 -28
-9 -32 1 -3 -6 -32 -14 -65 -25 -88 -56 -262 -58 -319 -1 -39 -8 -58 -29 -83
-15 -19 -27 -45 -27 -61 0 -31 -60 -93 -82 -85 -7 3 -24 21 -37 40 -20 30 -22
39 -12 58 6 12 11 40 10 62 -1 22 2 59 6 83 5 29 4 51 -5 67 -11 20 -10 28 4
50 13 19 16 37 11 64 -4 24 -1 47 9 66 22 42 19 75 -15 160 -16 40 -22 67 -33
150 -4 28 -14 74 -23 103 -9 33 -12 68 -8 92 6 33 3 40 -16 50 -23 13 -96 8
-164 -11 -46 -13 -77 -38 -112 -92 -14 -22 -39 -45 -59 -53 -20 -8 -62 -33
-93 -54 -93 -64 -119 -71 -255 -73 -84 -1 -128 3 -145 12 -13 7 -33 15 -45 17
-11 2 -37 6 -56 10 -55 9 -122 46 -169 92 -24 23 -49 42 -56 42 -7 0 -35 18
-61 40 -27 22 -66 45 -86 51 -22 5 -42 19 -49 32 -14 28 -45 54 -87 72 -17 8
-36 25 -42 39 -5 14 -21 35 -35 48 -26 22 -45 73 -45 119 0 26 31 60 85 94 17
10 36 27 43 37 7 10 24 18 38 18 14 0 41 7 62 16 20 9 76 18 125 21 70 5 95 2
127 -12 31 -14 45 -15 70 -6 35 12 112 0 138 -21 13 -11 182 -30 267 -30 22 0
66 11 97 25 64 28 88 66 88 138 0 60 -28 73 -143 66 -50 -2 -101 -1 -113 3
-11 5 -87 11 -168 14 -81 3 -151 8 -155 10 -12 8 -239 8 -341 0 -68 -5 -108
-13 -141 -30 -25 -12 -63 -26 -85 -30 -54 -9 -151 -64 -163 -92 -6 -13 -11
-34 -11 -47 0 -15 -11 -31 -29 -44 -34 -24 -48 -81 -32 -124 7 -18 7 -36 0
-56 -8 -23 -7 -44 6 -88 9 -32 20 -62 25 -68 4 -5 12 -26 19 -45 7 -21 25 -45
47 -60 20 -13 47 -41 60 -62 13 -21 31 -38 39 -38 20 0 87 -41 103 -62 7 -10
18 -18 24 -18 6 0 33 -13 60 -30 26 -16 53 -30 59 -30 19 0 141 -75 190 -117
50 -43 59 -47 137 -58 24 -3 66 -17 92 -30 31 -15 66 -25 94 -25 24 0 56 -7
72 -15 34 -17 231 -14 279 5 17 7 51 12 78 11 26 -1 60 5 75 12 15 8 59 17 97
21 63 6 74 4 94 -13 19 -17 22 -26 16 -53 -7 -34 -11 -246 -6 -358 2 -36 3
-87 3 -114 -1 -27 4 -59 10 -70 11 -19 -10 -244 -32 -359 -15 -74 -13 -87 21
-118 26 -24 39 -29 84 -29 60 0 52 -8 159 152 25 37 56 74 70 83 14 9 28 25
31 35 3 9 35 39 71 65 35 26 74 62 86 79 12 17 25 33 29 36 19 14 67 216 54
229 -3 2 2 12 10 21 23 26 57 151 49 180 -4 14 -6 30 -5 35 2 6 5 28 7 49 3
22 11 54 19 73 20 48 47 43 80 -12 33 -57 34 -62 45 -219 5 -70 16 -149 24
-175 9 -25 18 -66 20 -91 9 -81 18 -108 42 -131 14 -13 24 -34 24 -50 0 -62
49 -109 113 -109 18 0 46 -9 62 -20 36 -24 76 -25 117 -4 17 9 42 14 57 11 38
-8 133 20 156 46 12 12 32 47 45 77 13 30 32 66 41 80 9 14 24 47 34 73 10 27
24 51 31 54 7 2 20 15 28 28 14 21 14 28 -1 69 -18 47 -11 95 13 103 19 6 77
-55 71 -76 -3 -11 8 -35 29 -61 31 -39 39 -55 32 -63 -2 -1 7 -15 20 -31 12
-16 22 -39 22 -52 0 -26 11 -35 54 -43 26 -6 32 -12 37 -45 9 -54 29 -69 98
-74 57 -4 62 -3 90 28 45 50 61 70 57 70 -3 0 8 28 23 63 19 39 28 77 28 104
-1 33 4 48 25 70 14 15 28 42 31 58 4 17 10 50 16 75 5 25 14 72 21 105 6 33
21 74 31 92 13 21 18 40 13 57 -3 15 -1 39 6 55 9 23 9 34 -1 53 -8 12 -15 59
-16 103 -7 213 -11 273 -21 292 -6 10 -29 27 -50 37 -35 16 -40 23 -45 58 -3
24 0 49 6 60 10 16 8 22 -12 37 -19 14 -23 25 -19 50 4 24 0 35 -14 42 -15 8
-16 14 -7 30 9 17 5 26 -25 55 -44 42 -60 70 -46 79 17 10 11 25 -9 25 -28 0
-112 80 -115 110 -5 39 -36 88 -93 147 -29 30 -53 63 -53 74 0 11 -10 23 -24
29 -26 9 -40 38 -31 61 3 9 -7 21 -25 33 -17 10 -35 29 -40 42 -6 14 -30 37
-55 52 -94 56 -109 68 -115 92 -5 20 -14 26 -50 32 -54 10 -189 15 -199 8z"/>
</g>
</svg>
