<?xml version="1.0" standalone="no"?>
<!DOCTYPE svg PUBLIC "-//W3C//DTD SVG 20010904//EN"
 "http://www.w3.org/TR/2001/REC-SVG-20010904/DTD/svg10.dtd">
<svg version="1.0" xmlns="http://www.w3.org/2000/svg"
 width="400px" height="400px" viewBox="0 0 2922.919452 1572.944916"
 preserveAspectRatio="xMidYMid meet">
<metadata>
Created by potrace 1.13, written by Peter Selinger 2001-2015
</metadata>
<g transform="translate(-122.935344,1801.131420) scale(0.100000,-0.100000)"
fill="#000000" stroke="none">
<path d="M10995 18005 c-33 -6 -73 -18 -90 -27 -16 -8 -50 -21 -73 -28 -43
-14 -92 -61 -122 -120 -11 -21 -11 -26 5 -35 78 -46 80 -48 89 -115 15 -108 9
-277 -11 -327 -22 -54 1 -50 -510 -84 -190 -13 -221 -8 -242 37 -6 14 -11 42
-11 62 0 20 -9 66 -20 102 -12 39 -20 94 -20 137 0 64 -4 77 -31 118 -41 61
-68 74 -133 63 -28 -5 -63 -13 -77 -19 -38 -15 -89 -82 -89 -116 0 -16 -5 -34
-12 -41 -7 -7 -13 -52 -15 -109 -2 -54 -6 -120 -9 -148 -3 -27 -1 -83 3 -122
9 -67 8 -74 -11 -92 -29 -25 -61 -41 -85 -41 -12 0 -30 -6 -41 -12 -15 -10
-27 -10 -50 -1 -39 15 -67 7 -111 -31 -20 -17 -59 -37 -85 -44 -27 -7 -67 -20
-89 -28 l-40 -14 -37 37 c-47 47 -66 113 -72 255 -5 95 -20 168 -44 214 -5 11
-15 31 -20 46 -6 15 -26 34 -43 44 -41 21 -111 8 -197 -35 -85 -43 -102 -79
-102 -214 1 -74 5 -107 15 -121 8 -11 15 -41 15 -67 0 -26 4 -50 9 -53 5 -3
12 -50 16 -103 4 -54 15 -120 25 -148 28 -79 31 -130 9 -178 -26 -59 -108
-144 -144 -152 -17 -3 -53 -13 -82 -22 -49 -15 -82 -13 -111 6 -13 8 -55 113
-72 177 -4 18 -15 42 -24 55 -9 13 -16 31 -16 41 0 10 -18 55 -40 99 -22 45
-40 92 -40 105 0 12 -4 26 -10 29 -5 3 -10 14 -10 24 0 10 -11 28 -24 40 -13
13 -41 57 -62 98 -47 91 -72 113 -131 113 -78 0 -130 -19 -184 -68 -49 -44
-51 -47 -44 -86 3 -23 15 -51 26 -62 23 -25 80 -217 83 -279 1 -22 16 -71 33
-110 17 -38 36 -92 43 -120 32 -126 43 -174 49 -230 4 -33 16 -82 25 -109 26
-73 46 -153 46 -186 0 -44 -14 -71 -64 -122 -37 -38 -45 -52 -41 -71 7 -27
-16 -53 -40 -44 -32 13 -93 -62 -109 -136 -4 -16 -22 -43 -41 -60 -19 -18 -43
-54 -54 -80 -23 -53 -81 -147 -116 -187 -13 -14 -26 -38 -29 -54 -4 -16 -16
-41 -27 -54 -10 -14 -19 -37 -19 -53 0 -29 -33 -61 -54 -53 -20 8 -45 -29 -55
-80 -5 -26 -10 -48 -12 -50 -81 -56 -131 -123 -165 -220 -8 -22 -24 -51 -36
-63 -12 -12 -25 -42 -29 -65 -5 -24 -13 -67 -18 -96 -6 -30 -15 -60 -21 -67
-7 -8 -10 -24 -9 -37 2 -13 -5 -35 -15 -50 -15 -23 -16 -33 -7 -58 5 -17 8
-37 5 -45 -4 -8 -3 -23 1 -32 16 -39 14 -84 -4 -102 -10 -10 -14 -23 -11 -32
17 -34 28 -82 23 -95 -3 -8 -2 -22 2 -31 15 -33 14 -86 -1 -114 -8 -16 -14
-52 -14 -81 0 -29 0 -73 -1 -98 -2 -96 22 -252 43 -277 8 -10 8 -27 -2 -68 -7
-30 -10 -58 -7 -61 3 -4 0 -19 -8 -35 -13 -25 -13 -33 0 -74 10 -29 15 -72 13
-119 -3 -70 -1 -77 47 -171 49 -97 51 -107 45 -203 -1 -13 5 -31 14 -41 9 -10
16 -29 16 -42 0 -25 30 -120 56 -176 7 -17 14 -42 14 -56 0 -13 13 -44 30 -68
16 -24 30 -53 30 -64 0 -11 9 -40 20 -64 11 -24 22 -53 24 -65 2 -11 14 -40
26 -63 12 -24 24 -61 27 -84 5 -31 14 -47 44 -71 41 -33 49 -48 24 -48 -24 0
-18 -39 10 -64 14 -13 39 -50 56 -82 18 -33 60 -90 94 -129 71 -79 101 -128
110 -178 4 -19 20 -47 36 -63 15 -15 26 -31 24 -35 -10 -15 16 -55 51 -78 28
-19 34 -29 30 -47 -5 -18 2 -30 35 -56 22 -18 47 -47 54 -65 8 -18 36 -57 63
-86 67 -72 82 -96 82 -134 0 -27 7 -37 39 -59 22 -14 42 -32 45 -40 3 -8 17
-14 31 -14 34 0 67 -18 59 -31 -3 -6 3 -17 15 -25 12 -8 21 -25 21 -37 0 -42
12 -65 39 -76 38 -16 91 -69 91 -91 0 -19 26 -43 78 -71 16 -9 36 -30 43 -45
8 -17 37 -41 69 -59 42 -23 61 -42 80 -79 27 -50 59 -75 97 -76 12 0 38 -16
59 -35 38 -36 90 -57 122 -48 11 2 42 -7 70 -22 31 -16 58 -24 73 -20 27 6 42
-1 57 -30 5 -11 27 -27 49 -34 21 -8 62 -29 91 -47 35 -23 65 -34 90 -34 45 0
107 -16 124 -33 31 -29 129 -87 174 -102 52 -17 75 -30 113 -64 16 -14 38 -21
62 -21 34 0 42 -5 64 -40 22 -35 30 -40 62 -40 21 0 55 -6 78 -14 130 -44 146
-48 204 -43 33 3 65 8 71 12 25 16 214 15 262 -1 35 -11 52 -13 67 -5 11 6 39
10 63 9 89 -4 389 14 435 27 26 7 80 22 118 33 116 33 167 45 230 52 34 4 70
12 80 17 49 26 238 62 345 67 30 1 65 7 77 14 13 7 51 21 85 32 71 22 78 27
94 55 9 17 26 21 104 27 72 6 107 14 158 38 35 16 77 30 93 30 45 0 189 57
215 85 13 14 34 25 49 25 14 0 44 9 66 20 22 12 44 18 49 15 6 -3 31 5 57 19
106 56 170 80 218 83 28 1 50 3 50 3 0 1 22 4 50 7 57 5 100 25 118 54 15 26
69 49 113 49 45 0 73 12 115 51 38 36 81 67 137 100 19 11 40 35 49 57 8 20
23 42 33 49 9 7 30 38 46 69 25 50 36 60 81 81 51 22 53 25 53 61 0 20 -7 47
-15 59 -14 20 -14 23 4 32 11 6 26 8 34 6 14 -6 57 36 107 104 14 19 42 52 63
73 22 24 37 48 37 63 0 15 6 25 14 25 15 0 76 114 76 142 0 14 25 31 40 26 3
-1 14 4 25 10 13 7 26 30 34 64 8 29 22 70 32 90 11 21 19 45 19 54 0 9 9 27
20 41 11 14 20 38 20 53 0 15 11 39 25 54 14 15 25 35 25 45 0 9 4 21 9 27 9
9 33 50 64 109 9 17 28 63 43 103 15 40 33 77 41 83 7 6 13 21 13 33 0 13 16
45 35 72 19 27 35 54 35 61 0 7 8 28 17 48 14 29 15 40 5 55 -19 31 -14 81 13
119 21 31 23 41 15 75 -10 46 -6 56 21 56 18 0 24 17 20 61 -1 9 9 25 21 35
34 27 53 116 37 178 -9 37 -9 53 1 74 7 15 18 59 25 99 8 41 22 84 35 101 20
27 27 58 45 189 2 17 20 54 40 81 33 47 35 53 35 134 0 64 5 93 20 123 27 52
29 238 4 287 -14 27 -14 37 -3 70 10 32 10 41 -3 55 -30 35 -35 74 -21 158 17
107 17 109 -13 144 -21 26 -25 38 -21 69 13 86 13 87 -10 90 -29 4 -34 22 -21
84 16 82 21 204 9 227 -7 12 -26 23 -49 27 -50 9 -72 30 -72 69 0 18 8 47 18
66 13 25 16 54 15 114 -3 109 -20 155 -66 177 -43 21 -51 32 -39 54 12 22 -7
85 -30 102 -10 7 -18 22 -18 32 0 10 -14 29 -31 41 -17 12 -47 36 -66 54 -35
32 -36 35 -39 117 -2 47 -8 97 -14 112 -5 15 -10 41 -10 57 0 27 -2 29 -41 29
-32 0 -47 6 -65 26 -13 14 -24 33 -24 43 0 10 -20 37 -45 60 -40 37 -58 71
-37 71 4 0 23 15 44 34 33 30 36 38 36 87 1 82 -26 132 -87 163 -27 14 -54 32
-58 39 -21 36 -87 81 -127 86 -34 5 -42 10 -44 31 -7 49 -30 62 -93 55 l-58
-7 -10 39 c-15 54 -13 158 4 223 8 30 15 67 15 82 0 14 11 39 24 55 20 23 24
40 24 93 1 36 1 72 1 80 1 8 -2 48 -5 89 -7 77 7 188 31 251 17 45 26 132 15
150 -7 11 -21 12 -82 2 -58 -9 -76 -15 -88 -34 -8 -13 -31 -39 -51 -58 -25
-24 -40 -48 -44 -75 -4 -22 -15 -53 -23 -70 -29 -53 -42 -99 -42 -144 0 -26
-10 -63 -25 -93 -14 -27 -25 -59 -25 -71 0 -12 -7 -31 -15 -41 -8 -11 -15 -36
-15 -56 0 -73 -74 -95 -137 -40 -21 19 -45 30 -64 30 -16 0 -55 11 -87 24 -31
13 -69 24 -84 24 -15 0 -42 9 -60 20 -18 11 -80 45 -138 74 -58 30 -131 72
-164 92 l-58 38 6 41 c4 23 18 62 32 86 14 26 24 60 24 85 0 22 7 50 15 60 18
24 20 87 3 104 -14 14 -67 15 -120 3 -41 -10 -156 -91 -175 -125 -7 -11 -20
-44 -28 -72 -22 -71 -49 -85 -113 -56 -26 12 -61 23 -78 26 -17 2 -45 11 -62
20 -17 9 -51 16 -76 16 -25 0 -47 4 -51 9 -3 6 -33 9 -68 8 -34 0 -85 5 -113
13 -47 12 -53 17 -63 52 -8 26 -9 44 -1 57 5 11 10 45 10 75 0 43 -5 61 -20
76 -26 26 -94 27 -135 2 -16 -10 -41 -21 -55 -25 -28 -7 -124 -121 -146 -174
-8 -18 -24 -38 -36 -44 -13 -6 -34 -21 -46 -33 -21 -19 -36 -21 -150 -22 -70
-1 -152 -7 -182 -14 -40 -9 -79 -10 -139 -4 -120 13 -122 17 -127 215 -4 182
-9 213 -36 259 -11 19 -30 66 -42 104 -28 88 -41 97 -121 81z m1155 -995 c27
-14 145 -38 280 -55 63 -8 125 -19 138 -25 28 -12 30 -60 3 -121 -25 -58 -45
-191 -37 -251 5 -34 2 -56 -9 -77 -8 -17 -15 -51 -15 -77 0 -27 -9 -66 -20
-89 -16 -33 -18 -48 -10 -71 5 -16 13 -80 17 -143 8 -109 9 -115 36 -134 16
-12 42 -21 64 -21 30 0 42 7 70 39 18 22 36 51 39 65 3 14 18 52 35 85 16 33
37 96 45 140 26 133 30 149 42 172 7 12 12 37 12 56 0 19 13 60 30 92 23 44
30 70 30 115 0 43 4 59 15 64 20 7 149 -20 178 -38 12 -8 51 -24 87 -37 36
-13 76 -31 90 -40 14 -9 50 -25 80 -34 30 -10 67 -26 82 -37 15 -10 50 -26 78
-34 54 -16 204 -92 252 -127 39 -29 53 -79 38 -137 -6 -25 -16 -67 -21 -95 -6
-27 -16 -59 -23 -70 -8 -11 -17 -54 -21 -95 -4 -41 -13 -90 -21 -109 -20 -48
-17 -73 12 -117 33 -50 52 -64 85 -64 32 0 85 41 94 73 16 56 51 134 71 159
12 15 25 41 29 57 3 17 24 49 46 73 21 24 39 46 39 50 0 5 11 8 25 8 23 0 44
-18 140 -121 14 -15 25 -33 25 -40 0 -8 18 -43 40 -79 22 -36 40 -71 40 -78 0
-6 25 -39 56 -71 31 -33 71 -89 90 -126 18 -36 45 -82 59 -103 14 -20 25 -44
25 -53 0 -9 10 -27 23 -41 28 -32 87 -142 87 -163 0 -26 49 -133 73 -161 12
-14 25 -44 29 -67 4 -23 14 -82 22 -132 14 -90 42 -184 77 -260 23 -49 41
-269 29 -335 -12 -58 -12 -127 -2 -148 8 -15 5 -156 -12 -562 -4 -100 -18
-208 -35 -275 -6 -22 -11 -59 -11 -81 0 -23 -9 -61 -20 -85 -11 -24 -20 -62
-20 -84 0 -22 -9 -60 -20 -84 -11 -24 -20 -52 -20 -63 0 -11 -11 -52 -25 -91
-17 -47 -24 -80 -19 -102 4 -22 -1 -48 -16 -82 -29 -67 -46 -135 -79 -312 -6
-30 -26 -80 -44 -110 -25 -40 -36 -72 -39 -111 -4 -42 -14 -68 -41 -109 -21
-29 -37 -60 -38 -70 0 -15 -20 -55 -125 -257 -23 -43 -51 -88 -63 -98 -12 -11
-21 -25 -21 -32 0 -7 -11 -25 -24 -41 -13 -16 -43 -66 -66 -111 -23 -45 -46
-84 -50 -87 -5 -3 -30 -38 -56 -78 -26 -39 -64 -92 -84 -117 -19 -25 -49 -65
-65 -90 -39 -57 -94 -113 -145 -145 -22 -14 -40 -31 -40 -38 0 -6 -33 -50 -74
-97 -66 -77 -82 -89 -153 -120 -43 -19 -114 -54 -158 -79 -44 -24 -105 -55
-135 -68 -30 -13 -71 -32 -90 -42 -19 -10 -62 -26 -95 -36 -33 -9 -73 -27 -90
-39 -16 -12 -59 -33 -95 -45 -36 -13 -90 -40 -120 -60 -31 -20 -78 -45 -105
-56 -28 -10 -72 -33 -100 -50 -27 -17 -81 -44 -120 -60 -38 -16 -94 -42 -124
-57 -30 -15 -60 -28 -66 -28 -6 0 -36 -13 -66 -29 -30 -16 -72 -32 -94 -36
-22 -4 -44 -10 -50 -15 -24 -18 -146 -60 -176 -60 -18 0 -52 -11 -76 -26 -27
-16 -75 -30 -131 -39 -48 -8 -129 -21 -181 -29 -52 -8 -115 -20 -140 -25 -115
-25 -150 -33 -211 -47 -39 -9 -161 -20 -304 -26 -262 -11 -318 -5 -396 46 -19
12 -55 30 -79 40 -24 9 -55 26 -69 37 -14 10 -30 19 -36 19 -7 0 -48 17 -92
38 -43 22 -131 60 -194 87 -63 26 -151 63 -195 83 -44 19 -119 44 -167 56
-118 30 -434 194 -468 243 -13 18 -45 47 -71 65 -47 30 -213 216 -256 286 -12
19 -32 42 -45 50 -12 7 -34 32 -48 54 -14 21 -41 51 -60 66 -50 38 -160 153
-160 167 0 6 -24 43 -54 81 -29 38 -63 88 -74 111 -12 22 -32 49 -45 60 -13
10 -32 32 -43 48 -10 17 -38 54 -61 83 -24 29 -43 60 -43 68 0 9 -22 44 -49
78 -27 33 -73 110 -102 169 -77 155 -92 183 -111 203 -21 25 -128 229 -128
246 0 8 -9 31 -20 53 -11 22 -20 51 -20 65 0 14 -14 45 -30 69 -17 24 -30 50
-30 58 0 8 -10 33 -22 56 -12 23 -25 62 -29 87 -20 117 -30 155 -48 193 -35
74 -53 139 -56 206 -1 36 -8 199 -14 361 -6 162 -16 320 -21 350 -25 137 -31
196 -36 355 -3 94 -6 181 -5 195 1 96 8 168 18 185 5 11 13 45 17 75 5 36 15
64 30 80 13 14 29 41 36 60 7 19 24 50 37 68 13 18 27 49 30 70 3 20 12 49 19
64 8 15 14 35 14 46 0 10 11 33 25 52 14 19 25 40 25 48 0 18 84 149 124 192
64 68 166 210 166 230 0 12 15 30 39 46 22 14 42 36 45 49 7 28 89 99 154 135
26 14 52 35 58 48 6 12 20 33 31 45 12 12 27 36 36 52 8 17 24 39 36 49 12 11
21 29 21 41 0 13 11 30 26 40 14 9 64 56 112 104 81 81 157 143 210 170 19 10
29 8 66 -14 24 -14 50 -32 56 -40 18 -22 64 -18 87 8 31 33 64 104 83 177 44
164 60 190 160 258 47 31 99 62 115 68 17 6 48 23 69 38 21 14 50 26 64 26 13
0 42 5 62 11 21 7 50 9 64 5 45 -11 57 -43 62 -172 5 -130 9 -141 65 -153 41
-9 127 5 153 24 25 19 36 93 26 195 -5 52 13 139 31 156 11 10 19 22 19 29 0
6 17 30 38 52 30 32 46 42 85 47 28 4 61 3 81 -4 31 -10 37 -9 60 15 26 26 60
33 72 14 4 -7 24 -9 54 -6 38 5 52 2 68 -14 29 -27 53 -24 92 11 42 37 73 46
107 31 18 -8 24 -17 20 -31 -7 -26 9 -37 65 -45 87 -13 106 -75 49 -167 -18
-28 -29 -58 -26 -67 6 -19 98 -76 138 -86 23 -6 29 -2 46 27 11 18 34 41 51
51 17 11 32 29 35 45 4 15 32 78 63 140 46 91 61 114 82 118 14 3 36 10 50 15
14 5 95 7 180 5 85 -2 187 1 227 7 99 15 120 4 125 -67 5 -58 -13 -201 -29
-231 -6 -11 -16 -37 -23 -59 -16 -50 -5 -57 75 -49 89 8 157 57 176 126 6 21
24 57 40 79 16 23 29 49 29 58 0 9 13 34 30 56 16 21 30 51 30 65 0 32 23 54
76 73 49 18 51 18 74 6z m3060 -3600 c-9 -17 -30 -28 -30 -16 0 2 -3 11 -6 20
-5 12 0 16 20 16 24 0 25 -2 16 -20z"/>
<path d="M12484 14945 c-22 -25 -58 -67 -81 -94 -24 -26 -43 -53 -43 -60 0 -6
-5 -20 -12 -31 -10 -15 -9 -22 5 -38 16 -18 16 -20 -8 -42 -25 -24 -33 -50
-15 -50 15 0 12 -28 -7 -56 -15 -24 -15 -28 5 -70 27 -56 28 -96 2 -119 -29
-27 -27 -82 5 -107 14 -11 25 -28 25 -38 0 -86 231 -135 350 -75 59 30 116 93
129 142 5 21 11 79 12 128 2 97 -13 170 -51 243 -12 24 -25 63 -28 88 -4 36
-11 50 -42 74 -21 16 -43 42 -49 57 -17 39 -91 93 -128 93 -24 0 -39 -10 -69
-45z"/>
<path d="M10040 14741 c-33 -8 -80 -40 -80 -55 0 -6 -14 -29 -30 -50 -18 -23
-30 -52 -30 -69 0 -21 -10 -39 -36 -63 -19 -19 -39 -46 -44 -61 -5 -16 -16
-46 -24 -68 -27 -71 -21 -122 19 -171 19 -23 35 -46 35 -51 0 -5 20 -26 45
-47 68 -56 168 -88 290 -93 l100 -4 55 41 c30 22 58 46 61 53 4 7 13 58 19
114 9 76 9 106 0 122 -6 12 -13 44 -14 70 -2 26 -9 58 -16 70 -6 13 -18 44
-26 70 -7 26 -24 57 -36 68 -33 31 -113 73 -138 73 -12 0 -35 14 -50 30 -28
30 -48 34 -100 21z"/>
<path d="M11786 12770 c-35 -11 -255 -13 -573 -5 -138 3 -269 1 -320 -5 -49
-6 -126 -15 -173 -20 -47 -5 -108 -16 -137 -25 -80 -24 -141 -36 -233 -44 -55
-6 -108 -18 -150 -36 -72 -30 -140 -88 -140 -120 0 -11 -12 -40 -25 -65 -64
-117 -75 -156 -79 -272 -2 -58 -7 -111 -11 -118 -4 -6 -1 -33 6 -59 9 -35 9
-62 3 -92 -9 -39 -7 -48 13 -75 39 -52 73 -127 73 -160 0 -57 26 -105 113
-210 20 -25 37 -48 37 -52 1 -4 24 -33 53 -64 49 -54 57 -59 131 -78 44 -11
90 -20 102 -20 27 0 102 -27 124 -45 8 -7 52 -16 97 -19 79 -7 84 -6 108 18
32 32 43 34 80 14 62 -32 75 -32 253 1 24 5 63 4 88 -1 31 -7 70 -6 127 3 71
11 179 18 281 19 17 0 33 -5 38 -12 25 -41 24 -41 149 -41 95 0 134 4 166 18
46 18 143 17 253 -4 48 -9 58 -8 88 9 18 11 51 20 72 20 22 0 54 9 72 20 18
11 48 20 66 20 23 0 41 8 60 29 15 15 50 41 79 56 28 15 54 33 57 40 9 25 94
66 147 72 58 6 112 34 185 96 25 20 53 37 63 37 24 0 41 20 41 47 0 12 16 51
35 86 19 35 35 78 35 96 0 17 8 44 18 58 13 20 17 51 19 123 1 52 6 111 12
130 30 104 43 188 32 208 -18 34 -13 70 15 96 32 29 25 43 -24 51 -20 4 -53
14 -72 24 -19 10 -50 21 -68 24 -18 4 -49 18 -70 32 -27 19 -50 25 -87 25 -65
0 -93 19 -97 67 -5 60 -37 75 -160 79 -57 1 -146 6 -199 9 -53 4 -231 8 -395
10 -165 2 -310 6 -324 8 -14 3 -38 2 -54 -3z m-646 -252 c102 2 219 -1 260 -6
42 -5 92 -5 113 0 23 5 53 4 75 -1 20 -6 64 -10 97 -10 173 3 251 0 365 -12
69 -7 154 -11 190 -10 191 9 302 -4 386 -45 45 -22 63 -26 104 -21 87 10 168
-9 226 -54 70 -54 78 -77 64 -175 -6 -44 -15 -118 -20 -166 -5 -48 -15 -100
-23 -115 -9 -15 -21 -44 -28 -63 -19 -50 -91 -124 -141 -144 -24 -10 -59 -26
-78 -36 -19 -9 -55 -21 -80 -25 -25 -4 -61 -15 -80 -25 -19 -9 -51 -20 -71
-23 -20 -3 -65 -19 -99 -36 -34 -17 -68 -31 -75 -31 -7 0 -41 -9 -76 -21 -58
-19 -77 -20 -204 -13 -77 4 -207 9 -290 10 -82 2 -247 6 -365 8 -401 10 -470
8 -513 -16 -13 -6 -55 -4 -130 7 -195 28 -231 36 -277 63 -25 14 -62 35 -83
45 -73 37 -157 161 -157 231 0 9 -11 39 -25 66 -74 145 -83 300 -25 404 18 31
41 61 52 67 11 6 24 24 30 40 15 44 76 71 168 76 265 13 460 30 470 39 2 3 16
2 30 -3 14 -4 108 -6 210 -5z"/>
<path d="M4213 15135 c-64 -13 -133 -40 -133 -54 0 -15 -52 -31 -104 -31 -55
0 -78 -15 -105 -67 -6 -13 -25 -30 -41 -38 -31 -16 -60 -61 -60 -94 0 -11 -12
-34 -27 -52 -25 -29 -28 -41 -30 -117 -1 -48 -8 -90 -15 -99 -6 -8 -11 -31
-10 -52 2 -28 -3 -42 -23 -61 -16 -15 -25 -34 -25 -54 0 -39 -7 -49 -48 -70
-18 -9 -37 -29 -43 -44 -6 -15 -21 -41 -35 -59 -13 -17 -24 -42 -24 -55 0 -13
-9 -52 -20 -87 -11 -35 -22 -81 -23 -102 -2 -27 -11 -44 -29 -59 -15 -11 -28
-30 -30 -42 -2 -11 -10 -26 -19 -31 -24 -15 -104 53 -113 95 -9 45 -53 98 -95
115 -49 20 -71 42 -71 68 0 13 -10 30 -24 38 -13 9 -26 30 -30 49 -3 18 -20
47 -37 64 -16 17 -30 42 -30 55 -2 54 -9 67 -44 79 -20 7 -44 20 -53 30 -18
19 -64 48 -122 76 -19 10 -49 28 -66 41 -17 13 -36 23 -42 23 -15 0 -16 17 -2
25 19 12 10 33 -25 54 -19 11 -35 26 -35 33 0 7 -22 34 -49 60 -27 26 -55 61
-63 78 -11 26 -17 30 -39 26 -20 -4 -34 2 -57 24 -27 25 -85 50 -120 50 -6 0
-29 -9 -50 -20 -24 -13 -47 -18 -64 -14 -33 7 -68 -3 -68 -19 0 -7 -29 -32
-64 -56 -61 -41 -79 -60 -81 -87 0 -6 -12 -29 -27 -50 -24 -36 -26 -43 -17
-84 6 -25 14 -68 17 -95 5 -32 18 -64 35 -87 41 -53 77 -160 77 -228 0 -44 4
-61 20 -75 11 -10 20 -27 20 -37 0 -10 6 -31 14 -46 8 -15 17 -49 21 -76 5
-34 18 -60 39 -85 50 -57 83 -114 100 -171 9 -29 23 -61 31 -70 9 -10 18 -40
22 -68 5 -48 4 -51 -18 -56 -13 -3 -39 -4 -57 -4 -19 1 -45 -8 -62 -20 -18
-14 -44 -22 -69 -22 -23 0 -55 -9 -76 -21 -32 -19 -46 -21 -120 -15 -74 5 -89
4 -125 -15 -35 -18 -51 -21 -98 -15 -74 10 -102 8 -118 -5 -7 -6 -37 -10 -66
-9 -84 4 -93 2 -133 -30 -44 -35 -77 -84 -82 -120 -1 -14 -8 -47 -14 -75 -15
-63 -13 -117 7 -163 8 -20 12 -47 9 -60 -3 -13 3 -41 13 -65 11 -24 22 -65 26
-92 5 -27 19 -63 33 -82 14 -18 23 -33 19 -33 -14 0 36 -41 73 -59 25 -13 41
-29 43 -43 2 -18 11 -24 41 -29 20 -3 48 -16 60 -27 13 -12 36 -22 52 -22 81
0 153 -126 111 -193 -10 -16 -12 -36 -6 -77 8 -61 3 -72 -40 -90 -35 -15 -43
-38 -41 -123 1 -34 1 -92 1 -129 0 -38 4 -68 9 -68 5 0 19 -16 31 -34 11 -19
37 -45 57 -57 31 -19 40 -21 66 -11 33 13 70 -1 105 -39 11 -11 37 -23 58 -26
21 -3 49 -17 62 -30 24 -24 61 -30 78 -13 6 6 22 6 44 0 61 -18 127 -9 150 19
3 4 17 14 32 24 24 15 39 16 108 8 44 -5 86 -13 93 -19 6 -6 33 -13 59 -17 45
-7 50 -5 78 25 27 29 33 31 73 25 29 -5 47 -3 51 4 9 14 52 14 78 0 38 -21
118 -22 139 -3 18 16 22 16 52 2 28 -13 36 -13 66 -1 24 10 41 11 62 4 41 -14
64 10 54 58 -10 53 -8 71 11 92 9 10 14 25 11 34 -7 17 -42 20 -52 5 -12 -19
-34 -10 -52 20 -15 25 -23 30 -58 30 -22 0 -55 -4 -73 -9 -22 -7 -43 -6 -60 0
-15 6 -59 17 -99 25 -66 14 -74 14 -98 -2 -23 -15 -32 -16 -60 -6 -26 10 -45
9 -96 -3 -77 -18 -141 -19 -185 -3 -23 8 -70 9 -171 2 -120 -8 -240 -3 -308
12 -23 5 -63 82 -69 134 -3 24 3 46 17 70 12 19 29 51 39 72 24 52 47 61 147
56 63 -4 96 -1 125 10 37 15 40 14 57 -6 29 -37 73 -22 92 30 3 9 28 28 55 42
36 18 52 34 61 58 7 18 22 51 33 74 12 23 18 46 14 52 -13 22 -99 43 -134 32
-35 -9 -221 2 -242 15 -6 4 -31 2 -55 -5 -63 -18 -109 -6 -148 37 -37 41 -76
63 -110 63 -13 0 -34 11 -47 25 -13 14 -27 25 -32 25 -4 0 -46 25 -93 55 -65
43 -85 61 -85 78 0 12 -7 33 -16 45 -9 13 -13 33 -10 45 3 12 -1 42 -8 66 -12
41 -10 64 10 139 8 30 76 47 190 47 95 0 115 3 133 19 20 18 23 18 157 -1
l137 -20 30 26 c17 14 49 33 71 41 30 12 47 27 64 57 13 24 24 52 25 63 2 27
47 29 47 1 0 -23 38 -64 77 -84 16 -9 42 -32 56 -51 15 -19 36 -38 47 -41 12
-4 20 -15 20 -28 0 -31 39 -105 58 -111 89 -26 123 -13 163 61 24 44 27 57 18
77 -8 17 -8 29 0 45 9 17 9 26 -4 43 -8 13 -15 37 -15 55 0 42 -32 77 -100
111 -57 29 -59 31 -120 165 -12 27 -30 51 -39 53 -35 11 -45 22 -55 57 -6 20
-21 48 -34 62 -16 18 -25 47 -33 103 -6 42 -19 91 -29 109 -13 23 -17 43 -13
68 7 41 -12 116 -40 164 -21 35 -32 75 -47 176 -6 33 -17 80 -26 103 -14 38
-15 46 -2 58 13 13 21 10 69 -26 29 -22 61 -40 69 -40 9 0 47 -34 86 -76 76
-83 88 -100 80 -113 -8 -12 31 -45 94 -79 30 -17 63 -43 72 -59 39 -64 68
-126 68 -143 0 -10 6 -25 13 -32 7 -7 48 -55 92 -107 55 -66 91 -99 121 -112
52 -23 60 -34 69 -86 5 -34 13 -46 41 -62 24 -15 34 -27 34 -46 0 -73 126 -92
144 -21 8 34 33 56 62 56 24 0 174 112 174 130 0 5 9 19 20 32 50 59 70 87 70
95 0 4 11 24 24 43 13 19 27 46 31 60 4 14 22 48 40 75 17 28 41 68 51 90 11
22 37 72 57 112 20 40 37 77 37 82 0 6 15 34 34 63 34 54 76 143 76 161 0 13
80 133 118 175 34 39 65 40 70 2 2 -14 16 -38 32 -55 23 -25 28 -41 33 -104 6
-78 21 -105 62 -115 26 -7 24 -2 44 -146 14 -106 22 -143 33 -157 6 -7 7 -24
4 -38 -4 -16 1 -39 13 -63 17 -34 19 -55 16 -180 -1 -77 -6 -146 -10 -152 -4
-6 -13 -35 -20 -63 -7 -29 -19 -68 -27 -87 -21 -56 -95 -185 -118 -205 -12
-11 -20 -31 -20 -52 0 -18 -8 -45 -17 -60 -19 -29 -52 -114 -60 -157 -3 -16
-30 -66 -60 -110 -79 -119 -95 -139 -151 -194 -29 -28 -52 -55 -52 -61 0 -6
-12 -17 -27 -25 -16 -8 -41 -26 -56 -40 -15 -14 -32 -26 -38 -26 -5 0 -9 -6
-9 -13 0 -14 -22 -39 -53 -60 -9 -7 -19 -22 -22 -34 -7 -42 -114 -133 -154
-133 -11 0 -33 -14 -48 -31 -25 -28 -31 -30 -71 -24 -62 9 -92 -12 -92 -65 0
-31 -5 -43 -29 -59 -31 -22 -56 -72 -48 -94 3 -8 41 -22 90 -32 82 -17 86 -17
133 1 49 19 195 121 211 147 4 8 28 25 53 37 74 37 412 395 460 488 35 67 96
70 112 6 12 -53 39 -118 87 -214 37 -73 47 -103 43 -128 -5 -40 11 -82 60
-151 21 -30 38 -59 38 -65 0 -6 7 -24 16 -41 9 -16 18 -57 20 -90 4 -46 10
-64 27 -77 12 -10 27 -23 34 -28 7 -6 10 -17 7 -25 -3 -8 8 -32 26 -53 26 -33
32 -50 37 -111 6 -68 8 -73 43 -101 31 -25 41 -44 69 -132 19 -57 40 -118 47
-136 8 -18 14 -39 14 -46 0 -7 8 -24 19 -37 10 -13 39 -64 65 -114 35 -67 45
-96 41 -117 -8 -33 12 -74 54 -111 20 -18 31 -37 31 -55 0 -40 37 -130 75
-182 18 -25 40 -61 50 -80 9 -19 30 -48 46 -65 15 -17 32 -50 38 -75 7 -33 20
-53 50 -77 30 -25 46 -51 67 -106 15 -39 35 -81 45 -93 34 -37 79 -143 83
-195 3 -43 9 -56 40 -84 28 -26 36 -40 36 -68 0 -26 10 -48 40 -86 22 -28 45
-51 50 -51 17 0 50 -63 44 -85 -5 -21 6 -39 73 -127 23 -31 49 -70 57 -89 29
-62 121 -197 154 -224 17 -15 32 -31 32 -37 0 -16 77 -128 120 -173 20 -22 46
-53 58 -70 37 -55 126 -141 174 -168 28 -17 51 -40 59 -59 7 -18 25 -46 39
-62 42 -50 68 -98 80 -150 9 -41 8 -53 -6 -73 -8 -14 -14 -34 -11 -44 3 -12
-7 -34 -28 -59 -18 -22 -39 -57 -46 -78 -6 -20 -18 -46 -25 -57 -8 -11 -14
-27 -14 -35 0 -9 -13 -29 -30 -45 -16 -16 -30 -38 -30 -49 0 -23 -59 -220 -91
-301 -10 -28 -19 -59 -19 -70 -1 -11 -7 -31 -15 -45 -8 -14 -14 -39 -15 -56 0
-46 -17 -55 -87 -48 -56 6 -61 5 -68 -15 -12 -38 -66 -25 -161 40 -33 22 -44
38 -54 76 -15 55 -44 98 -109 164 -62 63 -103 116 -119 152 -7 17 -23 41 -37
55 -24 23 -30 40 -26 70 3 19 -17 40 -61 68 -21 14 -38 29 -38 35 0 6 -20 29
-45 51 -35 31 -45 47 -46 71 0 35 -33 103 -91 191 -21 31 -44 71 -51 88 -8 18
-22 39 -31 47 -10 8 -26 32 -37 54 -20 38 -66 85 -118 119 -26 18 -38 49 -48
123 -3 22 -14 52 -24 67 -11 14 -19 31 -19 36 0 6 -12 21 -27 34 -46 39 -55
55 -63 115 -10 72 -26 114 -67 176 -18 27 -37 68 -43 90 -6 23 -22 66 -35 95
-14 29 -25 59 -25 67 0 8 -16 25 -35 37 -23 16 -37 33 -41 54 -3 17 -18 45
-33 61 -15 16 -33 49 -40 74 -17 58 -56 139 -87 180 -13 18 -24 37 -24 41 0 4
-17 23 -38 42 -21 19 -44 47 -52 63 -8 15 -17 30 -20 33 -10 8 -78 153 -85
180 -4 14 -13 32 -20 40 -20 24 -55 97 -55 116 0 9 -11 29 -24 45 -14 16 -34
55 -46 86 -12 32 -27 65 -35 73 -15 17 -36 65 -72 165 -14 39 -33 79 -43 90
-37 42 -52 87 -55 170 -3 84 -41 221 -72 256 -28 33 -150 41 -249 18 -59 -13
-70 -9 -113 45 -29 36 -35 39 -81 39 -28 0 -54 -3 -57 -7 -14 -14 -52 -4 -66
17 -24 37 -84 56 -137 43 -25 -6 -44 -14 -44 -18 1 -4 -2 -26 -7 -48 -11 -47
4 -84 45 -115 14 -11 26 -27 26 -35 0 -9 7 -25 15 -36 8 -10 15 -35 15 -55 0
-39 26 -70 74 -88 19 -8 26 -16 22 -27 -3 -9 -6 -24 -6 -34 0 -10 -7 -25 -15
-33 -21 -21 6 -31 32 -12 22 17 99 20 109 4 3 -6 22 -9 43 -7 62 8 97 -8 145
-67 24 -30 48 -70 51 -87 4 -18 16 -45 26 -60 11 -14 17 -33 13 -41 -3 -8 9
-35 26 -61 18 -26 36 -62 41 -82 7 -22 22 -42 43 -56 37 -25 106 -142 106
-182 0 -30 28 -89 73 -155 16 -24 42 -76 57 -115 27 -69 78 -156 120 -204 11
-13 20 -33 20 -43 0 -11 14 -33 30 -48 18 -16 28 -34 25 -42 -3 -9 5 -25 19
-38 19 -17 24 -30 20 -50 -4 -20 2 -34 25 -59 17 -17 31 -40 31 -50 0 -11 15
-39 32 -63 40 -54 58 -98 67 -164 11 -78 76 -203 131 -252 30 -26 62 -70 85
-115 20 -40 48 -88 61 -107 13 -19 24 -42 24 -52 0 -10 11 -26 25 -37 15 -12
25 -30 25 -45 0 -14 11 -39 25 -55 14 -17 28 -45 31 -64 4 -18 17 -52 30 -75
13 -23 24 -50 24 -60 1 -36 37 -122 66 -156 55 -65 62 -72 89 -91 15 -10 36
-39 48 -65 21 -48 114 -158 152 -178 19 -11 24 -24 30 -89 7 -76 7 -76 52
-107 39 -28 103 -107 103 -129 0 -19 72 -117 90 -123 23 -7 150 -127 150 -141
0 -5 14 -15 31 -23 17 -7 35 -25 40 -40 5 -14 16 -37 24 -51 8 -14 25 -45 36
-70 13 -29 43 -64 84 -98 40 -33 69 -67 77 -87 14 -40 47 -55 118 -55 37 0 55
6 85 30 20 16 44 32 54 35 26 8 136 136 149 174 6 18 30 60 52 92 22 33 43 74
47 92 3 18 10 37 14 43 5 6 15 29 23 52 9 23 29 59 45 80 16 20 33 51 36 67 4
17 13 47 21 68 8 20 14 49 14 64 0 14 13 47 29 72 18 29 36 81 50 144 12 54
30 116 41 137 11 22 20 47 20 57 0 10 9 29 20 43 11 14 20 30 20 37 0 17 41
43 68 43 13 0 42 18 70 45 47 44 79 69 160 124 50 34 105 88 115 113 3 10 26
27 51 39 40 18 96 70 153 142 10 12 27 29 39 37 26 18 134 138 194 215 25 32
64 77 88 101 23 23 42 48 42 56 0 8 11 29 25 48 14 19 25 43 25 55 0 12 11 36
25 55 33 45 35 118 4 146 -17 15 -34 18 -86 16 -79 -3 -116 -23 -139 -72 -30
-62 -90 -143 -160 -216 -38 -39 -80 -92 -94 -119 -35 -66 -320 -347 -402 -397
-35 -21 -72 -38 -84 -38 -11 0 -49 14 -83 31 -46 23 -65 39 -75 64 -8 18 -19
36 -25 39 -6 4 -11 18 -11 32 0 16 -16 42 -46 72 -25 26 -52 58 -60 72 -9 14
-33 38 -55 53 -22 16 -46 43 -53 62 -8 18 -19 36 -25 39 -6 4 -11 14 -11 23 0
25 -48 120 -64 126 -18 7 -71 83 -81 117 -4 14 -21 41 -36 60 -16 19 -29 40
-29 46 0 6 -7 17 -16 25 -8 7 -28 40 -44 73 -26 57 -138 186 -161 186 -5 0
-27 36 -49 80 -29 58 -52 88 -81 109 -30 22 -52 53 -84 117 -24 47 -55 98 -68
113 -36 38 -87 134 -87 163 0 24 -23 60 -62 100 -10 10 -18 31 -18 47 0 16
-12 44 -30 66 -25 32 -29 43 -24 79 7 46 -5 77 -61 166 -19 30 -34 61 -35 68
0 7 -11 30 -25 50 -14 20 -25 50 -25 66 0 16 -13 52 -28 80 -16 28 -34 71 -42
96 -8 25 -31 66 -52 91 -21 26 -38 56 -38 67 0 11 -18 65 -40 119 -33 79 -39
105 -34 136 5 31 1 46 -19 76 -14 21 -46 78 -71 127 -78 150 -95 178 -131 211
-27 25 -35 40 -35 67 0 19 -4 37 -9 41 -5 3 -12 18 -16 33 -6 28 -31 61 -100
132 -38 39 -64 100 -74 175 -4 28 -15 62 -24 76 -28 41 -88 243 -91 303 -2 34
-44 42 -126 22 -76 -19 -94 -14 -102 24 -3 18 94 211 116 229 8 7 18 26 21 42
4 16 11 31 16 34 5 4 9 20 9 36 0 33 13 63 40 94 52 59 113 210 109 268 -2 19
8 53 24 84 28 55 28 90 0 146 -12 24 -12 34 2 75 9 26 23 54 31 63 16 17 16
21 -7 155 -9 53 -8 66 6 88 17 26 17 27 -9 64 -16 23 -26 52 -26 73 0 18 -7
48 -16 64 -9 17 -18 50 -20 75 -2 25 -16 73 -29 108 -18 45 -25 79 -23 117 2
54 -18 95 -47 95 -27 0 -95 102 -95 142 0 17 -31 48 -48 48 -6 0 -20 14 -32
30 -18 26 -27 30 -63 29 -23 -1 -70 -7 -104 -14z m-879 -3814 c4 -5 2 -19 -2
-31 -7 -19 -9 -20 -21 -6 -7 9 -11 23 -7 31 6 17 22 20 30 6z"/>
<path d="M29750 14994 c-86 -28 -145 -44 -200 -54 -145 -26 -162 -31 -188 -50
-15 -11 -54 -27 -87 -35 -64 -17 -211 -85 -260 -121 -16 -12 -41 -25 -55 -29
-14 -4 -79 -33 -145 -65 -66 -32 -162 -70 -214 -85 -53 -16 -112 -40 -134 -56
-22 -16 -47 -29 -55 -29 -8 0 -35 -7 -61 -15 -25 -8 -89 -28 -141 -44 -113
-35 -183 -65 -200 -87 -11 -13 -11 -20 2 -42 8 -15 18 -39 22 -54 7 -31 50
-58 91 -58 31 0 58 13 99 47 24 20 37 24 67 19 23 -4 50 0 73 9 19 8 51 15 69
15 19 0 53 6 75 14 24 9 56 12 76 9 29 -4 42 0 75 26 21 17 54 34 73 37 18 4
42 15 53 25 11 10 56 25 100 34 54 11 93 26 119 46 26 19 52 29 75 29 39 0
134 40 166 70 11 10 35 21 54 23 18 3 48 19 65 35 43 42 159 101 257 131 35
11 78 44 168 126 40 37 81 100 81 125 0 10 -91 13 -120 4z"/>
<path d="M24890 14432 c-34 -17 -80 -73 -80 -97 0 -21 41 -65 60 -65 25 0 50
-37 50 -76 0 -17 7 -48 15 -68 8 -20 13 -36 10 -36 -2 0 4 -17 14 -37 11 -21
27 -81 36 -133 10 -52 24 -111 33 -130 18 -41 41 -184 42 -256 0 -28 6 -70 14
-95 18 -54 28 -216 16 -239 -5 -9 -11 -62 -14 -119 -3 -56 -8 -106 -11 -111
-3 -5 2 -27 11 -49 17 -44 13 -94 -11 -141 -10 -20 -11 -35 -2 -67 8 -32 8
-51 -3 -83 -13 -39 -12 -45 9 -84 22 -42 22 -44 7 -127 -28 -150 -40 -284 -29
-316 7 -19 7 -36 1 -47 -6 -11 -6 -37 2 -74 6 -31 11 -67 11 -79 -4 -150 6
-269 24 -296 16 -25 17 -40 10 -135 -10 -128 -10 -117 -1 -361 4 -121 3 -206
-4 -225 -12 -40 -15 -132 -6 -271 8 -143 8 -153 -4 -175 -6 -10 -17 -47 -24
-82 -8 -35 -21 -83 -29 -108 -32 -98 -49 -192 -44 -235 4 -39 0 -54 -33 -108
-34 -57 -38 -70 -44 -167 -4 -58 -8 -116 -8 -130 0 -28 -15 -101 -29 -140 -4
-14 -10 -59 -13 -100 -2 -41 -7 -112 -12 -158 -5 -59 -3 -94 6 -122 15 -46 1
-93 -32 -111 -29 -16 -175 -1 -220 21 -20 11 -90 29 -155 41 -118 21 -163 34
-238 69 -22 10 -51 22 -65 25 -14 4 -50 20 -80 36 -30 16 -63 29 -73 29 -9 0
-25 4 -35 9 -9 5 -48 19 -86 31 -38 11 -78 27 -90 35 -11 8 -29 15 -39 15 -10
0 -29 12 -42 26 -13 14 -29 23 -34 19 -6 -3 -30 -1 -53 6 -24 7 -56 11 -73 10
-42 -2 -196 33 -226 51 -13 9 -46 24 -74 33 -27 10 -64 31 -80 47 -17 15 -36
28 -42 28 -7 0 -23 15 -37 33 -14 18 -38 40 -53 48 -45 23 -83 52 -83 64 0 6
-18 24 -40 41 -23 16 -57 41 -77 57 -20 15 -44 27 -55 27 -10 0 -33 7 -51 16
-23 12 -64 17 -162 19 -76 1 -141 7 -153 14 -13 7 -87 14 -166 17 l-144 6 -39
-36 c-45 -40 -68 -98 -51 -126 8 -12 29 -19 70 -23 32 -3 70 -12 83 -21 13 -9
37 -16 53 -16 49 0 193 -72 215 -107 4 -7 22 -13 38 -13 19 0 45 -12 68 -30
35 -28 157 -81 191 -83 16 0 19 -2 75 -50 47 -40 77 -57 101 -57 10 0 25 -6
33 -14 9 -8 29 -17 45 -20 16 -3 35 -15 44 -27 13 -19 21 -20 65 -15 37 5 53
3 66 -8 10 -9 31 -17 47 -20 16 -2 46 -11 66 -20 21 -9 48 -16 62 -16 13 0 50
-13 81 -30 31 -16 71 -30 89 -30 44 0 90 -15 144 -47 49 -28 141 -64 226 -88
26 -8 56 -21 67 -31 22 -20 117 -41 224 -50 44 -3 88 -10 97 -15 9 -5 30 -9
46 -9 29 0 35 -5 111 -97 17 -20 25 -21 98 -16 62 4 88 2 112 -10 26 -13 53
-15 144 -10 87 4 126 2 176 -11 67 -17 120 -14 157 9 11 7 46 39 77 71 61 63
63 69 57 197 -1 26 3 53 8 60 6 7 13 25 16 40 2 15 8 32 11 37 4 6 0 19 -8 28
-12 13 -16 39 -15 107 1 75 4 94 21 112 16 18 19 31 14 68 -8 55 6 88 64 147
36 37 39 45 36 87 -2 25 3 57 9 70 9 18 10 30 2 44 -5 11 -7 35 -3 56 10 54 8
127 -5 151 -9 17 -9 25 2 38 34 41 43 76 41 152 -3 66 0 81 18 104 18 22 19
31 10 57 -6 17 -9 35 -6 39 3 4 -6 23 -18 41 -21 31 -23 44 -20 139 1 58 4
123 7 145 5 49 7 169 3 340 -1 72 -1 189 1 260 2 72 0 172 -3 223 -7 93 4 150
38 191 13 15 16 95 5 127 -4 15 1 37 17 66 17 31 25 66 28 123 3 44 8 87 12
96 4 10 -6 37 -24 66 -28 45 -31 59 -32 134 -3 151 10 445 20 472 10 27 4 94
-10 113 -5 6 -9 60 -10 120 -2 70 -9 136 -22 184 -10 41 -21 90 -24 108 -3 18
-9 35 -14 38 -5 3 -6 45 -2 93 5 79 4 91 -15 117 -24 33 -57 159 -67 254 -4
36 -13 90 -20 120 -8 30 -14 78 -13 107 0 40 -5 59 -25 85 -26 34 -67 142 -67
178 0 34 -51 78 -124 105 -80 29 -137 32 -186 7z"/>
<path d="M24605 14425 c-22 -8 -52 -14 -66 -14 -14 -1 -45 -14 -67 -31 -23
-16 -44 -30 -47 -30 -14 0 -194 -106 -220 -130 -45 -41 -150 -100 -189 -107
-25 -4 -53 -23 -100 -69 -36 -35 -83 -74 -104 -88 -21 -13 -60 -43 -86 -65
-26 -23 -52 -41 -57 -41 -5 0 -28 -17 -52 -38 -38 -35 -102 -82 -222 -163 -22
-15 -58 -34 -80 -43 -22 -10 -53 -30 -70 -45 -31 -29 -217 -131 -240 -131 -12
0 -64 -19 -170 -62 -77 -32 -194 -91 -256 -131 -31 -19 -80 -43 -109 -53 -29
-9 -67 -29 -84 -44 -17 -15 -41 -30 -53 -34 -27 -9 -248 -227 -267 -264 -8
-16 -35 -45 -59 -65 -42 -34 -48 -36 -108 -33 -36 1 -74 8 -86 14 -16 9 -53 9
-138 2 -64 -5 -130 -7 -146 -3 -17 3 -38 0 -51 -9 -17 -10 -54 -13 -148 -11
-69 2 -140 3 -158 3 -17 0 -42 5 -55 12 -12 6 -83 15 -157 19 -74 4 -150 13
-169 20 -26 9 -72 9 -215 -1 -121 -8 -198 -9 -232 -3 -36 7 -68 6 -115 -4 -68
-14 -137 -12 -234 7 -43 9 -69 9 -95 1 -19 -6 -53 -10 -75 -9 -85 2 -181 -4
-192 -14 -7 -5 -61 -11 -120 -13 -112 -3 -209 -15 -230 -28 -6 -4 -59 -9 -116
-11 -65 -2 -115 -9 -133 -19 -42 -21 -158 -40 -198 -33 -22 4 -49 1 -75 -10
-29 -11 -55 -14 -83 -10 -23 4 -64 2 -92 -3 -134 -26 -240 -31 -346 -17 -62 8
-146 12 -205 9 -55 -3 -113 -4 -130 -3 -50 5 -118 4 -165 -3 -25 -4 -91 -12
-146 -17 -237 -24 -262 -29 -324 -70 -8 -6 -36 -19 -62 -31 -51 -21 -69 -52
-50 -85 6 -11 7 -27 1 -41 -5 -14 -5 -33 1 -49 14 -37 12 -52 -10 -74 -23 -23
-100 -28 -147 -9 -40 17 -227 42 -299 41 -80 -1 -125 -20 -146 -63 -9 -19 -32
-67 -52 -108 -20 -40 -36 -86 -36 -103 0 -19 -12 -45 -34 -71 -30 -37 -35 -51
-40 -117 -3 -41 -6 -124 -6 -185 0 -60 -3 -131 -8 -157 -6 -28 -5 -89 1 -152
l9 -106 -41 -64 c-41 -63 -42 -67 -51 -180 -5 -64 -11 -120 -15 -125 -3 -5 -7
-75 -10 -156 -2 -80 -6 -149 -9 -153 -3 -4 -1 -55 3 -114 l7 -105 45 -53 c74
-89 85 -98 125 -105 43 -7 63 -15 114 -48 19 -12 60 -25 90 -28 30 -4 89 -16
130 -28 41 -12 95 -25 120 -30 25 -4 56 -14 70 -22 34 -21 104 -17 162 11 66
31 95 88 96 191 2 83 -3 93 -55 109 -15 5 -59 21 -98 36 -88 33 -162 57 -245
79 -134 35 -142 47 -140 204 5 424 -2 637 -23 678 -19 35 -22 114 -7 142 5 10
11 69 14 132 3 63 14 156 26 208 11 52 20 108 20 126 0 44 47 112 87 126 18 6
37 8 41 5 5 -3 47 -10 94 -15 47 -5 111 -19 144 -30 32 -12 83 -21 115 -21 74
0 94 -20 86 -87 -3 -29 0 -57 8 -73 7 -14 15 -45 18 -70 3 -25 13 -59 22 -77
13 -27 15 -56 11 -175 -3 -79 -5 -163 -6 -188 0 -44 30 -202 51 -267 11 -34 4
-47 -59 -126 -21 -27 -22 -36 -18 -135 3 -59 9 -118 14 -132 5 -14 8 -38 6
-54 -2 -16 -5 -98 -8 -182 l-4 -154 28 -42 c19 -28 26 -47 21 -58 -17 -32 -20
-114 -5 -134 7 -11 17 -41 20 -67 4 -32 14 -55 30 -70 13 -12 24 -27 24 -33 1
-35 134 -71 165 -46 7 6 24 6 44 0 18 -5 77 -6 132 -3 106 6 251 -9 303 -32
31 -14 51 -11 79 13 14 12 43 15 134 15 87 -1 122 2 138 13 16 11 44 14 96 12
62 -3 74 -6 73 -20 -2 -23 85 -68 132 -68 63 0 114 19 151 56 27 27 38 32 52
24 10 -5 21 -16 25 -25 6 -17 42 -20 52 -4 24 40 99 54 125 23 6 -8 16 -14 21
-14 21 0 138 62 151 80 23 33 68 36 97 7 48 -47 104 -57 314 -58 96 0 111 2
130 20 28 26 40 26 75 0 24 -17 43 -21 121 -21 78 0 98 -4 121 -20 25 -19 28
-19 57 -4 25 13 37 14 59 5 37 -15 73 -19 160 -20 43 0 93 -7 125 -18 56 -19
98 -14 98 13 0 8 6 16 13 19 14 4 99 -17 149 -37 19 -8 44 -13 55 -10 10 3 50
-2 87 -10 37 -9 95 -16 129 -16 39 -1 69 -6 81 -15 11 -8 34 -15 51 -15 49 0
64 -18 67 -80 4 -107 -14 -260 -33 -283 -10 -12 -28 -65 -40 -117 -12 -52 -27
-106 -34 -120 -7 -14 -15 -55 -18 -91 -3 -36 -13 -81 -21 -100 -8 -19 -18 -55
-21 -80 -8 -66 -55 -135 -105 -155 -22 -9 -40 -20 -40 -25 0 -14 -43 -49 -61
-49 -10 0 -30 -11 -45 -25 -33 -30 -82 -33 -115 -6 -21 17 -24 30 -31 122 -9
145 -15 169 -47 181 -14 6 -39 17 -54 25 -18 10 -41 12 -66 8 -48 -8 -64 9
-59 66 3 39 0 45 -31 66 -40 27 -91 30 -152 7 -50 -19 -201 -36 -334 -39 -62
-1 -100 -7 -122 -18 -18 -9 -64 -19 -105 -21 -40 -2 -100 -9 -133 -16 -132
-24 -292 -46 -435 -59 -230 -22 -319 -41 -465 -102 -38 -16 -83 -29 -100 -29
-51 0 -56 -9 -52 -88 4 -64 2 -75 -20 -104 -14 -18 -28 -42 -33 -53 -4 -11
-21 -27 -36 -35 -38 -19 -75 -59 -75 -79 0 -9 3 -41 7 -71 9 -60 10 -145 4
-340 -4 -136 9 -192 50 -205 31 -10 108 29 122 62 7 15 23 42 35 59 13 17 23
42 23 55 0 14 5 30 12 37 6 6 13 28 15 49 1 21 5 58 8 83 3 25 6 89 7 142 4
119 19 147 94 165 27 6 59 15 72 18 15 5 22 3 22 -6 0 -8 8 -30 18 -48 15 -29
17 -43 9 -90 -5 -31 -6 -78 -3 -105 3 -27 2 -54 -3 -60 -5 -6 -5 -72 -1 -146
5 -101 4 -141 -5 -160 -7 -14 -16 -51 -20 -83 -9 -67 -29 -87 -87 -87 -33 0
-50 -10 -116 -67 -42 -36 -78 -67 -80 -68 -1 -1 -7 -17 -12 -34 -13 -46 27
-88 93 -100 27 -5 58 -18 71 -30 13 -13 35 -21 55 -21 18 0 45 -9 59 -21 16
-12 35 -18 47 -15 11 3 34 -2 50 -11 17 -8 46 -17 65 -19 78 -7 99 -15 112
-42 16 -34 61 -51 88 -34 29 18 49 15 82 -13 36 -30 56 -31 114 -5 49 23 78
19 94 -11 14 -25 34 -24 69 2 29 21 37 22 241 18 41 -1 98 2 127 6 29 4 94 4
146 0 76 -5 95 -10 105 -25 12 -20 7 -50 -10 -50 -30 0 -120 -57 -138 -87 -10
-18 -27 -33 -36 -33 -26 0 -68 -30 -94 -67 -14 -20 -47 -46 -81 -64 -32 -16
-60 -33 -64 -39 -4 -6 -30 -22 -58 -37 -29 -14 -71 -39 -95 -55 -23 -16 -70
-43 -105 -60 -34 -17 -79 -44 -101 -61 -21 -17 -55 -33 -75 -36 -26 -5 -39
-14 -49 -33 -8 -17 -25 -31 -47 -37 -18 -5 -53 -23 -78 -39 -24 -17 -57 -34
-73 -38 -16 -3 -58 -22 -94 -42 -44 -24 -85 -38 -125 -43 -33 -4 -88 -12 -122
-18 -34 -6 -104 -12 -155 -12 -51 -1 -115 -8 -143 -16 -27 -8 -90 -17 -140
-18 -49 -2 -132 -9 -183 -14 -52 -6 -98 -8 -104 -5 -6 4 -36 1 -67 -5 -31 -7
-81 -17 -111 -23 -30 -6 -66 -17 -79 -25 -15 -10 -34 -13 -55 -8 -17 3 -69 10
-115 15 -73 8 -88 7 -121 -10 -29 -15 -45 -17 -75 -10 -22 5 -42 7 -46 4 -4
-2 -20 3 -35 11 -69 36 -87 9 -49 -68 19 -41 40 -64 81 -92 29 -21 54 -41 54
-46 0 -17 65 -49 98 -49 18 0 49 9 70 19 24 12 66 20 122 24 47 2 121 9 165
16 208 29 311 35 505 30 112 -2 144 0 190 16 43 15 85 19 195 20 91 1 168 7
220 18 44 10 107 22 140 27 33 5 78 19 100 30 21 11 46 20 55 20 8 0 40 17 71
38 31 20 72 46 90 57 188 110 180 106 248 126 24 7 45 19 48 26 3 7 33 28 67
47 33 18 85 46 113 62 35 19 56 39 62 57 6 15 18 30 28 34 10 3 29 15 43 26
14 10 39 25 57 32 17 7 42 27 54 45 13 17 43 40 66 50 24 10 43 24 43 29 0 6
22 22 50 36 27 14 68 45 92 69 63 65 128 143 128 154 0 6 10 23 23 39 27 32
67 113 67 134 0 31 -22 88 -46 125 -21 30 -24 41 -15 54 6 8 22 38 35 65 13
28 31 57 40 64 9 7 16 20 16 27 0 8 15 31 34 52 39 42 35 65 -11 77 -16 3 -46
15 -68 26 l-40 20 -66 -63 c-147 -141 -154 -146 -205 -153 -27 -4 -76 -19
-109 -32 -48 -21 -71 -24 -125 -21 -36 3 -87 -1 -115 -8 -49 -11 -279 -12
-390 -1 -129 12 -285 36 -303 46 -12 6 -41 11 -66 11 -42 0 -168 38 -187 57
-4 4 12 40 36 78 82 131 95 162 95 223 0 44 5 61 23 80 17 18 22 37 24 80 0
34 10 76 23 105 11 26 18 52 14 58 -14 23 -22 158 -15 256 8 114 25 148 66
137 13 -3 42 3 66 14 39 17 55 18 144 10 55 -5 113 -10 129 -11 34 -2 68 -43
67 -78 0 -13 0 -51 1 -84 3 -99 -1 -164 -11 -184 -9 -15 -12 -148 -9 -321 1
-64 -7 -117 -21 -134 -9 -10 -7 -21 6 -45 31 -55 83 -49 83 9 0 30 19 43 41
29 25 -16 48 -9 78 22 23 23 29 38 25 58 -4 21 0 29 25 43 25 14 31 23 31 52
0 19 4 37 9 40 5 3 16 28 25 55 13 40 16 96 16 292 l0 242 40 39 c23 21 49 38
60 38 10 0 32 11 48 25 22 19 41 25 75 25 50 0 107 20 152 55 42 31 68 37 91
21 18 -13 19 -25 16 -158 -2 -111 0 -151 12 -179 9 -20 18 -74 22 -120 6 -79
28 -192 42 -214 4 -5 5 -48 3 -96 -3 -92 1 -101 53 -113 24 -6 27 -10 21 -29
-4 -12 -8 -40 -9 -62 -1 -34 2 -40 19 -40 15 0 22 10 29 43 6 30 20 53 47 77
22 19 39 44 39 54 0 11 14 27 34 39 30 18 34 26 40 78 4 33 7 73 7 90 -1 26 5
34 32 45 17 7 47 25 65 41 18 15 43 28 57 28 37 0 55 10 71 41 8 16 32 38 54
49 29 15 42 29 48 53 6 23 15 33 34 37 27 5 98 50 98 63 0 4 17 26 39 50 21
23 68 103 105 177 38 74 71 140 76 145 4 6 10 36 13 68 3 32 13 70 22 83 8 13
20 43 24 67 5 23 21 71 36 106 38 91 72 215 79 291 11 118 89 240 154 240 29
0 172 117 172 141 0 10 15 42 34 71 54 86 98 179 93 199 -3 10 3 29 13 41 9
13 20 39 22 58 3 19 13 71 23 115 22 100 16 214 -13 272 -14 26 -23 68 -26
121 -3 45 -10 90 -15 101 -6 11 -8 56 -6 106 4 68 2 93 -10 111 -8 13 -15 34
-15 46 0 13 -9 47 -20 76 -24 62 -22 135 5 176 16 23 16 33 5 85 -7 32 -9 68
-5 79 19 61 4 259 -23 309 -7 12 -8 24 -4 27 5 3 8 56 6 118 -2 101 0 115 18
135 16 17 20 36 21 93 1 49 -3 74 -12 79 -9 6 -11 17 -6 32 16 50 57 96 130
144 41 28 75 55 75 62 0 7 21 34 48 61 203 213 219 228 303 273 46 25 96 49
111 52 15 4 48 25 73 47 25 22 64 44 88 50 23 6 59 20 79 31 20 10 44 19 53
19 9 0 30 13 46 30 17 16 43 37 59 47 17 9 30 21 30 25 0 4 20 19 45 34 25 14
51 34 58 43 17 24 194 141 213 141 24 0 55 19 110 69 77 69 130 110 157 120
14 5 40 23 58 39 33 28 104 77 169 117 59 36 94 59 159 107 35 26 87 55 115
64 61 20 124 51 144 70 7 8 20 14 27 14 15 0 161 114 172 135 5 7 26 27 48 43
44 32 100 130 91 160 -7 21 -57 52 -83 51 -10 -1 -36 -7 -58 -14z m-3928
-2000 c26 -10 95 -16 213 -20 257 -9 311 -9 352 0 22 4 56 2 85 -6 26 -7 79
-11 118 -10 72 2 184 -21 221 -44 22 -14 26 -42 40 -265 2 -30 6 -82 8 -115 2
-33 7 -121 11 -195 10 -212 23 -342 38 -380 9 -24 13 -73 11 -150 0 -63 4
-169 11 -235 21 -197 8 -350 -35 -420 -10 -16 -22 -52 -26 -80 -4 -27 -13 -64
-20 -82 -8 -18 -14 -47 -14 -65 -1 -18 -7 -44 -15 -58 -8 -14 -14 -45 -15 -70
0 -97 -50 -123 -235 -126 -76 -1 -138 3 -150 9 -11 6 -65 17 -120 24 -102 14
-116 16 -171 28 -19 4 -34 3 -38 -4 -10 -16 -49 -14 -82 4 -37 19 -64 19 -64
1 0 -12 -24 -14 -147 -11 -82 3 -184 8 -228 11 -44 3 -95 5 -114 5 -18 -1 -47
7 -65 18 -38 23 -55 22 -135 -10 -18 -8 -41 -5 -91 12 -63 20 -71 21 -131 8
-40 -9 -83 -12 -114 -8 -27 4 -76 8 -107 8 -31 1 -69 6 -83 11 -27 10 -118 -9
-155 -32 -10 -6 -32 -7 -60 -1 -32 7 -65 5 -114 -6 -51 -11 -75 -12 -96 -4
-34 13 -238 0 -287 -17 -24 -9 -41 -9 -64 -1 -18 6 -45 11 -60 11 -15 0 -40 5
-54 12 -18 8 -31 8 -48 0 -33 -16 -93 -23 -182 -22 -55 1 -90 -4 -112 -15 -18
-9 -38 -13 -45 -8 -23 14 -121 26 -241 28 -77 2 -131 8 -156 19 -24 9 -53 13
-75 9 -42 -7 -66 9 -66 43 0 26 -21 108 -44 169 -10 27 -13 60 -9 100 5 52 3
62 -16 79 -18 16 -21 30 -21 96 0 42 -3 80 -7 84 -9 9 -11 49 -2 56 3 3 9 17
12 31 6 23 0 33 -34 64 l-42 37 11 75 c8 57 16 79 35 97 l24 22 -14 90 c-13
79 -12 103 4 174 1 8 -4 33 -12 55 -7 22 -14 58 -13 80 1 51 -10 139 -24 186
-8 30 -7 41 7 62 13 21 15 33 7 59 -18 57 -35 227 -28 275 3 26 13 58 22 71
15 22 21 24 69 18 30 -3 66 -1 80 4 19 7 64 7 144 -1 173 -17 231 -21 281 -21
86 0 353 22 384 31 17 5 56 15 86 21 30 7 69 16 85 21 121 35 195 46 263 42
65 -5 77 -3 104 17 24 17 39 21 69 17 22 -3 67 1 100 9 42 10 72 11 94 5 23
-6 37 -5 45 3 6 6 45 11 88 12 208 2 297 3 407 2 66 0 172 2 235 5 63 2 124 1
135 -3 11 -4 48 0 85 10 115 30 227 57 247 59 7 0 30 -6 50 -14z"/>
<path d="M30335 12955 c-22 -8 -71 -20 -110 -26 -38 -6 -107 -24 -152 -40 -45
-16 -95 -29 -112 -29 -17 0 -48 -6 -68 -14 -41 -15 -182 -47 -308 -69 -62 -11
-111 -13 -215 -6 -74 5 -142 6 -150 3 -8 -3 -60 -14 -115 -24 -55 -10 -113
-23 -130 -29 -16 -6 -61 -18 -99 -27 -87 -22 -130 -50 -134 -88 -7 -54 5 -73
55 -90 57 -20 92 -20 117 -1 22 17 104 20 153 6 21 -6 35 -5 43 2 8 9 14 8 24
-5 28 -38 254 -42 321 -6 17 9 46 15 65 13 39 -3 135 16 168 34 25 13 130 46
182 56 19 4 65 23 102 41 37 19 78 34 91 34 30 0 132 36 165 59 76 51 110 70
135 77 47 11 117 111 89 128 -22 13 -81 14 -117 1z"/>
<path d="M28990 10781 c-36 -10 -82 -25 -104 -35 -21 -9 -49 -16 -62 -16 -38
0 -38 -19 3 -60 24 -26 51 -42 73 -46 19 -4 50 -16 69 -27 19 -12 55 -21 83
-23 29 -1 68 -12 98 -28 32 -17 80 -30 127 -36 42 -6 100 -21 128 -34 29 -13
68 -24 87 -24 18 0 71 -7 117 -16 46 -9 101 -16 122 -16 22 0 54 -6 72 -13 22
-9 68 -12 147 -10 157 4 171 7 228 45 27 18 64 41 81 50 94 51 -42 148 -209
148 -26 0 -75 7 -107 15 -32 8 -118 19 -192 25 -102 7 -145 15 -179 32 -50 24
-91 34 -202 49 -41 6 -104 15 -140 20 -122 19 -173 19 -240 0z"/>
<path d="M18027 9591 c-127 -46 -191 -104 -204 -184 -3 -17 -9 -40 -14 -49
-14 -26 -11 -102 6 -124 23 -30 18 -49 -17 -65 -18 -8 -35 -22 -36 -33 -2 -10
-19 -38 -37 -62 -30 -39 -34 -51 -40 -137 -9 -117 -1 -168 31 -198 20 -19 24
-32 24 -79 0 -44 5 -63 25 -90 14 -19 25 -44 25 -55 0 -29 49 -91 80 -104 39
-15 166 -22 195 -11 14 5 30 21 35 34 8 23 13 24 82 23 60 -1 83 4 130 26 32
15 66 41 80 59 12 18 31 41 41 51 32 32 18 67 -38 101 -27 16 -70 35 -95 42
-25 7 -79 27 -121 44 -61 25 -80 38 -93 63 -25 49 -39 141 -42 266 -3 100 -1
118 17 142 10 15 19 40 19 56 0 15 10 53 21 83 12 30 24 69 26 87 3 18 11 38
19 44 17 14 18 71 2 87 -17 17 -32 14 -121 -17z"/>
<path d="M13960 9514 c-21 -10 -61 -16 -99 -15 -80 0 -114 -22 -161 -104 l-31
-55 16 -57 c23 -78 68 -123 127 -124 96 -3 131 1 169 23 38 21 43 21 142 10
150 -16 191 -26 222 -50 15 -12 32 -22 38 -22 6 0 42 -15 81 -34 39 -18 82
-37 96 -41 14 -4 39 -18 56 -31 17 -13 35 -24 39 -24 5 0 27 -9 49 -19 23 -11
88 -40 146 -66 58 -25 109 -50 115 -56 5 -5 17 -9 26 -9 9 0 36 -16 59 -35 42
-35 73 -42 175 -38 40 2 185 152 185 192 0 43 -56 97 -110 106 -19 3 -39 13
-45 22 -21 36 -65 70 -107 82 -23 7 -56 26 -73 41 -16 16 -52 39 -78 50 -27
12 -65 37 -85 55 -86 76 -142 99 -302 121 -19 3 -42 8 -50 11 -8 3 -73 9 -145
13 -106 6 -147 14 -223 39 -103 35 -177 39 -232 15z"/>
<path d="M28768 9091 c-13 -10 -48 -21 -78 -25 -121 -14 -140 -19 -166 -43
-21 -20 -25 -30 -20 -56 12 -61 72 -117 124 -117 12 0 40 -9 62 -20 22 -11 46
-20 55 -20 8 0 32 -15 52 -34 21 -18 54 -41 73 -51 19 -10 84 -51 145 -93 111
-76 164 -104 225 -117 19 -4 68 -29 110 -55 41 -26 93 -53 115 -60 22 -7 53
-19 69 -27 39 -20 130 -43 171 -43 89 0 221 52 259 103 57 75 44 114 -61 171
-37 20 -97 55 -133 76 -67 41 -246 130 -261 130 -4 0 -37 20 -73 45 -37 25
-72 45 -79 45 -8 0 -31 15 -53 34 -22 19 -77 49 -123 66 -46 18 -95 38 -110
46 -14 8 -34 14 -45 14 -10 0 -33 8 -50 19 -20 12 -59 20 -108 24 -65 5 -81 2
-100 -12z"/>
<path d="M15811 8794 c-19 -8 -39 -14 -45 -13 -30 4 -56 -2 -70 -16 -8 -8 -21
-15 -30 -15 -38 0 -40 -65 -6 -180 21 -70 22 -82 11 -175 -6 -55 -20 -128 -30
-162 -11 -35 -17 -71 -14 -82 10 -39 -56 -210 -97 -251 -17 -17 -24 -18 -47
-8 -38 16 -170 115 -177 133 -3 8 -12 15 -20 15 -16 0 -86 77 -86 96 0 35
-184 51 -220 19 -10 -9 -33 -20 -52 -25 -42 -12 -76 -42 -84 -76 -6 -22 3 -34
55 -85 34 -32 66 -59 70 -59 5 0 14 -13 19 -30 27 -77 162 -230 203 -230 10 0
21 -4 24 -10 3 -5 24 -10 45 -10 28 0 46 -7 62 -23 13 -13 39 -33 58 -45 24
-14 46 -41 68 -85 44 -84 74 -112 151 -137 82 -26 135 -66 174 -131 32 -52
121 -128 179 -150 15 -6 36 -26 48 -46 13 -23 26 -33 35 -29 23 9 44 -4 61
-35 8 -16 22 -29 32 -29 9 0 36 -22 59 -49 26 -30 54 -52 72 -56 17 -4 33 -15
36 -26 4 -11 22 -28 42 -37 46 -22 137 -109 158 -151 24 -49 72 -89 115 -96
24 -4 42 -14 49 -29 7 -12 28 -28 47 -35 20 -7 34 -19 34 -29 0 -23 110 -136
152 -156 19 -9 58 -39 87 -66 50 -47 57 -50 106 -50 60 0 95 21 115 70 19 46
-2 98 -67 164 -29 30 -53 62 -53 70 0 9 -19 33 -42 53 -23 21 -63 60 -88 87
-25 27 -70 74 -100 105 -31 31 -63 67 -72 81 -8 14 -38 37 -64 50 -27 14 -53
30 -57 37 -4 7 -14 13 -21 13 -19 0 -44 31 -48 59 -2 19 -17 32 -61 54 -45 22
-62 36 -73 63 -8 20 -30 44 -48 55 -36 21 -74 71 -101 129 -24 54 -63 104 -93
119 -15 7 -40 26 -57 41 -31 29 -64 50 -148 95 -56 30 -145 117 -153 151 -6
22 0 56 27 164 19 78 47 253 60 380 10 89 28 176 49 228 12 27 46 29 74 3 26
-23 157 -91 177 -91 8 0 31 -11 51 -25 20 -14 42 -25 47 -25 6 0 26 -13 44
-30 19 -16 43 -30 53 -30 11 0 39 -11 63 -25 23 -14 50 -25 58 -25 13 0 56
-16 163 -61 25 -10 74 -26 110 -35 36 -8 99 -34 140 -56 41 -23 86 -47 100
-55 14 -7 42 -13 63 -13 21 0 59 -11 85 -25 26 -14 59 -25 73 -25 14 0 52 -9
85 -20 32 -12 77 -24 99 -27 22 -3 47 -9 55 -13 8 -4 44 -11 80 -15 35 -4 82
-14 102 -21 43 -15 39 -14 72 -14 41 0 66 -31 83 -100 8 -36 28 -88 43 -116
21 -35 26 -54 19 -61 -15 -15 26 -93 49 -93 9 1 33 14 51 30 l35 30 -26 27
c-15 16 -30 40 -33 55 -6 21 -2 30 19 43 21 14 26 25 26 57 0 43 16 63 123
152 26 22 49 47 52 57 7 22 -19 75 -43 88 -30 16 -204 49 -297 57 -49 3 -104
13 -122 20 -18 8 -46 14 -62 14 -17 0 -53 9 -81 20 -28 11 -62 20 -75 20 -14
0 -38 14 -57 34 -47 47 -67 55 -155 62 -43 4 -85 12 -93 19 -8 7 -31 17 -50
24 -19 6 -43 20 -55 30 -24 22 -133 57 -204 67 -29 4 -68 17 -87 30 -19 13
-48 24 -64 24 -41 0 -109 28 -148 62 -18 15 -37 28 -42 28 -5 0 -24 14 -42 30
-18 17 -37 30 -44 30 -6 0 -23 13 -37 30 -23 26 -30 28 -53 20 -40 -16 -52
-12 -56 17 -4 32 -38 53 -102 60 -28 3 -49 13 -66 33 -14 15 -40 35 -57 44
-18 9 -40 28 -50 42 -15 24 -21 26 -66 21 -33 -4 -61 -1 -84 8 -44 19 -78 18
-122 -1z"/>
<path d="M14626 7754 c-28 -7 -62 -26 -82 -45 -35 -33 -34 -30 -25 -176 0 -12
14 -38 31 -56 28 -33 30 -38 24 -95 -7 -59 0 -99 42 -257 7 -27 15 -70 19 -93
3 -24 14 -60 24 -80 10 -21 22 -53 26 -72 4 -19 17 -55 30 -80 14 -29 26 -83
35 -155 7 -60 17 -118 22 -129 6 -10 16 -55 23 -100 17 -106 33 -189 50 -251
9 -33 12 -92 9 -174 -3 -107 -1 -135 18 -195 12 -39 25 -93 29 -121 3 -27 11
-63 17 -80 57 -167 59 -177 79 -335 28 -234 28 -247 0 -288 -25 -37 -26 -38
-17 -157 9 -127 21 -189 45 -236 8 -15 15 -38 15 -51 0 -13 11 -47 25 -76 14
-30 25 -71 25 -93 0 -21 4 -48 9 -61 5 -13 18 -50 27 -83 10 -33 27 -72 37
-87 15 -20 18 -35 13 -62 -5 -24 -2 -43 9 -59 8 -13 18 -52 21 -88 4 -35 17
-85 30 -111 48 -95 25 -195 -55 -243 -19 -11 -57 -42 -86 -68 -49 -44 -71 -58
-160 -105 -45 -23 -105 -66 -155 -111 -25 -23 -49 -41 -55 -41 -5 0 -50 -23
-100 -51 -160 -91 -209 -115 -260 -129 -27 -7 -63 -24 -78 -37 -16 -13 -36
-23 -45 -23 -9 0 -52 -11 -95 -25 -43 -14 -93 -25 -111 -25 -18 0 -60 -11 -94
-25 -34 -14 -76 -25 -95 -25 -18 0 -51 -9 -72 -20 -72 -37 -175 -70 -233 -74
-74 -6 -149 -22 -242 -52 -41 -13 -85 -24 -98 -24 -13 0 -37 -8 -55 -17 -64
-34 -678 -47 -875 -17 -58 8 -115 13 -127 10 -11 -3 -43 1 -70 10 -33 10 -67
13 -101 8 -35 -4 -61 -1 -88 10 -21 9 -61 16 -88 16 -27 0 -65 7 -85 15 -20 9
-44 13 -53 10 -10 -3 -30 -1 -44 5 -15 5 -84 13 -153 16 -70 3 -135 9 -144 15
-10 5 -61 13 -113 18 -52 5 -103 14 -115 20 -30 16 -163 34 -261 36 -56 0 -98
6 -122 17 -21 9 -77 20 -125 24 -49 4 -99 12 -113 19 -22 11 -84 18 -270 30
-30 2 -69 11 -86 19 -17 9 -77 21 -132 26 -55 5 -119 17 -143 25 -24 9 -93 21
-154 25 -60 5 -137 14 -170 21 -33 6 -91 13 -130 14 -38 2 -99 8 -135 14 -36
6 -110 16 -165 22 -115 13 -149 31 -185 101 -28 55 -22 97 20 135 33 30 48 87
72 276 9 76 8 93 -7 132 -14 37 -17 81 -18 235 -1 170 1 191 17 209 12 13 21
44 25 83 7 61 12 76 57 148 12 19 25 56 28 81 6 43 5 48 -23 72 -36 30 -46 63
-31 101 9 25 7 32 -20 62 -35 41 -35 40 -11 80 12 19 17 41 14 58 -3 14 -1 32
5 39 6 6 18 39 27 72 10 33 20 64 23 69 3 5 6 23 7 40 7 80 32 174 57 206 28
38 35 65 46 182 4 43 13 83 20 90 6 6 12 18 12 26 0 8 6 28 14 45 26 56 32
133 36 427 1 71 -3 137 -10 154 -16 43 -15 89 3 122 8 16 19 65 24 109 8 75 6
86 -25 180 -18 55 -39 114 -46 130 -8 17 -19 41 -25 55 -13 32 -7 202 12 340
8 58 13 137 11 175 -2 43 3 95 12 134 9 36 13 78 10 94 -3 16 -1 38 5 50 10
18 7 25 -20 49 -32 29 -43 31 -171 33 -67 0 -153 -19 -180 -40 -8 -7 -35 -19
-60 -27 -92 -32 -146 -55 -182 -80 -34 -23 -41 -25 -87 -15 -41 8 -60 6 -94
-6 -23 -8 -78 -18 -122 -22 -49 -4 -127 -22 -200 -45 -66 -21 -138 -42 -160
-48 -22 -6 -74 -22 -115 -36 -41 -15 -102 -32 -135 -38 -33 -7 -76 -22 -95
-34 -25 -15 -60 -23 -120 -28 -47 -4 -106 -9 -133 -11 -26 -2 -64 -14 -85 -27
-31 -19 -52 -23 -127 -24 -49 -1 -108 -6 -130 -12 -22 -6 -89 -11 -149 -11
-93 0 -112 -3 -130 -19 -17 -16 -33 -19 -85 -16 -34 1 -69 0 -77 -3 -19 -7
-18 -32 3 -55 9 -10 21 -28 27 -40 7 -14 25 -25 46 -29 19 -4 39 -13 45 -21
29 -38 61 -46 206 -53 98 -4 155 -2 179 5 19 7 113 18 209 25 168 14 177 15
248 51 70 34 79 36 131 29 93 -13 132 -9 232 25 74 25 104 30 138 25 33 -5 50
-2 76 14 23 15 50 21 88 21 33 0 73 8 99 19 24 11 73 23 109 26 36 4 91 15
123 26 31 10 65 19 75 19 10 0 51 11 90 25 74 26 108 30 129 17 14 -9 20 -225
11 -422 -3 -69 -1 -145 4 -171 8 -43 6 -70 -22 -254 -5 -33 -12 -105 -16 -160
-3 -57 -12 -110 -20 -122 -9 -15 -14 -53 -14 -110 0 -55 -8 -116 -20 -162 -11
-41 -20 -87 -20 -103 0 -15 -5 -48 -12 -73 -10 -36 -10 -52 0 -78 7 -17 15
-59 19 -93 5 -51 1 -76 -26 -157 -33 -103 -52 -238 -52 -377 0 -47 -3 -128 -8
-180 -5 -52 -10 -139 -10 -192 -1 -53 -6 -109 -12 -125 -6 -15 -15 -66 -20
-113 -5 -47 -14 -121 -20 -165 -10 -69 -20 -196 -20 -260 -1 -58 22 -187 36
-209 11 -16 18 -51 19 -96 3 -57 7 -75 26 -94 35 -38 73 -50 113 -37 63 21 87
-7 42 -49 -28 -27 -32 -52 -10 -74 22 -21 18 -41 -10 -60 -19 -12 -25 -25 -25
-51 0 -18 -5 -46 -10 -61 -6 -15 -12 -52 -14 -84 -1 -32 -10 -67 -19 -81 -21
-30 -21 -48 0 -71 21 -24 10 -34 -47 -45 -40 -8 -45 -12 -48 -38 -5 -41 35
-111 70 -126 16 -6 31 -9 35 -6 3 4 24 -3 45 -16 37 -20 41 -21 53 -4 16 23
40 22 74 -4 15 -11 48 -23 72 -26 24 -2 57 -9 72 -15 21 -8 34 -8 53 3 20 10
29 11 44 1 26 -16 41 -15 76 3 37 18 91 7 144 -30 46 -32 111 -43 145 -25 20
11 35 11 80 0 31 -7 58 -17 61 -22 3 -4 25 -8 50 -8 24 0 86 -13 137 -29 136
-43 322 -75 383 -65 66 10 83 10 124 1 19 -5 56 -13 83 -18 26 -5 68 -13 95
-18 26 -5 75 -14 109 -19 34 -6 67 -13 72 -16 11 -7 129 -32 212 -46 31 -5 67
-14 81 -19 15 -5 41 -6 62 -1 41 9 70 4 105 -19 19 -12 46 -15 114 -13 63 3
101 -1 126 -11 46 -19 158 -40 171 -32 5 3 27 2 47 -4 21 -5 76 -15 123 -21
47 -6 101 -17 120 -23 19 -6 48 -10 64 -9 16 2 49 -7 74 -19 44 -22 46 -22 96
-5 40 13 76 16 173 12 67 -2 128 -8 135 -13 13 -8 131 -11 398 -11 101 0 158
5 189 15 29 10 59 12 92 8 33 -5 54 -3 64 5 8 6 36 11 62 11 66 0 151 19 193
44 55 33 88 45 123 45 18 0 57 13 87 30 30 16 63 29 72 30 20 0 85 34 143 73
22 15 46 27 55 27 8 0 35 11 60 25 25 13 65 34 90 46 93 44 167 81 215 109 81
46 133 70 168 77 17 3 69 30 114 59 46 29 97 61 115 70 18 9 62 44 98 76 62
57 126 97 180 113 14 4 46 23 73 41 26 19 70 39 99 45 42 9 61 22 115 75 51
51 76 67 119 80 56 16 144 84 144 110 0 8 23 42 51 76 84 105 108 174 78 230
-6 11 -17 61 -25 112 -18 116 -24 147 -31 159 -3 4 -5 32 -4 62 0 34 -5 57
-14 65 -7 6 -17 30 -20 53 -4 23 -25 75 -47 115 -22 41 -44 97 -48 125 -4 29
-14 66 -21 84 -11 27 -10 37 5 71 14 31 17 52 11 94 -4 29 -12 61 -17 72 -7
13 -5 28 9 53 18 33 18 34 -5 73 -12 21 -22 47 -22 58 0 10 -9 27 -20 37 -25
23 -26 59 -1 84 16 16 18 31 16 100 -2 68 -7 88 -28 119 -14 20 -28 53 -32 72
-10 51 -37 133 -47 147 -6 7 -7 25 -4 40 7 31 -1 46 -25 55 -9 4 -18 20 -21
37 -3 24 1 34 23 50 26 19 27 23 24 98 -3 78 -19 158 -33 167 -4 2 -9 37 -10
77 -2 69 -3 74 -44 119 -24 26 -57 65 -74 86 -30 38 -30 40 -16 77 14 36 14
40 -7 68 -18 24 -22 41 -19 88 2 53 0 61 -29 94 -40 46 -48 86 -34 175 15 95
16 88 -29 133 -22 22 -40 50 -40 62 -1 64 -14 137 -33 177 -17 38 -20 62 -18
154 1 76 -2 113 -11 124 -7 8 -16 45 -20 81 -13 130 -20 159 -53 212 -21 33
-27 36 -72 36 -26 0 -70 -5 -97 -13z m-5601 -2204 c38 -42 -18 -70 -66 -32
-30 25 -20 52 19 52 16 0 37 -9 47 -20z"/>
<path d="M27882 7425 c-53 -9 -65 -14 -81 -40 -10 -16 -32 -41 -49 -55 -41
-35 -49 -69 -21 -98 11 -13 24 -35 28 -50 12 -43 84 -92 136 -92 34 0 44 -4
48 -19 5 -20 93 -71 122 -71 8 0 32 -15 52 -33 21 -18 65 -46 97 -62 33 -17
81 -51 107 -77 26 -27 53 -48 58 -48 6 0 25 -13 43 -28 55 -47 93 -71 123 -76
33 -6 31 -4 58 -57 12 -23 31 -48 41 -53 54 -30 167 -109 178 -125 7 -10 35
-26 63 -37 27 -10 63 -30 80 -44 61 -52 172 -58 230 -12 15 12 33 22 39 22 14
0 67 50 102 95 29 38 24 58 -19 71 -12 4 -52 24 -89 45 -36 22 -74 39 -84 39
-17 0 -57 21 -126 67 -20 14 -39 35 -42 48 -4 14 -15 29 -26 35 -11 6 -27 24
-35 41 -11 20 -34 38 -70 54 -53 25 -73 42 -169 143 -27 29 -52 52 -56 52 -4
0 -10 9 -13 19 -2 11 -22 28 -43 39 -22 11 -73 55 -114 97 -41 42 -87 83 -102
91 -15 8 -50 35 -78 59 -28 25 -55 45 -60 45 -5 0 -21 6 -37 12 -34 15 -204
17 -291 3z"/>
<path d="M17881 7326 c-14 -17 -7 -36 14 -36 22 0 29 20 13 36 -13 13 -16 13
-27 0z"/>
<path d="M13168 6439 c-10 -5 -30 -12 -45 -14 -16 -2 -68 -22 -118 -45 -49
-23 -130 -55 -180 -72 -115 -38 -162 -69 -175 -117 -5 -20 -10 -42 -10 -49 0
-7 -11 -28 -24 -45 -14 -18 -27 -51 -31 -74 -3 -24 -12 -58 -20 -78 -8 -19
-15 -47 -15 -63 0 -40 -36 -200 -48 -215 -18 -21 -42 -104 -36 -121 3 -9 -1
-27 -10 -41 -24 -37 -20 -68 24 -160 36 -76 114 -175 137 -175 10 0 93 -98 93
-110 0 -11 48 -30 75 -30 16 0 30 -11 45 -35 12 -19 26 -35 30 -35 5 0 16 -13
25 -28 29 -49 77 -69 218 -91 39 -7 68 -6 85 1 15 5 54 17 87 25 33 7 71 22
85 31 13 9 46 28 73 42 38 20 55 37 79 80 16 30 39 63 49 73 10 10 19 24 19
31 0 7 13 29 29 49 15 20 34 51 41 69 7 18 20 41 28 50 16 19 52 149 59 215 3
28 0 49 -11 65 -9 12 -16 30 -16 40 0 21 -29 38 -67 38 -16 0 -54 15 -85 33
-107 65 -323 109 -423 87 -76 -17 -98 -35 -92 -74 3 -18 -1 -42 -9 -56 -20
-38 -17 -66 14 -99 48 -53 109 -71 236 -71 125 0 136 -5 136 -60 0 -49 -26
-96 -98 -178 -35 -38 -62 -78 -62 -90 0 -36 -62 -59 -141 -54 -24 2 -101 69
-288 253 -77 75 -98 160 -63 254 19 52 45 206 51 300 3 50 10 96 15 103 16 25
99 97 140 122 23 14 58 37 77 52 38 29 114 62 170 72 55 10 86 40 105 101 22
67 14 78 -63 94 -68 13 -73 13 -95 0z"/>
<path d="M11415 6187 c-58 -17 -82 -33 -89 -61 -3 -13 -17 -31 -31 -40 -14 -9
-25 -23 -25 -31 0 -18 -31 -35 -63 -35 -35 0 -113 -29 -130 -48 -11 -14 -13
-31 -6 -88 4 -39 3 -131 -2 -205 -5 -74 -12 -188 -14 -254 -2 -66 -6 -149 -8
-185 -2 -41 1 -75 9 -91 15 -29 86 -69 124 -69 33 0 102 75 118 128 20 65 42
82 106 82 30 0 67 4 81 10 14 5 56 13 93 16 59 6 71 4 106 -17 21 -13 49 -33
61 -45 13 -12 38 -31 57 -42 18 -11 45 -33 58 -47 21 -22 116 -89 168 -119 21
-12 119 14 146 39 36 33 33 56 -14 112 -21 26 -52 63 -67 82 -15 19 -32 46
-38 60 -16 41 -66 111 -112 157 -24 23 -43 46 -43 51 0 5 -14 22 -30 38 -51
49 -81 109 -80 162 1 87 -5 148 -15 163 -5 8 -15 33 -21 55 -32 108 -70 167
-134 203 -43 24 -151 34 -205 19z m78 -319 c56 -118 39 -180 -71 -255 -52 -35
-67 -41 -83 -33 -24 14 -26 90 -3 152 50 135 82 188 115 188 10 0 26 -19 42
-52z"/>
<path d="M10245 6173 c-56 -10 -67 -16 -85 -46 -10 -17 -38 -46 -62 -63 -24
-17 -52 -49 -64 -72 -12 -23 -42 -60 -67 -83 -26 -22 -47 -48 -47 -57 0 -32
-25 -88 -53 -121 -15 -18 -28 -40 -29 -49 -1 -9 -3 -35 -4 -57 -2 -22 -4 -49
-5 -60 -1 -11 6 -55 15 -97 14 -64 16 -91 7 -150 -6 -40 -9 -112 -7 -159 l3
-87 52 -60 c29 -33 68 -68 86 -76 20 -10 84 -20 159 -26 166 -13 187 -5 250
95 83 129 122 263 131 451 1 34 6 68 11 75 10 18 13 316 3 402 -8 76 -26 103
-88 135 -20 10 -42 32 -49 48 -26 58 -27 59 -83 60 -30 0 -63 -2 -74 -3z m40
-278 c23 -22 25 -33 27 -117 1 -51 0 -102 -1 -113 -1 -11 -2 -33 -3 -50 0 -16
-9 -56 -19 -88 -14 -39 -21 -85 -21 -143 -1 -75 -5 -93 -33 -152 -35 -74 -83
-122 -120 -122 -13 0 -37 11 -53 25 -26 22 -30 33 -36 97 -15 171 -17 279 -8
361 8 76 15 96 43 135 66 94 163 190 192 192 4 0 19 -11 32 -25z"/>
</g>
</svg>
