<?xml version="1.0" standalone="no"?>
<!DOCTYPE svg PUBLIC "-//W3C//DTD SVG 20010904//EN"
 "http://www.w3.org/TR/2001/REC-SVG-20010904/DTD/svg10.dtd">
<svg version="1.0" xmlns="http://www.w3.org/2000/svg"
 width="400px" height="400px" viewBox="0 0 2355.880265 1595.237135"
 preserveAspectRatio="xMidYMid meet">
<metadata>
Created by potrace 1.13, written by Peter Selinger 2001-2015
</metadata>
<g transform="translate(-119.309332,1695.851415) scale(0.100000,-0.100000)"
fill="#000000" stroke="none">
<path d="M9670 16950 c-25 -5 -61 -12 -81 -18 -19 -5 -50 -7 -68 -4 -21 3 -51
-4 -91 -22 -53 -24 -79 -28 -232 -37 -116 -6 -198 -16 -253 -31 -44 -11 -109
-24 -145 -28 -36 -3 -100 -19 -144 -34 -43 -15 -85 -25 -93 -21 -9 3 -31 -4
-50 -15 -19 -11 -51 -20 -71 -20 -37 0 -100 -22 -200 -68 -42 -20 -62 -23 -98
-18 -38 5 -53 1 -88 -19 -24 -14 -54 -25 -69 -25 -14 0 -72 -24 -129 -54 -124
-66 -252 -115 -331 -126 -40 -6 -69 -17 -95 -38 -21 -17 -56 -38 -77 -47 -22
-10 -53 -23 -70 -31 -16 -7 -61 -16 -100 -20 -54 -5 -80 -13 -115 -37 -25 -17
-56 -38 -70 -47 -53 -36 -110 -60 -140 -60 -18 0 -60 -11 -94 -25 -34 -14 -76
-26 -92 -27 -16 -1 -42 -14 -59 -29 -16 -15 -52 -35 -80 -44 -27 -10 -57 -23
-65 -31 -9 -7 -56 -34 -105 -60 -50 -25 -110 -66 -135 -90 -39 -38 -52 -44
-87 -44 -23 0 -45 -5 -48 -10 -4 -6 -22 -17 -42 -25 -19 -8 -48 -25 -63 -39
-16 -13 -45 -27 -64 -30 -23 -5 -56 -25 -93 -60 -32 -29 -83 -69 -113 -89 -89
-59 -150 -110 -166 -139 -8 -16 -30 -34 -49 -42 -19 -8 -35 -19 -35 -25 0 -12
-126 -108 -182 -138 -22 -12 -54 -35 -71 -51 -67 -63 -114 -99 -162 -127 -27
-15 -75 -48 -106 -71 -31 -24 -69 -49 -83 -56 -15 -6 -33 -26 -40 -43 -9 -20
-37 -47 -77 -74 -35 -24 -77 -56 -94 -71 -16 -15 -41 -31 -54 -35 -13 -4 -54
-36 -91 -70 -37 -34 -76 -65 -87 -69 -11 -4 -34 -24 -51 -45 -20 -25 -44 -42
-63 -46 -18 -4 -52 -27 -77 -51 -31 -31 -56 -46 -82 -50 -40 -6 -112 -63 -123
-96 -3 -9 -25 -29 -49 -44 -24 -15 -66 -51 -94 -80 -27 -30 -57 -54 -65 -54
-8 0 -34 -20 -57 -45 -23 -25 -46 -45 -52 -45 -5 0 -28 -27 -50 -60 -22 -33
-49 -64 -59 -69 -10 -6 -28 -37 -40 -70 -18 -50 -32 -68 -84 -111 -57 -48
-127 -124 -127 -139 0 -3 -18 -17 -40 -31 -25 -15 -44 -37 -50 -56 -6 -17 -24
-44 -40 -59 -17 -16 -30 -34 -30 -41 0 -7 -18 -28 -40 -45 -25 -21 -40 -41
-40 -55 0 -21 -45 -64 -67 -64 -6 0 -32 -28 -59 -62 -58 -72 -57 -71 -80 -126
-10 -25 -38 -60 -66 -85 -53 -45 -88 -94 -88 -122 0 -9 -9 -28 -20 -42 -11
-14 -20 -35 -20 -47 -1 -11 -18 -52 -39 -91 -30 -55 -45 -72 -69 -79 -18 -5
-32 -17 -35 -30 -12 -48 -39 -110 -62 -141 -14 -17 -25 -36 -25 -42 0 -5 -14
-29 -31 -53 -18 -24 -38 -70 -46 -104 -9 -40 -24 -71 -42 -91 -36 -37 -61 -87
-61 -118 0 -14 -7 -30 -16 -38 -8 -7 -13 -21 -10 -32 2 -11 -4 -36 -15 -56
-10 -19 -19 -41 -19 -48 0 -7 -17 -31 -37 -53 -21 -23 -38 -44 -38 -48 -4 -63
-38 -131 -116 -232 -14 -19 -32 -57 -39 -85 -8 -27 -19 -59 -26 -70 -7 -11
-16 -40 -20 -65 -3 -25 -15 -59 -25 -76 -11 -17 -19 -40 -19 -51 0 -26 -34
-104 -66 -150 -17 -25 -24 -50 -24 -83 0 -31 -6 -56 -19 -71 -10 -13 -22 -35
-26 -49 -4 -13 -23 -54 -41 -91 -19 -37 -34 -74 -34 -82 0 -8 -11 -22 -25 -31
-15 -10 -25 -26 -25 -40 0 -13 -7 -37 -15 -52 -8 -16 -15 -37 -15 -46 0 -10
-18 -29 -40 -43 -22 -14 -40 -32 -40 -41 0 -8 -10 -28 -21 -43 -12 -16 -19
-35 -17 -43 3 -7 -9 -42 -27 -78 -18 -36 -35 -83 -39 -105 -4 -21 -21 -55 -38
-74 -27 -30 -29 -39 -23 -77 7 -52 -8 -115 -35 -139 -12 -11 -20 -31 -20 -49
0 -17 -9 -60 -20 -94 -25 -80 -25 -97 0 -122 24 -24 25 -36 5 -57 -8 -8 -14
-27 -13 -42 1 -16 -6 -40 -15 -54 -9 -14 -14 -33 -11 -41 3 -9 -5 -24 -20 -37
l-26 -23 26 -27 c22 -23 23 -28 11 -35 -9 -5 -18 -29 -22 -54 -3 -25 -11 -60
-18 -77 -9 -27 -8 -39 6 -68 14 -29 15 -39 4 -55 -10 -18 -8 -23 17 -43 27
-22 29 -27 24 -75 -3 -31 -13 -61 -23 -72 -18 -19 -18 -24 -3 -68 22 -67 18
-132 -9 -162 -13 -13 -23 -33 -23 -45 0 -12 -7 -36 -16 -53 -16 -33 -10 -56
19 -81 11 -8 13 -24 10 -52 -5 -31 -1 -47 14 -67 30 -40 28 -109 -3 -143 -23
-24 -24 -27 -10 -54 10 -19 12 -34 5 -46 -5 -10 -9 -26 -9 -37 0 -11 -9 -31
-21 -46 -23 -29 -21 -71 6 -122 10 -20 11 -33 3 -47 -6 -13 -8 -39 -3 -71 4
-28 7 -89 6 -136 -2 -69 2 -93 19 -129 12 -24 24 -64 26 -90 3 -25 7 -59 10
-76 2 -16 7 -52 9 -79 3 -30 13 -60 28 -80 32 -43 47 -101 51 -197 3 -65 8
-85 24 -102 16 -16 18 -24 10 -43 -14 -29 -4 -68 25 -94 19 -19 22 -29 19 -96
-2 -55 1 -80 13 -96 8 -13 15 -36 15 -53 0 -17 7 -56 16 -85 9 -32 14 -71 11
-94 -3 -23 1 -58 9 -83 8 -24 12 -48 9 -53 -3 -5 -8 -32 -11 -60 -5 -47 -3
-53 26 -80 17 -16 29 -34 25 -40 -4 -6 -2 -17 4 -24 16 -19 50 -127 51 -158 0
-16 3 -28 8 -28 4 0 13 -9 20 -21 10 -16 10 -27 1 -53 -10 -28 -9 -41 5 -77
10 -24 27 -54 38 -66 15 -16 18 -29 13 -53 -6 -26 -2 -37 18 -58 38 -41 46
-63 36 -90 -7 -18 -5 -31 6 -48 8 -13 15 -30 15 -38 0 -8 15 -27 34 -41 24
-19 36 -36 38 -58 2 -23 9 -33 27 -37 39 -9 49 -34 28 -70 -10 -16 -15 -34
-12 -40 3 -5 7 -25 9 -45 2 -29 15 -48 77 -108 41 -40 85 -80 98 -88 20 -12
24 -24 26 -65 1 -29 12 -72 28 -106 15 -31 27 -59 27 -62 0 -3 18 -29 39 -57
22 -29 42 -67 46 -86 3 -18 10 -33 16 -33 18 0 68 -65 75 -97 7 -37 29 -60 64
-65 19 -2 28 -13 40 -45 10 -30 23 -46 42 -54 36 -15 68 -55 68 -84 0 -12 9
-30 20 -40 13 -12 20 -29 18 -44 -2 -20 3 -26 29 -33 35 -9 83 -68 83 -101 0
-22 54 -102 73 -110 19 -7 117 -147 151 -214 16 -33 38 -58 56 -68 20 -10 30
-23 30 -38 0 -12 4 -27 8 -32 17 -23 95 -68 120 -69 20 -1 27 -6 28 -21 1 -41
15 -61 51 -74 20 -8 52 -31 71 -52 19 -21 47 -41 62 -44 16 -3 39 -15 52 -26
62 -54 88 -82 88 -99 0 -30 32 -45 107 -49 7 -1 28 -17 47 -36 20 -19 45 -35
56 -35 38 0 99 -46 100 -75 0 -6 15 -17 33 -24 17 -8 38 -23 45 -33 7 -10 24
-18 38 -18 16 0 39 -15 64 -40 26 -26 48 -40 65 -40 18 0 28 -7 35 -24 12 -33
45 -49 84 -42 27 5 41 0 80 -29 25 -20 56 -38 69 -41 12 -2 35 -19 52 -38 19
-22 43 -37 65 -41 19 -4 49 -16 66 -26 22 -13 50 -19 92 -19 51 0 62 -3 75
-22 32 -49 84 -91 152 -125 38 -19 86 -50 106 -69 19 -19 48 -37 64 -40 16 -3
35 -13 42 -23 7 -10 31 -21 55 -25 24 -4 53 -14 65 -22 12 -8 46 -23 76 -34
29 -11 63 -31 75 -45 14 -16 32 -25 52 -25 22 0 40 -9 60 -32 24 -26 37 -32
67 -31 42 1 168 -59 187 -89 7 -12 23 -18 49 -18 24 0 52 -9 75 -25 20 -14 47
-25 61 -25 13 0 38 -9 56 -20 18 -11 60 -23 95 -27 54 -5 66 -11 95 -41 32
-34 37 -36 109 -38 63 -2 81 -7 108 -27 47 -36 114 -57 181 -57 43 0 79 -9
145 -37 71 -30 100 -36 162 -38 62 -1 86 -7 140 -33 36 -18 79 -32 96 -32 34
0 143 -36 247 -81 61 -27 71 -29 102 -18 31 12 39 10 85 -13 l50 -26 82 24
c64 18 90 21 113 14 17 -5 62 -10 100 -10 39 0 106 0 150 0 44 0 160 0 259 1
166 1 180 -1 207 -20 19 -14 43 -21 76 -21 26 0 61 -7 77 -15 36 -19 50 -19
67 1 16 20 51 15 149 -22 86 -32 170 -36 285 -15 39 8 156 15 260 17 105 2
223 6 263 10 55 4 83 2 114 -11 40 -15 41 -15 65 6 24 23 56 31 129 29 24 0
56 7 75 18 29 17 52 19 159 17 115 -2 128 0 167 21 33 19 56 24 111 24 59 0
164 16 317 48 22 5 51 14 64 22 15 7 72 14 145 16 107 3 127 7 174 30 39 20
67 27 103 25 35 -1 51 3 55 13 9 23 52 34 152 40 77 4 100 2 135 -14 72 -33
98 -27 163 36 49 49 61 56 88 51 35 -5 172 7 261 23 90 16 172 29 245 39 77
11 108 20 136 38 13 8 60 16 115 18 138 7 179 13 206 30 18 12 37 15 78 10 47
-6 60 -4 114 24 63 32 104 37 253 31 39 -1 65 3 80 14 13 9 43 16 69 16 29 0
63 9 95 25 27 14 56 25 65 25 9 0 34 7 54 16 21 8 47 13 57 10 13 -3 30 5 49
23 23 22 45 31 107 40 94 15 148 34 192 66 20 15 47 25 66 25 18 0 35 4 38 8
3 5 45 21 93 36 48 15 106 36 129 47 22 10 60 25 83 34 23 8 56 24 72 35 17
13 37 19 47 16 11 -4 34 4 56 19 34 23 69 31 146 34 15 1 55 22 90 48 68 49
127 72 199 78 25 1 50 10 56 18 6 8 26 22 45 31 59 28 124 67 146 87 11 10 26
19 33 19 7 0 36 22 64 48 29 27 67 54 84 60 18 6 48 22 65 35 18 13 78 41 133
62 113 43 125 50 125 74 0 28 41 58 86 64 62 7 106 32 175 98 45 43 75 63 106
71 27 6 51 20 61 35 24 36 54 62 92 81 19 9 42 33 53 52 20 37 40 56 72 69 12
5 34 27 49 50 16 23 44 57 62 77 19 19 34 39 34 43 0 4 18 15 40 24 23 9 40
22 40 31 0 9 28 44 62 78 33 35 67 77 74 94 8 18 24 41 37 51 14 10 31 32 40
49 9 17 23 37 33 45 9 8 29 41 44 74 15 33 34 66 43 74 10 7 17 26 17 42 0 21
7 32 29 43 16 9 31 26 35 39 5 23 31 41 99 66 16 6 27 18 27 29 0 10 11 29 25
42 15 14 25 35 25 51 0 14 7 32 15 39 9 7 32 43 52 79 50 90 66 111 181 241
22 25 47 62 55 82 9 22 28 43 46 53 20 10 31 23 31 36 0 20 102 151 150 194
40 35 110 136 110 159 0 12 14 35 30 51 26 24 30 35 25 63 -5 31 1 39 70 108
41 41 75 82 75 91 0 9 10 30 23 47 13 17 29 51 36 76 24 87 33 113 58 164 35
72 77 149 96 177 10 13 17 31 17 39 0 9 16 35 35 57 19 23 35 48 35 56 0 8 13
34 30 58 16 24 30 53 30 64 0 11 7 31 16 43 10 14 14 33 10 47 -3 13 -2 27 4
30 13 8 13 71 -1 110 -10 28 -9 36 9 61 12 16 33 63 48 104 14 41 30 80 36 87
5 7 7 35 3 66 -6 47 -4 61 18 98 21 39 35 89 51 194 8 51 28 130 36 140 4 6
11 36 14 67 4 32 12 60 17 63 5 4 9 29 9 57 0 34 6 59 20 78 20 28 20 30 3 65
-17 35 -16 37 4 78 11 23 26 59 33 80 10 33 9 40 -9 63 l-20 26 30 54 31 54
-5 140 c-3 76 -8 143 -10 147 -3 4 -1 30 3 57 7 49 -3 123 -22 162 -7 15 -6
27 3 41 10 17 9 24 -4 44 -10 13 -17 36 -17 51 0 15 -5 30 -11 33 -13 8 -3 91
17 149 12 34 12 42 -1 62 -18 28 -19 54 -4 87 9 20 8 30 -6 50 -13 20 -14 33
-7 59 5 18 7 38 5 45 -2 6 1 14 6 18 6 3 11 21 11 39 0 17 5 37 11 43 9 9 6
20 -11 44 -13 17 -24 43 -26 58 -1 14 -7 49 -13 76 -7 32 -8 59 -2 75 20 52
19 105 -1 146 -28 55 -31 157 -6 189 23 30 34 80 19 90 -6 3 -26 8 -43 10 -36
5 -47 13 -31 23 7 4 16 27 22 52 8 36 7 48 -8 69 -36 54 -45 88 -47 186 -2 55
-7 125 -11 155 -5 33 -4 66 2 82 6 20 6 38 -2 59 -9 22 -9 38 -2 50 7 15 4 29
-15 62 -17 30 -23 51 -19 74 3 22 -2 46 -15 72 -13 24 -21 59 -21 88 0 26 0
69 0 95 0 38 -6 53 -31 81 -31 36 -38 65 -20 83 7 7 4 19 -11 38 -16 21 -22
40 -20 75 1 39 -4 52 -29 79 -25 27 -30 42 -30 81 0 46 -35 131 -61 146 -5 4
-9 19 -9 34 0 15 -3 31 -7 35 -12 11 -34 124 -36 180 -1 29 -7 51 -14 53 -7 3
-13 9 -13 15 0 5 -7 16 -16 25 -8 9 -13 22 -10 29 3 8 -6 31 -20 51 -18 27
-23 44 -18 65 4 19 0 37 -10 53 -9 13 -16 31 -16 39 0 8 -15 29 -34 46 -19 18
-37 46 -40 62 -3 18 -14 32 -25 35 -21 5 -31 31 -31 79 0 35 -24 99 -40 109
-5 3 -10 19 -10 35 0 16 -6 33 -14 37 -17 9 -68 82 -70 99 -1 7 -10 28 -21 47
-19 35 -19 36 1 72 l19 36 -30 26 c-16 14 -40 34 -52 44 -27 22 -29 44 -7 66
14 14 13 18 -10 42 -14 14 -32 46 -41 71 -20 58 -61 120 -80 120 -17 0 -115
98 -115 115 0 7 11 15 24 19 22 5 23 7 11 53 -10 40 -19 51 -49 67 -21 12 -35
26 -34 35 2 9 -12 22 -33 33 -24 11 -39 26 -43 44 -4 15 -27 54 -52 86 -24 32
-44 67 -44 78 0 11 -5 20 -10 20 -27 0 -70 63 -101 145 -12 31 -33 71 -48 88
-15 18 -32 45 -39 60 -6 15 -32 40 -57 55 -25 15 -48 39 -54 54 -5 16 -20 33
-33 39 -28 13 -129 130 -145 167 -6 15 -24 34 -40 43 -18 10 -30 26 -33 45 -4
20 -16 35 -41 48 -34 18 -64 62 -88 126 -10 27 -123 95 -145 87 -24 -10 -50
22 -48 57 2 25 -4 42 -24 63 -15 15 -34 46 -44 68 -10 22 -35 59 -56 83 -31
35 -47 45 -82 49 -32 4 -46 11 -52 27 -4 12 -21 33 -36 47 -16 14 -36 40 -45
56 -13 23 -24 31 -45 31 -22 0 -39 12 -74 51 -43 49 -47 51 -97 51 -68 0 -79
5 -105 51 -12 21 -30 41 -40 44 -20 7 -88 83 -88 100 0 6 -29 41 -64 78 -45
47 -69 65 -80 61 -19 -7 -55 19 -139 99 -33 31 -71 57 -88 61 -16 3 -54 29
-84 57 -29 28 -57 50 -62 49 -4 0 -9 8 -11 19 -2 12 -16 24 -36 31 -21 7 -40
24 -54 49 -15 26 -34 43 -64 55 -24 10 -58 24 -76 32 -18 8 -53 14 -77 14 -31
0 -48 5 -57 19 -16 23 -141 103 -188 121 -19 7 -50 28 -68 47 -17 19 -51 43
-75 54 -46 22 -152 78 -232 123 -27 16 -63 41 -80 56 -40 36 -75 54 -165 84
-41 13 -88 31 -105 40 -16 9 -38 16 -48 16 -11 0 -31 8 -45 19 -46 32 -105 52
-163 55 -42 2 -64 9 -90 28 -46 35 -166 88 -198 88 -14 0 -51 9 -81 21 -130
49 -151 53 -320 55 -173 2 -281 12 -315 31 -13 7 -51 9 -103 6 -74 -5 -88 -3
-130 17 -34 17 -72 26 -136 30 -75 6 -92 10 -107 29 -33 41 -81 52 -245 56
-84 2 -158 6 -164 10 -6 4 -17 1 -25 -5 -16 -13 -69 -10 -197 12 -48 8 -78 8
-109 0 -33 -8 -51 -8 -82 3 -25 9 -48 10 -62 5 -24 -9 -182 -5 -252 6 -24 4
-48 13 -54 20 -12 15 -113 18 -159 5 -17 -5 -44 1 -85 17 -33 14 -80 27 -105
29 -49 5 -60 5 -255 2 -105 -1 -137 1 -163 15 -22 11 -44 14 -71 10 -22 -4
-68 0 -109 10 -74 17 -231 20 -312 6z m285 -369 c66 -3 127 -10 135 -16 8 -5
67 -10 130 -11 106 -1 153 -5 345 -35 39 -6 84 -10 100 -10 116 3 152 2 245
-9 58 -6 177 -12 265 -14 89 -1 167 -6 174 -10 12 -8 390 -19 506 -15 180 5
254 -2 327 -32 26 -10 64 -19 85 -19 21 0 61 -7 88 -15 28 -8 79 -22 115 -33
36 -10 81 -25 100 -34 19 -9 58 -21 85 -28 28 -7 58 -14 67 -17 10 -2 50 -37
90 -76 41 -40 89 -79 108 -86 49 -19 112 -49 132 -63 13 -9 22 -9 41 1 22 11
29 11 48 -3 26 -18 59 -21 59 -6 0 17 -37 71 -59 86 -25 18 -60 84 -54 101 2
6 -3 25 -11 42 -18 34 -13 57 16 72 19 10 35 7 133 -26 28 -9 65 -20 83 -25
18 -4 42 -14 55 -22 12 -8 37 -18 55 -21 18 -4 57 -18 87 -32 31 -14 66 -25
79 -25 12 0 33 -11 46 -25 13 -14 28 -25 34 -25 10 0 36 -15 105 -62 14 -10
64 -37 110 -60 47 -24 102 -60 124 -81 26 -25 52 -39 79 -43 22 -4 61 -22 87
-40 25 -18 73 -47 107 -63 33 -16 76 -42 95 -58 53 -46 104 -73 135 -73 16 0
46 -10 66 -23 20 -12 62 -36 91 -54 30 -17 75 -56 100 -85 27 -31 66 -63 96
-78 28 -14 51 -28 51 -32 0 -4 14 -15 31 -23 38 -20 197 -172 205 -197 6 -19
81 -68 105 -68 8 0 51 -18 95 -41 62 -31 86 -49 100 -75 10 -19 22 -34 26 -34
5 0 28 -18 52 -40 24 -22 50 -40 59 -40 9 0 18 -12 22 -30 4 -16 13 -33 20
-37 7 -5 29 -22 48 -39 18 -18 44 -37 56 -44 13 -6 27 -24 32 -38 5 -15 19
-32 32 -37 12 -6 26 -20 32 -31 19 -38 37 -54 62 -54 33 0 111 -47 118 -71 4
-10 13 -19 21 -19 31 0 74 -30 74 -53 0 -14 20 -40 56 -72 30 -27 72 -67 92
-87 21 -21 46 -38 55 -38 32 0 58 -20 52 -39 -7 -23 11 -38 50 -43 25 -2 30
-8 31 -31 1 -39 22 -73 61 -103 18 -14 33 -32 33 -40 0 -8 17 -33 38 -57 22
-23 51 -64 67 -90 15 -26 49 -66 75 -88 27 -22 54 -54 61 -71 8 -19 25 -36 45
-44 18 -8 39 -24 45 -36 7 -13 29 -39 50 -58 20 -20 41 -49 45 -65 4 -17 18
-46 31 -65 12 -19 23 -42 23 -50 0 -9 16 -31 35 -50 19 -19 35 -41 35 -49 0
-9 15 -40 34 -71 18 -30 36 -72 40 -92 4 -20 22 -56 41 -78 19 -23 35 -45 35
-48 0 -4 23 -31 50 -59 28 -29 50 -61 50 -72 0 -10 9 -30 20 -44 22 -28 60
-128 60 -158 0 -10 12 -26 28 -36 39 -24 52 -43 52 -75 0 -16 20 -64 45 -108
25 -44 45 -92 45 -108 0 -19 12 -40 40 -67 30 -29 40 -47 40 -70 0 -18 11 -54
26 -81 32 -62 74 -176 74 -201 0 -10 11 -34 24 -52 24 -33 54 -119 76 -221 7
-30 25 -76 41 -101 16 -25 29 -51 29 -57 0 -6 14 -27 30 -45 27 -31 30 -42 30
-100 0 -56 5 -72 35 -123 19 -32 35 -64 35 -72 0 -8 9 -25 20 -39 13 -17 20
-41 20 -72 0 -25 7 -70 14 -98 8 -29 12 -62 9 -73 -3 -11 2 -31 11 -45 10 -15
17 -47 17 -80 1 -41 7 -62 25 -87 23 -30 24 -40 22 -135 -3 -91 -1 -104 18
-125 28 -30 46 -102 55 -213 4 -49 14 -151 23 -225 15 -124 15 -139 0 -177 -8
-24 -12 -48 -8 -54 4 -7 9 -31 10 -53 2 -23 8 -75 14 -116 16 -110 30 -268 30
-323 -1 -28 6 -59 16 -77 15 -24 16 -36 7 -77 -12 -56 -7 -260 8 -317 6 -24
10 -140 10 -280 -1 -133 -1 -254 -1 -271 7 -214 5 -349 -6 -405 -31 -154 -35
-180 -37 -265 -2 -49 -8 -99 -14 -110 -6 -11 -8 -35 -6 -53 6 -36 -20 -160
-43 -205 -8 -16 -14 -53 -14 -84 0 -41 -7 -66 -26 -99 -26 -44 -41 -142 -48
-309 -2 -54 -15 -86 -52 -125 -13 -14 -28 -46 -33 -70 -15 -78 -33 -144 -46
-175 -7 -16 -20 -50 -29 -74 -9 -24 -28 -58 -41 -76 -14 -17 -25 -36 -25 -42
0 -6 -13 -37 -30 -69 -16 -32 -39 -90 -51 -129 -29 -99 -51 -155 -60 -161 -5
-3 -9 -18 -9 -34 0 -19 -14 -43 -45 -78 -25 -27 -45 -55 -45 -62 0 -7 -22 -49
-49 -94 -28 -44 -53 -94 -57 -111 -4 -16 -22 -53 -41 -82 -18 -29 -33 -56 -33
-61 0 -5 -13 -27 -30 -50 -16 -23 -39 -60 -50 -84 -11 -24 -36 -53 -55 -66
-20 -12 -43 -39 -53 -60 -22 -47 -96 -158 -132 -197 -15 -16 -41 -38 -59 -47
-17 -9 -36 -30 -43 -45 -7 -15 -20 -39 -30 -52 -10 -13 -18 -35 -18 -48 0 -22
-9 -33 -73 -91 -15 -13 -37 -41 -49 -62 -51 -87 -85 -135 -129 -184 -26 -28
-54 -67 -64 -86 -10 -19 -28 -48 -40 -65 -13 -16 -26 -41 -30 -55 -4 -14 -20
-39 -36 -55 -32 -35 -99 -141 -99 -159 0 -7 -45 -60 -100 -118 -55 -58 -100
-111 -100 -117 0 -6 -20 -31 -45 -57 -26 -26 -45 -55 -45 -68 0 -26 -18 -46
-41 -46 -28 0 -170 -131 -209 -194 -23 -36 -102 -102 -155 -128 -22 -11 -56
-35 -75 -52 -19 -18 -56 -45 -81 -59 -26 -15 -49 -33 -52 -40 -3 -8 -29 -26
-59 -41 -70 -35 -112 -61 -174 -108 -34 -25 -61 -38 -82 -38 -18 0 -39 -8 -49
-19 -20 -21 -119 -71 -142 -71 -16 0 -133 -59 -192 -96 -19 -12 -76 -43 -125
-69 -49 -26 -102 -57 -119 -69 -16 -13 -48 -29 -70 -36 -38 -12 -78 -34 -163
-89 -20 -13 -57 -28 -82 -33 -25 -4 -72 -21 -105 -37 -33 -16 -72 -32 -86 -35
-15 -3 -49 -21 -75 -38 -54 -36 -109 -55 -257 -89 -53 -12 -127 -37 -164 -55
-36 -19 -82 -36 -102 -40 -20 -3 -61 -14 -91 -24 -118 -38 -172 -51 -281 -64
-63 -8 -150 -24 -194 -35 -44 -12 -127 -24 -185 -27 -58 -4 -151 -17 -206 -30
-56 -13 -117 -24 -135 -24 -19 0 -50 -5 -69 -10 -19 -6 -100 -19 -180 -30 -80
-11 -162 -26 -183 -35 -20 -8 -63 -15 -96 -15 -58 0 -99 -7 -228 -36 -34 -8
-81 -14 -103 -14 -45 0 -222 -32 -310 -56 -30 -8 -75 -14 -100 -13 -91 2 -176
-8 -214 -24 -21 -9 -49 -17 -62 -17 -13 0 -63 -14 -111 -32 -79 -29 -101 -32
-208 -34 -80 -1 -134 -7 -164 -18 -24 -9 -63 -16 -86 -16 -23 0 -62 -7 -85
-15 -23 -8 -72 -15 -109 -14 -47 1 -80 -5 -116 -21 -32 -14 -62 -20 -81 -17
-18 3 -49 1 -70 -5 -34 -8 -244 -21 -299 -17 -11 1 -112 3 -225 4 -248 3 -496
19 -645 40 -201 29 -247 33 -274 26 -14 -4 -78 -1 -141 7 -63 8 -167 16 -230
18 -63 2 -209 9 -324 14 -193 10 -214 13 -282 40 -44 18 -90 29 -116 28 -28 0
-56 7 -78 21 -20 12 -52 21 -73 21 -21 0 -48 5 -60 12 -12 6 -40 15 -62 19
-22 4 -60 14 -85 22 -25 8 -72 21 -105 28 -33 6 -74 20 -91 31 -20 11 -51 18
-82 18 -33 0 -66 8 -92 21 -22 12 -60 22 -83 24 -23 1 -55 7 -72 13 -16 6 -68
22 -115 36 -120 35 -259 84 -300 107 -45 24 -148 59 -175 59 -11 0 -35 9 -53
20 -19 12 -56 22 -82 24 -32 3 -60 12 -82 29 -18 13 -56 32 -85 41 -28 10 -62
25 -75 35 -13 10 -47 26 -75 35 -29 10 -55 22 -58 27 -4 5 -14 9 -24 9 -10 0
-28 11 -41 25 -13 14 -31 25 -39 25 -9 0 -32 10 -51 21 -19 12 -55 28 -81 35
-55 17 -187 95 -280 167 -20 15 -60 34 -89 43 -35 10 -70 31 -104 62 -51 47
-110 81 -176 101 -20 6 -57 29 -84 51 -26 22 -51 40 -55 40 -4 0 -30 19 -58
43 -28 23 -71 54 -96 69 -25 15 -58 45 -72 68 -14 22 -36 45 -49 50 -12 4 -34
21 -47 37 -25 28 -113 93 -127 93 -4 0 -21 13 -38 28 -17 15 -84 64 -150 107
-65 44 -123 85 -129 91 -5 6 -38 32 -73 59 -81 61 -247 206 -272 237 -10 14
-22 36 -25 50 -4 15 -21 37 -38 50 -67 50 -89 72 -108 107 -11 20 -33 54 -50
76 -55 74 -61 85 -56 99 4 9 -18 37 -56 74 -68 65 -91 97 -137 189 -17 33 -42
68 -55 77 -14 9 -25 23 -25 30 0 8 -18 35 -39 61 -22 26 -42 60 -46 74 -4 14
-19 42 -33 61 -15 19 -36 51 -47 71 -11 21 -35 59 -54 85 -19 26 -38 68 -43
93 -4 25 -26 75 -48 111 -22 37 -50 93 -61 126 -11 32 -31 70 -45 85 -13 14
-24 30 -24 36 0 6 -13 24 -30 40 -16 15 -30 35 -30 43 0 9 -16 54 -36 100 -19
47 -42 105 -49 130 -8 25 -28 67 -45 93 -16 26 -30 54 -30 62 0 29 -51 202
-95 325 -7 19 -21 71 -30 115 -10 44 -30 121 -46 170 -15 50 -34 110 -41 135
-6 25 -20 63 -30 85 -10 22 -18 59 -18 82 0 23 -5 54 -11 70 -6 15 -15 62 -19
104 -5 43 -16 92 -25 110 -12 23 -18 64 -21 133 -2 56 -10 121 -18 146 -31 99
-48 167 -51 215 -2 28 -9 91 -15 140 -6 50 -11 105 -10 123 0 17 0 38 0 45 -1
6 -3 84 -5 172 -5 243 -14 503 -20 570 -3 33 0 84 8 115 8 36 10 79 5 125 -5
52 -1 104 14 200 19 112 25 194 30 380 0 22 -4 58 -10 80 -8 28 -8 43 0 53 13
15 23 69 38 196 6 49 17 103 26 120 17 34 30 89 43 181 5 34 20 83 34 110 13
28 28 66 32 85 4 19 13 44 20 55 6 11 27 67 45 125 25 79 41 114 66 140 21 22
34 46 34 62 0 15 15 44 35 68 19 23 35 49 35 58 0 10 10 33 21 52 12 19 28 57
36 85 8 27 23 64 34 81 10 17 19 39 19 49 0 9 16 39 35 65 19 26 35 53 35 60
0 6 11 26 24 43 13 18 29 48 34 67 6 19 15 49 20 65 6 17 20 64 32 105 12 41
33 98 46 125 13 28 24 54 24 59 0 6 9 20 21 32 11 12 27 48 36 80 8 33 18 64
23 69 4 6 11 25 15 44 4 20 24 50 46 72 31 30 39 46 39 73 0 39 61 168 122
256 21 30 38 62 38 69 0 8 11 27 25 41 14 14 31 48 39 76 16 57 54 148 78 184
9 14 21 43 28 65 7 22 23 54 35 71 13 16 30 46 38 66 8 20 29 47 47 59 37 28
70 78 70 106 0 11 9 28 20 38 11 10 20 22 20 28 0 5 11 23 25 41 33 41 36 44
85 91 24 22 48 54 56 71 7 17 25 39 39 48 18 12 25 25 25 48 0 38 47 99 179
236 51 53 101 108 110 122 8 14 50 65 91 113 41 49 80 97 86 108 18 32 46 60
102 101 31 23 60 54 68 74 8 18 26 41 42 51 22 15 59 48 141 128 6 6 26 26 44
45 29 30 82 71 136 105 61 38 135 99 194 159 38 39 89 79 115 91 26 12 70 41
97 64 92 78 146 126 178 158 18 17 55 44 82 59 28 14 61 36 75 48 33 30 128
96 137 96 4 0 21 15 38 33 50 50 106 100 155 137 25 19 67 54 94 78 26 23 54
42 62 42 8 0 31 16 53 35 21 19 43 35 48 35 6 0 28 12 49 26 21 15 56 33 77
40 44 16 99 49 188 112 33 24 77 50 97 59 108 45 253 122 327 172 65 44 101
61 127 61 13 0 39 11 59 24 20 14 64 36 99 50 35 14 84 42 108 61 25 19 50 35
55 35 6 0 20 9 32 20 11 11 59 31 106 44 47 14 116 43 155 65 38 22 87 43 109
47 49 8 84 25 109 53 15 16 31 21 70 21 29 0 85 11 126 24 41 13 97 26 123 30
61 7 139 41 168 72 15 16 33 24 57 24 22 0 52 12 86 35 29 19 62 35 73 35 11
0 47 8 79 19 33 10 73 16 89 14 18 -3 58 6 100 22 44 16 79 24 96 20 35 -8
135 18 171 45 15 11 43 20 62 20 19 0 47 5 63 11 15 6 103 12 194 14 104 1
174 7 188 14 49 26 121 41 236 47 66 4 127 10 136 15 9 4 34 9 55 10 21 1 59
7 84 15 65 19 91 21 125 10 17 -5 84 -12 150 -15z"/>
<path d="M11184 15950 c-11 -4 -26 -22 -33 -38 -7 -17 -40 -52 -73 -79 -76
-60 -77 -61 -110 -67 -15 -4 -33 -13 -41 -21 -8 -8 -41 -30 -74 -50 -79 -47
-84 -52 -126 -115 -20 -30 -40 -58 -44 -63 -5 -4 -31 -30 -60 -58 -29 -27 -69
-77 -90 -111 -39 -63 -92 -121 -186 -201 -47 -41 -59 -46 -76 -38 -27 15 -30
31 -28 154 l1 108 -29 24 c-17 13 -50 32 -74 41 -38 15 -51 16 -104 5 -48 -10
-141 -48 -166 -68 -14 -10 -22 -128 -20 -268 4 -266 2 -310 -15 -363 -16 -48
-16 -60 0 -199 19 -154 19 -173 9 -338 -8 -137 -10 -156 -19 -188 -5 -18 -4
-37 2 -50 6 -12 11 -33 11 -47 0 -14 4 -50 10 -80 8 -39 8 -63 0 -82 -6 -16
-8 -49 -5 -80 7 -55 7 -70 8 -153 2 -187 1 -350 -3 -475 -4 -141 -3 -146 20
-178 25 -32 25 -32 8 -80 -16 -42 -19 -95 -20 -272 -1 -113 3 -152 18 -172 17
-26 20 -64 5 -73 -6 -4 -10 -22 -8 -40 1 -18 -3 -40 -10 -48 -7 -8 -12 -36
-11 -63 0 -27 1 -98 0 -157 0 -60 5 -121 10 -135 10 -24 16 -148 22 -392 1
-47 6 -91 10 -97 4 -7 3 -30 -4 -51 -8 -29 -8 -63 0 -138 7 -54 12 -112 11
-129 0 -16 7 -49 16 -72 19 -49 15 -105 -15 -218 -23 -89 -26 -128 -11 -171 9
-24 6 -43 -15 -99 -30 -80 -34 -108 -38 -255 -2 -59 -8 -115 -15 -128 -10 -17
-10 -31 -2 -60 8 -25 9 -54 3 -88 -6 -28 -6 -61 -1 -74 12 -32 12 -140 0 -170
-6 -14 -26 -40 -45 -58 -27 -26 -46 -35 -91 -41 -34 -5 -65 -16 -79 -28 -12
-11 -35 -25 -52 -30 -34 -12 -112 -61 -195 -123 -30 -22 -75 -55 -100 -73 -28
-20 -56 -54 -75 -88 -16 -31 -42 -71 -56 -90 -15 -19 -30 -52 -34 -75 -5 -33
-19 -53 -68 -102 -57 -56 -79 -72 -161 -118 -46 -25 -214 -66 -296 -71 -53 -3
-81 -10 -98 -24 -14 -10 -35 -19 -49 -19 -13 0 -40 -7 -60 -15 -20 -8 -50 -18
-66 -21 -19 -3 -47 -23 -76 -54 -55 -58 -105 -75 -192 -65 -73 9 -122 -15
-142 -68 -9 -25 -42 -17 -42 10 0 45 -29 42 -97 -12 -46 -37 -67 -41 -116 -24
-22 8 -36 7 -53 -1 -12 -7 -50 -14 -83 -16 -142 -8 -166 -12 -197 -38 -17 -15
-37 -26 -45 -26 -7 0 -19 -9 -26 -20 -15 -24 -35 -25 -62 -5 -22 17 -49 12
-85 -16 -13 -11 -36 -19 -51 -19 -36 0 -157 -45 -182 -67 -14 -12 -34 -17 -66
-16 -26 1 -54 -4 -66 -13 -26 -18 -54 -18 -100 1 -34 14 -47 37 -27 49 20 13
70 115 85 175 9 35 29 91 45 125 24 52 28 72 26 136 -3 109 -21 180 -56 223
-17 20 -35 37 -40 37 -18 0 -97 -81 -114 -118 -10 -20 -35 -56 -56 -79 -37
-40 -88 -129 -90 -155 -1 -14 -29 -61 -91 -150 -54 -78 -227 -253 -273 -276
-22 -11 -49 -30 -60 -42 -11 -12 -46 -40 -78 -62 -31 -21 -68 -57 -82 -78 -15
-24 -40 -46 -67 -58 -24 -11 -51 -28 -60 -38 -52 -58 -86 -101 -91 -119 -17
-61 -59 -141 -86 -165 -17 -16 -32 -35 -32 -42 -9 -104 -7 -118 18 -138 14
-11 40 -20 57 -20 17 0 69 -14 116 -30 47 -16 93 -30 102 -30 18 0 144 -64
168 -85 11 -10 26 -12 52 -6 22 5 40 5 46 -1 5 -5 29 -14 52 -19 23 -5 58 -21
78 -34 31 -21 48 -25 113 -25 95 0 163 -20 223 -66 34 -26 55 -35 79 -33 63 4
80 -1 113 -37 24 -27 43 -38 71 -41 21 -2 56 -12 78 -22 22 -11 60 -25 85 -31
25 -7 61 -19 80 -28 19 -9 71 -19 115 -23 44 -5 102 -12 129 -17 47 -9 56 -16
81 -57 8 -13 28 -19 72 -22 59 -5 63 -3 98 29 26 23 38 44 41 68 6 49 14 71
37 104 19 27 19 31 4 75 -8 25 -18 72 -22 104 -6 53 -10 60 -43 81 -20 13 -56
27 -79 30 -24 3 -69 18 -100 32 -32 15 -74 30 -93 35 -96 22 -175 49 -186 63
-6 9 -32 19 -58 22 -26 4 -63 17 -82 30 -49 34 -78 38 -124 20 -22 -8 -47 -13
-56 -9 -8 3 -23 6 -32 7 -24 2 -142 64 -142 75 0 4 -18 16 -39 26 -22 9 -54
32 -71 50 l-33 34 34 20 c18 11 46 23 63 27 16 3 49 17 72 29 33 17 54 22 84
18 28 -4 54 1 89 16 27 11 58 21 68 21 11 0 38 9 61 20 22 11 53 20 67 20 30
0 60 14 89 43 28 26 79 47 115 47 16 0 42 5 56 10 15 6 59 15 99 20 149 19
298 60 371 101 17 9 61 19 98 23 54 4 79 12 115 36 38 25 55 30 107 30 39 0
76 7 101 19 21 10 93 30 159 45 66 15 133 33 148 41 16 8 39 15 52 15 38 0
145 30 179 51 17 10 42 19 56 19 14 1 43 8 65 16 22 8 71 19 109 24 38 6 74
14 80 19 16 13 115 41 146 41 44 0 104 -51 119 -99 8 -27 21 -46 36 -53 24
-11 55 -62 55 -92 0 -9 11 -38 24 -65 13 -27 26 -61 30 -75 3 -14 11 -26 16
-26 6 0 33 -23 61 -50 30 -29 60 -50 73 -50 12 0 39 -14 60 -32 40 -33 76 -44
196 -57 62 -7 77 -13 95 -34 22 -29 139 -90 200 -106 22 -6 74 -13 115 -17 46
-4 87 -14 107 -26 43 -26 104 -16 141 23 15 16 32 29 38 29 7 0 28 18 49 41
32 36 41 40 67 35 41 -8 81 -38 102 -78 10 -18 47 -55 82 -82 35 -27 64 -52
64 -55 0 -4 18 -27 41 -51 22 -25 48 -59 57 -76 27 -49 109 -171 121 -178 6
-4 26 -30 45 -59 19 -29 49 -61 66 -72 18 -12 37 -38 47 -64 12 -30 47 -75
105 -134 48 -49 88 -95 88 -102 0 -6 11 -22 25 -35 14 -13 25 -29 25 -35 0
-16 69 -80 108 -99 18 -9 37 -28 42 -41 5 -13 27 -36 49 -51 30 -19 42 -35 47
-60 5 -25 27 -55 80 -108 41 -40 74 -79 74 -85 0 -7 11 -22 23 -34 47 -43 114
-133 143 -191 17 -33 38 -62 51 -67 12 -4 34 -26 48 -49 14 -22 31 -40 38 -40
7 0 19 -8 28 -17 8 -10 45 -45 82 -78 37 -33 67 -67 67 -76 0 -14 15 -31 101
-111 11 -10 19 -27 19 -37 0 -11 18 -36 40 -57 22 -21 40 -44 40 -51 0 -32 55
-111 105 -150 30 -24 55 -49 55 -56 0 -7 14 -21 30 -30 17 -10 30 -22 30 -28
0 -5 16 -26 35 -47 19 -21 39 -51 45 -66 6 -16 22 -31 40 -37 16 -6 30 -15 30
-20 0 -5 10 -19 23 -31 23 -24 50 -58 94 -123 15 -22 44 -58 64 -80 103 -112
137 -145 146 -145 17 0 223 -208 223 -225 0 -29 60 -112 95 -130 19 -11 43
-31 54 -46 11 -15 45 -41 76 -59 34 -20 57 -40 61 -54 3 -13 19 -33 35 -45 16
-12 29 -29 29 -37 0 -9 9 -29 21 -45 27 -38 22 -73 -11 -76 -14 -1 -53 -5 -88
-9 -36 -4 -100 -2 -150 5 -66 9 -108 10 -172 1 -47 -6 -141 -17 -210 -24 -96
-11 -137 -20 -177 -40 -29 -14 -58 -26 -64 -26 -21 0 -89 -44 -94 -60 -8 -26
12 -70 50 -107 19 -18 32 -39 29 -47 -3 -8 11 -30 30 -50 l36 -35 173 6 c162
5 177 4 222 -16 60 -26 63 -26 95 4 l26 25 39 -21 c22 -11 58 -21 80 -20 40 0
163 -25 200 -40 26 -11 110 -30 155 -35 19 -2 46 -7 60 -10 35 -8 167 -71 175
-84 3 -5 13 -10 21 -10 9 0 35 -15 58 -34 30 -25 56 -37 91 -41 28 -4 55 -12
60 -19 6 -7 18 -15 28 -19 10 -4 25 -20 35 -36 9 -17 34 -38 55 -47 21 -10 41
-23 45 -30 4 -6 25 -23 46 -38 63 -42 136 -31 136 22 1 47 32 96 73 115 21 9
42 28 47 42 5 13 21 31 35 41 14 9 25 25 25 35 0 10 9 36 20 57 11 22 23 62
26 89 6 45 4 51 -20 66 -15 10 -26 27 -26 39 0 12 -13 36 -29 53 -15 16 -34
46 -40 65 -11 32 -10 37 13 57 21 18 22 22 9 27 -8 4 -21 1 -29 -5 -14 -11
-54 -4 -54 11 0 4 11 15 24 23 26 18 38 66 22 94 -15 28 -7 165 11 185 9 10
13 26 10 37 -3 13 4 28 19 42 13 12 24 27 24 33 0 5 10 20 21 32 12 13 27 33
33 46 8 15 24 25 47 28 55 9 63 18 45 46 -15 22 -14 28 30 108 l47 84 60 11
c52 9 64 16 96 52 49 57 53 66 42 87 -8 15 -3 27 28 60 20 23 46 42 57 42 27
0 38 10 49 45 7 22 23 36 57 52 26 13 49 32 53 43 4 12 24 32 46 46 22 13 44
35 49 48 11 29 20 36 89 59 58 20 64 18 66 -16 2 -30 32 -35 37 -5 2 14 20 34
50 53 27 17 55 47 69 71 22 41 22 43 5 69 -30 45 -7 100 45 110 27 5 49 30 49
55 0 22 24 42 87 74 39 19 53 32 57 54 4 15 16 43 28 62 12 19 22 39 23 43 0
12 28 27 51 27 12 0 26 11 35 28 47 91 93 130 154 132 55 1 79 21 91 75 10 50
10 50 50 50 52 0 64 10 64 49 0 19 7 39 15 46 9 7 13 20 11 27 -8 21 42 79 85
98 20 10 43 29 50 43 8 15 24 37 36 49 13 12 23 31 23 42 0 12 12 28 28 38 15
9 32 22 37 28 6 7 32 37 59 69 27 31 54 67 60 79 11 20 36 32 126 56 22 6 24
11 22 44 -4 41 5 52 120 150 53 44 138 169 138 202 0 7 7 18 15 25 8 7 15 20
15 29 -1 18 -49 74 -77 90 -42 22 -177 -94 -223 -192 -20 -42 -70 -97 -88 -97
-4 0 -22 -23 -41 -51 -18 -28 -86 -102 -151 -165 -64 -63 -125 -130 -135 -148
-10 -18 -33 -43 -53 -56 -19 -14 -46 -41 -59 -61 -14 -21 -42 -49 -63 -64 -21
-15 -66 -60 -100 -100 -36 -43 -87 -90 -125 -114 -34 -23 -72 -56 -82 -74 -13
-22 -41 -43 -84 -64 -59 -29 -68 -38 -108 -108 -25 -41 -48 -75 -53 -75 -4 0
-26 -24 -49 -52 -22 -29 -62 -64 -87 -78 -35 -19 -52 -37 -68 -71 -12 -25 -39
-58 -59 -73 -20 -16 -43 -43 -51 -61 -7 -18 -29 -43 -49 -55 -19 -12 -35 -27
-35 -34 0 -7 -19 -21 -42 -32 -27 -12 -66 -47 -107 -94 -36 -41 -79 -82 -97
-91 -45 -23 -114 -80 -114 -95 0 -6 -11 -22 -25 -35 -14 -13 -34 -40 -45 -59
-21 -42 -86 -103 -150 -144 -25 -16 -63 -51 -85 -78 -114 -140 -157 -196 -175
-230 -25 -47 -82 -91 -112 -86 -28 4 -49 45 -56 107 -2 25 -9 52 -15 59 -5 6
-7 26 -3 43 4 22 0 39 -14 59 -20 28 -63 169 -62 200 2 34 21 127 31 153 6 16
9 33 5 38 -12 21 95 147 151 177 11 6 29 28 40 49 13 24 34 44 58 56 26 12 46
33 69 74 20 36 48 67 77 87 25 17 63 48 85 69 22 20 44 37 49 37 5 0 38 27 73
59 34 33 72 62 82 66 23 7 56 96 47 124 -7 23 11 37 57 46 24 5 39 14 44 27 3
10 26 42 50 69 24 27 44 54 44 59 0 5 15 25 33 44 17 19 42 48 55 65 19 25 31
31 60 31 31 0 44 8 89 56 28 31 55 69 58 85 4 15 15 31 25 34 28 9 97 91 103
123 4 19 24 43 62 72 66 51 85 75 85 109 0 16 18 39 57 75 52 47 83 77 149
146 13 14 24 35 24 48 0 24 6 31 94 107 82 70 86 75 86 90 0 7 15 18 33 26 17
7 55 32 82 55 40 33 53 53 63 91 12 43 42 93 80 132 7 7 16 26 19 42 4 21 13
31 32 35 14 4 38 18 53 32 15 13 37 30 50 36 12 6 28 22 34 35 16 31 32 41 69
41 38 0 115 63 115 94 0 37 67 124 130 168 56 39 60 45 60 80 0 65 -68 113
-102 72 -29 -34 -119 -109 -154 -127 -18 -9 -36 -29 -42 -45 -5 -16 -28 -42
-50 -58 -103 -74 -141 -107 -147 -124 -4 -12 -22 -24 -48 -32 -46 -13 -77 -34
-77 -54 0 -7 -11 -21 -24 -31 -13 -11 -33 -37 -44 -58 -35 -67 -238 -278 -461
-479 -96 -87 -255 -257 -304 -326 -143 -199 -237 -306 -279 -314 -23 -4 -54
-29 -105 -83 -68 -71 -73 -80 -73 -120 0 -24 -3 -43 -7 -44 -5 0 -20 -2 -35
-3 -33 -2 -68 -34 -114 -103 -19 -28 -44 -55 -55 -58 -12 -4 -29 -26 -40 -49
-10 -23 -29 -48 -43 -55 -14 -8 -34 -35 -45 -61 -17 -40 -27 -50 -66 -64 -56
-22 -100 -58 -122 -100 -8 -17 -38 -54 -64 -83 -27 -28 -49 -57 -49 -62 0 -6
-17 -22 -39 -35 -26 -17 -40 -34 -44 -55 -8 -37 -47 -57 -77 -41 -15 8 -18 17
-13 40 9 48 -8 58 -85 55 -37 -2 -89 -8 -117 -12 -54 -10 -157 -69 -174 -102
-6 -11 -11 -62 -11 -113 0 -51 -4 -109 -9 -128 -5 -19 -12 -46 -15 -60 -3 -14
-19 -33 -36 -43 -31 -19 -60 -72 -60 -113 0 -25 -8 -33 -40 -39 -27 -5 -88
-53 -94 -73 -13 -46 -17 -110 -7 -116 6 -4 11 -16 11 -26 0 -25 35 -48 100
-65 57 -15 80 -30 80 -53 0 -8 8 -24 17 -34 12 -13 19 -44 22 -101 4 -55 12
-90 24 -107 19 -28 22 -62 7 -90 -8 -16 -21 -19 -61 -18 -48 1 -51 3 -67 37
-19 40 -35 53 -72 61 -19 4 -25 11 -25 32 0 42 -17 53 -53 34 -29 -15 -31 -14
-70 13 -23 17 -42 41 -46 58 -10 38 -34 63 -63 63 -12 0 -32 10 -43 23 -12 12
-30 32 -42 44 -12 12 -26 47 -33 80 -11 53 -14 58 -44 64 -36 7 -68 32 -76 60
-4 11 -22 23 -46 29 -21 6 -39 16 -40 23 -1 7 -2 21 -3 32 0 10 -11 24 -23 31
-45 22 -64 47 -61 78 3 27 -1 31 -29 37 -18 3 -40 12 -49 19 -14 12 -14 14 0
22 19 11 21 55 4 61 -7 2 -21 -1 -31 -7 -24 -15 -47 2 -74 55 -37 74 -33 81
36 73 71 -8 92 2 126 60 14 24 43 55 65 70 22 14 46 39 55 56 17 33 43 50 76
50 29 0 89 65 89 96 0 14 17 60 38 102 22 42 39 81 40 85 2 15 50 47 70 47 16
0 21 8 24 32 3 28 8 33 36 39 40 8 64 29 97 85 22 37 24 47 13 63 -9 14 -9 28
-2 48 8 23 18 30 56 38 54 11 77 36 78 81 0 34 23 51 75 56 27 3 30 7 33 41 3
40 17 46 65 28 26 -10 46 5 104 78 23 29 27 43 28 111 1 48 6 85 14 94 18 22
54 20 76 -4 23 -26 65 -26 98 0 17 13 40 20 71 20 51 0 73 15 94 63 7 15 12
39 12 52 0 13 5 27 11 30 5 4 9 17 8 28 -3 35 11 56 47 73 19 9 48 33 64 54
16 21 44 43 60 50 35 15 24 30 -22 30 -20 0 -31 8 -42 31 -14 29 -14 32 8 54
13 13 26 30 29 39 6 16 38 22 50 10 3 -4 0 -22 -8 -41 -14 -32 -13 -34 10 -45
19 -8 31 -8 50 0 20 9 25 19 25 51 0 22 6 44 15 51 8 7 15 21 15 31 0 12 14
25 37 36 22 11 44 31 53 49 8 18 35 47 59 65 25 19 49 47 54 64 13 42 36 65
63 65 35 0 106 43 129 77 11 17 36 41 55 54 55 38 110 90 110 105 0 8 15 21
33 30 36 18 74 85 83 149 4 28 16 48 38 67 17 15 25 28 19 28 -7 0 -13 9 -13
19 0 13 14 25 47 38 96 38 148 68 160 94 7 15 28 32 45 39 47 19 78 50 78 77
0 15 9 27 24 34 13 6 29 21 36 34 6 12 27 29 46 38 24 12 39 30 54 66 12 27
41 68 66 90 28 27 47 56 54 82 8 28 16 40 28 38 32 -3 41 1 47 22 4 12 37 52
74 89 68 68 93 80 167 80 18 0 57 9 86 19 51 19 106 27 248 36 160 10 203 22
295 85 22 15 53 35 68 44 36 22 62 79 47 105 -15 30 -92 91 -120 97 -14 3 -45
13 -70 22 -25 9 -49 17 -55 18 -59 3 -100 57 -92 120 3 28 12 51 23 59 18 14
18 14 -3 15 -12 0 -23 5 -25 11 -3 9 -10 8 -24 -1 -14 -9 -31 -10 -50 -5 -54
15 -104 -7 -104 -47 0 -12 -7 -18 -21 -18 -12 0 -39 -19 -63 -46 -36 -39 -49
-46 -85 -48 -33 -2 -47 -8 -65 -30 -29 -37 -135 -60 -196 -42 -40 11 -94 -30
-97 -73 -2 -21 3 -41 13 -53 21 -22 20 -127 0 -206 -8 -28 -10 -52 -5 -52 23
0 6 -29 -26 -44 -23 -11 -35 -24 -35 -37 0 -12 -9 -34 -21 -50 -11 -16 -17
-33 -14 -39 3 -5 2 -10 -3 -10 -6 0 -12 6 -15 14 -7 19 -71 6 -75 -15 -1 -8 9
-21 23 -29 14 -8 24 -21 23 -29 -3 -13 -18 -16 -86 -14 -115 3 -122 -4 -127
-142 -1 -23 -7 -30 -31 -37 -16 -4 -40 -21 -52 -37 -15 -20 -34 -32 -59 -37
-51 -9 -73 -30 -73 -70 0 -26 -7 -36 -35 -54 -19 -12 -35 -27 -35 -33 0 -7
-23 -28 -51 -47 -103 -70 -112 -82 -114 -136 -1 -59 -40 -123 -91 -150 -19
-10 -34 -22 -34 -26 0 -5 -9 -8 -20 -8 -30 0 -70 -29 -70 -51 0 -11 -8 -22
-17 -26 -10 -3 -29 -19 -43 -35 -14 -16 -44 -34 -70 -41 -33 -9 -49 -20 -60
-42 -9 -17 -24 -42 -34 -57 -10 -15 -15 -31 -12 -37 13 -21 -16 -59 -55 -70
-40 -12 -44 -19 -40 -79 3 -40 -19 -51 -54 -28 -30 20 -54 10 -75 -29 -8 -15
-32 -36 -53 -46 -41 -22 -58 -51 -50 -90 4 -22 -2 -28 -43 -49 -30 -16 -51
-35 -60 -55 -20 -48 -105 -128 -182 -170 -33 -18 -46 -36 -82 -115 -4 -8 -16
-20 -27 -25 -14 -7 -19 -18 -17 -40 3 -27 3 -28 -6 -7 -9 22 -30 31 -30 12 0
-6 -8 -14 -17 -17 -33 -13 -72 -55 -89 -97 -15 -36 -24 -44 -63 -56 -35 -12
-50 -23 -61 -48 -9 -17 -32 -43 -53 -57 -20 -14 -39 -36 -43 -49 -3 -13 -20
-30 -39 -39 -23 -11 -40 -29 -50 -54 -9 -21 -40 -61 -70 -89 -47 -44 -55 -56
-55 -87 0 -32 -4 -37 -27 -43 -62 -13 -64 -15 -61 -42 2 -19 10 -28 26 -30 26
-4 29 -29 7 -58 -15 -19 -15 -19 -30 0 -8 11 -15 26 -15 33 0 20 -14 16 -44
-12 -16 -15 -25 -32 -22 -40 8 -21 -9 -27 -82 -29 -44 -1 -67 -5 -70 -14 -2
-8 -17 -26 -32 -42 -26 -27 -27 -31 -17 -74 9 -40 8 -49 -8 -66 -22 -24 -44
-26 -60 -4 -10 15 -13 15 -28 -1 -14 -13 -15 -21 -6 -38 10 -17 8 -23 -12 -39
-13 -10 -30 -23 -36 -28 -7 -6 -33 -19 -57 -30 -28 -12 -51 -30 -60 -48 -19
-36 -79 -90 -109 -97 -31 -8 -106 27 -143 67 -17 18 -43 41 -57 51 -15 9 -35
37 -45 60 -11 24 -38 58 -61 76 -33 26 -41 39 -41 66 0 22 -12 47 -38 81 -41
54 -55 79 -75 140 -15 46 -11 61 29 104 65 70 104 118 104 128 0 6 10 12 23
14 16 2 21 9 20 25 -3 25 13 40 47 45 16 2 31 14 40 34 9 17 26 43 38 59 12
15 22 33 22 39 0 6 14 23 30 38 20 17 30 36 30 55 0 15 5 35 10 43 8 13 10 12
10 -2 0 -22 13 -23 30 -3 7 8 16 12 21 9 5 -3 23 6 39 20 17 13 48 35 70 47
22 13 40 26 40 30 0 4 11 10 25 13 19 5 25 13 25 35 0 17 14 49 35 77 19 27
48 74 64 105 26 49 37 59 85 80 31 13 56 29 56 34 0 6 14 18 30 27 24 14 30
24 30 52 0 42 21 57 75 53 35 -2 38 0 39 25 2 36 33 68 67 68 30 0 59 23 59
46 0 7 19 33 43 57 37 38 47 43 80 41 41 -3 83 26 73 51 -5 14 12 32 47 50 19
9 22 18 21 83 -1 77 2 81 49 63 21 -8 31 -4 70 32 38 35 44 45 36 60 -19 33
-1 61 72 112 71 50 119 93 119 107 0 5 6 8 13 8 8 0 23 10 35 23 26 28 29 86
7 121 -15 23 -15 23 26 29 23 3 45 10 48 15 10 15 48 32 72 32 12 0 38 16 57
36 30 31 36 44 37 87 2 43 6 54 30 71 15 12 45 38 66 59 21 20 46 37 56 37 10
0 25 5 33 10 13 8 13 13 2 31 -14 22 -8 37 38 89 13 15 20 33 17 47 -3 15 2
24 14 28 28 9 89 83 89 108 0 12 12 49 25 82 14 33 25 68 25 78 0 28 19 57 38
58 9 0 46 14 82 32 47 23 69 41 81 64 26 52 39 64 58 54 17 -10 81 11 81 27 0
4 39 48 86 98 47 49 92 101 100 115 7 15 34 39 59 53 30 18 45 34 45 47 0 11
11 36 25 56 13 20 22 40 19 44 -3 5 15 22 38 39 51 37 98 103 99 139 1 57 7
92 19 106 8 9 9 28 5 53 -6 37 -4 41 29 61 28 18 48 21 106 20 86 -2 99 7 82
55 -15 41 -8 62 27 80 22 12 30 12 51 0 29 -16 60 -18 60 -4 0 5 16 25 36 44
26 25 37 46 41 76 4 29 13 46 30 57 13 9 32 32 41 52 10 20 26 37 37 39 28 5
114 100 123 137 6 20 15 30 29 31 55 3 63 49 23 129 -16 33 -30 68 -30 78 0
26 -19 21 -33 -10 -9 -21 -9 -27 1 -31 6 -2 12 -7 12 -12 0 -12 -39 -20 -46
-9 -11 19 -33 8 -36 -18 -2 -21 -15 -35 -54 -58 -131 -78 -136 -83 -109 -105
23 -19 18 -29 -20 -36 -20 -3 -37 -13 -40 -24 -3 -10 -19 -33 -35 -52 -16 -18
-30 -37 -30 -43 0 -5 -29 -36 -64 -67 -50 -45 -65 -65 -71 -95 -9 -52 -18 -60
-81 -73 -63 -13 -144 -78 -144 -114 0 -33 -26 -63 -59 -69 -22 -5 -34 -15 -44
-39 -8 -18 -24 -42 -36 -52 -11 -11 -21 -27 -21 -37 0 -10 -13 -28 -30 -41
-16 -12 -33 -31 -36 -42 -4 -12 -15 -32 -25 -45 -11 -13 -19 -32 -19 -42 0
-11 -12 -21 -34 -29 -52 -17 -84 -53 -78 -89 4 -32 -8 -42 -71 -56 -20 -4 -35
-20 -59 -61 -24 -44 -40 -60 -74 -74 -23 -10 -46 -25 -51 -33 -4 -8 -22 -21
-39 -30 -28 -15 -64 -68 -64 -96 0 -6 -12 -14 -27 -17 -34 -8 -74 -47 -98 -94
-9 -19 -39 -57 -66 -85 -26 -27 -57 -67 -67 -88 -11 -23 -34 -47 -57 -60 -21
-12 -54 -44 -72 -71 -19 -28 -47 -58 -63 -67 -16 -10 -30 -28 -32 -41 -2 -12
-13 -28 -25 -34 -54 -26 -119 -119 -108 -153 6 -20 -58 -91 -82 -91 -7 0 -30
-15 -50 -34 -21 -18 -51 -36 -66 -40 -18 -4 -31 -16 -37 -34 -6 -15 -17 -38
-24 -52 -19 -33 -115 -131 -157 -160 -43 -30 -78 -70 -79 -91 0 -21 -38 -69
-54 -69 -33 0 -106 -131 -115 -205 -5 -43 -10 -52 -37 -65 -17 -8 -43 -29 -58
-46 -14 -17 -39 -37 -54 -43 -16 -7 -39 -25 -51 -42 -12 -16 -27 -29 -34 -29
-7 0 -29 -17 -50 -38 -27 -28 -35 -43 -31 -60 4 -12 2 -22 -3 -22 -23 0 -125
-79 -154 -120 -18 -25 -42 -51 -53 -59 -12 -8 -39 -33 -62 -55 -67 -67 -145
-130 -174 -143 -15 -7 -33 -26 -40 -43 -7 -17 -21 -35 -31 -41 -10 -5 -26 -24
-35 -42 -10 -18 -26 -38 -37 -46 -11 -8 -29 -25 -41 -38 -12 -14 -35 -31 -53
-38 -19 -8 -38 -27 -48 -49 -9 -19 -40 -56 -68 -81 -103 -92 -117 -106 -136
-143 -11 -20 -33 -52 -50 -70 -17 -18 -31 -37 -31 -41 0 -5 -12 -17 -26 -27
-14 -10 -38 -29 -52 -41 -46 -39 -63 -31 -174 80 -100 99 -173 154 -250 189
-25 11 -39 25 -44 43 -3 14 -19 32 -35 41 -22 11 -29 22 -29 44 0 20 -8 35
-30 50 -16 12 -30 28 -30 37 0 9 -15 37 -33 62 -31 43 -34 52 -35 128 -1 75 1
84 23 101 13 10 40 50 61 88 47 89 52 94 83 94 35 0 47 10 55 45 9 36 81 103
119 112 29 6 79 62 91 101 4 12 13 22 19 22 7 0 24 11 38 24 14 13 46 34 70
46 72 37 149 110 149 140 0 15 9 35 20 45 11 10 20 26 20 36 0 10 9 24 19 31
11 8 21 27 23 43 1 17 8 29 14 28 6 -1 35 20 65 48 30 27 69 54 88 59 35 10
71 36 71 53 0 6 7 19 17 29 12 13 16 34 14 77 -2 64 10 81 59 81 12 0 36 11
54 25 18 14 37 25 42 25 5 0 44 34 88 75 72 68 78 77 73 104 -4 17 -2 33 3 36
18 11 41 79 35 102 -4 19 0 24 22 28 62 13 131 36 141 48 6 6 12 26 14 42 3
27 8 31 43 36 50 8 134 49 165 82 12 13 28 38 34 56 7 20 28 43 61 64 52 34
60 59 28 82 -12 9 -7 20 32 68 26 31 54 57 61 57 8 0 36 21 64 47 36 34 50 54
50 74 0 34 27 99 43 104 7 2 25 6 40 9 15 4 30 14 33 24 24 71 53 106 111 136
39 20 44 27 58 91 8 35 18 53 33 60 13 5 22 19 22 31 0 11 18 40 40 63 22 23
58 66 80 96 22 30 55 62 73 71 17 9 43 25 56 35 13 11 38 19 55 19 42 0 60 13
53 39 -4 17 3 27 34 48 40 26 47 37 29 48 -25 16 -8 27 31 21 39 -6 43 -4 82
37 23 25 50 47 59 50 10 4 22 25 29 50 7 31 18 48 35 55 13 6 26 23 30 36 3
14 21 35 40 47 38 23 43 37 17 46 -10 3 -30 17 -45 31 -26 24 -37 25 -94 7
-15 -5 -32 3 -64 30 -39 32 -45 34 -64 22 -11 -8 -23 -25 -24 -37 -2 -13 -10
-33 -18 -45 -13 -19 -13 -24 1 -35 33 -27 7 -113 -45 -150 l-33 -24 -23 27
c-19 22 -27 25 -47 18 -13 -5 -44 -9 -69 -9 -30 1 -59 -7 -88 -23 -46 -26 -48
-27 -80 -108 -22 -54 -61 -101 -113 -134 -15 -10 -32 -29 -38 -43 -10 -29 -92
-115 -126 -132 -27 -15 -83 -123 -83 -162 0 -22 -8 -33 -30 -47 -16 -9 -30
-23 -30 -29 0 -6 -13 -17 -29 -23 -49 -21 -88 -71 -94 -122 -8 -62 -33 -122
-56 -136 -14 -9 -26 -9 -49 -1 -38 15 -57 1 -66 -46 -6 -29 -36 -72 -36 -52 0
4 -9 2 -20 -4 -11 -6 -20 -21 -20 -35 0 -13 -5 -27 -10 -30 -6 -4 -21 -24 -35
-44 -13 -22 -31 -38 -42 -38 -79 1 -96 -4 -122 -34 -28 -34 -122 -128 -158
-159 -14 -11 -23 -31 -23 -46 0 -20 -17 -45 -61 -91 -45 -47 -59 -68 -54 -82
9 -31 -46 -85 -128 -123 -66 -32 -74 -39 -100 -91 -21 -41 -27 -64 -22 -85 8
-40 -11 -55 -56 -42 -47 14 -59 7 -98 -50 -19 -27 -44 -57 -57 -65 -13 -9 -24
-25 -24 -36 0 -14 -13 -25 -44 -39 -24 -10 -47 -23 -51 -29 -3 -6 -23 -20 -44
-31 -52 -26 -71 -71 -47 -110 20 -36 13 -73 -20 -99 -13 -10 -24 -24 -24 -29
0 -6 -11 -19 -25 -30 -19 -15 -35 -19 -64 -15 -34 5 -43 2 -67 -23 -14 -16
-37 -46 -50 -66 -20 -31 -30 -37 -64 -40 -44 -3 -46 -6 -105 -130 -19 -39 -61
-88 -112 -127 -17 -14 -37 -36 -45 -49 -7 -14 -36 -34 -64 -47 -29 -13 -57
-32 -63 -43 -6 -10 -24 -25 -41 -32 -16 -7 -30 -16 -30 -20 0 -4 -10 -12 -23
-17 -33 -15 -77 6 -117 55 -19 24 -55 51 -87 66 -29 15 -56 34 -60 44 -3 9
-16 28 -28 42 -12 14 -27 44 -33 66 -15 52 -56 94 -91 94 -37 0 -66 23 -58 45
5 10 -1 31 -13 50 -29 47 -20 71 61 157 62 64 115 103 171 124 23 8 29 29 18
60 -6 14 -10 38 -10 54 0 24 5 31 25 35 14 3 37 7 51 10 17 4 29 16 36 35 7
21 19 32 36 35 79 16 77 14 77 95 l0 75 43 3 c37 3 46 8 67 42 13 21 29 41 34
44 6 4 38 41 72 84 35 42 66 79 71 80 4 2 8 15 8 30 0 42 38 109 68 120 29 10
108 85 154 145 16 21 46 42 73 52 45 18 54 32 34 52 -16 16 -2 33 25 33 28 0
53 19 58 45 2 11 16 26 31 33 26 13 36 36 18 46 -4 3 -11 25 -15 48 -4 24 -9
53 -12 65 -4 15 0 25 16 33 29 16 48 -1 42 -39 -3 -23 1 -33 21 -46 33 -21 63
-7 72 34 6 27 49 74 101 111 12 8 24 25 28 38 4 12 22 30 39 39 42 21 98 63
118 88 9 11 31 34 48 52 17 18 33 45 37 60 3 15 12 45 20 66 10 27 11 49 5 77
-8 34 -6 41 15 61 19 18 26 20 39 9 8 -7 12 -16 10 -21 -3 -4 4 -13 16 -19 17
-10 25 -8 42 8 12 10 30 22 39 25 10 3 20 19 24 34 11 44 43 83 68 83 28 0 43
16 48 50 2 19 10 26 31 28 21 3 36 15 58 50 25 40 28 52 23 94 -7 55 5 78 42
78 19 0 24 5 24 24 0 17 12 34 38 52 20 15 47 39 59 52 l21 25 41 -44 c37 -41
41 -43 57 -28 24 24 38 109 21 126 -23 23 -83 28 -112 9 -33 -22 -58 -6 -49
30 5 19 0 27 -25 41 -35 20 -37 29 -16 78 18 45 55 60 110 46 33 -8 46 -7 75
8 32 17 35 22 32 56 -3 31 0 36 15 33 11 -2 19 -14 21 -31 5 -38 43 -55 140
-61 75 -4 82 -3 107 20 14 13 37 48 50 77 13 30 35 61 49 70 16 11 26 27 26
41 0 13 14 40 30 61 29 36 43 70 39 91 -5 30 8 49 72 101 57 46 79 57 108 58
33 0 36 2 36 30 0 17 9 44 21 60 12 17 24 48 27 70 6 38 4 44 -33 80 -41 41
-52 75 -24 75 8 0 20 -13 25 -30 6 -17 18 -30 27 -30 10 0 32 -9 50 -20 18
-11 39 -20 47 -20 8 0 19 -8 24 -17 6 -10 11 -13 11 -6 0 7 25 31 55 53 64 47
80 72 66 99 -12 21 9 85 42 133 10 16 15 33 12 38 -4 6 7 23 24 37 17 15 31
36 31 46 0 9 8 21 18 24 9 4 30 19 45 35 35 35 68 36 101 3 39 -39 86 -28 86
20 0 22 32 60 42 49 18 -17 143 63 154 99 3 12 15 32 26 43 11 12 25 41 32 65
11 38 17 44 44 47 29 3 69 32 43 32 -21 0 -11 22 24 53 35 33 65 100 65 151 0
42 44 96 78 96 37 0 105 25 114 42 4 7 9 25 13 41 5 25 9 27 51 27 36 0 51 6
73 28 15 15 44 40 64 55 24 18 37 36 37 51 0 13 9 35 20 49 24 31 26 56 3 72
-22 16 -8 35 27 35 24 0 34 8 56 45 14 25 29 45 34 45 4 0 24 17 44 37 32 33
36 43 36 89 0 63 -15 79 -69 71 -34 -4 -43 -1 -63 23 -27 31 -91 48 -114 29
-12 -9 -10 -16 11 -41 14 -16 25 -34 25 -40 0 -5 -16 -24 -35 -41 -19 -17 -35
-37 -35 -44 0 -18 -15 -16 -31 4 -8 9 -13 17 -11 17 2 1 0 9 -3 19 -17 41 -54
1 -40 -44 9 -27 -21 -87 -50 -101 -23 -10 -35 -44 -35 -97 0 -15 -7 -37 -16
-49 -15 -21 -15 -25 1 -42 12 -13 15 -27 11 -45 -5 -20 -13 -25 -37 -25 -23 0
-30 4 -28 18 1 9 -1 25 -6 35 -9 22 -67 23 -86 1 -7 -8 -25 -22 -40 -30 -25
-12 -32 -12 -63 3 -34 16 -37 16 -56 -2 -11 -10 -20 -29 -20 -42 0 -12 -5 -23
-10 -23 -16 0 -110 -103 -110 -120 0 -9 8 -23 18 -32 36 -34 67 -89 77 -135 3
-18 11 -35 16 -38 14 -9 11 -51 -6 -65 -24 -20 -89 -24 -103 -7 -32 38 -26
137 8 137 21 0 36 17 25 28 -4 4 -10 1 -12 -5 -3 -7 -13 -13 -23 -13 -10 0
-20 -7 -24 -15 -3 -8 -12 -15 -20 -15 -24 0 -36 -34 -29 -87 5 -48 4 -51 -33
-86 -36 -34 -43 -37 -79 -31 -22 3 -41 8 -43 9 -2 2 6 13 18 25 16 16 19 24
10 35 -6 8 -18 11 -26 8 -19 -7 -94 -102 -94 -120 0 -8 -11 -31 -25 -51 -14
-20 -25 -42 -25 -49 0 -7 -5 -13 -11 -13 -6 0 -9 -7 -5 -15 3 -8 1 -15 -3 -15
-5 0 -11 7 -15 15 -9 26 -42 17 -110 -29 -35 -25 -82 -54 -104 -65 -29 -15
-42 -29 -47 -51 -4 -19 -13 -30 -24 -30 -12 0 -26 -20 -44 -60 -15 -33 -27
-64 -27 -68 0 -5 -14 -19 -30 -32 l-30 -23 21 -23 c28 -30 17 -46 -27 -38 -37
7 -64 -7 -64 -35 0 -9 -17 -30 -37 -47 -33 -27 -36 -34 -24 -48 7 -9 17 -14
21 -11 13 8 27 -18 28 -52 1 -41 -7 -46 -37 -22 -16 13 -24 29 -23 49 1 34
-13 38 -58 15 -37 -19 -37 -31 -5 -65 l26 -27 -39 -35 c-22 -20 -56 -42 -76
-49 -20 -7 -39 -22 -42 -33 -3 -12 -28 -41 -56 -66 l-49 -45 -6 -85 c-2 -47
-9 -91 -15 -97 -15 -18 -43 -16 -78 6 -26 15 -39 17 -73 9 -23 -5 -49 -16 -58
-24 -8 -8 -23 -14 -32 -14 -9 0 -17 -3 -17 -7 0 -5 -13 -15 -29 -24 -16 -9
-35 -30 -43 -45 -10 -22 -21 -29 -43 -30 -17 0 -35 -1 -41 -2 -19 -3 -74 -99
-74 -130 0 -16 -6 -35 -14 -41 -7 -6 -25 -38 -40 -71 -15 -33 -31 -60 -35 -60
-4 0 -6 -14 -3 -30 6 -41 -12 -60 -51 -54 -28 4 -39 -2 -79 -41 -27 -26 -48
-50 -48 -53 0 -4 -16 -25 -36 -47 -44 -50 -64 -91 -62 -131 2 -48 -7 -54 -52
-37 -37 15 -43 15 -79 -1 -43 -20 -81 -64 -81 -96 0 -12 -13 -28 -32 -40 -55
-32 -59 -38 -52 -80 6 -37 5 -39 -29 -53 -38 -17 -117 -88 -117 -106 0 -7 -30
-26 -66 -42 -46 -21 -69 -38 -77 -57 -7 -15 -20 -39 -30 -52 -45 -63 -68 -104
-67 -119 1 -9 2 -34 3 -56 1 -22 6 -46 11 -53 12 -20 -9 -39 -27 -24 -7 6 -28
13 -47 16 -19 2 -44 7 -55 10 -28 8 -45 -5 -51 -40 -2 -16 -7 -35 -10 -43 -2
-8 3 -22 12 -32 9 -10 14 -25 11 -34 -9 -22 -37 -19 -37 4 0 11 -9 22 -20 26
-26 8 -60 -11 -60 -34 0 -22 -27 -78 -42 -87 -6 -4 -31 -8 -55 -10 -46 -3 -72
-23 -73 -57 0 -9 -29 -45 -65 -79 -36 -34 -65 -71 -65 -81 0 -10 -7 -29 -16
-42 -8 -13 -15 -34 -14 -47 4 -40 1 -45 -32 -59 -17 -7 -51 -30 -75 -51 -24
-21 -49 -38 -54 -38 -10 0 -65 -54 -112 -110 -17 -20 -26 -41 -24 -52 3 -10 1
-18 -4 -18 -5 0 -15 -14 -24 -30 -9 -17 -32 -41 -53 -54 -50 -32 -136 -115
-152 -146 -8 -14 -16 -38 -20 -55 -3 -17 -14 -31 -25 -35 -25 -6 -117 -105
-136 -145 -11 -24 -25 -32 -73 -44 l-59 -16 -36 42 c-43 48 -90 132 -102 183
-8 34 -3 60 27 140 7 19 16 69 19 110 4 46 14 88 26 108 17 29 18 41 9 96 -5
35 -7 78 -4 95 6 26 2 37 -22 62 l-28 29 22 30 c13 16 22 44 22 63 0 26 12 49
50 97 28 34 50 65 50 69 0 20 91 102 125 113 39 13 40 15 45 66 4 44 13 62 53
112 34 42 56 60 72 60 34 0 55 10 55 26 0 8 15 20 34 28 20 8 37 24 41 38 4
12 25 48 46 80 21 31 39 60 39 65 0 15 53 61 83 72 15 6 30 19 34 28 8 22 53
93 70 111 7 7 13 22 13 32 0 23 35 44 61 37 13 -4 35 8 66 34 25 22 58 43 74
46 16 3 31 14 34 23 3 10 22 28 41 39 30 18 34 25 32 55 -3 42 18 67 78 97 50
23 66 45 57 77 -9 36 51 158 87 177 14 7 43 30 65 50 22 20 50 41 63 46 27 11
29 35 2 44 -29 9 -26 56 4 84 24 22 24 25 9 48 -14 20 -14 27 -2 49 10 20 11
29 1 44 -7 11 -12 24 -12 29 0 13 121 12 138 -1 19 -16 64 20 74 59 7 27 15
32 69 47 33 10 68 27 77 38 9 11 34 41 55 65 20 24 37 51 37 59 0 8 17 31 38
53 20 21 50 54 66 74 16 20 55 55 87 79 46 33 59 48 59 68 0 18 15 40 46 70
25 25 57 68 69 96 19 41 32 54 63 66 27 10 44 26 59 54 11 21 28 55 38 74 10
19 24 39 32 43 21 13 15 33 -13 45 -21 10 -25 18 -22 50 3 40 14 43 80 27 43
-11 72 1 135 55 32 27 66 50 75 50 26 0 78 49 78 73 0 14 16 37 42 59 37 31
41 40 32 55 -16 25 -101 20 -150 -9 -29 -17 -39 -19 -61 -9 -22 10 -24 16 -18
47 11 61 -31 82 -95 49 -35 -18 -38 -35 -11 -59 31 -28 42 -70 25 -95 -29 -40
-81 -16 -69 32 10 37 -24 46 -50 13 -12 -14 -30 -26 -42 -26 -11 0 -31 -8 -44
-18 -13 -11 -36 -22 -51 -26 -17 -4 -37 -21 -53 -45 -29 -48 -109 -131 -124
-131 -6 0 -11 -9 -11 -19 0 -11 -13 -32 -30 -48 -21 -19 -30 -37 -30 -59 0
-33 -13 -44 -55 -44 -29 0 -41 -16 -25 -35 18 -22 5 -42 -37 -56 -40 -13 -153
-118 -153 -143 0 -7 -9 -21 -20 -31 -11 -10 -20 -29 -20 -42 0 -13 -17 -42
-39 -66 -21 -23 -45 -56 -54 -73 -9 -17 -54 -59 -100 -93 -85 -63 -177 -158
-177 -184 0 -7 -20 -34 -45 -59 -33 -34 -45 -54 -45 -76 0 -29 -24 -63 -67
-93 -27 -19 -193 -208 -193 -220 0 -5 -24 -24 -53 -43 -70 -45 -75 -52 -83
-122 -5 -40 -13 -63 -26 -72 -10 -7 -18 -20 -18 -29 0 -20 -29 -42 -56 -43
-12 0 -45 -16 -73 -35 -28 -19 -53 -35 -57 -35 -8 0 -104 -97 -104 -105 0 -3
-11 -23 -25 -43 -14 -21 -25 -51 -25 -70 0 -39 -24 -101 -42 -106 -7 -3 -25
-7 -40 -10 -23 -5 -28 -12 -28 -36 0 -19 -7 -33 -21 -40 -31 -17 -59 -43 -59
-56 0 -18 -32 -41 -72 -52 -20 -6 -47 -20 -60 -32 -13 -12 -40 -30 -61 -40
-36 -16 -137 -123 -137 -144 0 -26 -47 -76 -77 -82 -18 -3 -33 -12 -33 -19 0
-8 -9 -16 -20 -20 -18 -6 -32 0 -115 50 -22 14 -47 25 -56 25 -9 0 -30 16 -48
35 -19 21 -41 35 -55 35 -13 0 -38 10 -57 23 l-34 23 -7 164 c-3 91 -11 203
-17 250 -6 47 -11 133 -11 192 0 59 -4 109 -9 112 -5 3 -12 34 -16 68 -8 65
-8 119 -5 388 1 85 -1 175 -4 200 -5 39 -16 248 -16 320 -1 111 1 156 10 243
8 69 8 113 1 146 -28 125 -34 174 -32 271 4 194 7 245 20 271 11 22 10 31 -3
56 -11 23 -13 39 -6 62 5 17 7 47 4 66 -2 20 3 58 12 85 14 42 14 60 5 115
-10 55 -9 68 4 89 12 18 13 29 5 50 -5 15 -10 41 -10 58 0 18 -5 46 -11 63
-10 26 -8 37 10 73 18 36 20 48 11 86 -10 45 -11 117 -10 531 1 159 -3 242
-11 268 -9 28 -10 43 -2 56 7 11 8 50 4 111 -4 52 -5 104 -1 114 4 10 2 42 -4
70 -5 28 -10 77 -10 109 0 51 4 61 32 90 31 31 32 38 30 96 -2 56 0 65 22 82
14 10 40 21 58 25 35 7 64 38 55 60 -3 8 8 18 29 27 55 23 76 67 32 67 -22 0
-12 23 17 37 15 8 27 9 33 3 12 -12 69 -13 82 -1 5 5 26 14 46 20 29 10 38 18
44 44 3 18 20 49 37 70 25 32 28 42 19 62 -9 18 -7 26 7 39 10 9 25 16 33 16
17 0 41 24 44 44 1 6 16 32 33 56 18 25 43 62 56 82 30 44 52 58 98 58 33 0
67 24 67 48 0 6 18 23 40 39 40 28 49 50 29 70 -6 6 -8 21 -4 33 6 19 12 21
44 16 33 -5 39 -2 63 28 24 30 25 35 13 60 -8 14 -10 26 -6 26 5 0 8 8 7 17 0
9 10 22 22 29 37 18 45 30 49 70 2 20 5 41 6 47 1 6 -11 15 -28 20 -16 5 -43
15 -58 23 -32 15 -81 17 -113 4z m4651 -2806 c30 -20 35 -64 7 -64 -26 0 -42
20 -42 52 0 33 2 33 35 12z m-475 -354 c17 -17 18 -24 9 -41 -8 -16 -8 -27 2
-46 11 -21 10 -26 -9 -45 l-21 -22 -10 26 c-5 14 -7 35 -4 46 2 11 -2 33 -10
48 -25 51 3 74 43 34z m110 -30 c0 -5 -7 -7 -15 -4 -8 4 -15 8 -15 10 0 2 7 4
15 4 8 0 15 -4 15 -10z m-533 -416 c-3 -3 -12 -4 -19 -1 -8 3 -5 6 6 6 11 1
17 -2 13 -5z m-159 -1982 c2 -7 -3 -12 -10 -12 -15 0 -38 19 -38 32 0 11 43
-7 48 -20z m-4530 -930 c185 -111 239 -163 255 -249 4 -18 -5 -148 -19 -290
-13 -142 -27 -343 -31 -448 -7 -219 -13 -245 -72 -274 -91 -47 -231 -34 -415
40 -188 75 -249 122 -437 342 -133 154 -152 185 -152 242 0 106 145 278 363
428 69 48 161 116 205 152 147 119 186 127 303 57z m4221 -5336 c38 -20 53
-59 59 -153 4 -78 3 -83 -23 -108 -24 -25 -32 -27 -80 -23 -65 5 -194 66 -225
105 -31 39 -26 76 15 112 20 17 37 31 38 31 1 0 34 11 72 25 81 29 106 30 144
11z"/>
<path d="M12397 15785 c-19 -12 -54 -26 -78 -30 -56 -9 -149 -68 -149 -95 0
-11 9 -24 20 -30 13 -7 20 -21 20 -40 0 -20 5 -30 15 -30 17 0 39 -36 30 -50
-13 -21 -36 -9 -52 28 -10 20 -18 38 -19 40 -3 6 -98 -29 -121 -44 -12 -8 -40
-14 -61 -14 -34 0 -41 -4 -52 -30 -7 -17 -32 -42 -61 -59 -38 -24 -50 -38 -59
-69 -11 -44 -27 -61 -61 -67 -12 -3 -26 -8 -31 -13 -10 -10 0 -42 13 -42 17 0
9 -29 -13 -49 -15 -14 -22 -35 -24 -68 -1 -27 -3 -52 -3 -57 -1 -9 -60 -3 -98
9 -19 6 -26 1 -44 -29 -11 -20 -26 -36 -31 -36 -6 0 -34 -12 -63 -26 -45 -23
-56 -35 -77 -83 -14 -31 -31 -73 -37 -93 -7 -21 -27 -48 -47 -63 -18 -14 -34
-32 -34 -40 0 -8 -15 -25 -33 -37 -19 -13 -57 -51 -85 -85 -28 -34 -60 -67
-70 -75 -25 -18 -82 -103 -82 -123 0 -9 -9 -36 -20 -61 -16 -34 -30 -48 -59
-60 -29 -11 -45 -28 -66 -65 -15 -28 -33 -53 -40 -55 -7 -3 -16 -17 -20 -31
-3 -15 -19 -41 -34 -60 -34 -41 -151 -113 -185 -113 -15 0 -26 -3 -26 -6 0
-16 23 -44 36 -44 24 0 7 -71 -24 -96 -22 -18 -24 -26 -19 -60 7 -43 41 -79
66 -68 69 29 72 29 102 11 47 -26 68 -22 85 18 7 19 14 49 14 67 1 58 43 91
104 81 25 -4 42 -1 54 10 9 8 24 17 33 18 17 4 145 141 192 205 15 20 27 49
27 64 0 30 16 50 42 50 20 0 58 54 58 84 0 21 32 63 111 144 30 31 58 65 62
75 3 9 12 17 18 17 7 0 27 11 45 25 36 27 58 100 34 115 -16 10 -4 30 19 30
10 0 35 15 57 34 36 31 38 35 26 60 -10 22 -9 28 2 32 8 3 23 1 35 -5 11 -6
27 -11 35 -11 18 0 46 49 46 79 0 12 12 28 28 38 15 9 41 31 57 48 17 18 35
34 42 36 6 2 16 38 22 79 9 67 8 77 -10 106 -28 46 -10 56 103 58 86 1 96 3
131 30 29 23 35 31 26 42 -6 8 -19 14 -29 14 -24 0 -31 10 -19 31 12 24 33 24
67 0 27 -20 42 -24 75 -22 14 1 17 6 11 24 -3 12 -11 24 -15 25 -11 4 -1 22
12 22 5 0 9 -7 9 -15 0 -16 18 -20 35 -7 6 4 11 18 12 32 1 32 30 110 49 131
8 9 14 29 12 44 -2 20 4 33 24 48 l28 21 30 -22 c36 -27 52 -28 68 -2 9 15 10
26 2 40 -6 11 -9 32 -8 47 3 30 -31 56 -107 78 -41 13 -46 12 -78 -10z m-577
-535 c0 -5 -9 -10 -20 -10 -11 0 -20 5 -20 10 0 6 9 10 20 10 11 0 20 -4 20
-10z"/>
<path d="M13515 15430 c-8 -77 -1 -95 39 -102 43 -8 55 6 44 54 -5 24 -10 52
-11 64 -3 28 -25 54 -47 54 -15 0 -19 -12 -25 -70z"/>
<path d="M13250 15323 c-16 -27 -30 -58 -30 -70 0 -20 5 -23 38 -23 48 0 65
14 82 68 12 39 12 44 -6 57 -33 25 -53 17 -84 -32z"/>
<path d="M13515 15240 c-18 -8 -17 -9 8 -9 16 -1 26 3 22 9 -3 6 -7 10 -8 9
-1 0 -11 -4 -22 -9z"/>
<path d="M13079 15217 c-13 -13 -31 -32 -41 -43 -24 -28 -76 -70 -130 -104
-42 -26 -48 -34 -48 -64 0 -35 -22 -58 -45 -49 -14 4 -55 -34 -55 -51 0 -14
41 -54 83 -79 15 -10 27 -26 27 -38 0 -30 28 -34 60 -10 16 11 35 21 42 21 20
0 78 38 78 51 0 6 18 31 40 56 l40 45 -4 89 c-2 49 0 91 5 95 13 8 11 78 -3
92 -17 17 -22 15 -49 -11z"/>
<path d="M14327 15011 c-20 -16 -55 -31 -76 -35 -28 -4 -49 -17 -79 -50 l-40
-44 24 -51 c25 -50 47 -65 57 -36 4 8 28 25 55 39 40 20 55 23 87 16 24 -6 44
-5 55 2 23 15 40 72 40 137 l0 51 -42 0 c-31 0 -53 -8 -81 -29z"/>
<path d="M12760 14760 c-8 -5 -32 -10 -52 -10 -24 0 -46 -8 -67 -26 -21 -17
-49 -28 -86 -33 -30 -4 -63 -15 -72 -23 -10 -9 -33 -23 -50 -32 -28 -14 -33
-22 -33 -52 0 -28 -30 -97 -57 -133 -1 -2 -8 1 -16 7 -23 19 -40 -2 -32 -39 4
-19 11 -38 15 -44 9 -13 20 -55 14 -55 -3 0 -19 7 -35 16 -37 19 -55 13 -71
-21 -9 -21 -17 -25 -36 -20 -16 4 -31 0 -44 -11 -19 -18 -58 -97 -58 -119 0
-7 -6 -18 -14 -25 -8 -6 -12 -18 -9 -26 9 -24 -25 -27 -53 -5 -33 26 -45 20
-87 -46 -18 -28 -47 -63 -65 -78 -24 -20 -33 -35 -31 -54 5 -41 -15 -63 -93
-106 -54 -30 -74 -47 -78 -65 -7 -35 -21 -54 -53 -75 -15 -10 -35 -31 -43 -47
-9 -16 -31 -36 -49 -44 -38 -15 -121 -94 -145 -135 -35 -62 -71 -108 -100
-129 -32 -22 -55 -67 -64 -120 -6 -39 -33 -81 -55 -87 -10 -2 -24 -23 -32 -46
-13 -34 -25 -47 -65 -67 -31 -16 -54 -36 -63 -55 -19 -43 -46 -70 -126 -130
-48 -35 -71 -59 -72 -74 -2 -30 -49 -90 -82 -104 -38 -17 -125 -106 -146 -149
-9 -21 -21 -38 -26 -38 -4 0 -24 -13 -42 -30 -19 -16 -40 -30 -45 -30 -16 0
-29 -30 -28 -65 1 -28 3 -30 35 -27 45 3 59 -10 67 -66 4 -26 13 -56 20 -67 8
-11 14 -31 14 -46 0 -15 6 -29 14 -32 46 -18 179 69 190 124 4 20 16 35 38 47
42 22 108 92 108 115 0 19 55 57 83 57 14 0 16 4 8 18 -8 15 0 27 39 65 27 26
52 47 57 47 17 1 52 39 59 64 9 37 59 76 98 76 34 0 66 25 66 51 0 8 7 23 15
33 8 11 15 29 15 40 0 11 10 30 23 44 17 18 22 36 23 75 1 62 24 125 42 119 8
-2 27 11 43 29 27 31 28 38 23 92 l-6 57 31 0 c26 0 31 -4 31 -23 0 -44 50
-65 69 -28 6 10 25 24 43 31 50 20 78 50 78 82 0 42 26 86 52 90 16 2 24 12
28 31 3 17 17 35 38 47 34 21 42 47 17 56 -21 8 -19 34 3 34 41 0 143 43 160
67 9 13 28 36 40 51 39 45 55 91 41 124 -10 25 -9 32 11 53 30 32 49 32 43 2
-3 -17 2 -28 22 -41 33 -22 69 -17 74 9 2 11 19 37 37 58 19 20 34 45 34 55 0
10 10 24 23 31 34 19 79 82 121 172 17 35 37 61 52 68 19 8 24 16 19 32 -4 11
-1 26 5 34 7 8 9 26 6 40 -4 17 1 39 19 71 29 51 31 71 10 98 -22 29 -19 36
15 36 34 0 66 -13 133 -53 60 -36 117 -32 143 12 9 15 31 37 50 50 19 13 34
30 34 38 0 8 -15 30 -34 48 -20 19 -36 45 -38 62 -3 24 -8 28 -38 31 -20 2
-46 14 -60 27 -18 17 -29 22 -40 15z"/>
<path d="M14204 14589 c-16 -10 -43 -19 -61 -19 -24 0 -38 -7 -54 -30 -29 -38
-43 -43 -85 -25 -31 13 -39 12 -90 -7 -34 -13 -60 -30 -66 -43 -5 -12 -25 -30
-44 -40 -18 -10 -41 -29 -50 -42 -13 -21 -20 -24 -55 -18 -34 6 -40 4 -49 -17
-5 -12 -15 -31 -22 -40 -10 -14 -8 -22 15 -46 15 -16 24 -31 21 -35 -3 -3 4
-22 16 -41 12 -20 17 -36 12 -36 -6 0 -20 -16 -32 -35 -23 -37 -63 -48 -73
-21 -7 18 -115 76 -131 70 -7 -3 -18 -20 -24 -38 -9 -24 -24 -39 -50 -50 -60
-27 -65 -31 -83 -62 -9 -17 -27 -42 -41 -56 -25 -28 -34 -44 -68 -120 -19 -45
-23 -48 -59 -48 -36 0 -40 -3 -51 -36 -7 -19 -32 -56 -56 -81 -24 -24 -44 -48
-44 -51 0 -13 -76 -83 -121 -112 -25 -16 -52 -42 -59 -57 -8 -16 -24 -42 -36
-59 -16 -21 -24 -49 -26 -85 -3 -50 -5 -54 -28 -53 -14 1 -33 4 -42 8 -22 10
-136 -95 -145 -133 -3 -14 -13 -39 -22 -56 -9 -16 -18 -43 -21 -59 -4 -22 -12
-32 -34 -37 -53 -14 -156 -132 -156 -178 0 -30 -45 -81 -71 -81 -20 0 -39 -42
-32 -68 3 -13 -3 -27 -16 -38 -12 -10 -21 -28 -21 -40 0 -24 -29 -54 -52 -54
-21 0 -90 -56 -108 -88 -18 -33 -40 -51 -60 -52 -8 0 -20 -10 -25 -22 -6 -13
-34 -39 -63 -58 -42 -28 -58 -48 -84 -100 -23 -49 -56 -89 -133 -165 -57 -55
-109 -116 -117 -135 -8 -19 -27 -41 -42 -49 -14 -8 -37 -34 -51 -57 -15 -25
-40 -50 -62 -61 -20 -10 -41 -27 -47 -38 -6 -11 -26 -37 -43 -58 -21 -24 -33
-48 -33 -67 0 -20 -8 -34 -24 -45 -13 -9 -27 -30 -30 -48 -8 -37 -165 -193
-206 -203 -32 -8 -60 -33 -60 -52 0 -9 -8 -24 -17 -34 -9 -10 -19 -38 -22 -60
-6 -44 -24 -60 -81 -73 -14 -3 -45 -23 -69 -45 -36 -33 -45 -49 -55 -97 -8
-43 -17 -60 -33 -69 -26 -12 -48 -39 -89 -109 -48 -83 -57 -107 -60 -169 -2
-33 -11 -70 -19 -83 -10 -15 -16 -45 -15 -81 0 -31 -1 -68 -2 -82 -3 -22 1
-25 27 -23 17 1 45 5 63 9 19 4 38 2 46 -5 21 -17 45 -3 69 43 50 96 54 136
16 156 -53 29 12 81 105 84 52 1 70 7 99 29 57 43 67 57 62 80 -4 17 4 29 35
51 22 17 40 35 40 42 0 13 67 76 99 94 12 6 21 15 21 20 0 17 63 69 107 87 27
12 46 28 55 48 9 21 22 31 45 36 40 8 60 23 69 52 7 25 53 77 67 77 18 0 36
35 37 68 0 18 9 50 20 72 11 22 20 46 20 53 0 8 7 20 15 27 8 7 15 25 15 40 0
20 9 35 31 52 31 23 106 95 138 133 36 42 52 77 49 108 -3 31 -2 32 34 29 34
-2 40 1 62 36 13 21 46 55 73 75 113 86 128 99 140 127 6 17 16 30 22 30 5 0
39 25 75 56 61 52 126 144 126 178 0 8 16 33 35 56 19 23 35 51 35 62 0 31 54
72 97 75 24 1 42 9 48 19 6 10 22 29 37 43 15 15 38 46 51 71 13 26 41 57 65
73 23 16 42 34 42 42 0 7 16 27 35 44 19 17 35 37 35 44 0 8 9 26 20 40 11 14
20 39 20 56 0 17 7 49 16 71 9 22 14 46 11 54 -9 23 14 36 63 36 26 0 49 3 53
6 3 4 -5 21 -18 39 -14 17 -25 37 -25 44 0 14 81 91 96 91 6 0 16 11 22 25 6
13 29 33 52 45 23 12 40 28 40 38 0 9 7 26 15 36 8 11 15 27 15 37 0 11 11 19
36 23 46 9 76 40 72 74 -2 19 3 29 18 37 38 19 52 35 47 55 -3 11 2 27 11 35
9 9 16 23 16 31 0 15 23 60 54 106 10 15 15 32 11 38 -3 6 -1 35 5 65 13 64
38 85 64 56 10 -11 13 -21 9 -24 -9 -6 -5 -77 5 -77 2 0 18 14 34 30 33 35 68
40 68 10 0 -11 5 -20 10 -20 6 0 10 7 10 15 0 8 6 15 14 15 18 0 66 56 66 77
0 8 8 28 17 44 17 29 17 30 -10 55 -15 13 -27 26 -27 27 0 2 9 27 19 57 15 41
25 56 41 58 12 2 27 -1 33 -7 27 -27 159 2 182 39 19 30 15 64 -10 90 -26 27
-26 27 -7 50 19 23 20 23 45 7 35 -23 37 -22 37 17 0 40 26 55 58 35 40 -25
232 27 232 63 0 4 -10 16 -22 26 -11 9 -29 25 -39 34 -36 34 -54 38 -85 17z
m-1585 -1675 c25 -43 26 -52 2 -83 -41 -54 -100 29 -63 91 22 37 36 35 61 -8z
m-217 -160 c3 -3 4 -14 1 -25 -6 -20 -37 -26 -48 -9 -13 21 30 52 47 34z
m-1767 -2315 c10 -15 -1 -23 -20 -15 -9 3 -13 10 -10 16 8 13 22 13 30 -1z"/>
<path d="M14888 14073 c7 -3 16 -2 19 1 4 3 -2 6 -13 5 -11 0 -14 -3 -6 -6z"/>
<path d="M14550 13800 c-19 -11 -56 -26 -82 -35 -39 -14 -48 -21 -48 -40 0
-13 4 -26 10 -30 21 -13 -3 -34 -36 -33 -38 1 -48 -6 -58 -39 -5 -16 -1 -27
15 -40 68 -55 70 -69 14 -75 -29 -3 -30 -5 -35 -60 -4 -40 -12 -63 -28 -80
-12 -14 -22 -29 -22 -35 0 -34 82 -8 90 29 3 12 19 30 36 38 26 14 29 19 21
37 -7 17 -4 34 17 73 14 28 35 59 46 70 25 25 25 37 0 52 -27 17 -25 25 10 43
34 17 73 19 101 5 13 -8 25 -7 39 0 16 9 20 21 20 63 0 29 -5 58 -12 65 -17
17 -58 14 -98 -8z"/>
<path d="M14222 13474 c-35 -14 -44 -52 -17 -74 16 -13 35 -6 35 14 0 7 9 21
20 31 37 33 14 51 -38 29z"/>
<path d="M14041 13314 c-20 -15 -23 -23 -18 -59 6 -39 3 -46 -32 -84 -25 -28
-46 -41 -64 -41 -41 0 -57 -10 -72 -46 -8 -19 -24 -38 -37 -44 -31 -13 -58
-35 -58 -48 0 -6 -19 -26 -41 -45 -41 -34 -42 -35 -43 -103 -1 -66 -2 -69 -28
-76 -16 -5 -40 -11 -54 -15 -66 -19 -114 -133 -79 -186 15 -23 24 -27 69 -26
28 0 59 3 69 6 19 5 72 81 63 90 -3 4 9 17 26 30 23 16 45 23 78 23 67 0 110
32 110 83 0 31 29 38 50 12 14 -17 50 -20 50 -5 0 6 -9 27 -20 47 -22 41 -26
78 -10 88 6 3 10 22 10 40 0 29 4 36 27 41 21 6 31 2 50 -20 30 -35 58 -31 58
9 0 20 7 33 22 41 13 6 32 19 42 28 14 12 32 17 62 14 36 -2 45 1 54 18 6 12
17 29 25 39 12 14 11 22 -7 58 -12 23 -24 50 -27 60 -7 22 -50 39 -89 34 -32
-3 -51 -27 -23 -27 9 0 16 -7 16 -15 0 -8 -8 -15 -17 -15 -26 0 -94 26 -87 32
3 4 -4 11 -15 18 -13 6 -21 21 -21 35 0 29 -7 31 -39 9z"/>
<path d="M16565 12460 c-3 -5 -18 -10 -32 -10 -27 0 -88 -57 -99 -94 -4 -10
-22 -41 -41 -68 -25 -35 -42 -48 -59 -48 -14 0 -37 -12 -51 -26 -14 -14 -42
-34 -63 -45 -45 -24 -62 -43 -81 -89 -7 -19 -42 -63 -76 -98 -35 -34 -63 -68
-63 -76 0 -21 -30 -41 -56 -38 -14 2 -42 -10 -70 -29 -43 -29 -46 -34 -41 -66
6 -32 3 -36 -24 -46 -18 -7 -28 -18 -27 -27 2 -9 -9 -31 -25 -49 -15 -18 -27
-37 -27 -43 0 -6 -16 -8 -44 -4 l-44 7 -22 -46 c-15 -30 -20 -56 -17 -75 7
-34 -9 -51 -67 -65 -28 -7 -40 -15 -37 -25 2 -8 4 -40 5 -70 0 -70 -24 -120
-59 -120 -14 0 -34 -5 -45 -12 -16 -11 -23 -8 -48 15 -29 27 -66 35 -77 17 -4
-6 -24 -22 -46 -35 -21 -14 -46 -40 -55 -57 -9 -18 -32 -50 -51 -70 -28 -28
-34 -42 -29 -61 7 -28 -6 -42 -68 -72 -34 -17 -41 -25 -41 -50 0 -22 8 -35 35
-53 19 -13 38 -32 42 -43 11 -29 56 -44 93 -29 17 6 50 12 75 13 40 2 47 6 60
34 11 24 30 38 78 59 46 19 67 34 74 53 6 14 15 36 20 48 6 11 7 26 4 32 -5 7
6 11 32 11 47 0 69 25 74 86 3 38 4 39 41 39 25 0 41 6 47 16 5 9 35 29 65 45
31 15 69 42 83 58 15 17 40 39 55 49 23 15 27 23 22 46 -5 22 -1 30 20 41 14
7 25 19 25 26 0 7 16 20 35 29 28 14 63 55 83 97 2 4 -4 15 -13 24 -19 20 -15
35 13 50 12 6 30 18 40 27 10 10 24 17 30 17 6 0 28 18 48 40 21 22 44 40 51
40 8 0 39 24 69 53 30 29 80 66 111 83 58 30 86 60 83 91 -4 37 0 53 15 53 8
0 15 5 15 10 0 6 13 10 29 10 20 0 39 11 62 34 19 19 55 43 80 53 26 10 70 38
98 62 58 50 59 64 8 119 -37 39 -45 39 -72 7 -25 -32 -58 -39 -85 -17 -18 14
-20 22 -11 44 5 14 7 29 3 33 -7 7 -8 12 -10 63 -2 24 -6 32 -21 32 -11 0 -23
-4 -26 -10z"/>
<path d="M14828 11873 c7 -3 16 -2 19 1 4 3 -2 6 -13 5 -11 0 -14 -3 -6 -6z"/>
<path d="M17010 11170 c-14 -11 -31 -20 -37 -20 -7 0 -15 -11 -19 -25 -4 -16
-21 -33 -44 -45 -36 -19 -39 -23 -45 -77 -4 -32 -13 -78 -21 -102 -19 -59 -19
-58 15 -76 39 -20 74 -7 91 34 6 17 27 39 46 50 19 11 34 24 33 28 -6 37 21
60 63 54 17 -2 48 49 48 81 0 45 -56 118 -90 118 -8 0 -26 -9 -40 -20z"/>
<path d="M14897 10874 c-9 -10 2 -24 19 -24 8 0 14 7 14 15 0 15 -21 21 -33 9z"/>
<path d="M15124 10719 c-16 -17 -16 -22 -4 -29 22 -14 46 -12 61 6 11 14 10
18 -6 30 -25 18 -28 18 -51 -7z"/>
<path d="M13260 10680 c0 -5 5 -10 10 -10 6 0 10 5 10 10 0 6 -4 10 -10 10 -5
0 -10 -4 -10 -10z"/>
<path d="M17647 10022 c-15 -10 -30 -28 -34 -42 -3 -14 -12 -34 -20 -46 -7
-12 -11 -28 -8 -36 3 -8 -3 -26 -15 -40 -18 -23 -27 -26 -82 -26 -46 1 -70 6
-87 19 -30 24 -55 24 -72 0 -8 -11 -36 -44 -62 -75 l-49 -55 21 -22 c11 -12
18 -26 15 -31 -10 -16 38 -58 65 -58 40 0 103 47 99 73 -2 17 3 23 25 25 15 2
27 -1 27 -7 0 -17 25 -13 54 10 14 11 26 29 26 40 0 24 29 71 40 64 8 -5 51
42 54 60 3 21 25 43 50 49 38 9 62 98 30 110 -24 9 -46 6 -77 -12z"/>
<path d="M16187 9984 c-8 -8 1 -24 14 -24 5 0 9 7 9 15 0 15 -12 20 -23 9z"/>
<path d="M17111 9632 c-14 -26 4 -42 46 -42 37 0 66 35 42 51 -25 16 -78 10
-88 -9z"/>
<path d="M2822 9000 c-132 -5 -132 -5 -157 -35 -58 -68 -60 -75 -60 -165 l1
-86 42 -42 c30 -30 50 -42 72 -42 16 0 49 -6 72 -14 35 -11 122 -18 238 -18
56 0 204 25 248 42 29 11 65 20 81 20 45 0 79 16 161 77 41 31 76 57 77 58 1
0 9 17 18 37 15 36 14 37 -16 67 -16 17 -49 36 -72 42 -23 6 -66 22 -95 36
-42 20 -62 24 -100 19 -138 -17 -161 -17 -238 -2 -43 9 -92 15 -109 13 -16 -1
-90 -4 -163 -7z"/>
<path d="M9744 3297 c-51 -51 -56 -59 -50 -89 3 -18 11 -67 16 -108 6 -41 15
-83 21 -93 8 -14 6 -25 -6 -43 -16 -25 -15 -77 3 -111 5 -10 13 -69 17 -132 4
-63 12 -140 17 -170 5 -31 12 -76 15 -101 3 -25 12 -54 19 -65 8 -11 14 -32
14 -48 0 -18 11 -39 30 -59 28 -28 34 -30 78 -24 80 12 216 47 231 61 7 7 23
37 35 67 20 48 21 65 15 127 -10 92 -16 111 -46 139 -13 12 -21 27 -18 32 13
21 12 295 -1 339 -9 31 -10 49 -3 57 13 16 2 98 -19 139 -41 81 -77 108 -162
117 -36 4 -84 10 -108 14 -41 7 -44 5 -98 -49z"/>
<path d="M19974 15150 c-50 -10 -114 -30 -141 -44 -62 -31 -220 -76 -268 -76
-59 0 -124 -21 -144 -46 -21 -26 -132 -104 -149 -104 -6 0 -19 -10 -29 -23
-10 -12 -39 -39 -64 -60 -26 -20 -57 -57 -69 -81 l-23 -43 22 -59 c31 -80 34
-85 63 -107 19 -15 40 -19 80 -18 47 2 97 6 121 10 19 3 118 106 136 142 12
23 21 59 21 84 0 57 20 75 124 115 111 43 172 55 203 41 13 -6 31 -11 40 -11
9 0 32 -12 52 -27 20 -16 50 -35 66 -43 22 -11 30 -22 31 -43 1 -15 15 -47 33
-71 29 -42 31 -49 30 -128 -1 -45 -5 -105 -10 -133 -10 -55 -73 -190 -113
-244 -14 -19 -26 -43 -26 -53 0 -10 -14 -25 -32 -34 -41 -20 -88 -64 -88 -80
0 -19 -90 -119 -144 -160 -42 -32 -126 -140 -126 -162 0 -5 -13 -26 -30 -47
-16 -21 -30 -47 -30 -57 0 -20 -65 -144 -80 -153 -20 -12 -40 -71 -40 -115 0
-26 -7 -84 -15 -129 -9 -45 -13 -86 -10 -91 3 -5 -4 -29 -17 -52 -13 -25 -23
-64 -24 -93 -1 -27 -3 -59 -4 -70 -8 -70 -2 -84 62 -131 l62 -45 100 6 c56 4
116 11 135 17 29 9 151 18 231 17 118 -2 165 2 186 16 13 8 44 15 69 15 25 0
62 7 83 16 38 16 63 19 217 30 76 5 94 10 119 31 16 14 53 35 81 48 48 21 95
68 95 95 0 6 16 18 35 26 29 12 35 19 35 45 0 17 7 46 16 65 9 19 14 40 11 48
-3 7 -34 19 -69 26 -67 12 -142 3 -392 -51 -49 -10 -102 -19 -117 -19 -14 0
-43 -7 -62 -15 -20 -8 -51 -15 -68 -15 -17 0 -52 -7 -78 -15 -56 -18 -230 -63
-251 -66 -46 -5 -71 2 -78 22 -12 31 12 185 31 207 9 10 17 32 17 48 0 16 14
49 30 74 16 25 30 53 30 62 0 10 11 43 25 74 14 31 25 62 25 69 0 16 129 178
163 205 15 12 40 33 56 48 16 15 52 45 81 67 31 23 59 55 67 75 8 19 23 44 33
55 10 11 37 56 60 100 23 44 54 94 70 111 88 100 124 194 129 329 1 39 9 89
17 113 18 56 18 71 -5 125 -15 35 -33 54 -74 80 -30 20 -58 40 -61 45 -3 6
-19 13 -35 17 -36 8 -73 46 -76 79 -5 38 -13 46 -50 46 -33 0 -42 6 -68 43
-10 14 -112 48 -137 46 -3 0 -46 -9 -96 -19z"/>
<path d="M22105 14698 c-27 -5 -75 -16 -105 -25 -30 -8 -84 -18 -120 -23 -36
-4 -82 -15 -102 -24 -21 -9 -47 -16 -60 -16 -12 0 -38 -11 -58 -25 -20 -14
-55 -27 -79 -29 -39 -4 -121 -48 -121 -66 0 -18 -128 -155 -223 -238 -83 -74
-113 -107 -136 -153 -16 -32 -41 -69 -56 -81 -23 -20 -27 -33 -34 -108 -4 -47
-12 -94 -18 -105 -16 -29 -8 -178 11 -216 9 -18 16 -37 16 -44 0 -6 11 -22 24
-34 13 -12 31 -46 40 -75 10 -30 28 -69 42 -87 13 -18 24 -38 24 -44 0 -10 45
-58 150 -160 52 -50 104 -95 111 -95 4 0 29 -18 54 -40 25 -22 50 -40 55 -40
6 0 16 -16 24 -35 9 -21 29 -43 48 -53 18 -9 45 -29 59 -45 15 -15 42 -33 61
-39 18 -6 53 -24 78 -40 25 -15 56 -33 70 -39 40 -19 128 -23 171 -9 28 10 45
10 62 3 25 -11 57 3 57 26 0 6 6 11 13 11 8 0 24 11 36 24 12 13 39 26 59 30
43 6 112 59 112 85 0 9 14 30 31 47 17 16 40 45 50 64 11 19 34 58 50 85 16
28 39 69 50 93 11 23 33 52 49 63 15 12 36 36 46 54 16 29 16 38 5 73 -8 22
-11 44 -8 49 3 5 9 61 12 124 6 102 5 120 -10 143 -14 20 -15 30 -6 39 6 6 11
26 11 45 0 18 5 42 11 53 6 11 11 45 13 76 1 39 7 59 19 68 9 7 17 19 17 28 0
8 14 21 30 29 17 7 33 22 35 33 2 11 6 32 9 47 5 20 1 31 -16 43 -13 8 -23 25
-23 37 0 15 -14 30 -45 48 -30 18 -46 34 -48 50 -2 14 -10 33 -18 44 -8 11
-14 30 -14 41 0 46 -69 150 -139 209 -14 12 -41 38 -61 59 -20 20 -42 37 -48
37 -6 0 -26 9 -44 20 -36 22 -129 25 -223 8z m1 -388 c49 -29 94 -81 94 -109
0 -7 12 -31 28 -54 55 -83 59 -101 61 -266 1 -85 4 -158 7 -163 3 -4 0 -72 -6
-150 -6 -79 -14 -177 -17 -218 -5 -68 -8 -78 -47 -124 -98 -119 -108 -126
-172 -126 -43 0 -68 6 -94 22 -19 12 -53 31 -74 43 -25 13 -42 31 -47 47 -8
31 -85 105 -141 135 -47 26 -98 71 -98 89 0 12 -72 81 -106 100 -16 10 -18 15
-8 41 8 23 8 36 -1 53 -11 21 -11 79 -1 245 3 50 41 133 72 157 12 10 25 31
29 47 7 32 61 92 153 168 43 36 72 52 103 57 24 4 48 11 54 15 15 13 44 19
104 20 43 1 64 -5 107 -29z"/>
<path d="M24435 11860 c-16 -10 -76 -27 -133 -38 -88 -17 -109 -25 -147 -56
-54 -44 -69 -91 -60 -180 6 -59 12 -162 19 -352 4 -88 15 -163 38 -249 6 -22
10 -80 9 -130 -1 -61 5 -116 19 -170 11 -44 20 -87 20 -96 0 -18 -37 -33 -45
-19 -3 5 -22 14 -43 21 -21 7 -59 34 -87 63 -28 29 -65 58 -83 65 -21 9 -34
23 -38 40 -8 31 -32 61 -49 61 -7 0 -18 7 -25 15 -7 8 -21 15 -31 15 -32 0
-59 36 -59 78 0 46 -42 111 -98 153 -23 17 -51 47 -63 67 -11 20 -39 51 -62
67 -46 35 -54 46 -62 98 -6 37 -7 38 -40 31 -31 -6 -35 -3 -54 33 -11 22 -31
47 -44 56 -14 9 -25 22 -24 29 1 37 -5 47 -32 53 -17 3 -39 1 -52 -5 -16 -9
-31 -9 -64 0 -25 7 -60 9 -84 5 -51 -8 -222 -114 -238 -146 -31 -64 -56 -248
-41 -299 34 -118 42 -151 44 -190 7 -141 19 -215 40 -245 8 -11 14 -45 14 -83
0 -38 6 -75 16 -94 12 -24 13 -36 5 -54 -8 -19 -6 -28 15 -53 24 -28 24 -32
10 -59 -23 -44 -6 -330 21 -352 10 -8 26 -27 36 -42 42 -66 196 -105 237 -61
11 12 35 33 54 48 44 33 78 97 70 130 -5 19 2 34 26 61 25 29 30 42 25 63 -4
14 -10 28 -13 31 -4 3 -14 39 -22 80 -14 70 -14 78 3 114 18 37 18 42 3 74 -9
18 -14 36 -12 40 2 4 7 24 10 44 5 34 3 39 -24 53 -18 9 -30 23 -30 36 0 21
-17 51 -61 109 -45 58 -45 75 -4 116 20 19 44 34 53 32 9 -2 29 -28 44 -59 15
-31 38 -64 52 -72 22 -15 83 -126 100 -180 3 -10 24 -26 45 -34 26 -10 44 -25
51 -43 7 -16 34 -47 61 -70 27 -23 49 -48 49 -55 0 -8 11 -22 24 -31 16 -10
26 -27 28 -47 2 -24 13 -38 44 -59 23 -15 44 -38 48 -50 3 -13 25 -35 50 -50
24 -14 50 -39 58 -55 9 -18 23 -30 42 -33 22 -4 44 -24 85 -77 74 -95 160
-153 229 -153 15 0 43 11 62 25 23 17 47 25 75 25 46 0 123 44 153 87 9 14 29
40 45 58 15 18 27 38 27 44 0 7 9 31 21 54 36 74 57 141 59 187 5 123 0 195
-20 303 -11 65 -20 128 -19 140 1 12 -1 29 -4 37 -3 8 -8 35 -11 60 -3 25 -14
72 -25 104 -14 44 -17 65 -10 85 14 34 4 81 -25 124 -29 42 -42 93 -28 110 5
7 13 30 16 52 6 33 3 46 -15 68 -11 16 -21 38 -21 50 1 12 3 81 6 152 3 81 1
140 -6 157 -8 22 -7 35 7 64 16 34 16 37 -1 55 -18 20 -74 39 -109 38 -11 0
-33 -9 -50 -19z"/>
<path d="M22335 11449 c-16 -4 -57 -11 -89 -15 -54 -5 -64 -11 -115 -58 -31
-29 -68 -59 -82 -68 -14 -9 -36 -36 -49 -61 -23 -44 -23 -47 -7 -79 15 -31 27
-80 32 -140 1 -14 10 -37 19 -49 9 -13 16 -40 16 -61 0 -20 5 -49 11 -65 13
-31 31 -168 30 -223 0 -39 27 -148 42 -167 5 -7 11 -41 12 -75 2 -35 8 -76 13
-93 10 -29 29 -117 57 -262 8 -39 28 -104 45 -145 29 -68 34 -75 79 -96 27
-12 53 -22 59 -22 5 0 15 -7 22 -15 18 -21 40 -19 82 10 27 18 38 33 40 56 3
33 15 44 58 53 39 8 60 28 70 66 5 19 14 53 20 75 26 91 29 134 15 183 -8 26
-15 62 -15 80 0 18 -5 43 -11 55 -14 26 -21 227 -9 247 5 9 4 24 -5 40 -8 14
-21 41 -29 60 -8 19 -33 76 -56 125 -33 73 -42 104 -46 163 -3 52 -10 82 -24
102 -13 18 -21 50 -24 95 -4 50 -11 74 -26 90 -11 12 -23 40 -26 61 -9 59 -35
124 -55 134 -10 6 -19 10 -21 9 -2 -1 -16 -5 -33 -10z"/>
<path d="M21588 11335 c-2 -2 -27 -6 -56 -9 -49 -5 -102 -29 -102 -46 0 -5
-28 -22 -62 -39 -82 -41 -104 -59 -122 -101 -8 -19 -48 -71 -90 -114 -54 -57
-80 -93 -92 -128 -8 -26 -19 -50 -24 -53 -4 -3 -11 -28 -15 -56 -5 -38 -16
-61 -41 -89 -19 -21 -34 -46 -34 -56 0 -11 -9 -32 -20 -49 -11 -16 -20 -39
-20 -50 0 -11 -9 -36 -20 -55 -11 -19 -25 -47 -31 -61 -12 -31 -49 -53 -76
-45 -21 7 -173 155 -201 197 -9 14 -54 62 -99 108 -46 46 -83 87 -83 92 0 5
-18 20 -40 34 -42 27 -99 106 -100 140 -2 55 -39 128 -89 174 -28 26 -51 53
-51 60 0 8 -12 40 -26 72 -35 78 -55 83 -120 34 -122 -93 -256 -213 -273 -244
-7 -15 -23 -37 -36 -51 -12 -14 -27 -39 -34 -57 -12 -28 -10 -37 12 -80 15
-29 30 -82 37 -133 22 -158 26 -175 43 -200 9 -14 18 -46 19 -71 2 -25 12 -59
22 -74 13 -20 20 -48 20 -92 1 -35 6 -67 14 -75 6 -6 12 -34 12 -62 0 -38 6
-57 26 -84 24 -31 26 -37 15 -72 -18 -62 -14 -109 14 -146 14 -18 25 -45 25
-61 0 -16 11 -45 25 -65 14 -21 25 -51 25 -70 0 -19 7 -43 15 -55 14 -20 23
-22 83 -19 37 2 70 4 75 5 4 1 7 10 7 20 0 11 25 42 60 71 65 57 92 92 90 118
0 9 -3 55 -5 102 -2 47 -7 113 -10 148 -5 43 -3 67 5 77 19 23 59 18 83 -11
12 -15 33 -37 46 -50 13 -14 29 -34 35 -47 7 -12 23 -24 36 -25 14 -2 38 -16
53 -30 30 -29 142 -61 215 -62 48 0 78 13 136 59 21 17 50 31 63 31 13 0 47
15 76 33 41 26 60 48 86 96 41 77 87 131 111 131 21 0 22 -8 39 -190 5 -58 14
-125 21 -150 6 -25 14 -60 17 -77 4 -23 15 -39 38 -53 18 -11 38 -34 44 -50
16 -47 58 -80 101 -80 27 0 43 -7 65 -30 32 -33 45 -36 78 -18 12 7 40 17 62
23 28 7 44 18 53 37 6 14 28 35 47 47 30 17 35 26 35 56 0 20 -7 52 -15 72 -9
21 -13 49 -10 63 3 16 -2 36 -15 55 -11 17 -20 47 -20 68 0 21 -7 52 -16 68
-12 24 -14 51 -10 122 8 155 10 632 3 812 -7 184 -21 257 -54 280 -25 18 -69
35 -75 30z"/>
</g>
</svg>
