<?xml version="1.0" standalone="no"?>
<!DOCTYPE svg PUBLIC "-//W3C//DTD SVG 20010904//EN"
 "http://www.w3.org/TR/2001/REC-SVG-20010904/DTD/svg10.dtd">
<svg version="1.0" xmlns="http://www.w3.org/2000/svg"
 width="400px" height="400px" viewBox="0 0 3508.790310 2365.508728"
 preserveAspectRatio="xMidYMid meet">
<metadata>
Created by potrace 1.13, written by Peter Selinger 2001-2015
</metadata>
<g transform="translate(-339.856974,2488.567870) scale(0.100000,-0.100000)"
fill="#000000" stroke="none">
<path d="M12035 24867 c-33 -12 -71 -29 -83 -38 -22 -16 -26 -15 -70 9 -44 25
-57 27 -222 33 -173 5 -303 -6 -349 -31 -11 -5 -43 -12 -73 -14 -47 -4 -103
-14 -268 -46 -25 -5 -78 -21 -118 -36 -67 -25 -77 -26 -109 -15 -36 13 -85 9
-261 -21 -36 -6 -102 -8 -155 -4 -58 4 -105 3 -127 -4 -19 -6 -129 -13 -245
-15 -167 -3 -219 0 -254 12 -29 10 -56 12 -80 7 -20 -4 -39 -7 -44 -6 -4 1
-27 2 -50 2 -23 -1 -53 -1 -67 -1 -14 0 -44 -7 -68 -15 -29 -11 -56 -14 -80
-9 -20 4 -107 6 -192 6 -85 -1 -200 3 -255 8 -80 7 -110 5 -150 -6 -236 -71
-326 -83 -420 -58 -180 49 -305 44 -427 -16 -10 -5 -37 -9 -61 -9 -23 0 -53
-7 -66 -16 -17 -12 -33 -15 -64 -9 -23 4 -62 6 -87 4 -54 -4 -141 -3 -192 2
-29 2 -47 -4 -80 -28 -24 -17 -64 -36 -88 -42 -25 -7 -65 -20 -90 -30 -25 -11
-60 -25 -79 -32 -18 -7 -45 -22 -60 -34 -14 -12 -61 -30 -105 -40 -56 -13 -80
-23 -83 -35 -3 -10 -22 -23 -45 -30 -24 -7 -63 -32 -93 -61 -29 -27 -57 -49
-62 -49 -14 0 -43 -62 -43 -93 0 -14 -7 -38 -15 -53 -8 -16 -15 -37 -15 -47 0
-10 -14 -46 -31 -80 -18 -34 -41 -80 -52 -102 -30 -60 -57 -155 -57 -205 0
-29 -7 -54 -20 -70 -13 -17 -20 -41 -20 -73 0 -27 -5 -58 -12 -70 -6 -12 -13
-67 -14 -122 -2 -73 -8 -115 -23 -154 -11 -30 -20 -70 -21 -90 0 -78 -12 -187
-21 -198 -28 -33 -56 -332 -38 -391 9 -27 8 -45 -6 -89 -16 -51 -16 -60 -2
-127 21 -94 28 -129 28 -141 0 -40 -12 -189 -16 -195 -3 -4 0 -43 6 -86 6 -44
13 -99 14 -124 2 -39 7 -48 35 -64 30 -18 31 -21 25 -65 -4 -34 0 -60 15 -101
34 -87 51 -160 55 -225 12 -200 27 -322 43 -345 24 -36 41 -106 42 -175 0 -33
5 -80 11 -105 6 -25 12 -58 14 -75 10 -88 25 -187 30 -194 3 -5 8 -40 11 -77
3 -37 12 -77 20 -88 8 -12 14 -44 14 -76 0 -40 8 -72 30 -118 19 -41 30 -80
30 -108 0 -49 16 -89 48 -117 11 -10 26 -39 34 -64 9 -34 22 -52 46 -66 17
-10 32 -25 32 -31 0 -7 9 -21 21 -32 17 -15 36 -19 98 -19 70 0 76 -2 79 -21
2 -12 18 -36 37 -54 30 -29 41 -33 78 -31 24 1 57 -4 73 -10 35 -14 33 -14
109 -25 33 -4 71 -7 83 -6 13 2 29 -2 36 -7 7 -6 30 -13 52 -16 21 -3 64 -12
96 -20 38 -10 66 -11 88 -5 19 5 39 5 48 0 43 -23 151 -50 199 -50 29 0 70 7
92 16 43 17 81 7 81 -21 0 -20 32 -35 78 -35 21 0 53 -5 70 -11 21 -7 42 -7
67 0 42 11 85 0 85 -24 0 -8 6 -16 13 -16 6 -1 28 -3 47 -4 19 -1 53 -7 75
-13 22 -6 90 -9 150 -6 81 3 122 0 157 -12 42 -14 50 -14 84 1 31 13 47 14 93
4 31 -6 65 -12 76 -14 27 -6 71 -100 56 -119 -7 -9 -9 -34 -5 -69 4 -36 2 -67
-6 -86 -10 -25 -9 -34 4 -53 23 -33 20 -71 -9 -98 -31 -30 -32 -58 0 -88 26
-25 26 -31 6 -122 -11 -48 -4 -137 10 -146 5 -3 7 -10 3 -15 -3 -5 -8 -43 -10
-84 -4 -68 -2 -78 21 -112 14 -21 25 -46 25 -56 0 -10 7 -32 16 -49 9 -17 13
-40 10 -54 -4 -16 1 -30 17 -46 13 -13 31 -36 41 -51 10 -16 29 -30 47 -34 34
-7 49 -28 47 -69 0 -16 4 -51 10 -79 16 -77 8 -152 -26 -235 -16 -41 -35 -94
-41 -117 -6 -23 -27 -60 -46 -83 -20 -23 -35 -53 -35 -67 0 -46 -32 -138 -57
-165 -23 -24 -24 -31 -18 -78 6 -44 4 -55 -13 -73 -18 -20 -26 -47 -36 -117
-3 -25 -26 -70 -88 -180 -18 -30 -35 -73 -39 -95 -15 -78 -22 -100 -41 -126
-14 -18 -21 -47 -23 -90 -3 -70 -36 -173 -65 -204 -11 -11 -22 -40 -26 -65 -4
-25 -15 -56 -26 -69 -10 -13 -18 -32 -18 -43 0 -10 -8 -31 -17 -45 -17 -25
-32 -75 -53 -170 -5 -24 -16 -56 -25 -72 -8 -17 -15 -37 -15 -47 0 -9 -11 -38
-25 -66 -14 -27 -25 -59 -25 -69 0 -36 -85 -212 -128 -263 -19 -24 -23 -37
-18 -65 4 -27 -2 -49 -25 -95 -17 -34 -38 -69 -46 -78 -10 -11 -14 -28 -10
-46 4 -19 0 -37 -10 -52 -19 -27 -32 -84 -37 -155 -3 -47 -23 -94 -67 -156
-13 -19 -20 -50 -23 -102 -4 -78 -17 -108 -65 -151 -12 -11 -29 -45 -37 -75
-9 -31 -52 -128 -96 -216 -77 -156 -79 -163 -85 -250 -5 -78 -11 -99 -41 -154
-29 -51 -36 -76 -38 -132 -2 -38 -9 -79 -16 -92 -6 -12 -11 -36 -10 -53 2 -26
-3 -34 -33 -50 -41 -22 -47 -36 -50 -124 -4 -89 -13 -120 -45 -155 -28 -30
-60 -121 -60 -168 0 -14 -5 -29 -10 -32 -22 -13 -60 -85 -60 -112 0 -16 -9
-43 -21 -62 -12 -19 -22 -48 -24 -65 -2 -17 -8 -60 -14 -94 -6 -40 -6 -73 0
-89 15 -40 10 -89 -11 -116 -25 -32 -25 -38 1 -60 11 -10 18 -23 16 -30 -4
-12 -18 -12 -73 -1 -39 7 -42 2 -50 -76 -8 -78 -27 -124 -70 -173 -19 -20 -34
-46 -34 -58 0 -11 -6 -32 -14 -47 -7 -15 -13 -56 -13 -91 0 -59 -2 -65 -32
-88 -23 -18 -31 -32 -31 -57 0 -20 -8 -40 -20 -51 -11 -10 -20 -26 -20 -37 0
-10 -27 -51 -61 -90 -37 -45 -58 -79 -56 -90 3 -9 -2 -27 -11 -39 -15 -21 -21
-73 -25 -209 -1 -36 -9 -76 -17 -90 -18 -31 -39 -106 -40 -143 0 -15 -13 -53
-29 -85 -15 -31 -31 -69 -34 -83 -4 -15 -23 -51 -43 -80 -20 -30 -40 -74 -44
-99 -4 -25 -14 -60 -21 -78 -11 -26 -11 -36 -1 -52 16 -26 15 -45 -3 -60 -10
-9 -15 -31 -15 -73 0 -42 -5 -66 -17 -79 -9 -10 -16 -33 -15 -52 1 -29 -5 -40
-38 -66 -29 -23 -40 -39 -40 -59 0 -16 -12 -45 -26 -66 -16 -24 -24 -47 -21
-62 4 -22 -21 -51 -102 -116 -18 -15 -22 -27 -20 -75 2 -75 -11 -163 -25 -182
-7 -8 -17 -27 -24 -42 -6 -16 -19 -28 -27 -28 -9 0 -23 -17 -32 -37 -8 -21
-33 -57 -54 -82 -22 -24 -42 -56 -46 -70 -8 -37 -61 -148 -73 -156 -5 -3 -10
-14 -10 -24 0 -10 -7 -32 -16 -50 -10 -20 -13 -42 -9 -62 5 -24 0 -44 -24 -89
-27 -50 -70 -159 -111 -280 -7 -19 -20 -51 -30 -70 -10 -19 -21 -50 -25 -67
-3 -18 -11 -35 -16 -38 -5 -4 -9 -21 -9 -38 -1 -33 -32 -89 -107 -187 -22 -30
-46 -74 -52 -97 -7 -23 -16 -45 -21 -48 -20 -12 -58 -102 -69 -159 -6 -31 -19
-70 -30 -85 -19 -26 -57 -95 -109 -196 -11 -22 -27 -58 -35 -80 -8 -22 -29
-73 -46 -114 -17 -40 -31 -85 -31 -98 0 -14 -8 -37 -19 -51 -10 -15 -22 -46
-25 -69 -4 -22 -18 -56 -32 -74 -14 -19 -30 -50 -36 -71 -6 -20 -27 -57 -47
-82 -43 -54 -91 -130 -91 -144 0 -5 -13 -37 -30 -70 -16 -34 -30 -64 -30 -68
0 -4 -8 -16 -17 -26 -16 -18 -31 -88 -37 -173 -6 -80 -19 -121 -56 -175 -34
-50 -70 -133 -70 -162 0 -6 -11 -25 -24 -42 -12 -17 -31 -47 -41 -66 -9 -19
-28 -47 -42 -62 -16 -16 -26 -40 -28 -65 -1 -21 -14 -62 -29 -91 -15 -29 -29
-74 -33 -100 -3 -26 -13 -56 -23 -67 -29 -35 -70 -113 -70 -135 0 -11 -6 -31
-14 -43 -8 -12 -17 -38 -20 -57 -4 -19 -20 -55 -36 -79 -24 -35 -30 -55 -30
-96 0 -45 -5 -58 -35 -96 -21 -26 -35 -54 -34 -69 0 -14 -2 -35 -6 -48 -7 -21
-11 -23 -42 -26 -15 -1 -34 -18 -90 -78 -38 -41 -42 -49 -41 -98 0 -39 -6 -60
-22 -82 -32 -44 -62 -137 -61 -189 2 -40 -2 -50 -28 -71 -31 -27 -81 -116 -81
-146 0 -10 -5 -23 -11 -29 -6 -6 -13 -25 -16 -44 -3 -18 -13 -50 -23 -70 -25
-48 -50 -158 -50 -218 0 -42 -5 -54 -40 -94 -27 -30 -40 -54 -40 -74 0 -31
-35 -92 -100 -174 -29 -37 -40 -60 -41 -87 0 -21 -4 -46 -8 -57 -5 -11 -4 -30
0 -43 9 -24 -12 -93 -38 -123 -7 -8 -13 -34 -13 -56 0 -31 -6 -47 -25 -64 -16
-16 -25 -35 -25 -55 0 -18 -12 -48 -30 -72 -17 -23 -30 -55 -30 -70 0 -16 -3
-32 -7 -36 -10 -10 -5 -75 9 -110 10 -25 9 -31 -8 -45 -21 -17 -43 -66 -67
-149 -12 -41 -13 -60 -5 -78 9 -19 7 -32 -13 -71 -13 -27 -39 -65 -57 -86 -17
-20 -32 -48 -32 -61 0 -14 -5 -28 -10 -31 -6 -3 -10 -18 -10 -32 0 -14 -9 -40
-20 -57 -19 -32 -27 -114 -17 -179 5 -32 3 -30 44 -51 22 -11 33 -24 33 -39 0
-12 8 -36 19 -52 17 -28 33 -37 119 -61 7 -2 16 -14 21 -27 5 -12 16 -29 25
-36 9 -7 16 -28 16 -47 0 -26 7 -39 35 -59 19 -15 34 -30 34 -33 -4 -24 7 -33
54 -47 53 -15 267 -25 322 -15 51 10 80 -8 94 -56 17 -56 32 -67 88 -66 43 0
50 4 89 49 46 52 126 187 123 206 -1 7 1 29 5 49 7 30 4 42 -12 62 -17 22 -18
30 -8 58 6 18 17 43 25 56 7 13 10 30 7 37 -6 18 17 102 42 151 11 21 25 57
32 79 7 22 34 85 62 139 27 55 60 140 73 189 20 73 31 96 61 126 20 20 52 67
71 106 20 38 46 83 58 100 12 16 28 53 35 80 15 58 41 113 80 170 15 22 37 65
50 95 12 30 26 63 31 73 5 9 13 25 18 35 30 57 71 157 71 175 0 12 12 47 27
77 15 30 37 75 49 100 12 25 29 69 39 98 9 29 28 66 42 82 35 42 64 125 69
194 2 36 10 66 20 77 12 13 15 28 10 53 -8 40 9 81 55 134 36 41 69 104 69
132 0 12 18 58 40 104 22 45 40 90 40 100 0 9 8 33 19 54 35 69 41 105 20 131
-18 22 -18 23 17 71 20 27 53 63 75 80 l39 31 -5 64 c-3 35 -1 67 5 70 5 3 5
17 -2 36 -11 33 -15 27 85 137 27 29 47 59 44 66 -3 8 5 24 19 37 13 12 24 26
24 31 0 5 13 35 29 67 15 31 31 73 35 93 3 20 16 48 27 62 17 22 20 35 15 71
-4 26 -3 46 4 50 5 3 10 17 10 30 0 13 11 36 24 52 22 26 71 123 130 257 14
32 26 71 26 85 0 16 10 37 25 51 14 13 25 33 25 44 0 12 11 43 25 70 14 27 25
58 25 70 0 20 51 158 76 208 8 14 14 32 14 40 0 7 9 24 20 38 11 14 20 33 20
43 0 11 9 30 20 44 11 14 20 40 20 57 0 18 13 50 30 75 17 24 30 50 30 58 0 7
14 38 30 67 17 30 38 83 46 118 9 34 22 77 30 95 8 17 14 39 14 50 0 10 18 42
40 71 21 29 42 68 46 87 3 19 12 39 20 46 17 14 18 41 2 57 -9 9 -6 18 14 39
14 16 31 46 38 68 7 22 19 49 26 60 8 11 14 45 14 77 0 31 5 69 12 83 9 19 9
28 0 37 -20 20 -14 35 23 58 19 12 35 28 35 36 0 8 4 14 8 14 4 0 16 15 27 32
18 31 31 93 40 186 2 24 10 50 17 59 7 9 18 39 25 67 24 109 33 131 52 145 12
7 21 19 21 26 0 7 13 26 29 41 19 19 36 54 50 101 12 40 26 75 31 78 18 11 78
110 90 150 7 22 16 44 20 48 4 5 3 26 -2 47 -9 33 -7 45 11 75 11 20 21 50 21
66 0 30 32 103 50 114 5 3 10 17 10 29 0 13 15 43 34 67 18 24 45 67 59 94 14
28 35 64 46 80 12 17 21 45 21 64 0 19 6 42 14 50 27 31 79 194 80 251 2 63
10 90 42 142 13 21 24 45 24 55 0 9 12 29 26 44 23 24 38 66 61 169 3 14 11
32 19 40 8 10 12 40 10 93 -2 67 0 80 16 90 26 17 22 36 -8 47 -18 7 -24 15
-20 26 3 9 6 30 6 49 0 27 5 35 30 45 37 15 37 24 5 62 -14 17 -25 38 -23 46
4 22 64 61 86 56 10 -3 29 7 46 25 17 17 38 31 47 31 24 0 32 32 31 116 -2 59
2 74 18 89 22 20 26 45 8 63 -6 6 -11 24 -10 41 0 16 -5 35 -12 40 -18 15 -9
93 12 108 42 30 43 33 27 56 -21 31 -19 63 8 82 17 12 22 25 22 63 0 50 0 50
61 37 39 -9 51 13 29 55 -15 29 -15 30 25 70 22 22 40 47 40 56 0 8 11 30 25
49 31 40 57 150 42 182 -8 18 -1 34 42 95 37 55 51 84 51 109 0 19 9 52 20 74
11 22 20 53 20 70 0 22 10 41 35 65 19 18 37 45 40 60 3 15 22 51 40 81 19 29
35 65 35 79 0 14 6 34 13 45 18 27 39 103 32 115 -3 5 1 26 11 45 9 20 14 45
10 59 -4 15 5 44 25 85 17 34 32 76 34 94 2 17 8 46 13 62 28 85 31 98 22 121
-9 22 -6 27 25 45 23 14 35 28 35 43 0 12 12 33 26 47 15 14 23 31 20 41 -3
12 7 27 30 44 24 19 34 34 33 53 0 14 9 53 20 85 12 33 21 63 21 68 0 21 69
108 103 129 45 29 50 45 39 126 -5 35 -6 65 -4 68 3 3 18 5 33 5 43 0 61 51
44 122 -6 20 -2 29 14 37 15 9 21 21 21 46 0 25 4 33 14 29 21 -8 29 12 15 38
-22 41 -11 141 23 214 6 12 11 43 12 70 1 46 2 48 43 61 29 10 43 21 47 39 4
13 10 24 14 24 14 0 52 40 52 55 0 9 -13 29 -30 47 -29 30 -39 71 -20 83 5 3
14 33 21 66 10 50 17 62 40 74 26 14 28 18 22 63 -5 47 -4 49 28 69 25 14 34
27 36 48 0 16 8 34 17 41 12 8 17 30 19 77 2 45 8 72 20 85 9 10 17 32 17 49
0 17 8 41 18 54 10 13 24 38 31 56 20 50 40 50 87 -1 24 -26 51 -46 62 -46 29
0 37 -18 17 -39 -11 -13 -14 -27 -9 -45 4 -17 -1 -36 -16 -61 -12 -19 -19 -35
-16 -35 4 0 0 -16 -8 -35 -13 -30 -13 -41 -1 -73 25 -68 64 -139 79 -145 23
-9 20 -25 -11 -51 -25 -22 -26 -24 -10 -47 9 -13 17 -32 17 -43 0 -11 9 -29
20 -41 l21 -22 -36 -28 c-20 -15 -34 -33 -31 -40 5 -14 -33 -55 -51 -55 -6 0
-16 -7 -23 -15 -10 -13 -10 -19 4 -33 21 -24 20 -31 -5 -58 -27 -29 -16 -47
22 -39 48 11 60 -8 57 -86 -1 -54 2 -72 16 -88 27 -30 17 -55 -24 -61 -19 -3
-46 -13 -60 -23 l-25 -17 28 -23 c27 -21 28 -26 22 -70 -4 -28 -18 -61 -35
-83 -35 -43 -46 -85 -28 -113 10 -16 10 -25 1 -40 -9 -15 -8 -22 10 -40 19
-19 20 -24 9 -53 -27 -67 -30 -97 -17 -169 4 -20 2 -45 -3 -56 -8 -15 -7 -27
4 -49 12 -23 13 -36 4 -64 -11 -37 -8 -271 5 -302 3 -9 4 -31 0 -50 -5 -32
-18 -250 -18 -318 0 -19 1 -81 3 -138 l2 -102 45 -55 c71 -86 74 -136 14 -230
-13 -20 -20 -49 -21 -85 0 -30 -1 -65 -1 -77 -4 -112 -2 -285 3 -313 3 -19 16
-42 28 -52 27 -22 24 -31 -20 -60 -33 -22 -53 -66 -51 -110 1 -10 1 -30 0 -45
-6 -207 7 -350 35 -382 14 -16 9 -93 -9 -134 -5 -11 -2 -24 8 -35 20 -22 9
-137 -16 -176 -10 -15 -15 -35 -12 -46 3 -10 0 -39 -6 -65 -9 -36 -9 -51 1
-70 7 -13 10 -35 6 -48 -4 -16 3 -44 20 -81 19 -42 23 -60 15 -74 -21 -39 -41
-110 -41 -143 1 -19 1 -52 1 -74 0 -22 0 -58 0 -80 0 -22 -1 -67 -1 -100 0
-33 -5 -72 -11 -87 -9 -23 -8 -33 5 -53 21 -32 20 -44 -6 -72 -12 -13 -24 -43
-28 -70 -8 -52 8 -154 26 -165 14 -10 17 -76 3 -109 -12 -32 3 -69 45 -108 32
-31 33 -41 0 -72 -16 -15 -23 -31 -20 -42 3 -11 -3 -34 -12 -52 -19 -33 -21
-121 -7 -224 4 -28 3 -51 -2 -51 -4 0 -17 -7 -27 -15 -16 -12 -20 -30 -23
-101 -2 -48 -8 -95 -13 -105 -17 -32 -12 -104 10 -132 17 -22 20 -40 20 -134
0 -102 2 -111 27 -148 19 -28 28 -53 28 -85 1 -25 4 -52 7 -60 19 -45 23 -131
12 -215 -3 -22 -6 -53 -5 -69 0 -30 -21 -63 -80 -125 -32 -33 -38 -47 -44
-102 -5 -47 -13 -71 -31 -90 l-24 -25 27 -38 c16 -20 37 -49 49 -64 l21 -26
47 18 c26 10 49 16 52 13 3 -3 19 8 37 24 47 43 89 59 155 59 33 0 68 3 77 6
9 4 27 31 41 62 21 48 23 59 13 92 -7 23 -9 54 -4 77 10 50 7 147 -6 198 -11
39 -2 92 23 139 7 14 4 24 -14 43 l-23 25 42 37 c34 29 40 39 32 53 -6 10 -16
18 -24 18 -8 0 -18 6 -22 13 -4 7 -36 37 -70 66 -69 59 -70 73 -9 89 24 7 36
5 55 -9 31 -25 58 -10 67 35 8 46 34 70 57 53 21 -15 57 -111 57 -150 0 -15 7
-39 16 -53 16 -23 16 -26 -5 -48 -11 -12 -21 -30 -21 -39 0 -9 -4 -17 -8 -17
-5 0 -13 -15 -19 -34 -11 -35 -2 -56 23 -56 41 0 34 -83 -11 -130 -20 -21 -25
-32 -18 -46 10 -21 10 -85 -1 -102 -3 -6 1 -32 10 -57 17 -51 12 -63 -27 -70
-38 -7 -51 -33 -45 -90 3 -27 2 -76 -2 -107 -6 -39 -5 -63 4 -80 7 -13 15 -44
19 -69 6 -39 4 -49 -11 -57 -16 -9 -15 -12 10 -38 14 -16 26 -38 25 -49 -3
-45 -8 -44 190 -64 43 -4 67 -11 74 -22 13 -20 3 -47 -20 -56 -10 -4 -23 -14
-30 -23 -8 -12 -33 -19 -77 -23 -61 -6 -106 -22 -106 -39 0 -14 -34 -48 -47
-48 -15 0 -18 46 -4 54 5 3 7 15 4 25 -4 17 -8 18 -23 8 -23 -14 -33 -49 -18
-59 9 -5 7 -12 -5 -26 -19 -21 -17 -94 3 -100 23 -8 50 -47 50 -73 0 -15 -12
-42 -27 -59 -14 -18 -28 -42 -29 -54 -1 -11 -3 -24 -3 -27 -1 -3 -13 -11 -27
-18 -24 -10 -25 -15 -18 -54 4 -23 7 -64 6 -91 -2 -55 14 -126 28 -126 6 0 10
-4 10 -10 0 -5 -7 -10 -16 -10 -24 0 -11 -25 15 -28 16 -3 24 2 28 17 7 26 8
26 31 3 10 -10 29 -26 41 -34 22 -16 22 -18 7 -33 -28 -29 -37 -53 -30 -93 5
-31 1 -45 -20 -77 -14 -21 -26 -42 -26 -46 0 -5 -13 -15 -30 -24 -16 -9 -30
-21 -30 -28 0 -7 14 -26 30 -42 17 -16 30 -32 30 -37 0 -4 -15 -25 -33 -45
-35 -40 -62 -109 -46 -119 15 -9 10 -33 -12 -64 -16 -21 -20 -37 -15 -62 23
-126 26 -172 11 -189 -24 -26 0 -94 42 -120 30 -19 63 -68 63 -94 0 -20 -45
-38 -66 -27 -28 14 -44 4 -44 -27 0 -16 -10 -37 -25 -51 -14 -13 -25 -35 -25
-50 0 -14 -5 -31 -11 -37 -9 -9 -8 -22 5 -52 15 -38 15 -44 0 -82 -13 -30 -14
-46 -6 -63 9 -20 7 -27 -14 -45 -21 -18 -23 -27 -18 -60 5 -31 2 -48 -14 -73
-19 -30 -21 -47 -19 -150 2 -65 0 -125 -3 -134 -7 -20 8 -69 32 -103 9 -13 14
-29 11 -36 -2 -8 0 -22 6 -32 8 -16 5 -22 -20 -37 l-29 -17 26 -51 c21 -42 26
-67 28 -137 1 -54 -3 -96 -11 -113 -7 -15 -13 -43 -13 -63 0 -20 -7 -50 -16
-67 -13 -25 -14 -36 -4 -57 6 -14 11 -62 10 -106 0 -44 -1 -99 0 -121 0 -23
-7 -58 -15 -78 -9 -20 -13 -41 -10 -46 3 -5 0 -22 -8 -37 -17 -35 -8 -91 21
-128 12 -15 19 -32 16 -37 -3 -5 6 -24 20 -42 14 -18 28 -46 32 -62 4 -16 14
-39 22 -52 12 -18 12 -28 2 -51 -6 -16 -13 -41 -14 -55 -2 -15 -13 -37 -24
-49 -15 -16 -18 -27 -12 -38 6 -11 3 -29 -10 -55 -24 -46 -26 -116 -4 -134 30
-26 37 -50 19 -76 -10 -15 -22 -23 -31 -20 -8 3 -30 -8 -49 -25 -29 -26 -37
-29 -55 -19 -14 8 -19 17 -15 28 4 10 -2 22 -14 32 -11 8 -21 30 -23 49 -2 19
-13 45 -26 58 -15 15 -21 30 -17 43 3 10 0 28 -7 40 -11 17 -10 25 5 52 17 29
17 32 1 49 -14 16 -15 25 -7 53 10 31 8 38 -20 72 -29 35 -31 43 -31 116 0 72
3 82 32 123 22 32 31 56 31 82 -1 55 12 115 29 141 9 14 15 50 16 100 1 68 -1
79 -21 98 -13 12 -23 25 -23 31 0 5 18 29 40 53 45 50 43 45 30 70 -7 12 -7
28 0 45 12 30 7 40 -55 131 -35 52 -40 65 -38 111 1 28 11 71 22 94 12 24 21
54 22 68 1 32 28 81 54 95 41 23 63 70 41 83 -7 5 -19 25 -26 47 -10 31 -10
43 1 62 10 20 10 28 -1 48 -10 20 -10 34 0 77 18 73 21 110 20 212 -1 54 3 94
10 102 9 11 9 28 -1 70 -9 42 -10 58 -1 67 17 17 15 100 -3 134 -12 24 -12 32
-1 49 24 37 28 74 10 104 -16 26 -16 32 -2 67 15 37 15 41 -6 76 -17 31 -19
41 -9 55 7 10 23 38 36 63 13 25 35 64 50 87 15 24 27 47 27 52 0 6 -14 26
-31 46 -23 26 -30 42 -26 61 2 14 -2 51 -10 82 -9 32 -13 75 -9 98 4 33 1 45
-14 59 -14 13 -17 22 -10 40 8 21 -6 130 -25 192 -5 16 -2 23 15 28 12 4 30
25 40 48 10 22 35 55 56 72 36 31 37 33 25 63 -8 19 -10 42 -6 59 14 49 15 85
5 98 -5 6 -8 36 -6 66 2 30 -1 86 -6 126 -7 63 -6 75 11 105 12 19 21 55 22
86 2 49 0 55 -37 94 -21 24 -43 45 -47 49 -5 3 -1 23 8 45 23 55 14 68 -42 60
-43 -6 -48 -4 -80 30 -19 20 -32 43 -29 50 3 8 -1 14 -10 14 -8 0 -13 -4 -9
-10 3 -5 -6 -17 -20 -26 -23 -15 -27 -15 -51 1 -23 15 -27 15 -49 1 -29 -19
-46 -48 -37 -63 4 -6 30 -24 57 -40 53 -32 56 -40 38 -112 -10 -42 -36 -61
-60 -45 -10 6 -19 21 -21 33 -3 20 -7 22 -45 16 -23 -4 -46 -10 -50 -15 -16
-15 -38 -120 -28 -138 5 -9 8 -84 7 -167 l-1 -150 27 -31 c46 -53 49 -71 16
-133 -16 -31 -35 -63 -42 -71 -7 -8 -21 -48 -30 -88 -17 -71 -17 -72 4 -102
12 -17 26 -30 31 -30 14 0 11 -32 -6 -50 -14 -16 -14 -21 1 -53 16 -34 16 -38
0 -75 -13 -28 -16 -52 -12 -84 4 -28 0 -63 -9 -94 -8 -27 -15 -66 -15 -87 0
-20 -6 -46 -12 -57 -10 -16 -10 -24 0 -40 6 -11 12 -25 12 -32 0 -6 7 -19 16
-29 12 -14 13 -22 4 -38 -7 -15 -8 -27 0 -41 6 -11 8 -31 4 -45 -3 -14 -1 -31
5 -38 5 -7 13 -56 16 -108 5 -65 11 -96 21 -102 20 -11 17 -35 -6 -49 -15 -10
-20 -24 -20 -59 0 -31 -6 -52 -20 -67 -23 -24 -25 -38 -7 -45 8 -3 2 -19 -20
-51 -37 -52 -38 -58 -21 -86 10 -16 9 -23 -11 -44 -21 -22 -23 -31 -17 -73 4
-26 7 -61 7 -78 -1 -38 34 -75 71 -75 32 0 37 -8 41 -63 2 -20 11 -45 21 -56
15 -16 17 -28 11 -58 -5 -21 -9 -42 -10 -48 -14 -90 -21 -103 -65 -130 -78
-46 -98 -66 -118 -117 -42 -105 -45 -135 -22 -172 11 -19 34 -39 50 -46 36
-15 38 -31 6 -73 -24 -31 -26 -43 -26 -147 0 -14 4 -59 8 -100 7 -58 6 -80 -5
-97 -18 -31 -17 -41 13 -80 31 -40 61 -136 45 -141 -6 -2 -11 -9 -11 -15 -1
-7 -9 -30 -20 -52 -24 -49 -25 -77 -4 -117 14 -26 14 -39 4 -87 -7 -36 -8 -65
-2 -81 9 -24 -9 -88 -28 -100 -18 -12 -80 -102 -80 -116 0 -22 55 -74 79 -74
22 0 34 -14 37 -44 1 -12 5 -31 9 -44 6 -19 -5 -34 -74 -99 -97 -91 -103 -115
-36 -148 43 -21 92 -65 74 -65 -6 0 -8 -7 -5 -15 3 -8 9 -22 12 -30 4 -10 0
-15 -13 -15 -34 0 -55 -33 -48 -74 5 -25 3 -43 -7 -59 -9 -13 -12 -30 -8 -42
4 -11 4 -27 -1 -36 -15 -30 2 -89 32 -112 27 -19 39 -47 21 -47 -14 0 -43 -71
-37 -90 3 -9 17 -22 30 -28 14 -6 25 -20 25 -30 0 -11 12 -32 28 -48 54 -58
71 -94 60 -133 -6 -20 -16 -44 -23 -55 -19 -26 -2 -59 42 -83 32 -17 54 -42
78 -88 6 -11 28 -30 50 -42 32 -18 51 -22 96 -18 49 4 62 1 94 -21 34 -22 44
-25 89 -18 84 12 90 12 128 7 31 -5 38 -10 43 -34 7 -33 38 -45 83 -35 15 4
45 11 67 17 22 5 47 11 55 13 8 1 22 5 30 8 8 4 28 11 45 16 25 7 30 14 32 43
3 59 15 144 22 154 4 6 6 51 4 100 -6 156 -6 192 1 211 27 68 34 118 21 162
-9 29 -11 52 -5 68 7 18 5 33 -11 60 l-20 36 21 33 c20 33 20 35 3 99 -16 62
-16 66 1 84 20 22 13 72 -10 72 -24 0 -16 22 27 73 37 43 40 51 30 73 -8 19
-18 24 -46 24 -19 0 -35 3 -35 8 0 4 5 35 10 70 6 35 7 68 3 75 -4 7 -13 57
-19 112 -9 84 -9 104 3 123 12 20 12 32 3 72 -10 42 -9 53 4 72 9 12 16 32 16
45 0 12 4 24 9 27 4 3 11 26 15 52 3 26 11 53 18 61 6 8 13 29 14 46 1 18 5
50 9 73 5 28 3 50 -7 69 -11 20 -13 39 -7 70 11 60 6 220 -8 236 -6 8 -17 35
-23 60 -10 38 -9 52 3 75 20 39 7 70 -32 79 -17 4 -36 15 -42 26 -8 17 -4 25
25 51 24 21 36 40 36 58 0 14 7 35 15 48 28 39 23 94 -21 232 -3 10 5 19 25
27 l31 11 -7 64 c-5 53 -11 69 -40 101 -32 36 -36 57 -9 57 7 0 25 13 41 30
28 29 28 30 22 129 -4 87 -3 104 13 123 15 20 17 39 15 127 -3 75 0 110 10
125 8 12 18 62 24 113 5 51 15 101 20 112 16 29 13 89 -5 138 -14 35 -15 53
-7 96 6 28 9 80 7 114 -4 99 14 260 35 301 21 43 34 179 19 205 -7 13 -5 25 6
42 13 20 13 25 1 35 -8 7 -15 23 -15 36 0 12 -4 26 -10 29 -16 10 -12 33 9 54
17 17 19 29 14 98 -3 43 -10 84 -15 90 -6 7 -7 28 -4 47 4 18 2 46 -4 61 -9
24 -7 34 15 65 14 20 25 50 25 66 0 18 8 38 19 48 23 21 33 90 19 122 -9 19
-8 28 6 43 18 20 14 41 -7 41 -31 1 -39 16 -23 47 8 17 12 40 9 52 -3 11 0 28
7 36 11 13 7 15 -25 15 -20 0 -50 -8 -66 -17 -25 -15 -31 -16 -43 -3 -8 8 -17
42 -21 75 -6 60 -6 60 26 78 28 16 31 21 25 52 -4 21 -1 52 8 80 16 45 13 98
-8 124 -13 16 17 41 49 41 56 0 75 70 68 245 -5 129 -5 152 -3 263 2 75 -1 89
-32 117 -38 36 -43 60 -19 101 20 34 20 37 4 64 -16 28 -16 30 2 50 12 13 22
45 27 83 4 34 12 85 18 112 15 78 21 225 9 247 -8 14 -7 28 1 47 9 24 24 351
21 460 -1 19 5 44 13 56 14 21 14 84 0 107 -3 5 8 24 25 44 30 34 32 42 17 95
-5 18 -2 38 9 59 13 25 17 62 18 166 0 123 -2 137 -21 164 -22 30 -21 58 5 73
20 12 17 41 -4 32 -10 -4 -28 -10 -41 -13 -20 -4 -23 -1 -20 23 4 38 -16 42
-48 10 -19 -19 -23 -29 -15 -39 13 -15 5 -26 -20 -26 -22 0 -30 51 -12 88 7
15 36 39 63 54 54 30 59 43 32 79 -16 21 -18 40 -16 139 3 110 2 117 -23 153
l-26 38 22 15 c13 10 21 24 19 37 -3 19 2 22 29 22 42 1 49 9 35 40 -10 21 -9
32 4 57 21 41 14 117 -14 153 -30 38 -45 96 -32 129 5 15 7 59 3 101 -4 58 -3
79 10 98 14 21 13 27 -6 71 -16 38 -18 52 -9 65 15 20 26 45 41 93 11 34 10
42 -13 81 -32 54 -34 111 -6 190 11 31 20 74 20 95 0 25 7 45 19 56 28 25 35
94 15 141 -8 21 -16 60 -17 85 -1 26 -8 55 -16 64 -12 14 -11 20 7 39 18 19
22 40 28 138 7 114 7 115 -18 131 -13 9 -32 17 -42 19 -33 7 -43 36 -24 70 13
21 16 42 12 73 -6 40 -4 46 30 76 28 26 36 41 36 68 0 23 8 44 21 59 18 18 20
25 9 38 -7 8 -21 15 -32 15 -36 0 -78 29 -78 54 0 24 43 52 62 40 18 -12 28
19 10 32 -16 11 -16 16 1 66 24 72 29 210 12 300 -19 104 -31 146 -45 163 -9
11 -10 30 -1 78 6 35 11 78 11 96 0 18 7 46 16 62 8 17 17 58 18 92 2 34 7 74
11 89 6 23 3 29 -25 43 -26 14 -31 21 -26 41 4 13 1 32 -6 43 -9 15 -9 28 1
59 10 28 10 45 3 59 -16 28 -9 70 15 96 20 20 20 27 11 92 -5 39 -10 96 -11
127 -2 42 -7 62 -24 80 l-21 23 34 39 c27 31 34 48 34 81 0 22 5 46 12 53 9 9
2 21 -30 50 -23 22 -42 44 -42 50 0 6 18 26 40 45 47 40 53 78 19 121 -16 21
-20 34 -14 59 7 34 9 73 6 122 -1 17 3 59 8 94 8 44 8 68 1 75 -5 5 -10 13
-10 17 0 12 82 89 95 89 6 0 25 -25 41 -55 16 -31 39 -66 51 -77 17 -16 23
-33 23 -64 0 -24 -4 -45 -9 -49 -6 -3 -8 -28 -6 -56 3 -42 8 -55 28 -68 19
-12 23 -20 17 -32 -10 -18 6 -75 27 -97 11 -11 8 -20 -11 -45 -20 -26 -22 -36
-13 -57 5 -14 9 -37 8 -52 -2 -18 4 -30 17 -37 32 -17 45 -68 48 -186 4 -138
14 -234 27 -260 6 -11 14 -49 18 -85 10 -89 24 -149 38 -163 6 -6 11 -19 11
-28 0 -10 18 -39 40 -64 l40 -46 -2 -127 c-3 -115 -1 -131 20 -174 20 -40 22
-56 16 -110 -3 -35 -13 -73 -20 -86 -13 -19 -13 -28 1 -68 8 -24 15 -49 15
-55 0 -5 16 -42 35 -83 30 -64 33 -76 23 -103 -10 -26 -8 -34 10 -60 15 -21
24 -57 32 -124 6 -52 20 -124 31 -161 12 -39 17 -77 13 -92 -4 -15 0 -39 9
-59 8 -17 17 -62 21 -98 3 -37 13 -89 21 -115 11 -34 13 -68 9 -111 -6 -58 -4
-65 20 -94 18 -21 24 -35 17 -42 -10 -10 3 -57 27 -95 10 -15 12 -35 8 -62 -5
-31 -3 -42 9 -46 16 -7 20 -34 6 -50 -8 -9 10 -164 28 -237 5 -21 17 -47 27
-58 14 -16 18 -39 20 -107 2 -98 23 -229 52 -317 34 -108 58 -203 68 -270 3
-27 11 -56 17 -63 12 -15 37 -163 41 -248 2 -33 9 -71 15 -82 6 -12 11 -37 9
-56 -1 -26 8 -49 37 -93 40 -58 40 -58 45 -178 4 -91 10 -126 23 -145 11 -15
17 -43 17 -75 0 -43 4 -56 28 -78 28 -27 29 -31 29 -133 1 -113 33 -330 63
-433 19 -64 19 -65 0 -96 -28 -45 -25 -60 13 -83 32 -18 34 -23 46 -108 7 -49
19 -125 27 -169 30 -158 36 -219 25 -255 -6 -22 -7 -58 -2 -95 5 -33 6 -65 4
-72 -2 -6 3 -25 11 -42 9 -16 16 -40 16 -53 0 -13 14 -50 30 -82 26 -52 30
-67 26 -125 -3 -55 1 -74 21 -115 19 -37 23 -57 18 -86 -4 -26 -1 -48 9 -69
22 -41 36 -113 39 -193 2 -55 6 -71 27 -93 13 -14 25 -38 27 -53 2 -15 7 -56
11 -92 4 -36 11 -70 15 -77 13 -20 46 -246 53 -355 3 -57 11 -121 17 -143 6
-22 11 -74 11 -115 1 -50 6 -84 16 -100 27 -43 40 -80 40 -113 0 -18 9 -45 20
-62 13 -19 20 -47 20 -76 0 -33 6 -51 20 -64 14 -13 20 -31 20 -61 0 -24 5
-46 10 -49 6 -3 10 -22 10 -41 0 -20 5 -44 10 -55 8 -14 7 -25 -5 -42 -13 -21
-13 -25 3 -48 22 -31 43 -85 49 -129 3 -19 10 -41 16 -48 5 -7 10 -27 9 -44 0
-17 4 -40 10 -51 7 -14 7 -31 -3 -59 -11 -34 -10 -43 6 -76 9 -20 19 -59 20
-87 3 -42 7 -53 31 -67 29 -18 54 -78 52 -127 -1 -50 19 -128 41 -165 22 -35
23 -41 11 -96 -14 -65 -7 -121 18 -160 9 -14 16 -43 16 -65 1 -40 1 -40 44
-43 31 -2 42 1 42 11 0 35 106 49 165 21 50 -23 67 -15 86 39 14 39 15 60 7
124 -5 43 -6 88 -3 100 4 16 -3 36 -20 61 -19 28 -25 49 -25 90 0 29 -7 69
-16 90 -9 20 -17 53 -19 72 -1 19 -8 53 -14 75 -7 22 -16 59 -21 82 -5 24 -16
56 -25 72 -8 17 -15 41 -15 54 0 13 -6 32 -14 42 -15 21 -12 38 16 74 24 32
23 42 -11 80 -16 18 -35 47 -41 64 -7 18 -23 59 -37 92 -17 42 -24 74 -22 112
2 43 -2 57 -19 76 -13 14 -22 36 -22 56 0 39 -27 138 -41 146 -5 4 -9 19 -9
35 0 16 -8 36 -17 46 -15 14 -18 33 -16 94 2 66 -1 80 -18 99 -12 12 -19 23
-18 25 2 1 16 7 31 13 24 11 27 18 33 90 6 54 4 86 -5 108 -7 16 -15 44 -17
60 -3 17 -11 37 -18 45 -37 43 -77 159 -63 183 6 11 5 25 -4 39 -7 13 -11 29
-10 35 4 16 -42 94 -68 118 -26 24 -25 37 5 63 30 26 27 46 -16 128 -18 33
-29 69 -29 93 0 22 -5 51 -11 65 -9 18 -9 33 0 56 8 24 8 38 -1 53 -11 20 -17
74 -21 172 -1 22 -6 46 -10 53 -5 7 -5 21 -2 33 7 21 -8 123 -28 192 -8 31 -7
44 6 73 23 48 22 115 -2 146 -11 13 -23 36 -26 50 -4 14 -20 38 -36 54 -22 21
-29 37 -29 66 0 25 -7 47 -20 60 -11 12 -20 31 -21 42 -1 12 -2 40 -3 62 -1
23 -9 52 -17 65 -12 18 -15 51 -14 132 2 108 2 108 -27 128 -15 11 -28 26 -28
32 0 7 -10 30 -22 52 -18 32 -23 61 -26 148 -4 101 -6 109 -28 124 -25 16 -32
47 -14 58 15 9 12 48 -6 73 -19 28 -21 76 -4 97 10 12 9 24 -3 62 -24 74 -30
122 -19 136 7 9 3 28 -16 67 -24 52 -33 91 -50 222 -4 31 -16 65 -25 76 -16
17 -17 26 -8 60 14 49 8 64 -35 97 -36 27 -43 59 -23 96 8 17 5 24 -20 47 -27
23 -31 33 -31 77 0 29 -6 60 -15 71 -13 18 -14 97 0 186 3 17 -5 40 -22 64
-20 31 -23 42 -14 56 13 21 14 55 2 62 -5 3 -21 26 -35 50 -21 36 -24 49 -16
76 8 26 6 40 -9 64 -12 21 -16 39 -11 56 13 41 11 46 -21 79 -26 28 -30 38
-25 69 14 95 17 186 9 206 -36 78 -43 103 -43 155 0 44 -5 65 -21 85 -18 23
-21 42 -23 129 -2 68 -8 114 -18 137 -23 49 -28 81 -33 194 -3 55 -10 105 -17
113 -6 8 -29 23 -50 34 -42 21 -44 26 -27 63 10 20 9 30 -5 50 -9 14 -16 36
-16 48 0 13 -7 34 -16 46 -18 27 -26 146 -12 175 6 12 5 23 -4 34 -7 9 -14 44
-14 82 -1 56 -6 89 -28 199 -3 16 -28 44 -52 58 -16 10 -17 15 -8 41 11 29 4
59 -17 73 -10 7 -14 181 -5 203 9 18 -6 56 -56 140 -22 37 -27 57 -23 78 5 21
-1 42 -20 77 -19 33 -27 63 -28 101 -1 46 -5 56 -29 74 -15 11 -28 29 -28 40
0 10 -4 26 -9 36 -6 10 -6 23 -1 31 7 11 11 11 24 1 9 -7 24 -10 33 -7 15 6
12 10 -15 28 -31 19 -33 24 -27 59 6 33 2 45 -26 84 -28 38 -31 49 -22 64 13
22 8 31 -19 31 -21 0 -24 30 -5 49 19 19 14 227 -7 266 -9 17 -16 41 -16 54 0
14 -9 35 -21 47 -16 17 -18 27 -11 41 5 10 13 41 17 69 6 51 6 52 -29 74 -34
20 -35 23 -21 43 21 30 19 37 -15 49 -22 7 -29 15 -25 27 6 19 -66 91 -90 91
-34 0 -34 109 -1 164 31 50 21 87 -35 136 -38 32 -41 38 -30 58 9 17 9 32 2
55 -5 18 -10 50 -9 72 0 22 0 49 -2 60 -2 11 0 31 4 45 6 21 -1 33 -43 76 -52
53 -53 61 -8 77 18 7 17 9 -6 36 -17 21 -26 47 -31 90 -6 50 -12 64 -37 85
-20 17 -43 26 -66 26 -19 0 -48 8 -64 17 l-29 18 -39 -43 c-21 -23 -45 -42
-54 -42 -8 0 -28 -7 -43 -15 -16 -8 -47 -15 -70 -15 -89 0 -113 -67 -113 -320
0 -127 -2 -163 -6 -170 -2 -3 1 -57 6 -120 8 -88 14 -118 27 -129 17 -14 16
-19 -14 -75 l-32 -60 19 -27 c19 -28 19 -28 -2 -43 -17 -12 -22 -27 -26 -79
-4 -57 -1 -69 22 -103 15 -22 33 -43 41 -47 22 -13 16 -25 -15 -32 -16 -3 -35
-13 -42 -21 -15 -18 -5 -81 17 -105 14 -16 15 -24 6 -45 -10 -19 -9 -31 2 -52
9 -18 14 -63 14 -130 0 -57 5 -116 12 -132 10 -24 9 -33 -4 -52 -9 -12 -16
-35 -16 -51 0 -16 -5 -38 -11 -49 -6 -12 -11 -44 -10 -72 0 -27 -4 -80 -10
-116 -19 -120 -21 -196 -4 -210 19 -16 19 -49 0 -74 -19 -25 -19 -36 -1 -36 9
0 12 -8 8 -25 -2 -14 3 -36 12 -50 15 -24 15 -27 -3 -63 -10 -20 -26 -61 -35
-91 -14 -52 -14 -57 4 -99 24 -55 25 -59 1 -104 -10 -20 -21 -59 -25 -87 -6
-43 -3 -54 19 -86 13 -21 22 -42 18 -49 -8 -12 -21 -93 -28 -171 -3 -27 -6
-158 -8 -290 -2 -132 -7 -251 -10 -265 -5 -17 0 -31 14 -47 15 -15 19 -28 14
-40 -4 -10 -9 -43 -10 -73 -1 -31 -8 -73 -16 -93 -11 -32 -11 -41 3 -65 8 -15
18 -49 22 -77 5 -44 4 -52 -16 -66 -18 -14 -21 -26 -19 -63 1 -29 -6 -63 -18
-92 -20 -44 -22 -46 -53 -39 -42 9 -84 9 -127 0 l-33 -8 7 41 c6 38 5 42 -25
57 -29 15 -33 35 -6 35 20 0 46 34 46 59 0 13 9 34 20 48 24 31 25 45 4 86
-20 39 -40 52 -78 52 -18 0 -30 6 -32 15 -2 8 -6 25 -10 37 -5 18 1 26 27 42
31 19 34 25 35 76 1 30 7 62 14 70 7 9 10 28 6 47 -3 18 -7 59 -7 90 -1 40 -7
64 -21 81 -16 20 -20 41 -21 103 0 73 2 79 28 100 18 14 26 28 22 38 -6 14
-16 16 -57 10 -44 -6 -54 -4 -75 16 -56 52 19 176 76 124 10 -9 19 -26 19 -36
0 -15 5 -18 23 -12 28 9 95 65 96 81 1 15 -32 34 -56 31 -58 -5 -74 18 -42 61
17 23 19 36 14 74 -4 26 -13 52 -21 58 -19 16 -18 39 4 55 14 11 15 16 4 31
-30 43 -36 64 -25 82 18 29 18 103 0 137 -14 28 -14 31 3 41 46 29 44 237 -3
267 -10 7 -23 4 -42 -8 -24 -16 -28 -16 -51 -1 -37 24 -37 24 43 90 17 15 45
40 62 55 l31 28 -22 59 c-12 32 -23 60 -25 63 -2 2 -33 3 -68 2 -40 -2 -66 1
-70 8 -6 9 3 10 34 5 27 -4 41 -3 41 4 0 22 41 51 71 51 31 0 31 1 26 35 -5
30 -3 35 15 35 14 0 18 -5 14 -15 -4 -10 0 -14 14 -12 33 5 42 21 31 50 -6 14
-7 29 -2 31 9 6 8 43 -2 52 -4 4 -7 14 -7 21 0 8 -13 26 -30 40 -16 13 -30 30
-30 37 0 6 25 36 55 66 59 58 75 98 57 147 -6 19 -6 37 1 53 6 14 11 52 12 84
l1 59 -41 18 c-66 29 -96 64 -125 142 -7 21 -6 37 5 63 11 26 12 41 5 55 -9
15 -4 22 27 42 21 14 47 34 57 46 11 11 26 21 33 21 8 0 13 6 10 13 -2 7 -16
11 -35 9 -23 -3 -32 1 -32 12 0 24 16 59 39 85 21 24 25 37 21 78 -1 12 4 32
10 43 9 17 8 25 -5 40 -13 15 -15 25 -7 47 8 24 5 34 -26 73 -20 25 -41 48
-47 53 -14 10 13 27 44 27 18 0 22 4 16 18 -4 9 -10 31 -12 47 -2 17 -9 40
-15 52 -8 17 -6 28 13 54 18 25 23 44 21 82 -2 39 3 55 21 77 22 26 23 32 15
91 -13 83 -22 104 -43 104 -30 0 -39 52 -15 83 11 14 20 33 20 42 0 10 7 23
16 31 8 7 13 20 11 29 -2 9 2 28 9 41 17 30 18 93 2 122 -13 24 -33 47 -43 47
-3 0 -38 15 -78 34 -70 33 -139 54 -205 64 -45 6 -82 -20 -82 -58 0 -20 -12
-43 -35 -69 -19 -21 -35 -44 -35 -51 0 -6 -9 -23 -20 -37 -11 -14 -20 -36 -20
-49 0 -30 -48 -162 -70 -194 -9 -14 -20 -45 -24 -70 -3 -25 -9 -63 -12 -85 -3
-22 -17 -52 -30 -66 -14 -14 -30 -43 -35 -64 -6 -21 -28 -56 -50 -78 -27 -28
-39 -49 -39 -69 0 -15 -9 -45 -20 -65 -11 -21 -20 -57 -20 -83 0 -25 -7 -54
-15 -64 -8 -11 -15 -37 -15 -59 0 -25 -13 -65 -39 -115 -55 -108 -73 -151 -81
-197 -20 -108 -31 -151 -45 -171 -8 -12 -17 -37 -20 -56 -3 -18 -20 -47 -36
-64 -25 -25 -28 -35 -21 -55 6 -15 6 -34 0 -49 -5 -14 -16 -49 -24 -79 -9 -34
-28 -69 -49 -93 -20 -22 -35 -49 -35 -63 0 -14 -14 -51 -32 -82 -29 -51 -32
-64 -31 -137 0 -64 -4 -92 -23 -135 -13 -29 -24 -61 -24 -70 0 -9 -9 -34 -20
-56 -11 -22 -20 -50 -20 -62 0 -36 -48 -124 -86 -160 -30 -28 -33 -36 -24 -54
10 -17 8 -25 -7 -42 -33 -38 -73 -102 -73 -118 0 -7 -14 -34 -30 -59 -16 -25
-30 -50 -30 -57 0 -7 -6 -27 -14 -45 -8 -18 -24 -77 -36 -130 -12 -53 -28
-103 -36 -109 -23 -19 -76 -143 -95 -224 -6 -22 -16 -49 -23 -60 -7 -11 -16
-37 -20 -58 -4 -20 -19 -52 -34 -70 -62 -73 -86 -118 -93 -177 -4 -34 -15 -71
-27 -88 -26 -35 -38 -102 -24 -128 7 -14 6 -29 -4 -53 -8 -18 -14 -46 -14 -62
0 -18 -15 -46 -43 -81 -63 -77 -94 -136 -101 -192 -3 -27 -12 -59 -20 -70 -7
-12 -15 -32 -18 -46 -16 -69 -40 -145 -58 -180 -14 -27 -21 -61 -21 -104 -1
-66 -30 -141 -79 -203 -15 -19 -20 -36 -16 -54 3 -16 -3 -42 -15 -65 -11 -22
-24 -61 -29 -89 -17 -98 -56 -209 -89 -251 -12 -15 -21 -41 -21 -60 0 -20 -9
-44 -25 -63 -19 -22 -24 -36 -19 -55 4 -19 -1 -30 -25 -52 -17 -15 -31 -36
-31 -46 0 -10 -16 -49 -35 -86 -31 -58 -36 -78 -38 -143 -1 -42 -7 -82 -13
-90 -6 -8 -14 -36 -18 -63 -3 -27 -14 -61 -23 -75 -23 -34 -43 -90 -43 -122 0
-14 -16 -46 -36 -71 -28 -37 -36 -58 -41 -105 -3 -35 -17 -81 -35 -117 -16
-32 -33 -77 -38 -100 -5 -23 -16 -68 -25 -101 -9 -33 -19 -71 -22 -85 -3 -14
-13 -35 -23 -46 -12 -16 -16 -39 -14 -82 1 -34 5 -65 8 -70 6 -11 -16 -22 -41
-22 -32 0 -93 -34 -93 -51 0 -19 -45 -59 -65 -59 -17 0 -29 117 -16 151 5 14
6 32 1 39 -5 7 2 33 16 64 13 28 24 67 24 88 0 28 7 42 30 62 31 25 70 124 70
176 0 30 28 109 47 131 15 18 43 118 43 154 0 13 4 27 10 30 12 7 50 92 50
112 0 22 46 106 70 128 32 29 50 69 50 110 0 20 9 53 20 75 11 22 20 52 20 67
0 15 4 34 9 42 5 8 6 24 1 36 -13 33 4 90 46 158 38 61 44 93 29 149 -7 25 -4
27 33 37 29 8 43 19 52 41 7 16 18 35 26 41 21 17 17 57 -6 64 -27 9 -25 27 6
55 17 17 23 31 19 47 -4 17 3 28 30 49 19 14 35 34 35 43 0 10 14 27 30 39 23
18 30 30 30 57 0 18 4 45 10 60 7 19 6 34 -5 55 -14 28 -14 31 17 75 30 42 33
53 32 118 0 40 -3 90 -6 111 -4 30 0 51 19 88 14 29 23 60 20 74 -4 24 13 46
45 57 9 3 24 17 34 31 15 24 15 28 -2 54 -10 15 -17 32 -15 37 2 6 3 25 2 43
-1 18 3 32 10 32 9 0 57 47 134 134 15 16 15 24 5 62 -10 35 -10 50 1 75 7 18
12 54 10 80 -2 37 2 53 18 71 12 12 21 35 21 53 0 18 11 49 25 69 l26 38 -25
71 -24 72 23 31 c15 19 20 35 15 44 -9 14 27 50 50 50 6 0 18 16 26 35 8 21
31 45 54 60 22 14 50 40 62 59 12 18 41 46 65 61 50 31 66 54 52 76 -5 7 -16
38 -24 66 -13 43 -13 56 -3 73 11 17 10 22 -10 35 -23 17 -30 49 -12 60 6 3 7
17 4 30 -8 33 28 105 66 133 16 13 30 28 30 35 0 7 38 50 85 97 92 91 120 143
97 181 -7 10 -8 19 -3 19 5 0 21 20 35 46 27 49 26 56 -21 147 -11 22 -12 31
-3 42 15 18 5 35 -19 35 -31 0 -42 22 -31 61 14 49 52 120 68 126 7 3 19 18
27 33 13 25 13 30 -5 53 -11 14 -20 30 -20 36 0 14 23 14 36 1 8 -8 15 -6 23
4 16 19 6 36 -21 36 -12 0 -18 3 -14 8 4 4 13 7 19 7 6 0 11 21 12 48 2 39 8
54 33 80 23 24 30 38 26 55 -5 15 3 32 25 57 17 20 31 40 31 46 0 6 11 25 25
43 14 18 25 38 25 44 0 7 4 12 9 12 15 0 30 52 36 125 4 39 15 88 24 110 51
116 66 247 35 313 -16 35 -12 52 14 52 9 0 26 7 37 16 17 13 18 17 6 36 -11
17 -10 23 2 35 13 13 19 13 48 0 57 -25 70 -27 90 -17 16 9 17 15 9 31 -14 25
-7 48 30 94 42 53 56 101 36 123 -22 25 -4 72 64 172 22 32 60 119 60 136 0 7
9 28 20 46 11 18 20 47 20 65 0 25 8 38 31 55 29 22 30 25 25 78 -4 35 0 70 8
95 9 26 11 46 5 57 -5 9 -9 34 -9 55 0 21 -6 47 -14 58 -17 25 -8 50 30 90 29
30 31 30 129 29 55 -1 132 -5 172 -9 58 -6 89 -4 167 14 87 20 103 21 171 10
42 -6 78 -16 81 -20 11 -18 43 -9 46 13 4 25 66 50 113 46 24 -2 31 -8 33 -30
4 -38 33 -36 55 2 14 23 25 30 49 30 16 0 52 11 79 25 27 13 84 31 127 39 42
8 90 19 105 25 16 6 41 11 56 11 15 0 51 8 80 19 50 17 57 18 99 3 53 -18 107
-8 207 40 33 15 69 28 80 28 28 0 56 22 88 67 25 37 27 43 17 92 -7 36 -7 59
1 72 6 11 9 30 8 42 -1 12 1 34 5 49 6 22 2 36 -24 71 -31 44 -31 45 -15 77 9
17 13 39 10 48 -31 77 -42 161 -26 191 8 14 10 37 6 60 -12 71 -5 215 14 249
10 19 10 28 -3 46 -16 25 -24 167 -11 199 4 10 2 24 -5 32 -10 12 -10 21 -2
38 6 12 13 38 17 58 3 21 11 42 18 47 18 15 144 21 177 9 21 -8 48 -7 107 6
107 22 183 28 222 17 25 -7 48 -4 98 11 46 15 79 19 108 15 26 -4 59 -1 86 7
76 24 176 39 216 32 33 -5 42 -2 63 20 24 25 28 26 95 19 95 -10 114 -8 155
19 24 16 51 24 86 24 53 1 100 19 123 47 9 11 30 16 61 16 26 0 66 7 90 15 23
8 49 11 58 7 39 -18 227 2 292 31 19 9 69 25 110 37 131 37 211 71 220 94 28
65 136 144 172 125 10 -5 18 -14 18 -19 0 -12 73 -50 96 -50 10 0 36 -11 58
-24 54 -31 94 -40 112 -25 11 9 14 7 14 -15 0 -32 47 -60 86 -50 24 6 25 8 11
19 -10 7 -17 17 -17 24 0 20 30 12 56 -16 58 -63 69 -73 86 -73 10 0 18 -4 18
-10 0 -5 23 -10 51 -10 28 0 60 -5 72 -11 11 -7 54 -13 94 -15 40 -1 77 -5 82
-8 5 -3 9 -17 9 -32 0 -50 30 -62 167 -68 33 -2 73 -8 89 -15 16 -6 43 -9 60
-6 37 7 77 -6 106 -35 27 -27 136 -36 233 -19 55 10 73 18 92 41 14 16 47 47
75 69 29 23 50 48 50 59 0 21 -28 40 -48 33 -18 -7 -72 55 -72 82 0 11 6 30
14 41 8 11 16 33 18 49 2 22 13 34 48 52 51 27 57 34 71 91 6 23 16 42 23 42
6 0 3 5 -7 11 -13 8 -22 7 -33 -2 -13 -10 -17 -10 -24 1 -12 19 19 40 49 33
24 -6 24 -6 16 53 -11 83 -10 101 10 174 23 87 29 164 16 189 -6 11 -23 26
-39 33 -17 9 -26 21 -25 33 1 11 -3 32 -9 48 -8 22 -8 31 4 45 31 35 50 89 54
152 3 36 7 83 9 105 2 22 4 47 4 55 -4 105 3 155 26 182 23 28 24 31 10 64 -8
19 -12 48 -9 63 4 21 0 36 -17 55 -25 29 -33 66 -14 66 8 0 14 24 17 68 3 37
13 83 23 102 11 21 20 64 23 110 3 66 1 78 -17 97 -23 24 -27 53 -11 69 7 7 8
19 1 36 -7 19 -6 31 4 44 18 24 18 54 0 78 -8 11 -13 27 -10 36 3 9 -3 28 -14
41 -10 13 -22 49 -25 79 -18 155 -18 159 -2 182 23 32 21 36 -24 48 -52 14
-53 43 -4 107 19 25 33 54 31 63 -2 10 0 24 4 33 7 11 2 21 -14 34 -32 25 -39
64 -39 217 0 71 -4 140 -9 154 -8 20 -6 34 7 58 17 31 17 33 -5 69 -16 27 -20
46 -15 71 4 24 1 42 -14 66 -14 22 -18 38 -12 48 5 8 5 21 -1 31 -18 35 -10
77 23 114 31 36 31 37 15 65 -9 15 -17 42 -17 59 0 17 -14 57 -30 90 -33 64
-56 163 -44 189 12 28 12 106 -1 127 -6 11 -15 44 -18 74 -4 29 -13 64 -22 77
-8 13 -15 38 -15 56 0 18 -14 56 -30 83 -16 28 -39 69 -51 92 -26 49 -70 75
-144 83 -48 5 -50 6 -52 38 -2 41 -19 62 -78 91 -43 21 -49 22 -147 11 -57 -6
-132 -20 -168 -32 -66 -22 -163 -26 -335 -15 -65 4 -76 2 -162 -37 -50 -22
-102 -51 -115 -63 -36 -34 -221 -124 -268 -130 -42 -6 -43 -6 -38 21 5 23 0
30 -31 46 -20 10 -47 35 -60 54 -15 23 -31 36 -46 36 -12 0 -36 7 -54 16 -27
14 -39 14 -75 4 -41 -11 -46 -10 -99 20 -30 17 -58 37 -61 45 -7 19 -40 19
-56 0 -7 -8 -16 -15 -20 -15 -4 0 -33 25 -64 55 -30 30 -60 55 -65 55 -5 0
-25 14 -43 31 -30 27 -37 30 -79 25 -43 -6 -49 -4 -78 26 -17 17 -31 35 -31
39 0 10 -82 29 -125 29 -21 0 -48 9 -66 22 -17 13 -54 30 -82 39 -46 14 -57
14 -94 2 -38 -13 -44 -13 -84 7 -31 16 -64 23 -124 25 -45 2 -115 12 -156 23
-51 14 -123 22 -229 26 -85 4 -182 8 -215 11 -45 3 -75 -2 -120 -18z m-771
-314 c4 -4 80 -8 169 -9 90 -1 181 -7 204 -13 29 -8 120 -9 295 -5 525 14 566
13 633 -14 59 -25 80 -28 265 -38 63 -3 107 -11 130 -23 19 -10 71 -24 115
-31 47 -8 95 -23 117 -37 21 -13 46 -23 55 -23 23 -1 95 -33 114 -52 8 -8 34
-27 57 -42 40 -25 66 -46 101 -81 12 -12 18 -12 44 1 36 19 57 12 57 -20 0
-40 10 -56 49 -76 20 -10 59 -42 87 -72 54 -55 55 -58 84 -208 6 -30 12 -108
14 -172 2 -64 7 -122 11 -128 10 -16 13 -61 19 -235 3 -82 8 -188 12 -235 3
-47 5 -107 5 -135 -4 -253 -2 -334 10 -356 9 -17 12 -60 10 -141 -1 -65 -2
-139 -2 -165 0 -27 0 -102 -1 -168 -2 -191 -1 -213 6 -335 4 -63 14 -138 22
-167 14 -47 14 -58 -1 -108 -12 -42 -13 -65 -6 -88 19 -66 -16 -476 -47 -532
-11 -20 -17 -62 -20 -130 -6 -147 -5 -189 6 -305 8 -84 7 -109 -4 -127 -9 -14
-14 -51 -14 -95 0 -40 -6 -84 -13 -98 -14 -28 -110 -68 -164 -69 -17 -1 -69
-10 -115 -22 -46 -11 -123 -24 -173 -30 -183 -18 -345 -51 -391 -78 -18 -11
-61 -27 -96 -36 -35 -9 -85 -22 -113 -30 -65 -18 -139 -26 -245 -25 -78 1 -90
-2 -145 -31 -73 -39 -191 -57 -343 -52 -63 2 -111 -1 -124 -8 -21 -11 -128
-18 -353 -23 -89 -1 -128 -6 -152 -19 -25 -13 -37 -14 -62 -6 -24 9 -40 7 -75
-6 -46 -18 -135 -15 -208 6 -20 5 -38 4 -51 -3 -12 -6 -46 -10 -76 -9 -29 1
-78 -6 -108 -14 -46 -14 -69 -14 -147 -5 -80 9 -99 9 -137 -6 -88 -32 -291
-68 -371 -65 -20 1 -54 -8 -77 -19 -26 -14 -48 -19 -62 -15 -18 6 -171 7 -324
2 -16 0 -68 5 -115 12 -47 7 -112 10 -145 7 -38 -4 -79 -2 -112 7 -84 22 -351
20 -441 -4 -69 -18 -76 -19 -135 -3 -38 10 -113 18 -192 19 -85 2 -147 9 -180
20 -35 11 -102 17 -222 20 -140 4 -184 8 -235 25 -35 12 -97 25 -139 29 -42 5
-82 12 -90 16 -7 5 -54 12 -103 16 -141 12 -216 26 -236 44 -23 21 -113 55
-148 55 -15 1 -47 11 -72 23 -38 19 -46 28 -51 58 -3 19 -13 46 -22 59 -9 14
-17 33 -17 44 0 11 -11 32 -25 46 -14 15 -28 38 -30 52 -7 39 -32 93 -49 108
-9 7 -16 25 -16 40 0 15 -8 42 -17 61 -10 19 -19 69 -23 116 -3 45 -11 88 -17
94 -10 10 -9 17 4 31 15 16 15 23 4 56 -8 20 -21 48 -31 62 -10 15 -16 43 -15
70 0 25 -5 55 -12 68 -11 17 -11 27 -2 44 10 19 8 25 -16 46 -19 16 -28 33
-27 52 0 16 -6 34 -14 41 -19 15 -18 28 5 48 10 9 24 32 31 53 12 31 11 44 -4
92 -10 30 -16 68 -15 83 3 33 -9 73 -22 73 -5 0 -9 17 -9 39 0 23 -6 44 -16
52 -26 21 -54 86 -54 124 0 20 -8 47 -17 62 -12 18 -17 47 -17 93 0 64 -2 69
-28 85 -33 19 -35 28 -7 54 16 15 19 23 10 38 -10 20 -14 75 -11 153 3 67 3
177 1 250 -1 36 -1 76 0 90 2 42 -16 133 -34 169 -20 40 -21 63 -5 79 6 6 12
28 14 49 1 21 6 65 12 98 5 33 8 87 6 120 -7 110 -4 137 14 169 19 31 21 76 6
166 -4 28 -1 39 15 54 16 14 21 31 21 66 0 30 7 56 18 71 10 13 24 44 31 69 6
25 16 54 20 65 5 11 14 47 21 80 7 33 25 87 41 120 15 33 32 80 38 104 5 24
14 48 20 54 6 6 11 28 11 48 0 21 4 49 9 63 19 47 253 185 317 186 16 0 46 12
65 26 32 24 40 25 129 23 52 -2 113 0 135 4 144 27 316 52 332 49 7 -2 31 2
54 8 22 6 70 11 107 11 37 0 77 6 93 15 15 8 43 14 60 14 18 0 47 5 66 12 27
10 38 9 67 -4 19 -9 43 -14 54 -11 12 3 36 0 54 -5 41 -13 201 -1 279 21 31 9
73 26 93 38 l36 21 75 -27 74 -27 65 17 c73 20 153 16 192 -10 28 -18 169 -21
211 -3 15 6 82 12 148 13 119 2 207 12 316 36 49 11 62 10 101 -4 52 -20 99
-22 145 -5 28 10 38 9 62 -5 39 -23 102 -21 181 3 58 19 200 42 240 40 8 0 51
-3 96 -6 64 -5 88 -3 112 10 17 9 48 16 70 16 43 0 108 28 136 59 15 16 31 21
72 21 34 0 58 5 66 15 14 15 50 20 62 8z m4106 -338 c0 -8 -7 -15 -16 -15 -21
0 -12 -44 17 -80 32 -41 59 -103 59 -138 0 -18 7 -46 15 -62 10 -20 16 -73 19
-184 3 -108 8 -161 17 -172 10 -12 10 -20 1 -35 -8 -12 -9 -30 -5 -47 4 -15 6
-35 4 -44 -1 -9 5 -30 13 -47 9 -16 16 -46 16 -65 0 -19 7 -56 15 -81 13 -37
14 -64 7 -148 -6 -56 -8 -105 -6 -109 2 -3 6 -30 9 -60 2 -29 12 -82 20 -117
9 -35 14 -72 11 -84 -3 -11 2 -33 10 -48 10 -21 11 -35 4 -55 -6 -15 -11 -74
-12 -133 -1 -94 1 -111 23 -151 18 -35 26 -68 31 -145 24 -326 29 -417 27
-480 -4 -115 -2 -176 6 -265 6 -71 5 -91 -9 -117 -18 -36 -21 -114 -5 -144 5
-11 12 -63 14 -115 3 -78 0 -103 -15 -137 -63 -141 -76 -219 -45 -264 23 -33
15 -204 -13 -266 -17 -38 -19 -53 -11 -74 6 -17 8 -83 3 -178 -8 -187 -8 -200
1 -251 9 -50 -4 -78 -46 -99 -38 -20 -126 -21 -163 -2 -17 9 -42 13 -62 10
-24 -4 -40 0 -61 16 -23 19 -35 21 -75 16 -42 -6 -50 -4 -74 20 -15 15 -43 34
-63 42 -19 8 -49 25 -65 37 -34 25 -110 59 -129 59 -7 0 -24 -3 -39 -6 -22 -6
-35 0 -73 33 -25 22 -49 40 -53 40 -4 0 -22 14 -41 30 -33 29 -70 44 -141 55
-39 6 -100 55 -100 80 0 9 -23 27 -57 43 -48 23 -58 33 -66 62 -6 26 -5 41 7
61 8 14 13 28 10 31 -2 3 -6 30 -7 60 -2 37 -10 64 -26 87 -13 17 -21 40 -19
49 3 9 -1 30 -7 46 -9 22 -9 36 1 66 17 48 44 206 42 247 0 18 6 43 15 57 10
14 17 43 17 64 0 33 -6 43 -42 72 l-41 33 26 23 c22 19 27 32 27 71 0 26 5 66
10 88 6 26 5 44 -2 52 -6 7 -8 25 -5 40 3 15 0 55 -6 90 -9 60 -9 65 14 89
l23 25 -27 25 c-30 28 -34 46 -13 64 10 8 12 18 7 33 -5 12 -12 58 -16 102 -4
44 -10 85 -13 90 -4 6 -8 51 -9 100 -1 50 -4 146 -6 215 -4 96 -2 129 8 140
14 16 23 176 12 217 -3 12 -2 36 3 52 6 22 4 33 -6 42 -8 6 -14 21 -14 33 -1
11 -7 32 -15 46 -18 31 -19 71 -3 105 8 19 8 31 -1 52 -10 23 -9 30 7 52 12
17 16 33 12 46 -4 11 -5 43 -3 71 4 39 0 64 -20 114 -20 48 -24 68 -16 82 6
11 8 27 4 36 -4 9 -6 52 -6 94 2 66 -1 81 -20 102 -21 25 -45 75 -56 123 -3
12 5 39 21 65 20 34 26 58 26 102 0 84 26 119 62 83 41 -41 85 -46 143 -17
l40 20 27 -20 c15 -11 30 -20 33 -20 4 0 34 16 67 35 40 24 64 32 74 27 13 -8
13 -10 0 -21 -15 -13 -22 -41 -11 -41 4 0 20 7 36 16 19 9 41 13 59 9 39 -9
146 28 288 100 62 31 134 60 160 65 64 11 174 59 190 81 16 23 42 25 42 4z
m-3590 -4825 c0 -5 -7 -10 -16 -10 -8 0 -12 5 -9 10 3 6 10 10 16 10 5 0 9 -4
9 -10z m-627 -116 c14 -4 17 -17 17 -63 0 -40 5 -63 15 -71 8 -7 22 -35 30
-62 8 -29 25 -58 40 -70 15 -12 25 -29 24 -42 0 -11 0 -25 1 -31 1 -5 3 -59 4
-120 2 -102 4 -113 29 -149 35 -50 43 -81 28 -112 -6 -14 -9 -30 -5 -35 3 -6
1 -16 -6 -24 -9 -10 -7 -16 7 -24 17 -10 16 -12 -6 -32 -21 -17 -24 -28 -22
-67 1 -25 7 -52 13 -59 6 -7 8 -23 5 -34 -3 -12 1 -35 9 -50 33 -64 11 -84
-101 -93 -165 -14 -222 -24 -260 -45 -22 -11 -56 -21 -76 -21 -20 0 -56 -9
-80 -20 -31 -14 -66 -20 -118 -20 -68 0 -78 -3 -103 -27 -26 -25 -35 -27 -93
-25 -42 2 -73 -2 -93 -12 -16 -8 -60 -18 -98 -21 -38 -3 -93 -13 -121 -22 -49
-16 -55 -16 -88 0 -20 9 -59 17 -88 17 -29 0 -83 10 -120 22 -66 21 -70 22
-99 5 -29 -17 -32 -17 -72 3 -22 11 -60 37 -83 57 l-42 38 -11 137 c-10 117
-15 145 -37 184 -17 31 -27 65 -29 99 -1 28 -9 65 -17 82 -10 19 -12 34 -6 44
5 8 9 38 9 67 0 62 20 116 49 132 27 14 27 35 0 68 -17 22 -19 35 -14 73 6 41
4 48 -13 53 -15 5 -21 18 -24 48 -3 34 0 43 20 56 17 11 22 21 17 39 -7 30 17
31 52 3 25 -19 93 -28 93 -12 0 4 28 14 63 21 34 7 67 17 74 22 7 7 31 4 69
-7 45 -13 85 -16 184 -12 70 3 137 1 150 -4 28 -10 132 13 189 42 20 10 59 21
86 24 28 2 50 5 50 6 0 3 51 10 77 11 10 0 20 4 23 10 9 13 85 11 85 -2 0 -18
197 6 235 29 19 11 132 9 178 -4z m-148 -3098 c29 -15 41 -29 43 -48 3 -25 0
-27 -40 -30 -37 -3 -43 -6 -41 -24 1 -12 -6 -29 -16 -39 -18 -15 -21 -15 -44
0 -14 9 -36 33 -50 53 -25 39 -40 109 -23 115 28 9 135 -7 171 -27z m-1128
-478 c-3 -8 -6 -5 -6 6 -1 11 2 17 5 13 3 -3 4 -12 1 -19z m843 -608 c0 -5 -4
-10 -10 -10 -5 0 -10 5 -10 10 0 6 5 10 10 10 6 0 10 -4 10 -10z m-585 -130
c-3 -5 -12 -10 -20 -10 -8 0 -17 5 -20 10 -4 6 5 10 20 10 15 0 24 -4 20 -10z
m-1387 -1938 c2 -14 -2 -22 -12 -22 -19 0 -29 17 -22 36 8 22 30 12 34 -14z
m1460 -914 c2 -11 -3 -18 -12 -18 -9 0 -24 -9 -33 -20 -34 -39 -63 -16 -43 34
9 24 15 27 47 24 27 -2 39 -8 41 -20z m238 -69 c4 -6 7 -37 8 -67 1 -34 6 -57
14 -60 16 -5 15 -34 -2 -57 -14 -20 -11 -92 5 -109 5 -6 9 -28 9 -50 0 -23 7
-50 15 -60 13 -17 13 -23 -1 -44 -11 -17 -14 -36 -10 -62 4 -24 0 -51 -9 -74
-15 -36 -12 -106 5 -106 14 0 39 -66 33 -89 -3 -12 0 -34 8 -48 13 -24 12 -27
-23 -57 l-37 -31 3 -100 c2 -56 8 -110 13 -120 7 -13 7 -43 1 -88 -6 -43 -6
-111 0 -180 6 -65 6 -119 1 -129 -11 -21 -11 -113 1 -203 5 -43 5 -74 -1 -81
-12 -14 -16 -244 -5 -262 8 -14 -13 -65 -46 -110 -9 -12 -14 -31 -11 -42 3
-12 -5 -35 -20 -58 -14 -20 -29 -49 -32 -64 -9 -34 -35 -45 -52 -22 -23 31
-16 67 19 95 l32 26 -32 89 c-21 59 -31 106 -30 139 1 28 -4 70 -11 94 -8 31
-9 47 -1 55 15 15 12 35 -9 63 -20 24 -20 24 5 70 13 25 24 51 24 58 0 11 -20
59 -41 97 -5 10 -9 24 -9 32 0 7 -7 19 -15 26 -9 7 -12 22 -9 39 5 22 2 29
-14 33 -18 5 -19 13 -16 109 1 57 4 109 5 114 1 6 -2 22 -6 38 -5 17 -3 27 4
27 6 0 11 16 11 35 0 29 5 38 28 48 38 16 43 27 36 70 -5 30 -1 42 20 68 14
17 24 35 21 40 -3 5 -8 42 -11 82 -3 58 -1 77 11 87 22 18 19 36 -11 59 -31
25 -69 27 -78 6 -6 -17 -39 -20 -66 -5 -22 12 -17 36 10 43 10 2 24 17 32 33
12 26 19 29 58 29 69 0 120 57 74 83 -9 5 -20 29 -24 53 -8 40 -6 48 26 95 33
48 35 54 30 115 -9 111 -15 141 -32 160 -31 34 6 77 68 78 15 1 30 -4 34 -10z
m-466 -929 c0 -5 -4 -10 -10 -10 -5 0 -10 5 -10 10 0 6 5 10 10 10 6 0 10 -4
10 -10z m160 -1389 c17 -5 26 -16 31 -40 6 -27 2 -36 -20 -57 -49 -45 -76 -41
-107 17 -37 72 4 106 96 80z m-3056 -7 c22 -9 20 -34 -3 -34 -17 0 -51 24 -51
36 0 6 36 5 54 -2z m3291 -130 c8 -4 23 -20 31 -36 12 -24 13 -35 3 -62 -10
-28 -9 -37 4 -57 24 -33 21 -58 -10 -103 -25 -38 -26 -41 -11 -80 10 -27 15
-75 14 -144 l-1 -103 37 -10 c50 -13 71 -46 66 -101 -3 -27 1 -51 9 -65 13
-20 12 -23 -15 -37 -17 -9 -40 -28 -52 -43 -24 -31 -63 -46 -89 -34 -73 35
-76 37 -81 70 -3 20 -19 46 -39 66 l-33 33 31 16 c17 9 31 21 31 25 0 5 12 23
26 40 23 28 26 41 28 118 2 65 -2 100 -16 136 -15 39 -17 56 -8 81 5 17 10 43
9 56 0 14 6 63 15 108 9 46 13 95 10 108 -6 25 7 31 41 18z m-3295 -34 c0 -11
-9 -24 -20 -30 -15 -8 -20 -21 -20 -51 0 -51 -23 -95 -60 -114 -21 -11 -30
-23 -32 -47 -2 -25 -8 -33 -23 -33 -30 0 -32 47 -3 87 13 18 26 35 31 36 4 2
7 23 7 47 0 45 19 75 46 75 8 0 14 9 14 20 0 12 9 24 23 29 27 11 37 6 37 -19z
m-174 -324 c3 -8 1 -23 -5 -34 -8 -15 -7 -31 4 -62 20 -55 10 -118 -21 -145
-13 -11 -25 -29 -27 -40 -6 -33 -76 -177 -101 -206 -22 -26 -31 -54 -57 -189
-6 -30 -20 -77 -30 -105 -32 -89 -50 -148 -69 -233 -15 -66 -25 -88 -48 -107
-20 -16 -34 -43 -46 -87 -11 -40 -28 -74 -47 -94 -27 -27 -31 -39 -32 -93 -2
-49 2 -65 15 -75 10 -7 21 -27 24 -43 5 -25 1 -34 -17 -47 -13 -9 -35 -16 -49
-16 -14 0 -31 -4 -39 -9 -12 -8 -13 -12 -1 -26 11 -13 11 -20 0 -40 -10 -19
-21 -25 -47 -25 -28 0 -36 -5 -44 -29 -5 -15 -21 -34 -35 -42 -28 -15 -54 -57
-54 -88 0 -11 -4 -23 -10 -26 -5 -3 -10 -24 -10 -45 0 -22 -8 -55 -17 -74 -13
-29 -14 -42 -6 -70 11 -37 -3 -74 -40 -105 -10 -7 -17 -20 -17 -27 0 -7 -9
-28 -20 -46 -11 -18 -20 -45 -20 -59 0 -14 -13 -45 -30 -67 -16 -23 -30 -51
-30 -61 0 -11 -4 -30 -9 -43 -5 -13 -14 -41 -20 -63 -16 -53 -63 -148 -78
-158 -7 -4 -13 -23 -13 -41 0 -19 -7 -39 -15 -46 -8 -7 -15 -18 -15 -24 0 -11
-9 -29 -53 -108 -15 -26 -27 -57 -27 -70 0 -25 -22 -93 -45 -145 -8 -17 -15
-38 -15 -48 0 -9 -7 -30 -16 -48 -26 -49 -65 -167 -73 -219 -4 -27 -17 -58
-29 -71 -12 -13 -22 -35 -22 -48 0 -14 -11 -36 -24 -48 -13 -12 -26 -35 -29
-49 -12 -64 -47 -174 -62 -194 -8 -13 -15 -36 -15 -53 0 -22 -10 -41 -34 -64
-19 -18 -42 -54 -51 -80 -10 -25 -29 -63 -43 -84 -20 -29 -23 -42 -15 -60 5
-12 8 -49 7 -82 -2 -58 -4 -61 -41 -84 -47 -29 -54 -40 -47 -68 4 -14 -4 -35
-20 -60 -14 -20 -26 -49 -26 -64 0 -15 -11 -36 -26 -50 -19 -18 -24 -31 -21
-54 4 -25 -3 -38 -40 -78 -28 -30 -43 -54 -39 -63 6 -16 -26 -88 -44 -99 -5
-3 -10 -13 -10 -21 0 -9 -13 -27 -30 -41 -16 -13 -30 -29 -30 -34 0 -5 -20
-51 -45 -102 -25 -52 -45 -97 -45 -101 0 -5 -15 -26 -34 -48 -19 -21 -41 -58
-49 -81 -8 -23 -24 -68 -36 -100 -12 -32 -19 -68 -16 -78 5 -14 -1 -26 -19
-40 -19 -15 -26 -30 -26 -54 0 -18 -7 -38 -16 -46 -12 -10 -14 -23 -9 -55 8
-53 -19 -138 -67 -214 -19 -30 -49 -84 -67 -120 -18 -36 -46 -79 -61 -96 -22
-26 -29 -45 -34 -105 -4 -41 -15 -86 -24 -101 -12 -21 -13 -30 -3 -42 10 -12
7 -18 -19 -38 -32 -23 -70 -84 -70 -112 0 -8 -11 -28 -25 -44 -14 -17 -35 -51
-46 -77 -11 -25 -32 -63 -45 -82 -21 -31 -23 -44 -18 -84 5 -39 3 -53 -15 -77
-11 -17 -21 -37 -21 -46 0 -21 -37 -39 -65 -32 -19 5 -23 15 -29 61 -5 47 -2
62 19 103 24 47 36 132 22 162 -5 11 1 19 23 27 28 11 31 15 29 52 -2 33 2 45
24 65 30 27 51 72 43 92 -2 6 6 22 20 35 19 18 24 33 24 69 0 26 9 69 19 96
10 27 29 83 41 124 15 50 41 100 76 152 30 42 54 86 54 98 0 11 14 47 30 80
17 33 30 69 30 81 0 11 8 33 19 47 10 15 28 47 41 71 12 25 31 52 41 60 12 11
20 33 23 64 2 26 11 56 20 66 9 9 20 39 25 65 5 26 15 54 24 64 8 9 26 40 41
69 20 41 25 61 20 95 -5 36 -2 46 15 62 13 12 21 31 21 53 0 18 4 33 8 33 14
0 32 65 32 117 0 34 6 58 19 75 11 13 27 50 36 81 9 31 20 59 25 62 6 3 23 34
40 68 38 77 39 125 5 157 -14 13 -25 29 -25 35 0 11 50 66 84 94 15 11 16 23
11 77 l-7 64 45 0 c36 0 48 4 61 25 9 13 16 29 16 35 0 6 13 22 29 36 23 19
30 35 34 72 2 26 10 62 18 79 12 30 11 34 -5 46 -20 15 -14 37 9 37 8 0 22 12
32 28 9 15 29 39 44 53 15 15 33 46 40 70 7 24 21 56 31 71 20 29 38 104 42
173 1 28 14 57 44 99 32 46 40 64 35 86 -4 24 1 35 38 69 59 55 62 59 103 113
57 76 68 104 57 143 -7 28 -6 37 9 50 11 10 19 29 19 44 -1 55 16 98 51 128
38 33 110 164 113 205 2 22 15 54 54 131 8 16 16 39 18 53 1 13 10 33 20 44
13 14 16 28 11 52 -12 60 2 94 44 111 34 13 43 25 89 118 28 56 51 112 51 124
0 12 3 25 7 29 7 6 13 29 15 54 1 6 6 12 12 12 6 0 3 5 -6 11 -25 14 -22 38 7
61 14 11 25 28 25 39 0 11 8 47 17 80 16 56 16 62 0 89 -23 37 -22 46 8 72 14
12 25 30 25 40 0 9 13 24 29 32 20 11 33 29 45 65 9 27 16 56 16 64 0 7 11 24
25 37 22 21 26 32 24 75 -1 28 3 60 9 72 7 12 11 32 11 45 -3 41 19 77 57 95
48 23 77 73 64 108 -7 20 -5 30 16 54 13 16 31 45 39 63 7 19 21 40 29 48 9 7
16 19 16 28 0 8 7 23 16 33 13 14 13 21 3 37 -10 16 -10 26 -1 44 6 13 12 34
14 48 2 20 9 26 35 28 40 4 59 24 38 42 -21 18 -21 123 1 141 9 7 13 21 10 35
-7 28 14 46 51 44 46 -3 51 -1 59 23 13 45 48 64 60 33z m-940 -1377 c3 -6 0
-18 -9 -26 -18 -18 -37 -9 -37 18 0 21 34 27 46 8z m4528 -3319 c0 -25 -10
-66 -22 -92 -12 -26 -22 -58 -22 -71 0 -28 -35 -77 -55 -77 -8 0 -21 10 -29
23 -21 31 -3 150 28 189 11 15 29 39 39 53 12 17 26 25 40 23 19 -3 22 -9 21
-48z m-5951 -22 c6 -8 7 -23 4 -32 -9 -23 -44 -20 -58 6 -10 18 -8 24 7 35 21
15 34 13 47 -9z m-38 -228 c3 -5 -1 -10 -9 -10 -9 0 -16 5 -16 10 0 6 4 10 9
10 6 0 13 -4 16 -10z m-81 -16 c18 -7 21 -30 6 -39 -16 -10 -50 14 -44 30 7
16 14 18 38 9z m5431 -264 c0 -18 -6 -26 -22 -28 -18 -3 -23 1 -23 21 0 28 9
39 30 35 9 -2 15 -14 15 -28z m-4875 -350 c0 -6 -7 -22 -16 -35 -9 -14 -13
-32 -10 -41 10 -26 -3 -54 -25 -54 -19 0 -39 34 -39 65 0 21 52 75 73 75 9 0
17 -5 17 -10z m5038 -1186 c13 -4 22 -14 22 -26 0 -30 -54 -21 -58 10 -4 23 0
25 36 16z m5 -545 c40 -11 45 -22 22 -45 -15 -16 -22 -59 -7 -51 12 7 67 -29
67 -44 0 -25 -34 -21 -90 13 -37 22 -55 39 -55 53 0 11 -7 29 -15 39 -20 27
-19 34 8 39 12 2 24 5 27 6 3 0 22 -4 43 -10z"/>
<path d="M11720 23800 c-14 -4 -46 -8 -71 -9 -26 -1 -66 -8 -90 -17 -24 -8
-68 -19 -98 -24 -30 -5 -61 -16 -70 -23 -9 -8 -46 -17 -84 -20 -37 -2 -74 -10
-82 -17 -9 -7 -18 -10 -22 -7 -3 4 -12 2 -19 -4 -7 -6 -19 -7 -26 -3 -19 12
-46 13 -121 7 -57 -5 -71 -10 -96 -35 -30 -31 -61 -30 -61 2 0 32 -26 44 -68
32 -20 -6 -75 -16 -122 -23 -47 -6 -110 -15 -140 -20 -30 -4 -135 -15 -234
-23 -167 -15 -181 -17 -214 -43 -31 -23 -44 -27 -108 -26 -56 0 -79 5 -108 22
-20 13 -36 28 -36 35 0 9 -27 15 -86 20 -75 5 -89 4 -113 -13 -18 -13 -32 -17
-42 -10 -32 20 -58 9 -89 -36 -17 -25 -39 -45 -48 -45 -10 0 -34 15 -54 34
-46 44 -104 55 -149 29 -31 -18 -31 -18 -46 5 -15 22 -43 30 -43 13 0 -16 -40
-23 -55 -11 -27 22 -102 22 -150 0 -25 -11 -77 -25 -115 -29 -39 -5 -82 -17
-96 -25 -18 -12 -29 -14 -43 -6 -30 16 -51 12 -83 -15 -21 -18 -41 -25 -70
-25 -36 0 -46 -5 -75 -40 -22 -25 -43 -40 -58 -40 -41 0 -145 37 -163 59 -23
27 -132 43 -132 18 0 -13 -16 -15 -102 -13 -57 1 -111 6 -121 10 -9 5 -32 5
-50 2 -17 -4 -63 -9 -102 -12 -38 -3 -80 -7 -92 -10 -29 -6 -53 -52 -53 -102
0 -34 -4 -40 -35 -55 -20 -9 -38 -25 -41 -34 -10 -32 -47 -97 -71 -126 -18
-23 -23 -40 -23 -90 0 -52 -4 -65 -26 -88 -21 -22 -32 -26 -59 -22 -32 5 -33
4 -48 -48 -15 -48 -14 -55 0 -80 14 -23 14 -30 3 -44 -7 -8 -13 -34 -13 -58 1
-23 -3 -46 -7 -52 -4 -5 -10 -42 -14 -82 -6 -71 -5 -73 25 -108 l31 -35 -1
-117 c-1 -65 -7 -123 -12 -130 -7 -8 -7 -18 0 -32 6 -11 11 -32 11 -47 0 -41
45 -94 79 -94 16 0 33 -6 39 -12 20 -26 20 -82 0 -121 l-19 -37 26 -28 c14
-15 25 -31 26 -37 0 -5 2 -53 4 -105 5 -138 23 -277 40 -309 8 -16 12 -31 9
-34 -10 -10 15 -170 31 -193 17 -26 7 -112 -19 -163 -23 -44 -20 -96 9 -139
14 -20 25 -46 25 -57 0 -11 9 -31 20 -45 13 -16 20 -41 20 -70 0 -25 6 -55 14
-66 8 -12 18 -43 22 -71 5 -38 14 -58 38 -81 17 -17 39 -39 49 -49 44 -45 66
-82 72 -126 9 -60 31 -77 86 -67 35 7 43 4 71 -22 17 -15 40 -28 52 -28 62 2
137 -2 326 -17 52 -5 151 -5 219 -1 106 6 128 5 155 -10 19 -10 55 -17 91 -17
46 0 74 -7 117 -29 55 -28 58 -28 92 -12 42 20 96 20 160 1 27 -8 65 -15 84
-15 19 0 59 -12 89 -26 54 -25 55 -25 108 -9 45 15 64 15 122 6 74 -12 114
-10 182 8 23 7 46 10 49 7 3 -4 16 3 28 15 20 19 30 21 76 15 29 -4 132 -8
228 -10 96 -1 185 -6 198 -10 24 -8 264 10 310 23 15 5 54 3 87 -4 84 -17 247
-27 264 -16 10 6 22 2 39 -14 33 -31 77 -38 134 -20 30 9 75 12 120 10 58 -3
79 0 103 15 17 10 46 22 65 25 19 3 45 13 57 21 12 7 38 14 56 14 39 0 97 18
97 30 0 18 34 19 60 0 20 -14 37 -18 59 -14 17 4 51 1 76 -6 53 -15 82 -2 65
30 -6 10 -10 23 -10 29 0 21 47 22 99 2 37 -15 63 -19 91 -15 32 5 40 3 49
-14 16 -30 95 -41 122 -16 19 17 21 17 55 -2 32 -19 39 -19 97 -7 34 7 73 13
88 13 14 0 30 5 36 11 7 7 27 9 55 4 54 -8 119 -8 181 0 29 4 59 3 76 -5 22
-9 44 -9 92 0 35 7 78 13 94 15 126 14 232 51 286 99 20 19 41 35 46 37 5 2
27 29 47 59 35 51 38 59 32 105 -13 102 -30 291 -29 325 1 19 3 51 4 70 1 19
-5 62 -15 95 -9 33 -16 81 -15 106 2 31 -3 56 -14 73 -9 14 -17 42 -17 63 0
21 -9 55 -20 76 -11 20 -20 45 -20 55 0 10 -5 23 -12 30 -8 8 -8 12 -1 12 6 0
18 12 28 26 16 25 16 28 -4 55 -17 23 -19 33 -11 48 5 11 14 21 20 23 11 3 20
86 24 218 3 76 1 88 -20 110 -12 14 -24 43 -27 65 -2 22 -7 51 -11 65 -3 14
-9 72 -12 130 -3 70 -10 113 -21 129 -11 17 -16 60 -18 175 -5 170 -13 238
-44 345 -18 62 -20 82 -12 120 14 62 11 220 -4 251 -12 25 -8 57 13 97 16 29
-3 186 -28 238 -38 81 -49 111 -60 177 -16 91 -23 96 -113 69 -39 -12 -89 -31
-110 -42 -33 -18 -51 -20 -124 -15 -47 3 -91 10 -97 15 -20 15 -66 19 -66 5 0
-7 5 -14 12 -16 7 -3 8 -10 4 -17 -11 -17 -47 -7 -96 25 -44 29 -48 30 -159
15 -60 -9 -92 -9 -116 -1 -44 15 -165 14 -261 -1 -42 -6 -71 -6 -93 2 -33 12
-61 52 -61 88 0 11 -9 25 -19 31 -23 12 -104 12 -141 0z m-612 -501 c28 -25
41 -30 66 -25 17 3 86 10 154 16 68 6 139 17 157 24 38 16 140 11 164 -8 8 -6
53 -12 100 -13 47 -1 106 -4 131 -7 25 -2 77 2 115 9 84 17 379 21 416 7 15
-6 97 -13 183 -16 86 -3 160 -7 165 -10 17 -11 44 -81 53 -140 6 -34 12 -117
14 -186 2 -69 8 -145 13 -170 6 -25 15 -94 20 -155 7 -75 17 -123 31 -151 18
-36 19 -49 11 -120 -6 -59 -5 -87 4 -109 7 -17 14 -70 14 -120 1 -136 24 -258
67 -363 8 -18 11 -38 8 -44 -4 -5 -8 -50 -10 -98 -1 -49 -7 -97 -12 -107 -15
-27 -8 -106 11 -133 11 -16 13 -28 7 -34 -15 -15 -12 -34 8 -54 25 -26 41 -76
30 -96 -5 -9 -11 -38 -12 -65 -3 -39 1 -54 16 -71 18 -19 19 -30 13 -104 -5
-57 -3 -90 5 -105 10 -19 7 -33 -16 -87 -15 -35 -24 -67 -21 -70 9 -10 -12
-44 -27 -44 -7 0 -24 -9 -38 -20 -16 -12 -28 -16 -34 -10 -12 12 -88 21 -183
20 -56 0 -79 -5 -100 -20 -25 -17 -30 -18 -56 -4 -45 23 -191 34 -328 23 -68
-5 -152 -8 -188 -7 -125 2 -280 -20 -359 -52 -184 -75 -260 -91 -309 -66 -32
17 -54 15 -102 -10 -28 -14 -38 -15 -66 -5 -21 8 -53 10 -87 6 -42 -6 -61 -3
-92 13 -26 13 -61 20 -104 21 -36 0 -79 5 -97 10 -18 5 -48 6 -69 1 -20 -5
-43 -6 -50 -3 -8 3 -38 -5 -68 -17 -49 -21 -58 -22 -103 -10 -26 7 -120 15
-208 17 -88 3 -169 5 -180 5 -11 0 -54 0 -95 0 -41 -1 -93 -2 -115 -2 -22 0
-54 -5 -72 -11 -21 -7 -44 -7 -67 0 -20 5 -103 7 -190 4 -101 -3 -167 -1 -189
6 -33 11 -141 19 -362 26 -191 7 -240 10 -255 20 -8 6 -55 13 -105 17 -49 4
-124 12 -165 18 -41 6 -97 13 -125 14 -27 1 -60 8 -72 14 -12 7 -67 14 -121
16 -92 3 -103 5 -145 35 -70 48 -76 57 -70 96 4 24 -1 46 -16 74 -11 23 -21
58 -21 78 0 48 -6 145 -10 158 -6 22 -11 85 -16 205 -5 146 -15 226 -32 257
-7 12 -12 39 -12 60 0 21 -7 63 -15 93 -9 30 -19 80 -24 110 -5 30 -14 68 -21
85 -6 16 -8 46 -5 67 9 49 -17 137 -49 167 -28 26 -51 100 -42 133 7 26 -18
155 -40 206 -16 38 -18 85 -4 144 5 24 13 70 19 103 18 112 51 211 100 299 21
37 77 57 138 49 46 -6 105 13 156 49 28 20 30 20 82 3 30 -9 65 -25 77 -34 40
-31 57 -32 106 -7 68 33 136 49 177 42 31 -6 45 -2 88 25 29 18 67 46 85 61
37 32 54 35 72 13 15 -18 57 -19 97 -4 15 6 59 12 96 14 54 4 77 0 107 -15 30
-15 61 -20 132 -21 61 0 106 -6 131 -17 36 -15 44 -14 115 2 43 10 118 21 167
26 50 5 106 15 126 24 28 12 49 13 97 6 37 -5 89 -5 130 1 37 5 117 12 177 14
61 3 148 8 195 13 46 4 109 5 140 1 34 -4 90 -1 147 8 84 13 94 13 108 -1 10
-10 33 -16 58 -16 48 1 174 33 190 49 19 19 48 12 85 -20z m1161 -3113 c10
-11 8 -16 -9 -21 -21 -7 -50 9 -50 26 0 14 47 10 59 -5z"/>
<path d="M12140 22385 c-30 -8 -104 -26 -164 -40 -60 -14 -117 -30 -127 -35
-10 -6 -35 -9 -56 -9 -26 1 -63 -11 -118 -38 -44 -22 -92 -43 -106 -46 -36 -9
-117 -98 -167 -184 -33 -56 -42 -82 -42 -118 0 -25 -7 -60 -16 -77 -14 -26
-14 -37 -4 -69 11 -31 10 -40 -3 -59 -18 -25 -12 -54 20 -96 12 -17 23 -35 23
-41 0 -13 44 -53 59 -53 7 0 32 -14 57 -30 30 -21 61 -33 96 -37 29 -3 68 -14
86 -24 18 -11 40 -19 48 -19 8 0 31 -8 52 -18 26 -12 61 -17 118 -17 71 0 85
3 115 26 55 41 130 71 194 78 55 6 64 11 110 57 28 27 71 60 96 72 84 41 125
85 157 170 54 142 57 162 37 249 -9 43 -24 92 -31 110 -8 17 -14 37 -14 45 0
39 -144 178 -203 197 -57 17 -159 20 -217 6z m-12 -232 c26 -15 58 -37 72 -50
14 -12 36 -31 50 -41 19 -15 24 -28 23 -58 -1 -22 3 -58 8 -81 8 -40 -3 -93
-20 -93 -4 0 -8 -12 -9 -27 -3 -36 -67 -131 -95 -142 -80 -31 -204 -25 -274
12 -18 9 -44 17 -58 17 -34 0 -65 17 -65 36 0 8 -7 26 -16 40 -12 17 -18 54
-21 117 -4 82 -2 97 19 137 21 41 27 45 60 46 22 0 68 17 117 42 44 23 89 42
99 42 10 0 27 7 38 15 24 18 18 19 72 -12z"/>
<path d="M10924 16159 c-11 -19 13 -34 31 -19 13 11 13 15 3 21 -18 12 -26 11
-34 -2z"/>
<path d="M19793 24861 c-45 -11 -103 -26 -129 -35 -26 -9 -71 -16 -100 -16
-30 0 -75 -7 -101 -16 -26 -9 -90 -27 -141 -40 -51 -12 -105 -32 -120 -42 -15
-11 -46 -25 -68 -31 -35 -9 -50 -23 -102 -93 -69 -92 -69 -104 -1 -140 44 -23
101 -23 177 2 58 19 155 21 183 4 4 -2 23 2 41 9 34 14 92 27 143 32 34 4 125
17 269 40 54 8 107 13 117 10 24 -8 59 11 59 32 0 8 10 31 22 51 19 31 20 38
9 66 -7 17 -14 60 -16 94 -1 35 -8 69 -14 75 -19 19 -140 17 -228 -2z"/>
<path d="M20528 22596 c-1 -2 -50 -6 -108 -9 -121 -7 -192 -28 -351 -105 -57
-27 -135 -62 -172 -77 -70 -28 -89 -47 -68 -68 6 -6 11 -22 11 -36 0 -48 13
-56 97 -58 46 -1 100 5 133 14 61 18 70 19 188 32 64 7 91 15 121 35 33 23 42
25 66 16 40 -15 90 3 103 38 19 49 42 140 42 165 0 13 -6 29 -12 34 -16 12
-45 23 -50 19z"/>
<path d="M19456 19779 c-87 -23 -95 -31 -76 -67 12 -20 31 -32 75 -45 33 -10
88 -28 121 -38 45 -15 75 -18 111 -13 54 7 88 -5 111 -38 31 -43 107 -58 153
-31 24 14 33 15 49 5 26 -16 47 -15 54 3 7 19 40 19 56 0 6 -7 33 -17 58 -20
26 -4 54 -9 64 -11 23 -7 32 -36 13 -46 -19 -11 -3 -48 21 -48 8 0 28 -9 43
-21 28 -20 30 -21 84 -5 82 24 157 114 143 171 -4 14 -14 29 -24 33 -9 4 -42
23 -72 43 -62 41 -131 59 -226 59 -38 0 -74 6 -87 14 -32 21 -141 46 -198 46
-28 0 -62 6 -78 14 -44 23 -306 20 -395 -5z"/>
<path d="M11485 17603 c-60 -5 -86 -26 -110 -90 -16 -40 -16 -53 -6 -94 7 -27
10 -57 7 -67 -4 -11 5 -50 20 -88 14 -38 25 -78 25 -89 0 -11 8 -38 19 -60 80
-167 99 -222 105 -300 4 -44 13 -107 21 -140 7 -33 14 -78 14 -100 0 -42 72
-281 90 -299 5 -5 10 -33 10 -61 0 -32 8 -66 21 -90 15 -30 19 -51 15 -83 -5
-33 0 -54 18 -90 15 -29 27 -75 31 -117 6 -72 25 -130 57 -177 12 -17 16 -36
13 -50 -3 -13 -1 -37 6 -53 7 -17 16 -59 19 -95 4 -36 18 -96 30 -135 13 -38
25 -102 27 -142 3 -46 10 -76 19 -84 8 -6 14 -23 14 -37 0 -14 11 -48 24 -76
23 -48 46 -186 50 -296 1 -19 10 -48 20 -63 19 -29 43 -141 50 -232 2 -27 9
-63 15 -78 6 -16 11 -49 11 -74 0 -29 7 -53 19 -69 16 -21 19 -40 17 -146 -1
-76 3 -136 11 -158 7 -19 12 -55 13 -80 0 -25 7 -70 16 -100 9 -30 20 -113 25
-183 6 -86 14 -135 24 -149 9 -15 13 -34 9 -57 -3 -20 0 -49 6 -66 7 -16 14
-57 16 -89 2 -33 10 -80 18 -105 17 -55 28 -113 31 -161 2 -19 8 -50 14 -67 6
-18 16 -48 22 -65 6 -18 16 -64 21 -103 10 -81 43 -238 64 -309 8 -26 14 -65
14 -86 0 -22 5 -51 11 -67 17 -43 39 -132 39 -155 0 -23 14 -74 35 -123 7 -18
10 -52 8 -82 -4 -37 -1 -57 11 -74 10 -15 16 -45 16 -84 0 -33 7 -78 15 -100
8 -22 14 -57 15 -78 0 -38 29 -106 57 -139 14 -16 29 -70 39 -143 2 -16 9 -42
15 -57 6 -16 9 -38 6 -49 -3 -12 1 -35 9 -51 8 -15 17 -65 21 -111 4 -54 12
-93 24 -114 16 -25 18 -42 13 -86 -6 -46 -3 -61 15 -90 11 -19 21 -50 21 -68
0 -19 7 -45 16 -58 12 -16 16 -41 15 -78 -1 -41 4 -61 20 -84 12 -17 26 -47
31 -67 21 -82 28 -127 22 -144 -3 -9 0 -34 7 -55 6 -21 15 -74 20 -118 13
-133 36 -248 56 -285 19 -37 22 -93 8 -162 -6 -32 -4 -40 19 -61 30 -28 32
-39 10 -72 -9 -13 -13 -29 -9 -36 10 -16 25 -116 35 -239 17 -193 35 -314 54
-350 25 -47 36 -118 24 -152 -7 -21 -7 -33 3 -44 7 -9 12 -32 11 -52 -2 -20 4
-50 11 -67 17 -35 37 -115 37 -148 0 -12 9 -35 20 -52 14 -21 20 -47 20 -85 0
-52 17 -117 42 -164 6 -11 13 -67 15 -125 3 -58 11 -144 19 -191 8 -47 16
-103 17 -126 1 -22 15 -65 30 -94 23 -44 28 -67 28 -125 1 -68 16 -142 38
-184 6 -11 13 -50 16 -88 3 -37 10 -72 15 -77 6 -6 10 -34 10 -63 0 -30 8 -79
18 -111 36 -110 51 -178 61 -277 6 -55 13 -118 15 -140 3 -22 7 -79 9 -126 3
-52 12 -100 22 -119 9 -17 21 -59 26 -93 5 -34 18 -73 28 -87 10 -14 23 -63
30 -115 8 -53 22 -104 34 -124 15 -25 22 -61 28 -140 5 -59 17 -130 28 -161
11 -30 23 -77 27 -105 4 -27 13 -59 20 -70 8 -11 14 -35 14 -55 0 -19 4 -41 9
-49 6 -10 4 -25 -5 -42 -18 -35 -18 -92 0 -127 7 -15 14 -42 14 -60 1 -35 11
-74 21 -82 4 -3 16 -18 28 -33 18 -23 20 -33 11 -52 -9 -19 -7 -30 6 -50 15
-22 16 -36 6 -103 -10 -77 -10 -77 20 -120 16 -23 30 -52 30 -63 0 -11 4 -28
9 -38 6 -10 12 -52 14 -94 2 -42 10 -83 17 -91 7 -9 13 -54 15 -113 4 -124 23
-262 40 -289 11 -18 11 -28 0 -60 -21 -59 -18 -109 10 -162 14 -26 25 -53 25
-60 0 -7 7 -23 15 -35 16 -25 46 -121 65 -212 7 -33 22 -70 33 -82 11 -12 17
-29 14 -37 -4 -9 4 -28 18 -44 30 -36 66 -124 64 -160 -1 -41 30 -219 51 -292
11 -36 22 -92 26 -125 10 -88 10 -85 23 -147 12 -57 16 -62 91 -107 47 -28
100 -51 118 -51 23 0 50 21 130 97 41 39 53 57 47 70 -4 10 -8 57 -11 106 -2
48 -8 95 -13 105 -5 10 -17 73 -26 141 -9 67 -23 135 -31 149 -8 15 -14 34
-14 42 0 8 -7 23 -15 33 -7 11 -17 37 -21 60 -3 23 -17 55 -30 72 -16 22 -23
42 -22 71 2 27 -5 49 -21 71 -20 27 -23 39 -18 82 4 37 1 67 -13 108 -11 32
-20 74 -20 93 0 20 -5 41 -10 46 -11 11 -16 116 -6 133 4 6 9 40 11 77 5 70
-17 135 -50 147 -8 4 -15 18 -15 33 0 39 -29 131 -45 144 -8 7 -15 21 -15 30
0 10 -10 27 -23 37 -42 33 -62 172 -32 226 18 34 18 35 -2 56 -16 17 -19 31
-16 64 4 34 1 46 -16 61 -12 11 -21 31 -21 46 0 15 -7 47 -16 71 -20 56 -26
253 -9 289 21 43 26 139 9 172 -10 19 -13 41 -8 63 9 48 -15 163 -43 205 -13
19 -23 49 -23 67 0 19 -4 41 -9 51 -5 9 -15 32 -21 50 -7 18 -30 46 -51 63
-32 25 -39 37 -39 66 0 23 -9 45 -25 65 -17 20 -23 37 -19 52 3 14 -3 32 -16
49 -18 22 -21 37 -17 74 2 28 -1 60 -9 80 -8 18 -14 48 -14 66 0 21 -8 41 -20
52 -16 14 -20 31 -20 81 0 59 -17 117 -54 184 -18 32 -39 136 -31 150 3 5 8
46 10 91 3 60 1 86 -11 103 -12 19 -13 31 -3 67 23 88 23 135 0 158 -12 12
-22 31 -24 43 -1 11 -12 32 -25 45 -20 20 -22 30 -17 66 5 35 3 46 -14 61 -16
15 -18 22 -9 42 9 18 8 28 0 36 -7 7 -12 20 -12 29 0 9 -12 40 -27 69 -22 43
-25 55 -15 71 15 24 15 52 0 67 -6 6 -14 44 -16 84 -2 40 -5 89 -6 108 -1 19
-3 50 -4 67 -1 22 -12 42 -32 60 -24 21 -30 35 -30 65 0 22 -7 53 -16 70 -13
24 -14 36 -5 55 10 23 7 30 -29 69 -45 49 -44 46 -30 94 21 72 -9 219 -66 332
-10 19 -11 34 -4 52 14 38 10 251 -7 282 -7 15 -13 39 -13 55 0 15 -4 31 -10
34 -5 3 -10 20 -10 38 0 17 -11 47 -26 68 -26 38 -29 72 -23 269 1 14 -6 45
-14 70 -50 150 -60 199 -49 225 18 39 15 71 -14 130 -14 30 -22 60 -19 65 4 6
1 17 -5 26 -7 8 -14 29 -16 47 -4 30 -17 80 -46 167 -6 19 -13 69 -14 110 -4
112 -13 156 -36 185 -17 22 -20 36 -15 87 5 52 3 62 -16 81 -12 12 -21 25 -19
30 9 27 6 91 -4 105 -8 9 -14 29 -14 44 0 15 -4 29 -9 32 -13 8 -43 106 -37
121 2 7 -6 23 -19 35 -20 19 -22 26 -14 48 8 20 6 36 -7 64 -14 31 -15 42 -5
67 9 21 10 35 2 49 -6 12 -11 32 -11 45 0 14 -21 69 -46 123 -48 103 -59 134
-73 219 -5 28 -16 77 -26 110 -9 33 -18 95 -20 138 -2 42 -7 83 -12 90 -8 13
-12 47 -16 152 -1 52 -8 79 -25 106 -12 20 -22 44 -22 54 0 9 -9 28 -20 42
-11 14 -20 36 -20 48 0 12 -13 39 -30 60 -32 40 -34 48 -20 80 5 14 2 30 -11
50 -12 21 -15 35 -9 45 19 30 10 84 -20 129 -30 44 -39 85 -20 96 16 10 12
138 -5 161 -8 10 -15 39 -15 64 0 25 -7 56 -15 70 -8 14 -14 46 -15 71 0 32
-7 55 -21 73 -15 19 -20 35 -16 55 4 19 -1 38 -17 62 -20 30 -22 45 -21 139 1
58 -3 122 -8 143 -8 28 -7 52 2 88 12 44 11 56 -4 96 -12 30 -16 59 -12 87 4
27 2 47 -6 55 -6 6 -10 29 -8 51 2 28 -3 47 -18 66 -11 15 -18 31 -15 36 3 5
-1 20 -10 33 -9 13 -16 39 -16 57 0 21 -9 41 -25 58 -25 26 -25 28 -11 82 11
42 12 66 4 104 -6 27 -11 59 -12 70 -2 12 -10 37 -19 56 -9 19 -19 57 -22 83
-3 26 -13 58 -21 71 -9 13 -13 28 -9 34 4 6 1 18 -6 26 -22 27 -50 117 -64
205 -7 48 -17 95 -23 105 -5 11 -10 42 -9 69 0 46 -7 78 -35 160 -6 17 -14 55
-17 85 -4 30 -14 66 -23 80 -10 16 -18 56 -21 111 -3 54 -11 98 -22 120 -17
32 -25 57 -45 139 -4 19 -17 59 -28 88 -18 46 -19 56 -7 79 21 40 -5 146 -50
208 -15 20 -24 50 -28 92 -3 35 -15 82 -26 106 -12 24 -21 50 -21 58 0 8 -10
27 -23 42 -21 26 -22 37 -20 136 2 104 2 109 -27 155 -23 35 -30 59 -30 95 0
42 -6 56 -50 114 -54 71 -66 117 -74 273 -1 39 -6 76 -10 82 -3 6 -6 37 -5 69
0 32 -3 84 -8 115 -7 47 -15 63 -47 92 -20 20 -40 35 -44 34 -4 -1 -29 -3 -57
-5z"/>
<path d="M17817 16445 c-47 -16 -81 -47 -97 -85 -7 -16 -44 -57 -83 -91 -40
-34 -84 -76 -99 -94 -27 -32 -88 -172 -88 -201 0 -8 -12 -41 -26 -72 -81 -176
-94 -210 -94 -235 0 -12 -9 -35 -19 -51 -12 -18 -18 -39 -15 -55 4 -17 -1 -33
-14 -47 -11 -11 -27 -34 -35 -51 -9 -16 -27 -38 -41 -47 -15 -9 -26 -25 -26
-36 0 -11 -11 -45 -25 -76 -14 -31 -25 -63 -25 -72 0 -8 -18 -32 -40 -53 -22
-21 -40 -46 -40 -56 0 -10 -7 -27 -15 -37 -8 -11 -15 -29 -15 -40 0 -12 -6
-33 -14 -48 -8 -15 -17 -39 -20 -55 -4 -15 -29 -53 -57 -83 -28 -30 -57 -68
-65 -85 -16 -36 -65 -90 -116 -128 -21 -15 -38 -33 -38 -40 0 -7 -29 -43 -63
-80 -49 -52 -70 -85 -92 -142 -16 -44 -34 -75 -42 -75 -11 0 -13 -9 -9 -34 5
-30 0 -40 -38 -83 -53 -59 -69 -88 -72 -133 -2 -19 -8 -84 -14 -145 -11 -104
-9 -191 6 -278 5 -29 14 -41 38 -54 17 -9 43 -26 57 -38 41 -34 137 -41 195
-15 49 23 70 18 98 -22 13 -18 86 -52 140 -63 10 -3 24 -13 31 -23 7 -10 53
-44 102 -77 48 -32 94 -67 101 -77 15 -20 74 -48 102 -48 9 0 37 -15 61 -33
24 -18 61 -42 83 -53 74 -37 94 -49 117 -71 81 -75 161 -131 197 -137 71 -11
263 -104 306 -147 16 -16 34 -29 40 -28 32 4 48 -5 82 -41 21 -22 42 -40 48
-40 6 0 31 -16 55 -35 24 -19 50 -35 57 -35 7 0 35 -13 61 -30 26 -16 55 -30
64 -30 10 0 38 -17 62 -39 25 -21 58 -41 74 -45 92 -22 171 -52 190 -73 17
-17 29 -22 47 -17 21 5 25 2 28 -23 2 -23 8 -28 30 -28 16 -1 37 -12 52 -28
14 -15 36 -27 49 -27 38 0 125 -29 161 -54 19 -13 56 -29 83 -35 82 -22 126
-41 160 -72 19 -16 39 -29 47 -29 7 0 35 -16 62 -35 27 -19 53 -35 58 -35 5 0
30 -13 56 -29 25 -16 61 -32 78 -36 18 -3 50 -22 73 -41 23 -19 51 -36 63 -38
23 -5 176 -18 240 -21 22 -1 44 -8 50 -17 7 -9 42 -33 79 -53 37 -20 72 -45
77 -55 12 -22 48 -35 171 -59 102 -20 187 -49 215 -72 9 -8 51 -17 93 -21 96
-8 172 -21 189 -32 8 -5 48 -9 90 -11 109 -4 170 -14 222 -37 75 -33 136 -47
175 -38 42 10 151 -2 167 -18 8 -8 7 -21 -4 -49 -9 -21 -22 -60 -28 -88 -7
-27 -20 -61 -29 -75 -37 -58 -81 -156 -81 -179 -1 -14 -7 -37 -15 -51 -8 -15
-15 -54 -15 -95 0 -43 -8 -91 -20 -125 -17 -47 -21 -90 -25 -295 -3 -132 -8
-267 -10 -300 -6 -84 -3 -144 9 -164 4 -6 0 -24 -9 -40 -8 -17 -15 -53 -15
-82 0 -39 -7 -64 -30 -103 -27 -47 -28 -54 -15 -73 17 -25 17 -83 0 -138 -7
-22 -16 -62 -19 -90 -6 -48 -5 -52 31 -91 65 -71 205 -103 254 -58 8 8 21 14
27 14 6 0 36 11 67 24 39 18 61 35 76 60 18 31 27 36 70 42 27 4 49 10 49 15
0 11 59 36 105 45 20 3 54 19 78 35 23 16 50 29 59 29 34 0 190 63 216 86 14
14 36 27 49 30 24 6 88 -7 156 -32 34 -13 41 -12 82 7 45 21 115 91 115 115 0
6 13 17 29 24 16 6 53 27 82 46 29 19 62 34 72 34 10 0 37 9 60 19 23 11 68
22 100 26 55 7 59 9 54 31 -8 43 51 74 91 48 19 -13 30 -14 48 -5 13 6 24 15
24 20 0 5 32 19 71 31 61 18 73 26 82 51 10 26 15 28 44 23 24 -4 40 -1 62 15
21 15 44 21 83 21 52 0 55 2 111 59 31 32 57 64 57 70 0 12 55 43 63 35 8 -9
126 34 158 57 32 23 51 25 43 4 -5 -12 3 -13 48 -8 29 3 61 10 72 15 10 6 50
11 88 13 39 1 73 6 77 11 3 5 33 29 65 54 54 41 63 45 120 45 50 1 66 5 84 23
26 26 49 28 78 8 31 -22 161 -8 198 22 18 14 43 22 66 22 21 0 54 7 75 16 22
9 49 13 65 9 40 -9 93 8 162 51 53 32 62 35 90 25 50 -18 96 -14 110 9 9 14
24 20 46 20 37 0 88 26 97 48 3 8 -4 25 -15 40 -20 25 -20 25 -1 46 31 33 38
166 14 263 -15 61 -25 81 -57 111 -127 122 -127 122 -124 156 1 26 -7 43 -40
82 -22 27 -48 67 -57 89 -9 22 -26 49 -36 60 -11 11 -34 42 -51 68 -24 38 -43
54 -94 77 -35 17 -70 30 -77 30 -21 0 -67 64 -67 94 0 14 -10 33 -24 44 -13
10 -26 32 -28 47 -2 24 -9 31 -35 36 -18 3 -46 19 -61 35 -16 16 -40 36 -53
46 -19 13 -22 19 -11 29 18 20 15 39 -10 48 -41 16 -106 69 -120 98 -7 16 -23
29 -36 31 -25 4 -27 14 -10 41 9 15 8 24 -5 45 -9 14 -17 31 -17 39 0 7 -16
28 -35 47 -19 19 -35 39 -35 45 0 7 -9 23 -21 36 -11 13 -28 38 -36 54 -9 17
-28 44 -43 62 -16 17 -31 46 -35 65 -4 18 -17 43 -28 56 -13 14 -20 34 -19 51
2 30 -52 98 -95 120 -13 7 -32 28 -42 49 -10 20 -31 48 -45 62 -20 18 -25 31
-21 50 3 15 -2 40 -15 65 -11 21 -20 49 -20 60 0 12 -13 34 -29 49 -20 19 -27
34 -24 50 3 13 -3 41 -12 62 -42 99 -60 127 -91 142 -18 8 -36 23 -41 33 -4
10 -24 29 -43 41 -48 32 -86 102 -72 132 11 25 6 39 -19 48 -18 7 -47 80 -58
148 -4 25 -13 56 -19 70 -6 14 -13 41 -17 61 -3 22 -17 46 -35 63 -20 18 -30
36 -30 55 0 20 -9 36 -27 51 -25 19 -26 24 -15 52 10 26 8 36 -13 77 -14 25
-25 51 -25 57 0 6 -17 19 -37 30 -33 17 -39 26 -44 62 -3 23 -15 55 -27 72
-12 16 -22 35 -22 43 0 8 -15 27 -32 44 -18 17 -46 48 -63 68 -16 21 -45 56
-62 77 -18 22 -34 47 -35 56 0 10 -2 22 -2 29 -1 6 -5 15 -9 19 -4 4 -7 16 -7
26 0 29 -54 55 -131 62 -79 8 -108 -3 -131 -51 -8 -17 -26 -32 -46 -39 -45
-14 -97 -59 -116 -99 -9 -18 -36 -49 -62 -70 -38 -31 -45 -42 -41 -63 4 -21
-6 -38 -49 -87 -31 -35 -54 -69 -54 -82 0 -13 -4 -23 -9 -23 -17 0 -42 -32
-37 -46 3 -7 -1 -26 -9 -41 -8 -15 -15 -36 -15 -45 0 -10 -15 -35 -34 -56 -48
-53 -65 -103 -70 -207 -3 -76 -9 -99 -35 -150 -26 -50 -30 -67 -25 -105 l6
-45 -65 -33 c-55 -29 -74 -33 -123 -31 -57 3 -59 2 -62 -24 -2 -15 -10 -27
-17 -27 -18 0 -37 34 -30 52 12 31 -74 44 -110 18 -5 -4 -43 -10 -84 -13 -75
-6 -168 10 -197 34 -10 8 -22 8 -45 0 -41 -14 -105 2 -112 28 -5 19 -59 31
-137 31 -32 0 -52 11 -125 71 -75 60 -93 70 -117 65 -21 -4 -36 1 -60 22 -18
15 -53 36 -76 47 -24 10 -56 33 -70 50 -15 18 -56 48 -92 67 -143 78 -166 92
-200 116 -43 32 -59 52 -60 74 0 11 -13 21 -39 28 -24 6 -56 27 -78 50 -32 32
-48 40 -92 46 -54 7 -91 31 -91 58 0 8 -15 27 -34 44 -19 16 -37 39 -41 51 -4
14 -18 24 -36 28 -16 3 -29 10 -29 15 0 11 -105 118 -117 118 -4 0 -13 10 -18
22 -6 12 -23 29 -39 38 -16 8 -30 24 -32 34 -4 27 -9 28 -49 12 -49 -21 -77
-20 -106 2 -13 10 -45 29 -71 41 -27 13 -48 26 -48 31 0 4 -30 25 -66 46 -36
21 -72 50 -79 64 -7 14 -32 36 -54 48 -23 13 -84 61 -137 107 -64 56 -105 85
-128 89 -19 4 -45 15 -57 25 -13 10 -36 21 -50 24 -15 4 -34 18 -42 31 -9 13
-32 29 -50 35 -20 7 -39 22 -45 36 -7 14 -16 25 -21 25 -5 0 -18 15 -28 33
-14 23 -32 37 -61 45 -23 7 -58 28 -78 47 -20 19 -47 35 -59 35 -29 0 -48 23
-41 48 7 22 -14 43 -64 62 -40 16 -80 43 -120 83 -21 21 -38 27 -69 27 -27 0
-46 6 -55 18 -8 9 -27 32 -42 50 -14 18 -41 39 -59 46 -22 10 -39 28 -55 60
-12 26 -32 51 -43 58 -12 6 -39 29 -59 51 -32 33 -42 39 -66 34 -49 -10 -68 0
-70 39 -2 19 2 44 9 55 16 31 -15 140 -40 139 -3 -1 -23 -7 -44 -15z m97 -490
c9 -14 31 -31 50 -39 18 -8 60 -40 92 -73 79 -79 148 -134 213 -169 30 -16 83
-57 118 -91 35 -35 72 -63 83 -63 10 0 35 -20 55 -44 19 -24 48 -49 63 -55 15
-6 38 -27 51 -46 48 -71 120 -124 176 -130 11 -1 23 -3 26 -4 4 0 26 -19 50
-41 24 -22 55 -43 68 -47 13 -3 41 -23 61 -44 21 -22 42 -39 48 -39 5 0 15
-13 21 -29 12 -28 47 -51 77 -51 20 0 29 -27 14 -44 -9 -12 -7 -19 9 -35 21
-21 77 -29 83 -11 2 5 14 11 28 12 20 2 25 -1 23 -18 -2 -23 77 -98 137 -129
19 -10 46 -26 59 -36 13 -11 40 -19 60 -19 24 0 46 -8 65 -25 16 -13 32 -22
36 -20 4 3 13 -1 19 -9 8 -10 6 -17 -9 -31 -24 -22 -26 -60 -4 -69 8 -3 28 4
45 16 l29 22 30 -29 c16 -16 30 -35 30 -42 0 -13 49 -43 70 -43 6 0 26 -11 44
-25 18 -14 42 -25 53 -25 10 0 33 -16 50 -35 17 -19 39 -35 49 -35 22 0 101
-65 109 -90 4 -11 20 -23 38 -28 20 -5 37 -18 45 -35 7 -15 34 -41 60 -59 26
-17 63 -44 82 -58 19 -15 50 -31 69 -36 27 -7 40 -20 58 -54 37 -70 59 -89
112 -92 37 -2 48 -8 58 -27 6 -14 28 -33 47 -43 20 -10 36 -22 36 -27 0 -5 39
-28 86 -52 57 -29 97 -57 117 -82 17 -21 42 -40 56 -44 14 -3 31 -9 36 -13 6
-3 31 -14 56 -23 25 -10 55 -29 67 -42 12 -14 31 -25 41 -25 20 0 44 -19 59
-47 5 -8 20 -17 33 -18 13 -1 29 -3 36 -4 6 0 20 -18 30 -38 21 -44 28 -45
122 -12 l64 23 37 -21 c29 -17 50 -21 106 -18 38 1 74 4 79 6 20 6 101 -13
130 -31 17 -10 47 -21 68 -25 21 -4 43 -15 50 -24 24 -35 62 -49 132 -52 39
-2 79 -7 89 -12 10 -5 62 -11 115 -13 l96 -3 47 51 c27 28 51 62 53 77 3 14
11 40 17 56 6 17 13 48 16 70 2 22 11 49 18 60 7 11 13 29 13 40 -1 11 4 46
10 78 7 31 9 62 6 67 -4 6 -2 25 4 43 5 17 12 54 16 81 3 27 11 59 17 70 7 12
24 68 39 125 19 72 36 112 53 130 14 15 26 34 26 43 0 9 18 37 40 62 21 26 42
62 46 81 3 19 13 40 21 46 8 7 21 25 29 40 23 45 50 47 93 5 25 -25 42 -54 55
-97 12 -41 31 -75 57 -104 28 -30 39 -51 39 -73 0 -19 9 -41 24 -57 13 -14 24
-37 24 -51 0 -15 12 -39 30 -57 18 -19 38 -55 47 -87 9 -30 25 -73 35 -95 54
-116 80 -177 80 -187 0 -5 10 -24 22 -40 29 -42 67 -137 68 -170 0 -15 9 -34
23 -45 26 -20 67 -95 67 -121 0 -9 9 -30 20 -47 11 -16 20 -37 20 -46 0 -18
42 -76 95 -131 23 -24 35 -46 35 -65 0 -15 9 -39 20 -53 11 -14 20 -30 20 -36
0 -27 44 -107 84 -154 25 -29 50 -72 58 -97 7 -26 23 -52 36 -61 13 -8 22 -24
22 -39 0 -14 14 -41 30 -60 17 -18 30 -39 30 -45 0 -19 71 -120 115 -162 23
-23 57 -63 75 -91 19 -27 55 -78 82 -113 26 -35 48 -72 48 -83 0 -12 10 -23
25 -29 24 -9 55 -56 55 -84 0 -8 16 -33 35 -56 19 -23 35 -46 35 -50 0 -5 18
-30 40 -55 22 -25 40 -50 40 -54 0 -4 14 -22 30 -39 17 -18 30 -38 30 -45 0
-13 40 -57 44 -48 2 7 46 -10 46 -18 0 -4 17 -25 37 -47 20 -21 56 -76 79
-121 23 -45 71 -115 106 -157 86 -100 105 -137 90 -170 -6 -14 -18 -26 -26
-26 -8 0 -48 -14 -90 -30 -41 -17 -97 -33 -123 -36 -26 -4 -79 -17 -118 -31
-38 -13 -95 -29 -125 -35 -30 -5 -68 -17 -83 -25 -16 -8 -55 -21 -86 -29 -47
-13 -66 -13 -118 -3 -59 12 -68 11 -145 -13 -46 -15 -111 -31 -145 -37 -34 -5
-93 -24 -132 -40 -38 -17 -77 -31 -86 -31 -9 0 -29 -8 -43 -18 -15 -10 -52
-24 -82 -32 -84 -20 -140 -47 -187 -90 -32 -31 -51 -40 -77 -40 -26 0 -40 -7
-61 -31 -25 -31 -185 -109 -221 -109 -8 0 -36 -20 -62 -45 -31 -30 -62 -50
-90 -57 -23 -6 -59 -23 -79 -39 -19 -16 -47 -29 -60 -29 -13 0 -45 -11 -71
-25 -26 -14 -54 -25 -63 -25 -8 0 -64 -25 -124 -55 -83 -42 -118 -55 -153 -55
-29 0 -70 -12 -122 -35 -43 -19 -82 -35 -87 -35 -5 0 -33 -16 -63 -35 -38 -24
-66 -35 -92 -35 -40 0 -161 -30 -196 -49 -11 -6 -36 -11 -55 -11 -19 0 -53 -7
-76 -15 -51 -17 -66 -13 -69 22 -1 15 -14 44 -28 65 -17 24 -27 54 -29 84 -2
28 -10 50 -20 58 -15 11 -15 16 -1 56 16 45 16 45 -13 72 -29 27 -29 27 -14
73 9 25 24 50 34 56 23 12 24 32 3 50 -15 12 -13 16 16 41 28 22 32 31 26 55
-20 81 -23 128 -9 150 9 14 12 33 9 51 -5 21 -1 35 19 58 14 16 25 35 25 42 0
6 3 12 8 12 19 1 46 56 44 90 -2 30 3 40 28 58 16 13 30 30 30 40 0 9 7 31 16
47 9 17 18 41 21 55 2 14 11 35 19 47 8 12 14 33 14 47 0 13 11 38 25 54 29
34 45 73 45 108 0 14 10 44 23 67 25 47 27 103 9 222 -15 96 -19 104 -66 125
-50 21 -176 36 -176 21 0 -24 -36 -28 -102 -11 -39 10 -86 15 -115 13 -26 -3
-73 1 -103 9 -33 9 -68 11 -89 7 -19 -4 -46 -3 -59 2 -14 5 -68 10 -121 10
-96 1 -113 5 -209 52 -38 19 -48 20 -88 9 -41 -11 -49 -10 -79 8 -29 18 -43
20 -99 14 -58 -6 -66 -5 -73 11 -10 28 -41 55 -61 55 -9 0 -52 20 -94 45 -61
35 -87 45 -123 45 -41 0 -45 2 -45 24 0 13 -6 28 -12 34 -21 17 -134 35 -175
28 -58 -10 -72 -10 -151 7 -78 16 -99 28 -113 64 -5 13 -25 30 -49 39 -43 17
-71 55 -80 109 -4 25 -9 30 -30 28 -138 -11 -162 -9 -201 16 -21 14 -39 30
-39 37 0 9 -40 34 -55 34 -2 0 -17 -14 -32 -30 -36 -39 -53 -33 -92 30 -24 39
-37 50 -66 56 -40 7 -86 -2 -97 -19 -13 -21 -43 7 -40 37 2 17 -2 28 -13 32
-9 4 -51 26 -93 50 -49 28 -94 46 -127 50 -40 6 -57 14 -85 44 -28 29 -48 39
-95 49 -78 16 -115 31 -115 45 0 7 -22 34 -50 60 -27 26 -50 52 -50 57 0 5
-12 12 -27 15 -16 4 -52 18 -82 31 -31 14 -64 23 -79 20 -25 -5 -44 9 -72 51
-9 14 -32 27 -59 33 -26 6 -57 22 -75 39 -16 17 -38 30 -47 30 -10 0 -20 4
-23 9 -3 5 -32 19 -63 32 -32 13 -80 38 -108 56 -27 18 -56 33 -65 33 -21 0
-118 91 -122 115 -2 15 -12 21 -38 23 -19 2 -62 12 -96 23 -66 21 -108 59
-110 99 0 20 -8 26 -35 31 -18 4 -39 3 -45 -2 -22 -18 -186 38 -204 70 -18 35
-50 37 -76 5 -21 -27 -24 -28 -40 -12 -11 11 -17 31 -16 54 1 26 -8 51 -34 89
-23 35 -38 73 -44 111 -5 31 -21 74 -35 95 -14 21 -25 49 -25 62 0 35 76 193
103 214 13 10 36 41 52 68 16 28 46 69 67 93 21 23 41 55 44 71 3 16 26 48 51
72 24 24 53 62 64 84 40 80 67 124 98 163 17 22 31 46 31 54 0 8 16 29 35 48
19 19 35 42 35 52 0 9 17 34 39 55 21 21 42 49 46 63 4 14 20 41 35 60 25 33
34 62 45 148 2 18 13 47 24 66 12 18 21 41 21 49 0 9 14 32 30 50 17 19 30 42
30 52 0 9 7 29 15 43 29 53 65 152 65 178 0 15 7 35 16 45 15 16 24 44 43 129
13 56 43 110 62 110 9 0 24 -11 33 -25z"/>
<path d="M11268 15743 c7 -3 16 -2 19 1 4 3 -2 6 -13 5 -11 0 -14 -3 -6 -6z"/>
<path d="M32465 13789 c-48 -15 -335 -25 -484 -17 -75 4 -161 3 -191 -1 -30
-5 -113 -9 -185 -10 -71 -1 -159 -3 -195 -6 -128 -8 -447 -17 -535 -14 -49 1
-133 2 -185 1 -52 0 -135 0 -184 -1 -111 -1 -278 -18 -376 -39 -41 -9 -102
-17 -135 -17 -65 -2 -118 -13 -209 -45 -33 -11 -71 -20 -85 -20 -34 0 -201
-46 -238 -65 -15 -8 -40 -15 -54 -15 -28 0 -124 -65 -169 -115 -14 -15 -43
-36 -65 -47 -58 -30 -205 -158 -211 -185 -8 -29 -120 -129 -155 -138 -17 -4
-30 -1 -41 12 -9 10 -17 20 -17 23 0 3 -2 12 -5 20 -3 8 -6 26 -8 38 -3 24
-25 36 -118 64 -19 6 -52 19 -72 29 -21 11 -50 19 -66 19 -45 0 -92 -20 -92
-39 0 -9 -7 -26 -15 -38 -8 -12 -15 -43 -16 -70 0 -26 0 -64 0 -83 -1 -62 19
-224 30 -253 6 -16 9 -33 5 -38 -3 -5 2 -19 10 -31 12 -16 14 -35 10 -68 -4
-29 0 -65 11 -103 9 -31 18 -83 19 -114 1 -32 5 -65 8 -73 31 -78 32 -199 1
-266 -21 -47 -22 -54 -9 -85 13 -30 12 -37 -7 -70 -21 -36 -21 -37 -3 -125 16
-77 28 -204 28 -284 0 -14 -5 -61 -10 -105 -8 -63 -7 -86 4 -108 11 -23 11
-38 2 -72 -9 -34 -9 -50 0 -70 14 -30 16 -72 4 -79 -5 -3 -12 -57 -15 -119 -4
-63 -14 -134 -22 -158 -9 -24 -16 -69 -15 -99 0 -30 -1 -128 -2 -217 -3 -151
-4 -163 -25 -185 -21 -22 -21 -28 -12 -92 5 -37 7 -72 4 -77 -3 -4 1 -22 9
-38 14 -26 14 -33 -1 -68 -16 -39 -25 -150 -23 -320 0 -16 -3 -56 -6 -90 -3
-34 0 -101 7 -150 7 -48 13 -108 13 -132 1 -33 7 -47 21 -55 38 -21 45 -38 25
-64 -15 -19 -18 -36 -15 -95 2 -40 0 -79 -5 -86 -4 -8 -4 -24 1 -38 5 -15 4
-32 -3 -48 -8 -18 -7 -34 4 -69 8 -25 14 -62 12 -83 -3 -29 5 -48 37 -97 29
-44 38 -66 33 -81 -4 -11 -9 -48 -11 -82 -5 -63 12 -130 44 -178 7 -11 13 -34
13 -53 0 -18 11 -54 24 -80 13 -27 27 -64 31 -84 4 -23 15 -40 31 -48 28 -15
30 -32 9 -54 -8 -8 -11 -17 -6 -20 12 -7 57 -88 67 -118 3 -12 22 -43 40 -70
19 -26 34 -50 34 -52 0 -10 88 -89 114 -103 46 -23 116 -82 116 -98 0 -14 105
-85 126 -85 6 0 17 -7 24 -15 7 -8 20 -15 29 -15 18 0 121 -115 121 -136 0 -7
12 -21 28 -31 15 -9 48 -39 73 -65 37 -39 52 -48 80 -48 19 0 48 -9 64 -20 17
-11 45 -20 62 -20 53 0 175 -21 214 -37 19 -8 46 -13 60 -12 49 6 118 -12 125
-33 3 -11 11 -17 17 -15 126 48 157 47 183 -8 16 -35 39 -46 46 -23 3 7 33 15
69 19 75 8 124 -10 149 -55 14 -25 13 -28 -2 -37 -10 -5 -23 -19 -29 -30 -15
-29 5 -49 52 -49 48 0 73 23 63 59 -4 14 -8 33 -9 41 -1 8 -8 27 -15 43 -10
20 -11 30 -2 39 16 16 56 -13 71 -54 24 -62 25 -63 79 -60 28 2 53 -1 56 -7
13 -21 25 -11 21 17 -6 32 35 85 61 80 9 -2 28 -27 43 -55 14 -29 29 -53 32
-53 11 0 26 45 23 68 -3 17 1 22 18 22 16 0 19 -3 11 -11 -13 -13 -6 -39 16
-56 27 -21 44 -16 39 12 -6 27 15 54 27 35 11 -17 49 -11 63 10 16 27 31 25
42 -4 5 -13 13 -27 19 -30 16 -10 51 12 51 32 0 10 14 28 30 40 17 13 30 29
30 37 0 12 10 13 48 9 65 -9 115 -55 106 -99 -7 -37 14 -60 45 -50 11 3 36 -1
56 -9 42 -18 58 -14 73 18 14 31 4 43 -43 51 -56 10 -82 29 -90 65 -5 23 -2
37 10 50 10 11 15 26 11 35 -3 9 1 18 10 22 21 8 27 -2 15 -25 -8 -16 -6 -21
13 -31 18 -10 30 -10 61 3 20 9 53 16 71 16 33 0 38 6 35 42 -1 9 2 19 7 22
11 6 24 0 168 -88 57 -34 93 -66 76 -66 -7 0 -12 -12 -11 -27 0 -16 3 -23 5
-17 6 13 96 7 105 -7 3 -6 28 -13 55 -17 38 -6 51 -12 59 -30 8 -19 15 -22 35
-17 14 4 45 8 70 9 38 1 45 4 48 23 3 17 -3 23 -30 28 -37 8 -68 31 -68 52 0
19 59 53 92 53 28 0 62 -26 53 -40 -3 -4 2 -13 10 -20 10 -8 11 -18 5 -35 -7
-18 -5 -25 6 -29 21 -8 21 -8 37 8 11 12 95 22 145 17 7 0 28 -17 46 -37 l33
-36 59 14 c43 11 60 20 63 34 5 29 21 44 46 44 31 0 54 28 34 41 -8 5 -23 9
-35 9 -13 0 -24 10 -30 28 -8 22 -6 34 15 67 31 49 38 54 62 48 15 -4 17 -9 8
-19 -6 -7 -9 -25 -7 -41 2 -23 7 -27 28 -25 14 2 29 8 34 13 13 11 36 81 31
90 -3 3 -26 14 -52 22 -37 12 -81 15 -188 12 -81 -2 -153 1 -170 7 -21 7 -68
7 -160 -2 -72 -7 -166 -14 -210 -16 -240 -11 -344 -15 -480 -19 -82 -2 -160
-4 -173 -5 -12 -1 -39 6 -60 16 -30 16 -58 19 -150 18 -63 -1 -125 -7 -142
-14 -18 -7 -41 -9 -57 -5 -16 5 -163 9 -328 11 -232 2 -314 -1 -364 -12 -35
-8 -72 -12 -83 -8 -10 3 -63 -2 -117 -12 l-98 -17 -74 26 c-41 14 -90 29 -109
33 -48 9 -208 83 -241 110 -8 8 -32 14 -52 14 -21 0 -45 4 -55 9 -9 5 -29 14
-44 20 -18 7 -28 18 -28 31 0 13 -12 27 -32 38 -17 9 -40 26 -50 37 -10 11
-29 30 -41 43 -12 12 -23 34 -24 48 -1 17 -22 46 -57 80 -58 57 -73 64 -82 39
-7 -18 -38 -20 -51 -2 -5 6 -17 33 -27 59 -10 28 -30 57 -52 73 -27 21 -34 33
-34 60 0 27 -8 40 -42 69 -38 31 -41 38 -31 54 9 16 8 24 -4 41 -8 12 -17 44
-18 71 -2 27 -11 60 -20 74 -10 14 -15 32 -12 41 4 8 2 17 -3 20 -6 4 -10 24
-10 45 0 22 -9 54 -20 72 -11 18 -20 39 -20 47 0 8 -8 23 -17 33 -15 17 -15
22 1 75 12 38 29 67 52 87 19 16 34 34 34 39 0 6 -18 34 -40 63 -47 60 -64
108 -49 135 5 10 7 29 4 42 -4 15 -1 28 9 36 12 10 13 18 5 32 -5 11 -10 43
-10 72 -1 29 -8 66 -17 84 -14 28 -14 37 -3 70 10 27 11 38 2 41 -13 4 -15 38
-2 46 5 3 12 23 16 43 10 53 12 224 3 245 -4 9 -21 19 -38 23 -30 7 -37 15
-23 29 14 14 13 52 -3 88 -17 37 -17 38 12 80 54 80 57 93 32 160 -18 51 -20
65 -10 92 16 43 16 42 -18 56 -16 7 -30 14 -30 16 0 2 9 18 20 36 24 40 25 66
3 90 -15 17 -15 20 7 50 l23 31 -20 16 c-12 9 -35 24 -52 33 -17 9 -31 21 -31
27 0 5 18 23 40 41 38 30 39 33 33 77 -5 37 -3 48 11 59 14 9 15 17 7 31 -14
26 -2 104 19 128 18 20 30 98 17 111 -3 4 0 19 8 34 11 21 11 30 2 39 -9 9 -9
16 1 31 10 16 7 22 -19 41 -22 15 -30 29 -29 48 3 42 1 49 -20 69 -31 28 -19
92 21 115 25 14 28 20 19 36 -16 31 -12 57 15 89 l24 29 -29 27 c-17 14 -30
35 -30 47 0 11 18 44 40 73 37 49 40 56 28 81 -10 23 -10 28 5 36 20 12 23 31
4 23 -21 -8 -49 31 -49 68 0 67 21 180 36 197 9 10 16 27 16 38 0 25 16 39 89
78 46 25 56 34 53 54 -1 13 4 31 12 40 23 27 48 132 42 173 -9 54 14 101 79
163 37 36 55 61 55 78 0 22 16 65 70 182 10 22 41 81 69 130 28 50 51 96 51
103 0 19 51 85 95 123 22 18 58 52 81 74 84 83 116 105 156 105 21 0 66 13
101 30 35 17 77 30 92 30 15 0 43 11 61 25 24 18 46 26 76 26 24 0 66 0 93 1
76 1 187 -10 236 -23 41 -11 48 -10 93 14 39 21 53 24 69 15 29 -15 95 -3 168
32 55 26 74 30 134 28 53 -1 77 3 97 16 22 14 38 16 78 11 27 -4 53 -12 58
-19 23 -38 120 -63 137 -36 3 6 14 10 23 10 10 0 34 11 54 25 31 21 38 22 48
10 14 -17 62 -24 210 -30 152 -6 217 -12 229 -19 5 -4 25 2 43 12 58 31 114
45 160 39 78 -12 119 -22 116 -29 -11 -28 106 -49 192 -35 19 4 52 8 72 11 38
4 109 49 135 85 18 26 40 27 47 3 18 -54 69 -71 166 -57 37 6 49 3 69 -14 15
-13 32 -19 50 -16 14 2 61 7 104 11 66 5 77 8 77 24 0 26 30 33 81 19 43 -12
74 -13 169 -7 38 3 46 0 55 -19 6 -16 18 -23 36 -23 14 0 40 -7 57 -15 28 -15
33 -14 69 5 21 11 45 20 54 20 9 0 24 9 34 20 27 30 56 21 79 -22 18 -35 56
-54 56 -28 0 6 11 10 25 10 15 0 25 -6 25 -14 0 -27 153 -32 184 -7 18 15 68
17 93 3 40 -22 83 -11 131 34 47 44 67 49 105 25 19 -11 40 -21 47 -21 7 0 23
-11 35 -25 20 -21 28 -23 55 -15 18 5 38 14 45 20 8 7 23 9 35 5 11 -3 36 -1
55 5 31 10 38 9 61 -9 30 -23 58 -21 111 10 33 18 58 23 101 21 16 -2 22 -8
22 -27 0 -29 21 -32 60 -10 14 8 44 14 66 15 24 0 47 6 54 15 24 28 71 10 94
-37 20 -39 64 -56 151 -59 44 -1 92 2 108 6 21 6 27 4 27 -8 0 -25 42 -25 86
0 24 14 49 21 60 17 33 -10 68 -28 92 -46 17 -12 30 -15 47 -8 19 7 44 -1 125
-40 61 -30 115 -50 135 -50 39 0 94 -12 210 -45 44 -13 123 -31 175 -40 52
-10 105 -23 117 -31 11 -7 51 -16 87 -20 50 -5 69 -11 77 -25 5 -11 21 -19 34
-19 14 0 38 -13 55 -30 22 -21 41 -30 64 -30 21 0 47 -11 72 -30 21 -16 43
-30 47 -30 5 0 41 -15 80 -34 40 -18 87 -34 105 -34 23 0 45 -11 73 -36 21
-20 43 -36 48 -36 5 0 29 -20 54 -45 26 -25 55 -45 65 -45 24 0 48 -27 57 -63
4 -15 11 -30 16 -33 16 -10 79 -131 79 -152 0 -12 8 -30 19 -39 29 -28 64 -53
73 -53 4 0 8 -18 8 -41 0 -22 6 -61 14 -87 8 -26 19 -74 26 -107 6 -33 16 -78
20 -100 5 -22 12 -62 15 -89 5 -37 14 -57 37 -77 29 -28 54 -91 43 -108 -4 -8
8 -128 21 -188 2 -12 13 -24 23 -28 16 -5 19 -15 18 -63 -1 -39 4 -66 15 -81
12 -17 15 -37 11 -75 -4 -40 -1 -59 11 -79 14 -20 15 -30 6 -47 -9 -17 -7 -25
8 -45 15 -19 19 -36 15 -72 -2 -27 -9 -57 -14 -69 -7 -13 -7 -45 -1 -90 5 -38
6 -78 2 -90 -5 -11 -4 -28 1 -37 10 -17 18 -89 20 -182 1 -27 8 -63 16 -78 8
-17 12 -40 8 -56 -5 -23 -1 -29 20 -39 32 -15 32 -23 -5 -47 -28 -18 -30 -23
-24 -59 3 -21 13 -55 21 -75 27 -63 41 -137 30 -157 -6 -10 -10 -35 -8 -55 1
-20 -2 -47 -7 -60 -9 -24 -4 -72 18 -177 8 -40 8 -57 0 -67 -7 -8 -9 -27 -5
-44 4 -20 1 -38 -11 -56 -16 -25 -16 -28 11 -80 23 -47 27 -68 29 -154 2 -99
10 -123 49 -152 4 -3 1 -25 -8 -48 -20 -58 -19 -74 6 -97 19 -17 20 -26 15
-97 -3 -44 -10 -86 -15 -95 -5 -10 -4 -31 3 -56 7 -23 11 -79 10 -126 -3 -117
11 -217 32 -241 12 -13 15 -28 11 -53 -3 -22 0 -41 10 -56 12 -17 13 -27 4
-46 -6 -13 -15 -24 -20 -24 -23 0 -41 -33 -36 -64 4 -17 2 -44 -4 -59 -8 -20
-8 -33 1 -47 10 -15 9 -22 -3 -37 -9 -10 -22 -45 -29 -78 -6 -33 -16 -78 -21
-100 -4 -22 -8 -62 -9 -88 0 -40 -7 -58 -42 -107 -23 -33 -46 -60 -51 -60 -4
0 -32 -11 -60 -24 -29 -13 -83 -33 -122 -44 -38 -11 -108 -34 -155 -50 -47
-17 -100 -33 -118 -37 -18 -4 -54 -18 -79 -33 -65 -36 -220 -50 -443 -38 -58
3 -148 9 -200 15 -59 5 -102 5 -113 -1 -10 -5 -55 -6 -105 -3 -139 11 -250 5
-316 -16 -34 -10 -71 -19 -84 -19 -13 0 -33 -5 -45 -12 -13 -7 -77 -12 -155
-14 -73 -1 -164 -8 -203 -14 l-70 -12 24 -24 c21 -21 33 -24 93 -23 38 0 86
-1 106 -2 23 0 51 7 71 20 19 12 47 21 63 21 76 0 149 -45 123 -76 -10 -13
-10 -17 2 -25 8 -5 19 -7 26 -5 6 3 16 -8 21 -24 8 -23 7 -31 -7 -44 -10 -9
-23 -16 -29 -16 -26 0 -10 -19 21 -25 17 -4 51 -18 73 -31 45 -26 74 -23 74 7
0 11 -28 47 -62 80 -58 56 -61 62 -44 73 10 6 28 21 39 34 11 12 26 22 33 22
8 0 19 -10 25 -22 16 -30 28 -38 61 -38 14 0 28 -5 30 -12 7 -20 42 8 43 34 0
22 4 23 67 23 61 0 70 3 93 28 33 35 44 34 57 -4 10 -29 13 -30 47 -24 20 3
43 14 51 23 30 34 111 55 124 33 4 -5 25 -12 49 -16 23 -3 63 -14 89 -22 40
-14 51 -15 75 -4 15 8 56 19 91 27 60 13 68 12 139 -11 91 -30 110 -31 131 -6
29 34 170 60 293 55 101 -4 108 -3 160 24 53 28 57 28 204 26 154 -2 185 4
185 34 0 19 73 72 100 72 34 1 101 80 93 110 -4 14 2 29 17 45 19 20 21 28 12
57 -19 61 -21 93 -7 118 8 14 14 34 15 45 0 11 7 33 15 48 16 31 9 62 -22 92
-13 13 -14 20 -5 23 28 9 44 35 37 61 -4 14 -8 41 -9 59 -1 20 -8 37 -19 43
-21 12 -21 27 -1 69 16 31 15 34 -7 73 -12 23 -34 51 -48 63 -23 19 -24 24
-13 48 21 46 8 138 -23 169 -8 8 -11 17 -8 21 3 3 -2 14 -11 25 -17 18 -17 22
1 70 l18 52 -52 47 c-50 46 -56 59 -66 137 -2 11 -6 30 -10 42 -5 12 -2 46 7
80 14 52 14 59 -1 75 -9 10 -27 18 -40 18 -31 0 -30 25 5 56 l27 24 -27 23
c-34 27 -35 53 -6 84 19 21 24 37 32 116 2 15 13 37 26 49 23 21 23 22 3 38
-23 18 -46 147 -42 235 1 28 -6 76 -16 108 -18 57 -18 58 3 77 18 17 20 24 10
45 -10 22 -8 29 13 51 l24 26 -24 19 c-18 15 -22 25 -17 47 26 115 20 278 -10
303 -8 6 -14 20 -14 30 0 10 -11 26 -26 35 -14 10 -23 23 -20 31 3 7 0 25 -6
39 -10 22 -8 28 21 54 21 19 29 34 24 42 -4 7 -8 34 -9 61 0 36 -7 54 -26 75
-38 41 -41 59 -13 85 23 20 25 29 22 92 -2 38 1 82 7 97 8 22 7 34 -7 57 -22
38 -23 37 18 57 36 17 47 43 20 45 -8 1 -24 2 -34 3 -11 0 -25 6 -32 13 -15
15 -3 47 15 40 24 -9 26 4 7 42 -10 20 -16 42 -14 49 3 7 1 25 -5 40 -5 15 -6
58 -1 97 6 58 4 73 -9 88 -12 14 -16 35 -14 85 1 40 -3 75 -10 88 -7 12 -28
48 -46 80 -17 32 -42 72 -54 87 -19 23 -20 31 -10 47 16 26 15 55 -1 72 -14
14 -21 35 -39 128 -6 31 -23 72 -39 94 -26 36 -28 42 -14 62 16 25 4 82 -27
123 -14 18 -15 27 -7 44 9 16 8 23 -7 34 -10 7 -22 13 -27 13 -4 0 -23 15 -40
33 -18 17 -50 48 -72 68 -22 19 -48 49 -57 67 -9 18 -32 37 -51 46 -19 8 -39
21 -43 29 -5 8 -38 34 -72 58 -48 32 -68 52 -82 84 -18 41 -20 43 -74 49 -38
5 -66 16 -86 33 -33 28 -102 51 -167 58 -25 2 -56 14 -76 29 -19 14 -42 26
-53 26 -10 1 -37 9 -59 20 -22 11 -46 19 -53 20 -7 0 -32 10 -55 22 -23 12
-70 25 -105 29 -50 5 -69 12 -92 34 -18 17 -49 32 -87 40 -32 7 -90 25 -130
39 -46 16 -84 23 -105 20 -33 -5 -129 15 -167 35 -11 6 -41 10 -68 9 -26 -1
-79 3 -118 10 -38 6 -102 13 -142 16 -44 3 -88 13 -112 26 -23 11 -60 20 -84
20 -40 0 -75 18 -62 32 8 7 -24 32 -44 35 -9 1 -34 6 -56 12 -22 5 -74 14
-115 21 -41 6 -102 15 -135 21 -33 6 -91 12 -130 14 -38 2 -86 9 -105 14 -19
6 -56 11 -82 11 -26 0 -59 5 -75 11 -20 8 -43 7 -84 -1 -43 -9 -62 -9 -78 -1
-12 7 -94 14 -198 17 -97 3 -181 8 -185 10 -5 3 -31 0 -58 -6 -38 -9 -61 -9
-98 0 -38 9 -63 8 -122 -4 -179 -35 -322 -41 -430 -17 -98 21 -394 37 -535 28
-200 -13 -437 -10 -475 5 -8 4 -28 2 -45 -3z m200 -6699 c18 -19 17 -20 -6
-20 -23 1 -59 21 -59 34 0 14 48 4 65 -14z m-593 5 c9 -9 -25 -75 -39 -75 -15
0 -28 43 -19 65 5 14 47 21 58 10z"/>
<path d="M8280 13296 c0 -2 7 -6 15 -10 8 -3 15 -1 15 4 0 6 -7 10 -15 10 -8
0 -15 -2 -15 -4z"/>
<path d="M32362 11805 c-39 -12 -108 -71 -160 -137 -22 -27 -34 -131 -22 -185
6 -26 13 -66 16 -88 3 -22 15 -92 27 -155 24 -125 26 -223 8 -339 l-12 -73 46
-49 46 -49 -19 -37 c-16 -31 -18 -50 -12 -104 4 -37 11 -72 15 -80 11 -17 20
-159 17 -259 -1 -25 -2 -54 -2 -65 0 -11 -2 -75 -4 -143 -4 -98 -1 -130 12
-160 12 -28 16 -77 18 -202 2 -91 6 -196 9 -235 3 -38 10 -122 14 -186 5 -63
14 -134 21 -158 9 -35 9 -47 -3 -64 -12 -19 -12 -28 1 -67 8 -25 23 -54 32
-65 10 -11 23 -30 29 -42 6 -13 20 -23 31 -23 10 0 28 -11 39 -26 24 -31 76
-40 111 -20 14 8 41 22 60 31 19 9 41 22 50 29 8 8 31 16 50 19 19 3 60 13 90
23 30 9 76 19 103 21 39 4 52 11 73 38 24 32 68 55 105 55 20 0 127 64 144 86
6 7 33 23 60 34 28 12 61 32 75 44 14 13 56 36 93 51 37 16 70 32 73 37 3 4
22 8 42 8 21 0 57 11 82 24 25 13 61 28 80 35 20 6 56 29 80 51 60 54 102 73
139 65 17 -3 50 0 78 8 43 14 67 25 136 64 12 7 32 13 44 13 13 0 32 13 45 30
12 17 50 46 84 65 33 19 67 42 74 50 8 9 30 25 49 36 53 27 79 53 87 83 5 19
12 26 31 26 14 0 40 9 57 19 17 11 53 25 80 32 28 7 68 23 90 36 23 12 52 23
66 23 14 0 39 8 55 18 63 39 117 34 129 -12 8 -30 37 -42 52 -21 14 19 68 37
109 37 36 -1 154 56 169 81 13 21 -5 37 -46 37 -33 0 -58 9 -58 22 0 5 19 18
43 28 23 11 57 33 75 49 28 26 31 34 22 51 -6 11 -15 20 -20 20 -5 0 -12 10
-16 22 -13 41 -129 123 -190 133 -21 4 -55 16 -74 26 -19 10 -66 30 -104 44
-38 14 -98 41 -134 60 -36 19 -74 35 -84 35 -10 0 -40 11 -66 25 -26 14 -54
25 -62 25 -8 0 -37 9 -65 20 -27 10 -76 27 -108 36 -32 9 -88 38 -125 64 -37
25 -102 63 -145 83 -43 20 -97 52 -120 70 -42 35 -185 107 -210 107 -7 0 -29
14 -48 31 -19 17 -53 44 -76 60 -24 17 -47 39 -53 49 -6 11 -17 20 -25 20 -8
0 -15 4 -15 9 0 16 -167 121 -193 121 -13 0 -34 12 -48 26 -13 15 -39 33 -57
41 -18 7 -64 36 -102 63 -39 28 -72 50 -74 50 -2 0 -55 30 -117 66 -135 78
-429 214 -464 214 -13 0 -65 18 -115 40 -99 43 -143 49 -218 25z m307 -526
c17 -6 39 -8 49 -4 31 14 51 15 64 2 7 -6 30 -20 50 -29 29 -14 38 -24 43 -52
5 -25 14 -37 35 -46 15 -6 44 -29 66 -51 21 -21 42 -39 47 -39 4 0 27 -9 49
-20 23 -11 53 -20 67 -20 37 0 84 -32 111 -74 32 -53 121 -96 197 -96 58 0
103 -19 103 -42 0 -6 8 -20 17 -30 10 -11 18 -29 18 -41 0 -21 30 -34 93 -41
12 -1 29 -11 37 -22 8 -10 15 -15 15 -11 0 5 14 -3 31 -17 23 -20 42 -26 78
-26 34 0 51 -5 64 -20 9 -11 27 -20 40 -20 24 0 49 -22 60 -51 8 -23 90 -59
136 -59 21 0 44 -6 50 -14 6 -8 26 -20 44 -27 28 -11 60 -34 130 -94 9 -8 23
-15 30 -15 16 0 41 -27 50 -52 3 -9 22 -19 46 -23 23 -4 41 -11 41 -16 0 -5 6
-9 13 -9 8 0 14 7 14 15 0 9 -9 15 -22 15 -34 0 -50 24 -30 44 9 9 24 16 33
16 35 0 97 -29 108 -49 6 -11 19 -30 28 -40 24 -26 13 -41 -30 -41 -20 0 -43
-7 -52 -16 -14 -15 -14 -17 2 -26 17 -9 17 -11 -1 -22 -10 -7 -30 -16 -44 -19
-14 -4 -32 -18 -39 -33 -21 -39 -68 -74 -99 -74 -25 0 -139 -73 -156 -100 -3
-5 -22 -17 -41 -25 -19 -8 -63 -35 -96 -61 -47 -35 -67 -45 -87 -41 -14 3 -37
-1 -51 -8 -14 -8 -47 -15 -75 -15 -41 0 -55 -5 -75 -27 -28 -29 -78 -53 -110
-53 -21 0 -73 -43 -81 -68 -5 -15 -66 -24 -167 -25 l-73 0 7 -30 6 -30 -41 7
c-25 4 -50 2 -64 -5 -28 -16 -128 -99 -145 -122 -23 -31 -84 -63 -174 -91 -48
-15 -99 -37 -113 -48 -16 -12 -58 -26 -102 -34 -42 -7 -81 -18 -86 -23 -9 -9
-76 -16 -78 -8 0 1 -2 25 -5 52 -3 28 -13 71 -21 97 -15 41 -15 56 -4 112 12
60 8 286 -5 308 -5 8 -17 330 -15 381 1 16 -5 40 -13 55 -23 44 -37 188 -26
257 6 33 9 119 9 190 -1 72 -1 152 0 179 1 32 -4 55 -15 67 -11 12 -15 36 -14
90 1 41 2 81 1 89 0 8 2 49 5 90 5 71 7 77 42 107 39 35 69 40 121 22z"/>
<path d="M34980 7381 c-8 -5 -27 -14 -42 -22 -37 -16 -35 -27 6 -44 19 -8 39
-21 43 -28 4 -8 18 -20 31 -26 13 -7 32 -20 42 -28 11 -10 37 -16 67 -16 46 0
48 1 45 27 -4 33 18 35 52 2 30 -27 33 -46 9 -46 -14 0 -13 -3 6 -16 24 -17
37 -11 43 19 3 19 64 47 86 39 7 -2 12 6 13 20 0 13 2 32 4 43 7 31 -5 55 -25
55 -10 0 -21 4 -25 10 -4 6 -15 6 -31 0 -37 -14 -140 -12 -209 5 -67 16 -93
18 -115 6z"/>
<path d="M35410 7344 c0 -7 14 -14 30 -16 45 -7 90 2 90 18 0 10 -15 13 -60
11 -37 -1 -60 -6 -60 -13z"/>
<path d="M33602 7305 c-30 -14 -65 -25 -77 -25 -35 0 -38 -14 -10 -44 14 -15
25 -34 25 -42 0 -16 26 -19 35 -4 3 6 -1 13 -9 16 -9 3 -16 13 -16 21 0 13 9
15 52 10 34 -4 70 -1 105 9 43 13 57 13 69 3 10 -8 12 -15 4 -23 -15 -15 -12
-35 11 -67 27 -38 54 -39 46 -1 -3 15 -8 34 -12 43 -4 10 4 28 18 45 33 41 25
64 -21 60 -20 -2 -49 3 -64 10 -41 21 -97 17 -156 -11z"/>
<path d="M34093 7323 c-7 -2 -13 -11 -13 -18 0 -16 33 -25 51 -15 7 5 22 2 35
-7 13 -8 28 -12 34 -8 16 10 3 23 -33 34 -18 5 -39 11 -47 14 -8 3 -21 3 -27
0z"/>
<path d="M34255 7290 c-21 -14 -25 -20 -13 -20 10 0 24 -13 33 -30 12 -23 22
-30 46 -30 29 0 30 1 23 38 -6 36 -27 62 -48 62 -6 0 -24 -9 -41 -20z"/>
<path d="M34510 7291 c0 -5 -15 -18 -34 -29 -31 -18 -33 -23 -27 -54 7 -37 34
-48 71 -28 16 9 18 15 10 30 -8 15 -6 23 11 39 25 23 19 51 -11 51 -11 0 -20
-4 -20 -9z"/>
<path d="M34692 7283 c-37 -5 -39 -27 -3 -29 12 -1 24 -4 28 -7 9 -10 43 12
43 28 0 15 -5 15 -68 8z"/>
<path d="M33260 7241 c-8 -6 -31 -8 -51 -5 -23 4 -47 1 -66 -9 -18 -10 -44
-14 -69 -10 -51 6 -94 -10 -94 -37 0 -11 3 -20 8 -21 4 -1 27 -3 52 -5 73 -6
87 -12 100 -44 7 -16 16 -30 21 -30 5 0 9 -7 9 -15 0 -8 -4 -15 -10 -15 -5 0
-7 -7 -4 -15 9 -22 66 -19 86 5 13 14 29 19 62 18 39 0 51 5 101 48 65 57 68
79 10 79 -37 0 -40 2 -45 30 -5 29 -8 31 -50 33 -25 1 -52 -2 -60 -7z"/>
<path d="M34860 7240 c-8 -5 -12 -12 -8 -15 8 -8 58 5 58 16 0 12 -31 11 -50
-1z"/>
<path d="M37317 7172 c-30 -14 -35 -20 -25 -30 24 -24 158 -8 158 19 0 14 -37
29 -67 28 -15 0 -45 -8 -66 -17z"/>
<path d="M37025 7137 c-40 -34 -29 -62 21 -54 61 10 86 69 33 75 -17 2 -37 -6
-54 -21z"/>
<path d="M33746 7131 c-9 -13 24 -71 40 -71 8 0 14 5 14 11 0 17 -48 70 -54
60z"/>
<path d="M35128 7123 c-19 -5 -24 -28 -9 -38 12 -7 43 24 36 36 -4 5 -7 8 -8
8 -1 -1 -10 -3 -19 -6z"/>
<path d="M35701 7040 c-16 -9 -6 -30 15 -30 15 0 20 25 6 34 -4 2 -14 1 -21
-4z"/>
<path d="M31308 7033 c-9 -2 -24 -16 -33 -30 -14 -20 -15 -27 -4 -34 19 -11
48 8 55 37 7 29 5 32 -18 27z"/>
<path d="M13360 5140 c-13 -24 -41 -25 -86 -4 -19 9 -37 14 -40 11 -10 -10 7
-47 21 -47 28 0 26 -44 -4 -103 -17 -31 -39 -66 -49 -77 -13 -15 -18 -38 -20
-102 -1 -46 -5 -90 -7 -99 -3 -10 16 -49 45 -93 29 -42 50 -84 48 -93 -2 -10
-16 -24 -31 -31 -34 -17 -35 -45 -1 -89 38 -50 44 -135 15 -204 -20 -46 -21
-55 -10 -100 7 -27 23 -59 35 -70 l23 -21 34 21 c46 28 70 27 108 -8 30 -28
31 -30 15 -52 -18 -26 -21 -65 -7 -73 5 -4 0 -25 -12 -49 -35 -73 -39 -116
-13 -162 23 -40 36 -90 40 -155 6 -87 18 -122 47 -139 35 -19 43 -40 29 -75
-5 -15 -10 -49 -10 -75 0 -45 3 -50 40 -75 40 -27 44 -33 40 -74 -1 -13 8 -40
19 -62 15 -28 19 -51 15 -88 -2 -29 2 -66 11 -92 8 -23 15 -53 15 -66 0 -13
14 -37 30 -54 25 -26 28 -34 20 -51 -14 -26 22 -136 55 -164 26 -23 40 -99 37
-204 -1 -36 3 -70 10 -78 8 -10 8 -20 0 -38 -9 -20 -8 -33 7 -67 10 -24 28
-52 40 -62 11 -11 21 -31 21 -46 0 -19 8 -30 28 -39 77 -36 77 -36 82 -77 6
-43 60 -119 93 -130 21 -7 47 12 47 35 0 9 14 32 30 51 24 29 32 33 46 24 10
-6 21 -23 26 -39 8 -33 23 -45 57 -45 14 0 32 -7 42 -16 10 -9 37 -16 67 -16
44 -1 56 3 102 40 29 23 57 42 63 42 5 0 7 14 4 34 -4 23 -1 36 7 39 7 3 23
25 36 50 23 43 24 49 12 94 -17 64 -37 89 -97 121 -76 41 -108 50 -136 39 -38
-14 -76 -10 -108 13 -34 23 -48 57 -32 73 14 14 -14 47 -40 47 -10 0 -30 10
-44 23 -24 20 -28 32 -31 92 -3 46 1 79 9 95 12 22 11 29 -5 53 -11 15 -18 33
-15 40 2 6 -2 27 -9 46 -12 30 -12 37 1 57 20 31 19 47 -6 70 -14 12 -18 25
-14 41 6 24 -14 104 -39 158 -8 17 -20 44 -27 60 -7 17 -28 53 -47 82 -35 53
-62 140 -62 205 0 20 -6 43 -12 50 -7 7 -15 24 -16 38 -2 14 -10 32 -18 41
-27 30 -52 89 -47 108 4 15 -5 24 -35 40 -22 11 -51 35 -65 52 -23 30 -81 59
-119 59 -9 0 -29 15 -43 34 -22 29 -24 38 -15 55 7 13 7 28 2 39 -16 30 -22
95 -10 109 14 17 43 17 57 -1 7 -8 27 -18 44 -22 18 -3 37 -10 42 -14 6 -4 25
-10 43 -13 31 -6 32 -5 32 27 0 22 10 46 31 72 28 35 30 43 23 89 -8 61 -32
110 -73 149 -17 17 -31 37 -31 45 0 9 -9 31 -21 50 -13 22 -18 42 -14 60 7 33
-17 95 -46 114 -17 13 -19 18 -8 34 10 17 7 30 -20 83 -25 48 -30 69 -24 89 8
27 13 86 15 186 2 49 -3 68 -26 108 -15 26 -33 48 -39 48 -7 1 -19 3 -27 3
-43 4 -101 19 -106 27 -9 16 -33 10 -44 -11z m165 -1229 c-3 -6 -11 -8 -17 -5
-6 4 -5 9 3 15 16 10 23 4 14 -10z"/>
</g>
</svg>
