<svg xmlns="http://www.w3.org/2000/svg" width="82.149" height="102.719"><defs><clipPath id="b"><path d="M562.027 425.93c45.118 11.898 29.356 50.41 29.356 50.41-5-8.746-31.348-33.738-50.528-.094-11.406 19.942-49.687 83.438-49.687 83.438l1.562.468s39.961-68.836 80.372-50.945c18.671 8.266 15.097 39.137 15.097 39.137-10.703-15.031-29.726-11.645-41.933 5.879-10.039 14.398-44.961 61.183-44.961 61.183 30.742-31.093 45.293-43.863 72.48-34.105 15.059 5.39 18.535 31.586 18.535 31.586-30.117-13.246-33.554-4.84-70.234 40.289-32.969 40.531-34.18 41.043-34.18 41.043s5.938.472 11.719 5.871c10.801 10.023-.684 24.754-.684 23.344 0-1.411-5.898-21.563-38.671-.02-26.192 17.215-44.317 15.449-44.317 15.449-25.449.356-32.031-17.543-26.387-33.086 5.918-16.289 29.493-36.422 37.286-57.125 12.207-32.312-18.711-32.312-18.711-32.312 18.418-19.043 38.535-.473 38.535-.473 5.937-7.492 9.492-22.926 3.144-37.769-6.347-14.825-16.015-17.168-47.109-13.293-20.02 2.511-29.336-2.754-33.438-6.821-3.027 9.102-4.335 17.293-.957 24.907 7.09 16.007 16.622 30.797 17.247 48.031.625 17.238-1.856 20.933-1.856 20.933s12.012-8.011 26.484 8.625c0 0-12.011-6.781-29.55 15.083-17.559 21.851-15.098 20.621-23.711 28.308h-80.043v-21.859l33.23-21.532 11.094-13.246-19.094-18.472s13.242-4.004 13.242-15.387c0-11.391-13.55-18.473-27.703-18.473-14.172 0-29.25 10.153-39.101 4.621-9.844-5.543-12-16.324-12-16.324s10.164 6.778 21.55 1.235c11.387-5.551 13.536-11.082 27.391-9.239 0 0-15.496-3.32-29.558-25.859l-.04.406s-5.293 14.836-36.386 10.949c-31.074-3.89-39.571 5.301-45.918 20.133-6.36 14.836-.352 33.215 6.347 39.571 0 0 9.551-16.602 32.508-9.891 0 0-20.847 12.367-13.418 33.211 7.414 20.836 26.223 43.058 32.141 59.336 5.652 15.547-.703 31.09-26.145 30.738 0 0-25.086.707-47.332-15.191-22.265-15.899-22.597 6.007-22.597 7.418 0 1.418-17.325-14.828-6.719-25.082 7.812-7.563 13.906-7.227 16.562-6.543-4.589-1.985-19.941-10.93-43.066-47.512-27.89-44.145-46.621-39.559-52.977-30.016 0 0-5.668-25.797 8.114-33.914 12.246-7.226 22.605-9.89 53.34 21.196 0 0-25.067-48.403-33.907-54.758-8.828-6.36-15.547-12.715-32.86-1.051 0 0-2.12-33.203 17.665-38.156 19.785-4.946 46.277 6.004 68.535 46.273 0 0-28.613-76.652-48.398-88.312-19.785-11.664-34.258 1.765-34.961 5.297 0 0-10.254-45.571 29.316-48.754 39.571-3.18 70.645 65.359 79.473 89.375h2.129s-21.914-83.368-48.047-106.676c-26.152-23.32-54.043-8.836-57.227.703 0 0-5.293-33.223 24.375-46.992 29.668-13.77 59.707 13.437 68.184 23.32 8.476 9.895 30.723 39.566 38.867 71 8.106 31.441 9.883 33.215 9.883 33.215l1.406.351s-14.844-69.949-15.539-78.417c-.711-8.493-7.769-44.879-27.906-49.469 0 0 4.937-13.77 35.32-10.235 30.371 3.536 39.922 66.411 40.266 78.422.371 12.004 4.949 43.801 4.949 43.801l1.77.703s-3.528-54.39-3.176-65.351c.359-10.954-.352-41.325-10.606-45.211 0 0 13.672-11.66 34.864 22.324 1.062-8.867.586-16.953-2.774-22.774-11.094-19.101-34.18-57.246-72.043-41.25 0 0 7.395-24.316 32.942-34.472 0 0-13.868-40.957 11.687-68.047 0 0-5.535 31.406 25.246 49.883 0 0 14.473 8.613 23.399 20.625 0 0 19.082-50.489 16.015-61.27-3.086-10.762-4.929-17.851-14.472-17.851-9.551 0-10.469 8.32-10.469 8.32s-11.082-19.707 3.066-27.422c14.16-7.695 24.942-.605 26.192 2.481 0 0-3.086-41.25-16.028-45.254-12.925-4.004-18.765-2.461-25.535 8.3-6.789 10.801 0 26.778 0 26.778s-19.101-1.524-19.101-17.852c0 0-44.024 5.547-63.106-31.074-19.082-36.64 6.152-60.352 9.856-61.895 3.687-1.543-12.832 22.598 4.617 31.094 12.617 6.153 35.097-20 44.941-24.004 9.856-4.004 37.254-17.246 76.348 29.864 0 0-11.699-32.325-32.024-44.024 0 0 8.633-7.383 24.028-4.004 0 0 1.843-27.715 16.621-38.789 0 0 7.703 4.922 12.933 37.246 0 0 13.848-4.922 30.176 1.543 0 0-28.32 14.16-33.558 49.258 0 0 21.546-34.785 57.875-34.785 36.308 0 41.25 28.008 53.867 27.695 12.637-.293 20.625-13.848 14.472-28.926 0 0 26.485 31.7 7.071 67.422-19.395 35.703-64.336 21.25-64.336 21.25s-4.61 25.528-28.32 18.77c0 0 16.621-14.16 3.691-28.32-12.93-14.161-36.621-3.106-37.266 20.917-.605 24.024 0 17.852 0 17.852s10.489-13.535 23.711-4.902c13.262 8.613 10.781 25.234 3.711 31.699 0 0-1.23-7.383-10.469-7.383-9.238 0-15.39 9.844-9.843 25.547 5.527 15.703 20 50.488 20 50.488s44.336-36.953 39.414-66.191c0 0 31.699 30.176 19.687 65.254 0 0 25.254 12.636 29.258 37.871 0 0-15.391-17.559-43.418-1.856-28.008 15.704-36.309 46.192-36.309 56.661 0 0 0 .253.04.742 19.609-25.508 36.992-17.813 36.992-17.813-10.254 3.887-12.11 38.656-11.739 49.61.332 10.949-3.203 65.351-3.203 65.351l1.778-.699s4.59-31.805 4.941-43.813c.352-12.007 14.238-78.574 44.609-82.109 30.372-3.535 32.286 11.66 32.286 11.66-20.137 4.59-28.477 43.25-29.2 51.723-.703 8.48-11.113 68.687-11.113 68.687l3.574-.781s.489-3.277 13.282-33.715c12.597-29.937 21.386-49.859 29.648-59.925 21.387-26.067 46.035-38.274 76.895-27.356 32.929 11.66 26.757 43.945 26.757 43.945-3.183-9.543-33.73-21.75-66.191 7.129-26.152 23.274-54.004 104.727-54.004 104.727l1.856-.156c10.781-23.102 55.722-102.543 98.339-91.297z"/></clipPath><filter id="a" color-interpolation-filters="sRGB"><feColorMatrix values="0.21 0.72 0.072 0 0 0.21 0.72 0.072 0 0 0.21 0.72 0.072 0 0 0 0 0 1 0"/></filter></defs><g filter="url(#a)" transform="matrix(1.33333 0 0 -1.33333 -.943 103.664)"><path d="M.709 77.748V31.527c-.004-.117-.246-11.8 7.107-20.075 3.578-4.025 7.408-6.831 11.71-8.58C23.098 1.423 27.011.714 31.486.71h.052c4.478.004 8.392.713 11.962 2.164 4.303 1.748 8.134 4.554 11.71 8.58 7.354 8.275 7.111 19.956 7.107 20.085v46.21H31.487z" fill="#30328e"/><path d="M56.19 42.636c4.509 1.19 2.933 5.042 2.933 5.042-.5-.874-3.13-3.374-5.055-.01-1.139 1.994-4.965 8.344-4.965 8.344l.156.048s3.996-6.884 8.037-5.096c1.866.827 1.51 3.914 1.51 3.914-1.072-1.503-2.972-1.164-4.193.589-1.006 1.439-4.496 6.117-4.496 6.117 3.072-3.108 4.527-4.385 7.25-3.41 1.502.54 1.851 3.158 1.851 3.158-3.013-1.325-3.355-.484-7.025 4.03-3.293 4.053-3.42 4.104-3.42 4.104s.594.048 1.176.587c1.08 1.003-.068 2.476-.068 2.334 0-.141-.592-2.155-3.868-.002-2.619 1.722-4.433 1.546-4.433 1.546-2.543.035-3.203-1.756-2.639-3.31.594-1.627 2.951-3.641 3.73-5.713 1.22-3.23-1.87-3.23-1.87-3.23 1.826-1.783 3.853-.047 3.853-.047.594-.75.95-2.293.31-3.777-.632-1.484-1.6-1.717-4.707-1.328-2.001.249-2.933-.276-3.345-.683-.301.91-.432 1.728-.094 2.49.707 1.601 1.662 3.079 1.723 4.802.062 1.725-.184 2.094-.184 2.094s1.2-.8 2.647.863c0 0-1.202-.678-2.956 1.508-1.753 2.186-1.507 2.062-2.369 2.831h-8.005v-2.185l3.324-2.154 1.108-1.324-1.909-1.849s1.325-.4 1.325-1.538c0-1.14-1.356-1.848-2.77-1.848-1.417 0-2.925 1.016-3.91.463-.985-.553-1.201-1.632-1.201-1.632s1.016.677 2.155.123c1.14-.554 1.354-1.108 2.74-.923 0 0-1.55-.332-2.957-2.586l-.003.04s-.53 1.484-3.638 1.095c-3.11-.388-3.957.53-4.592 2.014-.637 1.483-.035 3.321.635 3.956 0 0 .954-1.66 3.25-.99 0 0-2.084 1.238-1.342 3.321.742 2.085 2.622 4.307 3.215 5.935.565 1.555-.07 3.108-2.616 3.074 0 0-2.507.07-4.732-1.519-2.227-1.59-2.268.625-2.268.765 0 .143-1.724-1.507-.665-2.53.783-.758 1.392-.725 1.658-.656-.46-.2-1.995-1.092-4.307-4.75-2.791-4.415-4.663-3.957-5.299-3.003 0 0-.492-2.626.887-3.439 1.224-.722 2.185-.941 5.26 2.167 0 0-2.487-4.805-3.37-5.44-.884-.636-1.603-1.232-3.306-.141 0 0-.198-3.395 1.804-3.792 2.041-.404 4.59.577 6.815 4.604 0 0-2.861-7.666-4.841-8.831-1.978-1.166-3.425.176-3.497.53 0 0-1-4.541 2.957-4.86 3.957-.318 7.041 6.52 7.924 8.922h.212s-2.15-8.382-4.805-10.669c-2.655-2.285-5.404-.883-5.723.071 0 0-.53-3.323 2.439-4.698 2.957-1.37 5.969 1.342 6.817 2.332.848.988 3.074 3.955 3.886 7.1.813 3.144.989 3.322.989 3.322l.141.033s-1.483-6.993-1.554-7.841c-.07-.849-.776-4.487-2.79-4.946 0 0 .495-1.379 3.532-1.025 3.038.353 3.993 6.641 4.027 7.843.036 1.2.495 4.38.495 4.38l.177.071s-.353-5.44-.318-6.536c.035-1.095-.035-4.133-1.06-4.522 0 0 1.367-1.166 3.486 2.235.106-.887.057-1.698-.28-2.278-1.107-1.91-3.416-5.726-7.202-4.125 0 0 .738-2.431 3.293-3.449 0 0-1.385-4.094 1.17-6.803 0 0-.553 3.14 2.525 4.987 0 0 1.446.863 2.339 2.062 0 0 1.909-5.049 1.602-6.125-.308-1.078-.494-1.785-1.447-1.785-.955 0-1.048.83-1.048.83s-1.108-1.97.308-2.74c1.417-.768 2.494-.06 2.617.246 0 0-.307-4.125-1.602-4.526-1.29-.4-1.877-.246-2.554.83-.678 1.08 0 2.682 0 2.682s-1.908-.156-1.908-1.787c0 0-4.403.553-6.312-3.11-1.907-3.663.616-6.034.985-6.187.37-.154-1.283 2.258.461 3.108 1.263.617 3.511-2 4.496-2.4.985-.4 3.725-1.723 7.635 2.988 0 0-1.17-3.235-3.202-4.405 0 0 .862-.738 2.401-.398 0 0 .184-2.772 1.662-3.881 0 0 .77.494 1.293 3.725 0 0 1.387-.493 3.018.156 0 0-2.832 1.416-3.357 4.924 0 0 2.155-3.479 5.788-3.479 3.633 0 4.127 2.8 5.389 2.77 1.262-.03 2.06-1.383 1.445-2.893 0 0 2.649 3.17.711 6.742-1.941 3.57-6.437 2.125-6.437 2.125s-.461 2.555-2.83 1.877c0 0 1.662-1.416.369-2.832s-3.664-.308-3.727 2.094c-.06 2.402 0 1.785 0 1.785s1.047-1.353 2.373-.492c1.322.861 1.076 2.525.37 3.17 0 0-.124-.74-1.05-.74-.921 0-1.538.986-.984 2.558.553 1.569 2.002 5.047 2.002 5.047s4.432-3.695 3.94-6.619c0 0 3.171 3.018 1.97 6.527 0 0 2.526 1.262 2.924 3.787 0 0-1.539-1.756-4.34-.185-2.8 1.57-3.633 4.617-3.633 5.664l.004.074c1.961-2.55 3.701-1.781 3.701-1.781-1.025.39-1.21 3.867-1.175 4.961.035 1.096-.397 6.564-.397 6.564l.254-.099s.461-3.179.494-4.38c.035-1.202 1.424-7.859 4.463-8.212 3.037-.354 3.227 1.166 3.227 1.166-2.014.46-2.85 4.326-2.92 5.173-.07.848-1.112 6.87-1.112 6.87l.358-.08s.049-.327 1.328-3.37c1.258-2.993 2.14-4.986 2.965-5.993 2.138-2.608 4.605-3.829 7.69-2.735 3.294 1.166 2.677 4.394 2.677 4.394-.318-.954-3.373-2.175-6.62.712-2.618 2.328-5.401 10.473-5.401 10.473l.187-.016c1.076-2.309 5.572-10.254 9.834-9.13" fill="#fff"/><g clip-path="url(#b)" fill="#ee2729" transform="scale(.1)"><path d="M239.746 397.648h76.301v76.606h-76.301v-76.606M239.746 552.262h76.301v77.715h-76.301v-77.715M239.551 242.227h76.301v80.332h-76.301v-80.332M239.746 90.293h76.301v75.859h-76.301V90.293M87.54 552.273h76.3v77.711h-76.3v-77.711M87.344 702.063h76.301v56.531H87.344v-56.531M87.54 396.793h76.3v76.977h-76.3v-76.977"/><path d="M11.426 474.566h76.308v77.723H11.426v-77.723M11.426 319.16h76.308v77.711H11.426V319.16M468.863 474.566h76.309v77.723h-76.309v-77.723M468.863 629.977h76.309v72.519h-76.309v-72.519M468.668 319.941h76.289v77.715h-76.289v-77.715M545.758 396.059h76.328v77.714h-76.328v-77.714M545.758 552.273h76.328v77.711h-76.328v-77.711M315.645 473.672h74.449v78.844h-74.449v-78.844M316.008 629.918h72.601v73.621h-72.601v-73.621M315.645 322.656h72.964v74.36h-72.964v-74.36M315.645 166.055h72.964v75.84h-72.964v-75.84M315.852 12.324h72.601V90.04h-72.601V12.324"/><path d="M389.137 552.273h80.019v77.711h-80.019v-77.711M391.266 702.063h77.793v45.734h-77.793v-45.734M388.551 396.859h80.39v77.344h-80.39v-77.344M388.746 242.227h76.309v79.961h-76.309v-79.961M388.551 90.04h80.39v76.23h-80.39V90.04M163.645 474.563h76.296v77.71h-76.296v-77.71M163.645 630.32h76.296v71.774h-76.296V630.32M163.438 319.16h76.308v77.711h-76.308V319.16M163.438 166.387h76.308v75.859h-76.308v-75.859M163.438 12.324h76.308V90.06h-76.308V12.324"/></g><path d="M46.394 51.837l-.187.016-.13.011.042-.122c.113-.335 2.82-8.194 5.426-10.51 2.423-2.156 4.525-1.898 5.318-1.686.734.195 1.299.593 1.435 1.01l-.162.01c.026-.128.565-3.17-2.62-4.297-2.804-.992-5.288-.107-7.597 2.708-.84 1.025-1.753 3.121-2.955 5.973-1.236 2.944-1.316 3.337-1.318 3.351l-.012.057a.634.634 0 0 1-.052.013l-.362.078-.12.027.02-.124c.009-.06 1.042-6.027 1.112-6.861.059-.723.865-4.764 2.984-5.247l-.066.092c-.002-.014-.227-1.432-3.133-1.094-3.014.352-4.353 6.997-4.387 8.13-.035 1.193-.492 4.36-.496 4.39l-.006.05-.044.017-.178.071-.123.05.008-.134c.002-.054.351-5.449.316-6.527-.027-.898.1-4.615 1.23-5.043l-.005.156c-.016-.006-1.705-.707-3.596 1.756l-.139.178-.013-.225-.006-.074c0-1.158.928-4.201 3.676-5.742 2.83-1.586 4.431.183 4.447.201l-.147.068c-.388-2.453-2.855-3.71-2.879-3.722l-.066-.033.023-.07c1.168-3.419-1.917-6.409-1.947-6.438l.14-.076c.495 2.94-3.788 6.546-3.97 6.699l-.088.072-.043-.105c-.015-.036-1.455-3.498-2.004-5.053-.308-.873-.28-1.662.075-2.16.23-.328.584-.51.99-.51.984 0 1.129.803 1.13.81l-.14-.048c.373-.34.592-.965.543-1.555-.049-.61-.37-1.135-.902-1.482-1.244-.811-2.215.42-2.256.474l.017-.043c-.006.057-.015.153-.103.147-.11-.008-.115-.008-.067-1.944.032-1.246.703-2.293 1.71-2.668.789-.294 1.597-.101 2.164.52.369.402.54.848.511 1.318-.058.918-.855 1.608-.889 1.635l-.03-.146c.654.187 1.216.138 1.675-.149.834-.517 1.047-1.65 1.049-1.664l.015-.094.094.03c.043.013 4.451 1.382 6.332-2.084 1.89-3.477-.672-6.616-.697-6.649l.144-.084c.329.803.286 1.613-.113 2.225a1.717 1.717 0 0 1-1.412.785c-.508.014-.885-.383-1.357-.883-.756-.797-1.791-1.887-4.032-1.887-3.544 0-5.693 3.403-5.714 3.438l-.156-.057c.523-3.511 3.372-4.974 3.4-4.988l.008.154c-1.582-.627-2.944-.158-2.957-.154l-.096.035-.016-.101c-.508-3.127-1.25-3.663-1.257-3.666l.098-.004c-1.43 1.074-1.628 3.789-1.63 3.816l-.005.1-.096-.022c-1.495-.33-2.32.373-2.328.381l-.014-.139c2.035 1.174 3.192 4.317 3.238 4.45l-.143.08c-1.612-1.94-3.21-3.07-4.748-3.358-1.255-.236-2.157.137-2.696.36l-.094.037c-.313.129-.784.51-1.283.912-1.063.857-2.385 1.924-3.28 1.488-1.322-.644-.804-2.117-.554-2.826.049-.135.103-.291.1-.328 0 .006.005.023.023.035.02.012.037.012.042.01l-.004.002c-.161.066-.947.744-1.368 1.906-.47 1.291-.32 2.73.427 4.164 1.858 3.566 6.18 3.07 6.225 3.064l.094-.011v.095c0 1.536 1.757 1.696 1.831 1.702l-.084.117c-.029-.067-.687-1.654.005-2.756.681-1.082 1.3-1.285 2.653-.867 1.333.412 1.647 4.427 1.66 4.6l-.163.036c-.039-.093-.234-.293-.6-.425-.336-.12-1.026-.25-1.898.222a1.22 1.22 0 0 0-.62.748c-.236.827.34 1.868.345 1.875l-.159.034c.002-.008.114-.907 1.132-.907 1.001 0 1.215.752 1.512 1.791l.017.057c.312 1.092-1.524 5.97-1.603 6.18l-.055.144-.092-.125c-.873-1.172-2.301-2.031-2.316-2.039-3.093-1.855-2.57-5.043-2.564-5.076l.145.074c-2.49 2.639-1.165 6.678-1.151 6.719l.024.074-.073.032c-2.485.988-3.237 3.369-3.244 3.392l-.114-.103c3.93-1.66 6.298 2.42 7.31 4.162.317.547.41 1.308.288 2.33l-.028.24-.128-.206c-1.124-1.804-2.02-2.284-2.573-2.37-.504-.078-.782.154-.785.156l-.026-.143c1.213.46 1.13 4.18 1.115 4.604-.035 1.078.315 6.471.318 6.527l.009.134-.125-.05-.176-.07-.046-.02-.007-.048c-.005-.031-.46-3.198-.495-4.39-.03-.96-.913-7.407-3.953-7.76-2.923-.34-3.439.956-3.442.97l-.062-.113c2.063.47 2.778 4.081 2.856 5.022.07.832 1.539 7.762 1.553 7.831l.028.133-.131-.032-.141-.036-.023-.006-.016-.016c-.032-.032-.234-.346-1.012-3.36-.918-3.553-3.568-6.716-3.869-7.066-1.15-1.343-4.037-3.554-6.718-2.31-2.872 1.334-2.393 4.576-2.388 4.608l-.005-.018-.16.005c.17-.509.888-1.024 1.748-1.254.812-.217 2.427-.355 4.111 1.146 2.603 2.323 4.74 10.37 4.83 10.712l.03.104h-.382l-.02-.054c-1.263-3.433-4.338-9.166-7.862-8.883-1.032.083-1.809.47-2.309 1.148-1.031 1.4-.553 3.601-.548 3.625l.003.009v.009l-.169-.017c.044-.22.42-.603.946-.84.583-.26 1.522-.428 2.678.254 1.98 1.167 4.758 8.56 4.876 8.875l-.155.07c-1.906-3.453-4.434-5.167-6.758-4.587-1.885.473-1.703 3.696-1.701 3.728l-.133-.064c1.683-1.133 2.402-.608 3.236 0l.147.107c.889.64 3.314 5.307 3.417 5.505l-.136.098c-3.016-3.05-4.03-2.813-5.23-2.105-1.309.772-.778 3.274-.774 3.3l-.152-.03a1.487 1.487 0 0 1 1.275-.67c.846.01 2.258.657 4.166 3.675 2.315 3.665 3.852 4.54 4.267 4.72l-.054.159c-.271-.071-.837-.082-1.577.633-.268.26-.367.584-.294.965.136.704.81 1.366.916 1.409a.07.07 0 0 0-.06.01l-.034.063c0-.103.017-1.012.595-1.31.426-.217 1.03-.05 1.8.499 2.174 1.554 4.656 1.504 4.682 1.503 1.142.016 1.972-.293 2.4-.897.378-.531.427-1.264.137-2.062-.273-.75-.826-1.634-1.412-2.57-.691-1.104-1.403-2.243-1.803-3.366-.758-2.124 1.357-3.409 1.379-3.422l.02.155c-2.203-.644-3.116.884-3.153.95l-.055.093-.078-.074c-.71-.672-1.304-2.54-.654-4.05.698-1.633 1.65-2.444 4.68-2.066 2.993.375 3.543-1.025 3.548-1.04l-.004.023.002-.04.02-.258.137.22c1.368 2.191 2.888 2.544 2.904 2.547l-.031.167c-.962-.128-1.332.104-1.89.457-.222.14-.475.3-.802.46-1.17.567-2.195-.102-2.238-.13l.13-.087c.002.01.222 1.047 1.16 1.574.55.31 1.3.094 2.095-.135.58-.165 1.179-.338 1.771-.338 1.385 0 2.856.677 2.856 1.933 0 1.187-1.37 1.616-1.383 1.62l.034-.142 1.909 1.847.057.055-.05.06-1.11 1.324-.008.01-.01.007-3.326 2.154.041-.07v2.185l-.086-.085h8.006l-.059.02c.549-.488.645-.613 1.104-1.215.251-.329.63-.824 1.257-1.606 1.78-2.214 3.012-1.557 3.065-1.528l-.108.129c-1.377-1.582-2.49-.877-2.535-.847l.012-.01-.129-.108c0-.003.229-.395.17-2.043-.047-1.306-.607-2.453-1.197-3.669-.174-.358-.356-.729-.52-1.102-.38-.858-.166-1.772.092-2.55l.045-.132.096.098c.357.353 1.257.91 3.273.657 3.209-.401 4.152-.13 4.799 1.38.63 1.471.314 3.058-.324 3.863l-.057.071-.066-.06c-.08-.074-1.975-1.779-3.739.042l-.06-.143c.054 0 1.324.01 1.933.89.407.586.412 1.413.02 2.455-.416 1.102-1.256 2.166-2.067 3.195-.714.904-1.388 1.757-1.664 2.517-.296.818-.226 1.658.194 2.244.45.638 1.27.966 2.365.951h.008c.017.002 1.82.15 4.379-1.53 1.81-1.19 2.808-1.105 3.33-.825.545.294.668.826.668.896a.076.076 0 0 0-.041-.066c-.028-.016-.06-.008-.067-.002.073-.05.422-.547.465-1.107.035-.43-.11-.8-.431-1.096-.553-.514-1.118-.564-1.122-.566l-.029-.161-.015.01c.025-.022.334-.317 3.402-4.09l.785-.97c2.965-3.672 3.496-4.334 6.34-3.084l-.117.09c-.004-.027-.36-2.575-1.797-3.091-2.7-.967-4.145.34-7.158 3.39l-.131-.11c.035-.047 3.504-4.694 4.494-6.117.695-.995 1.619-1.57 2.533-1.574.703-.005 1.344.346 1.8.986l-.153.04c.002-.03.326-3.037-1.461-3.827-3.926-1.738-7.891 4.992-7.93 5.06l-.033.057-.065-.018-.156-.047-.105-.032.058-.094c.037-.063 3.838-6.372 4.963-8.342.666-1.16 1.475-1.747 2.406-1.747 1.268 0 2.448 1.144 2.797 1.758l-.152.009c.008-.016.625-1.566-.072-2.962-.467-.937-1.41-1.598-2.805-1.966-4.018-1.06-8.389 6.199-9.734 9.085l-.022.045zm9.846-9.296c1.445.38 2.426 1.071 2.916 2.054.728 1.466.103 3.035.076 3.1l-.064.162-.086-.15c-.336-.584-1.453-1.673-2.65-1.673-.866 0-1.628.56-2.259 1.663-1.127 1.971-4.93 8.281-4.968 8.346l-.045-.125.156.046-.098.038c.01-.017 1.02-1.748 2.516-3.234 1.996-1.986 3.941-2.641 5.629-1.895 1.898.841 1.572 3.873 1.56 4l-.027.22-.127-.179c-.431-.603-1.006-.92-1.662-.916-.86.004-1.73.552-2.394 1.503-.993 1.424-4.461 6.074-4.497 6.12l-.129-.11c3.069-3.103 4.541-4.433 7.338-3.43 1.537.55 1.893 3.118 1.909 3.227l.02.15-.14-.061c-2.724-1.198-3.18-.634-6.14 3.035l-.785.97c-.993 1.223-3.32 4.075-3.45 4.129l-.027-.162c.028.001.631.054 1.225.608.84.777.377 1.804.217 2.1-.104.192-.254.415-.36.388a.092.092 0 0 1-.066-.092c-.004-.06-.133-.522-.608-.762-.482-.242-1.416-.296-3.13.83-2.614 1.719-4.413 1.567-4.487 1.56h.01c-1.457.02-2.168-.544-2.508-1.021-.455-.643-.531-1.518-.213-2.402.287-.784.969-1.648 1.692-2.562.802-1.02 1.634-2.074 2.04-3.15.372-.988.372-1.76-.001-2.3-.557-.808-1.78-.817-1.793-.817h-.2l.14-.143c1.876-1.942 3.952-.07 3.974-.051l-.125.01c.607-.767.906-2.28.3-3.692-.607-1.414-1.513-1.666-4.62-1.277-1.983.247-2.952-.248-3.415-.707l.139-.034c-.248.75-.453 1.625-.098 2.43.164.37.344.74.518 1.098.6 1.231 1.166 2.394 1.213 3.735.062 1.733-.188 2.128-.197 2.145l-.12-.118c.014-.008 1.282-.823 2.76.876l-.107.13c-.01-.006-1.166-.607-2.846 1.488-.625.779-1.004 1.275-1.256 1.602-.467.613-.564.74-1.123 1.24l-.025.022H27.619v-2.317l.04-.024 3.325-2.156-.02.017 1.108-1.323.007.115-1.91-1.848-.103-.1.14-.041c.01-.004 1.262-.397 1.262-1.458 0-1.104-1.366-1.762-2.687-1.762-.568 0-1.156.167-1.724.331-.83.238-1.614.463-2.225.119-1.009-.566-1.234-1.643-1.242-1.69l-.041-.2.17.115c.01.006.991.641 2.07.117.318-.155.566-.312.785-.45.569-.359.98-.618 2.004-.482l-.03.167c-.063-.014-1.6-.366-3.01-2.623l.156-.04-.003.04v.012l-.004.01c-.023.064-.589 1.544-3.73 1.151-3.215-.402-3.941.652-4.503 1.964-.61 1.423-.042 3.237.616 3.86l-.133.02c.011-.017 1.016-1.709 3.348-1.029l.188.056-.168.1c-.082.05-2.015 1.225-1.305 3.219.393 1.105 1.102 2.236 1.785 3.33.591.945 1.15 1.837 1.43 2.604.308.852.253 1.64-.158 2.218-.463.651-1.34.985-2.538.968-.023.001-2.559.054-4.783-1.534-.713-.51-1.258-.673-1.62-.486-.5.257-.506 1.123-.506 1.159 0 .044-.028.08-.068.09-.146.039-.614-.491-.843-.9-.276-.492-.486-1.197.096-1.76.8-.771 1.432-.754 1.736-.675l-.054.16c-.547-.236-2.067-1.177-4.344-4.782-1.867-2.956-3.219-3.588-4.024-3.597a1.304 1.304 0 0 0-1.132.595l-.112.166-.042-.194c-.024-.108-.562-2.649.853-3.483 1.27-.75 2.334-1.004 5.436 2.132l-.135.099c-.026-.047-2.508-4.829-3.366-5.445l-.148-.108c-.814-.594-1.457-1.063-3.04.003l-.122.082-.01-.147c-.008-.138-.193-3.397 1.83-3.903 2.404-.6 5.002 1.145 6.948 4.67l-.153.07c-.03-.076-2.873-7.651-4.803-8.788-1.093-.645-1.976-.489-2.522-.244-.517.23-.823.583-.85.717l-.165.003c-.021-.094-.5-2.3.576-3.762.532-.72 1.348-1.13 2.432-1.217 1.736-.139 3.486 1.034 5.203 3.485 1.576 2.251 2.565 4.785 2.832 5.508l-.08-.056h.211l-.081.107c-.023-.083-2.214-8.34-4.78-10.627-1.623-1.449-3.174-1.317-3.955-1.108-.899.24-1.502.755-1.63 1.142l-.163-.013c-.006-.034-.506-3.399 2.485-4.787 1.302-.606 2.741-.514 4.278.279a9.367 9.367 0 0 1 2.64 2.072c.302.353 2.975 3.545 3.903 7.135.768 2.97.965 3.278.974 3.29l-.007-.008-.039-.022.14.035-.103.1c-.06-.285-1.485-7.01-1.556-7.853-.07-.859-.78-4.427-2.724-4.87l-.095-.02.033-.092c.022-.058.553-1.437 3.623-1.08 1.309.153 2.42 1.418 3.21 3.66.625 1.775.874 3.672.892 4.265.035 1.182.49 4.339.494 4.37l-.053-.066.176.07-.115.085c-.014-.223-.353-5.457-.318-6.543.044-1.388-.108-4.1-1.006-4.44l-.133-.051.11-.094c.012-.012.341-.285.92-.195.589.092 1.534.59 2.691 2.449l-.156.034c.116-.97.027-1.718-.267-2.223-.989-1.705-3.306-5.694-7.097-4.09l-.168.068.054-.172c.007-.025.78-2.482 3.343-3.502l-.047.106c-.016-.043-1.375-4.174 1.186-6.889l.195-.207-.05.281a4.982 4.982 0 0 0 2.485 4.899c.016.008 1.471.885 2.363 2.084l-.146.021c.02-.05 1.896-5.035 1.6-6.074l-.017-.057c-.298-1.039-.476-1.666-1.35-1.666-.864 0-.958.725-.962.756v-.01.323l-.159-.28c-.024-.047-.616-1.113-.358-2.008.106-.369.34-.654.7-.85.93-.505 1.675-.36 2.037-.23.394.141.638.37.698.52l-.162.037c-.004-.039-.318-4.07-1.542-4.45-1.287-.397-1.815-.228-2.458.796-.646 1.03 0 2.584.006 2.6l.055.13-.14-.013c-.02-.002-1.987-.18-1.987-1.87l.096.085c-.044.005-4.483.519-6.397-3.155-.972-1.865-.773-3.367-.435-4.299.42-1.156 1.216-1.904 1.463-2.006.072-.03.116-.003.137.016.072.068.032.182-.073.48-.25.712-.717 2.038.467 2.616.798.389 2.075-.64 3.1-1.469.53-.43.99-.799 1.325-.935l.094-.038c1.041-.43 3.807-1.57 7.639 3.05l-.146.081c-.01-.031-1.182-3.217-3.163-4.357l-.105-.06.092-.079c.037-.03.912-.762 2.474-.418l-.103.076c.008-.113.207-2.822 1.697-3.94l.048-.034.049.03c.032.022.808.552 1.33 3.782l-.111-.064c.057-.022 1.432-.496 3.076.154l.178.07-.172.084c-.027.014-2.799 1.44-3.309 4.864l-.156-.057c.02-.037 2.223-3.52 5.86-3.52 2.314 0 3.375 1.122 4.154 1.94.445.469.797.84 1.23.83.524-.012.989-.27 1.274-.709.369-.562.404-1.316.097-2.066l.145-.086c.025.03 2.662 3.254.717 6.836-1.022 1.877-2.746 2.367-4.014 2.445a7.682 7.682 0 0 1-2.522-.281l.112-.065c-.01.05-.233 1.217-1.127 1.776-.5.312-1.111.367-1.815.168l-.15-.043.121-.104c.006-.006.775-.672.828-1.518.026-.423-.13-.824-.467-1.193a1.766 1.766 0 0 0-1.978-.474c-.942.35-1.57 1.337-1.6 2.513-.039 1.54-.027 1.793-.021 1.828-.004-.023-.03-.056-.074-.058a.08.08 0 0 0-.08.052.217.217 0 0 0 .005-.046l.002-.026.016-.02c.012-.013 1.111-1.404 2.484-.511.577.377.924.95.979 1.611.053.649-.184 1.315-.598 1.694l-.117.105-.025-.154c-.004-.028-.125-.666-.963-.666-.35 0-.654.154-.854.435-.322.455-.34 1.186-.05 2.006.546 1.55 1.984 5.008 2 5.045l-.133-.033c.043-.037 4.388-3.697 3.91-6.541l-.041-.248.183.174c.034.031 3.196 3.095 1.993 6.615l-.043-.103c.025.013 2.568 1.312 2.97 3.85l.045.288-.191-.22c-.063-.069-1.531-1.682-4.236-.167-2.686 1.506-3.59 4.47-3.59 5.59l.004.07-.15-.046c1.978-2.574 3.726-1.84 3.8-1.807l.19.084-.196.072c-.951.362-1.154 3.752-1.119 4.88.035 1.085-.303 6.32-.318 6.542l-.116-.084.176-.07-.053.067c.006-.032.46-3.188.494-4.372.036-1.156 1.417-7.93 4.538-8.293 3.086-.36 3.312 1.176 3.32 1.24l.008.077-.072.017c-1.883.43-2.772 4.098-2.854 5.098-.07.84-1.07 6.63-1.113 6.875l-.102-.097.36-.079-.067.072c.002-.016.063-.374 1.332-3.393 1.203-2.864 2.125-4.972 2.979-6.015 2.359-2.875 4.906-3.78 7.78-2.762 3.327 1.18 2.74 4.458 2.733 4.492l-.06.319-.104-.31c-.097-.298-.545-.692-1.32-.898-.766-.206-2.797-.453-5.16 1.649-2.572 2.286-5.352 10.356-5.38 10.438l-.085-.112.188-.016-.07.048c.552-1.188 1.962-3.762 3.732-5.871 2.251-2.685 4.337-3.797 6.197-3.305" fill="#050301"/><path d="M43.748 30.713s.574-1.238 3.677-1.072c3.102.168 3.434 1.425 3.563 2.756.135 1.33.176 2.609 1.889 2.505 1.709-.103 2.724-1.697 2.724-1.697s-.17-.055-1.123.203c-.574.154-.644.123-.644.123s1.265-.754.51-1.861c-.756-1.107-1.622-.225-1.622-.225s.012-1.748-2.502-2.195c0 0 2.053.162 4.239 2.063 2.189 1.898 3.463 2.148 4.593.574 1.131-1.574.35-2.649.35-2.649s-.264 1.127-1.176 1.4c0 0-.117-1.505-1.217-1.42-1.1.089-1.062.579-1.062.579s-2.088-1.732-4.836-1.84c0 0 1.83-.49 3.676-.344 1.847.149 3.465.694 4.047-1.16.586-1.851-.842-2.965-.942-3.13-.101-.169-.432 1.546-.432 1.546s-.478-.998-1.708-.596c-.78.256-.653 1.364-.653 1.364s-1.927-.055-3.092.355c-1.162.412-1.486.729-2.29.5-.805-.23-1.688-.715-1.688-.715s.148-.71-.14-1.066c-.29-.357-.66-.62-1.81-.387 0 0-.59-1.207-.1-1.681.487-.475-1.723.716-1.65 2.052.077 1.334.653 1.639 1.311 1.88.662.24 1.143.816 1.18.9.037.084-2.22.668-2.22.668l-1.598-.664-.995.34-.23 2.288 1.97.606" fill="#e7ec19"/><path d="M41.693 30.1l.23-2.291.006-.053.051-.018.994-.34.03-.01.03.012 1.597.662-.055-.002c.982-.255 2.082-.564 2.183-.638-.015.01-.035.047-.02.086-.034-.076-.503-.63-1.124-.854-.678-.246-1.293-.582-1.37-1.955-.062-1.123 1.378-2.13 1.725-2.236.088-.028.131.006.15.037.046.078-.034.158-.083.205-.44.426.113 1.572.117 1.584l-.092-.047c1.11-.226 1.545-.01 1.893.414.31.383.162 1.108.156 1.139l-.043-.092c.01.006.885.482 1.672.707.574.164.885.04 1.502-.213.21-.084.447-.181.736-.285 1.168-.41 3.045-.361 3.125-.36l-.09.094c-.002-.048-.125-1.177.713-1.453 1.287-.42 1.805.631 1.81.641l-.16.021c.311-1.597.424-1.619.483-1.628.043-.008.082.011.107.05.008.016.051.06.094.108.34.357 1.377 1.449.856 3.095-.516 1.627-1.801 1.479-3.291 1.305-.274-.031-.557-.064-.844-.086-1.815-.146-3.629.336-3.645.34l-.02-.168c2.743.11 4.864 1.842 4.884 1.86l-.137.072c-.002-.024-.031-.578 1.139-.668a.985.985 0 0 1 .752.234c.486.416.554 1.23.558 1.264l-.111-.074c.857-.258 1.115-1.33 1.117-1.34l.043-.182.11.15c.007.01.802 1.145-.348 2.749-.467.648-.96.992-1.516 1.058-.814.096-1.803-.404-3.201-1.619-2.137-1.855-4.168-2.04-4.186-2.04l.016-.167c2.553.453 2.57 2.26 2.57 2.277l-.142-.058c.015-.016.396-.4.892-.358.319.03.61.229.858.592.224.33.3.662.23.99-.137.612-.742.977-.765.993l-.01-.15-.016-.005c.004 0 .107.012.602-.123.931-.25 1.14-.213 1.17-.203l.107.035-.06.092c-.044.066-1.057 1.633-2.794 1.736-1.712.104-1.835-1.168-1.955-2.398l-.017-.184c-.137-1.369-.492-2.515-3.487-2.677-2.992-.16-3.587 1.011-3.593 1.025l-.033.064a.942.942 0 0 1-.07-.021l-1.97-.604-.066-.021zm1.978.58c.024-.055.633-1.291 3.756-1.123 3.125.168 3.51 1.435 3.645 2.832l.02.181c.12 1.256.228 2.34 1.779 2.248 1.646-.101 2.648-1.642 2.658-1.658l.045.125c-.002 0-.196-.033-1.072.205-.4.108-.635.149-.702.12l-.148-.067.139-.084c.006-.004.568-.346.687-.885.06-.28-.008-.568-.205-.855-.219-.32-.463-.496-.732-.52-.418-.035-.752.303-.756.307l-.149.148v-.209c.002-.068-.023-1.683-2.43-2.111l.02-.168c.024.002 2.108.186 4.291 2.08 1.36 1.182 2.307 1.67 3.072 1.578.504-.058.96-.38 1.395-.986 1.084-1.506.357-2.541.348-2.55l.152-.032c-.01.05-.285 1.18-1.232 1.465l-.102.031-.008-.105c-.006-.06-.125-1.42-1.125-1.342-.988.074-.986.482-.986.486l.006.19-.145-.12c-.02-.015-2.098-1.715-4.785-1.818l-.018-.168c.018-.006 1.862-.492 3.706-.346.289.024.576.057.851.088 1.473.172 2.639.307 3.11-1.19.49-1.55-.462-2.55-.819-2.925-.062-.066-.1-.105-.117-.137.006.014.025.028.05.03.03.002.048-.012.052-.018-.07.086-.249.834-.38 1.51l-.046.252-.114-.23c-.017-.04-.462-.927-1.605-.553-.703.23-.596 1.261-.594 1.273l.014.096-.1-.004c-.02 0-1.926-.05-3.06.351-.287.104-.524.2-.73.281-.636.26-.983.399-1.614.221-.805-.23-1.697-.719-1.705-.722l-.055-.03.012-.062c.002-.006.137-.676-.123-.996-.262-.32-.588-.588-1.727-.356l-.062.014-.03-.059c-.025-.05-.609-1.27-.084-1.781.04-.039.047-.055.05-.055-.007.01-.01.037.007.063a.067.067 0 0 0 .057.031c-.195.022-1.676 1.026-1.617 2.069.07 1.275.588 1.562 1.256 1.804.664.242 1.175.83 1.226.947l.014.036c0 .005-.016.04-.016.04-.021.042-.068.135-2.277.708l-.028.007-.025-.011-1.598-.664.06.004-.993.337.056-.072-.228 2.291-.06-.088 1.97.604-.101.047" fill="#050301"/><path d="M57.539 24.922c-.002.014-.371 1.289.285 1.537l-.06.158c-.803-.303-.405-1.683-.387-1.742l.162.047M55.181 25.61c.065.199.276.751.498.9l-.094.14c-.316-.21-.554-.959-.564-.992l.16-.049M58.306 30.719c-.029.013-.705.367-.672 1.547l-.17.002c-.037-1.291.735-1.686.766-1.703l.076.154M56.029 29.797c0 .008-.092.81-.01 1.098l-.164.045c-.09-.319 0-1.127.006-1.163l.168.02M52.832 31.477c-.004.004-.43.373-.559.617l-.15-.078c.142-.276.582-.65.6-.666l.109.127M53.843 33.62h.002c-.005 0-.496-.005-1.002.67l-.134-.104c.562-.748 1.119-.737 1.14-.737l-.006.17M50.25 29.342c-.368-.026-1.58-.111-1.752-.229l.095-.138c.096.062.926.148 1.668.197l-.011.17M51.14 28.049c-.012.002-1.174.156-1.722.441l-.08-.15c.578-.299 1.732-.453 1.78-.46l.022.169M48.11 25.805c-.013.02-.308.465-.655.492l-.014-.17c.223-.018.457-.305.53-.416l.14.094M46.15 24.314c-.008.02-.23.502-.65.633-.21.069-.43.035-.653-.095l.086-.147c.178.105.354.135.516.082.346-.11.547-.537.549-.543l.152.07M43.636 28.783c-.025-.006-.607-.146-1.232.46l-.117-.126c.697-.672 1.363-.504 1.392-.498l-.043.164" fill="#050301"/><path d="M19.928 29.97s-.668-1.189-3.746-.784c-3.081.408-3.314 1.687-3.343 3.023-.03 1.336.03 2.615-1.685 2.644-1.715.03-2.847-1.482-2.847-1.482s.163-.066 1.132.117c.583.108.652.073.652.073s-1.32-.655-.652-1.819c.67-1.16 1.598-.347 1.598-.347s-.146-1.745 2.325-2.381c0 0-2.034.318-4.069 2.38-2.033 2.065-3.283 2.413-4.531.932-1.25-1.482-.553-2.617-.553-2.617s.349 1.106 1.28 1.309c0 0 0-1.512 1.104-1.512 1.103 0 1.103.494 1.103.494s1.947-1.887 4.679-2.207c0 0-1.86-.35-3.691-.06-1.831.292-3.4.96-4.126-.842-.726-1.8.61-3.022.697-3.196.087-.173.553 1.51.553 1.51s.397-1.031 1.655-.724c.798.193.756 1.306.756 1.306s1.918-.203 3.11.115c1.19.32 1.54.612 2.323.32.785-.288 1.628-.841 1.628-.841s-.204-.697.058-1.076c.26-.377.61-.668 1.773-.522 0 0 .492-1.25-.03-1.687-.522-.436 1.772.582 1.802 1.92.03 1.336-.523 1.683-1.162 1.974-.64.293-1.076.9-1.104.989-.03.087 2.266.494 2.266.494l1.54-.785 1.017.261.407 2.268-1.919.754" fill="#e7ec19"/><path d="M21.763 29.232l-.408-2.267.065.066-1.018-.262.059-.005-1.54.785-.025.011-.027-.003c-2.247-.399-2.301-.489-2.324-.53l-.02-.033c0-.006.01-.043.01-.043.043-.123.496-.74 1.15-1.037.649-.295 1.141-.621 1.113-1.898-.023-1.045-1.577-1.93-1.773-1.936.01 0 .037-.008.053-.035a.069.069 0 0 0 .004-.065s.01.016.053.051c.564.471.076 1.729.054 1.783l-.024.061-.065-.008c-1.152-.144-1.459.147-1.692.486-.235.34-.049.999-.047 1.004l.018.059-.053.035c-.008.006-.86.563-1.644.852-.616.228-.975.115-1.625-.092-.214-.068-.455-.146-.75-.225-1.163-.312-3.059-.117-3.078-.115l-.098.012.004-.1c0-.01.03-1.045-.692-1.22-1.168-.286-1.54.634-1.557.673l-.093.239-.067-.245c-.183-.664-.418-1.398-.496-1.476a.06.06 0 0 0 .052.012.058.058 0 0 0 .049-.034c-.015.034-.05.075-.106.145-.329.402-1.198 1.475-.588 2.982.586 1.455 1.735 1.229 3.191.946.272-.055.553-.11.843-.155 1.823-.289 3.7.055 3.719.059l-.006.168c-2.671.313-4.61 2.166-4.628 2.184l-.145.14V30c0-.002-.028-.408-1.018-.408-1.009 0-1.02 1.412-1.02 1.426v.105l-.104-.023c-.967-.211-1.326-1.317-1.34-1.364l.152.02c-.027.043-.646 1.101.545 2.516.488.576.953.855 1.467.875.77.03 1.676-.53 2.94-1.811 2.03-2.06 4.095-2.404 4.117-2.408l.033.166c-2.365.613-2.267 2.226-2.26 2.295l.016.209-.157-.137c-.003-.006-.369-.316-.779-.246-.265.043-.497.236-.69.572-.174.3-.221.596-.137.871.16.527.747.824.752.826l.15.075-.147.078c-.063.031-.3.01-.707-.067-.895-.168-1.084-.12-1.092-.119l.041-.13c.013.015 1.129 1.476 2.78 1.447 1.552-.026 1.574-1.116 1.597-2.377l.005-.184c.03-1.402.313-2.695 3.415-3.103 3.102-.41 3.805.775 3.833.826l-.105-.037 1.918-.756zm-1.908.782c-.007-.012-.69-1.135-3.664-.742-2.97.392-3.238 1.562-3.267 2.939l-.004.184c-.024 1.236-.047 2.513-1.765 2.542-1.737.03-2.87-1.453-2.916-1.515l-.067-.088.101-.041c.032-.012.237-.068 1.182.111.506.096.608.076.61.076l-.014.004.002.153c-.026-.014-.658-.332-.84-.93-.096-.322-.045-.66.152-1.006.22-.38.492-.603.81-.654.491-.082.901.27.918.285l-.141.07c0-.017-.12-1.822 2.39-2.472l.034.166c-.02.004-2.033.343-4.02 2.36-1.302 1.317-2.249 1.892-3.069 1.86-.558-.021-1.078-.33-1.59-.935-1.275-1.512-.568-2.703-.56-2.717l.097-.156.057.178c.002.01.345 1.058 1.215 1.25l-.104.082c0-.016.014-1.596 1.19-1.596 1.174 0 1.19.555 1.19.578l-.145-.06c.02-.02 2-1.913 4.728-2.231l-.006.166c-.02-.004-1.868-.342-3.662-.057-.285.045-.566.1-.838.153-1.47.287-2.742.537-3.38-1.047-.646-1.604.302-2.77.613-3.154.039-.047.08-.098.088-.112a.102.102 0 0 1 .101-.06c.06.006.176.017.608 1.586l-.161-.008c.004-.012.44-1.098 1.756-.78.854.21.82 1.346.82 1.393l-.093-.086c.078-.008 1.946-.201 3.139.12.3.077.543.158.757.224.636.203.954.307 1.516.098.766-.286 1.602-.83 1.61-.836l-.034.095c-.01-.029-.213-.74.07-1.148.31-.447.728-.697 1.852-.559l-.09.053c.005-.012.467-1.197-.004-1.588-.052-.043-.138-.115-.099-.197.017-.033.056-.068.147-.049.355.078 1.868.97 1.893 2.098.03 1.375-.557 1.756-1.212 2.054-.604.274-1.03.86-1.06.938a.076.076 0 0 0-.022-.084c.105.066 1.225.289 2.224.469l-.054.007 1.54-.785.03-.013.03.007 1.017.26.053.012.01.055.406 2.267.013.068-.066.026-1.916.756-.07.027-.036-.064" fill="#050301"/><path d="M5.89 25.203c.02.057.526 1.404-.251 1.768l-.073-.155c.637-.296.17-1.54.166-1.552l.159-.06M8.299 25.805c-.006.03-.185.797-.486 1.03l-.105-.134c.212-.162.379-.732.427-.935l.164.039M5.479 30.945c.033.012.832.346.896 1.639l-.17.008c-.059-1.178-.76-1.479-.79-1.49l.064-.157M7.781 29.975c.006.035.158.834.094 1.16l-.166-.035c.057-.291-.093-1.084-.094-1.094l.166-.031M11.031 31.299c.02.014.487.357.647.617l-.14.09c-.147-.235-.603-.567-.606-.57l.1-.137M10.068 33.48c.024-.001.577-.058 1.196.645l-.127.113c-.557-.632-1.045-.59-1.05-.59l-.019-.168M13.315 28.938c.738-.106 1.558-.256 1.648-.327l.106.133c-.162.129-1.364.309-1.73.361l-.024-.168M12.363 27.717c.05.004 1.21.066 1.81.32l-.066.156c-.573-.242-1.742-.306-1.753-.308l.01-.168M15.334 25.31v-.001c.08.105.336.375.559.375v.17c-.352 0-.68-.422-.694-.44l.135-.104M17.188 23.695h-.002c.001.004.235.416.59.498.165.04.336-.002.507-.12l.098.138c-.213.148-.43.197-.645.148-.427-.101-.687-.562-.698-.582l.15-.082M19.836 27.877c.027-.01.679-.227 1.428.39l-.108.131c-.672-.552-1.24-.369-1.265-.36l.011-.005-.066-.156" fill="#050301"/><path d="M3.53 65.932s1.634.894 2.745 3.948l.309-.092s.462-1.604 1.789-1.697c1.326-.093 1.018 1.265.246 1.727-.771.464-3.33 1.944-3.64 2.653-.307.71-.834 2.403.957 3.363 1.728.925 2.899-.74 3.857-.649.955.093 1.695.525 1.789.618l-2.838-2.437s.057 2.209-1.451 1.882c-1.42-.309-1.264-1.389-.247-1.913 1.018-.524 3.905-2.027 4.165-3.517.248-1.419-.617-2.775-2.406-2.775-1.79 0-2.16 1.203-2.59.584-.434-.616-1.266-1.542-2.686-1.695M55.119 71.754v3.441c0 .186.082.186.082.186h1.162c.371 0 1.96-.582 1.59-2.383-.371-1.8-2.198-1.508-2.543-1.508-.344 0-.291.264-.291.264zm.584-1.165c.502 0 1.904-.21 3.123 1.006 1.217 1.219.717 3.256-.426 3.918-1.135.662-1.824.583-3.2.583h-2.648s-.16-.211 0-.265c.159-.052.555-.186.555-.925v-6.407c0-.476-.264-1.51-1.006-1.51h4.37s-1.22.822-1.22 1.642v1.64s-.05.319.452.319M53.119 17.637a1.458 1.458 0 1 0-2.914 0v3.912a1.457 1.457 0 0 0 2.914 0zm-1.457 6.568c-2.078 0-3.764-2.064-3.764-4.613 0-2.549 1.686-4.613 3.764-4.613 2.08 0 3.765 2.064 3.765 4.613 0 2.549-1.685 4.613-3.765 4.613M9.445 21.549a1.458 1.458 0 1 0 2.915 0v-3.912a1.458 1.458 0 1 0-2.915 0zm5.563-8.092c-1.108.48-1.956.627-2.768 1.365a3.53 3.53 0 0 1-.38.307c1.615.52 2.806 2.32 2.806 4.463 0 2.549-1.685 4.613-3.764 4.613-2.079 0-3.763-2.064-3.763-4.613 0-2.067 1.109-3.817 2.638-4.404a3.256 3.256 0 0 1-1.264-.514c-.812-.553-.26-.664-.26-.664s.665.48 1.366.222c.703-.26 1.883-.923 3.027-1.218 1.143-.295 3.47-.037 2.362.443" fill="#e7ec19"/><path d="M28.973 69.49h1.6l.562-1.764s-.427-.32-.24-.56c.185-.24.24-.561.24-.561s-2.276.519-3.044 1.602c-.77 1.084.882 1.283.882 1.283" fill="#050301"/><path d="M23.11 66.683s-1.262-1.97-.061-2.924c1.2-.955 2.924-.43 4.092-.124 1.172.309 3.203.954 4.095.217.894-.74 1.048.368 1.048.368s-1.54.985-4.278.831c-2.742-.153-2.64-.57-3.665-.339-1.216.276-1.232 1.971-1.232 1.971" fill="#ee2729"/><path d="M24.326 64.644c.534-.121.783-.069 1.235.027.439.094 1.101.235 2.448.31 2.684.15 4.216-.803 4.225-.811l-.02.06c0-.004-.066-.442-.323-.542-.157-.06-.36.013-.61.217-.84.697-2.636.21-3.826-.112l-.33-.09-.174-.045c-1.158-.308-2.744-.73-3.86.157-1.136.902.066 2.811.078 2.83l-.009-.012-.12.05c0-.017.03-1.755 1.286-2.039zm-1.275 2.078c-.014-.02-1.283-2.036-.047-3.02 1.17-.929 2.797-.497 3.984-.18l.172.045.333.09c1.16.314 2.913.79 3.698.14.29-.24.543-.32.752-.24.335.13.408.633.41.653l.006.046-.038.024c-.014.01-1.589.996-4.321.842-1.356-.076-2.024-.218-2.467-.312-.447-.095-.672-.142-1.176-.028-1.148.261-1.175 1.886-1.176 1.902l-.002.238-.128-.2" fill="#050301"/><path d="M36.316 75.78s-1.219.282-1.445-.4c-.217-.646-.063-.954.4-1.139.461-.184.738-.062.738-.062s-.4-1.261-1.693-.492c0 0-.492-.615-1.447-.308-.955.308-.462.8-.462.8s1.386-.369 1.386.801c0 1.169-1.016.8-1.016.8s.166 1-.834 1.175c0 0-.09.005-.17.014a.644.644 0 0 1-.15-.014c-1.002-.175-.836-1.174-.836-1.174s-1.015.368-1.015-.8c0-1.17 1.385-.802 1.385-.802s.493-.492-.462-.8c-.953-.308-1.447.308-1.447.308-1.293-.77-1.693.492-1.693.492s.277-.122.739.062c.462.185.616.493.4 1.14-.227.681-1.447.4-1.447.4-1.046 1.262-1.816.738-1.816.738 1.632-1.478 2.31-6.126 2.31-6.126h8.085s.676 4.648 2.306 6.126c0 0-.77.524-1.816-.738" fill="#e7ec19"/><path d="M38.086 76.572c-1.631-1.478-2.303-5.978-2.33-6.17l.07.062H27.74l.07-.061c-.029.19-.7 4.69-2.333 6.169l-.005-.112c.028.02.733.468 1.721-.724l.026-.034.045.01c.011.002 1.16.259 1.363-.355.221-.664.016-.9-.36-1.05-.423-.17-.681-.064-.684-.063l-.142.06.047-.145c.007-.023.178-.549.658-.73.327-.125.71-.058 1.138.198l-.09.015c.004-.006.534-.65 1.524-.33.366.119.578.281.626.484.058.236-.13.426-.137.432l-.03.03-.04-.01c-.004-.002-.669-.173-1.041.113-.168.129-.254.338-.254.62 0 .335.088.566.258.687.266.187.66.047.664.046l.114-.041-.02.118c-.006.039-.141.934.776 1.095.005 0 .06.014.139.012.075-.008.162-.013.166-.013h-.008c.92-.161.781-1.055.776-1.094l-.022-.119.115.042c.004 0 .399.141.666-.046.168-.121.256-.352.256-.688 0-.281-.086-.49-.254-.62-.373-.285-1.036-.114-1.043-.112l-.04.01-.029-.03c-.008-.006-.194-.196-.137-.432.05-.203.261-.365.628-.484.988-.32 1.518.324 1.524.33l-.092-.015c.431-.256.812-.323 1.139-.199.48.182.65.708.66.73l.045.149-.143-.063c-.002-.001-.26-.107-.684.062-.377.15-.58.387-.359 1.051.203.614 1.354.357 1.363.354l.043-.009.028.034c.99 1.192 1.693.744 1.722.724zm-1.752-.722c-.053.011-1.287.287-1.532-.448-.216-.65-.086-1.017.442-1.226.484-.193.781-.067.793-.061l-.096.086c-.002-.006-.158-.484-.574-.641-.285-.107-.625-.045-1.016.188l-.053.03-.039-.046c-.017-.025-.474-.574-1.369-.286-.312.1-.496.233-.533.383-.039.158.1.3.1.301l-.008-.007-.061-.011c.03-.009.739-.192 1.166.136.205.157.309.404.309.732 0 .385-.107.655-.318.803-.327.229-.774.07-.793.064l.095-.078c.002.01.164 1.07-.892 1.256h-.008s-.088.005-.166.014c-.107.002-.174-.016-.176-.016-1.052-.184-.888-1.243-.887-1.254l.095.078c-.02.006-.467.165-.793-.064-.211-.148-.319-.418-.319-.803 0-.328.105-.575.31-.732.427-.328 1.134-.145 1.165-.136l-.07.017c.001 0 .139-.142.101-.3-.037-.15-.22-.282-.534-.383-.896-.29-1.366.28-1.37.286l-.037.047-.053-.031c-.39-.233-.732-.295-1.016-.188-.416.157-.574.635-.575.641l-.097-.086c.014-.006.312-.132.795.06.527.21.659.577.442 1.227-.246.735-1.478.46-1.53.448l.07-.024c-1.075 1.296-1.878.774-1.911.751l-.075-.05.067-.06c1.594-1.445 2.28-6.038 2.287-6.084l.01-.06h8.204l.01.06c.006.046.694 4.639 2.285 6.084l.069.06-.076.05c-.032.023-.834.545-1.91-.751l.072.024" fill="#050301"/><path d="M28.006 61.743s.767 2.093 3.724 2.37c0 0-.218 1.572-2.124 1.94-1.6.306-1.971.4-2.126 1.323 0 0-.646-.092-.738-.955 0 0-1.135.786-.984 1.725 0 0-.186.985 1.383 1.538 0 0 .303.709.6.709h1.157s.77-.43.77-1.17c0-.739-.8-1.386-1.324-1.016 0 0 .922-.954 2.154-1.17 1.232-.215 2.078-1.192 2.279-2.092.105-.482.338-2.279-.37-2.279s-2.893.216-4.401-.923" fill="#e7ec19"/><path d="M32.407 62.595c.138 0 .253.056.339.168.382.473.175 1.853.1 2.196-.194.872-1.006 1.915-2.336 2.148-1.194.209-2.107 1.14-2.116 1.15l-.091-.107c.217-.153.496-.16.765-.019.395.203.67.653.67 1.092 0 .772-.773 1.213-.806 1.232l-.015.01H27.74c-.333 0-.63-.676-.662-.753l.041.04c-1.61-.567-1.44-1.577-1.431-1.62v.024c-.156-.97.966-1.76 1.013-1.792l.1-.069.012.12c.085.792.654.888.68.89l-.08.06c.163-.994.632-1.084 2.179-1.381 1.833-.353 2.06-1.82 2.068-1.88l.063.08c-2.965-.28-3.776-2.396-3.784-2.418l-.083-.225.192.145c1.314.993 3.167.941 4.057.915.118-.003.218-.006.302-.006zm-4.337-.877c.008.02.793 2.055 3.665 2.325l.075.007-.01.073c-.002.016-.247 1.627-2.18 1.999-1.614.31-1.925.396-2.07 1.265l-.01.068-.068-.01c-.008 0-.703-.11-.8-1.016l.11.05c-.01.009-1.097.773-.955 1.655l.003.013-.003.012c-.007.038-.15.934 1.339 1.46l.03.01.011.029c.11.257.352.665.533.665h1.158l-.035.008c.006-.004.733-.42.733-1.108 0-.389-.243-.785-.59-.967-.133-.068-.387-.156-.621.01l-.093-.109c.04-.038.954-.972 2.194-1.189 1.208-.212 2.033-1.185 2.22-2.04.094-.416.249-1.682-.068-2.077a.285.285 0 0 0-.231-.115c-.08 0-.182.003-.298.006-.907.026-2.793.08-4.147-.944l.108-.08" fill="#050301"/><path d="M31.604 69.418c.028-.043.7-1.067-.127-1.622-.361-.244-.721-.308-1.038-.186a1.071 1.071 0 0 0-.63.744c-.15.6.222 1.053.225 1.059l-.108.09a1.406 1.406 0 0 1-.254-1.184c.096-.384.37-.708.716-.84.253-.098.66-.142 1.17.198.246.167.399.385.451.651.11.568-.272 1.145-.287 1.17l-.118-.08" fill="#050301"/><path d="M30.064 69.457s-.523-.672-.277-1.362c.245-.69 1.293-.853 1.908-.23.616.624-.123 1.592-.123 1.592h-1.508" fill="#fff"/><path d="M31.418 68.423s-.277-.624-.955-.295c-.676.328-.03 1.116.094 1.215.123.098.4.098.306-.23-.092-.328-.492-.92.555-.69" fill="#050301"/><path d="M29.693 69.49h4.326" fill="#e7ec19"/><path d="M29.693 69.418h4.326v.142h-4.326v-.142M11.055 60.34l.26.27c.892.925 1.079 1.118 1.635 2.233l-.151.075c-.547-1.09-.707-1.258-1.606-2.19l-.261-.27.123-.118M17.832 62.745c-.008-.01-.183-.245.081-.666l.144.09c-.196.313-.094.467-.089.474l-.136.102" fill="#050301"/><path d="M11.939 61.453c-.015-.036-.352-.922.048-1.707.244-.478.71-.81 1.382-.987l-.04.14c-.048-.052-1.16-1.275-.832-2.433.194-.692.86-1.201 1.976-1.515l-.053.115c-.032-.068-.758-1.71-.032-2.789.42-.627 1.243-.924 2.442-.882l-.086.098c-.01-.067-.219-1.61.686-2.345.578-.47 1.473-.491 2.658-.061l-.112.075c.003-.05.077-1.21.986-1.78.706-.439 1.702-.391 2.966.142l-.067.157c-1.208-.511-2.153-.564-2.808-.156-.835.52-.908 1.635-.908 1.646l-.006.114-.108-.038c-1.127-.409-1.965-.397-2.496.034-.83.674-.626 2.172-.625 2.187l.016.1-.102-.003c-1.137-.04-1.91.232-2.296.807-.672 1.001.037 2.61.045 2.626l.04.09-.093.026c-1.057.298-1.682.769-1.86 1.398-.303 1.068.781 2.26.793 2.272l.096.104-.137.035c-.624.164-1.053.467-1.274.9-.365.718-.044 1.561-.041 1.57l-.158.06" fill="#050301"/><path d="M25.553 55.063c-.01-.017-.956-1.649-1.44-4.474-.445-2.604-.582-6.788 1.31-11.929l.159.057c-3.594 9.77.079 16.197.117 16.26l-.146.086M38.662 47.967c.07-.043 1.74-1.034 2.922-.46.586.284.941.902 1.058 1.837l-.166-.017c.012-.03.27-.767.963-.995.502-.164 1.09-.018 1.75.436 1.602 1.105 1.004 3.176.998 3.196l-.119-.099c.012-.007 1.342-.676 2.52.77.806.99-.114 3.18-.153 3.271l-.084-.117c.027-.002.692-.03 1.211.44.365.327.56.808.592 1.435.1 1.933-1.604 2.198-1.621 2.201l-.022-.168c.014-.001 1.324-.124 1.762 1.525.137.515.096.963-.123 1.33-.334.57-.969.733-.998.74l-.041-.165c.006 0 .598-.154.896-.664.19-.325.227-.729.102-1.198-.397-1.504-1.533-1.405-1.578-1.4l-.022-.168c.063-.01 1.567-.248 1.477-2.025-.088-1.77-1.56-1.717-1.625-1.715l-.135.008.053-.125c.008-.022.918-2.186.176-3.097-1.092-1.341-2.297-.734-2.31-.728l-.177.094.057-.193c.006-.02.566-1.975-.932-3.008-.613-.422-1.152-.562-1.6-.414-.615.2-.855.882-.857.888l-.164-.017c-.11-.874-.433-1.448-.963-1.705-1.097-.535-2.744.442-2.76.452l-.087-.145M44.828 61.584c.007.012.222.252.363.44l-.135.101a8.13 8.13 0 0 0-.355-.428l.127-.113" fill="#050301"/><path d="M36.875 55.82c.023-.05 2.338-5.208 1.654-8.656-.272-1.369-.639-2.854-.992-4.288-.54-2.177-1.004-4.058-.946-4.804l.168.014c-.056.717.407 2.586.942 4.748.355 1.438.72 2.924.994 4.297.695 3.502-1.64 8.706-1.666 8.76l-.154-.071M27.42 29.008l.062.07c.45.52.602.693.94 1.46l-.128.056c-.332-.746-.48-.916-.918-1.422l-.062-.072.106-.092M34.632 31.336c.002-.057.067-1.44 1.141-2.56l.102.097c-1.038 1.082-1.1 2.455-1.102 2.469l-.14-.006M48.869 69.534h.002c-.006 0-.346-.018-.625.148l-.088-.146c.326-.193.705-.173.72-.17l-.01.168M14.52 69.38c.228.079.518.154.587.139l.038.165c-.149.033-.558-.1-.68-.143l.055-.16" fill="#050301"/></g></svg>