<svg xmlns="http://www.w3.org/2000/svg" width="82.149" height="102.719"><defs><clipPath id="a"><path d="M562.027 425.93c45.118 11.898 29.356 50.41 29.356 50.41-5-8.746-31.348-33.738-50.528-.094-11.406 19.942-49.687 83.438-49.687 83.438l1.562.468s39.961-68.836 80.372-50.945c18.671 8.266 15.097 39.137 15.097 39.137-10.703-15.031-29.726-11.645-41.933 5.879-10.039 14.398-44.961 61.183-44.961 61.183 30.742-31.093 45.293-43.863 72.48-34.105 15.059 5.39 18.535 31.586 18.535 31.586-30.117-13.246-33.554-4.84-70.234 40.289-32.969 40.531-34.18 41.043-34.18 41.043s5.938.472 11.719 5.871c10.801 10.023-.684 24.754-.684 23.344 0-1.411-5.898-21.563-38.671-.02-26.192 17.215-44.317 15.449-44.317 15.449-25.449.356-32.031-17.543-26.387-33.086 5.918-16.289 29.493-36.422 37.286-57.125 12.207-32.312-18.711-32.312-18.711-32.312 18.418-19.043 38.535-.473 38.535-.473 5.937-7.492 9.492-22.926 3.144-37.769-6.347-14.825-16.015-17.168-47.109-13.293-20.02 2.511-29.336-2.754-33.438-6.821-3.027 9.102-4.335 17.293-.957 24.907 7.09 16.007 16.622 30.797 17.247 48.031.625 17.238-1.856 20.933-1.856 20.933s12.012-8.011 26.484 8.625c0 0-12.011-6.781-29.55 15.083-17.559 21.851-15.098 20.621-23.711 28.308h-80.043v-21.859l33.23-21.532 11.094-13.246-19.094-18.472s13.242-4.004 13.242-15.387c0-11.391-13.55-18.473-27.703-18.473-14.172 0-29.25 10.153-39.101 4.621-9.844-5.543-12-16.324-12-16.324s10.164 6.778 21.55 1.235c11.387-5.551 13.536-11.082 27.391-9.239 0 0-15.496-3.32-29.558-25.859l-.04.406s-5.293 14.836-36.386 10.949c-31.074-3.89-39.571 5.301-45.918 20.133-6.36 14.836-.352 33.215 6.347 39.571 0 0 9.551-16.602 32.508-9.891 0 0-20.847 12.367-13.418 33.211 7.414 20.836 26.223 43.058 32.141 59.336 5.652 15.547-.703 31.09-26.145 30.738 0 0-25.086.707-47.332-15.191-22.265-15.899-22.597 6.007-22.597 7.418 0 1.418-17.325-14.828-6.719-25.082 7.812-7.563 13.906-7.227 16.562-6.543-4.589-1.985-19.941-10.93-43.066-47.512-27.89-44.145-46.621-39.559-52.977-30.016 0 0-5.668-25.797 8.114-33.914 12.246-7.226 22.605-9.89 53.34 21.196 0 0-25.067-48.403-33.907-54.758-8.828-6.36-15.547-12.715-32.86-1.051 0 0-2.12-33.203 17.665-38.156 19.785-4.946 46.277 6.004 68.535 46.273 0 0-28.613-76.652-48.398-88.312-19.785-11.664-34.258 1.765-34.961 5.297 0 0-10.254-45.571 29.316-48.754 39.571-3.18 70.645 65.359 79.473 89.375h2.129s-21.914-83.368-48.047-106.676c-26.152-23.32-54.043-8.836-57.227.703 0 0-5.293-33.223 24.375-46.992 29.668-13.77 59.707 13.437 68.184 23.32 8.476 9.895 30.723 39.566 38.867 71 8.106 31.441 9.883 33.215 9.883 33.215l1.406.351s-14.844-69.949-15.539-78.417c-.711-8.493-7.769-44.879-27.906-49.469 0 0 4.937-13.77 35.32-10.235 30.371 3.536 39.922 66.411 40.266 78.422.371 12.004 4.949 43.801 4.949 43.801l1.77.703s-3.528-54.39-3.176-65.351c.359-10.954-.352-41.325-10.606-45.211 0 0 13.672-11.66 34.864 22.324 1.062-8.867.586-16.953-2.774-22.774-11.094-19.101-34.18-57.246-72.043-41.25 0 0 7.395-24.316 32.942-34.472 0 0-13.868-40.957 11.687-68.047 0 0-5.535 31.406 25.246 49.883 0 0 14.473 8.613 23.399 20.625 0 0 19.082-50.489 16.015-61.27-3.086-10.762-4.929-17.851-14.472-17.851-9.551 0-10.469 8.32-10.469 8.32s-11.082-19.707 3.066-27.422c14.16-7.695 24.942-.605 26.192 2.481 0 0-3.086-41.25-16.028-45.254-12.925-4.004-18.765-2.461-25.535 8.3-6.789 10.801 0 26.778 0 26.778s-19.101-1.524-19.101-17.852c0 0-44.024 5.547-63.106-31.074-19.082-36.64 6.152-60.352 9.856-61.895 3.687-1.543-12.832 22.598 4.617 31.094 12.617 6.153 35.097-20 44.941-24.004 9.856-4.004 37.254-17.246 76.348 29.864 0 0-11.699-32.325-32.024-44.024 0 0 8.633-7.383 24.028-4.004 0 0 1.843-27.715 16.621-38.789 0 0 7.703 4.922 12.933 37.246 0 0 13.848-4.922 30.176 1.543 0 0-28.32 14.16-33.558 49.258 0 0 21.546-34.785 57.875-34.785 36.308 0 41.25 28.008 53.867 27.695 12.637-.293 20.625-13.848 14.472-28.926 0 0 26.485 31.7 7.071 67.422-19.395 35.703-64.336 21.25-64.336 21.25s-4.61 25.528-28.32 18.77c0 0 16.621-14.16 3.691-28.32-12.93-14.161-36.621-3.106-37.266 20.917-.605 24.024 0 17.852 0 17.852s10.489-13.535 23.711-4.902c13.262 8.613 10.781 25.234 3.711 31.699 0 0-1.23-7.383-10.469-7.383-9.238 0-15.39 9.844-9.843 25.547 5.527 15.703 20 50.488 20 50.488s44.336-36.953 39.414-66.191c0 0 31.699 30.176 19.687 65.254 0 0 25.254 12.636 29.258 37.871 0 0-15.391-17.559-43.418-1.856-28.008 15.704-36.309 46.192-36.309 56.661 0 0 0 .253.04.742 19.609-25.508 36.992-17.813 36.992-17.813-10.254 3.887-12.11 38.656-11.739 49.61.332 10.949-3.203 65.351-3.203 65.351l1.778-.699s4.59-31.805 4.941-43.813c.352-12.007 14.238-78.574 44.609-82.109 30.372-3.535 32.286 11.66 32.286 11.66-20.137 4.59-28.477 43.25-29.2 51.723-.703 8.48-11.113 68.687-11.113 68.687l3.574-.781s.489-3.277 13.282-33.715c12.597-29.937 21.386-49.859 29.648-59.925 21.387-26.067 46.035-38.274 76.895-27.356 32.929 11.66 26.757 43.945 26.757 43.945-3.183-9.543-33.73-21.75-66.191 7.129-26.152 23.274-54.004 104.727-54.004 104.727l1.856-.156c10.781-23.102 55.722-102.543 98.339-91.297z"/></clipPath></defs><path d="M.002 0v61.629c-.005.156-.328 15.732 9.477 26.766 4.77 5.367 9.877 9.108 15.613 11.439 4.762 1.935 9.98 2.88 15.947 2.885h.069c5.97-.005 11.189-.95 15.949-2.885 5.737-2.33 10.845-6.072 15.613-11.44 9.805-11.033 9.482-26.609 9.477-26.78V0H41.04z" fill="#30328e"/><path d="M73.976 46.816c6.013-1.587 3.911-6.722 3.911-6.722-.667 1.166-4.172 4.498-6.74.013-1.518-2.66-6.62-11.125-6.62-11.125l.21-.064s5.327 9.178 10.715 6.794c2.487-1.102 2.013-5.218 2.013-5.218-1.43 2.004-3.963 1.552-5.59-.785-1.342-1.919-5.996-8.157-5.996-8.157 4.097 4.144 6.037 5.847 9.667 4.547 2.003-.72 2.469-4.211 2.469-4.211-4.019 1.767-4.474.645-9.367-5.372-4.391-5.404-4.56-5.473-4.56-5.473s.791-.063 1.567-.783c1.44-1.337-.09-3.3-.09-3.112 0 .189-.79 2.874-5.157.003-3.492-2.295-5.912-2.061-5.912-2.061-3.39-.047-4.27 2.34-3.518 4.414.792 2.169 3.935 4.854 4.974 7.616 1.625 4.307-2.495 4.307-2.495 4.307 2.435 2.378 5.138.063 5.138.063.792.999 1.266 3.057.415 5.036-.844 1.979-2.133 2.29-6.277 1.77-2.669-.332-3.911.369-4.46.911-.402-1.214-.576-2.305-.125-3.32.942-2.135 2.216-4.105 2.296-6.403.084-2.3-.244-2.791-.244-2.791s1.599 1.066 3.528-1.15c0 0-1.601.903-3.94-2.011-2.338-2.915-2.01-2.75-3.159-3.776H35.955v2.913l4.433 2.873 1.477 1.766-2.545 2.464s1.766.533 1.766 2.051c0 1.52-1.808 2.464-3.694 2.464-1.888 0-3.9-1.355-5.213-.617-1.312.738-1.601 2.175-1.601 2.175s1.355-.902 2.874-.163c1.519.738 1.805 1.477 3.652 1.23 0 0-2.065.444-3.942 3.448l-.004-.052s-.705-1.98-4.851-1.46c-4.145.516-5.276-.708-6.123-2.686-.848-1.977-.046-4.429.847-5.275 0 0 1.272 2.213 4.333 1.32 0 0-2.778-1.65-1.789-4.428.99-2.78 3.496-5.743 4.287-7.913.753-2.074-.094-4.145-3.487-4.099 0 0-3.344-.094-6.31 2.025-2.97 2.12-3.024-.833-3.024-1.02 0-.19-2.3 2.01-.887 3.375 1.044 1.01 1.856.965 2.21.874-.612.265-2.659 1.456-5.742 6.332C8.9 23.24 6.404 22.63 5.557 21.358c0 0-.656 3.501 1.182 4.585 1.633.963 2.914 1.255 7.013-2.889 0 0-3.315 6.406-4.493 7.254-1.179.848-2.137 1.642-4.408.188 0 0-.263 4.526 2.406 5.055 2.722.538 6.12-.77 9.086-6.139 0 0-3.815 10.221-6.454 11.775-2.637 1.555-4.567-.234-4.663-.706 0 0-1.333 6.054 3.943 6.48 5.276.423 9.388-8.694 10.565-11.896h.282s-2.865 11.176-6.406 14.224c-3.54 3.047-7.206 1.178-7.63-.094 0 0-.707 4.43 3.251 6.264 3.943 1.828 7.959-1.79 9.09-3.11 1.13-1.317 4.098-5.273 5.181-9.465 1.084-4.193 1.319-4.43 1.319-4.43l.188-.045s-1.978 9.325-2.072 10.456c-.094 1.131-1.035 5.982-3.721 6.594 0 0 .66 1.838 4.71 1.367 4.05-.471 5.324-8.855 5.369-10.458.048-1.6.66-5.838.66-5.838l.236-.097s-.47 7.254-.423 8.715c.047 1.46-.047 5.511-1.414 6.03 0 0 1.823 1.554 4.648-2.98.14 1.183.077 2.263-.372 3.037-1.477 2.547-4.556 7.635-9.604 5.5 0 0 .984 3.242 4.391 4.599 0 0-1.847 5.458 1.56 9.07 0 0-.738-4.187 3.366-6.648 0 0 1.928-1.151 3.119-2.75 0 0 2.545 6.731 2.136 8.166-.41 1.438-.658 2.38-1.93 2.38-1.273 0-1.397-1.106-1.397-1.106s-1.477 2.627.41 3.653c1.89 1.024 3.326.081 3.49-.328 0 0-.408 5.5-2.135 6.034-1.721.534-2.503.328-3.406-1.107-.904-1.44 0-3.575 0-3.575s-2.544.208-2.544 2.383c0 0-5.87-.737-8.416 4.145-2.543 4.886.822 8.047 1.314 8.25.493.206-1.711-3.01.615-4.143 1.683-.823 4.68 2.667 5.993 3.2 1.314.532 4.968 2.298 10.181-3.984 0 0-1.56 4.313-4.27 5.873 0 0 1.15.984 3.202.531 0 0 .245 3.695 2.216 5.174 0 0 1.027-.658 1.724-4.966 0 0 1.849.657 4.023-.208 0 0-3.776-1.888-4.475-6.565 0 0 2.874 4.638 7.717 4.638 4.844 0 5.503-3.734 7.185-3.693 1.683.04 2.748 1.844 1.927 3.857 0 0 3.532-4.227.948-8.99-2.588-4.76-8.583-2.833-8.583-2.833s-.615-3.406-3.773-2.503c0 0 2.216 1.889.492 3.777-1.724 1.888-4.886.411-4.969-2.792-.08-3.203 0-2.38 0-2.38s1.396 1.804 3.164.656c1.763-1.149 1.435-3.367.492-4.227 0 0-.164.987-1.398.987-1.23 0-2.052-1.315-1.313-3.411.737-2.091 2.67-6.73 2.67-6.73s5.908 4.928 5.252 8.826c0 0 4.23-4.023 2.628-8.703 0 0 3.367-1.682 3.898-5.05 0 0-2.052 2.342-5.786.248-3.734-2.094-4.844-6.156-4.844-7.552 0 0 .003-.037.005-.099 2.615 3.4 4.935 2.375 4.935 2.375-1.367-.52-1.614-5.156-1.568-6.615.047-1.461-.528-8.752-.528-8.752l.338.132s.615 4.239.66 5.84c.046 1.602 1.898 10.478 5.95 10.95 4.05.47 4.302-1.555 4.302-1.555-2.685-.615-3.8-5.768-3.893-6.898-.094-1.13-1.482-9.158-1.482-9.158l.476.105s.065.436 1.771 4.494c1.677 3.99 2.854 6.648 3.953 7.99 2.852 3.477 6.14 5.105 10.253 3.647 4.393-1.555 3.57-5.859 3.57-5.859-.424 1.273-4.497 2.9-8.825-.949-3.492-3.104-7.203-13.964-7.203-13.964l.25.021c1.435 3.079 7.43 13.672 13.112 12.173" fill="#fff"/><g clip-path="url(#a)" fill="#ee2729" transform="matrix(.13333 0 0 -.13333 -.943 103.664)"><path d="M239.746 397.648h76.301v76.606h-76.301v-76.606M239.746 552.262h76.301v77.715h-76.301v-77.715M239.551 242.227h76.301v80.332h-76.301v-80.332M239.746 90.293h76.301v75.859h-76.301V90.293M87.54 552.273h76.3v77.711h-76.3v-77.711M87.344 702.063h76.301v56.531H87.344v-56.531M87.54 396.793h76.3v76.977h-76.3v-76.977"/><path d="M11.426 474.566h76.308v77.723H11.426v-77.723M11.426 319.16h76.308v77.711H11.426V319.16M468.863 474.566h76.309v77.723h-76.309v-77.723M468.863 629.977h76.309v72.519h-76.309v-72.519M468.668 319.941h76.289v77.715h-76.289v-77.715M545.758 396.059h76.328v77.714h-76.328v-77.714M545.758 552.273h76.328v77.711h-76.328v-77.711M315.645 473.672h74.449v78.844h-74.449v-78.844M316.008 629.918h72.601v73.621h-72.601v-73.621M315.645 322.656h72.964v74.36h-72.964v-74.36M315.645 166.055h72.964v75.84h-72.964v-75.84M315.852 12.324h72.601V90.04h-72.601V12.324"/><path d="M389.137 552.273h80.019v77.711h-80.019v-77.711M391.266 702.063h77.793v45.734h-77.793v-45.734M388.551 396.859h80.39v77.344h-80.39v-77.344M388.746 242.227h76.309v79.961h-76.309v-79.961M388.551 90.04h80.39v76.23h-80.39V90.04M163.645 474.563h76.296v77.71h-76.296v-77.71M163.645 630.32h76.296v71.774h-76.296V630.32M163.438 319.16h76.308v77.711h-76.308V319.16M163.438 166.387h76.308v75.859h-76.308v-75.859M163.438 12.324h76.308V90.06h-76.308V12.324"/></g><path d="M60.916 34.549l-.25-.022-.172-.015.055.163c.15.447 3.76 10.925 7.234 14.013 3.232 2.875 6.034 2.532 7.091 2.248.98-.26 1.732-.79 1.914-1.346l-.216-.015c.034.172.753 4.227-3.495 5.73-3.737 1.323-7.05.143-10.127-3.61-1.12-1.366-2.339-4.162-3.94-7.963-1.649-3.926-1.756-4.45-1.758-4.47l-.016-.075c0-.002-.07-.017-.07-.017l-.482-.104-.162-.036.03.166c.01.079 1.387 8.036 1.48 9.147.079.965 1.155 6.353 3.98 6.996l-.088-.122c-.003.018-.303 1.908-4.178 1.458-4.018-.469-5.804-9.329-5.848-10.84-.047-1.59-.657-5.813-.662-5.854l-.008-.065-.06-.023-.237-.095-.164-.066.01.177c.003.073.47 7.266.423 8.704-.037 1.196.132 6.153 1.64 6.723l-.008-.208c-.02.008-2.273.943-4.794-2.341l-.185-.237-.018.3-.008.098c0 1.545 1.237 5.602 4.901 7.657 3.774 2.114 5.91-.245 5.93-.269l-.195-.09c-.519 3.27-3.808 4.947-3.839 4.963l-.088.044.03.094c1.558 4.557-2.556 8.544-2.596 8.583l.188.102c.659-3.92-5.052-8.73-5.294-8.933l-.118-.096-.057.14c-.02.047-1.94 4.665-2.672 6.738-.411 1.164-.375 2.216.1 2.88.307.437.778.68 1.32.68 1.312 0 1.505-1.07 1.507-1.081l-.187.065c.497.453.789 1.286.724 2.073-.065.812-.492 1.513-1.203 1.976-1.66 1.081-2.953-.56-3.008-.632l.023.057c-.007-.076-.02-.203-.138-.195-.145.01-.153.01-.088 2.59.041 1.662.937 3.058 2.278 3.558 1.053.393 2.13.135 2.886-.693.492-.536.721-1.13.682-1.758-.078-1.223-1.14-2.143-1.185-2.18l-.041.196c.872-.25 1.622-.185 2.234.198 1.112.69 1.396 2.2 1.398 2.219l.021.125.125-.04c.057-.018 5.935-1.843 8.443 2.78 2.52 4.635-.896 8.82-.93 8.864l.193.112c.437-1.07.38-2.151-.151-2.966a2.29 2.29 0 0 0-1.883-1.047c-.677-.018-1.18.51-1.81 1.177-1.008 1.062-2.388 2.516-5.375 2.516-4.726 0-7.591-4.537-7.62-4.584l-.207.076c.697 4.682 4.496 6.633 4.533 6.65l.01-.205c-2.109.836-3.924.211-3.942.206l-.128-.047-.02.135c-.679 4.17-1.667 4.883-1.677 4.888l.13.006c-1.906-1.433-2.17-5.053-2.172-5.089l-.008-.133-.127.029c-1.994.44-3.094-.498-3.105-.508l-.018.185c2.714-1.565 4.255-5.755 4.318-5.932l-.192-.107c-2.15 2.586-4.278 4.094-6.33 4.476-1.673.316-2.877-.182-3.595-.479l-.125-.05c-.417-.171-1.046-.679-1.711-1.215-1.417-1.144-3.18-2.565-4.373-1.985-1.763.86-1.072 2.823-.74 3.768.066.18.139.389.134.438 0-.008.007-.031.03-.047.027-.016.05-.016.057-.013 0 0-.002 0-.005-.003-.215-.088-1.262-.992-1.825-2.541-.625-1.722-.427-3.64.57-5.552 2.477-4.755 8.24-4.094 8.3-4.086l.125.015v-.127c0-2.047 2.343-2.26 2.442-2.268l-.112-.157c-.038.089-.916 2.206.007 3.675.908 1.443 1.734 1.713 3.537 1.156 1.777-.55 2.195-5.904 2.212-6.133l-.216-.05c-.052.126-.313.391-.8.569-.447.158-1.368.333-2.53-.297-.424-.232-.701-.565-.826-.998-.316-1.101.451-2.49.458-2.5l-.21-.044c.002.01.15 1.208 1.509 1.208 1.334 0 1.619-1.002 2.015-2.388l.022-.075c.417-1.456-2.031-7.961-2.137-8.24l-.072-.193-.124.167c-1.164 1.563-3.068 2.708-3.088 2.719-4.123 2.474-3.425 6.724-3.419 6.768l.194-.099c-3.32-3.518-1.553-8.904-1.535-8.958l.033-.1-.098-.04c-3.314-1.318-4.317-4.493-4.325-4.524l-.153.138c5.24 2.213 8.397-3.227 9.746-5.55.423-.729.548-1.744.385-3.106l-.037-.32-.17.274c-1.5 2.405-2.693 3.046-3.432 3.16-.672.104-1.041-.206-1.047-.208l-.034.19c1.618-.612 1.507-5.573 1.487-6.138-.046-1.437.42-8.629.423-8.703l.012-.179-.166.067-.235.095-.061.024-.009.066c-.007.04-.615 4.263-.66 5.852-.039 1.28-1.218 9.877-5.27 10.348-3.898.453-4.586-1.276-4.59-1.294l-.083.151c2.751-.628 3.705-5.442 3.809-6.696.093-1.11 2.05-10.35 2.07-10.442l.038-.177-.176.043-.187.048-.03.007-.023.022c-.042.043-.311.46-1.349 4.48-1.224 4.737-4.757 8.955-5.158 9.42-1.534 1.792-5.383 4.74-8.957 3.081-3.83-1.778-3.192-6.102-3.185-6.144l-.007.025-.213-.008c.228.679 1.185 1.365 2.33 1.672 1.084.29 3.237.474 5.482-1.527 3.472-3.098 6.32-13.826 6.441-14.283l.038-.14h-.507l-.028.074c-1.683 4.576-5.783 12.221-10.483 11.843-1.375-.11-2.411-.626-3.078-1.53-1.375-1.867-.737-4.802-.73-4.833l.003-.013V40.5l-.225.022c.059.295.559.805 1.262 1.12.777.347 2.028.571 3.57-.338 2.64-1.556 6.344-11.414 6.502-11.833l-.208-.095c-2.541 4.605-5.911 6.89-9.01 6.117-2.514-.63-2.27-4.928-2.268-4.97l-.177.085c2.243 1.511 3.203.811 4.315 0l.195-.143c1.185-.853 4.42-7.076 4.556-7.34l-.18-.13C9.69 27.06 8.34 26.744 6.738 25.8c-1.745-1.03-1.037-4.365-1.031-4.4l-.203.04a1.983 1.983 0 0 0 1.7.895c1.128-.015 3.01-.877 5.555-4.902 3.086-4.886 5.135-6.052 5.689-6.291l-.073-.214c-.36.095-1.115.11-2.101-.844-.359-.346-.49-.778-.393-1.286.182-.939 1.081-1.821 1.222-1.878a.093.093 0 0 1-.081-.014l-.044-.084c0 .137.022 1.35.792 1.747.568.29 1.374.066 2.4-.665 2.899-2.073 6.209-2.006 6.243-2.005 1.523-.021 2.63.391 3.2 1.196.504.709.569 1.685.182 2.75-.363 1-1.101 2.179-1.882 3.427-.921 1.47-1.87 2.99-2.404 4.487-1.01 2.833 1.81 4.545 1.839 4.562l.026-.206c-2.937.859-4.154-1.179-4.204-1.266l-.072-.124-.105.098c-.948.897-1.738 3.387-.872 5.401.931 2.176 2.2 3.258 6.24 2.754 3.99-.5 4.724 1.366 4.73 1.385l-.005-.029.004.054.026.343.182-.293c1.824-2.922 3.852-3.392 3.872-3.396l-.041-.223c-1.282.17-1.776-.138-2.521-.61a10.511 10.511 0 0 0-1.068-.612c-1.56-.757-2.927.135-2.984.173l.174.116c.001-.014.295-1.396 1.545-2.099.733-.413 1.734-.125 2.794.18.773.22 1.572.45 2.362.45 1.846 0 3.807-.902 3.807-2.577 0-1.582-1.825-2.154-1.844-2.158l.046.188 2.545-2.462.076-.074-.066-.08-1.48-1.766-.011-.013-.013-.009-4.435-2.872.055.093V9.773l-.115.114h10.674l-.078-.028c.732.652.86.819 1.471 1.622.336.438.841 1.098 1.677 2.14 2.373 2.953 4.016 2.077 4.086 2.039l-.143-.173c-1.836 2.11-3.32 1.17-3.38 1.13l.015.013-.171.143c0 .005.304.527.226 2.725-.062 1.741-.81 3.271-1.596 4.891-.232.478-.474.973-.693 1.47-.508 1.145-.221 2.362.122 3.401l.06.175.128-.13c.476-.471 1.677-1.213 4.365-.877 4.278.535 5.536.174 6.398-1.839.841-1.962.42-4.077-.432-5.151l-.076-.095-.088.081c-.107.098-2.633 2.37-4.985-.057l-.08.191c.072 0 1.765-.013 2.578-1.187.541-.782.55-1.884.026-3.273-.555-1.47-1.675-2.889-2.756-4.26-.953-1.205-1.851-2.343-2.218-3.356-.396-1.09-.302-2.21.257-2.993.602-.85 1.693-1.288 3.154-1.267h.011c.023-.003 2.427-.201 5.838 2.04 2.414 1.587 3.745 1.473 4.44 1.1.727-.392.89-1.102.89-1.195 0 .036-.02.07-.054.088-.036.02-.08.01-.088.003.096.067.562.73.62 1.476a1.71 1.71 0 0 1-.576 1.461c-.737.686-1.49.753-1.495.754l-.039.215-.02-.013c.033.03.445.423 4.536 5.454l1.047 1.292c3.953 4.897 4.661 5.78 8.453 4.113l-.157-.119c-.005.034-.479 3.432-2.395 4.12-3.6 1.289-5.527-.453-9.545-4.52l-.174.147c.047.063 4.672 6.259 5.992 8.156.927 1.327 2.159 2.094 3.378 2.1.937.005 1.791-.462 2.4-1.316l-.205-.053c.003.04.435 4.049-1.948 5.103-5.234 2.317-10.52-6.656-10.573-6.747l-.044-.077-.086.025-.208.063-.141.042.078.125c.05.084 5.117 8.496 6.617 11.123.888 1.546 1.966 2.33 3.209 2.33 1.69 0 3.263-1.526 3.729-2.344l-.203-.012c.01.02.833 2.087-.097 3.949-.622 1.25-1.88 2.13-3.74 2.62-5.356 1.413-11.184-8.264-12.978-12.113l-.03-.06zm13.127 12.395c1.927-.508 3.235-1.429 3.888-2.74.972-1.955.138-4.047.102-4.134l-.086-.215-.115.201c-.448.778-1.937 2.23-3.533 2.23-1.154 0-2.17-.746-3.01-2.218-1.503-2.628-6.574-11.042-6.626-11.127l-.06.167.209-.063-.13-.05c.012.022 1.359 2.33 3.354 4.313 2.661 2.648 5.255 3.521 7.505 2.526 2.53-1.122 2.096-5.164 2.08-5.335l-.036-.293-.17.24c-.575.804-1.34 1.226-2.215 1.222-1.146-.007-2.308-.736-3.193-2.005-1.323-1.9-5.948-8.098-5.995-8.16l-.172.148c4.091 4.136 6.055 5.909 9.784 4.573 2.05-.734 2.524-4.158 2.544-4.304l.026-.199-.184.08c-3.633 1.598-4.24.846-8.188-4.046l-1.047-1.293c-1.323-1.63-4.427-5.433-4.599-5.505l-.036.216c.036-.002.84-.073 1.632-.81 1.12-1.038.503-2.407.29-2.802-.138-.255-.339-.552-.48-.516a.123.123 0 0 0-.088.122c-.005.08-.177.696-.81 1.016-.643.323-1.888.395-4.174-1.108-3.485-2.29-5.883-2.088-5.982-2.079h.013c-1.943-.027-2.89.726-3.344 1.362-.607.856-.708 2.024-.284 3.202.383 1.046 1.292 2.198 2.255 3.417 1.07 1.359 2.18 2.765 2.722 4.2.494 1.316.494 2.347-.003 3.065-.742 1.078-2.372 1.09-2.39 1.09h-.266l.185.191c2.502 2.589 5.27.094 5.3.069l-.167-.014c.81 1.022 1.208 3.04.4 4.922-.81 1.886-2.018 2.222-6.16 1.703-2.644-.33-3.936.33-4.553.943l.185.044c-.33-1-.604-2.165-.13-3.239.219-.494.458-.985.69-1.464.8-1.642 1.555-3.192 1.617-4.98.083-2.31-.25-2.837-.263-2.86l-.159.157c.018.012 1.708 1.097 3.68-1.168l-.143-.173c-.013.008-1.555.81-3.795-1.983-.833-1.04-1.338-1.7-1.674-2.137-.623-.817-.753-.985-1.498-1.654l-.033-.029H35.882V12.75l.054.032 4.433 2.875-.026-.023 1.477 1.764.01-.153-2.547 2.463-.138.134.185.055c.016.005 1.684.528 1.684 1.943 0 1.472-1.822 2.35-3.582 2.35-.758 0-1.542-.223-2.299-.442-1.107-.316-2.153-.617-2.967-.158-1.345.755-1.646 2.191-1.656 2.252l-.055.268.228-.153c.012-.008 1.32-.856 2.76-.156.424.207.755.416 1.046.599.758.479 1.307.824 2.672.643l-.04-.223c-.083.019-2.134.488-4.013 3.498l.208.053-.004-.054v-.015l-.005-.015c-.031-.083-.786-2.057-4.973-1.533-4.288.535-5.256-.87-6.005-2.618-.814-1.898-.056-4.317.822-5.148l-.177-.026c.014.022 1.354 2.278 4.463 1.372l.25-.075-.224-.132c-.11-.067-2.686-1.635-1.74-4.293.524-1.474 1.47-2.982 2.38-4.441.789-1.26 1.535-2.449 1.906-3.471.412-1.136.339-2.187-.21-2.958-.617-.868-1.786-1.313-3.383-1.29-.031-.002-3.412-.072-6.377 2.046-.95.678-1.677.896-2.162.648-.667-.344-.673-1.498-.673-1.546a.121.121 0 0 0-.09-.12c-.195-.052-.82.655-1.125 1.2-.368.656-.648 1.595.128 2.345 1.067 1.03 1.909 1.007 2.315.901l-.072-.213c-.73.315-2.756 1.57-5.793 6.376-2.49 3.942-4.291 4.784-5.364 4.797a1.738 1.738 0 0 1-1.51-.795l-.15-.22-.055.258c-.033.144-.75 3.532 1.137 4.644 1.692 1 3.112 1.34 7.248-2.843l-.18-.131c-.035.063-3.344 6.438-4.488 7.26l-.198.144c-1.085.792-1.942 1.417-4.052-.005l-.164-.11-.013.198c-.01.184-.258 4.528 2.44 5.203 3.206.8 6.67-1.526 9.264-6.226l-.204-.095c-.039.103-3.83 10.203-6.403 11.718-1.459.86-2.636.652-3.364.325-.689-.307-1.096-.777-1.133-.955l-.22-.004c-.028.125-.666 3.066.769 5.016.708.96 1.797 1.506 3.242 1.622 2.314.186 4.648-1.378 6.937-4.646 2.102-3.002 3.42-6.38 3.776-7.344l-.106.074h.28l-.107-.142c-.03.111-2.952 11.119-6.373 14.169-2.165 1.932-4.233 1.756-5.274 1.478-1.198-.32-2.003-1.008-2.174-1.523l-.217.017c-.008.045-.674 4.532 3.314 6.383 1.736.808 3.655.685 5.704-.372 1.958-1.005 3.275-2.479 3.52-2.763.402-.47 3.966-4.726 5.204-9.513 1.024-3.96 1.287-4.37 1.299-4.387l-.01.011-.052.03.188-.047-.138-.133c-.081.38-1.98 9.345-2.075 10.47-.095 1.145-1.04 5.902-3.633 6.494l-.126.026.045.122c.028.078.737 1.917 4.83 1.44 1.745-.203 3.225-1.89 4.279-4.88.834-2.367 1.167-4.896 1.19-5.686.047-1.577.654-5.785.659-5.828l-.07.09.234-.094-.154-.113c-.018.297-.47 7.276-.424 8.724.06 1.85-.143 5.467-1.34 5.92l-.178.068.145.125c.017.015.456.38 1.227.26.787-.122 2.047-.786 3.59-3.266l-.208-.045c.155 1.293.035 2.29-.357 2.965-1.318 2.273-4.408 7.59-9.462 5.453l-.224-.091.072.229c.008.034 1.04 3.31 4.457 4.67l-.063-.141c-.021.057-1.833 5.565 1.582 9.184l.259.276-.065-.375c-.008-.039-.675-4.138 3.312-6.53.021-.011 1.962-1.18 3.151-2.78l-.195-.028c.026.068 2.528 6.713 2.133 8.099l-.022.075c-.397 1.386-.634 2.222-1.8 2.222-1.152 0-1.277-.966-1.282-1.008v.013-.43l-.212.373c-.033.062-.822 1.484-.478 2.677.141.492.454.872.933 1.133 1.241.674 2.233.481 2.717.307.524-.188.85-.492.93-.693l-.216-.05c-.005.053-.424 5.428-2.056 5.933-1.716.531-2.42.305-3.277-1.06-.862-1.372 0-3.445.008-3.466l.073-.175-.187.019c-.025.002-2.65.24-2.65 2.492l.128-.112c-.058-.008-5.976-.693-8.528 4.206-1.296 2.487-1.032 4.49-.581 5.731.56 1.542 1.622 2.54 1.951 2.675.097.041.156.005.183-.021.096-.091.043-.242-.098-.64-.333-.949-.955-2.717.623-3.488 1.065-.518 2.766.855 4.134 1.959.707.573 1.319 1.065 1.767 1.247l.125.05c1.388.573 5.075 2.093 10.185-4.065l-.195-.11c-.014.042-1.576 4.29-4.217 5.81l-.14.08.123.105c.048.039 1.215 1.016 3.298.557l-.137-.101c.01.15.275 3.763 2.262 5.252l.065.047.065-.039c.042-.031 1.078-.737 1.774-5.044l-.149.086c.076.028 1.909.661 4.102-.206l.237-.094-.23-.112c-.036-.018-3.731-1.919-4.41-6.484l-.209.075c.027.05 2.963 4.693 7.812 4.693 3.086 0 4.5-1.495 5.54-2.586.593-.625 1.062-1.12 1.64-1.107a2.05 2.05 0 0 1 1.698.946c.492.75.539 1.755.13 2.755l.193.115c.034-.042 3.55-4.339.955-9.115-1.362-2.503-3.661-3.156-5.351-3.26a10.242 10.242 0 0 0-3.362.375l.148.085c-.013-.065-.31-1.622-1.502-2.367-.667-.416-1.482-.49-2.42-.224l-.2.058.161.138c.008.007 1.034.895 1.105 2.023.033.565-.175 1.1-.623 1.591-.693.755-1.677.992-2.638.633-1.255-.466-2.094-1.784-2.133-3.352-.052-2.052-.036-2.39-.028-2.437-.005.031-.04.076-.1.078a.108.108 0 0 1-.106-.07c.003.008.008.039.008.062l.002.034.021.026c.016.018 1.482 1.873 3.313.682.768-.502 1.231-1.265 1.304-2.148.07-.865-.244-1.753-.797-2.258l-.156-.14-.034.205c-.005.037-.166.888-1.283.888a1.36 1.36 0 0 1-1.138-.58c-.43-.607-.454-1.581-.068-2.675.729-2.065 2.646-6.677 2.667-6.726l-.178.044c.058.05 5.852 4.93 5.214 8.721l-.055.33.245-.23c.044-.043 4.26-4.128 2.656-8.821l-.057.138c.034-.018 3.425-1.75 3.96-5.133l.06-.385-.254.294c-.084.091-2.042 2.242-5.649.221-3.58-2.008-4.786-5.958-4.786-7.453l.005-.094-.2.063c2.637 3.432 4.968 2.453 5.067 2.409l.253-.112-.26-.097c-1.269-.481-1.54-5.002-1.493-6.505.047-1.448-.404-8.427-.424-8.724l-.154.112.234.093-.07-.088c.008.043.612 4.25.659 5.829.047 1.541 1.888 10.572 6.05 11.057 4.114.48 4.416-1.568 4.427-1.654l.01-.101-.096-.024c-2.51-.573-3.696-5.463-3.805-6.796-.094-1.121-1.427-8.84-1.485-9.167l-.135.13.48.104-.09-.095c.003.02.084.498 1.777 4.523 1.604 3.819 2.833 6.63 3.971 8.02 3.146 3.833 6.542 5.04 10.375 3.682 4.435-1.573 3.651-5.943 3.643-5.989l-.08-.424-.138.412c-.13.398-.727.923-1.76 1.198-1.022.274-3.73.604-6.881-2.199-3.43-3.048-7.135-13.808-7.172-13.917l-.114.15.25.02-.094-.063c.737 1.583 2.617 5.015 4.976 7.828 3.003 3.58 5.784 5.062 8.263 4.407" fill="#050301"/><path d="M57.387 62.714s.766 1.651 4.904 1.43c4.135-.224 4.578-1.901 4.75-3.675.18-1.773.234-3.48 2.518-3.34 2.279.137 3.633 2.262 3.633 2.262s-.227.073-1.498-.27c-.765-.207-.859-.165-.859-.165s1.687 1.005.68 2.482c-1.008 1.476-2.162.3-2.162.3s.016 2.33-3.336 2.926c0 0 2.737-.216 5.651-2.75 2.92-2.53 4.618-2.864 6.125-.765 1.508 2.099.467 3.531.467 3.531s-.352-1.502-1.568-1.867c0 0-.156 2.008-1.623 1.893-1.466-.117-1.416-.77-1.416-.77s-2.784 2.31-6.448 2.452c0 0 2.44.654 4.9.459 2.464-.198 4.62-.925 5.397 1.547.78 2.468-1.123 3.953-1.256 4.174-.135.224-.575-2.062-.575-2.062s-.638 1.33-2.279.794c-1.039-.341-.87-1.818-.87-1.818s-2.57.073-4.122-.474c-1.55-.55-1.982-.971-3.055-.666-1.073.307-2.25.953-2.25.953s.198.948-.187 1.422c-.386.476-.88.825-2.412.515 0 0-.786 1.61-.135 2.242.651.633-2.297-.955-2.198-2.737.102-1.778.87-2.185 1.747-2.505.883-.32 1.524-1.088 1.573-1.2.05-.112-2.96-.891-2.96-.891l-2.13.885-1.326-.453-.307-3.052 2.627-.807" fill="#e7ec19"/><path d="M54.648 63.532l.307 3.054.008.07.067.024 1.326.453.039.013.042-.015 2.127-.883-.073.002c1.31.342 2.776.753 2.912.852-.021-.013-.047-.063-.026-.115-.047.102-.672.839-1.5 1.138-.904.329-1.724.776-1.826 2.607-.083 1.498 1.836 2.841 2.3 2.982.117.036.174-.008.2-.05.06-.104-.047-.21-.112-.273-.586-.568.151-2.096.156-2.112l-.122.063c1.48.302 2.06.013 2.523-.553.414-.51.217-1.476.209-1.518l-.057.123c.012-.008 1.18-.644 2.229-.943.765-.219 1.18-.052 2.002.284.281.112.597.242.982.38 1.557.547 4.06.482 4.167.48l-.12-.126c-.003.065-.167 1.57.95 1.938 1.717.56 2.407-.841 2.414-.855l-.213-.028c.414 2.13.565 2.159.643 2.172.058.01.11-.016.143-.068.01-.02.068-.08.125-.143.454-.477 1.836-1.933 1.141-4.128-.687-2.17-2.401-1.971-4.388-1.74-.365.042-.742.087-1.125.115-2.42.196-4.838-.448-4.86-.453l-.025.224c3.656-.146 6.484-2.456 6.51-2.48l-.182-.095c-.003.03-.042.77 1.518.89.39.031.724-.073 1.003-.312.648-.555.74-1.641.744-1.685l-.148.099c1.143.343 1.487 1.773 1.49 1.786l.057.242.146-.2c.01-.013 1.07-1.526-.464-3.664-.622-.865-1.279-1.323-2.02-1.412-1.087-.127-2.404.54-4.269 2.16-2.849 2.473-5.557 2.718-5.58 2.718l.02.224c3.404-.604 3.427-3.013 3.427-3.037l-.19.079c.02.02.529.533 1.19.476.425-.039.813-.305 1.143-.789.3-.44.402-.883.308-1.32-.183-.815-.99-1.302-1.021-1.323l-.013.2-.021.006c.005 0 .143-.016.802.164 1.242.333 1.52.283 1.56.27l.143-.046-.08-.123c-.058-.088-1.41-2.177-3.724-2.315-2.284-.138-2.448 1.557-2.607 3.198l-.024.245c-.182 1.825-.656 3.354-4.648 3.57-3.99.214-4.784-1.349-4.792-1.367l-.044-.086c0-.003-.094.029-.094.029l-2.625.804-.088.029zm2.638-.774c.03.073.843 1.722 5.007 1.498 4.167-.224 4.68-1.914 4.86-3.776l.026-.243c.161-1.674.304-3.12 2.372-2.997 2.195.135 3.531 2.19 3.544 2.21l.06-.166c-.002 0-.26.044-1.43-.273-.533-.143-.846-.198-.934-.16l-.198.09.185.111c.008.006.758.461.916 1.18.081.373-.01.758-.273 1.14-.292.428-.617.662-.977.694-.557.046-1.002-.404-1.007-.41l-.198-.197v.278c.002.091-.032 2.245-3.24 2.815l.026.224c.031-.002 2.81-.247 5.721-2.773 1.813-1.575 3.076-2.227 4.097-2.104.672.078 1.278.508 1.86 1.315 1.445 2.008.476 3.388.463 3.401l.203.042c-.013-.068-.38-1.573-1.643-1.953l-.136-.042-.01.14c-.008.079-.167 1.894-1.5 1.79-1.318-.1-1.315-.644-1.315-.649l.007-.253c0-.002-.192.16-.192.16-.026.02-2.797 2.286-6.38 2.424l-.024.224c.024.008 2.482.656 4.94.46.386-.03.768-.075 1.136-.116 1.963-.23 3.518-.41 4.146 1.586.653 2.067-.615 3.4-1.092 3.9-.083.09-.132.141-.156.183.008-.018.034-.037.068-.04.039-.002.062.016.068.024-.094-.114-.331-1.112-.506-2.013l-.062-.336-.151.308c-.024.052-.617 1.234-2.14.736-.938-.307-.795-1.682-.793-1.697l.019-.128-.133.005c-.026 0-2.568.065-4.08-.469-.384-.138-.699-.265-.975-.375-.846-.346-1.31-.53-2.15-.294-1.074.307-2.264.958-2.274.964l-.073.039.015.083c.003.008.183.901-.164 1.328-.349.427-.783.784-2.302.474l-.083-.018-.04.078c-.033.068-.812 1.693-.111 2.375.052.052.062.073.065.073-.008-.013-.013-.05.01-.083a.09.09 0 0 1 .076-.042c-.26-.029-2.234-1.367-2.156-2.758.093-1.7.784-2.083 1.674-2.406.886-.323 1.568-1.107 1.636-1.263l.018-.047a.412.412 0 0 0-.021-.055c-.029-.054-.091-.18-3.036-.942l-.037-.01-.034.015-2.13.885.08-.005-1.325-.45.076.096-.305-3.055-.08.117 2.627-.804-.135-.063" fill="#050301"/><path d="M75.775 70.435c-.003-.018-.495-1.718.38-2.05l-.08-.21c-1.07.403-.54 2.245-.516 2.323l.216-.063M72.632 69.519c.086-.266.367-1.003.664-1.2l-.125-.188c-.422.28-.74 1.278-.753 1.323l.214.065M76.799 62.706c-.04-.018-.94-.49-.896-2.062l-.227-.003c-.05 1.721.98 2.247 1.021 2.27l.102-.205M73.762 63.935c0-.01-.122-1.08-.013-1.463l-.219-.06c-.12.424 0 1.502.008 1.55l.224-.027M69.499 61.696c-.005-.006-.573-.498-.745-.823l-.2.104c.19.367.776.867.8.888l.145-.17M70.848 58.839h.003c-.008 0-.662.005-1.336-.893l-.18.138c.75.997 1.492.982 1.52.982l-.007-.227M66.056 64.542c-.49.034-2.106.148-2.336.305l.128.185c.128-.084 1.234-.198 2.224-.263l-.016-.227M67.244 66.266c-.016-.003-1.565-.208-2.297-.588l-.107.2c.771.398 2.31.604 2.375.612l.029-.224M63.205 69.258c-.018-.026-.412-.62-.875-.656l-.018.226c.296.024.609.407.705.555l.188-.125M60.59 71.245c-.01-.026-.307-.67-.867-.844-.279-.09-.573-.046-.87.128l.115.195c.237-.14.471-.18.687-.109.461.146.73.716.732.724l.203-.094M57.239 65.287c-.034.008-.81.195-1.644-.612l-.156.167c.93.895 1.818.671 1.857.664l-.057-.22" fill="#050301"/><path d="M25.628 63.704s-.89 1.585-4.996 1.046c-4.107-.544-4.417-2.25-4.456-4.03-.04-1.782.039-3.488-2.247-3.527-2.286-.039-3.797 1.977-3.797 1.977s.218.088 1.51-.157c.777-.143.869-.096.869-.096s-1.759.872-.868 2.425c.892 1.546 2.13.463 2.13.463s-.194 2.326 3.1 3.175c0 0-2.712-.425-5.426-3.175-2.71-2.753-4.377-3.216-6.041-1.242-1.667 1.976-.737 3.49-.737 3.49s.465-1.475 1.706-1.745c0 0 0 2.015 1.472 2.015s1.472-.659 1.472-.659 2.596 2.516 6.238 2.943c0 0-2.48.466-4.922.08-2.441-.39-4.534-1.28-5.501 1.123-.968 2.399.813 4.029.93 4.26.115.232.737-2.012.737-2.012s.53 1.375 2.206.966c1.064-.258 1.008-1.742 1.008-1.742s2.557.27 4.146-.154c1.589-.427 2.054-.815 3.099-.427 1.047.385 2.17 1.122 2.17 1.122s-.272.93.077 1.435c.348.503.814.89 2.365.696 0 0 .656 1.666-.04 2.25-.697.58 2.363-.776 2.402-2.56.039-1.782-.696-2.245-1.55-2.633-.852-.39-1.433-1.2-1.47-1.318-.042-.117 3.02-.659 3.02-.659l2.054 1.047 1.356-.349.542-3.023-2.558-1.005" fill="#e7ec19"/><path d="M28.074 64.688l-.543 3.023.086-.088-1.358.349.08.008-2.053-1.047-.034-.016-.036.005c-2.996.532-3.069.651-3.1.706l-.027.044c0 .008.016.058.016.058.056.164.66.987 1.533 1.382.864.394 1.52.828 1.483 2.532-.03 1.393-2.103 2.573-2.364 2.58.014 0 .05.01.07.047.022.037.014.073.006.086 0 0 .013-.02.071-.068.752-.627.1-2.304.072-2.377l-.033-.08-.087.01c-1.535.192-1.944-.196-2.255-.649-.313-.453-.065-1.33-.062-1.338l.023-.079-.07-.046c-.01-.008-1.146-.75-2.193-1.136-.82-.305-1.3-.154-2.167.123-.284.09-.606.195-1 .3-1.55.416-4.078.155-4.104.153l-.13-.016.005.133c0 .013.04 1.393-.922 1.627-1.557.38-2.054-.846-2.077-.898l-.123-.318-.09.326c-.244.885-.557 1.864-.66 1.969a.08.08 0 0 1 .07-.016.077.077 0 0 1 .064.044c-.02-.044-.066-.099-.142-.193-.437-.536-1.596-1.966-.784-3.976.781-1.94 2.314-1.638 4.255-1.26.362.072.737.145 1.124.205 2.431.386 4.934-.073 4.958-.078l-.007-.224c-3.562-.417-6.147-2.888-6.171-2.911l-.193-.188v.268c0 .003-.037.545-1.358.545-1.345 0-1.36-1.883-1.36-1.901v-.14l-.138.03c-1.29.282-1.768 1.756-1.787 1.818l.203-.026c-.036-.057-.862-1.469.727-3.354.65-.768 1.27-1.14 1.955-1.167 1.027-.041 2.235.706 3.921 2.414 2.707 2.748 5.46 3.206 5.488 3.211l.045-.221c-3.154-.818-3.023-2.969-3.014-3.06l.021-.279-.208.183c-.005.007-.492.421-1.039.328-.354-.058-.663-.315-.92-.763-.232-.401-.295-.795-.183-1.162.213-.703.996-1.099 1.002-1.101l.2-.1-.195-.103c-.085-.042-.401-.014-.943.088-1.193.224-1.445.162-1.456.159l.055.174c.017-.02 1.505-1.968 3.706-1.93 2.07.035 2.099 1.488 2.13 3.17l.007.245c.039 1.87.417 3.594 4.553 4.138 4.135.547 5.073-1.034 5.11-1.102l-.139.05 2.557 1.008zm-2.544-1.042c-.009.016-.921 1.513-4.885.99-3.96-.524-4.317-2.084-4.356-3.92l-.006-.244c-.03-1.649-.062-3.352-2.352-3.39-2.317-.04-3.827 1.937-3.888 2.02l-.09.117.135.055c.042.015.315.091 1.576-.149.674-.127.81-.101.812-.101l-.018-.005.002-.203c-.033.018-.877.442-1.12 1.24-.127.429-.06.88.204 1.34.294.508.656.805 1.08.873.654.11 1.201-.36 1.224-.38l-.188-.094c-.002.023-.16 2.43 3.186 3.297l.046-.222c-.028-.005-2.711-.458-5.361-3.146-1.736-1.757-2.998-2.523-4.091-2.481-.744.028-1.438.44-2.121 1.247-1.7 2.016-.757 3.604-.747 3.622l.13.209.076-.237c.003-.013.46-1.412 1.62-1.667l-.138-.11c0 .021.018 2.128 1.587 2.128 1.565 0 1.585-.74 1.585-.77l-.193.08c.026.026 2.667 2.55 6.304 2.974l-.007-.221c-.026.005-2.491.456-4.883.075-.38-.06-.755-.133-1.117-.203-1.96-.383-3.656-.716-4.508 1.396-.86 2.138.404 3.693.818 4.206.052.062.107.13.117.148a.135.135 0 0 0 .136.08c.08-.007.234-.022.81-2.114l-.215.01c.006.016.587 1.464 2.341 1.04 1.14-.279 1.095-1.794 1.093-1.857l-.123.115c.104.01 2.595.268 4.185-.16.4-.103.724-.21 1.01-.299.848-.27 1.272-.409 2.02-.13 1.022.38 2.136 1.107 2.148 1.115l-.046-.128c-.012.04-.283.987.093 1.531.414.597.972.93 2.47.745l-.12-.07c.006.015.623 1.596-.005 2.117-.07.057-.185.154-.132.263.023.044.075.091.196.065.472-.104 2.49-1.294 2.524-2.797.04-1.833-.743-2.34-1.617-2.74-.804-.364-1.372-1.145-1.412-1.25.02.055-.012.1-.03.113.14-.089 1.633-.386 2.965-.625l-.072-.01 2.054 1.046.039.018.04-.01 1.356-.346.07-.016.014-.073.541-3.023.019-.092-.089-.033-2.555-1.008-.093-.037-.048.086" fill="#050301"/><path d="M6.911 70.06c.027-.075.7-1.872-.336-2.356l-.096.205c.849.396.226 2.055.221 2.07l.211.081M10.122 69.258c-.008-.041-.246-1.062-.648-1.375l-.14.18c.283.216.505.976.57 1.247l.218-.052M6.362 62.404c.044-.016 1.109-.46 1.195-2.185l-.227-.01c-.078 1.57-1.014 1.971-1.054 1.987l.086.208M9.432 63.698c.008-.047.21-1.112.125-1.547l-.221.047c.076.388-.124 1.446-.125 1.459l.22.041M13.765 61.933c.026-.019.649-.477.863-.823l-.188-.12c-.196.312-.802.755-.808.76l.133.183M12.481 59.024c.032.002.769.078 1.594-.86l-.17-.15c-.741.843-1.392.786-1.398.786l-.026.224M16.81 65.081c.984.14 2.078.341 2.197.435l.142-.177c-.216-.172-1.819-.411-2.306-.482l-.033.224M15.541 66.709c.065-.005 1.612-.089 2.414-.427l-.088-.209c-.764.323-2.323.41-2.339.412l.013.224M19.502 69.917v.003c.107-.141.448-.5.745-.5v-.227c-.469 0-.906.563-.925.586l.18.138M21.974 72.07h-.002c.002-.004.313-.554.785-.663.222-.052.45.002.677.161l.13-.185c-.283-.198-.572-.263-.859-.198-.57.136-.916.75-.93.776l.199.11M25.505 66.495c.036.013.905.302 1.903-.52l-.143-.175c-.896.737-1.653.492-1.686.482l.014.005-.088.208" fill="#050301"/><path d="M3.763 15.755s2.18-1.192 3.661-5.264l.412.123s.616 2.139 2.385 2.262c1.768.124 1.357-1.686.328-2.303S6.11 7.982 5.696 7.037c-.41-.947-1.113-3.205 1.276-4.485 2.304-1.233 3.865.987 5.142.865 1.274-.123 2.26-.7 2.386-.823l-3.784 3.249s.075-2.945-1.935-2.509c-1.892.411-1.685 1.851-.33 2.55 1.357.7 5.207 2.703 5.554 4.69.33 1.892-.822 3.7-3.209 3.7-2.385 0-2.878-1.604-3.454-.78-.577.822-1.686 2.057-3.58 2.26M72.549 7.992V3.404c0-.247.109-.247.109-.247h1.55c.494 0 2.614.776 2.12 3.177-.496 2.399-2.93 2.01-3.391 2.01-.459 0-.388-.352-.388-.352zm.778 1.553c.67 0 2.54.282 4.164-1.34 1.623-1.625.956-4.342-.567-5.224-1.514-.883-2.433-.778-4.266-.778h-3.531s-.214.282 0 .353c.21.07.74.249.74 1.234v8.542c0 .636-.352 2.013-1.342 2.013h5.826s-1.625-1.095-1.625-2.188V9.97s-.068-.424.601-.424M69.882 80.149a1.943 1.943 0 1 1-3.886 0v-5.216a1.942 1.942 0 0 1 3.886 0zm-1.943-8.758c-2.77 0-5.018 2.753-5.018 6.151 0 3.398 2.247 6.151 5.018 6.151 2.774 0 5.02-2.753 5.02-6.15 0-3.4-2.246-6.152-5.02-6.152M11.65 74.933a1.943 1.943 0 1 1 3.887 0v5.216a1.945 1.945 0 1 1-3.886 0zm7.417 10.789c-1.476-.64-2.607-.836-3.69-1.82a4.706 4.706 0 0 0-.508-.41c2.154-.692 3.743-3.093 3.743-5.95 0-3.398-2.247-6.151-5.019-6.151-2.772 0-5.018 2.753-5.018 6.151 0 2.755 1.48 5.089 3.518 5.872-.415.073-1.05.25-1.686.685-1.082.737-.345.886-.345.886s.885-.64 1.82-.297c.937.346 2.51 1.232 4.037 1.625 1.523.393 4.625.05 3.148-.591" fill="#e7ec19"/><path d="M37.687 11.012h2.134l.749 2.35s-.57.427-.32.748c.247.32.32.748.32.748s-3.034-.692-4.059-2.137c-1.027-1.444 1.176-1.71 1.176-1.71" fill="#050301"/><path d="M29.87 14.754s-1.683 2.627-.081 3.898c1.6 1.273 3.898.575 5.456.166 1.562-.412 4.27-1.273 5.46-.289 1.192.986 1.398-.492 1.398-.492s-2.054-1.313-5.705-1.107c-3.655.203-3.52.76-4.887.451-1.62-.368-1.642-2.627-1.642-2.627" fill="#ee2729"/><path d="M31.492 17.472c.712.162 1.044.092 1.647-.036.585-.125 1.467-.313 3.263-.413 3.578-.2 5.621 1.07 5.634 1.082l-.027-.082c0 .007-.088.59-.431.724-.21.081-.48-.017-.813-.29-1.121-.929-3.515-.279-5.101.15l-.44.119-.232.06c-1.544.412-3.66.975-5.146-.208-1.516-1.203.087-3.748.103-3.773l-.012.015-.161-.065c0 .022.04 2.338 1.716 2.717zm-1.7-2.77c-.019.027-1.712 2.715-.063 4.026 1.56 1.24 3.729.663 5.312.241l.23-.06.444-.12c1.545-.42 3.884-1.053 4.93-.187.387.32.723.428 1.002.32.447-.174.544-.844.548-.872l.008-.06-.05-.032c-.02-.013-2.12-1.328-5.763-1.123-1.808.1-2.699.29-3.289.416-.596.127-.896.19-1.568.038-1.53-.349-1.567-2.515-1.568-2.537l-.003-.317-.17.267" fill="#050301"/><path d="M47.478 2.623s-1.625-.375-1.927.534c-.289.862-.083 1.273.534 1.519.615.246.984.083.984.083s-.533 1.682-2.257.657c0 0-.657.82-1.93.41s-.616-1.067-.616-1.067 1.848.491 1.848-1.068c0-1.558-1.354-1.068-1.354-1.068s.22-1.331-1.113-1.565c0 0-.119-.008-.226-.019a.859.859 0 0 0-.2.02c-1.336.233-1.115 1.564-1.115 1.564s-1.354-.49-1.354 1.068c0 1.56 1.848 1.068 1.848 1.068s.657.657-.616 1.067c-1.27.41-1.93-.41-1.93-.41-1.724 1.025-2.258-.657-2.258-.657s.37.163.986-.083.822-.657.534-1.52c-.303-.908-1.93-.533-1.93-.533-1.394-1.682-2.421-.984-2.421-.984 2.175 1.97 3.079 8.169 3.079 8.169H46.825s.9-6.199 3.075-8.169c0 0-1.026-.698-2.422.984" fill="#e7ec19"/><path d="M49.838 1.569c-2.175 1.97-3.07 7.97-3.107 8.225l.094-.082H36.044l.094.082c-.04-.255-.934-6.255-3.111-8.225l-.008.148c.038-.027.978-.623 2.296.966l.035.045.058-.012c.016-.004 1.547-.346 1.818.472.295.886.021 1.201-.479 1.401-.565.227-.909.085-.913.084l-.189-.081.063.194c.009.03.237.731.878.974.434.166.946.077 1.517-.264l-.122-.021c.007.008.714.866 2.033.44.488-.158.771-.375.836-.646.076-.314-.173-.567-.184-.576l-.039-.039-.053.014c-.007.002-.893.23-1.39-.151-.224-.172-.338-.45-.338-.826 0-.448.117-.756.344-.917.355-.25.88-.063.885-.062l.152.055-.027-.157c-.008-.052-.187-1.245 1.036-1.46.006 0 .08-.018.184-.017.1.011.217.018.222.018l-.01-.001c1.226.216 1.042 1.408 1.034 1.46l-.029.158.154-.056c.005 0 .53-.188.888.062.224.161.34.47.34.917 0 .375-.114.654-.338.826-.497.38-1.382.153-1.391.15l-.053-.013-.038.04c-.01.008-.26.26-.183.575.066.27.348.488.837.646 1.318.426 2.024-.432 2.031-.44l-.122.02c.576.342 1.083.43 1.518.265.64-.243.868-.943.88-.974l.06-.198-.19.085c-.002.001-.346.143-.911-.084-.503-.2-.774-.515-.48-1.401.271-.818 1.805-.476 1.818-.472l.058.012.036-.045c1.32-1.589 2.258-.993 2.297-.966zm-2.336.963c-.07-.016-1.716-.383-2.042.596-.29.867-.115 1.356.589 1.635.645.258 1.041.089 1.057.082l-.128-.115c-.002.007-.21.645-.765.855-.38.143-.834.06-1.355-.251l-.07-.041-.052.063c-.023.032-.633.764-1.826.38-.416-.134-.661-.31-.71-.51-.052-.212.132-.4.132-.402l-.01.01-.081.015c.04.01.985.256 1.555-.181.273-.21.411-.54.411-.977 0-.513-.143-.873-.424-1.07-.435-.305-1.031-.095-1.057-.086l.127.104c.003-.014.219-1.427-1.19-1.674h-.006l-.004-.001s-.117-.007-.221-.018c-.143-.002-.232.02-.236.02-1.402.246-1.183 1.659-1.182 1.673l.126-.104c-.026-.009-.622-.22-1.057.085-.281.198-.425.558-.425 1.071 0 .437.14.766.413.977.57.437 1.513.192 1.554.18l-.093-.022c.001 0 .185.188.134.4-.05.2-.294.376-.712.51-1.195.387-1.82-.373-1.826-.38l-.05-.063-.07.04c-.521.312-.976.395-1.355.252-.554-.21-.765-.848-.766-.855l-.13.115c.019.007.415.176 1.06-.082.702-.279.878-.768.589-1.635-.328-.98-1.97-.612-2.04-.596l.094.031C34.026.835 32.955 1.531 32.91 1.561l-.099.067.089.08c2.126 1.927 3.04 8.05 3.05 8.112l.012.08h10.94l.013-.08c.008-.061.924-6.185 3.047-8.111l.09-.081-.1-.067c-.043-.03-1.113-.726-2.548 1.002l.097-.031" fill="#050301"/><path d="M36.398 21.341s1.023-2.79 4.965-3.16c0 0-.29-2.097-2.832-2.586-2.133-.41-2.628-.534-2.833-1.765 0 0-.862.122-.985 1.273 0 0-1.513-1.048-1.312-2.3 0 0-.248-1.313 1.844-2.05 0 0 .404-.945.799-.945h1.544s1.025.574 1.025 1.56c0 .984-1.067 1.846-1.764 1.353 0 0 1.23 1.273 2.872 1.56 1.642.287 2.77 1.59 3.039 2.79.14.642.45 3.039-.494 3.039s-3.858-.288-5.868 1.231" fill="#e7ec19"/><path d="M42.266 20.204a.545.545 0 0 0 .452-.223c.51-.632.234-2.47.133-2.93-.258-1.162-1.341-2.552-3.114-2.863-1.592-.278-2.81-1.52-2.822-1.532l-.121.142c.289.203.661.213 1.02.025.527-.271.892-.87.892-1.455 0-1.03-1.03-1.618-1.074-1.643l-.019-.013h-1.569c-.444 0-.84.9-.883 1.002l.055-.052c-2.146.756-1.92 2.102-1.91 2.159v-.032c-.206 1.295 1.29 2.346 1.352 2.39l.133.092.016-.159c.114-1.057.872-1.184.906-1.189l-.107-.078c.22 1.325.844 1.445 2.907 1.841 2.443.47 2.746 2.425 2.757 2.508l.085-.107c-3.954.371-5.035 3.193-5.047 3.222l-.11.301.256-.194c1.752-1.324 4.223-1.254 5.41-1.22.156.004.29.008.402.008zm-5.782 1.17c.01-.027 1.057-2.74 4.887-3.1l.099-.009-.014-.098c-.002-.021-.329-2.17-2.907-2.665-2.15-.413-2.565-.528-2.758-1.687l-.015-.09-.09.013c-.01 0-.936.145-1.067 1.354l.147-.067c-.014-.011-1.463-1.03-1.273-2.206l.004-.017-.004-.016c-.01-.05-.2-1.246 1.785-1.946l.04-.014.015-.039c.147-.342.469-.887.71-.887h1.545l-.047-.01c.008.005.977.56.977 1.478 0 .517-.323 1.046-.788 1.288-.176.091-.514.209-.827-.012l-.123.144c.052.051 1.272 1.297 2.925 1.586 1.61.282 2.71 1.58 2.96 2.72.126.555.331 2.242-.09 2.77a.38.38 0 0 1-.309.152c-.108 0-.243-.004-.397-.007-1.21-.035-3.724-.107-5.53 1.258l.145.107" fill="#050301"/><path d="M41.195 11.107c.037.057.935 1.423-.168 2.163-.482.325-.962.41-1.385.248-.405-.156-.728-.536-.84-.992-.2-.799.296-1.405.3-1.412l-.144-.12c-.024.028-.563.687-.339 1.578.128.513.494.944.955 1.121.337.13.88.19 1.56-.265.328-.222.532-.513.602-.868.147-.756-.363-1.526-.383-1.56l-.158.107" fill="#050301"/><path d="M39.142 11.055s-.697.896-.369 1.816c.327.92 1.724 1.138 2.544.307.82-.832-.164-2.123-.164-2.123h-2.011" fill="#fff"/><path d="M40.948 12.433s-.37.833-1.274.395c-.901-.438-.04-1.489.125-1.62.164-.132.534-.132.409.305-.122.438-.656 1.226.74.92" fill="#050301"/><path d="M38.647 11.012h5.769" fill="#e7ec19"/><path d="M38.647 11.107h5.769v-.19h-5.769v.19M13.796 23.211l.347-.36c1.19-1.234 1.439-1.491 2.181-2.977l-.202-.1c-.73 1.454-.943 1.677-2.14 2.92l-.35.36.164.157M22.833 20.005c-.01.013-.244.327.108.888l.191-.12c-.26-.418-.125-.623-.118-.633l-.181-.135" fill="#050301"/><path d="M14.975 21.726c-.02.049-.47 1.23.065 2.277.324.637.946 1.081 1.842 1.316l-.054-.186c-.063.069-1.545 1.7-1.108 3.244.259.922 1.147 1.601 2.634 2.02l-.07-.154c-.043.09-1.011 2.28-.043 3.719.56.835 1.657 1.232 3.256 1.175l-.115-.13c-.013.09-.291 2.148.914 3.126.771.628 1.965.655 3.545.083l-.15-.101c.004.067.103 1.614 1.315 2.374.942.585 2.27.521 3.954-.19l-.088-.21c-1.611.682-2.871.753-3.745.208-1.113-.693-1.21-2.18-1.21-2.193l-.009-.153-.143.05c-1.502.546-2.62.53-3.328-.044-1.107-.899-.834-2.897-.833-2.917l.02-.133-.135.004c-1.515.053-2.546-.309-3.061-1.075-.897-1.336.05-3.48.06-3.502l.052-.12-.124-.034c-1.409-.398-2.242-1.026-2.479-1.864-.404-1.424 1.042-3.015 1.057-3.03l.128-.14-.182-.046c-.832-.218-1.404-.622-1.7-1.2-.486-.957-.058-2.081-.054-2.092l-.21-.082" fill="#050301"/><path d="M33.127 30.248c-.012.022-1.274 2.197-1.92 5.964-.593 3.473-.775 9.05 1.748 15.906l.211-.076c-4.791-13.028.105-21.596.156-21.68l-.195-.114M50.606 39.709c.094.057 2.32 1.378 3.896.614.78-.38 1.255-1.204 1.411-2.45l-.221.023c.015.04.36 1.022 1.284 1.326.669.219 1.453.024 2.333-.582 2.135-1.473 1.339-4.234 1.33-4.261l-.158.132c.015.01 1.789.902 3.36-1.028 1.075-1.32-.152-4.238-.204-4.36l-.112.157c.037.001.922.04 1.615-.587.487-.436.747-1.078.789-1.913.133-2.579-2.138-2.932-2.162-2.936l-.028.225c.018.001 1.765.165 2.349-2.034.182-.686.127-1.284-.164-1.773-.446-.76-1.292-.978-1.331-.986l-.055.219c.008.001.797.206 1.195.885.253.433.303.972.136 1.598-.529 2.005-2.044 1.873-2.104 1.866l-.029.225c.083.012 2.089.33 1.969 2.7-.117 2.359-2.08 2.29-2.167 2.286l-.18-.01.07.166c.011.029 1.225 2.914.235 4.129-1.456 1.789-3.062.979-3.08.97l-.235-.124.076.258c.007.025.755 2.632-1.243 4.01-.817.563-1.536.749-2.132.552-.82-.268-1.141-1.176-1.144-1.184l-.218.023c-.146 1.165-.579 1.93-1.284 2.273-1.464.713-3.66-.59-3.68-.603l-.117.194M58.827 21.552c.01-.015.297-.336.485-.586l-.18-.135a10.84 10.84 0 0 1-.474.57l.17.151" fill="#050301"/><path d="M48.223 29.238c.031.068 3.117 6.944 2.206 11.541-.362 1.825-.852 3.805-1.323 5.717-.719 2.903-1.339 5.411-1.26 6.405l.223-.018c-.075-.955.542-3.448 1.256-6.331.474-1.917.96-3.898 1.325-5.73.927-4.668-2.187-11.606-2.221-11.678l-.206.094M35.617 64.987l.083-.093c.599-.693.802-.925 1.253-1.946l-.171-.075c-.443.995-.64 1.221-1.224 1.896l-.083.096.142.122M45.233 61.883c.003.076.089 1.92 1.521 3.414l.136-.13c-1.383-1.443-1.466-3.273-1.47-3.292l-.187.008M64.215 10.952h.003c-.008 0-.461.024-.834-.196l-.117.193c.435.258.94.231.961.228l-.013-.225M18.416 11.157c.305-.105.692-.205.784-.184l.05-.22c-.198-.045-.744.134-.907.19l.073.214" fill="#050301"/></svg>