<?xml version="1.0" encoding="UTF-8" standalone="no"?>
<!-- Created with Inkscape (http://www.inkscape.org/) -->

<svg
   xmlns:dc="http://purl.org/dc/elements/1.1/"
   xmlns:cc="http://creativecommons.org/ns#"
   xmlns:rdf="http://www.w3.org/1999/02/22-rdf-syntax-ns#"
   xmlns:svg="http://www.w3.org/2000/svg"
   xmlns="http://www.w3.org/2000/svg"
   xmlns:xlink="http://www.w3.org/1999/xlink"
   xmlns:sodipodi="http://sodipodi.sourceforge.net/DTD/sodipodi-0.dtd"
   xmlns:inkscape="http://www.inkscape.org/namespaces/inkscape"
   version="1.1"
   id="svg2"
   width="374.05704"
   height="465.85675"
   viewBox="0 0 374.05704 465.85675"
   sodipodi:docname="olomouc-gray.svg"
   inkscape:version="0.92+devel unknown">
  <metadata
     id="metadata8">
    <rdf:RDF>
      <cc:Work
         rdf:about="">
        <dc:format>image/svg+xml</dc:format>
        <dc:type
           rdf:resource="http://purl.org/dc/dcmitype/StillImage" />
        <dc:title></dc:title>
      </cc:Work>
    </rdf:RDF>
  </metadata>
  <defs
     id="defs6">
    <pattern
       inkscape:collect="always"
       xlink:href="#Checkerboard"
       id="pattern5928"
       patternTransform="matrix(10,0,0,10,-14.391275,18.446108)" />
    <pattern
       inkscape:stockid="Checkerboard"
       id="Checkerboard"
       patternTransform="translate(0,0) scale(10,10)"
       height="9"
       width="9"
       patternUnits="userSpaceOnUse"
       inkscape:collect="always"
       inkscape:isstock="true">
      <rect
         id="rect2051"
         height="4.5"
         width="4.5"
         y="0"
         x="0"
         style="fill:#ef1b24;stroke:none" />
      <rect
         id="rect2053"
         height="4.5"
         width="4.5"
         y="4.5"
         x="4.5"
         style="fill:#ef1b24;stroke:none" />
      <rect
         style="fill:#ffffff;stroke:none"
         x="0"
         y="4.5"
         width="4.5"
         height="4.5"
         id="rect6176" />
      <rect
         id="rect6178"
         height="4.5"
         width="4.5"
         y="0"
         x="4.5"
         style="fill:#ffffff;stroke:none" />
    </pattern>
    <filter
       style="color-interpolation-filters:sRGB;"
       inkscape:label="Greyscale"
       id="filter4330">
      <feColorMatrix
         values="0.21 0.72 0.072 0 0 0.21 0.72 0.072 0 0 0.21 0.72 0.072 0 0 0 0 0 1 0 "
         id="feColorMatrix4328" />
    </filter>
    <filter
       style="color-interpolation-filters:sRGB;"
       inkscape:label="Greyscale"
       id="filter4334">
      <feColorMatrix
         values="0.21 0.72 0.072 0 0 0.21 0.72 0.072 0 0 0.21 0.72 0.072 0 0 0 0 0 1 0 "
         id="feColorMatrix4332" />
    </filter>
    <filter
       style="color-interpolation-filters:sRGB;"
       inkscape:label="Greyscale"
       id="filter4338">
      <feColorMatrix
         values="0.21 0.72 0.072 0 0 0.21 0.72 0.072 0 0 0.21 0.72 0.072 0 0 0 0 0 1 0 "
         id="feColorMatrix4336" />
    </filter>
    <filter
       style="color-interpolation-filters:sRGB;"
       inkscape:label="Greyscale"
       id="filter4342">
      <feColorMatrix
         values="0.21 0.72 0.072 0 0 0.21 0.72 0.072 0 0 0.21 0.72 0.072 0 0 0 0 0 1 0 "
         id="feColorMatrix4340" />
    </filter>
    <filter
       style="color-interpolation-filters:sRGB;"
       inkscape:label="Greyscale"
       id="filter4346">
      <feColorMatrix
         values="0.21 0.72 0.072 0 0 0.21 0.72 0.072 0 0 0.21 0.72 0.072 0 0 0 0 0 1 0 "
         id="feColorMatrix4344" />
    </filter>
    <filter
       style="color-interpolation-filters:sRGB;"
       inkscape:label="Greyscale"
       id="filter4350">
      <feColorMatrix
         values="0.21 0.72 0.072 0 0 0.21 0.72 0.072 0 0 0.21 0.72 0.072 0 0 0 0 0 1 0 "
         id="feColorMatrix4348" />
    </filter>
    <filter
       style="color-interpolation-filters:sRGB;"
       inkscape:label="Greyscale"
       id="filter4354">
      <feColorMatrix
         values="0.21 0.72 0.072 0 0 0.21 0.72 0.072 0 0 0.21 0.72 0.072 0 0 0 0 0 1 0 "
         id="feColorMatrix4352" />
    </filter>
    <filter
       style="color-interpolation-filters:sRGB;"
       inkscape:label="Greyscale"
       id="filter4358">
      <feColorMatrix
         values="0.21 0.72 0.072 0 0 0.21 0.72 0.072 0 0 0.21 0.72 0.072 0 0 0 0 0 1 0 "
         id="feColorMatrix4356" />
    </filter>
    <filter
       style="color-interpolation-filters:sRGB;"
       inkscape:label="Greyscale"
       id="filter4362">
      <feColorMatrix
         values="0.21 0.72 0.072 0 0 0.21 0.72 0.072 0 0 0.21 0.72 0.072 0 0 0 0 0 1 0 "
         id="feColorMatrix4360" />
    </filter>
    <filter
       style="color-interpolation-filters:sRGB;"
       inkscape:label="Greyscale"
       id="filter4366">
      <feColorMatrix
         values="0.21 0.72 0.072 0 0 0.21 0.72 0.072 0 0 0.21 0.72 0.072 0 0 0 0 0 1 0 "
         id="feColorMatrix4364" />
    </filter>
    <filter
       style="color-interpolation-filters:sRGB;"
       inkscape:label="Greyscale"
       id="filter4370">
      <feColorMatrix
         values="0.21 0.72 0.072 0 0 0.21 0.72 0.072 0 0 0.21 0.72 0.072 0 0 0 0 0 1 0 "
         id="feColorMatrix4368" />
    </filter>
    <filter
       style="color-interpolation-filters:sRGB;"
       inkscape:label="Greyscale"
       id="filter4374">
      <feColorMatrix
         values="0.21 0.72 0.072 0 0 0.21 0.72 0.072 0 0 0.21 0.72 0.072 0 0 0 0 0 1 0 "
         id="feColorMatrix4372" />
    </filter>
    <filter
       style="color-interpolation-filters:sRGB;"
       inkscape:label="Greyscale"
       id="filter4378">
      <feColorMatrix
         values="0.21 0.72 0.072 0 0 0.21 0.72 0.072 0 0 0.21 0.72 0.072 0 0 0 0 0 1 0 "
         id="feColorMatrix4376" />
    </filter>
    <filter
       style="color-interpolation-filters:sRGB;"
       inkscape:label="Greyscale"
       id="filter4382">
      <feColorMatrix
         values="0.21 0.72 0.072 0 0 0.21 0.72 0.072 0 0 0.21 0.72 0.072 0 0 0 0 0 1 0 "
         id="feColorMatrix4380" />
    </filter>
    <filter
       style="color-interpolation-filters:sRGB;"
       inkscape:label="Greyscale"
       id="filter4386">
      <feColorMatrix
         values="0.21 0.72 0.072 0 0 0.21 0.72 0.072 0 0 0.21 0.72 0.072 0 0 0 0 0 1 0 "
         id="feColorMatrix4384" />
    </filter>
    <filter
       style="color-interpolation-filters:sRGB;"
       inkscape:label="Greyscale"
       id="filter4390">
      <feColorMatrix
         values="0.21 0.72 0.072 0 0 0.21 0.72 0.072 0 0 0.21 0.72 0.072 0 0 0 0 0 1 0 "
         id="feColorMatrix4388" />
    </filter>
    <filter
       style="color-interpolation-filters:sRGB;"
       inkscape:label="Greyscale"
       id="filter4394">
      <feColorMatrix
         values="0.21 0.72 0.072 0 0 0.21 0.72 0.072 0 0 0.21 0.72 0.072 0 0 0 0 0 1 0 "
         id="feColorMatrix4392" />
    </filter>
  </defs>
  <sodipodi:namedview
     pagecolor="#ffffff"
     bordercolor="#666666"
     inkscape:document-rotation="0"
     borderopacity="1"
     objecttolerance="10"
     gridtolerance="10"
     guidetolerance="10"
     inkscape:pageopacity="0"
     inkscape:pageshadow="2"
     inkscape:window-width="1848"
     inkscape:window-height="1056"
     id="namedview4"
     showgrid="false"
     inkscape:zoom="1.1826146"
     inkscape:cx="294.31696"
     inkscape:cy="336.08897"
     inkscape:window-x="72"
     inkscape:window-y="0"
     inkscape:window-maximized="1"
     inkscape:current-layer="layer3"
     showguides="true"
     inkscape:guide-bbox="true"
     fit-margin-top="0"
     fit-margin-left="0"
     fit-margin-right="0"
     fit-margin-bottom="0" />
  <g
     inkscape:groupmode="layer"
     id="layer4"
     inkscape:label="Backround"
     style="display:inline"
     transform="translate(-23.768809,-13.9075)"
     sodipodi:insensitive="true">
    <path
       style="opacity:1;fill:#004fa2;fill-opacity:1;stroke:#000000;stroke-width:3.55999994;stroke-linecap:round;stroke-linejoin:round;stroke-miterlimit:4;stroke-dasharray:none;stroke-opacity:1;filter:url(#filter4394)"
       d="m 25.648438,15.6875 v 271.90039 h 0.07617 c -4.511167,101.71185 78.330722,189.71463 185.037112,190.39258 105.23141,0.66857 190.56343,-87.16546 185.0293,-190.39258 V 15.6875 Z"
       id="rect6147"
       inkscape:connector-curvature="0" />
  </g>
  <g
     inkscape:groupmode="layer"
     id="layer1"
     inkscape:label="Eagle"
     style="display:inline;opacity:1"
     transform="translate(-23.768809,-13.9075)"
     sodipodi:insensitive="true">
    <g
       id="g6415"
       transform="translate(4.0126631,-5.7012436)"
       style="filter:url(#filter4390)">
      <path
         sodipodi:nodetypes="ccccccccccccccccccccccccccccccccccccccccccccccccccccccccccccccccccccc"
         inkscape:connector-curvature="0"
         id="path6408"
         d="m 335.45036,278.69302 c -2.88098,-0.002 -5.7739,1.29754 -7.43426,3.70231 -3.07176,4.22672 -4.84139,9.23161 -7.12715,13.87263 -1.58037,3.45469 -3.55828,6.97844 -6.89329,9.01519 -3.46403,1.89701 -7.51522,1.96804 -11.37095,2.03024 -8.19048,-0.10205 -18.60317,-1.96036 -26.57093,-3.72325 -4.28403,1.25774 -6.55005,4.63129 -7.90686,8.2669 0.22782,1.42806 0.19226,3.04563 1.00577,4.30133 1.586,1.32555 3.64325,1.98383 5.61775,2.5067 2.07044,0.36831 4.23039,0.36005 6.30587,0.0312 0.98925,-0.12642 1.75426,-0.85202 2.64597,-1.16839 4.288,0.26432 8.54661,1.00293 12.7739,1.61171 0.54677,0.0897 1.25458,0.0408 1.2582,0.78171 0.4447,1.65523 -1.08998,2.97331 -2.17967,3.98123 -3.62493,3.19314 -8.23873,5.23991 -11.29425,9.06668 -1.504,1.82074 -1.91696,4.45691 -0.86426,6.5989 1.50457,3.46088 3.59215,6.86698 6.7626,9.02904 0.7353,0.54246 2.20109,0.79384 2.40073,-0.41866 0.0768,-2.81495 -0.70004,-5.58385 -1.28094,-8.31944 -0.36518,-1.45432 -0.69151,-3.04015 -1.87361,-4.07832 1.57583,0.32627 1.7915,2.17827 2.83632,3.14696 1.07015,1.2076 2.73351,2.38454 4.40553,1.69189 2.19478,-0.66192 4.38705,-1.36617 6.54122,-2.13916 1.97738,-1.03935 2.00539,-3.58426 1.85448,-5.52432 -0.0605,-1.30149 -1.08749,-2.40219 -1.88134,-3.18987 1.82068,0.5316 3.61126,-0.51162 4.85779,-1.76807 2.89014,-1.90075 6.53352,-2.23881 9.90915,-2.03111 2.88069,0.5572 5.67411,1.53257 8.54369,2.16369 5.758,1.34194 11.50757,2.80449 17.36357,3.652 1.84533,0.30094 3.11474,-1.29498 4.25608,-2.46349 -0.79705,2.86564 -0.54349,6.1879 1.16343,8.68499 1.30543,1.75206 3.46607,3.12767 5.72328,2.80414 1.18937,0.0542 2.60573,-0.44168 2.84931,-1.75749 0.59442,-2.44355 1.18116,-4.89442 1.56487,-7.38143 -0.2317,1.68918 0.19868,3.49721 1.51259,4.66115 2.00739,2.03756 3.85497,4.48161 4.18661,7.40991 0.11957,0.93423 1.43825,1.24836 1.88426,0.36728 3.08104,-4.81323 3.42991,-11.35213 0.44055,-16.29678 -1.9128,-3.16726 -4.7997,-6.17549 -8.60485,-6.80253 -9.11633,-2.11621 -18.57039,-0.86877 -27.72837,-2.45725 -2.30084,-0.41946 -4.65791,-0.62994 -6.8011,-1.61932 -0.88714,-0.27819 -0.76363,-0.31582 0.0652,-0.14706 2.44003,0.56897 4.94471,1.21085 7.46464,0.74185 4.57554,-0.76038 8.82412,-2.8607 12.73963,-5.27499 2.81211,-1.93686 5.76508,-4.12236 7.2083,-7.31983 1.12285,2.12701 2.64028,4.16371 4.8975,5.17135 1.26529,0.56192 2.71283,1.57711 4.13638,1.00811 1.23156,-0.84763 1.33869,-2.52027 2.00398,-3.75315 0.66082,-1.28074 0.98454,-2.704 0.75468,-4.14094 -0.0771,-1.34527 -0.38376,-2.72134 -0.83236,-3.95596 1.50332,1.10231 3.27803,1.8075 4.64383,3.11477 1.34096,1.06849 2.47279,2.38777 3.84614,3.4092 0.93338,0.34754 1.32354,-0.72701 1.2189,-1.46122 0.0425,-4.03547 -1.15313,-8.40182 -4.41552,-11.02618 -3.95208,-3.33477 -9.7663,-3.38991 -14.33876,-1.37579 -3.65252,1.69277 -6.80374,4.26916 -10.1985,6.40285 -5.82289,3.84296 -11.77101,7.71885 -18.60536,9.45904 -1.50328,0.40229 -3.25697,0.79974 -4.72087,0.99001 2.97174,-1.86311 6.50171,-2.97325 8.86338,-5.6919 1.34374,-1.54543 3.01397,-3.1191 3.33438,-5.23616 0.0573,-0.59679 -0.0351,-1.21058 -0.28699,-1.75609 1.31998,0.8425 2.84076,1.72941 4.46804,1.26853 3.14719,-0.79036 5.36487,-4.12152 5.1915,-7.30582 -0.34733,-1.69607 -2.18715,-2.34081 -3.37994,-3.33964 1.66873,1.03519 3.52761,1.72075 5.30098,2.55137 1.4294,0.61038 3.16712,0.23898 4.31768,-0.74564 0.19522,-1.07595 -0.65575,-2.02731 -1.10796,-2.95748 -2.32345,-4.03 -6.68632,-6.94403 -11.42058,-6.86817 z"
         style="opacity:1;fill:#fff700;stroke:none;stroke-width:0.37569979;stroke-linecap:round;stroke-linejoin:round" />
      <path
         inkscape:connector-curvature="0"
         d="m 270.21662,311.77054 -0.46617,-3.7321 c 0.75751,1.55026 2.50563,4.24885 4.37027,4.76561 1.98118,0.63158 4.66161,1.09092 6.81762,1.49284 1.22367,0.22966 -1.10713,0.63159 -1.45676,0.689 -1.39849,0.22967 -9.03188,-1.43542 -9.26496,-3.21535 z"
         id="path180"
         style="fill:#000000;fill-rule:evenodd;stroke-width:0.05784202" />
      <path
         sodipodi:nodetypes="cccsccccccccsccsccccccccccccccccccccccccccc"
         inkscape:connector-curvature="0"
         d="m 268.85456,314.64816 0.17481,1.60768 c -1.03005,2.4625 6.62303,5.14142 14.32322,2.38555 4.75872,-0.0423 13.76836,0.6203 13.76836,1.88348 0,1.60767 -2.76529,2.59335 -6.78594,5.57904 -5.24432,3.84693 -10.91534,10.32545 -7.24432,16.87099 1.5733,2.75601 10.08075,10.1628 13.63524,7.17712 -3.7293,-0.74643 -3.14659,-6.25451 -3.20487,-8.95312 2.33082,2.0096 7.67287,0.64119 11.16908,-2.28708 3.55448,-2.98568 1.98119,-5.28629 3.08833,-8.50164 0.40788,-1.09093 5.29541,-2.52957 6.87759,-3.08237 3.48315,-1.67982 24.40307,8.24989 32.38609,5.2068 -2.38908,4.53594 4.71791,10.36094 7.57071,10.24289 3.98533,-0.1649 3.16333,-1.37801 5.20279,-6.66038 3.9041,0.9761 5.01565,7.95829 4.31641,11.97748 5.30259,-3.10051 7.34205,-9.4738 7.34205,-13.60782 0,-6.60295 -3.72929,-12.63173 -10.25556,-14.12457 -10.3721,-2.35409 -24.09253,-1.49284 -34.87253,-2.64117 1.28195,0.11482 -2.44735,0.0574 -0.99059,0.45933 2.156,0.63159 9.40844,1.89475 15.00238,2.00959 7.69167,0.22967 13.63523,0.17225 19.81187,1.89476 4.19546,1.20576 13.34389,10.67955 5.71049,22.62228 0,-4.13403 -2.56389,-7.06228 -4.77816,-9.18672 -1.98119,-1.89475 -0.9906,-6.54552 1.45676,-8.32545 -4.54508,0.74642 -3.67103,5.51202 -4.54508,8.03837 -1.16541,3.50244 -0.0114,5.05487 -3.6824,4.94003 -2.21427,-0.0574 -4.25909,-1.72468 -5.13314,-3.67685 -1.16541,-2.52635 -1.45675,-7.69388 1.51502,-9.58864 -3.37967,0.51676 -3.96237,4.36369 -6.46799,4.19144 -3.26313,-0.17225 -21.61183,-4.47377 -24.87497,-5.62211 -3.03005,-1.0335 -10.48461,0.1675 -12.29099,2.40676 -1.22368,1.49284 -4.48681,2.06701 -5.53567,-0.28708 -1.34022,2.75601 3.84583,2.23926 2.79697,7.75129 -0.52443,2.92826 -1.5733,2.53028 -3.78756,3.21928 -4.19546,1.26317 -4.93416,2.63158 -7.49806,0.22008 -2.09772,-1.95218 -0.50274,-3.85651 -6.35145,-4.13796 2.09773,1.20575 3.08832,2.29667 3.43794,3.55985 0.75752,3.21535 1.68984,6.31587 1.80638,10.1628 -3.37967,-0.0574 -7.28378,-7.17712 -8.15783,-9.8183 -2.5639,-7.75129 13.56409,-11.71306 14.78776,-17.68442 0.17481,-0.80384 -0.46616,-2.18185 -0.46616,-2.18185 -0.0482,-0.0408 -13.57592,-2.22024 -14.79108,-1.88205 -4.20994,3.4254 -13.74732,0.2517 -14.4659,-2.15731 z"
         id="path182"
         style="fill:#000000;fill-rule:evenodd;stroke-width:0.05784202" />
      <path
         sodipodi:nodetypes="cccccccccscccccccccccccc"
         inkscape:connector-curvature="0"
         d="m 318.87964,309.72336 -2.77149,0.17408 c 1.70251,-0.39666 2.94261,-0.98037 4.4051,-1.38006 10.76113,-2.86092 16.95045,-7.36858 26.69914,-14.06149 5.22367,-3.51628 12.62152,-7.71596 18.8941,-4.93265 6.9443,3.09845 10.66732,14.19885 5.86519,19.26765 -1.94188,-3.96918 -5.95283,-7.57419 -7.82559,-7.13787 1.10829,3.98652 -0.34541,8.99659 -3.1232,10.85896 -3.66566,0.12286 -7.0221,-1.46632 -8.89972,-4.38928 -1.79812,3.8383 -15.2371,9.55008 -19.15288,10.4624 -5.22101,1.21642 -9.50358,-1.49994 -13.50878,-2.51229 3.13429,-0.67131 5.5644,5.6e-4 7.81124,0.65618 7.13309,2.1112 24.77976,-7.88236 24.16257,-13.86987 1.43753,2.31805 2.07216,4.52838 4.94612,6.33488 5.53558,2.79334 3.96372,1.34911 6.32844,-3.43326 0.56,-1.19166 0.0444,-4.43195 -0.65164,-6.39215 -0.38709,-1.14786 -1.02349,-1.82496 -1.33617,-3.16703 -0.19542,-0.83878 -0.068,-1.57592 0.42131,-2.04366 1.10718,1.15696 0.90272,4.38815 2.80905,5.1231 2.81808,1.05311 5.9303,4.39588 7.77435,6.14758 0.15988,-2.39545 -0.10534,-3.27693 -0.29147,-4.58952 -1.53008,-9.13523 -11.44594,-12.66149 -20.77507,-6.47902 -7.71317,5.15749 -16.45802,11.79338 -25.42922,14.11934 -1.9295,0.44955 -4.64049,1.14011 -6.35138,1.24398 z"
         id="path184"
         style="fill:#000000;fill-rule:evenodd;stroke-width:0.05784202" />
      <path
         sodipodi:nodetypes="cccccccccccccccccccsccc"
         inkscape:connector-curvature="0"
         d="m 276.42951,302.71179 -1.98523,1.19765 c 8.7823,2.4087 31.32314,6.60536 39.43796,2.30134 4.88697,-2.60107 7.00043,-8.11296 9.21679,-12.99089 1.70264,-3.71863 3.52185,-8.14968 6.04693,-11.12576 4.20412,-4.85697 14.59068,-3.32678 18.19317,6.05609 -2.2951,1.36942 -3.24661,0.61207 -4.69507,-0.15054 -3.11952,-1.62854 -6.15602,-1.6404 -5.59509,-6.47522 -1.01691,0.79045 -1.45273,1.12921 -0.63143,3.94538 0.68284,2.25589 4.17081,2.83804 4.54749,4.41072 0.51511,2.13293 -1.52044,6.82426 -5.51216,6.91006 -2.0233,0.0527 -3.59968,-2.79836 -5.80748,-1.70405 1.34554,0.12866 1.97098,1.18554 2.08326,2.36493 0.11172,2.21621 -4.33954,6.42837 -5.44998,7.1303 -3.00234,2.04331 -6.98995,3.09881 -8.2476,5.14418 13.44643,-5.66158 14.42165,-8.69183 14.76253,-12.41135 1.43851,1.25397 3.89081,1.5357 5.96017,-0.11888 2.32437,-1.80674 3.48771,-4.78373 4.04437,-7.72674 1.25769,1.44059 6.28254,0.4366 5.75178,-2.60541 -1.45751,-7.71074 -8.55395,-12.6735 -15.85143,-10.06421 -8.55944,3.06052 -10.36162,11.6929 -13.11474,18.53109 -4.99563,12.33526 -15.83421,11.27157 -26.41408,9.20074 -7.53399,-1.51355 -11.41968,-0.612 -16.74016,-1.81943 z"
         id="path186"
         style="fill:#000000;fill-rule:evenodd;stroke-width:0.05784202" />
    </g>
    <g
       id="g6455"
       transform="translate(4.0126631,-5.7012436)"
       style="filter:url(#filter4386)">
      <path
         inkscape:connector-curvature="0"
         id="path6448"
         d="m 82.322774,280.27006 c -4.678413,0.0865 -8.914263,3.26108 -11.128017,7.2527 -0.783543,1.47617 1.201526,2.30381 2.356322,2.43146 2.478121,-0.18587 4.812489,-1.28701 7.115623,-2.16185 0.364886,-0.12333 1.143724,-0.7959 0.437243,-0.21305 -1.315224,1.07055 -3.458088,1.39177 -4.141214,3.083 -0.702575,3.5592 1.683676,7.74059 5.426104,8.2304 1.20478,0.10802 2.459553,-0.70107 3.41991,-0.98885 -1.352,2.23348 0.377904,4.76802 1.693493,6.5636 2.198614,3.06848 5.457243,5.03036 8.484895,7.16186 -6.461423,-1.8354 -12.140008,-5.64597 -17.220868,-9.90661 -4.456799,-3.46725 -8.377812,-7.63068 -13.140059,-10.69417 -3.407792,-2.03009 -7.709172,-2.69505 -11.530165,-1.57887 -4.901234,1.56263 -7.788533,6.57933 -8.401365,11.45722 -0.481706,0.9472 0.444098,2.25567 1.451721,1.52877 2.525745,-1.83204 5.05438,-3.73786 8.026442,-4.79109 0.40108,-0.21337 0.778967,-0.47533 1.101158,-0.79686 -1.303035,2.47869 -2.420536,5.36335 -1.428574,8.16145 0.488786,1.39928 0.470151,3.18898 1.607353,4.24361 1.709501,0.7249 3.593043,-0.26118 5.180441,-0.92321 1.902938,-0.88247 3.440665,-2.68155 4.57887,-4.19117 0.944729,3.53783 3.846391,6.13607 6.516513,8.45145 3.836668,3.02478 8.129132,5.76457 12.944306,6.8599 2.146149,0.21455 4.307786,0.0269 6.45914,0.009 -4.548858,0.9194 -9.173953,0.64837 -13.802671,1.06455 -5.899915,0.39457 -11.80088,-0.4173 -17.743642,-0.48403 -3.596096,-0.0748 -7.399917,0.88627 -9.891103,3.64116 -4.212191,3.97688 -6.038189,10.38244 -4.060555,15.89802 0.582467,1.47112 0.885126,3.35744 2.286479,4.27755 1.355791,0.36591 1.383258,-1.32491 1.584645,-2.19447 0.746422,-2.7927 2.931815,-4.76255 4.662272,-6.94841 0.951982,-1.25302 0.950739,-2.94708 0.607764,-4.41578 0.595811,2.79848 1.00066,5.65804 1.862514,8.39143 0.854978,1.93907 3.417276,1.65785 5.089607,1.14864 4.0935,-1.41018 5.573185,-6.41047 4.654016,-10.31753 -0.181107,-0.68389 -0.483466,-1.43804 0.227735,-0.50355 0.963458,1.44382 2.6246,2.26819 4.360632,2.04815 7.729534,-0.43729 15.477934,-0.96081 23.133412,-2.14575 2.970564,-0.86628 6.109989,-0.83424 9.080089,-0.0813 2.01084,0.36174 3.71726,1.50781 5.2775,2.75723 0.99188,0.58817 2.21931,0.8915 3.34972,0.55822 -1.5363,1.38822 -2.56231,3.46301 -1.97235,5.55286 0.10665,1.73883 1.30949,3.33383 3.08135,3.6185 1.92835,0.38321 3.74294,1.6695 5.74444,1.48473 1.93518,-0.89061 2.90927,-2.91603 4.17879,-4.48762 0.2695,-0.30852 1.72901,-0.93144 0.9104,-0.26714 -1.79732,1.75289 -1.72841,4.48779 -2.39132,6.75935 -0.27564,1.82876 -0.88211,3.72225 -0.57277,5.56685 0.84141,1.29573 2.55923,0.179 3.39308,-0.57555 2.69788,-2.55324 4.89283,-5.77624 6.01281,-9.3324 0.62673,-2.2851 -0.0479,-4.83345 -1.90298,-6.36169 -3.10672,-3.23045 -7.55928,-4.84574 -10.31133,-8.42405 -0.48215,-0.73009 -0.63286,-1.98418 -0.0529,-2.60983 3.6952,-0.63696 7.39887,-1.23951 11.15403,-1.32618 2.43771,0.15247 4.6221,1.45984 7.03859,1.79447 2.62992,0.47395 5.42289,1.18873 8.05888,0.42642 0.89473,-1.14405 0.7581,-2.80818 1.22132,-4.15792 0.25857,-0.82565 0.70163,-2.63378 -0.74196,-2.43623 -0.61471,0.15977 -1.46878,0.62738 -0.56648,-0.0182 0.82748,-0.5465 1.35289,-1.69813 0.31283,-2.33463 -1.73086,-1.65705 -3.22069,-3.65175 -5.10274,-5.09704 -3.33822,0.34622 -6.75207,1.03942 -10.15706,1.32107 -7.68982,0.67774 -15.4709,1.49209 -23.05848,-0.21105 -3.76709,-0.76111 -6.83822,-3.56368 -8.332782,-7.04931 -3.064877,-6.52128 -4.237717,-13.86618 -7.974025,-20.09774 -1.772976,-2.52798 -4.994966,-3.81193 -8.032634,-3.62511 -0.141489,-1.8e-4 -0.282958,0.004 -0.424445,0.004 z"
         style="opacity:1;fill:#fff700;stroke:none;stroke-width:0.53131974;stroke-linecap:round;stroke-linejoin:round" />
      <path
         style="fill:#000000;fill-rule:evenodd;stroke-width:0.05784202"
         id="path6431"
         d="m 146.81639,316.83578 0.46617,-3.7321 c -0.75751,1.55026 -2.50563,4.24885 -4.37027,4.76561 -1.98118,0.63158 -4.66161,1.09092 -6.81762,1.49284 -1.22367,0.22966 1.10713,0.63159 1.45676,0.689 1.39849,0.22967 9.03188,-1.43542 9.26496,-3.21535 z"
         inkscape:connector-curvature="0" />
      <path
         style="fill:#000000;fill-rule:evenodd;stroke-width:0.05784202"
         id="path6433"
         d="m 145.4303,322.85956 -0.17481,1.39628 c 1.03005,2.43587 -6.62303,0.32145 -14.32322,-1.4559 -4.75872,-0.0423 -11.6529,0.18695 -11.6529,1.45013 0,1.60767 2.01599,2.99707 6.03664,5.98276 5.24432,3.84693 9.54918,8.19653 5.87816,14.74207 -1.5733,2.75601 -10.08075,10.1628 -13.63524,7.17712 3.7293,-0.74643 3.14659,-6.25451 3.20487,-8.95312 -2.33082,2.0096 -6.0874,1.06398 -9.58361,-1.86429 -3.55448,-2.98568 -1.98119,-5.28629 -3.08833,-8.50164 -0.40788,-1.09093 -5.29541,-2.52957 -6.87759,-3.08237 -3.48315,-1.67982 -24.93156,5.19291 -32.91458,2.14982 2.38908,4.53594 -4.71791,10.36094 -7.57071,10.24289 -3.98533,-0.1649 -3.16333,-1.37801 -5.20279,-6.66038 -3.9041,0.9761 -5.01565,7.95829 -4.31641,11.97748 -5.30259,-3.10051 -7.34205,-9.4738 -7.34205,-13.60782 0,-6.60295 3.72929,-12.63173 10.25556,-14.12457 10.3721,-2.35409 23.03555,1.14135 33.81555,-0.007 -1.28195,0.11482 2.44735,0.0574 0.99059,0.45933 -2.156,0.63159 -8.407167,1.05113 -14.001107,1.16597 -7.69167,0.22967 -13.579523,-1.61832 -19.756163,0.10419 -4.19546,1.20576 -13.34389,10.67955 -5.71049,22.62228 0,-4.13403 2.56389,-7.06228 4.77816,-9.18672 1.98119,-1.89475 0.9906,-6.54552 -1.45676,-8.32545 4.54508,0.74642 3.67103,5.51202 4.54508,8.03837 1.16541,3.50244 0.0114,5.05487 3.6824,4.94003 2.21427,-0.0574 4.25909,-1.72468 5.13314,-3.67685 1.16541,-2.52635 1.45675,-7.69388 -1.51502,-9.58864 3.37967,0.51676 3.96237,4.36369 6.46799,4.19144 3.26313,-0.17225 22.14032,-1.41679 25.40346,-2.56513 3.03005,-1.0335 10.48461,0.1675 12.29099,2.40676 1.22368,1.49284 4.48681,2.06701 5.53567,-0.28708 1.34022,2.75601 -3.84583,2.23926 -2.79697,7.75129 0.52443,2.92826 1.5733,2.53028 3.78756,3.21928 4.19546,1.26317 3.34869,2.20879 5.91259,-0.20271 2.09772,-1.95218 0.50274,-3.85651 6.35145,-4.13796 -2.09773,1.20575 -3.08832,2.29667 -3.43794,3.55985 -0.75752,3.21535 -1.68984,6.31587 -1.80638,10.1628 3.37967,-0.0574 7.28378,-7.17712 8.15783,-9.8183 2.5639,-7.75129 -11.44863,-9.98786 -12.6723,-15.95922 -0.17481,-0.80384 0.46616,-2.18185 0.46616,-2.18185 0.0482,-0.0408 11.46046,-1.78689 12.67562,-1.4487 3.68314,1.69611 13.6184,3.82851 14.4659,1.84269 z"
         inkscape:connector-curvature="0"
         sodipodi:nodetypes="cccsccccccccsccscccccccccccccccccccccccccccc" />
      <path
         style="fill:#000000;fill-rule:evenodd;stroke-width:0.05784202"
         id="path6435"
         d="m 98.214042,313.0208 2.729258,0.51243 c -1.641058,-0.60232 -2.800273,-1.33362 -4.202753,-1.90953 -10.329385,-4.15819 -15.919606,-9.39041 -24.77455,-17.22763 -4.75335,-4.12997 -11.580736,-9.20464 -18.147142,-7.21105 -7.271685,2.22402 -12.327061,12.78446 -8.182344,18.40358 2.413689,-3.70126 6.836219,-6.78753 8.641387,-6.12498 -1.588507,3.82064 -0.759781,8.9711 1.768824,11.15986 3.62297,0.57119 7.148871,-0.59466 9.370564,-3.26547 1.314158,4.02973 13.951816,11.34548 17.726267,12.73083 5.032572,1.84712 9.615764,-0.32391 13.714841,-0.83777 -3.028389,-1.05037 -5.522522,-0.68139 -7.832774,-0.30608 -7.338059,1.22108 -23.626929,-10.85985 -22.280586,-16.72658 -1.710784,2.12439 -2.61152,4.24028 -5.685212,5.68094 -5.836191,2.09387 -4.099182,0.85317 -5.859967,-4.18296 -0.409733,-1.25131 0.499098,-4.40398 1.430125,-6.2641 0.524849,-1.09177 1.239434,-1.68577 1.714236,-2.9794 0.296745,-0.80851 0.260626,-1.55571 -0.167671,-2.07989 -1.240626,1.01254 -1.433709,4.24443 -3.415741,4.74021 -2.925901,0.6998 -6.424337,3.63595 -8.469167,5.14845 0.134902,-2.39699 0.506153,-3.23932 0.851746,-4.51921 2.638124,-8.87884 12.911399,-11.16327 21.412502,-3.88406 7.022944,6.0639 14.888603,13.7215 23.507113,17.12941 1.85986,0.68263 4.465781,1.70023 6.151044,2.013 z"
         inkscape:connector-curvature="0"
         sodipodi:nodetypes="cccccccccscccccccccccccc" />
      <path
         style="fill:#000000;fill-rule:evenodd;stroke-width:0.05784202"
         id="path6437"
         d="m 139.41995,308.89983 1.96541,1.51093 c -8.9969,1.40935 -31.07331,4.7682 -38.65469,-0.41809 -4.564704,-3.13234 -6.047166,-8.84635 -7.702924,-13.94193 -1.27519,-3.88601 -2.586379,-8.49302 -4.762042,-11.73332 -3.633346,-5.29751 -14.12596,-4.94092 -18.757241,3.97914 2.12718,1.61799 3.157568,0.97204 4.682366,0.37656 3.282371,-1.2687 6.301073,-0.9402 6.285486,-5.80743 0.921924,0.89943 1.317035,1.2849 0.185317,3.99129 -0.931343,2.16516 -4.46258,2.35277 -5.013129,3.87333 -0.75089,2.06177 0.746108,6.95166 4.703069,7.48425 2.00465,0.2791 3.890602,-2.37734 5.961862,-1.04251 -1.351483,-0.0229 -2.091422,0.9572 -2.335162,2.11658 -0.359374,2.18973 3.591816,6.87418 4.6166,7.69613 2.754446,2.36689 6.598654,3.86261 7.61917,6.03604 -12.727271,-7.13278 -13.356765,-10.25323 -13.278673,-13.98752 -1.569974,1.08486 -4.038399,1.09 -5.909305,-0.78606 -2.107258,-2.05583 -2.929656,-5.14444 -3.153004,-8.1313 -1.411206,1.29058 -6.291893,-0.27019 -5.423576,-3.23356 2.312426,-7.49884 9.920313,-11.63508 16.879418,-8.22444 8.16255,4.00045 8.985997,12.78041 10.95546,19.88405 3.581828,12.8174 14.471328,12.97502 25.216628,12.10286 7.65614,-0.65973 10.49669,-1.14141 15.91896,-1.745 z"
         inkscape:connector-curvature="0"
         sodipodi:nodetypes="cccccccccccccccccccsccc" />
    </g>
    <path
       style="opacity:1;fill:url(#pattern5928);fill-opacity:1;fill-rule:evenodd;stroke:#000000;stroke-width:2.25999999;stroke-miterlimit:4;stroke-dasharray:none;stroke-opacity:1;filter:url(#filter4382)"
       d="m 269.74118,41.142506 c -5.56339,0.01166 -10.40767,2.318252 -13.78907,8.716797 -10.69961,20.757124 47.8611,51.446597 10.64258,63.773437 6.08686,7.07174 15.55322,5.47312 25.10742,-1.57226 6.66741,58.98499 -35.00449,19.01716 -48.18164,37.22851 l -0.13086,0.12305 c -1.25467,-4.96531 -1.8465,-9.77475 -1.27539,-14.31445 1.15191,-6.09337 7.3023,-11.73054 8.88672,-20.96875 2.43517,-14.198624 2.06881,-12.88092 0.22656,-21.724615 3.1526,1.79217 3.88404,0.96289 7.40039,0.96289 3.33447,0 8.61021,-3.82461 9.45899,-6.453125 -10.06405,1.672692 -15.08456,-4.387074 -22.05664,-13.945312 -2.60695,-3.524601 -9.94287,-12.067951 -13.27735,-12.904297 l -3.51757,0.179687 -34.6836,0.146485 c -7.89966,9.794606 -1.60289,2.96333 -6.33594,10.583984 -6.97208,9.558238 38.10898,24.959799 28.04493,23.28711 0.84878,2.628509 -11.90088,11.789063 -8.56641,11.789063 3.51635,0 2.01144,6.65367 4.45313,10.14649 -20.22353,28.65721 -35.81552,-10.29255 -47.20508,18.58203 12.0595,-8.38234 21.65181,5.541 30.14258,3.57617 -9.07524,5.22527 -14.19092,10.26392 -17.5,15.34961 l -0.71485,-0.25391 c -13.21314,-18.19978 -60.8446,16.07436 -45.55078,-45.68359 6.00415,8.10312 14.8293,14.84829 20.30859,8.91406 -29.08033,-20.345584 21.50949,-44.652393 10.24415,-65.333986 -18.5996,-27.522553 -57.60003,24.196198 -58.74805,-1.96875 0.33041,2.305643 -12.698599,16.447671 11.8125,17.75 -24.329319,2.009788 -33.031135,59.626216 -61.478515,46.798836 -1.257719,16.17642 5.989538,25.21784 16.054688,22.97265 10.91277,-2.43426 24.694359,-20.45664 29.025391,-26.59179 0.478193,-0.71693 0.950671,-1.41953 1.40039,-2.05079 -0.124211,0.21436 -0.664111,1.0078 -1.40039,2.05079 -8.705156,13.05113 -21.902388,39.36525 -31.640625,45.91211 -6.14716,4.13263 -13.264506,1.92978 -16.166016,-0.6836 -3.60266,9.37841 2.553905,18.75851 11.234375,22.42383 5.66915,2.3938 15.244773,-0.70699 20.376953,-5.62695 8.84558,-8.47981 12.18687,-14.53972 19.630859,-23.01954 -4.86157,10.82983 -21.266327,49.74932 -29.523437,52.8711 -7.23885,2.7368 -18.899467,-0.27876 -20.373047,-2.09961 -8.6595,30.32985 25.32713,34.61285 40.818359,15.77539 8.253835,-10.03671 19.395535,-30.98441 25.990235,-42.04883 -3.77949,28.87176 -37.816761,92.59157 -62.931641,64.76953 -4.15223,12.38161 5.930298,26.98047 17.898438,26.98047 19.23452,0 30.683253,-5.84227 40.873043,-17.79492 7.5657,-8.8746 21.61639,-44.97798 24.98047,-56.33789 0.23154,-1.11424 0.46718,-2.06578 0.71484,-2.73828 -0.10124,0.58657 -0.37076,1.57638 -0.71484,2.73828 -3.15707,15.19269 -5.40717,68.25047 -22.90625,73.18555 2.99292,7.89276 20.05174,8.30254 30.78516,-0.78907 11.84447,-10.03267 13.96808,-34.99875 15.04687,-53.20312 -0.0236,-4.32187 0.17189,-8.6819 0.8418,-13.10742 -0.31588,3.50917 -0.54538,8.10543 -0.8418,13.10742 0.0987,18.05294 4.1196,35.43162 -5.66602,54.05273 8.87004,-0.70437 12.86378,-3.5538 18.98438,-14.13672 l 0.0273,-0.0137 c 0.65827,4.23575 0.36561,8.61164 -2.00195,14.35938 -3.05854,7.42523 -8.03368,14.38604 -13.70117,19.32226 -10.12468,6.57129 -17.18449,10.43243 -27.27344,3.40039 3.83359,8.80776 9.70073,15.67996 18.29492,19.79493 -4.93003,13.78269 -3.37185,30.15467 5.7168,40.89453 1.13878,-12.53241 5.36697,-20.42859 12.94531,-26.70117 3.15232,-2.64599 11.32132,-9.09978 16.98633,-15.2168 9.5797,17.14218 14.76835,62.56307 -5.81836,41.73633 -8.70726,11.09642 6.86025,27.68004 17.64258,14.9414 0.45761,-0.48818 0.58615,31.19176 -13.50977,28.75977 -16.24532,-2.80283 -13.27703,-20.45369 -10.6582,-21.39258 -7.10708,0.29348 -9.21745,1.82643 -10.26172,11.27148 -27.10199,-7.02928 -57.75756,25.31011 -33.89844,51.76172 -1.21054,-36.41429 21.89832,-2.86232 37.95899,1.00586 15.00975,3.61507 25.73783,-7.9868 36.60742,-21.02929 -3.09134,9.71543 -6.37208,19.42029 -21.07422,28.55078 6.7846,2.1937 13.34312,2.99709 19.33399,0.29883 -1.0906,16.95301 4.11269,17.91233 7.27148,22.72851 3.15879,-4.81618 8.36208,-5.7755 7.27149,-22.72851 5.99087,2.69828 12.54938,1.89487 19.33398,-0.29883 -14.70214,-9.13049 -17.98288,-18.83535 -21.07422,-28.55078 8.615,11.57102 21.22692,23.17956 39.86914,21.47265 16.76817,-1.53531 30.23333,-37.78427 36.59961,-1.36719 18.02956,-43.15598 -8.69879,-58.87303 -35.80078,-51.84375 -4.33722,-11.83363 -10.40246,-10.52132 -16.94141,-10.17773 3.02348,0.40759 12.02095,18.19769 -4.49609,20.88867 -17.05406,2.77847 -14.92678,-29.22234 -13.90039,-28.80078 12.4928,13.4479 25.22272,-4.1262 15.52148,-15.63476 -22.96047,15.59537 -9.01346,-27.79505 0.33399,-41.45313 4.2852,5.92032 9.35396,11.65381 11.97461,13.85352 7.57834,6.27259 8.97512,19.41012 10.0664,26.33984 9.08865,-10.73986 16.96519,-25.16262 12.03516,-38.94531 8.59419,-4.11497 12.58242,-12.90709 16.41602,-21.71485 -10.08896,7.03204 -18.00032,5.98926 -28.125,-0.58203 -7.69962,-5.01808 -17.25866,-19.39196 -18.2129,-26.73242 -0.28117,-2.16293 -0.46107,-3.98426 -0.56836,-5.60938 5.69533,10.56374 14.16124,12.93009 23.89649,11.54883 -13.02183,-21.3039 -7.18146,-41.84381 -8.24023,-62.66406 -0.16924,-2.12316 -0.328,-4.18119 -0.48047,-5.875 0.24292,1.96129 0.38102,3.91951 0.48047,5.875 1.45739,18.28426 4.09301,50.3557 17.62109,61.81445 10.73342,9.09161 26.81567,7.82831 29.80859,-0.0644 -19.53983,-5.84834 -19.65947,-62.74245 -22.28515,-71.85742 1.28232,5.79565 16.23553,43.33625 24.10742,54.4043 9.10333,12.79949 22.86704,19.2539 42.10156,19.2539 11.96814,0 25.90614,-13.84104 21.75391,-26.22265 -23.38922,28.52387 -66.59648,-35.86213 -71.38086,-65.14258 6.5947,11.06442 23.64461,32.98282 31.89844,43.01953 15.49123,18.83746 54.55012,8.99 45.89062,-21.33985 -1.47358,1.82086 -14.04578,13.55328 -21.10547,10.38282 -7.19715,-3.23219 -31.29737,-47.98208 -37.95312,-58.625 7.44399,8.47981 13.86926,17.74675 22.71484,26.22656 5.13218,4.91996 15.08671,8.07153 20.75586,5.67773 8.68047,-3.66532 16.12024,-14.80713 12.51758,-24.18554 -2.90151,2.61338 -10.02862,6.80646 -16.17578,2.67383 -10.27318,-6.90649 -30.31861,-36.27632 -34.22657,-43.96875 0.85486,1.47526 17.06148,19.28488 29.65039,22.84179 8.91261,2.51819 21.15433,-4.24063 22.61329,-21.06054 -29.57775,13.00104 -44.99979,-44.393279 -65.62891,-48.35743 20.7338,-3.15205 11.95278,-13.35647 12.2832,-15.66211 -7.68509,13.733387 -33.54302,-10.715845 -51.71675,-10.677754 z M 174.60055,370.42376 c 0.1386,-0.006 0.24817,-0.0206 0.39063,-0.0254 -0.12732,-0.0412 -0.25907,-0.0218 -0.39063,0.0254 z"
       id="path4360"
       inkscape:connector-curvature="0" />
    <path
       id="path6459"
       style="opacity:1;fill:none;fill-rule:evenodd;stroke:#000000;stroke-width:1.86000001;stroke-miterlimit:4;stroke-dasharray:none;stroke-opacity:1;filter:url(#filter4378)"
       d="m 229.99415,292.79672 c 0.78815,6.92972 14.32446,23.45264 19.23523,27.57463 7.57834,6.27259 8.97527,19.4103 10.06655,26.34002 9.08865,-10.73986 16.96471,-25.16229 12.03468,-38.94498 8.59419,-4.11497 12.58376,-12.9084 16.41735,-21.71616 -10.08895,7.03204 -18.00144,5.99071 -28.12612,-0.58058 -7.6996,-5.01808 -17.25759,-19.39265 -18.21183,-26.73311 -1.91421,-14.72487 0.41772,-14.84425 4.02978,-29.53146 1.17749,-4.78787 6.06289,-23.92606 6.54363,-26.19705 1.58057,-7.46647 4.18797,-21.18076 0.73225,-28.52865 -5.57976,-13.62049 -12.10537,-27.43348 -10.60228,-39.38128 1.15191,-6.09337 7.30292,-11.73169 8.88734,-20.9699 2.43517,-14.198624 2.06968,-12.88077 0.22743,-21.724464 3.1526,1.79217 3.88402,0.962847 7.40037,0.962847 3.33447,0 8.609,-3.8233 9.45778,-6.451815 -10.06405,1.672692 -15.0849,-4.388499 -22.05698,-13.946737 -2.60695,-3.524601 -9.94279,-12.067276 -13.27727,-12.903622 v -4e-5 l -3.51635,0.179217 -34.68482,0.146302 m -1.77275,236.787442 c -0.78815,6.92972 -17.90881,20.29723 -22.81958,24.41922 -7.57834,6.27259 -11.80774,14.167 -12.94652,26.69941 -9.08865,-10.73986 -10.64685,-27.11083 -5.71682,-40.89352 -8.59419,-4.11497 -14.46143,-10.98746 -18.29502,-19.79522 10.08895,7.03204 17.14873,3.17099 27.27341,-3.4003 5.66749,-4.93622 10.64247,-11.89612 13.70101,-19.32135 5.65539,-13.72962 -0.44103,-19.64216 -3.38646,-34.47744 -2.87775,-14.49443 -7.30515,-42.11198 -2.03741,-54.58316 5.72727,-13.55912 4.84156,-24.9798 26.53394,-37.46966 -8.49077,1.96483 -18.08325,-11.95873 -30.14275,-3.57639 11.38956,-28.87458 26.98241,10.07464 47.20594,-18.58257 -2.44169,-3.49282 -0.93659,-10.14475 -4.45294,-10.14475 -3.33447,0 9.41484,-9.160784 8.56606,-11.789298 10.06405,1.672694 -35.01677,-13.729803 -28.04469,-23.288041 4.73305,-7.620654 -1.56508,-0.789767 6.33458,-10.584373"
       inkscape:connector-curvature="0" />
    <path
       id="path4338"
       style="fill:none;fill-rule:evenodd;stroke:#000000;stroke-width:1.86000001;stroke-linecap:butt;stroke-linejoin:miter;stroke-miterlimit:4;stroke-dasharray:none;stroke-opacity:1;filter:url(#filter4374)"
       d="m 186.93174,306.35565 c 9.5876,17.12519 14.78974,62.59503 -5.80583,41.75933 -8.70726,11.09642 6.86061,27.68111 17.64294,14.94247 0.45761,-0.48818 0.58661,31.18991 -13.50931,28.75792 -17.0614,-2.94363 -12.93032,-22.27877 -10.26866,-21.41637 -7.44715,0.25217 -9.58765,1.66639 -10.65228,11.29564 -27.10199,-7.02928 -57.75822,25.3108 -33.8991,51.76241 -1.21054,-36.41429 21.89913,-2.86305 37.9598,1.00513 15.00975,3.61507 25.73859,-7.98679 36.60818,-21.02928 -3.09134,9.71543 -6.3724,19.42131 -21.07454,28.5518 6.7846,2.1937 13.34365,2.99724 19.33452,0.29896 -1.0906,16.95302 4.11206,17.9121 7.27085,22.72828 3.15879,-4.81618 8.36145,-5.77526 7.27085,-22.72828 5.99087,2.69828 12.54992,1.89474 19.33452,-0.29896 -14.70214,-9.13049 -17.9832,-18.83637 -21.07454,-28.5518 8.615,11.57102 21.22773,23.18025 39.86995,21.47334 16.76817,-1.53531 30.23291,-37.78407 36.59919,-1.36699 18.02956,-43.15598 -8.69827,-58.87389 -35.80026,-51.84461 -4.40209,-12.01062 -10.58263,-10.47485 -17.23352,-10.15886 2.66166,-0.8624 12.88278,18.08634 -4.20539,20.87037 -17.05406,2.77847 -14.92589,-29.22272 -13.8995,-28.80116 12.4928,13.4479 25.22341,-4.12574 15.52217,-15.63432 -23.04352,15.65179 -8.91315,-28.11971 0.43418,-41.6101"
       inkscape:connector-curvature="0"
       sodipodi:nodetypes="cccscccscccccccscccsccc" />
    <g
       id="g4351"
       transform="translate(4.0126631,-5.7012436)"
       style="stroke-width:1.86000001;stroke-miterlimit:4;stroke-dasharray:none;filter:url(#filter4370)">
      <path
         sodipodi:nodetypes="cccccccscscsscscsccssccsccc"
         inkscape:connector-curvature="0"
         id="path4345"
         d="m 239.50845,154.98949 c 13.17715,-18.21135 54.84865,21.75803 48.18124,-37.22696 -9.5542,7.04538 -19.02155,8.64256 -25.10841,1.57082 37.21852,-12.32684 -21.34122,-43.015405 -10.64161,-63.772529 14.42731,-27.300459 55.46731,19.897199 65.50504,1.959688 -0.33042,2.30564 8.45056,12.51124 -12.28324,15.66329 20.62912,3.964151 36.05156,61.357771 65.62931,48.356731 -1.45896,16.81991 -13.701,23.57968 -22.61361,21.06149 -12.58891,-3.55691 -28.79482,-21.36707 -29.64968,-22.84233 3.90796,7.69243 23.95232,37.06261 34.2255,43.9691 6.14716,4.13263 13.27614,-0.0616 16.17765,-2.67498 3.60266,9.37841 -3.83834,20.521 -12.51881,24.18632 -5.66915,2.3938 -15.62402,-0.75718 -20.7562,-5.67714 -8.84558,-8.47981 -15.27086,-17.74637 -22.71485,-26.22618 6.65575,10.64292 30.7558,55.39258 37.95295,58.62477 7.05969,3.17046 19.63309,-8.56165 21.10667,-10.3825 8.6595,30.32985 -30.39957,40.1761 -45.8908,21.33864 -8.25383,-10.03671 -25.30489,-31.95419 -31.89959,-43.01861 4.78438,29.28045 47.99338,93.66583 71.3826,65.14196 4.15223,12.38161 -9.78653,26.22338 -21.75467,26.22338 -19.23452,0 -32.99757,-6.45432 -42.1009,-19.25381 -7.87189,-11.06805 -22.8261,-48.60915 -24.10842,-54.4048 2.62568,9.11497 2.74583,66.00924 22.28566,71.85758 -2.99292,7.89276 -19.07452,9.15611 -29.80794,0.0645 -15.09896,-12.78934 -16.63721,-51.40908 -18.10271,-67.6896 2.82933,22.8433 -5.52324,45.23454 8.72163,68.53936 -10.02042,1.42172 -18.70686,-1.10082 -24.39999,-12.47377"
         style="opacity:1;fill:none;fill-rule:evenodd;stroke:#000000;stroke-width:1.86000001;stroke-miterlimit:4;stroke-dasharray:none;stroke-opacity:1" />
      <path
         sodipodi:nodetypes="cccccc"
         inkscape:connector-curvature="0"
         id="path4347"
         d="m 312.52811,109.6931 c 9.81592,7.15865 7.23014,18.34987 -4.59932,20.11295 14.46157,6.87626 13.56215,21.24992 -1.26013,23.9138 5.02205,13.22968 5.25235,22.7121 -13.42602,24.98597 0.58016,18.73824 -11.29748,22.61956 -21.66593,14.78548 -2.65365,7.54525 -4.82783,15.6805 -19.57308,8.34702 l -3.14569,2.52563"
         style="fill:none;fill-rule:evenodd;stroke:#000000;stroke-width:1.86000001;stroke-linecap:round;stroke-linejoin:miter;stroke-miterlimit:4;stroke-dasharray:none;stroke-opacity:1" />
    </g>
    <g
       id="g4357"
       transform="matrix(-1,0,0,1,417.69072,-5.7012436)"
       style="stroke-width:1.86000001;stroke-miterlimit:4;stroke-dasharray:none;filter:url(#filter4366)">
      <path
         style="opacity:1;fill:none;fill-rule:evenodd;stroke:#000000;stroke-width:1.86000001;stroke-miterlimit:4;stroke-dasharray:none;stroke-opacity:1"
         d="m 240.81974,159.15332 c 13.21314,-18.19978 60.84605,16.07275 45.55223,-45.6852 -6.00415,8.10312 -14.83001,14.84795 -20.3093,8.91372 C 295.143,102.03626 244.55365,77.72945 255.819,57.047857 c 18.59959,-27.522553 57.59975,24.197456 58.74777,-1.967492 -0.33041,2.305643 12.69853,16.447187 -11.81257,17.749516 24.32932,2.009788 33.03182,59.625799 61.4792,46.798419 1.25772,16.17642 -5.99108,25.21891 -16.05623,22.97372 -12.76795,-2.84809 -29.5702,-27.16738 -30.42506,-28.64264 8.63652,12.12271 22.76724,41.05542 33.04042,47.96191 6.14716,4.13263 13.26441,1.93016 16.16592,-0.68322 3.60266,9.37841 -2.55248,18.75777 -11.23295,22.42309 -5.66915,2.3938 -15.24508,-0.70652 -20.37726,-5.62648 -8.84558,-8.47981 -12.18767,-14.53984 -19.63166,-23.01965 4.86157,10.82982 21.26645,49.74935 29.52356,52.87113 7.23885,2.7368 18.90041,-0.27726 20.37399,-2.09811 8.6595,30.32985 -25.32673,34.61263 -40.81796,15.77517 -8.25383,-10.03671 -19.39587,-30.98416 -25.99057,-42.04858 3.77949,28.87176 37.81668,92.59146 62.93156,64.76942 4.15223,12.38161 -5.93108,26.98039 -17.89922,26.98039 -19.23452,0 -30.6832,-5.84389 -40.87299,-17.79654 -8.33952,-9.7823 -24.60456,-52.75445 -25.69562,-59.07595 3.62456,9.8421 4.84006,70.62678 23.62253,75.9238 -2.99292,7.89276 -20.0521,8.30377 -30.78552,-0.78784 -15.09896,-12.78934 -14.42445,-50.02988 -15.88995,-66.3104 3.4682,22.91146 -5.61942,44.08116 6.50887,67.16016 -8.87004,-0.70437 -12.86421,-3.55485 -18.98481,-14.13777"
         id="path4353"
         inkscape:connector-curvature="0"
         sodipodi:nodetypes="cccccccscscsscscsccssccsccc" />
      <path
         style="fill:none;fill-rule:evenodd;stroke:#000000;stroke-width:1.86000001;stroke-linecap:round;stroke-linejoin:miter;stroke-miterlimit:4;stroke-dasharray:none;stroke-opacity:1"
         d="m 317.75211,113.95938 c 8.4752,7.57719 4.53919,22.75704 -3.23939,23.25553 7.17665,9.54813 5.40952,20.51398 -8.33712,22.78335 5.02205,13.22968 4.67749,17.39329 -14.00088,19.66716 1.13971,17.45839 -5.39841,16.40877 -18.00676,13.69794 -1.62536,7.06738 -4.50942,14.45625 -22.16433,8.47496"
         id="path4355"
         inkscape:connector-curvature="0"
         sodipodi:nodetypes="cccccc" />
    </g>
    <path
       style="fill:#ef1b24;fill-rule:evenodd;stroke:#000000;stroke-width:1.653;stroke-miterlimit:4;stroke-dasharray:none;stroke-opacity:1;filter:url(#filter4362)"
       id="path198"
       d="m 162.49755,84.532931 c -4.48676,7.684225 -1.23037,14.260155 6.94195,16.523319 8.1189,2.26316 16.56599,-2.514514 26.92827,-2.567144 4.11287,0 10.82495,2.668724 12.05346,3.668724 2.35021,-0.89474 4.42297,-2.527855 4.20931,-2.738375 -2.67069,-2.05264 -12.76032,-4.986149 -15.53784,-5.565095 -11.15765,-2.93734 -12.54868,1.245866 -19.5632,2.005366 -15.47748,1.67582 -14.9677,-5.748037 -15.03195,-11.326795 z"
       inkscape:connector-curvature="0"
       sodipodi:nodetypes="ccccccsc" />
    <g
       id="g6373"
       transform="translate(4.0126631,-5.7012436)"
       style="filter:url(#filter4358)">
      <path
         inkscape:connector-curvature="0"
         d="m 191.55391,79.558728 c 0.85462,2.578952 5.07431,5.421063 8.81328,6.684223 3.79238,1.26316 8.8667,1.947372 12.76591,4.315797 7.05062,4.315798 3.41848,16.000032 -2.51045,20.736882 -4.2197,3.3158 -15.65026,4.52632 -23.92941,8.73686 -0.4273,0.21052 -0.96144,-0.73685 -1.06827,-1.05264 -0.42731,-1.15789 2.6707,-5.21053 3.57873,-6.36843 4.80724,-5.68422 18.05387,-4.68422 18.00047,-11.73686 -0.0534,-5.263171 -14.74223,-5.473697 -17.67999,-8.263176 -4.21969,-4.000008 -10.14863,-8.736859 -11.27032,-1.421055 -2.56386,-4.789483 -3.15142,-4.421061 -4.05945,-6.526329 -1.70925,-3.736848 -1.44218,-6.894749 -0.26707,-9.105279 1.49558,-2.894743 4.00604,-3.368427 7.37111,-3.894744 1.44217,-2.894743 4.43335,-4.789483 7.10404,-5.105273 2.51045,-0.31579 5.66187,1.789477 6.46307,4.368429 0.69439,2.421057 0.64097,5.368431 -3.31165,8.631595 z"
         id="path208"
         style="fill:#000000;fill-rule:evenodd;stroke-width:0.05302132" />
      <path
         inkscape:connector-curvature="0"
         d="m 186.9069,77.874515 c 9.18719,1.157896 8.65305,-9.368439 1.44217,-9.368439 -3.25824,0 -4.48676,3.052637 -5.50162,5.105272 -2.24338,0.105264 -8.33256,-0.368422 -8.11891,6.26317 0.10684,2.368426 1.81607,5.789484 2.88435,6.947382 4.48677,-5.263168 9.56108,2.684215 13.5137,4.631587 1.9229,0.94737 5.60846,1.736846 9.29401,2.578952 5.82211,1.26316 10.7896,4.736851 6.14259,11.052651 -3.04458,4.10527 -14.47514,3.10527 -18.05388,10.26318 -2.13655,4.3158 0.64097,1.89474 4.11287,0.89474 12.28518,-3.52633 23.07478,-6.52633 22.59406,-18.789512 -0.26707,-7.21054 -15.97074,-9.315806 -19.01533,-11.368442 -2.08314,-1.421056 -9.40083,-7.21054 -9.29401,-8.210541 z"
         id="path210"
         style="fill:#fff700;fill-rule:evenodd;stroke-width:0.05302132" />
    </g>
    <g
       id="g6379"
       transform="translate(4.0126631,-5.7012436)"
       style="filter:url(#filter4354)">
      <path
         inkscape:connector-curvature="0"
         d="m 209.98168,74.137665 -8.01208,-0.842107 -6.62331,-0.368422 c -1.06828,3.42106 -1.38876,9.263176 2.56387,11.052653 2.56386,1.157897 7.58476,1.315792 9.6679,-1.315792 1.76266,-2.315794 2.18997,-5.578958 2.40362,-8.526332 z"
         id="path212"
         style="fill:#000000;fill-rule:evenodd;stroke-width:0.05302132" />
      <path
         inkscape:connector-curvature="0"
         d="m 208.43268,74.190297 -6.30283,-0.947371 -5.44822,-0.210526 c -0.0534,2.894742 -2.08313,9.000017 3.52532,10.105282 7.58476,1.473687 8.43939,-5.789484 8.22573,-8.947385 z"
         id="path214"
         style="fill:#ffffff;fill-rule:evenodd;stroke-width:0.05302132" />
      <path
         inkscape:connector-curvature="0"
         d="m 204.37323,73.97977 -2.2968,-0.736844 -1.60241,-0.05263 c -1.33535,1.105265 -2.08314,3.578954 -1.65583,5.000009 0.42731,1.263161 1.60241,2.473689 3.20483,2.421058 1.97631,-0.105264 3.25824,-2.684215 2.88434,-2.47369 -4.05944,2.421058 -6.03576,-4.000007 -0.53413,-4.157901 z"
         id="path216"
         style="fill:#000000;fill-rule:evenodd;stroke-width:0.05302132" />
      <path
         inkscape:connector-curvature="0"
         d="m 195.02581,72.663978 c 7.37111,0.05263 14.15467,1.052634 22.3804,1.368424 0.16024,0.31579 0.0534,0.526317 -0.42731,0.63158 -2.13655,0.421053 -9.61449,0 -10.57595,-0.105263 -2.18996,-0.315791 -9.29401,-0.631581 -11.53739,-0.842107 -0.32048,-0.05263 0.10683,-0.947371 0.16025,-1.052634 z"
         id="path218"
         style="fill:#000000;fill-rule:evenodd;stroke-width:0.05302132" />
    </g>
    <path
       style="fill:#000000;fill-opacity:1;fill-rule:evenodd;stroke:none;stroke-width:1px;stroke-linecap:butt;stroke-linejoin:miter;stroke-opacity:1;filter:url(#filter4350)"
       d="m 198.87822,68.015368 c -0.84208,3.113118 -2.94129,4.595448 -5.66449,5.268304 4.84246,5.371333 9.02861,7.176413 13.1261,8.499747 l 0.26279,-3.267816 c -2.68688,-1.806138 -5.90634,4.436197 -7.7244,-10.500235 z"
       id="path6013"
       inkscape:connector-curvature="0"
       sodipodi:nodetypes="ccccc" />
    <path
       style="fill:#fff700;fill-opacity:1;fill-rule:evenodd;stroke:#000000;stroke-width:2.25999999;stroke-linecap:butt;stroke-linejoin:miter;stroke-miterlimit:4;stroke-dasharray:none;stroke-opacity:1;filter:url(#filter4346)"
       d="m 175.92095,27.071273 c 6.10652,8.784934 11.46857,18.834404 12.8502,35.644791 l 47.38382,-0.352724 c 3.94324,-15.946771 8.09039,-30.323396 13.44243,-35.422187 -3.79335,0.101382 -6.36989,1.732518 -9.32184,5.191732 -17.32334,-1.858464 -7.96574,12.630986 -1.92849,8.01398 -0.91708,4.289141 -4.2938,5.717064 -10.19263,4.211096 -5.60455,3.845632 -9.79052,2.913981 -13.38195,-0.01986 l -0.0419,-3.491115 c 11.9923,1.716479 13.50102,-8.747166 2.98953,-8.634173 -0.65652,-12.115435 -12.87438,-6.81008 -10.66506,-0.09405 -10.10833,-0.09264 -6.67533,10.530446 1.75952,8.006298 0.75545,4.118487 0.0218,2.9308 0.0733,4.49904 -1.9849,3.204882 -8.09826,2.093255 -11.23391,0.679093 -6.52284,2.167134 -7.90003,-1.493157 -10.12627,-4.191901 8.45056,-0.262627 11.47532,-9.709226 -2.29121,-8.869281 -3.40953,-5.962088 -6.29526,-4.62916 -9.31558,-5.170737 z"
       id="path6194"
       inkscape:connector-curvature="0"
       sodipodi:nodetypes="ccccccccccccccccc" />
  </g>
  <g
     inkscape:groupmode="layer"
     id="layer3"
     inkscape:label="Letters"
     style="display:inline"
     transform="translate(-23.768809,-13.9075)">
    <path
       style="opacity:1;fill:#fff700;fill-opacity:1;stroke:none;stroke-width:2.30615282;stroke-linecap:round;stroke-linejoin:round;stroke-miterlimit:4;stroke-dasharray:none;stroke-opacity:1;filter:url(#filter4342)"
       d="m 330.68359,337.72998 c -12.72628,6.6e-4 -23.04297,12.66235 -23.04297,28.28125 0,15.6189 10.31669,28.28059 23.04297,28.28125 12.72705,6.6e-4 23.04493,-12.66141 23.04493,-28.28125 0,-15.61984 -10.31788,-28.28191 -23.04493,-28.28125 z m 0.002,7.64453 c 4.50527,5.4e-4 8.16849,3.62646 8.1582,8.09961 -0.019,8.26771 0.0876,18.69111 0,25.05664 -0.0876,6.36553 -3.65178,8.10102 -8.1582,8.10156 -4.50642,5.4e-4 -8.17149,-1.73331 -8.16016,-8.10156 0.0113,-6.36825 -0.097,-16.80152 0,-25.05664 0.0526,-4.47361 3.65413,-8.10015 8.16016,-8.09961 z"
       id="path6080"
       inkscape:connector-curvature="0"
       sodipodi:nodetypes="ssssssssssss" />
    <path
       sodipodi:nodetypes="cccccccsccsccs"
       inkscape:connector-curvature="0"
       id="path4328"
       d="m 49.36328,28.603516 c 1.9816,1.266947 3.51104,2.599784 3.60352,3.351562 v 44.56836 c -0.0477,1.378305 -2.76449,4.673603 -3.7793,5.652343 h 23.98438 c -1.58797,-1.48311 -6.63445,-5.840125 -6.6875,-7.576172 V 61.347656 c 0,0 25.17099,3.682034 24.71093,-17.552734 C 90.89782,30.063839 77.20508,28.603516 77.20508,28.603516 Z M 81.93765,43.625 c 0.007,13.608793 -15.45327,12.013629 -15.45327,12.013629 V 32.933161 c 10.328,0.413541 15.44992,4.424332 15.45327,10.691839 z"
       style="fill:#fff700;fill-opacity:1;fill-rule:evenodd;stroke:none;stroke-width:1px;stroke-linecap:butt;stroke-linejoin:miter;stroke-opacity:1;filter:url(#filter4338)" />
    <path
       inkscape:connector-curvature="0"
       id="path4313"
       style="font-style:normal;font-variant:normal;font-weight:bold;font-stretch:normal;font-size:medium;line-height:50.11154175px;font-family:Caladea;-inkscape-font-specification:'Caladea Bold';letter-spacing:0px;word-spacing:0px;fill:#fff700;fill-opacity:1;stroke:none;stroke-width:2.00446153px;stroke-linecap:butt;stroke-linejoin:miter;stroke-opacity:1;filter:url(#filter4334)"
       d="m 340.06272,34.667287 c -0.71341,-2.123936 -0.81664,-0.391853 -7.10646,-6.4265 h 21.72837 c -6.52316,3.054456 -5.45214,4.971065 -5.45214,4.971065 l 9.54124,19.88426 9.78177,-19.242833 c 0.78781,-1.361884 0.95118,-1.730418 -6.01338,-5.612492 h 17.95998 c -3.84388,2.75043 -3.31476,2.716048 -5.21161,4.971065 L 361.57998,60.232 v 16.243589 c 0.15837,1.940602 0.0633,1.812308 5.45213,5.69267 h -22.12925 c 4.52633,-3.270063 4.84757,-2.706416 4.89088,-5.29178 V 60.15182 Z"
       sodipodi:nodetypes="cccccccccccccccc" />
    <path
       inkscape:connector-curvature="0"
       id="path4315"
       style="font-style:normal;font-variant:normal;font-weight:bold;font-stretch:normal;font-size:medium;line-height:50.11154175px;font-family:Caladea;-inkscape-font-specification:'Caladea Bold';letter-spacing:0px;word-spacing:0px;display:inline;fill:#fff700;fill-opacity:1;stroke:none;stroke-width:2.00446153px;stroke-linecap:butt;stroke-linejoin:miter;stroke-opacity:1;filter:url(#filter4330)"
       d="m 80.918991,347.51002 10.90427,33.67496 11.706049,-33.03353 c 0.82808,-1.98765 -0.71941,-2.27445 -5.933199,-5.61249 h 17.719439 c -6.18224,3.65421 -4.58821,3.16775 -5.45214,5.29177 l -17.639259,48.18726 h -8.09802 l -14.993382,-46.9044 c -1.395577,-3.54217 -0.653627,-1.4218 -4.73053,-6.57463 h 21.968902 c -4.369833,3.23375 -6.021162,3.3855 -5.45213,4.97106 z"
       sodipodi:nodetypes="cccccccccccc" />
  </g>
</svg>
