<?xml version="1.0" encoding="UTF-8" standalone="no"?>
<!-- Created with Sodipodi ("http://www.sodipodi.com/") -->

<svg
   xml:space="preserve"
   width="1000pt"
   height="1000pt"
   style="fill-rule:evenodd;image-rendering:optimizeQuality;shape-rendering:geometricPrecision;text-rendering:geometricPrecision"
   viewBox="0 0 8105.8824 10256.14"
   id="svg2"
   sodipodi:version="0.34"
   inkscape:version="1.2.2 (b0a8486541, 2022-12-01)"
   sodipodi:docname="ostrava.svg"
   version="1.1"
   inkscape:export-filename="ostrava.png"
   inkscape:export-xdpi="2.3039999"
   inkscape:export-ydpi="2.3039999"
   xmlns:inkscape="http://www.inkscape.org/namespaces/inkscape"
   xmlns:sodipodi="http://sodipodi.sourceforge.net/DTD/sodipodi-0.dtd"
   xmlns="http://www.w3.org/2000/svg"
   xmlns:svg="http://www.w3.org/2000/svg"
   xmlns:rdf="http://www.w3.org/1999/02/22-rdf-syntax-ns#"
   xmlns:cc="http://creativecommons.org/ns#"
   xmlns:dc="http://purl.org/dc/elements/1.1/"><metadata
   id="metadata344"><rdf:RDF><cc:Work
       rdf:about=""><dc:format>image/svg+xml</dc:format><dc:type
         rdf:resource="http://purl.org/dc/dcmitype/StillImage" /></cc:Work></rdf:RDF></metadata><sodipodi:namedview
   inkscape:window-height="1057"
   inkscape:window-width="1842"
   inkscape:pageshadow="2"
   inkscape:pageopacity="0"
   borderopacity="1.0"
   bordercolor="#666666"
   pagecolor="#ffffff"
   id="base"
   inkscape:zoom="0.25129965"
   inkscape:cx="-646.63839"
   inkscape:cy="306.40711"
   inkscape:window-x="1912"
   inkscape:window-y="-8"
   inkscape:current-layer="svg2"
   showgrid="false"
   inkscape:snap-page="true"
   inkscape:snap-bbox="false"
   inkscape:bbox-nodes="true"
   inkscape:snap-others="false"
   inkscape:snap-nodes="true"
   inkscape:window-maximized="1"
   inkscape:showpageshadow="2"
   inkscape:pagecheckerboard="false"
   inkscape:deskcolor="#d1d1d1"
   inkscape:document-units="pt"
   showborder="true"
   shape-rendering="auto" /><defs
   id="defs4"><style
     type="text/css"
     id="style6">
   
    .str2 {stroke:#000000;stroke-width:3}
    .str3 {stroke:#000000;stroke-width:28}
    .str4 {stroke:#000000;stroke-width:28;stroke-linecap:round}
    .str1 {stroke:#000000;stroke-width:56}
    .str0 {stroke:#000000;stroke-width:83}
    .fil3 {fill:#000000}
    .fil4 {fill:#191919}
    .fil1 {fill:#56876C}
    .fil0 {fill:#5A739B}
    .fil5 {fill:#D32820}
    .fil6 {fill:#FFF500}
    .fil2 {fill:#FFFFFF}
   
  </style><filter
     style="color-interpolation-filters:sRGB"
     inkscape:label="Greyscale"
     id="filter29310"><feColorMatrix
       values="0.21 0.72 0.072 0 0 0.21 0.72 0.072 0 0 0.21 0.72 0.072 0 0 0 0 0 1 0 "
       id="feColorMatrix29308" /></filter><filter
     inkscape:collect="always"
     style="color-interpolation-filters:sRGB"
     id="filter2451"
     x="-0.010614474"
     y="-0.010614474"
     width="1.0212289"
     height="1.0212289"><feGaussianBlur
       inkscape:collect="always"
       stdDeviation="45.148901"
       id="feGaussianBlur2453" /></filter></defs><rect
   style="display:inline;opacity:0.712092;mix-blend-mode:normal;fill:#000000;fill-opacity:1;stroke:none;stroke-width:47.6851;stroke-miterlimit:4;stroke-dasharray:none;stroke-opacity:1;filter:url(#filter2451)"
   id="rect2449"
   width="10208.454"
   height="10208.454"
   x="-1051.286"
   y="23.842793"
   ry="901.74237"
   rx="1008.6597"
   transform="matrix(0.97732481,0,0,0.97440982,91.901407,131.22843)" /><rect
   style="display:inline;fill:#ffffff;fill-opacity:1;stroke:none;stroke-width:46.6147;stroke-miterlimit:4;stroke-dasharray:none;stroke-opacity:1"
   id="rect14642"
   width="9994.1895"
   height="9964.3809"
   x="-944.15369"
   y="145.87941"
   ry="880.18256"
   rx="987.48901" />
<g
   id="#00345fff"
   transform="matrix(54.893758,0,0,54.893758,-40442.891,2135.6535)"><path
     fill="#00345f"
     opacity="1"
     d="m 745.32,3.02 c 9.51,-0.29 19.04,-0.04 28.57,-0.12 -0.23,20.68 -0.46,41.37 -0.7,62.06 -9.04,0 -18.08,0 -27.11,-0.01 C 745.8,44.31 745.7,23.66 745.32,3.02 Z"
     id="path255" /><path
     fill="#00345f"
     opacity="1"
     d="m 796.31,2.94 c 9.5,-0.1 19.01,-0.02 28.52,-0.04 -0.22,20.68 -0.46,41.37 -0.69,62.06 -9.04,0 -18.08,0 -27.12,-0.01 -0.25,-20.67 -0.43,-41.34 -0.71,-62.01 z"
     id="path257" /><path
     fill="#00345f"
     opacity="1"
     d="m 847.26,2.9 c 9.5,-0.01 19,-0.01 28.51,0 -0.23,20.69 -0.47,41.37 -0.7,62.06 -9.04,0 -18.07,0 -27.11,0 -0.24,-20.69 -0.47,-41.37 -0.7,-62.06 z"
     id="path259" /><path
     fill="#00345f"
     opacity="1"
     d="m 754.35,77.52 c 7.65,-3.21 17.22,1.53 19.42,9.49 2.67,7.8 -2.64,16.96 -10.65,18.68 -7.35,2 -15.58,-2.79 -17.63,-10.08 -2.39,-7.15 1.81,-15.55 8.86,-18.09 z"
     id="path261" /><path
     fill="#00345f"
     opacity="1"
     d="m 805.38,77.49 c 7.65,-3.16 17.16,1.62 19.34,9.56 2.63,7.77 -2.64,16.89 -10.62,18.62 -7.5,2.09 -15.94,-2.95 -17.78,-10.48 -2.15,-7.09 2.11,-15.24 9.06,-17.7 z"
     id="path263" /><path
     fill="#00345f"
     opacity="1"
     d="m 856.38,77.47 c 7.66,-3.12 17.15,1.69 19.3,9.63 2.58,7.73 -2.63,16.76 -10.53,18.55 -7.55,2.16 -16.1,-2.92 -17.92,-10.52 -2.11,-7.11 2.19,-15.24 9.15,-17.66 z"
     id="path265" /></g></svg>
