<?xml version="1.0" encoding="UTF-8" standalone="no"?>
<!DOCTYPE svg PUBLIC "-//W3C//DTD SVG 20010904//EN" "http://www.w3.org/TR/2001/REC-SVG-20010904/DTD/svg10.dtd">
<!-- Created with Sodipodi ("http://www.sodipodi.com/") -->
<svg xmlns:dc="http://purl.org/dc/elements/1.1/" xmlns:cc="http://web.resource.org/cc/" xmlns:rdf="http://www.w3.org/1999/02/22-rdf-syntax-ns#" xmlns:svg="http://www.w3.org/2000/svg" xmlns="http://www.w3.org/2000/svg" xmlns:sodipodi="http://sodipodi.sourceforge.net/DTD/sodipodi-0.dtd" xmlns:inkscape="http://www.inkscape.org/namespaces/inkscape" xml:space="preserve" width="1020pt" height="1140pt" style="shape-rendering:geometricPrecision; text-rendering:geometricPrecision; image-rendering:optimizeQuality; fill-rule:evenodd" viewBox="0 0 8268 11692" id="svg2" sodipodi:version="0.34" inkscape:version="0.43" sodipodi:docname="D:\Dokumenty\Wikipedie\images\svg\Ostrava coat of arms.svg" xmlns:xlink="http://www.w3.org/1999/xlink"><metadata id="metadata344"><rdf:RDF><cc:Work rdf:about=""><dc:format>image/svg+xml</dc:format><dc:type rdf:resource="http://purl.org/dc/dcmitype/StillImage"/></cc:Work></rdf:RDF></metadata><sodipodi:namedview inkscape:window-height="540" inkscape:window-width="767" inkscape:pageshadow="2" inkscape:pageopacity="0.0" borderopacity="1.0" bordercolor="#666666" pagecolor="#ffffff" id="base" inkscape:zoom="0.088847842" inkscape:cx="-295.25522" inkscape:cy="947.6255" inkscape:window-x="110" inkscape:window-y="110" inkscape:current-layer="svg2"/><defs id="defs4"><style type="text/css" id="style6">
   
    .str2 {stroke:#000000;stroke-width:3}
    .str3 {stroke:#000000;stroke-width:28}
    .str4 {stroke:#000000;stroke-width:28;stroke-linecap:round}
    .str1 {stroke:#000000;stroke-width:56}
    .str0 {stroke:#000000;stroke-width:83}
    .fil3 {fill:#000000}
    .fil4 {fill:#191919}
    .fil1 {fill:#56876C}
    .fil0 {fill:#5A739B}
    .fil5 {fill:#D32820}
    .fil6 {fill:#FFF500}
    .fil2 {fill:#FFFFFF}
   
  </style></defs><g id="Layer 2" transform="matrix(0.737534,0,0,0.737189,2700.237,-1539.161)"><path class="fil0 str0" d="M -4996,2227 L 8897,2227 L 8897,11154 C 8758,14843 5689,17809 1944,17809 C -1800,17809 -4870,14839 -5009,11150 L -4996,2227 z " id="path9" style="fill:#5a739b;stroke:#000000;stroke-width:83"/><path class="fil1 str1" d="M 7274,15328 C 7274,15328 7274,15328 7274,15328 L -3386,15328 M 7274,15328 C 5996,16843 4080,17809 1943,17809 C -193,17809 -2108,16843 -3386,15328 L 7274,15328 z " id="path11" style="fill:#56876c;stroke:#000000;stroke-width:56"/><path class="fil2" d="M -2183,3701 L -2204,3598 L -2312,3756 L -2385,3996 L -2398,4141 L -2612,4330 L -2675,4494 L -2644,4682 L -2600,4786 L -2724,5086 L -2787,5177 L -2742,5525 L -2838,6895 L -2802,7245 L -2676,7396 L -2434,7559 L -2350,7553 L -2302,7420 L -2241,7432 L -2235,7553 L -1849,7281 L -1831,7125 L -1873,6847 L -1620,6341 L -1361,6208 L -1228,6063 L -1138,6286 L -1095,6678 L -1144,7300 L -1276,8029 L -1318,8560 L -1174,9145 L -951,9561 L -1566,9477 L -1698,9471 L -2097,9374 L -2350,9362 L -2742,9525 L -4015,10496 L -4419,10943 L -4545,11226 L -4545,11570 L -4503,11624 L -4220,11516 L -3942,11341 L -3900,11214 L -3894,10931 L -3797,10744 L -3689,10701 L -3586,10774 L -2947,10140 L -2730,10038 L -2567,10014 L -2832,10460 L -3061,10778 L -3359,11039 L -3552,11256 L -3671,11498 L -3828,11745 L -3912,12089 L -3912,12348 L -3888,12438 L -3725,12396 L -3375,12155 L -3315,12040 L -3339,11630 L -3182,11437 L -3098,11485 L -2881,11305 L -2537,10641 L -2362,10490 L -2181,10460 L -1976,10382 L -1879,10321 L -1656,10472 L -1367,10593 L -996,10641 L -625,10668 L -386,10771 L -163,10767 L 31,10688 L 126,10777 L 434,10940 L 714,11057 L 986,11148 L 1813,11320 L 2469,11403 L 3307,11465 L 3716,12109 L 3979,12431 L 4118,12776 L 4434,13068 L 4599,13310 L 4682,13574 L 4868,13869 L 4776,14396 L 4577,14830 L 4369,15101 L 4234,15255 L 4134,15481 L 3669,15673 L 3534,15787 L 3410,16138 L 3607,16190 L 4232,16185 L 4299,15952 L 4320,15745 L 4553,15533 L 4754,15559 L 4853,15420 L 4956,15011 L 5455,14085 L 5563,14411 L 5515,15116 L 5467,15352 L 5220,15786 L 5033,15949 L 4725,16136 L 4532,16359 L 4436,16570 L 4411,16673 L 4592,16715 L 5238,16679 L 5298,16480 L 5340,16160 L 5515,15997 L 5750,15979 L 5895,15907 L 5968,15774 L 5962,15237 L 5925,14676 L 5986,14109 L 6100,13627 L 5943,13235 L 5606,12945 L 5521,12668 L 5624,12288 L 6046,11733 L 6251,11202 L 6342,10593 L 6269,10152 L 6015,9576 L 5907,9395 L 6124,9464 L 6374,9620 L 6540,9855 L 6656,10224 L 6670,10669 L 6613,11220 L 6414,12170 L 6323,12758 L 6342,13120 L 6554,13670 L 6843,14143 L 6979,14536 L 7025,14902 L 6997,15038 L 7210,14884 L 7432,14545 L 7500,14215 L 7481,13808 L 7386,13509 L 7542,13632 L 7745,13618 L 7904,13459 L 7709,13393 L 7535,13176 L 7412,12807 L 7383,12467 L 7506,12634 L 7673,12735 L 7803,12757 L 7853,12720 L 7665,12463 L 7582,11894 L 7675,11563 L 7835,11605 L 7959,11537 L 8057,11362 L 7871,11356 L 7659,11170 L 7608,10617 L 7475,9947 L 7059,9435 L 6673,9230 L 6257,9157 L 5732,9151 L 5389,8874 L 4960,8801 L 4502,8838 L 4188,8850 L 3748,8765 L 2144,8111 L 1768,7742 L 1609,7698 L 1478,7547 L 1363,7395 L 1384,7191 L 1311,6883 L 1444,6968 L 1631,6992 L 1752,6980 L 1790,6965 L 1551,6776 L 1372,6437 L 1052,6021 L 1233,6087 L 1347,6087 L 1489,6067 L 1594,5999 L 1614,5930 L 1372,5858 L 1159,5697 L 1055,5585 L 1185,5623 L 1360,5575 L 1468,5490 L 1516,5363 L 1353,5333 L 1215,5303 L 1004,5104 L 768,4863 L 569,4736 L 738,4664 L 835,4555 L 853,4429 L 835,4326 L 726,4423 L 533,4423 L 312,4340 L -182,4037 L -498,3871 L -834,3804 L -1087,3840 L -1506,3954 L -1614,3747 L -1743,3572 L -1821,3489 L -1847,3659 L -1883,3789 L -1971,4037 L -2095,4001 L -2152,3840 L -2183,3701 z " id="path13" style="fill:#ffffff"/><path class="fil3" d="M 7301,14716 L 7226,14812 C 7338,14559 7149,14021 7129,13961 C 7044,13718 6891,13370 6807,13122 C 6692,12786 6618,12199 6744,11879 C 6694,12355 6684,12655 6870,13181 C 6953,13414 7045,13661 7139,13896 C 7171,13976 7318,14347 7301,14716 z " id="path15" style="fill:#000000"/><path class="fil3" d="M 7396,14557 L 7441,14462 C 7444,14100 7190,13458 7100,13211 C 6967,12848 6925,12569 6931,12174 C 6935,11952 6969,11724 7039,11528 C 7024,11523 7023,11522 7016,11530 C 6988,11565 6973,11635 6955,11697 C 6860,12032 6894,12593 6948,12821 C 7073,13354 7468,14273 7396,14557 z " id="path17" style="fill:#000000"/><path class="fil3" d="M 3961,15649 C 3950,15633 3912,15650 3891,15657 C 3851,15670 3835,15689 3851,15689 C 3858,15688 3878,15676 3903,15670 C 3934,15661 3966,15656 3961,15649 z " id="path19" style="fill:#000000"/><path class="fil3" d="M 4002,15698 C 3986,15687 3960,15711 3943,15727 C 3917,15750 3913,15774 3928,15767 C 3934,15764 3940,15750 3960,15735 C 3986,15716 4009,15703 4002,15698 z " id="path21" style="fill:#000000"/><path class="fil3" d="M 4045,15766 C 4028,15757 4011,15777 3996,15794 C 3973,15821 3963,15841 3975,15855 C 3980,15861 3989,15825 4006,15807 C 4030,15782 4053,15770 4045,15766 z " id="path23" style="fill:#000000"/><path class="fil3" d="M 4078,15890 C 4101,15895 4107,15874 4115,15853 C 4127,15819 4136,15787 4114,15784 C 4107,15783 4105,15813 4096,15836 C 4083,15868 4067,15887 4078,15890 z " id="path25" style="fill:#000000"/><path class="fil3" d="M 5826,15539 L 5826,15539 C 5785,15360 5785,14943 5786,14901 C 5790,14762 5782,14558 5833,14444 C 5864,14453 5826,14573 5822,14656 C 5816,14793 5811,14934 5811,15075 C 5811,15156 5811,15239 5814,15320 C 5815,15351 5819,15416 5826,15539 z " id="path27" style="fill:#000000"/><path class="fil3" d="M 5882,13444 C 5837,13444 5893,13531 5897,13562 C 5907,13621 5904,13702 5886,13756 C 5871,13804 5839,13853 5824,13900 C 5811,13941 5858,13890 5866,13878 C 5913,13811 5934,13746 5943,13658 C 5947,13619 5927,13445 5882,13444 z " id="path29" style="fill:#000000"/><path class="fil3" d="M -993,6431 C -1020,6444 -973,6620 -963,6654 C -929,6769 -934,7265 -1007,7389 C -1034,7438 -996,7519 -968,7419 C -917,7243 -900,7070 -900,6880 C -900,6819 -938,6434 -993,6431 z " id="path31" style="fill:#000000"/><path class="fil3" d="M 703,4417 L 824,4409 C 752,4460 675,4505 571,4505 C 386,4505 268,4469 103,4390 C 19,4349 -251,4148 -413,4054 C -567,3966 -902,3934 -1049,3943 C -851,3894 -550,3948 -395,4032 C -101,4191 153,4481 513,4484 C 574,4481 620,4500 703,4417 z " id="path33" style="fill:#000000"/><path class="fil3" d="M -1500,3995 L -1499,3928 C -811,3655 -508,3836 -253,3963 C -79,4050 675,4680 834,4269 C 907,4322 882,4529 829,4593 C 651,4809 431,4779 222,4707 C 126,4674 -92,4539 -164,4433 C -155,4400 8,4543 36,4561 C 163,4643 372,4758 564,4706 C 712,4666 833,4583 833,4406 C 482,4563 98,4245 -208,4056 C -396,3941 -606,3842 -846,3842 C -1093,3842 -1316,3925 -1500,3995 z " id="path35" style="fill:#000000"/><path class="fil3" d="M -2114,5688 C -2069,5689 -2059,5653 -2042,5653 C -2039,5653 -2070,5702 -2113,5702 C -2148,5702 -2179,5684 -2173,5669 C -2170,5662 -2138,5688 -2114,5688 z " id="path37" style="fill:#000000"/><path class="fil3" d="M -1988,5486 L -1991,5443 C -1972,5450 -1945,5458 -1917,5455 C -1877,5449 -1843,5443 -1809,5422 C -1792,5410 -1758,5378 -1762,5416 C -1764,5436 -1834,5471 -1853,5476 C -1888,5486 -1950,5490 -1988,5486 z " id="path39" style="fill:#000000"/><path class="fil3" d="M -2032,5154 C -1913,5154 -1830,5060 -1812,5078 C -1804,5087 -1911,5185 -2035,5183 C -2094,5183 -2209,5096 -2196,5079 C -2185,5066 -2100,5153 -2032,5154 z " id="path41" style="fill:#000000"/><path class="fil3" d="M -2625,4748 L -2582,4806 C -2607,4857 -2618,4944 -2655,5028 C -2677,5079 -2705,5112 -2738,5164 C -2756,5194 -2748,5267 -2736,5313 C -2724,5359 -2704,5381 -2703,5457 C -2698,5661 -2783,6489 -2784,6690 C -2785,6869 -2829,7154 -2740,7266 C -2671,7354 -2555,7476 -2439,7504 C -2431,7505 -2371,7520 -2370,7509 C -2359,7382 -2299,7183 -2260,7113 C -2189,6988 -2091,7012 -2138,7209 C -2148,7237 -2214,7491 -2199,7501 C -2194,7504 -1963,7309 -1879,7245 C -1845,7219 -1908,6929 -1902,6847 C -1895,6761 -1697,6486 -1638,6320 C -1172,6110 -1171,5915 -1164,5364 C -1164,5306 -1175,5230 -1166,5218 C -1162,5213 -1149,5235 -1145,5282 C -1124,5499 -1092,5975 -1254,6160 C -1300,6213 -1525,6342 -1593,6371 C -1622,6452 -1657,6520 -1692,6592 C -1732,6673 -1834,6805 -1833,6905 C -1831,7019 -1785,7024 -1813,7261 C -1823,7346 -1936,7370 -2014,7444 C -2109,7534 -2177,7615 -2252,7578 C -2275,7567 -2259,7499 -2285,7499 C -2313,7499 -2304,7556 -2334,7590 C -2355,7613 -2417,7594 -2478,7566 C -2759,7438 -2854,7266 -2862,7035 C -2870,6820 -2859,6567 -2853,6396 C -2845,6178 -2758,5686 -2784,5448 C -2800,5298 -2866,5201 -2771,5098 C -2714,5037 -2658,4850 -2625,4748 z " id="path43" style="fill:#000000"/><path class="fil3" d="M -2180,5393 C -2204,5402 -2238,5426 -2257,5445 C -2286,5474 -2300,5494 -2285,5535 C -2277,5555 -2273,5574 -2251,5596 C -2211,5637 -2059,5631 -2017,5573 C -1989,5533 -1936,5479 -1993,5421 C -2032,5383 -2120,5373 -2180,5393 z " id="path45" style="fill:#000000"/><path class="fil2" d="M -2153,5450 C -2172,5451 -2192,5479 -2193,5500 C -2195,5525 -2185,5548 -2156,5551 C -2131,5553 -2118,5521 -2116,5502 C -2114,5480 -2130,5453 -2153,5450 z " id="path47" style="fill:#ffffff"/><path class="fil3" d="M -2367,4135 L -2436,4164 C -2442,3989 -2296,3617 -2174,3537 C -2181,3651 -2123,3905 -2063,4005 L -2129,4025 C -2170,3901 -2203,3796 -2209,3659 C -2302,3775 -2365,3949 -2367,4135 z " id="path49" style="fill:#000000"/><path class="fil3" d="M -1451,4666 C -1445,4612 -1481,4451 -1482,4332 C -1483,4193 -1446,4000 -1467,3958 C -1536,3822 -1693,3529 -1829,3456 C -1854,3529 -1868,3689 -1900,3762 C -1955,3887 -2065,4145 -1987,4356 C -1967,4409 -1862,4559 -1835,4613 C -1816,4651 -1787,4696 -1772,4736 C -1758,4775 -1726,4873 -1726,4756 C -1726,4536 -1972,4450 -1965,4191 C -1958,3898 -1809,3765 -1801,3543 C -1658,3686 -1490,3940 -1522,4126 C -1568,4387 -1482,4686 -1451,4666 z " id="path51" style="fill:#000000"/><path class="fil3" d="M -1771,3760 C -1776,3846 -1796,3981 -1825,4050 C -1859,4131 -1882,4215 -1867,4315 C -1862,4352 -1815,4431 -1810,4407 C -1807,4384 -1862,4292 -1834,4191 C -1809,4095 -1777,3989 -1750,3895 C -1736,3902 -1649,4126 -1647,4211 C -1645,4263 -1648,4357 -1648,4406 C -1648,4436 -1650,4525 -1640,4545 C -1627,4575 -1623,4350 -1622,4327 C -1615,4186 -1602,4133 -1660,3995 C -1691,3919 -1722,3822 -1771,3760 z " id="path53" style="fill:#000000"/><path class="fil3" d="M -1973,4002 L -1964,3965 C -2174,4006 -2601,4175 -2661,4380 C -2719,4580 -2671,4710 -2599,4804 C -2568,4844 -2467,4873 -2419,4948 C -2395,4985 -2387,4987 -2404,5125 C -2302,5074 -2180,4989 -2155,4952 C -2130,4917 -2121,4816 -2130,4765 C -2163,4580 -2330,4482 -2180,4316 L -2170,4249 C -2302,4375 -2321,4460 -2228,4632 C -2199,4686 -2160,4809 -2178,4875 C -2201,4957 -2283,4989 -2353,5049 C -2340,4916 -2403,4881 -2534,4812 C -2556,4800 -2579,4775 -2589,4752 C -2687,4535 -2639,4446 -2595,4362 C -2478,4134 -2111,4024 -1973,4002 z " id="path55" style="fill:#000000"/><path class="fil3" d="M -2119,4029 C -2045,4029 -2010,4064 -2001,4138 C -1983,4044 -1963,4013 -1978,3977 C -2000,3982 -2120,4010 -2119,4029 z " id="path57" style="fill:#000000"/><path class="fil3" d="M -1988,4315 L -1959,4388 C -2064,4584 -1876,4682 -1865,4793 C -1865,4798 -1868,4845 -1870,4843 C -1905,4808 -1973,4750 -2019,4714 C -2303,4496 -2230,4203 -2030,4041 L -2005,4067 C -2176,4139 -2239,4404 -2088,4594 C -2061,4627 -1816,4887 -1931,4716 C -2014,4590 -2085,4517 -2073,4347 C -2064,4355 -2068,4436 -2031,4473 C -2026,4439 -1991,4363 -1988,4315 z " id="path59" style="fill:#000000"/><path class="fil3" d="M -2267,4246 C -2356,4350 -2456,4534 -2265,4724 C -2364,4494 -2374,4475 -2267,4246 z " id="path61" style="fill:#000000"/><path class="fil3" d="M -2098,4119 L -2015,4057 C -2075,4063 -2201,4126 -2252,4152 C -2333,4192 -2427,4254 -2482,4313 C -2559,4396 -2593,4489 -2572,4576 C -2562,4576 -2557,4486 -2546,4457 C -2507,4349 -2247,4143 -2098,4119 z " id="path63" style="fill:#000000"/><path class="fil3" d="M -2278,5011 L -2327,5057 C -2301,4999 -2277,4951 -2295,4897 C -2322,4816 -2376,4771 -2425,4700 C -2510,4576 -2527,4482 -2415,4388 C -2374,4390 -2453,4471 -2454,4509 C -2457,4592 -2398,4676 -2341,4733 C -2313,4761 -2273,4834 -2262,4872 C -2255,4896 -2254,4925 -2262,4948 C -2264,4954 -2276,5011 -2278,5011 z " id="path65" style="fill:#000000"/><path class="fil3" d="M -1612,6365 L -1619,6313 C -1663,6334 -1814,6327 -1865,6325 C -1894,6324 -1935,6414 -2004,6478 C -1958,6500 -1895,6387 -1869,6357 C -1853,6338 -1757,6368 -1726,6369 C -1681,6370 -1648,6376 -1612,6365 z " id="path67" style="fill:#000000"/><path class="fil3" d="M -1931,7051 C -1948,7057 -1949,7138 -1953,7167 C -1957,7191 -1962,7196 -1984,7217 C -1990,7222 -2026,7245 -1991,7241 C -1966,7239 -1937,7197 -1930,7164 C -1926,7150 -1916,7046 -1931,7051 z " id="path69" style="fill:#000000"/><path class="fil3" d="M -2674,6920 C -2679,6886 -2670,6873 -2660,6864 C -2656,6860 -2636,6848 -2630,6858 C -2624,6867 -2634,6874 -2639,6877 C -2653,6884 -2659,6894 -2674,6920 z " id="path71" style="fill:#000000"/><path class="fil3" d="M -2600,6790 C -2538,6725 -2466,6841 -2451,6885 C -2432,6940 -2427,7081 -2445,7133 C -2464,7188 -2483,7238 -2554,7241 C -2693,7246 -2713,7101 -2662,7016 C -2644,6985 -2610,6951 -2580,6937 C -2569,6931 -2561,6938 -2567,6950 C -2582,6983 -2646,7026 -2649,7080 C -2654,7174 -2633,7205 -2569,7213 C -2463,7226 -2438,7000 -2480,6896 C -2490,6871 -2515,6810 -2542,6798 C -2553,6793 -2601,6796 -2600,6790 z " id="path73" style="fill:#000000"/><path class="fil3" d="M -2301,7077 C -2305,7080 -2312,7074 -2314,7071 C -2328,7051 -2262,6921 -2148,6956 C -2073,6980 -2058,7061 -2058,7124 C -2058,7153 -2073,7130 -2075,7116 C -2086,7028 -2135,6960 -2223,6984 C -2271,6997 -2295,7073 -2301,7077 z " id="path75" style="fill:#000000"/><path class="fil3" d="M -2242,6916 C -2233,6891 -2210,6885 -2184,6888 C -2171,6889 -2141,6905 -2141,6918 C -2141,6929 -2159,6913 -2164,6910 C -2172,6904 -2203,6904 -2213,6907 C -2219,6909 -2228,6916 -2231,6918 C -2237,6925 -2242,6918 -2242,6916 z " id="path77" style="fill:#000000"/><path class="fil3" d="M -1736,5580 C -1805,5728 -1999,6314 -2103,6300 C -2233,6284 -2147,6332 -2097,6327 C -2005,6319 -1821,5952 -1763,5766 C -1756,5745 -1692,5580 -1736,5580 z " id="path79" style="fill:#000000"/><path class="fil3" d="M -2230,5771 C -2283,5834 -2289,6055 -2289,6189 C -2289,6249 -2343,6248 -2367,6276 C -2405,6321 -2389,6423 -2480,6466 C -2538,6493 -2462,6501 -2438,6479 C -2389,6434 -2370,6387 -2355,6330 C -2339,6272 -2266,6265 -2261,6226 C -2256,6196 -2247,6060 -2250,6006 C -2256,5934 -2217,5783 -2230,5771 z " id="path81" style="fill:#000000"/><path class="fil3" d="M -2240,5357 C -2210,5333 -2190,5320 -2166,5313 C -2125,5300 -2094,5308 -2052,5313 C -2012,5317 -2018,5292 -2045,5279 C -2099,5253 -2219,5282 -2240,5357 z " id="path83" style="fill:#000000"/><path class="fil3" d="M -2200,5607 L -2230,5598 C -2222,5631 -2229,5661 -2253,5685 C -2259,5692 -2248,5706 -2240,5698 C -2214,5672 -2200,5644 -2200,5607 z " id="path85" style="fill:#000000"/><path class="fil3" d="M -2341,5435 C -2328,5447 -2343,5473 -2343,5492 C -2343,5544 -2336,5552 -2315,5594 C -2298,5628 -2307,5635 -2313,5656 C -2317,5670 -2328,5661 -2324,5635 C -2320,5614 -2367,5544 -2369,5502 C -2371,5464 -2345,5431 -2341,5435 z " id="path87" style="fill:#000000"/><path class="fil3" d="M -1173,5940 L -1249,6146 C -1129,6074 -1044,5809 -1035,5759 C -1028,5717 -1013,5639 -1024,5637 C -1041,5633 -1045,5689 -1053,5714 C -1074,5781 -1096,5870 -1173,5940 z " id="path89" style="fill:#000000"/><path class="fil3" d="M -1250,6092 L -1273,6167 C -1113,6077 -1021,5960 -901,5825 C -883,5805 -912,5801 -937,5827 C -1026,5925 -1125,6040 -1250,6092 z " id="path91" style="fill:#000000"/><path class="fil3" d="M -1374,4681 C -1369,4576 -1437,4490 -1418,4475 C -1408,4468 -1333,4595 -1340,4687 C -1344,4749 -1421,4892 -1432,4871 C -1443,4851 -1378,4780 -1374,4681 z " id="path93" style="fill:#000000"/><path class="fil3" d="M -1494,4767 C -1475,4704 -1511,4675 -1498,4670 C -1490,4667 -1460,4734 -1473,4781 C -1488,4831 -1540,4865 -1542,4851 C -1545,4838 -1511,4826 -1494,4767 z " id="path95" style="fill:#000000"/><path class="fil3" d="M -1485,4057 L -1470,4032 C -1090,4047 -926,3944 -531,4262 C -520,4272 -534,4288 -549,4279 C -574,4266 -625,4218 -706,4165 C -826,4086 -917,4063 -1085,4053 C -1166,4048 -1368,4055 -1485,4057 z " id="path97" style="fill:#000000"/><path class="fil3" d="M -1473,4124 L -1488,4147 C -1264,4187 -1157,4278 -1041,4474 C -1041,4474 -1005,4529 -1008,4508 C -1089,4257 -1298,4158 -1473,4124 z " id="path99" style="fill:#000000"/><path class="fil3" d="M -1486,4243 L -1496,4270 C -1299,4273 -1214,4378 -1120,4521 C -1081,4580 -1048,4779 -1141,4924 C -919,4859 -834,4719 -833,4456 C -738,4531 -564,4685 -521,4821 C -479,4954 -444,4977 -455,5317 C -324,5241 -246,5010 -220,4873 C 38,4929 236,5487 173,5687 C 132,5818 69,5904 -4,6018 C -41,6076 -155,6234 -211,6325 C -390,6613 -434,6780 -434,6882 C -434,6949 -437,7163 -343,7168 C -346,6890 -188,6689 -58,6562 C 20,6485 359,6177 407,6092 C 523,5889 586,5533 586,5385 C 586,5329 565,5275 546,5245 C 540,5235 528,5242 530,5248 C 612,5479 453,5920 357,6072 C 260,6226 63,6370 -124,6568 C -223,6673 -304,6809 -375,6961 C -360,6790 -148,6543 -45,6417 C 113,6254 284,5996 333,5891 C 404,5737 418,5506 406,5359 C 372,5187 368,5152 319,5059 C 310,5042 289,5052 294,5067 C 432,5437 394,5767 206,6027 C 133,6126 40,6219 -52,6338 C -151,6464 -254,6616 -369,6812 C -354,6701 -321,6646 -280,6552 C -108,6157 256,5890 278,5479 C 296,5150 129,4940 -30,4775 C 58,4930 167,5028 219,5183 C 276,5356 259,5517 224,5623 C 198,5399 144,5228 105,5145 C 36,5002 -58,4851 -215,4826 C -208,4720 -235,4643 -260,4550 C -227,4583 -152,4661 -91,4697 C -97,4663 -249,4527 -280,4497 C -312,4465 -401,4388 -462,4348 C -371,4471 -302,4514 -266,4673 C -233,4823 -278,4990 -323,5085 C -321,4874 -365,4710 -477,4542 C -570,4402 -823,4213 -981,4148 C -793,4310 -602,4387 -468,4623 C -387,4766 -312,5086 -409,5231 C -415,4835 -491,4721 -678,4533 C -726,4486 -1016,4249 -1108,4196 C -997,4336 -919,4375 -920,4601 C -921,4695 -989,4825 -1065,4859 C -1024,4659 -1028,4572 -1114,4449 C -1209,4314 -1320,4243 -1486,4243 z " id="path101" style="fill:#000000"/><path class="fil2" d="M -904,4688 C -891,4573 -881,4467 -937,4372 C -830,4404 -847,4562 -904,4688 z " id="path103" style="fill:#ffffff"/><path class="fil3" d="M -1231,6120 L -1180,6057 C -1068,6327 -1059,6678 -1089,6998 C -1132,7448 -1244,7940 -1273,8397 C -1298,8794 -1052,9374 -858,9672 L -966,9687 C -959,9669 -951,9637 -966,9612 C -1207,9203 -1461,8845 -1287,7891 C -1203,7437 -1005,6598 -1231,6120 z " id="path105" style="fill:#000000"/><path class="fil3" d="M 410,6045 L 441,5976 C 454,6231 485,6574 554,6701 C 668,6913 820,7148 843,7405 C 868,7689 785,7963 715,8168 C 684,8256 638,8416 638,8522 C 638,8586 602,8733 757,8899 C 720,8748 703,8551 733,8352 C 745,8279 845,7957 871,7842 C 871,7845 908,7643 908,7610 C 908,7535 922,7456 908,7375 C 884,7234 827,7008 753,6880 C 670,6736 541,6324 549,6146 C 549,6136 559,6118 560,6127 C 611,6518 755,6781 886,7103 C 946,7251 950,7324 953,7561 C 959,7927 623,8396 811,8837 C 812,8715 824,8531 839,8426 C 863,8270 948,8137 1002,8000 C 1042,7899 1083,7729 1088,7621 C 1107,7162 843,6981 747,6534 C 746,6528 754,6529 754,6523 C 834,6678 961,6968 1038,7154 C 1157,7441 1132,7617 1085,7864 C 1205,7740 1252,7589 1245,7419 C 1242,7361 1199,7260 1180,7202 C 1142,7089 1069,6947 1013,6843 C 1010,6838 1005,6832 1010,6824 C 1060,6876 1144,7031 1176,7104 C 1182,7118 1266,7274 1287,7468 C 1322,7406 1352,7321 1352,7244 C 1352,7205 1340,7100 1324,7049 C 1287,6929 1174,6776 1142,6732 C 1068,6631 1044,6504 1003,6381 C 957,6246 855,6039 742,5834 C 738,5828 730,5806 735,5810 C 884,5908 1014,6304 1084,6483 C 1139,6624 1203,6741 1294,6820 C 1323,6845 1486,6974 1494,6948 C 1500,6926 1397,6827 1309,6691 C 1248,6596 1180,6494 1156,6379 C 1147,6339 1200,6443 1207,6459 C 1282,6607 1559,7048 1739,6959 C 1666,6956 1546,6854 1465,6715 C 1382,6572 1304,6400 1232,6312 C 1138,6195 926,5946 877,5707 C 897,5753 1030,5941 1069,5980 C 1121,6032 1211,6070 1322,6070 C 1374,6070 1449,6063 1490,6037 C 1360,6044 1166,5895 1069,5798 C 1026,5755 728,5417 773,5424 C 850,5508 1354,6178 1576,5956 C 1199,5928 968,5499 776,5263 C 737,5198 586,5025 533,4981 C 490,4944 427,4902 387,4873 C 344,4841 329,4824 415,4826 C 434,4826 568,4918 643,5005 C 692,5063 777,5178 823,5241 C 895,5339 1045,5571 1121,5581 C 1256,5599 1478,5526 1471,5361 C 1228,5401 1145,5292 1019,5166 C 889,5036 671,4775 498,4746 L 627,4730 C 796,4812 913,4980 1070,5137 C 1145,5213 1202,5277 1302,5309 C 1335,5320 1480,5312 1532,5289 C 1580,5570 1351,5624 1151,5646 C 1235,5761 1515,5897 1663,5908 C 1651,6114 1304,6132 1170,6099 C 1267,6241 1392,6397 1467,6547 C 1520,6653 1715,6954 1849,6967 C 1698,7031 1559,7019 1375,6986 C 1529,7305 1233,7737 1102,7931 C 925,8192 831,8551 856,9029 C 595,8898 566,8652 613,8390 C 645,8206 790,7787 803,7603 C 811,7494 773,7141 643,6948 C 417,6612 427,6447 410,6045 z " id="path107" style="fill:#000000"/><path class="fil3" d="M 460,6526 L 566,6779 C 504,7193 350,7663 -107,7782 C 149,7944 399,7717 447,7672 C 650,7487 741,7268 715,7077 L 762,7203 C 774,7345 680,7477 549,7626 C 309,7901 -34,7959 -207,7751 C 213,7748 483,7230 501,6835 C 506,6726 460,6622 460,6526 z " id="path109" style="fill:#000000"/><path class="fil3" d="M 718,7052 L 577,6787 L 555,6813 C 611,7097 428,7419 361,7521 C 428,7496 477,7392 505,7335 C 563,7222 595,7049 616,6917 C 755,7108 596,7324 548,7411 C 435,7610 201,7737 152,7760 C 144,7764 162,7771 172,7769 C 271,7748 397,7658 506,7527 C 635,7371 728,7167 718,7052 z " id="path111" style="fill:#000000"/><path class="fil3" d="M -2517,9974 L -2594,10060 C -2837,10050 -2947,10200 -3157,10389 C -3284,10503 -3552,10862 -3635,10799 C -3716,10738 -3711,10714 -3782,10794 C -3824,10841 -3877,10932 -3877,11010 C -3877,11099 -3857,11185 -3862,11279 C -4004,11443 -4306,11636 -4555,11655 C -4578,11536 -4602,11340 -4568,11218 C -4409,10660 -3718,10262 -3093,9733 C -2627,9340 -2279,9267 -1826,9408 C -1626,9470 -1371,9418 -984,9511 L -919,9656 C -1002,9554 -1292,9547 -1571,9520 C -1789,9499 -2002,9410 -2122,9393 C -2417,9351 -2812,9594 -3111,9860 C -3095,9839 -3328,10059 -3530,10192 C -3656,10276 -3752,10376 -3818,10406 C -3930,10457 -3956,10469 -4039,10593 C -4127,10724 -4431,10910 -4498,11277 C -4513,11360 -4520,11504 -4491,11589 C -4387,11582 -4148,11450 -4064,11392 C -3846,11242 -3970,11174 -3925,10946 C -3904,10838 -3797,10631 -3679,10666 C -3620,10684 -3614,10774 -3542,10701 L -3019,10172 C -2926,10094 -2873,10044 -2748,10023 C -2653,10008 -2595,10012 -2517,9974 z " id="path113" style="fill:#000000"/><path class="fil3" d="M -726,9724 C -676,9737 -615,9746 -565,9763 C -527,9776 -553,9809 -568,9809 C -596,9809 -622,9808 -648,9798 C -696,9780 -757,9759 -808,9749 C -909,9730 -1009,9740 -1114,9744 C -1196,9747 -1284,9771 -1365,9778 C -1485,9790 -1714,9818 -1832,9778 C -1942,9741 -2092,9743 -2236,9838 C -2295,9877 -2346,9921 -2414,9967 C -2434,9981 -2487,10003 -2544,10044 C -2665,10241 -2960,10748 -3127,10876 C -3245,10967 -3496,11178 -3573,11360 C -3621,11477 -3806,11730 -3839,11865 C -3877,12020 -3917,12193 -3855,12393 C -3692,12378 -3401,12150 -3346,12046 C -3346,11916 -3396,11660 -3310,11541 C -3290,11513 -3234,11448 -3204,11434 C -3244,11407 -3276,11338 -3255,11299 C -3250,11288 -3235,11279 -3223,11289 C -3268,11361 -3160,11427 -3146,11438 C -3062,11502 -2854,11140 -2814,11068 C -2742,10936 -2570,10551 -2439,10530 C -2450,10504 -2544,10469 -2544,10450 C -2544,10435 -2533,10437 -2522,10437 C -2493,10456 -2452,10468 -2377,10467 C -2188,10465 -1946,10350 -1806,10238 C -1797,10230 -1684,10118 -1686,10179 C -1703,10207 -1787,10294 -1825,10318 C -1742,10429 -1375,10558 -1317,10572 C -1131,10617 -813,10643 -641,10649 C -594,10650 -514,10699 -453,10718 C -381,10740 -173,10760 -99,10708 C -59,10691 195,10573 224,10552 C 258,10527 303,10496 337,10479 C 369,10463 393,10486 364,10507 C 302,10554 189,10634 134,10670 C 161,10674 291,10645 377,10607 C 390,10601 400,10615 401,10617 C 386,10681 176,10711 113,10716 C 312,10902 969,11121 1113,11155 L 1043,11196 C 702,11116 263,10917 10,10726 C -58,10739 -130,10800 -197,10800 C -274,10800 -353,10798 -420,10783 C -531,10758 -552,10697 -891,10687 C -1317,10675 -1545,10603 -1894,10354 C -2015,10458 -2273,10522 -2371,10542 C -2598,10707 -2632,10904 -2740,11082 C -2792,11168 -2938,11587 -3209,11507 C -3358,11636 -3301,11847 -3282,12055 C -3333,12224 -3764,12501 -3906,12454 C -3946,12406 -3962,12126 -3945,12052 C -3847,11635 -3756,11596 -3691,11482 C -3645,11402 -3621,11331 -3584,11273 C -3435,11037 -3280,10962 -3080,10762 C -3028,10710 -2962,10603 -2911,10529 C -2822,10401 -2752,10270 -2680,10165 C -2550,9975 -2501,9948 -2418,9898 C -2313,9835 -2210,9727 -2081,9707 C -2029,9698 -1945,9700 -1918,9708 C -1859,9726 -1787,9740 -1724,9743 C -1652,9747 -1566,9741 -1493,9734 C -1414,9727 -959,9675 -893,9675 C -793,9674 -726,9658 -677,9641 C -635,9628 -589,9603 -546,9595 C -395,9568 -304,9505 -190,9418 C -132,9374 8,9408 -104,9433 C -179,9450 -417,9598 -168,9580 C -150,9578 -167,9602 -173,9602 C -289,9619 -681,9649 -726,9724 z " id="path115" style="fill:#000000"/><path class="fil3" d="M -2266,9702 C -2253,9684 -2246,9714 -2263,9732 C -2290,9759 -2494,9924 -2552,9921 C -2575,9920 -2561,9906 -2552,9903 C -2475,9880 -2300,9750 -2266,9702 z " id="path117" style="fill:#000000"/><path class="fil3" d="M -601,9626 L -656,9644 C -733,9419 -805,9255 -862,9054 C -898,8928 -803,8757 -714,8690 C -652,8691 -703,8715 -718,8737 C -771,8809 -843,8924 -824,9014 C -775,9248 -704,9364 -601,9626 z " id="path119" style="fill:#000000"/><path class="fil3" d="M -2815,10056 L -2743,10031 C -2826,10004 -2876,9951 -2964,9994 C -3050,10037 -3152,10115 -3224,10187 C -3256,10219 -3410,10375 -3427,10402 C -3436,10415 -3446,10472 -3423,10449 C -3351,10377 -3253,10264 -3179,10186 C -3105,10107 -3042,10053 -2926,10013 C -2870,9993 -2839,10027 -2815,10056 z " id="path121" style="fill:#000000"/><path class="fil3" d="M -2911,9989 L -2955,10000 C -2930,9988 -2941,9953 -2920,9941 C -2914,9938 -2910,9970 -2911,9989 z " id="path123" style="fill:#000000"/><path class="fil3" d="M -2015,10291 C -1996,10272 -1995,10304 -2019,10324 C -2055,10355 -2377,10474 -2447,10443 C -2473,10431 -2457,10421 -2446,10423 C -2345,10436 -2071,10347 -2015,10291 z " id="path125" style="fill:#000000"/><path class="fil3" d="M -2555,10552 C -2612,10510 -2908,11059 -2965,11193 C -2974,11214 -2951,11207 -2949,11203 C -2871,11049 -2668,10669 -2555,10564 C -2551,10560 -2558,10556 -2555,10552 z " id="path127" style="fill:#000000"/><path class="fil3" d="M -3279,11413 C -3307,11385 -3449,11565 -3467,11631 C -3469,11640 -3455,11633 -3454,11632 C -3420,11568 -3335,11450 -3279,11418 C -3277,11416 -3280,11414 -3279,11413 z " id="path129" style="fill:#000000"/><path class="fil3" d="M -3819,10634 C -3852,10604 -4001,10815 -4018,10890 C -4020,10901 -4004,10892 -4003,10890 C -3969,10817 -3880,10679 -3819,10640 C -3817,10638 -3821,10636 -3819,10634 z " id="path131" style="fill:#000000"/><path class="fil3" d="M -3715,10675 L -3680,10674 C -3685,10629 -3692,10575 -3703,10557 C -3710,10547 -3725,10549 -3726,10558 C -3731,10591 -3706,10614 -3715,10675 z " id="path133" style="fill:#000000"/><path class="fil3" d="M -3639,11675 C -3656,11657 -3743,11765 -3755,11806 C -3756,11811 -3747,11807 -3746,11807 C -3719,11771 -3667,11708 -3640,11681 C -3637,11678 -3640,11675 -3639,11675 z " id="path135" style="fill:#000000"/><path class="fil3" d="M -3622,11722 C -3646,11720 -3660,11808 -3644,11832 C -3642,11836 -3638,11831 -3638,11830 C -3636,11803 -3628,11750 -3621,11726 C -3620,11724 -3623,11723 -3622,11722 z " id="path137" style="fill:#000000"/><path class="fil3" d="M -3551,11755 C -3571,11754 -3573,11825 -3557,11845 C -3555,11847 -3552,11843 -3552,11842 C -3554,11820 -3553,11778 -3549,11758 C -3548,11756 -3551,11755 -3551,11755 z " id="path139" style="fill:#000000"/><path class="fil3" d="M -3442,11891 C -3413,11863 -3466,11784 -3501,11767 C -3506,11764 -3513,11772 -3508,11778 C -3487,11802 -3459,11844 -3452,11886 C -3451,11889 -3444,11891 -3442,11891 z " id="path141" style="fill:#000000"/><path class="fil3" d="M -4226,10907 C -4241,10886 -4352,11004 -4357,11054 C -4357,11060 -4346,11059 -4345,11058 C -4318,11017 -4259,10947 -4223,10916 C -4221,10914 -4224,10909 -4226,10907 z " id="path143" style="fill:#000000"/><path class="fil3" d="M -4179,10963 C -4190,10950 -4258,11037 -4258,11070 C -4258,11075 -4250,11073 -4250,11073 C -4234,11043 -4199,10992 -4176,10969 C -4175,10967 -4178,10964 -4179,10963 z " id="path145" style="fill:#000000"/><path class="fil3" d="M -4093,11025 C -4106,11012 -4152,11059 -4141,11083 C -4139,11088 -4126,11087 -4125,11085 C -4114,11064 -4105,11050 -4092,11037 C -4091,11035 -4090,11027 -4093,11025 z " id="path147" style="fill:#000000"/><path class="fil3" d="M -1204,9840 C -1231,9848 -1230,9818 -1201,9807 C -1136,9780 -799,9797 -746,9859 C -728,9881 -747,9889 -757,9884 C -844,9837 -1132,9816 -1204,9840 z " id="path149" style="fill:#000000"/><path class="fil3" d="M -519,10578 C -519,10576 -517,10571 -511,10571 C -474,10574 -419,10628 -335,10630 C -282,10632 -217,10632 -170,10619 C -94,10598 -15,10511 86,10511 C 142,10510 144,10554 119,10547 C 61,10532 15,10562 -27,10583 C -107,10623 -170,10658 -270,10660 C -373,10663 -519,10630 -519,10578 z " id="path151" style="fill:#000000"/><path class="fil3" d="M 358,10745 C 357,10748 356,10754 359,10762 C 419,10803 588,10869 707,10926 C 732,10938 907,11013 921,11001 C 949,10977 736,10911 644,10867 C 546,10820 381,10728 358,10745 z " id="path153" style="fill:#000000"/><path class="fil3" d="M 472,4746 L 335,4732 C 586,4796 729,5007 897,5175 C 968,5246 1114,5399 1217,5434 C 1267,5451 1472,5432 1498,5366 L 1474,5328 L 1425,5332 C 1431,5394 1270,5429 1201,5387 C 1047,5292 1012,5236 881,5105 C 765,4989 635,4802 472,4746 z " id="path155" style="fill:#000000"/><path class="fil3" d="M 959,6708 C 965,6717 970,6740 966,6742 C 960,6744 947,6717 945,6714 C 941,6709 936,6700 936,6693 C 937,6677 954,6700 959,6708 z " id="path157" style="fill:#000000"/><path class="fil3" d="M 1730,7789 L 1661,7712 C 1616,7665 1439,7427 1381,7361 L 1350,7417 C 1448,7584 1523,7752 1730,7789 z " id="path159" style="fill:#000000"/><path class="fil3" d="M 3326,11516 L 3262,11437 C 2633,11383 2096,11357 1631,11247 L 1559,11288 C 2130,11471 2742,11438 3326,11516 z " id="path161" style="fill:#000000"/><path class="fil3" d="M 2967,11142 L 3018,11157 L 3016,11208 C 3241,11280 3442,11591 3542,11760 C 3589,11840 3900,12317 3999,12388 C 4226,12550 4458,12758 4627,12994 C 4756,13173 5006,13504 5249,13569 C 5241,13674 5595,14188 5591,14425 C 5611,14615 5547,15032 5522,15246 C 5503,15411 5343,15602 5320,15676 C 5239,15927 4927,16007 4791,16130 C 4654,16255 4484,16460 4456,16658 C 4657,16670 4952,16702 5205,16635 C 5257,16543 5276,16424 5277,16354 C 5281,16127 5342,16117 5387,16064 C 5486,15946 5507,15969 5702,15960 C 5808,15954 5942,15855 5945,15685 C 5950,15399 5883,15107 5883,14826 C 5883,14488 5926,14106 6041,13712 C 6061,13645 5999,13456 5955,13368 C 5863,13211 5753,13164 5673,13068 C 5556,12930 5378,12707 5531,12504 C 5560,12466 5525,12343 5569,12290 C 5831,11975 5860,11935 5903,11873 C 6152,11512 6360,10746 6253,10302 C 6150,9871 5809,9160 5456,8984 C 5031,8772 4832,8866 4435,8888 C 4134,8905 3931,8844 3666,8808 L 3826,8747 C 4454,8952 4873,8560 5509,8898 C 5852,9080 6149,9724 6245,9972 C 6414,10405 6380,10642 6313,11050 C 6180,11703 5897,12035 5817,12141 C 5647,12365 5623,12277 5623,12496 C 5623,12590 5536,12634 5560,12742 C 5601,12931 5790,13062 5932,13194 C 6016,13272 6159,13491 6118,13710 C 6055,14046 5979,14281 5961,14701 C 5952,14897 5967,15137 5985,15326 C 5995,15435 5998,15554 5998,15662 C 5998,15766 5945,15890 5911,15924 C 5749,16087 5602,15987 5508,16038 C 5455,16067 5391,16141 5375,16207 C 5360,16269 5349,16355 5337,16454 C 5324,16556 5282,16689 5258,16696 C 5073,16748 4592,16763 4357,16688 C 4435,16460 4558,16213 4762,16064 C 4921,15947 5095,15880 5163,15787 C 5367,15504 5392,15421 5442,15305 C 5475,15106 5572,14529 5500,14335 C 5427,14136 5327,13835 5184,13654 C 5070,13574 4970,13501 4835,13360 C 4681,13197 4482,12880 4308,12721 C 4179,12594 3901,12403 3845,12330 C 3738,12189 3608,12035 3523,11877 C 3383,11614 3228,11360 2970,11218 C 2969,11191 2967,11169 2967,11142 z " id="path163" style="fill:#000000"/><path class="fil3" d="M 3917,12378 L 4036,12457 C 4036,12704 4343,12904 4502,13102 C 4556,13169 4670,13328 4685,13442 C 4701,13553 4819,13668 4863,13746 C 4990,14021 4785,14480 4674,14731 C 4621,14852 4447,15076 4363,15168 C 4310,15226 4279,15245 4243,15321 C 4226,15357 4197,15506 4129,15517 C 4053,15547 3959,15587 3882,15617 C 3770,15662 3675,15706 3596,15790 C 3554,15833 3479,16040 3449,16124 C 3449,16125 3575,16142 3582,16142 C 3788,16162 3950,16177 4194,16150 C 4229,16092 4264,16002 4264,15930 C 4264,15861 4267,15766 4304,15710 C 4353,15636 4476,15531 4527,15507 C 4543,15419 4472,15419 4423,15447 C 4381,15471 4315,15553 4280,15589 C 4266,15603 4211,15677 4203,15631 C 4282,15555 4343,15475 4430,15418 C 4463,15396 4510,15403 4525,15416 C 4555,15442 4547,15490 4575,15506 C 4618,15530 4697,15532 4739,15514 C 4767,15503 4779,15464 4787,15423 C 4822,15261 4894,15059 4950,14922 C 5062,14648 5295,14297 5427,14061 L 5458,14168 C 5387,14218 5065,14895 5007,14998 C 4935,15126 4906,15343 4867,15446 C 4796,15635 4758,15587 4557,15584 C 4460,15627 4333,15742 4333,15843 C 4333,15977 4305,16099 4255,16208 C 4113,16230 3606,16251 3351,16146 C 3483,15862 3443,15743 3755,15591 C 3866,15537 4010,15509 4087,15437 C 4163,15366 4176,15248 4243,15190 C 4496,14964 4832,14373 4814,13857 C 4790,13788 4699,13683 4647,13582 C 4596,13480 4560,13340 4545,13303 C 4460,13086 4170,12940 4074,12760 C 4018,12655 3937,12491 3917,12378 z " id="path165" style="fill:#000000"/><path class="fil3" d="M 5771,15847 C 5731,15876 5658,15891 5616,15861 C 5592,15844 5527,15820 5481,15824 C 5412,15829 5343,15929 5308,15979 C 5290,16005 5259,16033 5247,16059 C 5208,16144 5290,16051 5309,16023 C 5357,15955 5409,15833 5523,15852 C 5581,15862 5626,15901 5694,15901 C 5722,15901 5743,15893 5763,15880 C 5772,15873 5799,15846 5771,15847 z " id="path167" style="fill:#000000"/><path class="fil3" d="M 5421,14077 L 5304,13821 C 5323,13867 5339,13986 5318,14029 C 5298,14071 5246,14132 5177,14129 C 5178,14227 5153,14278 5115,14378 C 5132,14370 5171,14296 5177,14276 C 5187,14244 5203,14196 5205,14162 C 5247,14142 5308,14108 5325,14077 C 5355,14020 5390,14045 5421,14077 z " id="path169" style="fill:#000000"/><path class="fil4" d="M 5086,14453 C 5070,14476 5057,14506 5044,14532 C 5037,14544 5022,14568 5022,14579 C 5022,14612 5060,14535 5061,14532 C 5067,14521 5105,14455 5086,14453 z " id="path171" style="fill:#191919"/><path class="fil4" d="M 4823,15084 C 4843,15062 4906,14909 4916,14883 C 4928,14855 4970,14728 4968,14717 C 4960,14681 4918,14820 4895,14872 C 4877,14914 4804,15076 4823,15084 z " id="path173" style="fill:#191919"/><path class="fil4" d="M 4656,12876 C 4662,12913 4725,13012 4813,13122 C 4900,13231 5053,13363 5069,13358 C 5098,13348 4914,13202 4835,13101 C 4787,13040 4671,12862 4656,12876 z " id="path175" style="fill:#191919"/><path class="fil4" d="M 5427,13826 C 5422,13858 5422,13865 5455,13948 C 5517,14101 5539,14112 5555,14112 C 5586,14113 5543,14080 5496,13967 C 5467,13896 5446,13820 5427,13826 z " id="path177" style="fill:#191919"/><path class="fil4" d="M 4799,16201 C 4823,16226 4923,16163 4942,16152 C 4962,16141 5043,16073 5038,16058 C 5029,16030 4958,16104 4920,16124 C 4890,16140 4792,16181 4799,16201 z " id="path179" style="fill:#191919"/><path class="fil3" d="M 5008,16163 C 4992,16152 4971,16174 4953,16188 C 4922,16214 4922,16236 4937,16229 C 4943,16226 4949,16216 4968,16200 C 4994,16179 5015,16167 5008,16163 z " id="path181" style="fill:#000000"/><path class="fil3" d="M 5050,16221 C 5034,16210 5020,16225 5002,16239 C 4971,16265 4976,16287 4988,16281 C 4994,16278 4997,16267 5016,16252 C 5042,16231 5057,16225 5050,16221 z " id="path183" style="fill:#000000"/><path class="fil3" d="M 5110,16299 C 5097,16290 5088,16304 5074,16316 C 5050,16336 5053,16353 5063,16348 C 5067,16345 5069,16340 5085,16327 C 5105,16310 5116,16303 5110,16299 z " id="path185" style="fill:#000000"/><path class="fil3" d="M 5159,16344 C 5146,16335 5141,16349 5129,16362 C 5106,16386 5106,16382 5111,16393 C 5113,16396 5117,16383 5133,16370 C 5154,16353 5165,16348 5159,16344 z " id="path187" style="fill:#000000"/><path class="fil3" d="M 5212,16399 C 5200,16391 5191,16401 5181,16411 C 5161,16431 5165,16430 5169,16439 C 5171,16442 5175,16431 5189,16421 C 5208,16407 5217,16402 5212,16399 z " id="path189" style="fill:#000000"/><path class="fil3" d="M 6132,10304 C 6126,10567 6146,10928 6096,11144 C 6054,11329 5957,11542 5868,11702 C 5750,11913 5914,11724 5995,11567 C 6056,11446 6124,11249 6160,11040 C 6177,10940 6199,10477 6132,10304 z " id="path191" style="fill:#000000"/><path class="fil3" d="M 4421,8969 C 4403,8954 4373,8972 4346,8975 C 4308,8980 4294,8986 4264,8989 C 4257,8990 4226,8991 4254,9004 C 4283,9016 4334,9003 4359,9000 C 4366,8999 4423,8984 4421,8969 z " id="path193" style="fill:#000000"/><path class="fil3" d="M 4035,8993 C 4044,9008 4079,9021 4132,9026 C 4154,9028 4176,9025 4199,9025 C 4223,9025 4195,9006 4185,9005 C 4149,8998 4065,8984 4035,8993 z " id="path195" style="fill:#000000"/><path class="fil3" d="M 5696,9107 L 5771,9185 C 6186,9198 6763,9180 7076,9509 C 7260,9703 7434,9929 7494,10189 C 7528,10333 7556,10475 7570,10626 C 7573,10653 7597,10882 7593,10987 C 7549,10878 7507,10704 7499,10663 C 7473,10520 7444,10376 7412,10234 C 7375,10066 7213,9709 7037,9651 C 7325,9896 7420,10377 7469,10705 C 7498,10917 7558,11067 7601,11138 C 7689,11285 7801,11427 7989,11397 C 7996,11450 7929,11516 7898,11538 C 7865,11562 7781,11569 7735,11562 C 7561,11535 7534,11366 7490,11259 C 7449,11158 7400,10890 7391,10813 C 7367,10601 7324,10482 7257,10326 C 7251,10311 7145,10095 7155,10200 C 7367,10522 7364,10959 7415,11123 C 7472,11306 7523,11658 7842,11629 C 7983,11616 8069,11454 8090,11325 C 7586,11342 7691,10960 7635,10528 C 7600,10268 7561,9993 7429,9795 C 6977,9119 6577,9156 5696,9107 z " id="path197" style="fill:#000000"/><path class="fil3" d="M 4473,8973 C 4617,8913 4743,8928 4880,8939 C 4992,8949 5193,9016 5282,9081 C 5292,9088 5252,9083 5247,9082 C 5064,9022 4970,8978 4815,8963 C 4744,8956 4678,8953 4603,8961 C 4578,8964 4487,8988 4473,8973 z " id="path199" style="fill:#000000"/><path class="fil3" d="M 5952,9441 L 5920,9380 C 6153,9438 6362,9551 6481,9713 C 6644,9934 6695,10215 6702,10345 C 6742,11020 6531,11715 6409,12419 C 6337,12828 6315,13268 6659,13745 C 6894,14069 7088,14561 7040,14963 C 7147,14911 7420,14600 7442,14350 C 7462,14121 7448,13869 7428,13774 C 7397,13628 7299,13427 7251,13292 C 7153,13014 7033,12638 7072,12317 C 7080,12449 7112,12604 7131,12727 C 7162,12924 7221,13149 7329,13353 C 7381,13452 7481,13600 7609,13600 C 7669,13600 7769,13562 7832,13490 C 7698,13467 7581,13339 7534,13254 C 7497,13188 7420,12984 7402,12912 C 7372,12791 7330,12305 7329,12147 C 7325,11739 7343,11357 7183,10747 C 7221,10820 7291,11023 7305,11140 C 7345,11460 7371,11803 7371,12132 C 7371,12418 7492,12701 7793,12720 C 7676,12669 7557,12251 7555,12113 C 7552,11938 7550,11694 7653,11563 L 7701,11579 C 7670,11638 7639,11744 7636,11842 C 7629,12203 7657,12586 7930,12721 C 7747,12882 7515,12700 7435,12600 C 7435,12879 7587,13418 7941,13418 C 7910,13642 7639,13729 7460,13635 C 7560,13861 7552,14174 7498,14440 C 7467,14598 7146,15092 6957,15084 C 7088,14338 6574,13931 6368,13320 C 6299,13117 6268,12891 6302,12622 C 6331,12389 6417,11980 6513,11535 C 6704,10643 6774,9608 5952,9441 z " id="path201" style="fill:#000000"/><path class="fil3" d="M 7683,13606 L 7612,13616 C 7550,13565 7429,13427 7385,13293 C 7350,13184 7317,13074 7300,12962 C 7337,12947 7371,13187 7414,13266 C 7432,13298 7468,13458 7683,13606 z " id="path203" style="fill:#000000"/><path class="fil3" d="M 7223,14821 L 7171,14867 C 7184,14458 6963,14019 6853,13835 C 6736,13639 6498,13232 6477,13011 C 6427,12478 6530,12061 6658,11650 C 6595,11947 6460,12494 6501,12954 C 6529,13267 6822,13692 6950,13948 C 7096,14238 7206,14448 7223,14821 z " id="path205" style="fill:#000000"/><path class="fil3" d="M 7067,11426 C 7073,11350 7082,11278 7056,11197 C 7043,11258 7063,11345 7040,11408 C 7031,11432 7064,11437 7067,11426 z " id="path207" style="fill:#000000"/><path class="fil3" d="M 6525,9685 C 6595,9718 6734,10050 6755,10134 C 6812,10370 6845,10602 6845,10849 C 6869,10426 6825,10322 6802,10185 C 6775,10019 6571,9611 6525,9685 z " id="path209" style="fill:#000000"/><path class="fil3" d="M 5894,9307 L 5934,9380 C 6017,9373 6180,9428 6255,9466 C 6309,9493 6448,9600 6428,9554 C 6415,9525 6219,9427 6175,9412 C 6097,9385 5944,9350 5894,9307 z " id="path211" style="fill:#000000"/><path class="fil3" d="M 5883,9307 L 5811,9171 C 5830,9177 5839,9238 5908,9261 C 6001,9292 6132,9328 6268,9376 C 6481,9449 6700,9566 6760,9683 C 6771,9703 6638,9589 6617,9575 C 6416,9444 6128,9323 5883,9307 z " id="path213" style="fill:#000000"/><path class="fil3" d="M 3903,8821 C 3862,9017 3915,9258 3958,9454 C 4019,9728 4239,10364 4325,10648 C 4397,10884 4403,11389 4365,11731 C 3650,11426 2152,10882 1352,10566 C 1068,10454 902,10304 866,10264 C 744,10130 637,9958 632,9774 C 626,9524 893,9242 981,9140 C 1286,8789 1786,8142 1682,7730 L 2195,8422 L 3222,8864 L 3903,8821 z " id="path215" style="fill:#000000"/><path class="fil5" d="M 3836,8810 C 3764,9215 4013,9919 4134,10245 C 4307,10709 4321,11089 4310,11650 C 3271,11155 1595,10665 1144,10378 C 1003,10288 751,10077 716,9836 C 683,9604 859,9371 1091,9122 C 1261,8941 1388,8742 1454,8637 C 1631,8355 1733,8219 1801,7840 L 2505,8687 L 3836,8810 z " id="path217" style="fill:#d32820"/><path class="fil3" d="M 3796,8639 L 3359,8642 L 2144,8173 L 1809,7774 C 1868,8036 1731,8400 1658,8606 C 1547,8915 1320,9284 1288,9616 C 1250,10010 1332,10272 1754,10515 C 2327,10844 2820,10701 3024,10529 C 3499,10128 3551,9140 3796,8639 z " id="path219" style="fill:#000000"/><path class="fil6" d="M 3648,8637 L 1875,8058 C 1824,8519 1431,9115 1348,9625 C 1295,9956 1439,10331 1963,10571 C 2413,10777 2827,10629 3027,10419 C 3429,9999 3556,9092 3648,8637 z " id="path221" style="fill:#fff500"/><path class="fil3" d="M 2360,10412 C 2236,10734 1853,11147 1568,11335 C 1360,11317 1158,11287 979,11207 C 1385,10937 1628,10682 1829,10275 C 1970,10320 2204,10437 2360,10412 z " id="path223" style="fill:#000000"/><path class="fil6" d="M 1547,11256 C 1849,11041 2119,10725 2273,10455 C 2168,10437 1958,10375 1869,10335 C 1717,10660 1314,11087 1131,11182 C 1281,11224 1401,11246 1547,11256 z " id="path225" style="fill:#fff500"/><path class="fil3" d="M 1971,10345 L 1943,10330 C 1768,10679 1672,10805 1455,11010 C 1450,11015 1466,11029 1479,11017 C 1830,10702 1919,10452 1971,10345 z " id="path227" style="fill:#000000"/><path class="fil3" d="M 1141,11247 L 1086,11233 C 1198,11203 1294,11139 1411,11047 C 1417,11042 1428,11060 1414,11071 C 1217,11225 1255,11213 1141,11247 z " id="path229" style="fill:#000000"/><path class="fil3" d="M 4152,8522 C 4155,8607 4152,8656 4044,8633 C 3931,8609 3733,8579 3633,8631 C 3549,8674 3475,8715 3432,8866 C 3563,8713 3662,8636 3879,8640 C 3943,8642 4005,8675 4105,8670 C 4188,8667 4179,8540 4152,8522 z " id="path231" style="fill:#000000"/><path class="fil3" d="M 1981,7965 C 1981,7883 1937,7776 1919,7752 C 1883,7702 1813,7630 1747,7630 C 1773,7587 1908,7678 1944,7745 C 1980,7813 2007,7883 2007,7959 C 2007,7979 1983,7974 1981,7965 z " id="path233" style="fill:#000000"/><path class="fil3" d="M 3390,8477 C 3591,8374 3749,8287 4007,8280 C 4454,8268 4522,8776 4151,8780 C 4014,8782 3761,8791 3705,8839 C 3592,8937 3343,9811 3245,9940 C 2971,10501 2484,10536 1945,10352 C 1113,10067 1578,9172 1725,8732 C 1828,8426 1853,8282 1839,8017 C 1828,7811 1410,7622 1727,7476 C 1821,7432 1980,7485 2043,7612 C 2132,7793 2144,7968 2350,8104 C 2613,8277 3056,8426 3390,8477 z " id="path235" style="fill:#000000"/><path class="fil6" d="M 2140,8045 C 2106,8022 2092,7903 2070,7845 C 2014,7696 1975,7562 1805,7527 C 1743,7514 1663,7549 1665,7621 C 1669,7764 1841,7733 1896,8024 C 1923,8170 1913,8416 1847,8595 C 1620,9206 1219,10042 1963,10297 C 2610,10518 2994,10348 3250,9811 C 3418,9459 3573,8815 3687,8755 C 3711,8742 3756,8714 3833,8718 C 4136,8736 4377,8683 4300,8521 C 4192,8296 3770,8366 3631,8445 C 3581,8474 3533,8511 3468,8553 C 3018,8474 2622,8369 2140,8045 z " id="path237" style="fill:#fff500"/><path class="fil3" d="M 2313,8297 C 2439,8362 2581,8440 2733,8491 C 2775,8505 2846,8532 2891,8537 C 2892,8537 2978,8528 2933,8521 C 2774,8499 2427,8337 2327,8288 C 2316,8283 2316,8296 2313,8297 z " id="path239" style="fill:#000000"/><path class="fil3" d="M 2496,8469 C 2576,8519 2663,8560 2772,8594 C 2800,8603 2847,8618 2875,8621 C 2876,8621 2933,8609 2904,8605 C 2800,8590 2585,8487 2510,8460 C 2502,8457 2498,8469 2496,8469 z " id="path241" style="fill:#000000"/><path class="fil3" d="M 2627,8603 C 2707,8653 2690,8641 2730,8658 C 2757,8669 2805,8681 2833,8685 C 2834,8685 2890,8675 2862,8669 C 2758,8645 2719,8619 2644,8592 C 2636,8589 2628,8602 2627,8603 z " id="path243" style="fill:#000000"/><path class="fil3" d="M 3065,8577 C 3069,8574 3079,8568 3079,8567 C 3077,8564 3045,8553 3024,8549 C 3018,8548 3012,8558 3007,8562 C 3003,8565 3057,8584 3065,8577 z " id="path245" style="fill:#000000"/><path class="fil3" d="M 3004,8654 C 3008,8650 3018,8644 3017,8643 C 3016,8640 2986,8628 2965,8624 C 2959,8623 2952,8636 2947,8640 C 2943,8643 2996,8660 3004,8654 z " id="path247" style="fill:#000000"/><path class="fil3" d="M 2953,8714 C 2957,8711 2967,8704 2966,8704 C 2964,8700 2935,8689 2914,8685 C 2909,8684 2900,8694 2895,8698 C 2891,8701 2945,8720 2953,8714 z " id="path249" style="fill:#000000"/><path class="fil3" d="M 2897,8781 C 2901,8777 2911,8766 2911,8765 C 2909,8762 2877,8752 2856,8748 C 2850,8747 2844,8756 2839,8760 C 2835,8763 2889,8787 2897,8781 z " id="path251" style="fill:#000000"/><path class="fil3" d="M 2796,8742 C 2801,8741 2817,8731 2816,8730 C 2814,8727 2793,8720 2772,8716 C 2767,8715 2760,8727 2755,8730 C 2751,8734 2783,8745 2796,8742 z " id="path253" style="fill:#000000"/><path class="fil3" d="M 3101,8588 C 3154,8611 3211,8627 3256,8638 C 3256,8638 3299,8626 3283,8621 C 3211,8598 3173,8592 3118,8574 C 3112,8572 3102,8588 3101,8588 z " id="path255" style="fill:#000000"/><path class="fil3" d="M 3050,8664 C 3107,8683 3134,8692 3179,8704 C 3179,8704 3224,8691 3207,8686 C 3136,8666 3118,8662 3067,8650 C 3061,8649 3051,8664 3050,8664 z " id="path257" style="fill:#000000"/><path class="fil3" d="M 3007,8731 C 3061,8748 3049,8744 3090,8754 C 3091,8754 3134,8744 3118,8739 C 3062,8721 3057,8721 3019,8715 C 3014,8714 3008,8730 3007,8731 z " id="path259" style="fill:#000000"/><path class="fil3" d="M 2950,8798 C 3003,8815 2990,8812 3008,8815 C 3008,8815 3033,8800 3028,8799 C 3001,8791 2988,8787 2962,8782 C 2956,8781 2951,8797 2950,8798 z " id="path261" style="fill:#000000"/><path class="fil3" d="M 2309,10488 L 2320,10471 C 2382,10486 2570,10500 2634,10474 C 2635,10473 2618,10497 2598,10500 C 2522,10511 2377,10507 2309,10488 z " id="path263" style="fill:#000000"/><path class="fil3" d="M 2263,10572 L 2278,10549 C 2335,10564 2513,10580 2576,10553 C 2578,10552 2563,10577 2543,10581 C 2467,10595 2331,10590 2263,10572 z " id="path265" style="fill:#000000"/><path class="fil3" d="M 1780,10409 L 1766,10425 C 1736,10409 1699,10379 1676,10354 C 1709,10366 1754,10400 1780,10409 z " id="path267" style="fill:#000000"/><path class="fil3" d="M 1810,10339 L 1798,10357 C 1768,10341 1682,10275 1665,10248 C 1698,10262 1783,10329 1810,10339 z " id="path269" style="fill:#000000"/><path class="fil3" d="M 3798,8759 C 3781,8829 3766,8878 3738,8939 C 3732,8953 3727,9003 3738,8980 C 3754,8948 3815,8811 3815,8777 C 3815,8768 3812,8761 3798,8759 z " id="path271" style="fill:#000000"/><path class="fil3" d="M 3735,9036 C 3728,9083 3713,9206 3728,9187 C 3733,9181 3763,9027 3735,9036 z " id="path273" style="fill:#000000"/><path class="fil3" d="M 3751,9292 C 3751,9326 3817,9717 3843,9662 C 3855,9638 3769,9325 3751,9292 z " id="path275" style="fill:#000000"/><path class="fil3" d="M 4007,10208 C 3976,10208 4026,10287 4038,10265 C 4044,10252 4019,10208 4007,10208 z " id="path277" style="fill:#000000"/><path class="fil4 str2" d="M 2139,10751 L 2150,10713 C 2747,10860 3332,11101 4164,11428 C 4173,11139 4151,10857 4126,10580 C 4201,10673 4219,11249 4201,11489 C 3299,11118 2671,10899 2139,10751 z " id="path279" style="fill:#191919;stroke:#000000;stroke-width:3"/><path class="fil3" d="M 1795,7863 L 1875,8102 C 1833,8183 1584,8697 1340,8999 C 1119,9274 963,9467 878,9606 C 793,9743 818,9847 864,9925 C 876,9946 858,9941 855,9941 C 738,9787 818,9606 934,9456 C 1091,9254 1256,9070 1393,8865 C 1602,8551 1841,8167 1795,7863 z " id="path281" style="fill:#000000"/><path class="fil3" d="M 893,9985 C 888,9999 911,10039 923,10037 C 932,10036 901,9966 893,9985 z " id="path283" style="fill:#000000"/><path class="fil3" d="M 952,10091 C 943,10109 1021,10195 1038,10205 C 1046,10211 1073,10221 1058,10202 C 1045,10187 984,10114 960,10089 C 957,10086 955,10091 952,10091 z " id="path285" style="fill:#000000"/><path class="fil3" d="M 1704,10555 L 1676,10577 C 1507,10510 1223,10382 1192,10338 C 1198,10335 1201,10327 1211,10332 C 1377,10421 1523,10494 1704,10555 z " id="path287" style="fill:#000000"/><path class="fil3" d="M 3609,11663 C 3622,11695 3641,11754 3660,11792 C 3698,11871 3811,11988 3873,12056 C 3905,12092 3965,12150 4003,12172 C 4017,12181 4031,12171 4015,12155 C 3936,12078 3765,11905 3692,11788 C 3679,11767 3637,11688 3609,11663 z " id="path289" style="fill:#000000"/><path class="fil3" d="M 4103,12243 C 4084,12238 4087,12260 4100,12273 C 4109,12282 4120,12290 4133,12295 C 4142,12298 4148,12302 4149,12287 C 4150,12274 4114,12253 4103,12243 z " id="path291" style="fill:#000000"/><path class="fil3" d="M 4216,12381 C 4219,12372 4229,12378 4234,12381 C 4245,12387 4278,12409 4286,12422 C 4289,12426 4303,12445 4285,12445 C 4267,12445 4257,12424 4245,12411 C 4238,12405 4214,12391 4216,12381 z " id="path293" style="fill:#000000"/><path class="fil1" d="M 6064,3242 L 5735,2841 L 5482,3229 L 5531,3443 L 5541,3782 L 5620,4015 L 5771,4081 L 5926,3995 L 6008,3732 L 6008,3499 L 6064,3242 z " id="path295" style="fill:#56876c"/><path class="fil3" d="M 5495,3239 L 5467,3198 C 5568,3087 5666,2917 5732,2788 C 5825,2908 5980,3127 6076,3226 L 6040,3284 C 5952,3178 5808,2979 5741,2873 C 5700,2954 5587,3148 5495,3239 z " id="path297" style="fill:#000000"/><path class="fil3" d="M 5729,2874 L 5760,2873 L 5804,4033 L 5772,4034 L 5729,2874 z " id="path299" style="fill:#000000"/><path class="fil1" d="M 4043,4245 L 3556,4422 L 3838,4789 L 4056,4813 L 4379,4916 L 4625,4919 L 4737,4798 L 4708,4624 L 4487,4459 L 4266,4382 L 4043,4245 z " id="path301" style="fill:#56876c"/><path class="fil3" d="M 3852,4780 L 3803,4793 C 3732,4661 3604,4512 3504,4407 C 3648,4359 3907,4286 4031,4227 L 4074,4280 C 3945,4329 3710,4399 3587,4427 C 3651,4492 3796,4663 3852,4780 z " id="path303" style="fill:#000000"/><path class="fil3" d="M 3584,4439 L 3594,4409 L 4703,4751 L 4693,4781 L 3584,4439 z " id="path305" style="fill:#000000"/><path class="fil1" d="M 4372,6482 L 4406,7000 L 4838,6831 L 4922,6628 L 5110,6347 L 5181,6111 L 5097,5970 L 4921,5949 L 4701,6116 L 4566,6306 L 4372,6482 z " id="path307" style="fill:#56876c"/><path class="fil3" d="M 4833,6815 L 4831,6865 C 4685,6897 4506,6978 4378,7045 C 4372,6894 4373,6624 4352,6489 L 4415,6462 C 4425,6599 4427,6845 4420,6970 C 4500,6928 4705,6835 4833,6815 z " id="path309" style="fill:#000000"/><path class="fil3" d="M 4430,6977 L 4404,6959 L 5042,5990 L 5068,6007 L 4430,6977 z " id="path311" style="fill:#000000"/><path class="fil1" d="M 6599,6845 L 7097,6989 L 7086,6526 L 6924,6378 L 6724,6105 L 6527,5957 L 6365,5988 L 6286,6146 L 6368,6410 L 6500,6602 L 6599,6845 z " id="path313" style="fill:#56876c"/><path class="fil3" d="M 7069,6525 L 7116,6544 C 7096,6692 7111,6888 7129,7032 C 6985,6986 6733,6892 6598,6866 L 6594,6797 C 6727,6835 6959,6917 7074,6967 C 7062,6877 7045,6653 7069,6525 z " id="path315" style="fill:#000000"/><path class="fil3" d="M 7083,6959 L 7058,6978 L 6365,6046 L 6391,6028 L 7083,6959 z " id="path317" style="fill:#000000"/><path class="fil1" d="M 7627,4857 L 7921,4430 L 7478,4295 L 7286,4401 L 6964,4505 L 6761,4646 L 6740,4809 L 6865,4934 L 7141,4940 L 7365,4875 L 7627,4857 z " id="path319" style="fill:#56876c"/><path class="fil3" d="M 7472,4310 L 7504,4272 C 7638,4338 7829,4385 7971,4413 C 7882,4535 7714,4745 7646,4865 L 7580,4846 C 7657,4732 7808,4538 7892,4445 C 7803,4428 7585,4373 7472,4310 z " id="path321" style="fill:#000000"/><path class="fil3" d="M 7888,4433 L 7898,4463 L 6795,4827 L 6785,4797 L 7888,4433 z " id="path323" style="fill:#000000"/><path class="fil3" d="M 4131,4810 C 3680,4676 3541,4951 3549,5330 C 3553,5514 3756,6155 3893,6339 C 4106,6627 4381,6548 4573,6346 C 4669,6244 4830,5875 5058,5998 C 5299,6128 4997,6474 4943,6566 C 4852,6721 4711,6916 4978,7164 C 5163,7335 5958,7329 6090,7310 C 6419,7265 6747,7094 6574,6714 C 6494,6538 6147,6180 6377,6047 C 6674,5875 6871,6521 7101,6562 C 7275,6592 7433,6523 7517,6422 C 7769,6121 7940,5526 7936,5170 C 7934,5000 7755,4830 7589,4831 C 7409,4803 6944,5088 6819,4839 C 6653,4510 7415,4526 7552,4212 C 7752,3755 6675,3063 6395,3053 C 6189,3046 5986,3191 5986,3488 C 5986,3693 5991,4035 5781,4034 C 5546,4032 5554,3730 5554,3489 C 5554,3175 5391,3035 5129,3049 C 4740,3070 4284,3462 4034,3738 C 3884,3905 3905,4139 4083,4294 C 4315,4497 4778,4496 4695,4766 C 4624,4999 4312,4871 4131,4810 z " id="path325" style="fill:#000000"/><path class="fil6" d="M 4188,4885 C 3757,4711 3595,4930 3612,5326 C 3620,5500 3793,6123 3956,6305 C 4183,6558 4400,6475 4595,6244 C 4681,6142 4852,5818 5085,5965 C 5362,6139 5075,6437 5026,6526 C 4944,6676 4744,6858 4998,7094 C 5174,7257 5954,7264 6080,7247 C 6461,7197 6676,7032 6493,6660 C 6412,6495 6090,6176 6342,6004 C 6655,5791 6824,6290 7030,6459 C 7181,6583 7370,6497 7448,6401 C 7684,6110 7891,5577 7867,5162 C 7858,5001 7681,4863 7503,4888 C 7332,4861 6866,5157 6765,4856 C 6615,4413 7369,4508 7500,4210 C 7690,3776 6628,3124 6362,3115 C 6167,3108 6026,3294 6026,3576 C 6026,3771 6028,4087 5779,4091 C 5529,4096 5508,3803 5508,3573 C 5508,3276 5406,3100 5156,3113 C 4787,3133 4316,3512 4097,3788 C 3956,3965 3967,4171 4179,4312 C 4420,4471 4849,4423 4748,4787 C 4680,5030 4360,4943 4188,4885 z " id="path327" style="fill:#fff500"/><path class="fil3" d="M 4348,4311 C 4342,4312 4330,4305 4321,4301 C 3974,4134 4039,3982 4221,3887 C 4384,3801 4535,3821 4703,3682 C 4840,3569 4909,3390 5044,3289 C 5162,3202 5411,3178 5382,3621 C 5381,3626 5382,3631 5379,3637 C 5374,3648 5356,3644 5350,3635 C 5328,3604 5335,3511 5333,3465 C 5325,3298 5174,3178 5000,3401 C 4776,3688 4738,3788 4376,3877 C 4266,3905 4128,3954 4134,4079 C 4139,4190 4323,4248 4349,4285 C 4355,4293 4354,4310 4348,4311 z " id="path329" style="fill:#000000"/><path class="fil5 str3" d="M 6531,5393 L 6509,5450 C 6108,5276 5753,5579 5752,5968 L 5675,5968 C 5685,5464 5416,5300 4954,5399 L 4933,5330 C 5387,5222 5482,4854 5252,4473 L 5307,4427 C 5575,4819 5917,4793 6227,4461 L 6284,4515 C 6024,4814 6071,5217 6531,5393 z " id="path331" style="fill:#d32820;stroke:#000000;stroke-width:28"/><path class="fil6 str4" d="M 5743,4963 C 5840,4963 5919,5042 5919,5139 C 5919,5236 5840,5314 5743,5314 C 5647,5314 5568,5236 5568,5139 C 5568,5042 5647,4963 5743,4963 z " id="path333" style="fill:#fff500;stroke:#000000;stroke-width:28;stroke-linecap:round"/><path class="fil3" d="M 4520,6198 C 4519,6204 4509,6214 4502,6220 C 4235,6498 4111,6389 4077,6186 C 4047,6005 4113,5867 4034,5665 C 3969,5499 3820,5378 3767,5218 C 3720,5078 3775,4835 4186,5001 C 4191,5003 4196,5003 4201,5008 C 4211,5017 4201,5032 4190,5035 C 4154,5047 4067,5010 4023,4998 C 3862,4954 3701,5060 3859,5295 C 4062,5597 4145,5664 4117,6036 C 4108,6150 4112,6296 4233,6329 C 4340,6359 4452,6202 4496,6189 C 4505,6186 4521,6193 4520,6198 z " id="path335" style="fill:#000000"/><path class="fil3" d="M 6388,6638 C 6394,6641 6399,6654 6403,6662 C 6581,7005 6437,7087 6235,7054 C 6053,7024 5944,6917 5727,6927 C 5549,6935 5386,7037 5218,7036 C 5070,7036 4858,6905 5147,6569 C 5151,6565 5153,6560 5159,6557 C 5170,6551 5181,6565 5181,6576 C 5180,6614 5118,6685 5092,6723 C 4998,6861 5047,7048 5321,6974 C 5672,6879 5762,6822 6105,6968 C 6210,7012 6349,7056 6420,6952 C 6482,6860 6370,6704 6371,6658 C 6371,6648 6383,6635 6388,6638 z " id="path337" style="fill:#000000"/><path class="fil3" d="M 7351,4979 C 7356,4975 7369,4974 7379,4972 C 7758,4904 7794,5066 7703,5249 C 7621,5414 7486,5486 7431,5697 C 7387,5869 7436,6055 7385,6216 C 7340,6356 7152,6520 6917,6144 C 6915,6140 6911,6137 6910,6130 C 6907,6117 6924,6111 6935,6114 C 6971,6126 7019,6207 7048,6242 C 7152,6373 7345,6382 7356,6099 C 7369,5735 7341,5632 7582,5348 C 7656,5261 7739,5141 7660,5042 C 7591,4955 7409,5016 7366,5002 C 7356,4998 7347,4983 7351,4979 z " id="path339" style="fill:#000000"/><path class="fil3" d="M 6111,3552 C 6108,3546 6111,3533 6112,3524 C 6163,3141 6328,3157 6475,3300 C 6607,3428 6635,3578 6819,3694 C 6969,3789 7161,3799 7299,3896 C 7419,3981 7518,4210 7089,4320 C 7083,4321 7079,4324 7072,4323 C 7060,4321 7059,4303 7065,4294 C 7088,4264 7179,4242 7221,4225 C 7378,4166 7445,3985 7178,3889 C 6836,3765 6729,3761 6532,3444 C 6472,3348 6382,3232 6265,3277 C 6161,3316 6163,3508 6136,3545 C 6130,3554 6113,3557 6111,3552 z " id="path341" style="fill:#000000"/></g></svg>