<svg xmlns="http://www.w3.org/2000/svg" width="96.441" height="110.335" viewBox="0 0 25.517 29.193"><path d="M12.607 29.192c6.916.046 12.91-4.834 12.91-12.636V.001L.017 0 0 12.811v3.833c0 6.878 6.324 12.506 12.607 12.548z" fill="#0a0808"/><path d="M20.352 15.991a.56.56 0 0 1 .143.15c.02-.025.029-.104.008-.222-.03-.157-.103-.324-.187-.347.01.095-.004.172-.015.235-.01.054-.016.097-.005.122.014.03.03.043.056.062" fill="#fffff4"/><path d="M23.49 7.49c0-.09-.038-.14-.064-.194-.072.008-.143.008-.212.008-.037.053-.089.089-.089.15.017.018.134.027.273.063.047 0 .047-.01.091-.027" fill="#cccbc6"/><path d="M7.568 16.706c.016.08.053.121.12.16.034.021.066.017.08.009a.182.182 0 0 0-.2-.169" fill="#f0382b"/><path d="M17.402 2.056c-.247-.078-.784-.084-.784.259.027.004.058-.004.085-.004.29-.022.43-.19.756-.21-.031-.035-.057-.045-.057-.045" fill="#f9d438"/><path d="M16.507 15.705l-.01.432-.401.001-.009-.46h-.352l-.01.467h-.424l-.01-.44h-.318l-.01.486 1.894.007.003-.494" fill="#fffff4"/><path d="M23.497 6.306c.07-.096.088-.221.157-.283 0-.141-.07-.22-.122-.31h-.043c-.044.109-.108.504-.02.593" fill="#f9d438"/><path d="M11.78 18.356c-.02-.012-.06-.1-.076-.137l-.017-.037-.027-.017c-.029-.015-.068-.036-.07-.063a.285.285 0 0 1 .163-.067l.027.009c.002.005.004.023-.047.073l-.017.035-.012.03-.002.003.002.004a.67.67 0 0 0 .082.162h-.001l-.005.004m1.904.03c-.03-.04-.028-.085-.027-.124l.001-.022-.01-.033c-.047-.134-.057-.162.083-.241.046 0 .201.05.25.084l-.043.024-.023.008c-.04.04-.078.086-.115.132l-.045.056-.01.022c-.013.027-.038.082-.061.095m-1.595.179c-.032-.034-.073-.054-.113-.074-.048-.024-.093-.047-.11-.088a.448.448 0 0 1 .104-.032c.065-.014.12-.025.18-.12.008-.01.02-.037.035-.074l.02-.046.008-.026.018-.05.072-.007a.509.509 0 0 1 .078-.008c.055 0 .096.017.135.055-.003.024-.033.048-.065.073-.053.042-.12.095-.084.18l-.001.116a.363.363 0 0 1-.124.013.33.33 0 0 0-.074.042.283.283 0 0 1-.08.046m.62.902c-.488 0-1.596-.328-2.145-.697a5.748 5.748 0 0 1-1.431-1.349c-.004-.092.02-.137.04-.158l.042-.021c.06 0 .11.018.17.044.162.077.16.106.155.212a.997.997 0 0 0-.002.078c-.019.098.015.127.046.152.023.02.044.037.044.088v.005l.003.003a.178.178 0 0 1 .04.062l.02.04.017.031.003-.035c.004-.079-.021-.145-.045-.21-.015-.039-.03-.075-.035-.112 0-.108.038-.12.12-.12h.1c.118.013.167.145.214.272.016.043.031.084.05.12-.002.032-.062.097-.18.188l-.005.004-.003.008c.003.027.014.04.031.04l.062-.034.07-.041h.005l.003-.005c.025-.043.025-.043.06-.086.026-.02.048-.03.07-.03l.048.01c.019.006.04.013.065.013l.068-.016c.061-.07.094-.082.147-.082h.039l.06.003c.171.086.236.188.252.402-.06.086-.065.172-.069.263a.891.891 0 0 1-.017.163l-.002.005.018.017.006-.003c.05-.025.063-.141.071-.218l.005-.039c.06-.139.136-.296.253-.372h.03l.1-.003a4.23 4.23 0 0 1 .162-.004l.035.062c.016.038.03.073.108.097.017.006.104.075.114.12l-.002.02c-.15 0-.181.02-.253.154-.013.059-.05.083-.123.083a.78.78 0 0 1-.083-.006l-.02-.002a.118.118 0 0 0-.083-.032.25.25 0 0 0-.2.125c-.021.04-.022.078-.002.108l.002.005h.006c.03 0 .047-.03.068-.067.028-.051.061-.11.136-.11.076.04.177.064.271.064l.046-.002c.11.034.123.162.123.255v.005l.004.004.018.018.039.02h.007l.002-.006c.04-.107-.025-.194-.083-.272-.038-.049-.073-.095-.073-.138.058-.09.109-.13.17-.13.044 0 .096.021.157.066.108.033.289.127.308.277l.004.063c.002.047.004.094.021.125l.003.005h.034v-.01a.895.895 0 0 0-.034-.276c-.043-.058-.043-.058-.007-.094l.02-.02a.478.478 0 0 1 .132-.017c.04 0 .07.006.083.015.007.058.036.11.068.166l.037.07c0 .054.016.086.046.086h.008l.002-.007c.027-.106 0-.148-.038-.206l-.035-.058a.651.651 0 0 0-.036-.152c-.037-.114-.066-.204.077-.275l.057-.056c.05-.05.1-.102.168-.12h.058c.086 0 .17.008.17.123-.055.162.065.229.205.306l.003.002.007.001c.075-.013.142-.08.17-.168.028-.086.013-.17-.038-.225l.002-.004.005-.011.06-.008c.112 0 .144.112.178.229.02.064.038.13.071.183a.629.629 0 0 1-.092.167c-.026-.04-.045-.067-.081-.085a.873.873 0 0 0-.235-.042c-.127 0-.221.06-.315.197l-.005.06c-.006.101-.009.152-.083.247-.026.018-.026.018-.035.027l-.015.014.02.002.018.001c.132 0 .145-.203.15-.301l.002-.027c.066-.095.073-.098.185-.144l.013-.006h.074c.158 0 .244.01.32.223 0 .035.007.143.045.18l.006.006.007-.005c.031-.023.014-.09.002-.137l-.007-.038c-.059-.132.006-.21.079-.298.033-.041.068-.083.092-.132.016-.018.027-.043.038-.07l.012-.027c.035-.07.106-.103.17-.127l.05-.05c.035-.044.08-.097.125-.097l.038.013c.092.01.12.04.19.12l.01.012c.093.049.118.192.138.307.017.097.03.172.077.172h.01l.004-.011-.01-.068c-.02-.138-.05-.344.033-.408a.355.355 0 0 1 .063-.102l.018-.024c.036-.101.089-.117.178-.145.025-.008.053-.016.083-.028.074-.05.098-.065.126-.065.016 0 .035.006.064.014.022.007.05.017.088.026.013.015.017.1.02.182.003.101.007.206.036.254l.003.005h.005l.023-.012.002-.002v-.005l-.003-.13c-.01-.198-.02-.422.135-.54a.432.432 0 0 1 .128-.029c.055 0 .063.032.074.098.01.05.021.112.066.173 0 .025.002.057.05.067l.009.002.003-.008c.015-.036-.01-.078-.028-.108l-.015-.031c0-.173.11-.257.225-.347.026-.021.053-.042.078-.064l.017.002c.02.002.055.007.164.007l.05-.026.044-.019c.017 0 .037.013.066.042l.03.04.002.005a4.724 4.724 0 0 1-1.294 1.37c-.901.656-1.913.717-2.345.743a6.085 6.085 0 0 0-.089.006l-.055.002" fill="#987d77"/><path d="M20.378 18.673c.005-.033-.013-.058-.035-.063-.045-.008-.054 0-.073.027-.006.018-.015.07.04.088.062.008.068-.052.068-.052M11.837 10.029c-.003-.03-.01-.042-.034-.06-.018.01-.034.018-.046.045l.009.038c.031.027.071.002.071-.023M13.622 14.567c-.03-.028-.047-.032-.086-.028-.005.028-.015.049 0 .085l.04.028c.053-.004.066-.062.046-.085" fill="#f0382b"/><path d="M11.609 10.424l.013-.006-.003-.021-.033-.047-.024-.027-.026-.051v-.053l-.025-.012-.025.004-.008.014.008.026.025.041-.01.018-.018-.01-.027-.021-.01-.01-.011-.028-.005-.018-.036-.02-.009.02.015.013.008-.002-.002.008h-.018l-.012-.013-.015-.004-.025.016.017.025.008.002.01-.002h.008l.012.007v.007l-.006-.002-.028.012.016.028h.029l.006-.004.017.004.018.01.007.017.008.013.015.01.016-.006.012-.011.038.008.034.037.02.024.016.004M11.456 10.173l.01-.004.008-.018.01-.013.007-.011-.005-.008-.003-.016c-.025.01-.034-.008-.044-.025l-.004.008-.017.004h-.037l-.02.005-.014.009-.016-.002-.015-.005-.015-.01-.004-.008-.002-.01.002-.01-.002-.018-.017-.008-.015.009.012.013-.009-.006-.01-.004-.005-.004-.018.013.014.017.017.014-.021-.007-.015.015.012.012.01.006.005.008v.024l.016.004.013-.011h.027l.04.021.019-.018h.014l.016.004.018.004.017.012.014.013h.007M14.395 12.382l.003.347h.441l-.002-.348" fill="#fffff4"/><path d="M11.768 11.073c.043-.04.042-.028.08-.075.055-.061.067-.088.118-.155-.193.027-.644-.139-.758-.139l.021.215c.025 0 .041-.008.068.013.025.043.07.145.06.199.026.053.04.085.04.157a.726.726 0 0 0 .227-.081c.029-.018.12-.11.144-.134M12.032 12.68h.086c-.016-.26-.004-.518-.004-.747 0-.268.193-.492.336-.598.014-.14-.103-.19-.116-.347l-.037.044c-.03.05-.053.101-.089.148-.031.041-.06.089-.1.118a.642.642 0 0 1-.168.106 1.259 1.259 0 0 1-.29.077c-.056.007-.143.025-.2.036a.441.441 0 0 1-.163.006l.113 1.16.077-.002v-.485h.555v.485M14.217 10.968l.023-.272c-.071 0-.16.026-.222.053-.159.062-.291.062-.457.062h-.046c.027.01.092.05.092.102.09.141.208.305.382.384l.015-.022c0-.079.02-.096.037-.175a.307.307 0 0 1 .049-.122c.014-.028.072-.038.127-.01M14.017 12.68l.108-1.119c-.035 0-.061.046-.178-.009-.114-.058-.211-.099-.309-.157a1.287 1.287 0 0 1-.309-.25c0 .053.043.13.079.218.076.142.088.341.057.551-.011.108 0 .202 0 .282l.482.003.003.482" fill="#f0382b"/><path d="M17.993 2.014c.027 0 .044-.019.053-.036-.053-.088-.22-.396-.352-.283.097.01.21.23.3.319" fill="#fffff4"/><path d="M17.418 1.907c-.255-.257-.044-.512-.45-.23-.353.046-.52.152-.38.522.018-.23.956-.556 1.176.29-.09.16-.575-.122-.627.248.201-.026.407-.062.635.053.068.04.144.064.186 0 .17-.37-.31-.742-.54-.883" fill="#f0382b"/><path d="M17.658 2.35c-.016-.071-.099-.151-.142-.186-.378.007-.669.28-.98.21.044.07.124.115.175.115.365 0 .54-.237.947-.14" fill="#f0382b"/><path d="M19.749 13.553a.313.313 0 0 0-.173.074l.002.004.003.01.06.017a.43.43 0 0 1 .077.025h.05l.009-.015.005-.01c-.04-.043-.039-.063-.036-.094l.003-.01m1.077-11.152l.017-.032a.767.767 0 0 1 .225-.101l-.043.003h-.008c-.1.011-.307.088-.343.124a.467.467 0 0 0 .259.063c-.063-.017-.102-.03-.107-.057m-.78 11.042c-.108.009-.146.028-.207.102.003.027.007.04.042.08l.003.006v.07l.054.003.069.004a.646.646 0 0 1 .115-.009c.003-.118-.02-.152-.041-.185a.167.167 0 0 1-.036-.07m2.543-4.063v-.05c-.027.006-.056.01-.083.015-.074.013-.144.024-.184.059 0 .099.002.111.012.14.111-.019.197-.03.246-.032.01-.025.009-.064.009-.132m-.046.258c-.077.007-.142.011-.203.044l-.004.038a.638.638 0 0 0-.005.144c.061-.008.071-.008.23-.008 0-.036.003-.074.005-.11.003-.038.004-.075.005-.11l-.028.002M21.753 2.42c-.186-.024-.34-.061-.48-.172.066-.297.463-.46.825-.46.281 0 .51.096.598.25l-.543.147a.353.353 0 0 1-.352.236zm.595 1.077a3.275 3.275 0 0 0-.05-.225c-.054-.206-.095-.369.018-.554a.24.24 0 0 0 .134-.273.227.227 0 0 0-.226-.176c.07-.02.469-.133.551-.142.053.09-.005.27-.064.46-.079.249-.164.526-.051.757a1.405 1.405 0 0 0-.312.153m-.632.101v.06a.15.15 0 0 0 .098.119c.068-.051.077-.102.067-.156l-.03-.064a.11.11 0 0 0 .077.024c.061 0 .134-.03.16-.098-.025-.067-.067-.089-.114-.089a.175.175 0 0 0-.108.038l.003-.016c.007-.082-.03-.185-.067-.212l-.012-.009h-.024l-.01.012a.229.229 0 0 0-.001.312l.016-.003-.015.014c-.024-.054-.068-.073-.118-.073-.054 0-.123.022-.147.085.027.065.07.084.123.084a.207.207 0 0 0 .102-.027m-.106.23c-.18 0-.18-.026-.184-.228 0-.073-.001-.125-.006-.185-.033-.336-.411-.716-.606-.87l.08.043c.223.025.418.047.619.047.197 0 .372-.022.535-.067.053-.127.13-.179.193-.179.049 0 .088.03.109.087-.034.112-.077.142-.116.147-.157.236-.12.467-.087.669.025.167.046.307-.028.398-.06.076-.186.12-.383.133zm.052.579c-.21-.05-.353-.138-.411-.254-.044-.096-.037-.212.024-.341.068.133.209.2.381.2a.957.957 0 0 0 .484-.153c.064-.062.488-.406.683-.406.04 0 .079.012.082.097a2.115 2.115 0 0 0-.357.211c-.055.05-.11.107-.17.17-.203.211-.455.473-.716.476m-.754.16c-.01-.22.07-.452.12-.58.04.258.035.269-.052.442l-.068.138m2.446.309a.59.59 0 0 1-.115-.011c-.263-.044-.39-.34-.395-.595-.007-.213.068-.48.308-.536a.98.98 0 0 1 .21-.026c.23 0 .38.125.498.42a.534.534 0 0 1-.032.51.563.563 0 0 1-.474.238m-4.177.07c-.107-.143-.155-.716-.092-.867.035.04.044.131.053.22.015.138.029.28.14.39.072-.008.082-.01-.034-.644l-.079-.12c-.094-.107-.122-.14-.111-.296.01.07.044.123.076.176.102.168.19.314.243.584.018.084.02.176.022.263l.005.13c-.078.063-.168.148-.223.163m1.607.068c-.16-.317-.244-.734.025-.928.018.033.002.144-.012.241-.023.166-.049.354.023.472l-.036.215m2.311.1c-.469-.085-.613-.42-.595-.707a.877.877 0 0 1 .535-.748.68.68 0 0 0-.409.713.807.807 0 0 0 .565.669c.016.055-.027.074-.085.074zm.312.053c-.014-.02-.013-.047-.01-.074.03-.023.234-.092.298-.093l.008.095c-.036.038-.161.069-.296.072m-4.134.216c-.034-.06-.046-.118-.036-.16.049-.056.156-.165.284-.178.026.052.076.123.087.185-.124.052-.276.132-.335.153m4.269.093c-.055-.046-.055-.11-.055-.174.034-.027.22-.088.304-.099.022.044.04.107.064.197-.106.03-.207.073-.313.076m-4.238.11c.25-.223.362-.265.413-.268-.067.092-.328.267-.387.297zm4.404.181c-.08-.115-.083-.156-.078-.17.007-.022.058-.034.11-.047.051-.012.098-.024.146-.04.003.006.056.102.061.194a.761.761 0 0 1-.239.063m.635.161a.711.711 0 0 0-.234-.038c-.021-.227-.097-.435-.162-.618a2.652 2.652 0 0 1-.113-.375.501.501 0 0 0 .19-.191c.092.32.297.852.319 1.223m-3.527.213c-.053-.032-.108-.091-.167-.154-.069-.073-.136-.146-.206-.19.031-.086.045-.208.057-.338.022-.195.042-.386.097-.526a.308.308 0 0 0 .068.148c.065.09.1.138.111.3.07.579.058.725.04.76m-.9.186c-.167-.193-.398-.52-.404-.669.102-.084.187-.132.25-.166l.018-.002c.06 0 .098.063.143.135.044.071.09.15.156.227-.078.16-.129.313-.164.475m4.317.231c-.121-.256-.224-.379-.527-.477.08-.021.19-.04.303-.04.148 0 .286.032.377.089a.344.344 0 0 1 .004.295.229.229 0 0 1-.157.133m-3.863.074c-.12 0-.198-.025-.239-.077-.075-.096-.03-.29.016-.495.023-.08.065-.225.102-.225.031 0 .098.06.157.11.043.038.086.075.136.114.053.049.111.106.164.163l.089.07c-.112.182-.206.34-.425.34m3.359.227c-.073-.138-.13-.235-.25-.304.016-.064.091-.15.151-.221a.287.287 0 0 1 .078-.012c.166 0 .354.14.38.279-.142.12-.272.24-.36.258m-2.216-2.272c-.203.519-.124 1.283-.018 1.962l.092.019c.045-.162.016-.329-.009-.476a2.258 2.258 0 0 1-.032-.197c-.032-.427.002-.796.07-1.254v-.015l-.084-.05-.014-.002zm.35 2.38c-.185-.009-.497-.058-.608-.14a3.497 3.497 0 0 0-.166-.637l-.074-.22c-.074-.418-.153-1.188.156-1.615a.58.58 0 0 1 .193.092c.088.055.185.116.324.116.08 0 .159-.017.245-.055.075-.046.163-.132.26-.232.084-.084.171-.172.235-.21-.209.578-.056.955.471 1.203a.5.5 0 0 0 .214.044c.065 0 .133-.01.2-.03.082.105.052.353.024.572-.015.12-.027.224-.024.313.044.158.066.238.027.315l-.026-.001c-.123 0-.187.072-.244.135a.391.391 0 0 1-.229.11s-.018-.044-.008-.082c.011-.037.056-.076.056-.076-.011-.128-.025-.17-.077-.233-.085-.013-.178-.068-.206-.12l-.062-.004a.456.456 0 0 0-.27.083c-.004.147-.047.187-.1.24a.332.332 0 0 0 .085.243c.124.006.153.052.16.081-.104.094-.304.108-.467.108zm1.723.187c.011-.168-.108-.448-.256-.533a.442.442 0 0 1 .186.169c.064.099.123.25.09.364zm-.368.03a1.162 1.162 0 0 0-.099-.238.606.606 0 0 1-.061-.133c.078-.048.148-.097.19-.097.037 0 .076.042.137.15.072.129.094.217.066.264-.022.039-.084.059-.182.059zm-.863.261a.899.899 0 0 0-.152-.01c-.039 0-.293-.002-.38-.006-.216-.001-.727-.088-.795-.13.03-.157.101-.232.243-.232.098 0 .217.035.32.063.13.036.248.069.353.069.108 0 .162-.006.202-.01.11.027.187.203.209.256m.232.07c-.14-.137-.195-.286-.144-.416.049-.123.19-.213.339-.213.061 0 .119.017.164.047.11.162.143.317.088.42-.056.107-.202.163-.422.163zm-.558.32c-.136 0-.28-.003-.422-.013-.287-.021-.604-.053-.774-.133.013-.156.09-.204.156-.227.214.043.562.09.748.106.084.01.172.015.265.015.135 0 .275-.01.415-.031l.05.082c-.157.059-.283.122-.34.2zm1.35.264a2.646 2.646 0 0 0-.086-.234c.13.118.225.118.348.118-.002.013.015.09.024.14a.905.905 0 0 1-.245.09zm-1.187.165c-.378-.004-1.298-.066-1.505-.143.012-.22.082-.247.147-.254.082.016.362.063.536.079.16.015.415.028.58.028.058 0 .102-.002.137-.005-.041.047-.028.133.017.205a.301.301 0 0 0 .088.09m1.247.056c.13-.002.207-.014.271-.032a.257.257 0 0 1-.008.12 1.984 1.984 0 0 1-.22.073zm-2.378.222c-.213 0-.437-.035-.48-.054a.449.449 0 0 1 .063-.211c.21.045.53.068.796.068a.379.379 0 0 0-.2.184c-.01 0-.055.013-.179.013m1.634.139c-.084 0-.2-.017-.31-.033-.09-.049-.2-.185-.196-.251l.269.019c.051 0 .104 0 .28-.025l.046.227c.013.05-.012.063-.089.063m-.446.225a.405.405 0 0 1-.025-.143c.054.02.224.05.308.08-.06.082-.192.113-.269.12zm.064.35a.265.265 0 0 1-.028-.15c.16-.02.244-.036.29-.055a1.61 1.61 0 0 0-.004.162l-.036-.002a.739.739 0 0 0-.222.045m-1.49.76a1.41 1.41 0 0 0-.333-.11l.028-.097c.04-.422.078-.806.145-1.15.096.034.272.05.47.057-.129.265-.19.624-.245.942a10.05 10.05 0 0 1-.065.358m.347.144c-.105-.02-.17-.033-.247-.094l.03-.094.039-.191c.078-.383.156-.76.275-1.087.118-.022.188-.099.25-.166.067-.074.124-.137.24-.137.031 0 .067.005.103.014.167.154-.197.91-.393 1.314-.078.161-.143.295-.157.35l-.036.118s-.073-.02-.104-.027m1.177.093c-.02-.11-.034-.198-.01-.278.04.005.127.005.217.005l-.01.082.01.144-.029-.004a.395.395 0 0 0-.178.052m.789.118c-.142-.162-.266-.182-.437-.195l.015-.394a7.76 7.76 0 0 0-.026-.95l.056.009c.038 0 .08-.01.118-.025.03.078.197.761.259 1.018.021.087.035.147.043.17.01.087-.022.374-.022.374zm-2.762.407c-.092-.165-.141-.446-.065-.6a.205.205 0 0 1 .179-.12c.132.04.265.098.469.21.049.018.1.029.15.039a.708.708 0 0 1 .142.04c.068.106.049.187-.002.276a1.143 1.143 0 0 0-.872.155m2.356.218a.633.633 0 0 1-.143-.017c-.207-.052-.318-.17-.3-.314.017-.144.17-.295.395-.295.115 0 .231.039.344.115.114.102.158.205.124.298-.048.123-.225.213-.42.213m-1.544 1.977c-.443-.092-.45-.226-.462-.496-.007-.113-.012-.216-.036-.333-.096-.316-.327-1.085-.203-1.239.19-.117.338-.167.51-.167.061 0 .13.008.21.025-.006.152.03.313.067.484.025.105.044.193.06.282-.002.182-.043.362-.075.504-.066.31-.127.595.027.94zm1.24-.082c.016-.149.03-.272.019-.4-.063-.318-.056-.603-.05-.879.003-.198.006-.37-.006-.548.052.057.215.082.278.082-.008.21-.008 1.277-.124 1.773-.025.043-.055.072-.085.104l-.052.053c.004-.062.01-.125.02-.185m.38.201l-.117-.16c.03-.312.05-.618.071-.913.019-.285.04-.581.066-.89l.04.004a.46.46 0 0 0 .206-.057c-.023.127-.007.263.008.395.027.247.05.468.004.727l-.064.213c-.082.257-.156.494-.151.783zm-1.775.331c-.042-.04-.067-.069-.096-.101-.035-.039-.057-.064-.09-.095 0-.117-.08-.173-.14-.215-.064-.045-.09-.063-.054-.135.203.15.4.245.688.248a.328.328 0 0 1-.01.13.291.291 0 0 1-.136.168zm1.89.012a.566.566 0 0 0-.341-.138.321.321 0 0 0-.22.083c0-.102.056-.138.142-.194.043-.029.081-.054.118-.088.05.117.127.18.26.28zm-2.313.05c-.013-.016-.008-.031.005-.066.012-.033.025-.07.006-.11-.017-.037-.058-.066-.132-.092.005-.019-.02-.143-.026-.182l.112-.002c.009.065.053.076.092.087.068.146.07.158.137.216.027.091-.127.143-.194.15m3.89.037c-.292-.366-.386-.68-.427-.817l-.6-2.223s-.668-2.402-.698-2.517c0 0 .062-.019.116-.033l.77 2.702c.12.437.221.798.353 1.16.013-.302-.07-.568-.155-.848l-.104-.35-.739-2.695.109-.024 1.32 4.7c.088.281.11.67.055.945m-1.523.122c-.062-.065-.344-.141-.395-.141l-.09.02-.13-.01c.103-.084.169-.103.189-.103a.36.36 0 0 1 .138.015l.15.07a.26.26 0 0 1 .082.047l.072.102zm-2.742.017l.02-.066.01-.091c-.03-.029-.036-.033-.115-.064.018-.097.146-.261.251-.294-.012.01-.015.048-.02.126.05.06.083.075.138.094a.597.597 0 0 0-.005.192c-.125.054-.205.096-.28.103m2.566.136c-.105-.05-.147-.07-.186-.07l-.11.026c-.067-.057-.113-.081-.168-.081l-.108.02c.014-.05.066-.08.185-.082l.061.077c.118-.048.142-.066.158-.066.018 0 .048.02.092.05l.114.033.024-.001c.037 0 .056.01.095.043l-.104.053zm-.286.165a.421.421 0 0 0-.146-.055c-.116-.029-.157-.048-.152-.107l.036-.001c.067 0 .089.011.115.026.033.018.08.044.148.044a.448.448 0 0 1 .095-.012c.04 0 .062.01.086.02a.59.59 0 0 0 .114.04c-.088.01-.212.042-.296.045" fill="#cccbc6"/><path d="M17.772 1.829c0 .034-.031.061-.07.061-.04 0-.071-.027-.071-.061 0-.035.031-.064.072-.064.038 0 .069.03.069.064M15.861 10.079c.08.017.184.017.228-.055.065-.133-.15-.167-.237-.14-.125.044-.125.15.01.195M15.057 10.97l1.815.006-.833-.827a.262.262 0 0 1-.214-.01M16.632 11.405h-.344v-.177h.344zm-.517 0h-.342v-.177h.342zm-.518 0h-.342v-.177h.342zm-.484-.282l.01.393 1.685.005v-.403M16.566 11.676h-1.273v1.239l.571-.721c.096-.187-.104-.05-.104-.165.009-.087.088-.058.144-.033 0-.052-.042-.075-.07-.081-.132-.026-.029-.15.073-.035.028-.043-.033-.107-.024-.141 0-.028.033-.044.049-.044a.05.05 0 0 1 .051.044.22.22 0 0 1-.029.092l.006.049c.045-.043.104-.076.136-.027.028.09-.112.027-.13.142.083-.036.155-.03.13.07-.015.067-.117-.025-.117.055 0 .018.005.052.024.077l.565.779M10.32 15.563h.052l-.02-2.672 2.07.005.167-.07-2.3-.001" fill="#fffff4"/><path d="M13.18 13.647c0-.09.1-.267.14-.3.044-.035.187-.035.195.025l-.008.018c-.15.035-.222.257-.327.257m-.117-.01c.046-.08 0-.265.106-.319.038-.016.108-.043.16-.007-.008 0-.044.019-.067.05a.75.75 0 0 0-.118.285c-.008.008-.045.008-.08-.01m-.706.142c-.062-.08-.105-.167-.071-.229.009-.019.056-.065.097-.06-.007.017-.026.13.027.165h.018c0-.061-.027-.115-.008-.176.043-.053.086-.08.142-.07-.011.061-.02.103 0 .185l.015-.018a.548.548 0 0 1 .002-.168c.017-.026.096-.08.14-.035a.507.507 0 0 0-.009.256.918.918 0 0 0-.353.15m-.08.07c-.08 0-.148-.159-.14-.202.016-.053.051-.08.115-.09 0 0-.036.028-.011.108a.329.329 0 0 0 .088.14l-.051.044m.784-.556c.01 0 .081 0 .073.025-.124.08-.037.25-.105.32-.028-.018-.081-.018-.118-.018.055-.108-.034-.327.15-.327m-.113.01l.018.009c-.115.07-.055.185-.09.309h-.13a.314.314 0 0 1 .015-.244c.039-.038.127-.101.187-.074m1.668 4.743l-.008-2.325c.008-.273-.017-.6-.088-.865-.166-.625-.328-.989-.85-1.466-.193-.177-.66-.423-.961-.475-.247.052-.874.37-1.237.821.037.017.056.032.086.054.24-.293.807-.672 1.151-.78.21.055.38.125.53.24a.175.175 0 0 1-.125.026.201.201 0 0 0-.14.017c-.078-.052-.164-.01-.219.044-.07-.036-.124-.018-.188.036-.062-.017-.133.035-.148.08-.044-.02-.134 0-.161.07-.034 0-.08.027-.114.062-.08.011-.114.052-.158.105-.08.019-.102.081-.117.115-.061.018-.105.071-.097.168.02.16.134.213.31.266.04.01.064.01.096 0 .055-.019.241-.177.23-.203-.104-.019-.168.233-.362.167-.078-.035-.14-.061-.186-.106-.059-.07-.079-.186-.025-.239h.025c-.009.036.009.098.046.133h.007a.3.3 0 0 1-.034-.133c0-.047.052-.114.09-.114 0 .061.025.203.13.203v-.027c-.069-.035-.105-.131-.105-.193.017-.037.084-.094.124-.09l-.008.036c-.006.084.061.16.123.205-.018.016-.028.033-.055.05-.06.055-.22.143-.254.162l.006.016c.241-.107.284-.16.417-.273.072-.054.105-.106.274-.152.267-.07.46.036.584 0 .034 0 .042-.016.052-.034.105-.134.185-.204.36-.221h.038c.008.062-.046.06-.081.068.318.167.725.835.841 1.355.079.264.088.6.088.883v2.314a.215.215 0 0 1 .06.061c.028-.009.036-.026.053-.061" fill="#fffff4"/><path d="M14.409 15.592l-.01 2.323.025.024.028-.008.005-2.27v-.152c0-.74-.31-1.508-.91-1.986l-.014-.012c-.065.07-.133.162-.204.233-.122.124-.29.115-.461.124l.01.026c.204.01.381 0 .54-.185.026-.028.088-.127.132-.127.644.583.848 1.222.859 2.01M13.126 13.23c-.095-.07-.316-.145-.415-.171-.381.132-.723.35-1.113.755l.026.026c.347-.34.633-.574 1.087-.731.115.026.264.08.344.121h.071M11.51 13.92c-.247.24-.39.683-.44.974-.049.247-.07.502-.072 1.005-.002.132.007 2.14.007 2.14l.05-.025c-.012-.724-.014-1.54-.014-2.255 0-.315.021-.662.082-.935.07-.312.202-.675.405-.868" fill="#fffff4"/><path d="M10.98 15.281c.026-.39.149-1.034.512-1.403a.476.476 0 0 1-.043-.125c-.583.706-.583 1.607-.583 2.093v2.04l.096.176V16.43c0-.389-.016-.769.018-1.148" fill="#fffff4"/><path d="M11.243 13.39c-.035.08-.14.08-.166.08.008.16-.062.309-.256.282-.152-.016-.152-.203-.106-.274-.105-.036-.212-.166-.133-.3.072-.106.213-.08.312.026.034-.06.068-.097.127-.106.187-.017.312.097.222.292m1.087-.45l-1.94-.006.042 2.639h.167v.618l-.017 1.59c.01.016.072-.012.17.042l-.006-2.276c0-1.241.582-2.106 1.584-2.608M14.717 13.512c.087.125.027.366-.141.346-.231-.025-.178-.211-.143-.308-.123.017-.376-.117-.256-.31.095-.16.292-.061.337.01.016-.055.096-.143.203-.124.308.063.158.386 0 .386m-1.663-.59s.019.005.062.022c1.068.36 1.615 1.56 1.615 2.63l.002 2.33c.026-.044.043-.052.096-.087a.441.441 0 0 0 .05-.035l.007-2.201h.157l.028-2.668" fill="#fffff4"/><path d="M15.113 12.877l-.026 2.704h.054l.015-2.757h-2.303l.169.062M15.802 16.27h-.78l-.027 1.458.053-.038a.245.245 0 0 1 .083-.052l.009-.001c.014 0 .03.008.056.018.036.017.082.038.119.031l.02-.048c.016-.04.039-.09.073-.123.005-.2.005-.277.004-.347 0-.07-.002-.131.004-.295 0-.262.189-.493.386-.603M16.388 16.609c.059.157.059.282.059.426v.156a.238.238 0 0 1 .088.074 7.05 7.05 0 0 0 .201-.376v-.618l-.663-.002a.674.674 0 0 1 .315.34M9.383 16.27l-.665.001-.003.465c.054.106.176.345.293.505v-.025-.141c-.003-.16-.005-.299.059-.467a.69.69 0 0 1 .316-.338M10.04 16.873l.005.292c0 .059.002.13.008.315.029.019.055.08.088.182l.012.032c.041.096.16.102.16.102l.007.002.063-.029.057-.033.015-.004V16.27h-.801c.197.11.385.341.385.604M8.949 15.705l.009.432h.402l.007-.458h.354l.011.46.432-.001-.002-.433h.335l.01.486-1.908.007-.003-.493M16.55 13.13l-.618-.835c-.09.11-.565.702-.62.782-.006.45-.009.907-.009 1.35-.002.373-.002.76-.006 1.138h.096l.002.44h.173l.024-2.5c0-.458.176-.669.324-.752l.008-.005.009.004c.209.104.338.403.338.754v1.332l-.01 1.167h.141v-.442h.147" fill="#fffff4"/><path d="M10.15 14.259c0-.374 0-.757-.006-1.146-.056-.083-.535-.704-.623-.818l-.616.836v2.432h.148v.441h.134l-.009-1.165.001-1.333c0-.321.091-.638.337-.755l.007-.004.007.005c.26.146.315.42.315.754l.028 2.5.203.001.004-.445h.08c-.006-.44-.008-.879-.01-1.304M8.57 10.978l1.835-.017-.777-.865c-.053.026-.14.017-.22 0M9.615 9.839c-.107-.034-.272.004-.268.1.008.046.062.085.106.085.062.01.115.011.175-.008.097-.033.1-.137-.013-.177" fill="#fffff4"/><path d="M13.28 16.32c-.028.113-.057.23-.062.349v.004c-.009.02-.015.05-.023.08l-.002.014c-.005.047-.024.106-.04.16-.015.051-.031.103-.038.15a.815.815 0 0 0-.096.09c.017-.096.041-.192.063-.282.016-.055.028-.109.04-.16a.8.8 0 0 0 .044-.163c.012-.062.022-.121.047-.164.015-.075.028-.154.04-.232.014-.092.026-.177.046-.253l.002-.009h.04v.012c.005.138-.028.273-.062.403m.276.542a3.077 3.077 0 0 1-.014-.151c-.008-.113-.017-.24-.045-.302l-.002-.005a3.618 3.618 0 0 0-.143-.837c-.007-.056-.02-.061-.058-.061-.005.017-.01.076-.01.279l-.068.365c-.066.325-.074.325-.089.325h-.002l-.01-.004v-.007c0-.072.01-.135.027-.188 0-.043.019-.16.039-.297.025-.18.066-.447.052-.484a4.112 4.112 0 0 1-.268-.096l-.06-.004c-.051 0-.084.01-.104.035l-.003.002-.014.008-.033.034c.052.029.083.081.08.136a.133.133 0 0 1-.075.116h.022v.012l-.002.05a4.36 4.36 0 0 1-.036.386c-.02.103-.034.524-.058.388 0-.05-.015-.226-.015-.226-.06-.248-.125-.427-.074-.616v-.036l-.005-.008c-.038-.066-.025-.107-.007-.145l-.025.013-.076.028-.048-.021c-.034.009-.088.112-.107.17.02-.036-.115.418-.182.614-.019.108-.061.2-.108.3-.046.1-.096.204-.113.326-.041.12-.074.24-.09.344v.004l-.003.002-.012.01-.019.032a.237.237 0 0 0 .126-.032l.001-.003a.65.65 0 0 0 .16-.095c.046-.097.115-.186.158-.282.01-.256.01-.522.064-.77 0 .007.03-.173.037-.223.075-.145.115-.17.14-.17h.012v.06c-.003.106-.004.268.033.364l.001.004c.005.036.02.077.037.121.018.049.039.1.044.152a.757.757 0 0 1-.028.572c-.011.062-.026.125-.038.188a3.339 3.339 0 0 0-.065.353c.14-.108.163-.108.377-.108l.029-.021c.038-.028.087-.063.112-.103v-.003c.134-.119.262-.185.449-.089l.02.047c.022.032.056.04.082.017-.01-.149-.002-.289.004-.424zm-.877-.727v.013a1.53 1.53 0 0 0 .039-.363v-.005l.009-.018.008-.026a.135.135 0 0 1-.114-.022c.03.046.03.123.032.202.002.078.002.157.026.219" fill="#f0382b"/><path d="M12.522 15.087c-.037.005-.133.078-.193.141a.223.223 0 0 0-.04.051c.04-.002.088-.041.133-.078a.46.46 0 0 1 .115-.078l-.015-.036M12.227 15.113l-.003-.006-.007-.008-.006-.01v-.002l-.003-.006-.003.004-.002.002-.008.011-.007.01-.008.028.046.055.011.007.023-.014.002-.017-.035-.055" fill="#cccbc6"/><path d="M11.985 14.734c-.014.045-.02.114-.03.174l-.003.03-.012.033c-.031.075-.06.147-.076.232 0 .192.045.2.166.22.032.008.07.013.11.025l.065.014.128.031.048.006.008-.007c.005-.012.005-.05-.055-.156l-.038-.004c-.027-.002-.03-.004-.068-.036l-.001-.002c-.044-.068-.094-.101-.152-.101h-.007l-.033-.013-.038.016-.025.014-.016.005.004-.017c.01-.063.064-.063.104-.064l.056-.01c.025-.076.025-.078.043-.112a1.503 1.503 0 0 0-.172-.28M12.707 15.39l.006-.02-.002-.03c-.055-.08-.1-.13-.149-.13-.038 0-.08.025-.132.083-.007.037.025.158.065.182h.008l.004-.002.016-.002a.576.576 0 0 0 .139-.045l.045-.035M12.128 17.985l.03.024.005-.004.002-.037-.002-.027c-.018-.033-.069-.06-.113-.06l-.035.01-.004.018-.001.037c.07 0 .074.002.118.038M12.715 14.61l-.016-.001h-.013l-.022.005-.01.021v.1a.56.56 0 0 1-.015.113c.04-.057.11-.187.13-.237h-.054M13.208 17.306c-.223.106-.203.195-.171.342.012.062.028.134.028.22h.005a.14.14 0 0 1 .074-.019c.023 0 .05.005.077.01.018-.04.038-.353.038-.379l.002-.058c.004-.043.007-.084-.01-.103l-.043-.013M13.234 17.954l-.008-.034a.307.307 0 0 0-.094-.021c-.048 0-.075.024-.083.076a.23.23 0 0 1 .185-.021M13.304 18.076a.205.205 0 0 0-.16-.095l-.07.028c-.018.021-.025.056-.017.098v.002c-.026.114-.012.174.126.244.065 0 .08-.009.119-.068.05-.095.028-.167.002-.21M12.13 18.11c.025-.05.002-.09-.066-.126-.114-.007-.195.085-.267.164l-.021.024c0 .045.028.13.08.153.148 0 .17-.038.21-.113a.749.749 0 0 1 .064-.102M12.305 14.816l.033.058c.034.062.07.125.119.158.022 0 .072-.006.083-.033l-.03-.013-.006-.006.032-.042c.065-.114.089-.204.068-.268a.16.16 0 0 0-.089-.095h-.002l-.003.004a.66.66 0 0 1-.09.354l-.003.005h-.006l-.034-.016c-.015-.025.003-.064.023-.1l.002-.003c-.002-.106-.044-.314-.116-.349-.05 0-.13.024-.174.056.004.046.07.13.124.2a.96.96 0 0 1 .07.09M12.836 13.876l-.036-.004c-.105 0-.293.068-.353.14l.01.043c.007.02.013.042.007.07l-.002.006c-.023.116-.029.137.082.194.036-.007.045-.026.045-.052 0-.04-.006-.074-.01-.101-.008-.06-.015-.103.035-.178l.002-.004h.007c.033 0 .086-.01.145-.018.036-.006.074-.013.108-.017l-.026-.05-.014-.029M12.427 14.336l-.01-.004-.012-.002h-.002l-.002.001v.006l.015.015.017.004.008.002a.683.683 0 0 1 .094.034c.05.02.098.04.15.048l.053.005a.39.39 0 0 0 .147-.031h-.027c-.03.003-.065.005-.086.003a2.143 2.143 0 0 1-.175-.026c-.025-.005-.056-.01-.087-.022l-.043-.017-.034-.014-.006-.002M12.85 14.493l-.002-.015-.061.004a.552.552 0 0 1-.129-.002c-.022-.005-.055-.018-.092-.03-.06-.02-.13-.045-.168-.045l-.018.005c.031.012.059.028.09.044.057.033.117.07.206.076.077 0 .162-.013.175-.037" fill="#cccbc6"/><path d="M12.8 14.034l-.06.013a.38.38 0 0 0-.126.05s.009.004.037.008c.04 0 .04 0 .12-.01a.296.296 0 0 0 .068-.025l.029-.009h.01v.01h.004l.013.01.015.003-.006-.026a.288.288 0 0 0-.104-.025M12.9 14.196c.001.047.012.145.026.156h.009a.73.73 0 0 0-.03-.156M12.314 17.608l.001-.002c.105-.107.164-.313.174-.47.006-.035.017-.063.028-.089l.016-.046c.09-.19.03-.508-.043-.657-.015-.058-.048-.153-.102-.153l-.048.021a1.77 1.77 0 0 0-.04.397 1.799 1.799 0 0 1-.047.442l-.003.002c-.135.212-.14.327-.146.577l-.002.022a.645.645 0 0 0-.051.183h.001a.223.223 0 0 1 .116.06h.015l.017-.041c.037-.088.067-.164.114-.246M11.8 14.172c-.08-.114-.205-.3-.271-.341.01.063.107.247.245.455l.538.837.007.005c.036-.003.08-.045.083-.074l-.547-.802-.055-.08M12.429 14.513l-.004-.005-.008-.011-.019.005c.013.026.03.082.038.13l.006-.02.002-.003v-.035l-.002-.014-.004-.018-.01-.028M12.881 14.34c-.007-.016-.016-.03-.022-.065-.004-.025-.005-.043-.006-.057-.002-.032-.002-.032-.025-.035l-.048-.006a.49.49 0 0 1-.155-.03l.002.034c.002.018.006.043.006.078l-.015.051-.01.027c.025.01.082.018.126.024l.066.01a.359.359 0 0 1 .091-.01l-.01-.02M12.67 15.651l.027.005c.023 0 .05-.012.056-.041.005-.027.002-.048-.007-.06l-.029-.012c-.032 0-.075.03-.081.058-.005.025.015.041.035.05" fill="#cccbc6"/><path d="M11.126 11.133l-.01.004-.034.013c-.03.015-.07.039-.077.062l.011.03.03.005.057-.027.077-.05v-.03l-.03-.01-.024.004M10.983 11.13l.004.01c.029.022.06-.013.08-.03l.024-.02.043-.008.032-.002.021-.013-.021-.033-.05-.014c-.052-.01-.101.031-.128.074l-.005.036M11.015 10.976l-.006.034.034.007.062-.046.06-.017.02-.034-.045-.015-.037.006-.057.03-.026.028-.005.007M11.336 12.683l-.134-1.37-.054.02.135 1.35M11.034 11.288l-.017.018-.005.012c-.01.025.012.05.029.069l.026.025.013.017.023.013.013-.01-.002-.031-.001-.029-.018-.018-.016-.011.018-.02.05-.027v-.025l-.012-.005-.043.004-.058.019M13.237 11.87c-.025.268-.068.453-.125.553l-.023-.008c.007-.044.018-.096.03-.154l.035-.178c.025-.14.021-.32.015-.46l-.002-.134v-.028l.022.019c.024.024.064.222.048.39m.121.795c-.034-.148-.023-.296-.004-.541a8.28 8.28 0 0 0 .028-.427.6.6 0 0 0-.019-.199c-.01-.032-.042-.11-.078-.136a.336.336 0 0 0-.06.017.804.804 0 0 1-.228.05l-.062-.009.016.062c.005.056.002.16-.005.218-.005.051-.014.116-.027.187-.015.103-.034.21-.034.272v.026h.152l.005.486.316-.002" fill="#fffff4"/><path d="M12.863 12.167c-.01-.012-.015-.047 0-.19l.001-.018.012-.114a3.079 3.079 0 0 0 0-.28c-.001-.03-.001-.058-.004-.087l-.01-.056-.022-.004-.037-.033.04-.008.018-.001s.237.006.386-.064v-.077l-.002-.01-.031.016-.057.03a.865.865 0 0 1-.169.048l-.056.005c-.064 0-.133-.018-.2-.035a.639.639 0 0 0-.15-.028c-.033 0-.055.01-.068.032-.014.03-.022.053-.016.065.008.014.036.024.092.034l.055.004.032.004-.01.034-.026.022-.13-.02-.014-.002c-.079.239-.15.552-.043.708l.015.026h-.022l-.039-.026c-.114-.157-.073-.398-.018-.574l.005-.015a.815.815 0 0 0 .033-.104c-.165.173-.187.269-.212.368l-.002.008c-.037.165-.018.515-.006.747l.006.097h.14l.01-.484h.515M11.545 12.384v.345h.415v-.345zM11.243 11.377l.006.03.003.04.023.01c.031.008.058.01.076.01.124-.015.228-.032.389-.07.16-.04.292-.1.26-.232-.152-.14-.223.05-.39.119a.94.94 0 0 1-.117.035c-.032.008-.07.014-.104.023l-.028.009-.013.006-.01-.002-.003-.083.001-.04-.012-.04c-.013-.031-.026-.063-.032-.095l-.008-.05-.007-.054-.025-.012-.019.032-.005.034.005.066.007.022.01.029c.003.044-.006.089.003.133l.008.051v.02l-.017.009M14.363 11.291l-.066-.044-.034-.014-.042-.014-.027.002c-.044.02.033.063.048.07l.062.028.035.019.024-.015v-.032M14.246 10.952h.045l.142-1.458h-.044M14.21 11.035l-.018.013.01.04c.029.002.059.004.086.013l.026.01.018.006.018.001.013-.013-.007-.033-.042-.025-.04-.014-.034-.004-.03.005M14.3 11.438h.006l.026-.014-.015-.052-.05-.037-.027-.014-.038.01.038.065.043.034.017.008M14.178 11.161l.024.015.073.021.073.027.028-.013-.013-.035a.282.282 0 0 0-.102-.052l-.074-.001-.009.039M13.851 12.729l-.002-.345h-.406v.345M14.054 11.368c-.24 0-.389-.284-.547-.416l-.053-.015c-.17 0-.087.15-.018.228.14.158.355.227.556.352.031.018.044.016.072.016l.07-.01c-.02-.078.053-.08.022-.177a.577.577 0 0 1 .006-.315c-.02-.053-.065.018-.065.071-.017.071-.086.195-.017.266h-.026M14.169 11.561l-.125 1.12h.062l.117-1.19c0-.07-.045-.026-.054.07" fill="#fffff4"/><path d="M12.483 12.384v.345h.441v-.345zM10.592 12.382v.347h.43v-.347zM13.507 10.882c-.09-.115-.238.008-.186.062.008.006.03-.042.123-.045.01 0 .083.012.063-.017M14.381 9.399c-.009.017-.009.042.017.052.035.008.062-.01.062-.045l-.027-.035-.052.028M11.712 9.762l.027-.011.006.016h.023l-.02-.055-.022.013-.014.037M11.325 10.008l.036.028h.015l.014-.008.004-.005v-.007l-.027-.021.009-.032.013-.008h-.026l-.013-.008-.005-.008-.008-.014-.008-.015-.006-.006-.011-.007-.01-.009-.005-.013.026-.038-.013-.029-.018-.003-.015.017.004.01-.002.006-.004.01-.006.008-.005-.003v-.03l-.046.006-.002.02.012.01.012.008-.002.005-.005.004-.018-.01-.016.003-.002.038h.018l.007.006v.014l-.007.013.005.015.01.004.019-.009.01-.008h.014l.024.015.017.035.011.02M11.81 9.759c.015.03.046.013.037-.016 0 0 .036.017.045-.013l-.03-.02-.043-.003-.01.053M11.763 10.196c.027.03.071.013.084.006v-.03l-.073-.005-.01.03M11.764 9.98l.026-.022-.024-.02-.03.024c-.037.037-.058.067-.02.125l.05.035.017.027v.008h.055l.008-.035.036-.038c.03-.06.016-.137-.048-.173l-.052-.026a.079.079 0 0 1-.037-.058l-.006-.041v-.01a.154.154 0 0 0-.008.073c0 .034.022.064.066.093.028.017.05.024.056.072.003.025-.012.054-.037.063-.019.004-.042.01-.067-.017-.023-.021-.015-.054.015-.08M11.137 10.855l-.107-1.377c-.026.016-.043.016-.07.008l.114 1.378c.01 0 .038-.027.063-.01" fill="#fffff4"/><path d="M11.616 9.928l.03.005.004-.049c.027.008.017.073-.017.064l-.017-.02m-.028-.026l-.015-.01h.024l.003-.008.005-.008.01-.019v.027c0 .026-.017.026-.027.018m-.01.203l.012-.014-.002-.024.002-.012.001.01.007.014-.02.026m-.043-.248l.014-.004.013-.008-.002-.01.013-.012v.027l-.038.008m-.007.23l.007-.009.019-.036v.004l-.003.005.003.019-.026.017m-.017-.071h.009l.008-.017.026-.01-.018.027h-.025m-.028-.053l-.025-.017c.009.009.053-.008.053.017h-.028m.017.074l-.011.01-.008.005h-.023l.009-.004.008-.007.002-.009h.009l.013-.004.001.01m-.078-.048l.034.005.019-.013-.02.025-.033-.017m.11-.215v-.01l-.006-.005.043.019-.018-.014h-.006v.014l-.006-.001-.007-.002m.118.065l.028.017h-.018l-.02-.008v-.017l-.008-.006-.007-.01v-.01l.025.034m.188.421l-.007-.015-.01-.013-.002-.002-.013.002-.013-.004-.053.008c-.017-.008-.029-.017-.065-.061a.19.19 0 0 1-.042-.116c0-.026.018-.079.035-.105.027.026.047-.012.017-.018h-.017l.017-.008.018-.014-.002-.018-.016-.008-.004.002-.013.006.01-.016.007-.005.011-.01-.001-.02-.027-.006c-.008-.008.028-.008.017-.035l-.035-.009-.012-.012-.013-.01-.027-.012-.059-.01-.013-.002-.011.002H11.47l-.028.004.01.039.015-.005.025-.002.027.008v.018l-.009.018-.007-.002-.026-.004-.011-.01-.018.019.032.014.025-.002.014.007-.003.01.012.02c.01.008.044.045.016.053-.07 0-.044-.053-.087-.018v.018h-.005l-.004-.004-.016-.004-.015.02v.018l-.024.004-.003.025.03.012c-.027.016 0 .062.018.044 0 0 .01.062.045.035l.009-.008.008.036.035.008v.017l.037-.017v.027c.006.017.019.04-.006.055-.017.008-.022.04-.013.068.008.022.015.046.062.07l.029.011.014.01.019.026.012.035.033.05-.01.026-.014.019-.016.013-.023.002-.015-.01-.026-.003-.01.014.01.024.026.005.02-.001.013.004-.031.014-.019.018.01.02.013.007.027-.017.007-.01.013-.01.015.01-.002.03.026.013.01-.004.008-.033-.008-.016.001-.018.026-.02h.017l.012-.006-.002-.014-.01-.013-.01-.026.01-.035.013-.019.006-.018-.02-.012-.016-.005-.017-.008-.017-.019-.006-.03.006-.016.028-.025h.038l.022-.003.01-.02v-.023M11.863 9.764l.012.025c.011.026-.01.066-.044.1l.03.018a.126.126 0 0 0 .037-.076c0-.036-.008-.054-.035-.072M12.877 10.137l-.026.002c-.026.014-.034.03-.085.033a.154.154 0 0 1-.072-.014l-.036-.01-.008.032v.036c.011.028.054.053.084.056.034.004.071 0 .104-.015.023-.01.06-.03.06-.061l-.014-.051-.008-.008" fill="#fffff4"/><path d="M12.932 10.228c-.015 0-.118.166-.163.15l-.062-.049a.499.499 0 0 0-.096-.1l-.056-.008-.06.04.028.032.113.114c.028.028.112.085.163.118.052.033.15-.185.255-.234 0-.062-.086-.062-.122-.062" fill="#fffff4"/><path d="M13.207 10.763c-.084-.194-.091-.334-.017-.412l-.073-.042a.43.43 0 0 0-.09.07c-.004.005-.095.092-.147.188.024.092.017.508-.02.579l-.014.015-.022.007.005-.022c.046-.25.006-.477-.024-.55-.011-.011-.1-.083-.143-.11a.87.87 0 0 1-.15-.128l-.033-.033c-.024-.026-.049-.029-.08-.012l-.003.026a.541.541 0 0 1 .049.076.497.497 0 0 1 .027.223.69.69 0 0 1-.067.257c0 .106.04.183.074.238v-.002l.012.024.012.02c.015.015.21.06.358.066.06 0 .271-.04.367-.07.03-.282.004-.346-.021-.408M11.89 11.032l-.02.018a.285.285 0 0 1 .187.087c.15-.027.234-.257.272-.379a.66.66 0 0 0 .027-.139c.004-.046.01-.087-.003-.132a.221.221 0 0 0-.05-.104l-.03-.025-.034.016a.1.1 0 0 0-.05.063c-.014.056-.035.109-.052.164a.933.933 0 0 1-.052.14c-.053.096-.109.211-.195.29M12.46 9.743l-.027.051.03.013-.004-.064M10.969 9.459c.133-.018.035-.14-.027-.079-.026.019-.007.079.027.079" fill="#fffff4"/><path d="M13.26 10.38c-.147.005-.011.301.042.423.036-.01.062-.036.107-.062 0-.08-.107-.352-.15-.361" fill="#fffff4"/><path d="M11.236 9.8l-.044-.009.026.017.018-.007M11.208 9.934l-.028.02h.036l-.008-.02M11.216 10.094l.003-.012-.039.012h.036M11.145 9.883h.033l.009-.019-.042.019M11.34 10.33l.013-.02-.002-.011v-.008l-.01.038M11.316 9.8l-.006-.027-.018-.006.007.028.01.002.007.004M11.236 10.036l-.037-.002.027.013.01-.01M11.376 10.21l.012-.01-.035.002.023.008M11.325 10.24l.003-.012c-.029-.009-.042.011-.034.027l.03-.016M11.584 9.721l.004-.002v.01l.005.001h.008l.001-.008.012.011.013-.01-.011-.011-.01.004.01-.02-.01-.015-.009.005-.007.004v.023l-.005-.005v-.004l-.016.006.016.012M11.616 10.636l.01-.02-.004-.018-.006.038M11.66 9.725l-.002.01-.012-.012-.008.01.006.007h.01l-.002.003.006.006.006-.005.003.008.013-.004-.003-.009v-.004h-.01l.007-.002.006-.007-.002-.016-.003.002-.01.001-.007.007.002.002M11.573 10.55l.025-.012.003-.014-.029.027M11.499 9.7l-.006.007.006.014h.018l.003.004h.019V9.72l.006.002.012-.006-.01-.016-.015.005.007-.01v-.01l-.01-.006-.008-.006-.01.007v.019l.006.008-.003-.003-.003-.004M11.52 9.733v.008c.081 0 .102.015.136.032l.003-.014a.302.302 0 0 0-.14-.026M11.43 10.387l.019-.026-.01-.01-.009.036M11.274 10.028l-.034-.022.018.026.009-.005h.007M11.816 10.529l-.003.019.031.008-.028-.027M11.729 10.655l-.016-.008.018.031-.002-.023" fill="#f9d438"/><path d="M11.404 10.057l-.008-.011-.005.004-.01.005h-.018l-.027-.01-.02-.018-.014-.024-.016-.04-.022-.014-.038.02-.011-.006h-.03l-.01.002-.003-.008.002-.014.024-.016.001-.008-.014-.01-.006-.008-.008-.01-.014-.001-.028.002.003-.013.006-.012.019-.012h.028l.005.002.002-.002.016-.006-.005-.016.005-.01.004-.01-.008-.01-.01-.004-.015-.002v-.003l.008-.008.017-.011.029.006.014.016.018.008.008-.002.01-.008-.006-.03.04.005.008.03.003.007.007.008.006.016-.005.02-.013.015-.006.01.011.01.017.012.018.028.013.015.028-.004.035-.023c.008-.018.028-.04.062-.014l.027.01-.008-.007-.003-.006-.016-.012-.008-.012-.002-.01-.005-.004h-.016l-.014-.001-.015-.002-.009-.023h-.005l-.015.005h-.02l-.025-.019-.004-.023.03-.011V9.794l.012.002.016-.004.011-.004-.008-.024.006-.019.015-.006h.06l-.002-.006-.01-.001-.013-.017.003-.019.017-.004.035-.027.01.013v.01l.017.01.01-.007.006.004.003-.013.009-.01.01-.001h.012l.012.013-.003.017.009.002.002.011.018.002.004-.014.011-.006.03.02-.012.016.006.006.003.006-.008.011-.007.001-.01.018.013.006.018.007.008.015v.014l-.01.012.014.013-.003.023-.004.012.014.031-.015.028c.02.017 0 .043-.026.034-.024.031-.027.07-.027.07 0 .054.002.062.033.116.016.025.034.041.057.062h.034c-.034-.01-.049-.061-.01-.07.009-.008-.016-.02-.04-.036l-.041-.056c-.015-.063.034-.105.068-.133-.052-.042-.03-.117-.028-.14-.02 0-.038-.026-.02-.052l.045-.043.035.07-.029.026v.03a.08.08 0 0 0 .065.07s.082-.079.034-.115l-.025.015c-.01 0-.04-.003-.03-.046l.012-.05c.037.026.08-.01.091.031l-.023.035.034.055c.003.028-.009.067-.043.102.051.043.054.138.02.19-.018.028-.052.033-.037.05.025 0 .032.04.014.057-.014.014-.029.01-.013.036v.053l-.02.024-.03-.002-.01-.003-.016.003-.023.032.015.026.038.02.027.02-.003.015-.021.028-.01.02-.003.01.006.017.016.01.028.013v.04l-.013-.012-.018-.002-.01.007-.045.023.012.03-.018.035-.016.005.01.03c-.036 0-.053-.017-.046-.044v-.044l-.025.035s-.028.018-.045-.008l-.008.027c-.046-.019-.021-.058-.006-.065.013-.016-.018-.007-.02-.042l-.026.026c-.02-.016-.004-.064.033-.055l.04-.002.032.002c.027-.016.025-.032.025-.042l-.007-.02-.013-.02-.008-.016-.007-.01-.008-.019-.012-.013-.015-.008-.017-.007.018.03.01.015-.003.015c-.008.01-.043.035-.062.007l-.068-.06-.03.016-.02-.008-.012-.002-.008.01-.006.015-.002-.002-.02-.026.02-.03-.014-.007h-.033l-.025-.018-.019.026-.001-.002-.02-.034.01-.016.022-.01-.017-.008-.008-.012-.002-.006v-.005l-.036.02-.006-.028.018-.024h.016l.019.002.014-.005.013.002.012.004-.03-.01v-.011l.01-.008.029-.004.005.005.004.002h.015l.016.008.01.008.011.024.007.022.016.015.02.018.012.006-.012-.024-.02-.026.002-.035.015-.014.006-.002.037.008.025-.01c.01-.009.02-.009.01-.034l-.044-.008h-.027l-.018.028-.029.008-.034-.027-.027-.008-.013.006-.039.014-.013-.01-.008-.01-.012-.005-.01.002-.008.008-.042-.004-.001-.014-.005-.017-.012-.013-.007-.006-.008-.004-.013-.002-.02.006c-.008-.032.026-.034.026-.034h.028l-.01-.017-.025-.011c0-.018.026-.033.05-.008h.01l-.03-.033.03-.002.021.01.013.019.018.01.005.026.002.01.012.007.011.006.01-.001.023-.015.03.005.014.002-.005-.013-.003-.007m.281-.474c-.13-.045-.254-.052-.387-.06a9.137 9.137 0 0 0-.214-.036l.09 1.138c.175.019.525.149.718.167l.086-.017-.045-1.13a1.13 1.13 0 0 1-.248-.062" fill="#f0382b"/><path d="M11.384 9.794l-.008.002.008.027.057-.009.051-.01-.02-.004h-.031l-.022.004-.02.003-.013-.005-.002-.008" fill="#f0382b"/><path d="M12.405 10.214l.045.02.034-.03-.048-.018-.03.028M12.922 9.763l-.018-.004-.043-.005-.006.024-.045-.005-.002-.014-.03.022-.01.022-.003-.022.012-.056.053-.026h.003c.028 0 .062.022.079.049zm-.16.238l-.077.015.02-.015.032-.026H12.758l.002-.003.014-.006h.008l.052.014.021.005-.093.016m.05.023l-.044.024-.039-.006-.012-.008.046-.005.041-.011.008.006m-.179-.202l-.028-.015v-.015l-.042.027-.015.017.002-.023a.098.098 0 0 1 .056-.074l.037-.008.052.024c.022.024.022.049.022.08v.043l.004.043.037.005.031-.008-.006.018-.045.016h-.006l-.037-.03c0-.079-.01-.104-.02-.122l-.019-.014.002.005-.025.032m.246-.193c-.09-.026-.174-.051-.214-.12h-.004a.307.307 0 0 1-.064.12.466.466 0 0 1-.065.067l-.025.026c-.003.025.002.056.004.083.003.03.008.06.016.088a.37.37 0 0 0 .082.148l.064.05c.037.02.075.028.112.024.033-.006.048-.018.064-.03l.01-.008c.09-.067.114-.272.049-.438l-.03-.01M13.113 10.128c.026.01.054.015.077.033.033.024.036.06.036.099l.001.01c.039-.05.037-.093-.002-.129a.203.203 0 0 0-.135-.042l-.067-.006-.051-.023v-.02l.022-.017c.043-.014.076-.061.059-.106l-.025-.048-.012-.02-.014-.022c0 .004-.009.01-.004.036l.012.038.017.05-.03.041-.036.056c-.004.027.036.038.055.043.001 0 .066.016.097.027M13.14 10.238l.05.017-.002-.002-.027-.03-.056-.015-.035-.005.05.03.02.006M13.076 9.64l-.064-.02.002.026.03.025.06.024.032.012a.32.32 0 0 1 .085.05l.024.035.004.005c-.004-.046-.023-.1-.068-.123-.043-.022-.076-.028-.105-.035" fill="#fffff4"/><path d="M13.067 10.172l.034.006.04.009.033.017.016.013v-.007l-.02-.034c-.013-.012-.037-.02-.068-.025-.01-.001-.034-.002-.066-.007l-.027-.007c.011.02.03.03.058.035M12.755 9.386h-.001c.014.067.166.16.24.206l.004.002-.01-.04c-.034-.08-.137-.169-.233-.169M13.087 9.825a.634.634 0 0 0-.078-.041l.013.02.024.035.005.008.026.044.014.033.008.039-.005.044.035-.015.038-.034c.015-.024.002-.047-.012-.069a.205.205 0 0 0-.068-.064M13.045 9.743a.589.589 0 0 1 .084.058l.031.03a.223.223 0 0 1 .048.09l.014-.015c.024-.035.019-.076-.011-.109a.29.29 0 0 0-.111-.071l-.064-.024-.058-.024-.015-.008.007.032a.557.557 0 0 0 .075.042" fill="#fffff4"/><path d="M12.647 9.39l.01.039a.237.237 0 0 0 .09.1.22.22 0 0 0 .081.034.35.35 0 0 1 .08.031.28.28 0 0 1 .078.06c-.003-.038-.022-.053-.058-.075l-.047-.031-.038-.026c-.054-.038-.105-.08-.113-.14l-.033-.002-.042.006-.007.004M12.294 10.197h.046c.025 0 .032 0 .034-.002l.003-.003-.056-.018-.046-.005-.064.016-.049.053-.015.06.01.051.003.002.017-.023.007-.037.006-.033.023-.027a.136.136 0 0 1 .081-.034M12.507 9.608c-.02.024-.066.075-.096.075h-.003V9.68c0-.005.02-.028.08-.094l.053-.064.04-.065.022-.036.005-.006v.007c.006.034-.046.122-.101.186m.12-.185l-.02-.023h-.015a.195.195 0 0 0-.154.097.321.321 0 0 0-.052.168l.012.058.01.011.034-.02.076-.073a.487.487 0 0 0 .077-.091.204.204 0 0 0 .033-.127M12.34 10.266l.012-.005-.018-.002-.052.016-.032.033.013-.008.044-.024.034-.01M12.497 10.136l.024.036-.002-.045-.007-.017-.015-.044c-.006-.034.015-.066.007-.101l-.01-.036a.455.455 0 0 0-.033.127c-.002.034.018.056.036.08" fill="#fffff4"/><path d="M12.358 10.215l-.015-.002-.034.004a.115.115 0 0 0-.067.043l-.018.033.015-.016c.026-.033.07-.045.104-.05l.017-.002.023-.002h.002l-.027-.008M12.267 9.839a.182.182 0 0 0-.053.127l.004.031c.006.04.02.094.055.118l-.003-.012c-.007-.025-.016-.054-.013-.085a.236.236 0 0 1 .087-.171c.027-.024.058-.054.061-.087l-.04.015-.019.008c-.025.012-.05.024-.079.056" fill="#fffff4"/><path d="M12.46 10.15l-.031-.035-.01-.014c-.02-.027-.012-.065-.005-.091l.013-.046c.01-.03.021-.06.015-.09l-.021-.057a.327.327 0 0 0-.081.094.248.248 0 0 0-.044.125c0 .042.013.07.075.095.02.007.047.014.088.019M13.26 14.43c.017 0 .028-.009.017-.034l.018.008.023-.02c-.008-.027-.044-.024-.069-.034l-.008.033c-.007.027.003.046.019.046M13.768 15.148l.002-.002.006-.018-.02-.016a.35.35 0 0 0-.078-.014l-.044-.005-.07-.025-.049-.049-.037.014-.018.026.005.019.034.019.062.013.006.025-.03.008-.043.006h-.02l-.034-.018-.023-.01-.05.012.011.026h.026l-.003-.01.014.01-.021.016h-.019l-.018.01-.007.037.036.01.011-.009.007-.008.005-.008.02-.004.005.007-.002.004-.017.033.039.015.025-.027.005-.013.018-.008.025-.008.022.011.02.005.023-.005.01-.02v-.021l.045-.028.066.004.04.002.015-.006M13.4 15.05v-.013l-.006-.025-.003-.02-.002-.018-.011-.003-.018-.01c-.017.032-.042.024-.065.015v.015l-.012.017-.034.033-.013.022-.004.023-.018.011-.017.007-.022.008-.012-.006-.012-.005-.007-.012-.02-.014-.022.007-.006.021h.025l-.013.002-.014.005-.009.005-.005.027.028.003.028-.003-.023.011-.002.031h.022l.014-.005.013.001.009.012.009.01.022-.01.003-.022.028-.024c.015-.005.054.013.054-.017v-.032l.016-.014.013-.012.021-.012.031-.005.023-.001.011-.006M13.12 15.015c.037.006.055 0 .063-.004l.014-.015.006-.021v-.008l-.006-.008-.05.004-.017-.038.005-.018-.03.026-.013.001h-.012l-.023-.009-.02-.005h-.009l-.016.002h-.018l-.018-.007-.008-.059-.043-.013-.017.013-.002.03.013.005.006.007.002.012.002.011-.007.004-.014-.017-.012-.013c-.029-.004-.05.025-.04.05l.017.016.02.002.02-.004.004.007-.002.008-.026.005-.013.021.032.039.008-.01.008-.01h.008l.02.01.002.02.014.01.023-.008.005-.02v-.019l.015-.014.038-.008.047.017.025.01M13.351 14.339c.04.013.057-.031.018-.052 0 0 .053-.014.031-.052l-.046.008-.044.039.041.057M13.705 14.79c.05.005.079-.055.083-.07l-.028-.03c0 .033-.038.062-.069.06l.014.04M13.507 14.585l.008-.043-.044.003-.005.052c0 .065.008.116.095.134.015.004.053 0 .08-.013l.04.008.01.008.048-.049-.024-.04a.105.105 0 0 0 0-.07c-.027-.082-.111-.143-.203-.117l-.075.021a.108.108 0 0 1-.087-.019l-.041-.032-.007-.008a.19.19 0 0 0 .054.073c.036.031.081.042.149.028.041-.009.07-.023.119.016.026.02.038.062.02.095-.012.02-.026.044-.075.044-.039-.002-.064-.038-.062-.091" fill="#fffff4"/><path d="M13.452 14.873l-.006-.023-.023-.022-.008-.011.008.006.014.008.015.042m-.066.03v-.016l-.017-.049.006.005v.006l.019.014-.008.041m-.1.033l.007-.016v-.012l-.005-.01.009-.011.005-.012.012.006-.003.017-.003.017-.02.02m.017-.081l.009-.008-.009-.026.016-.032.008.04-.024.026m-.108.056l.035-.028.008-.03.005.042-.048.016m-.008-.074l.068-.032-.026.023-.042.008m.132-.162l.036-.023c-.005-.03-.033-.042-.042-.051.033-.016.083.056.042.079l-.036-.005m-.047 0l-.025.008.016-.017.006-.009-.004-.009-.002-.012-.007-.027.025.024c.022.026.005.042-.01.042m-.09.008l.007-.017.005-.02-.01-.008v-.022l.022.025c.008.009.008.042-.024.042m.034-.131l.06.009.038-.008-.014.016-.027.008-.018-.014h-.012l-.016-.002-.011-.01m-.112.057l-.01-.012-.011.006V14.6l.057-.022-.02.018-.01.01-.006.002m.924.607l.025.032.037-.013.006-.013-.025-.035-.023-.01-.014-.016.008-.041.017-.018.003-.017-.014-.012-.02-.005-.033-.012-.024-.043-.007-.028-.009-.024-.028.007-.02.009-.023.008h-.034l-.035-.024-.007-.019v-.05l.039-.034.015-.02-.006-.032-.022-.02-.024-.007-.016-.006-.007-.001-.009.014-.015.01c0 .033-.011.046-.042.056-.025.008-.043.01-.118.002a.252.252 0 0 1-.144-.07.33.33 0 0 1-.063-.131c.047.002.031-.053 0-.033l-.017.016.007-.025.004-.026-.019-.017-.02.005-.006.008-.003.016-.004-.023v-.011l.002-.019-.02-.017-.03.017c-.014 0 .017-.033-.014-.05l-.043.025-.02.002-.02.003-.04.013a.329.329 0 0 0-.064.042l-.014.013-.008.012-.016.014-.027.025-.022.03.045.027.006-.02.027-.025.028-.016.017.016.007.025-.01.008-.024.02h-.018v.034l.043-.018.022-.024.017-.005.007.009.03.01c.018-.003.08 0 .065.034-.065.065-.09-.009-.098.065l.016.016-.007.006h-.006l-.018.01.002.034.016.016-.016.024.021.028.038-.02c-.01.042.056.06.056.027 0 0 .067.049.074-.007v-.018c.018 0 .018.018.043.025.024.009.04.01.04-.023l.015.016c.025-.008.034-.033.018-.05l.026.025c.022.01.055.02.045.057-.009.025.016.06.049.076.031.014.058.03.124.008l.036-.013.025-.005.042.006.042.021.077.019.015.032.002.029-.002.029-.02.022-.024.007-.026.02.002.024.035.01.026-.017.017-.022.015-.005-.015.038v.035l.027.008.019-.002.01-.04-.004-.018.01-.025h.017" fill="#fffff4"/><path d="M13.105 14.586l.008.006.006.01.022-.022h-.028l-.008.006M13.404 14.293l.036.013c.031.017.048.07.048.137l.045-.012a.17.17 0 0 0-.034-.107c-.034-.034-.059-.042-.1-.034" fill="#fffff4"/><path d="M12.858 14.9l-.053.027.043-.006.01-.022M12.944 15.053l-.006.044.034-.032-.028-.012M13.102 15.195l-.01-.013c-.027.006-.036.03-.024.046l.034-.033M12.84 15.063l.034-.031-.011-.024-.024.055M13.43 15.302l-.007-.03-.01-.007-.005-.007c-.01.01-.019.044.023.045M12.927 14.828s-.008-.02-.034-.018l-.02.01.034.019.006-.006.014-.004M13.065 15.123l-.034.03.032-.012.002-.018M13.357 15.156v-.017l-.03.033.03-.016M13.335 15.233l-.006-.015c-.036.017-.028.048-.008.057l.014-.042M13.105 14.51v-.005l.008.007.003-.004.01-.005-.003-.008.017-.002.004-.023-.02.002-.008.011-.008-.026-.021-.005-.004.01-.002.012.01.014.01.007-.01-.002h-.007l-.006.017.027-.001M13.972 15.338l-.008-.028-.024-.013.032.04M13.178 14.445l.008.009-.022.002.003.015.013-.003.006-.005.003.005h.011v-.009l.01.002.008-.013-.009-.008-.007.004-.005.005.003-.008v-.011l-.017-.015-.004.007-.007.01.003.012M13.851 15.297l.014-.035-.009-.017-.005.052M13.005 14.568v.01l.02.01.014-.019.006.004.018-.019-.006-.005.016-.01v-.012l-.024-.007-.009.019-.003-.015-.012-.006-.01.001-.013.002-.005.018.019.016.012.002h-.003l-.01.001-.01.01M13.054 14.58l.005.008c.077-.076.113-.08.16-.096l-.008-.016a.37.37 0 0 0-.157.105M13.57 15.274l-.006-.041h-.018c-.01.007-.01.04.024.04M13.092 15.081l-.047.008.039.01.002-.011.006-.007M14.06 15.057l.014.017.034-.019-.048.001M14.094 15.252l-.022.006.047.014-.025-.02" fill="#f9d438"/><path d="M12.982 14.762l-.004.007.034.019c.03-.004.037-.04.042-.061l.038-.057-.02.016-.032.027-.015.026-.013.02-.021.008-.009-.004" fill="#f0382b"/><path d="M14.057 15.264c-.024-.009-.048-.016-.04-.041l.009.057s-.011.04-.05.031l.014.033c-.057.024-.071-.035-.063-.055-.002-.025-.024.01-.057-.021v.05c-.033-.002-.061-.058-.022-.083l.037-.038.035-.026c.008-.042-.007-.054-.014-.064l-.029-.01-.029-.008-.022-.007-.012-.005-.027-.01-.024-.002-.024.004-.02.012.044.01.023.007.012.015c0 .016-.015.084-.059.073-.018-.006-.111-.035-.111-.001l-.017.04-.025.009-.011.008.001.018.008.019-.002.002-.045-.008-.007-.045-.02.004-.032.03-.04.008.006.039-.004.002-.05-.014-.003-.025.01-.03-.022.006-.018-.004-.007-.004-.007-.005a.325.325 0 0 0-.014.052l-.034-.021-.002-.038.015-.015.02-.017.008-.014.014-.012.014-.008-.04.022-.009-.014.003-.018.025-.026h.007l.01-.008.012-.008.025-.01h.015l.028.01.028.016h.03l.036-.004.02-.002-.037-.013-.043-.005-.031-.033.003-.03.006-.009.038-.022.017-.031c0-.018.008-.025-.023-.042l-.05.032-.025.023.013.045-.007.024-.037.021-.05.007-.018.004-.005.017-.026.046-.02.004h-.011l-.022.004-.008.012v.014l-.04.033-.015-.009-.02-.014-.023.002h-.011l-.014.005-.011.008-.014.024c-.037-.022-.007-.057-.007-.057l.024-.025-.024-.007-.041.023c-.007-.024.002-.065.05-.063l.005-.005-.056-.007.026-.03.03-.008.028.006.027-.006.028.02.009.007.02-.004.014-.005.01-.01.008-.034.03-.022.018-.01-.018-.011h-.01l-.015-.005v.007l-.008.012-.016.018-.035.016h-.035l-.033-.01-.052-.023-.032.007-.018.054-.018.004-.028.03-.007.014-.013-.008-.007-.019.005-.034-.002-.01-.026.007-.01-.005-.015-.001-.02.015-.02.023-.01-.015-.004-.016.006-.029.022-.024.008-.004.003-.004.006-.018-.017-.012-.003-.013-.008-.012-.017-.002-.01.005-.017.011-.003-.002-.002-.015.009-.027.033-.017h.026l.023-.01.008-.007.002-.016-.03-.026a.043.043 0 0 1 .042-.03l.035.021.007.004h.014l.02.009.011.025.006.02.003.025h.02l.028-.002.04.008.029-.012.016-.02c-.007-.01-.014-.038.012-.053-.008-.025.001-.06.058-.068l.023-.015h-.023l-.022.002-.017-.005-.012-.006-.01.002-.016.011-.012.011-.018.01-.027-.01-.006.002-.01.019-.019.018-.04.006-.024-.016.019-.04.002.006h.006l.015-.005.007-.02.01-.017-.029-.01-.014-.023.016-.027.03-.029.017-.02-.004-.004-.011.008-.03-.004-.013-.02.012-.019c-.03-.007-.014-.054.009-.057l.02.002.011.014.024-.01.002-.014.008-.005-.003-.013v-.018l.003-.01.015-.01.022.002.01.016.009-.005.019.01.017-.016-.008-.016.003-.018.046-.006.004.027.012-.002.006.005.008.014-.006.012.006.024.014-.008.026-.01.017.005.014.017v.022h.028l.018.021.004.02.043.01.011.04c.033 0 .044.041.008.057.005.05.04.088.04.088.047.05.054.059.133.081a.367.367 0 0 0 .11.006c.03-.002.05-.03.034-.03-.04.022-.102-.013-.075-.057 0-.015-.03-.004-.072.003-.022.007-.062 0-.088-.017-.07-.043-.064-.127-.057-.184-.084.005-.133-.082-.152-.105-.016.017-.056.008-.064-.034v-.08c.027.009.083.018.097.035l-.006.052.029.027a.113.113 0 0 0 .126.006s.007-.148-.074-.138l-.006.038c-.01.007-.044.033-.074-.015-.01-.026-.013-.038-.033-.06.06-.007.063-.082.117-.052l.007.052c.026-.008.06.004.085.022.027.022.053.069.05.134.084-.006.177.078.193.16.007.04-.02.076.006.082.024-.025.068.008.066.037-.004.027-.017.036.023.046.025.009.04.025.05.049v.043l-.03.024-.013.007-.01.019.003.05.04.01.055-.015.043-.006.011.017.007.044.007.027.005.014.015.012c.025 0 .025 0 .033-.008l.037-.01.035.038h-.023l-.018.01-.013.023c-.015.013-.036.04-.008.057l.033.017.016.05-.008.018.035.02c-.033.031-.068.031-.082-.002m-.78-1.336c-.134.133-.655 1.007-.709 1.176.54.397 1.21.43 1.703.307 0-.55-.553-1.386-.995-1.483" fill="#f0382b"/><path d="M10.207 11.405h-.344v-.177h.344zm-.517 0h-.343v-.177h.343zm-.519 0H8.83v-.177h.342zm-.483-.295l.002.407 1.682-.001v-.406M8.887 12.958l.564-.76a.14.14 0 0 0 .023-.078c0-.079-.102.013-.116-.053-.023-.101.046-.106.13-.071-.018-.116-.157-.053-.128-.141.03-.05.086-.018.133.025l.005-.05c-.017-.037-.028-.069-.025-.09.001-.032.025-.043.048-.043.017 0 .048.016.048.042.011.033-.05.098-.022.141.104-.113.203.01.075.036-.031.006-.072.028-.072.08.055-.025.135-.053.142.036 0 .114-.2-.023-.102.163l.57.757.003-1.274H8.889M19.811 16.152c-.037.04-.007.206 0 .218.03.063.084.094.145.124l.025-.104.018-.003c.026 0 .046.03.056.085l.065-.064c0-.096-.04-.256-.309-.256m1.012.227c-.072 0-.147.011-.262.03.001.11.174.127.351.137.08 0 .204-.011.243-.08-.168-.07-.247-.087-.332-.087m-.963 1.708c-.206-.032-.557-.277-.54-.458.442-.496.215-.777-.156-1.12l-.105-.075c-.094-.064-.174-.119-.173-.172.133.016.19.084.277.187.111.134.184.177.23.193.042-.129-.083-.256-.214-.389-.122-.124-.25-.255-.27-.336h.02c.064 0 .127-.009.154-.056.021-.04.008-.095-.04-.167-.052.017-.053.022-.062.087l-.047-.097.058-.004c.124 0 .216.052.304.102.132.077.312.18.52.205.291.021.582.043.605.352.056.01.098.014.132.014.047 0 .078-.008.112-.015.052-.015.141-.031.144-.031.13 0 .216.037.3.073.065.027.134.056.212.074-.022.121-.333.222-.523.222a.547.547 0 0 1-.197-.066h-.094c.109.3-.002.851-.227 1.191-.085.131-.225.286-.407.286M14.403 20.16c-.043-.012-.077-.039-.087-.072.034-.081.068-.1.106-.12l.086-.052a.191.191 0 0 0-.086-.024c-.032 0-.055.014-.076.026l-.097-.002c-.006-.025.007-.06.036-.102.03-.04.133-.06.183-.07l-.11-.046c.013-.045.042-.066.088-.066.046 0 .103.02.157.04.37-.025.62-.263.86-.492.087-.082.173-.164.264-.236.04-.031.095-.047.169-.047.117 0 .263.037.431.08.227.058.438.112.656.129-.157.158-.189.349-.222.549l-.093-.031c-.396-.189-.575-.275-.745-.275-.204 0-.383.129-.744.42-.098.139-.173.254-.453.254a.338.338 0 0 0-.138.064c-.056.043-.099.076-.155.076" fill="#fffff4"/><path d="M19.453 25.614c-.121-.029-.104-.13-.103-.133.007-.041.023-.049.063-.067.022-.012.052-.026.087-.052l-.09-.02-.1.022-.02-.106c.03-.035.11-.048.159-.055-.065-.056-.068-.098-.023-.127a.448.448 0 0 1 .067-.006c.046 0 .079.01.12.023l.09.038c.054.023.09.039.11.04h.004c.29 0 .5-.243.702-.478.135-.157.244-.281.356-.35.07-.56-.039-.683-.36-1.047-.285-.291-.319-.586-.354-.898a2.433 2.433 0 0 0-.11-.555c-.219-.39-.728-.434-1.222-.475-.28-.024-.547-.046-.75-.131-.205-.087-.406-.172-.541-.322-.153-.172-.21-.262-.203-.319l.092-.102a.518.518 0 0 0-.245.057c-.075.032-.146.063-.222.07h-.009c-.307 0-.523-.098-.733-.194-.1-.046-.15-.086-.196-.121-.051-.04-.095-.074-.135-.074-.212 0-.42.296-.603.556-.14.198-.271.382-.364.382h-.24c-.036 0-.09.03-.15.064-.083.046-.177.098-.247.098-.034 0-.081-.011-.094-.113.032-.044.065-.055.158-.062-.043-.046-.077-.059-.104-.059l-.044.01c-.065-.027-.07-.058-.058-.077.023-.042.119-.046.165-.047l-.058-.07c-.014-.038.036-.058.124-.058.034 0 .074.003.124.01.321 0 .622-.37.862-.667.078-.097.152-.189.22-.258a.373.373 0 0 1 .268-.114c.086 0 .176.028.261.083a.55.55 0 0 0 .265.056.915.915 0 0 0 .62-.246c-.064-.33.257-.748.484-.934.198-.156.412-.223.638-.294.221-.07.45-.141.673-.305.234.31.59.507.744.57a.74.74 0 0 0-.219.554c.016.53.518 1.024.672 1.162.057.05.104.098.15.144.119.122.223.227.45.3l.088.025c.122.03.306.078.452.16.283.167.46.428.56.618l.14.012c.635 0 1.318-.093 1.559-.783.108-.437.034-.874-.196-1.17a.817.817 0 0 0-.663-.327.962.962 0 0 0-.156.013c-.26.056-.39.234-.381.532.003.084.06.18.185.313-.148-.048-.237-.246-.237-.248-.088-.247-.08-.452.022-.597.098-.138.284-.218.511-.218.355 0 .717.18.924.46.282.48.346.965.18 1.367-.17.41-.57.717-1.13.865l-.168.033a1.7 1.7 0 0 0-.44.118c-.035.095-.044.183-.054.268-.018.16-.033.301-.126.387-.538.458-.432.787-.18 1.376.091.27-.35.497-.562.606-.05.026-.088.046-.109.06-.105.058-.26.233-.411.402-.119.134-.274.31-.316.31h-.021c-.245 0-.294.02-.39.061a.57.57 0 0 1-.195.056" fill="#fffff4"/><path d="M17.073 24.24c-.062-.034-.08-.092-.076-.12.008-.038.038-.044.085-.05.037-.006.074-.012.095-.041l-.106-.03-.095-.07c.004-.036.033-.07.06-.07l.092.012.109-.022-.087-.072.03-.113c.034 0 .092.062.133.108.035.04.065.074.09.087.048.024.104.036.164.036.197 0 .427-.124.63-.235.118-.063.215-.114.306-.15.19-.09.258-.342.325-.587.07-.252.14-.498.31-.649.018-.016.047-.034.081-.055.135-.08.317-.186.357-.354a.334.334 0 0 0-.034-.234c.434.128.471.619.503 1.051-.364.048-.57.205-.84.69-.221.435-.307.438-.557.448-.103.004-.23.01-.404.047a.709.709 0 0 0-.318.173c-.076.063-.135.113-.247.113a.645.645 0 0 1-.185-.032.877.877 0 0 0-.219.07.559.559 0 0 1-.176.054" fill="#fffff4"/><path d="M6.884 11.3c0-.035-.038-.043-.214-.048h-.253c-.444 0-.759.007-.93.022l-.016.092c.2.005.387.006.577.006l.694-.006c.125 0 .142-.008.142-.066M7.673 13.52a.29.29 0 0 0 .267.187l.026.014.003-1.043a2.8 2.8 0 0 0-.372-.368l.038-.068.015-.013c.08-.079.19-.186.21-.302.035-.19.001-.293-.135-.468a.279.279 0 0 1-.082.109.565.565 0 0 1-.3.1.373.373 0 0 1-.316-.164c-.089.087-.231.087-.285.087l-.2.002-.134-.023c.259.562.758 1.117 1.38 1.596-.118.105-.16.234-.115.355M5.923 11.597c-.16 0-.309-.002-.455-.005-.069 0-.136-.03-.158-.083a.459.459 0 0 1-.337.16.554.554 0 0 1-.3-.1c-.041-.033-.07-.084-.074-.084-.145.148-.178.251-.143.443.02.113.127.22.209.3l.044.09c-.044.036-.27.224-.46.482-.165.225-.243.427-.227.582.014.128.094.229.238.3a.28.28 0 0 0 .114.026.294.294 0 0 0 .268-.188c.045-.12.003-.248-.105-.428.611-.406 1.112-.96 1.386-1.495M5.352 11.08c.023.024.06.037.126.037l.452.001.87-.004c.101 0 .16-.065.124-.202a.205.205 0 0 0-.127-.036c-.489 0-.904.001-1.337.01-.09 0-.138.062-.108.194M8.67 8.316l.009-6.12.07-.068c.055-.092.062-.179.021-.25-.058-.1-.201-.166-.37-.166-.175 0-.314.072-.364.188-.04.09-.014.195.08.305l-.021 6.111zM6.885 10.663c0-.037-.06-.043-.144-.046l-.372-.002c-.422 0-.72.007-.883.023l-.015.091c.195.004.383.007.577.007l.694-.007c.123 0 .143-.009.143-.066M3.912 10.753h.003c.13-.004.283-.08.314-.2-.215-.245-.194-.608-.126-.911a1.8 1.8 0 0 1-.19.013.361.361 0 0 1-.174-.034c.051.324.073.689-.136.916.024.136.178.212.31.216M7.984 8.922a.263.263 0 0 0-.076.193c0 .077.026.143.076.193zM6.786 10.409c.085-.304.283-.47.554-.47.045 0 .092.005.16.05-.058.182-.099.365.064.451.066.037.13.055.191.055a.294.294 0 0 0 .211-.09l.002-.81c-.126-.18-.325-.28-.6-.29-.285 0-.594.186-.753.37-.194.223-.32.471-.392.715h.144zM3.64 2.217l.006 6.446c.096-.021.198-.032.3-.032.098 0 .191.01.258.045l.005-6.492c.084-.09.11-.195.072-.284-.05-.116-.189-.188-.369-.188-.164 0-.308.065-.367.166-.04.072-.032.159.02.25zM3.912 9.42c.112 0 .478-.022.478-.305 0-.193-.161-.292-.478-.292-.27 0-.43.115-.43.305 0 .271.33.292.43.292M1.993 6.639l.572.018.002.237.852.001.016-1.496-.364-.054.01-.378-.516-.027-.015.667.45.056-.035.505-1.326-.029-.007-.478.357-.045.017-.649-.776-.009.008 1.971h.725zM1.996 3.702l-.459-.061.021-.437 1.514.013-.03.414-.449.053-.018.693h.478l.02-.432.346-.008V2.502h-.803l-.052.299-.659-.018-.017-.254-.659-.01-.016 1.858.767.01zM11.077 6.928l.026-1.952-.777-.026-.015.649.387.084-.04.485-1.329-.021V5.64l.42-.016.017-.667-.514-.008-.028.422-.33.01-.017 1.496.856.032.039-.28.57.038-.009.245zM10.444 2.514l-.053.288-.659-.026-.016-.257-.838-.033V3.92l.384.044-.004.398.478.034.002-.695-.485-.096.005-.41 1.52.027-.02.436-.422.026v.703l.75.008.017-1.858z" fill="#f9d438"/><path d="M3.297 13.166c-.118.105-.16.233-.115.354.042.11.152.188.267.188a.289.289 0 0 0 .116-.027c.143-.07.223-.171.237-.299.017-.154-.06-.356-.226-.583a2.786 2.786 0 0 0-.47-.489l.048-.076.014-.015c.077-.076.181-.18.201-.291.033-.19-.002-.298-.136-.47a.282.282 0 0 1-.08.11.56.56 0 0 1-.302.1c-.17 0-.324-.104-.436-.296-.194-.339-.212-.857-.04-1.156a.535.535 0 0 1 .26-.23.547.547 0 0 1 .215-.046c.044 0 .089.004.158.05-.056.18-.097.363.064.45a.405.405 0 0 0 .192.056c.215 0 .333-.235.338-.468.006-.345-.206-.703-.723-.723-.267 0-.59.19-.756.37-.32.344-.456.758-.402 1.226.091.759.705 1.62 1.576 2.265M4.558 10.496a.415.415 0 0 0 .194-.056c.157-.085.124-.266.087-.487a.731.731 0 0 1 .136-.014c.274 0 .472.171.538.47.067-.004.15-.009.246-.009.094 0 .2.004.317.013a1.624 1.624 0 0 0-.377-.739c-.157-.183-.466-.37-.776-.37-.494.02-.709.378-.702.724.005.232.123.468.337.468M6.349 16.246c.003-.045.04-.097.133-.097.049 0 .132.017.28.16-.016.057-.14.1-.215.1h-.003c-.142-.022-.2-.1-.195-.163M5.708 16.222l-.05.015-.049.014c-.012.018-.003.028.043.074l.005.004v.004l-.015.044-.036.008-.03-.01a.138.138 0 0 1-.046-.158c.02-.054.07-.097.112-.097.018 0 .05.009.065.058l.001.043" fill="#f9d438"/><path d="M9.98 24.587a.79.79 0 0 1-.134-.115 2.943 2.943 0 0 0-.36-.837c-.032-.048-.037-.155-.044-.279-.01-.245-.027-.578-.232-.816-.21-.49-.207-.987-.203-1.545l.018-.093c.068 0 .091.165.165.482.211-.146.285-.384.249-.766.037 0 .067.073.106.206.56-.645.095-1.826-.06-2.172-.214-.437-.338-.546-.774-.825-.176-.11-.4-.192-.625-.273-.331-.12-.673-.243-.883-.473a2.752 2.752 0 0 1-.255.013.903.903 0 0 1-.336-.05c-.11-.044-.166-.12-.166-.244l.09.06a.635.635 0 0 0 .377.145c.114 0 .216-.039.315-.077a.754.754 0 0 1 .309-.068h.034c-.044-.158-.227-.18-.36-.196-.078-.01-.141-.018-.161-.066.027-.03.07-.043.129-.043.055 0 .118.012.178.025a1 1 0 0 0 .174.022c.07 0 .147-.017.151-.154-.051-.016-.087-.062-.131-.12-.039-.047-.079-.096-.135-.117-.096-.024-.175-.028-.252-.033-.168-.01-.313-.018-.533-.242a.363.363 0 0 0-.27-.107c-.203 0-.427.128-.576.32-.07-.064-.13-.094-.185-.094-.098 0-.156.103-.156.202 0 .047.014.092.037.124.027.035.069.053.133.066-.008.694.474.961.942 1.22.166.089.37.2.528.334.21.176.43.497.366.825-.024.121-.084.185-.176.185-.166 0-.406-.205-.586-.358a1.85 1.85 0 0 0-.1-.08c-.116-.091-.223-.185-.363-.305-.276-.242-.535-.47-.769-.47-.117 0-.225.056-.327.172-.062.065-.052.193-.041.331.008.092.019.204-.01.282-.033.1-.082.15-.15.15-.09 0-.196-.086-.307-.177-.118-.097-.253-.206-.368-.206-.471 0-.5.428-.526.807-.014.215-.026.418-.125.517-.29.248-.35.299-.52.73a.367.367 0 0 1-.272.118.676.676 0 0 1-.416-.18c-.542-.604-.177-1.154.176-1.686l.141-.217c.268-.442.298-.825.088-1.137a2.148 2.148 0 0 0-.091-.113c-.088-.104-.164-.193-.186-.402-.094.266-.005.54.07.724.042.102.042.198-.025.289-.02-.178-.077-.295-.139-.42a.641.641 0 0 1-.059-.154c-.038.13-.012.245.018.374.02.084.037.162.014.252-.049-.064-.063-.125-.085-.237a.442.442 0 0 0 .063.346c.147.333-.03.63-.204.924l-.082.136a1.21 1.21 0 0 0-.103.993c.112.361.368.661.684.804a.61.61 0 0 0 .262.056c.06 0 .118-.006.177-.015a.776.776 0 0 1 .112-.011c.137 0 .224.073.26.447.037.364.235.573.514.866l.17.183a.66.66 0 0 1 .173.32c.068.233.032.421 0 .59-.052.271-.093.486.367.756.124.201.246.466.373.808.006.05-.005.1-.012.145-.015.069-.022.12.006.155.024.03.074.048.155.052.052.003.058.06.068.138.016.139.04.35.389.35l.116-.073c0-.054-.034-.144-.16-.309.048 0 .1.064.152.132.045.057.107.136.155.136.025 0 .047-.022.066-.065-.048-.122-.231-.232-.395-.323a.654.654 0 0 0-.142-.28.706.706 0 0 1-.132-.219c-.046-.23-.13-.43-.21-.623-.081-.199-.167-.404-.204-.635-.015-.401.146-.654.318-.923.13-.206.267-.417.318-.712.02-.126-.009-.288.018-.469.03.061.054.125.068.185.212.02.278.061.466.18l.093.06c.1.046.182.053.29.063.079.008.168.016.278.05.182.064.353.096.51.096a.93.93 0 0 0 .51-.14 1.246 1.246 0 0 1-.01-.7c.02.075.036.15.052.226.05.24.097.466.266.672l.137.16c.134.156.223.26.331.396.077.099.117.233.16.372.046.156.09.305.19.386.193.148.261.365.335.601.03.097.06.197.102.296.016.038.038.065.06.093.03.037.051.067.051.113l-.025.094a.357.357 0 0 0-.032.104c.008.075.03.082.059.092.039.013.083.026.101.173.031.22.125.332.282.332a.398.398 0 0 0 .218-.076c.02-.084-.127-.268-.246-.417l-.029-.089c.047 0 .157.15.321.38l.161.022c.027-.194-.149-.32-.307-.432" fill="#f9d438"/><path d="M7.225 24.26a.672.672 0 0 1-.107-.05 2.096 2.096 0 0 1-.185-.33c-.123-.23-.337-.437-.509-.603l-.16-.162c-.094-.112.003-.332.105-.565.094-.211.19-.43.122-.543-.024-.044-.072-.07-.15-.08-.134-.02-.26-.107-.375-.188-.103-.069-.2-.135-.285-.143.002.024.015.16-.033.514a.611.611 0 0 1-.028.105c-.03.086-.056.165.016.333a.312.312 0 0 1-.005.179c-.012.057-.03.111-.047.165-.063.199-.113.355.16.486.572.233.89.548.946.936.033.064.058.07.164.091.094.095.105.174.114.239.013.093.022.15.3.17.1-.005.126-.017.132-.038 0-.114-.082-.196-.15-.263l-.047-.086c.056 0 .096.049.14.103.037.045.077.09.131.09.04 0 .084-.022.136-.067-.022-.143-.219-.224-.385-.294M11.763 22.223a3.165 3.165 0 0 1-.179-.304l-.13-.24a4.599 4.599 0 0 1-.214-.422c-.235-.691-.346-.695-.969-.712l-.158-.008a.391.391 0 0 0-.192-.077c-.101.208-.248.481-.313.621.145 0 .285-.025.419-.052.137-.027.278-.056.433-.056.23.012.344.228.468.46.073.137.15.28.259.393 0 .041-.006.096-.015.165-.017.154-.037.345.045.446.032.043.08.067.15.076.08.06.076.138.073.206-.003.119-.006.241.327.316l.03.001.057-.024c.042-.056-.013-.209-.069-.367-.022-.066-.041-.12-.041-.18l.072.058c.017.04.138.397.143.411.061-.007.074-.011.08-.042a.843.843 0 0 0-.081-.324 2.348 2.348 0 0 0-.195-.345M6.458 16.243l-.045.01.004.04.03.02.037-.014c.007-.026-.01-.047-.026-.055M6.069 15.804a.557.557 0 0 1 .29-.064c.009-.07-.247-.186-.29.064M17.46 2.439c.033 0 .066 0 .099.006a.41.41 0 0 0-.1-.013.629.629 0 0 0-.165.025.713.713 0 0 1 .166-.018M16.625 6.752c-.067.219-.13.428-.18.585l.01-.006c.142-.02.284-.17.399-.424.194-.428.255-.996.127-1.19l-.012-.017c-.081.177-.22.64-.344 1.052" fill="#f9d438"/><path d="M12.879.388v7.94l3.244-.007c.203-.161.438-.28.646-.383.243-.123.394-.191.503-.333l.014-.016s.122.114.167.149c.115.09.18.142.16.4 0 0-.12.085-.242.159l-.005.003-.036.029h.124V10.7a.802.802 0 0 1 .155-.237l.022-.026.007.033c.05.234.267.36.446.36a.309.309 0 0 0 .227-.09.374.374 0 0 0 .082-.267c-.509-.048-.784-.243-.868-.615-.046-.226.004-.405.148-.52l.035-.026-.006.042c-.01.068-.01.165.053.238.057.066.155.102.291.105.062 0 .247-.069.315-.18a.144.144 0 0 0 .012-.138h-.017c-.347 0-.572-.128-.73-.416a.556.556 0 0 1-.03-.415.254.254 0 0 1 .153-.157l.029-.01-.006.035c-.017.122-.033.228.158.32a.456.456 0 0 0 .195.044c.157 0 .276-.078.319-.207.043-.202.013-.388-.088-.51a.272.272 0 0 0-.206-.114c-.102 0-.209.082-.21.315l-.007.019-.043.005c-.21-.147-.206-.217-.199-.418l.002-.034c-.035-.066-.118-.126-.197-.186-.11-.083-.213-.16-.191-.246l.005-.013h.012c.46-.02.789-.534.796-.983.005-.278-.117-.456-.328-.481-.006.157-.082.569-.144.728-.02.058-.037.117-.056.17-.091.289-.163.517-.49.661a.78.78 0 0 1-.31.072c-.162 0-.284-.07-.352-.201l-.023.067c-.218.524-.4.859-1.002.824-.347-.019-.583-.324-.634-.615l-.007-.04.035.022c.139.09.254.106.39.06.23-.078.441-.398.625-.951.139-.417.225-.856.265-1.085l-.13.235c-.392.717-.928 1.697-1.788 1.697-.073 0-.148-.007-.225-.023-.216-.04-.485-.236-.544-.465-.028-.113-.018-.284.194-.455l.018-.017.009.023c.061.162.17.245.322.245.272 0 .604-.26.743-.436.244-.306.686-1.123.699-1.506-.045.05-.098.11-.158.18-.355.41-.95 1.1-1.523 1.1a.826.826 0 0 1-.112-.01c-.148-.027-.338-.178-.404-.387-.047-.146-.049-.377.207-.631l.015-.015.012.015c.1.123.215.185.34.185.379 0 .788-.554.984-.82a1.3 1.3 0 0 0 .174-.332 4.71 4.71 0 0 0-.35.047c-.174.028-.34.052-.506.052-.13 0-.245-.016-.352-.049a.7.7 0 0 1-.397-.508.766.766 0 0 1 .179-.669l.005-.005h.008c.02 0 .024.018.035.055.016.05.04.135.1.207.08.094.263.151.492.151.276 0 .546-.082.667-.198l-.034-.025c-.51-.302-1.316-1.017-1.301-1.639.007-.279.176-.508.5-.679.093-.048.261-.096.427-.096a.47.47 0 0 1 .29.08l.025.02-.03.01-.05.012c-.055.01-.121.023-.181.09a.658.658 0 0 0-.11.745c.185.407.708.75 1.158.762a7.418 7.418 0 0 0-.149-.24c-.116-.186-.25-.395-.275-.469-.114-.296-.093-.592.056-.81.152-.221.412-.336.73-.318.207.012.602.163.652.421l.006.032-.028-.012a.468.468 0 0 0-.175-.035.45.45 0 0 0-.402.273.46.46 0 0 0 .073.502c.039.043.081.09.127.137.297.316.702.75.677 1.174-.012.19-.111.364-.293.516l-.007.005-.009-.001c-.132-.026-.283.05-.321.16-.025.07 0 .142.073.198.057.05.128.074.215.074.126 0 .27-.048.412-.095.135-.044.276-.091.401-.098.122-.006.264.023.4.05.117.024.228.045.321.045.094 0 .158-.02.2-.067.053-.058.074-.157.062-.3-.012-.172-.158-.327-.306-.327a.197.197 0 0 0-.15.072c-.104.12-.222.186-.335.186a.244.244 0 0 1-.202-.101c-.064-.091-.073-.226-.023-.373l.02-.06.013.062c.01.05.078.126.148.126l.056-.02c.066-.063.11-.12.151-.176.045-.062.092-.124.169-.193-.009-.078-.125-.116-.351-.116-.098 0-.196.007-.268.012-.054.006-.094.008-.11.006l-.013-.002-.001-.012c-.016-.1.003-.181.058-.244a.328.328 0 0 1 .146-.095c-.034.009-.064.02-.097.032l-.056.02a1.018 1.018 0 0 1-.29.047c-.235 0-.38-.095-.412-.264l-.003-.022.02.001.036.004c.029.002.056.004.093.004-.078-.154-.218-.461.08-.623a.702.702 0 0 1 .262-.061l.085-.01c.198-.173.478-.267.786-.267.076.002.167.03.264.062.097.033.2.067.282.067.052 0 .09-.013.117-.042.038-.042.057-.119.05-.227v-.025l.022.007c.118.028.192.107.206.221.024.153-.067.35-.191.42l-.015.007.02.03c.337.484.431 1.059.46 1.645h.003c.2 0 .426.473.536.917.02.076.034.155.047.23.033.185.062.357.161.508.129.065.19.104.209.257.064.117.16.276.259.33.078-.014.087-.016.144-.016.05-.106.064-.244.078-.389.015-.182.032-.372.13-.526-.029-.2-.05-.556.091-.72a.269.269 0 0 1 .232-.088c.047-.015.072-.051.098-.089a.323.323 0 0 1 .078-.084.3.3 0 0 1 .086-.04c.028-.01.053-.019.076-.033a.238.238 0 0 0 .084-.107.42.42 0 0 0 .006-.285c-.147-.372-.647-.815-.813-.92l-.015-.008.009-.015c.09-.155.465-.254.685-.256.153-.313.52-.514.937-.514.32 0 .591.121.732.326l.088-.037.006.014c.098.193-.02.567-.105.838-.034.107-.062.2-.068.25-.01.189.065.23.15.276.064.036.136.075.164.189.654-.035 1.02.338 1.03 1.048.222.476.347.93.414 1.516.088.135.1.287.028.42a.416.416 0 0 1-.346.223l-.006.006c-.132.157-.165.196-.407.321a.25.25 0 0 1-.05.19.179.179 0 0 1-.145.058c0 .042.014.078.037.117.066.027.191.125.222.254.021.085-.003.167-.073.242.044.2.051.355.051.606v.008l-.006.005a.678.678 0 0 1-.232.125l-.058.021c.09.373.215.858.386 1.336l.635 2.342c.194.68.171.97.041 1.398l-.005.021-.02-.012c-.231-.135-.527-.622-.599-.913l-.682-2.526-.001-.006c-.009.063-.015.14-.015.177a.511.511 0 0 1-.002.416c-.077.109-.052.294-.023.508.02.141.04.303.034.457-.012.31-.07.521-.136.766-.033.126-.069.259-.102.417.01.074.024.145.036.213.063.347.112.62-.265.819l-.034.014a.709.709 0 0 1-.277.085h-.005l-.004-.002-.114-.069c-.19-.112-.373-.216-.28-.396.082-.143.234-.667.22-.98-.008-.102-.015-.195-.023-.28-.032-.386-.054-.642-.003-1.083a.76.76 0 0 0-.025-.268 1.196 1.196 0 0 1-.023-.097c-.076-.08-.118-.227-.104-.378.008-.115.048-.207.109-.254.006-.049-.01-.137-.022-.21a1.058 1.058 0 0 1-.016-.098c.014-.4.009-.866-.135-1.308h-.02c-.07.237-.192.496-.313.749-.132.279-.256.541-.298.752.045.13.02.26-.007.399-.023.13-.05.262-.016.4.152.358.087.674.02 1.009-.048.231-.097.47-.071.731.108.24.202.507.101.662-.056.086-.164.13-.321.13-.04-.003-.075-.003-.105-.003a.84.84 0 0 0-.458.109 4.041 4.041 0 0 1-.192.086c-.068.03-.226.049-.398.049-.13 0-.556-.012-.579-.178l-.001-.008.007-.006c.094-.101.225-.154.366-.21.145-.059.299-.12.41-.24.073-.106.15-.19.22-.263.152-.16.26-.276.21-.508-.036-.146-.071-.279-.106-.408-.101-.372-.188-.694-.213-1.1-.138-.16-.235-.509-.152-.765a.343.343 0 0 1 .241-.245c.005-.037.01-.124.02-.23.027-.34.07-.901.108-1.055l-.033-.021-.036-.025-.008-.006V8.55c.029-.242.08-.582.212-.756.028-.298.237-.634.43-.836.082-.087-.063-.48-.14-.682-.066.3-.306.527-.568.527-.176 0-.333-.103-.443-.29a2.995 2.995 0 0 1-.543-.75c-.086.003-.15-.027-.183-.088a.229.229 0 0 1 .01-.219c-.077-.07-.134-.21-.17-.414a.842.842 0 0 1-.046-.144l-.025 7.028.009 1.9h-.018c-.36 0-.665-.368-.681-.61-.246.013-.438-.06-.557-.209-.11-.139-.143-.333-.094-.546.066-.282.303-.423.531-.558.058-.035.116-.07.172-.106.124-.084.181-.158.14-.318a.778.778 0 0 1-.264.045c-.05 0-.104-.005-.16-.013-.194-.029-.484-.18-.589-.424v3.436h7.58L25.053.39z" fill="#f9d438"/><path d="M19 3.996l.02-.025-.024-.065-.018-.039-.004-.01-.002-.006c.002.057.002.114.003.172L19 3.996M19.202 17.51l-.046-.011c-.053 0-.097.04-.107.068-.02.049 0 .124.052.21.145.236.52.524.83.56l.048.002c.086 0 .228-.023.265-.091.014-.027.01-.059-.014-.098l-.009-.012-.01-.012-.03.033-.025.029v.002l.01.016.007.022-.022.002a.738.738 0 0 1-.106.007c-.401 0-.753-.28-.894-.559a.149.149 0 0 1 .012-.13l.04-.038M20.467 18.725c-.01.097-.125.133-.204.088-.29-.176.222-.503.204-.088" fill="#f9d438"/><path d="M20.06 18.618c-.08.115.016.361.203.377.719.048.193-.977-.204-.377M23.531 7.648c.152-.052.169.17.025.115-.078-.017-.078-.097-.025-.115" fill="#f9d438"/><path d="M23.735 7.704c-.11-.405-.58.077-.142.156.089.017.158-.058.142-.156M18.965 17.756c-.052.014-.113.145-.123.243.097.277.49.52.8.64.083.031.155.05.196.05l.03-.006.041-.042c.062-.06.152-.146.185-.214-.43.02-.897-.261-1.129-.671M22.57 6.645l-.044.01a.113.113 0 0 1-.08-.038.092.092 0 0 1-.019-.085.098.098 0 0 1 .062-.07l.038-.008c.048 0 .08.036.093.068a.1.1 0 0 1-.05.124" fill="#f9d438"/><path d="M22.717 6.435a.233.233 0 0 1-.175-.101.448.448 0 0 0-.148.045.25.25 0 0 1-.103.204.253.253 0 0 0 .043.1c.08.004.134.017.182.086a.32.32 0 0 0 .176-.061.26.26 0 0 1 .062-.182.184.184 0 0 0-.037-.09M22.31 7.944l.052.007.037.045c-.01.07-.046.106-.1.08-.07-.036-.044-.097.01-.132" fill="#f9d438"/><path d="M22.197 7.94c-.05.08.017.178.116.23.027.018.07.028.088 0 .106-.114.132-.176.024-.265-.14-.123-.186-.027-.228.035M22.55 7.967c.228-.156.638-.246.804-.239.009-.051.027-.115.036-.167a1.466 1.466 0 0 0-.972.246c.038.048.09.089.133.16" fill="#f9d438"/><path d="M7.977 11.474v-.707a.406.406 0 0 1-.055-.087.538.538 0 0 1-.457-.051c-.168-.09-.241-.247-.219-.466a.318.318 0 0 0-.203.168.91.91 0 0 0-.055.133c.087.055.104.14.104.2a.307.307 0 0 1-.015.103c.057.056.09.135.09.218a.34.34 0 0 1-.09.226l.012.058c.074.123.158.187.25.187a.355.355 0 0 0 .188-.064l.038-.048.077-.242.2.208.02.025a.85.85 0 0 1 .115.139M5.33 10.479c-.044-.177-.132-.284-.262-.316.022.22-.05.375-.22.466a.54.54 0 0 1-.453.052c-.089.19-.303.28-.477.285h-.01c-.175-.005-.387-.094-.479-.285a.543.543 0 0 1-.455-.052c-.167-.09-.243-.246-.22-.466a.324.324 0 0 0-.203.168c-.133.234-.116.647.038.922.051.092.138.203.26.203a.374.374 0 0 0 .187-.064l.007-.01.027-.039.08-.24.203.209.018.023c.191.195.248.373.202.632a.683.683 0 0 1-.177.32c.172.163.392.403.516.665.126-.262.345-.502.515-.665a.66.66 0 0 1-.174-.32c-.05-.26.007-.437.201-.634l.024-.028.004-.007.191-.197.076.238.043.055.004.002c.061.04.123.06.179.06.093 0 .185-.071.256-.2a.305.305 0 0 1-.115-.248c0-.098.044-.194.118-.258l-.006-.05a.266.266 0 0 1 .102-.221M7.977 12.17a.954.954 0 0 1-.09.117c.03.026.06.056.09.088" fill="#fffff4"/><path d="M8.954 1.78c.044.08.096.247-.028.458l-.033.052.99.02.036.28h.305l.035-.276 1.033.012v2.263l-1.165.012V3.507l.444-.044v-.049L9.457 3.41l.001.035.472.071v1.082l-.876-.03v-.421l-.175-.012v1.05l.163-.01.007-.418.907-.014v1.063l-.428.035.003.116h.947l.007-.112-.365-.06V4.751l1.172.013v.017l-.01 2.367-1.134-.026-.006-.272-.198-.004-.015.265-1.052-.02v1.237h3.676V.388H.433V14.52h1.774l1.168-.004c.39 0 .779 0 1.168-.002.74 0 1.475 0 2.213-.002.238 0 1.09.007 1.222.008v-.603l-.04.004a.488.488 0 0 1-.46-.334.495.495 0 0 1 .039-.42c-.605-.437-1.09-1.015-1.331-1.584H6.13c-.243.569-.728 1.146-1.334 1.585a.496.496 0 0 1-.42.754.472.472 0 0 1-.201-.047.703.703 0 0 1-.264-.214.65.65 0 0 1-.26.213.475.475 0 0 1-.203.047.497.497 0 0 1-.464-.333.504.504 0 0 1 .04-.42c-.844-.613-1.422-1.474-1.51-2.252-.058-.524.1-1.005.458-1.39.163-.175.538-.437.908-.437l.03.002c.132.006.254.03.365.078l-.003-.04a.47.47 0 0 1 .165-.37l-.002-1.667-1.047.02-.017-.265-.2.004-.008.271-1.131.026-.012-2.384 1.174-.012v1.031l-.365.06.007.112h.946l.004-.116-.425-.035V4.742l.904.015.007.417.163.012V4.134l-.175.012v.422l-.877.03V3.516l.473-.071.003-.035-1.116.006v.049l.444.044v1.094l-1.165-.012V2.328l1.031-.012.036.275h.308l.034-.28.989-.02-.032-.05c-.125-.212-.073-.38-.028-.46.094-.172.306-.28.551-.28.265 0 .481.125.563.323a.458.458 0 0 1-.067.447l.002 6.466c.154.11.187.266.187.38v.035c.097-.035.202-.055.316-.059l.033-.002c.347 0 .72.222.91.441.123.145.226.301.302.468.072-.16.174-.317.302-.468.189-.219.562-.44.908-.44l.035.001c.112.004.22.024.317.06l-.002-.036a.46.46 0 0 1 .186-.38l.003-6.466a.456.456 0 0 1-.068-.447c.083-.198.296-.322.56-.322.251 0 .46.105.555.28" fill="#fffff4"/><path d="M10.466 20.428c.133.004.271.005.423.057.188.057.35.263.409.524.075.372.272.675.462.97.048.071.096.147.141.221.167.222.27.422.27.73-.01.058-.139.11-.203.095-.004.064-.028.13-.081.144h-.005a.68.68 0 0 1-.362-.1c-.248-.143-.249-.189-.217-.39l.009-.061c-.347-.08-.328-.304-.31-.52.011-.129.022-.26-.037-.37-.026-.045-.049-.089-.071-.132-.136-.256-.254-.475-.56-.475a.736.736 0 0 0-.122.01l-.144.027a4.12 4.12 0 0 1-.58.084.938.938 0 0 1-.344.305c0 .333.008.54.157.9.026.062.057.115.085.165.05.086.095.165.122.289.027.132.035.253.041.36.008.091.013.177.028.26.01.047.04.103.082.175.076.136.183.326.233.618.017.105.105.161.204.227.144.093.32.208.332.518v.009l-.006.006c-.055.044-.098.064-.137.064l-.048-.009-.016-.006-.022.004-.005.018c.004.026.004.054-.043.087a.497.497 0 0 1-.26.082.39.39 0 0 1-.296-.14.494.494 0 0 1-.117-.318c-.215-.136-.186-.218-.145-.331a.605.605 0 0 0 .038-.148c-.13-.12-.191-.321-.246-.5a.971.971 0 0 0-.12-.292c-.235-.235-.304-.423-.383-.641-.036-.094-.07-.19-.121-.298-.074-.153-.288-.365-.444-.52-.086-.087-.159-.157-.19-.2a.794.794 0 0 1-.435.116c-.13 0-.26-.022-.384-.042-.116-.018-.224-.036-.326-.036a.663.663 0 0 0-.052.19c-.008.048-.016.096-.03.146-.022.081-.065.165-.105.246-.103.205-.21.418-.02.62l.059.066c.223.254.435.493.614.838.04.045.129.097.222.154.16.098.327.199.32.31-.005.06-.06.115-.168.164l.005.023a.313.313 0 0 1 .012.08v.01l-.006.006a.53.53 0 0 1-.329.102c-.141 0-.265-.047-.333-.125a.258.258 0 0 1-.058-.206 1.353 1.353 0 0 0-.148-.11c-.106-.07-.13-.093-.166-.304-.3-.465-.542-.574-1.016-.76-.126-.048-.186-.179-.151-.332.003-.025.02-.072.04-.131.048-.137.121-.341.07-.433l-.05-.04-.074.112c-.22.34-.397.609-.147 1.224.056.138.102.287.145.431.087.285.17.554.32.685.234.209.454.428.47.621 0 .078-.126.086-.18.086l-.042-.002c-.014.084-.015.087-.036.122-.018.037-.07.052-.1.052-.465-.053-.606-.127-.627-.505l-.028-.009c-.085-.024-.173-.051-.215-.13-.037-.07-.034-.169.01-.31-.002-.29-.272-.713-.495-.858-.292-.184-.352-.338-.244-.63.238-.646-.128-1.008-.422-1.3-.13-.128-.241-.237-.294-.357-.071-.162-.098-.322-.122-.463-.014-.081-.026-.157-.045-.219-.014-.05-.045-.05-.055-.05h-.007a1.63 1.63 0 0 1-.24.02c-.632 0-.925-.434-1.11-.812-.294-.605.037-1.152.356-1.684l.03-.047c.081-.138.022-.265-.04-.4a.719.719 0 0 1-.084-.293c0-.08.008-.27.086-.36-.033-.155-.01-.347.091-.413-.013-.224.159-.418.234-.437l.014-.004.006.013c.02.044.032.102.044.162.02.107.043.229.123.333.545.7.247 1.14-.098 1.65-.132.196-.269.399-.38.637a.822.822 0 0 0 .068.76.562.562 0 0 0 .485.277l.05-.002c.098-.007.123-.08.155-.171a.677.677 0 0 1 .041-.107.92.92 0 0 1 .339-.44c.174-.123.186-.362.197-.615.017-.365.036-.777.6-.848l.052-.003c.168 0 .295.106.396.192.081.068.147.123.202.102.07-.027.076-.136.084-.26.006-.139.015-.294.114-.393a.535.535 0 0 1 .386-.174c.235 0 .497.153.847.495.267.26.505.43.804.644.108.051.182.062.21.026.025-.03.028-.091.008-.185-.102-.518-.496-.714-.91-.92l-.009-.004c-.609-.317-.812-.58-.899-1.16-.163-.082-.251-.244-.217-.398.026-.116.132-.24.348-.24.057 0 .084.016.108.031l.037.019c.065-.056.14-.112.21-.159.013-.138.115-.241.243-.241.032 0 .069.008.1.023.077.034.112.08.168.153l.017.024c.108.013.172.072.238.134.085.076.17.155.355.165a.851.851 0 0 0 .105-.008c.033-.002.07-.007.103-.007.06 0 .143.01.228.09l.031.03c.103.092.257.23.25.364 0 .045-.024.086-.062.122a.258.258 0 0 1 .094.166c.008.059 0 .099-.024.126-.019.023-.051.034-.096.034a.701.701 0 0 1-.125-.015.95.95 0 0 0-.145-.016.234.234 0 0 0-.095.016c.015.217.508.382.836.492.126.043.234.078.295.11l.003.001c.278.134.697.336.927.71.37.616.575 1.14.528 1.99.152.148.318.152.51.155m-1.117-2.351a5.32 5.32 0 0 1-1.388-3.228L.433 14.84V16.738c0 1.755.41 3.443 1.218 5.014.727 1.412 1.75 2.692 3.042 3.804 2.33 2.005 5.336 3.252 7.851 3.258v-9.102a5.185 5.185 0 0 1-3.195-1.635" fill="#008241"/><path d="M23.081 21.803c-.428.252-.764.316-.965.355a.953.953 0 0 0-.167.04 1.425 1.425 0 0 0-.01.11c-.015.198-.031.386-.197.545-.362.344-.403.582-.19 1.102.18.437-.1.596-.425.78-.139.08-.284.161-.41.273-.012.01-.056.06-.108.12-.266.303-.432.48-.5.48l-.027-.001c-.144 0-.29.026-.44.077a.595.595 0 0 1-.175.036l-.032-.004a.226.226 0 0 1-.164-.098.186.186 0 0 1-.01-.15c-.087-.025-.087-.119-.087-.152 0-.07.05-.153.115-.167.01-.125.062-.187.157-.187.063 0 .137.027.216.055.08.028.16.057.228.057a.17.17 0 0 0 .074-.015c.174-.08.291-.237.416-.404.103-.14.21-.283.355-.387.09-.436-.028-.555-.316-.844-.18-.218-.3-.404-.352-.542 0-.006-.02-.017-.065-.017-.038 0-.183.012-.383.157-.133.11-.222.279-.309.444-.136.255-.261.498-.539.487a2.106 2.106 0 0 0-.154-.005c-.295 0-.488.062-.605.195a.364.364 0 0 1-.29.128c-.048 0-.098-.006-.144-.012a.66.66 0 0 0-.187-.006.535.535 0 0 1-.271.086c-.104 0-.187-.045-.215-.116-.02-.056-.006-.115.041-.167-.074-.039-.074-.09-.074-.147v-.006l.003-.004c.042-.068.071-.115.159-.123a.237.237 0 0 1 .037-.184c.054-.072.143-.077.227-.007l.004.004c.083.125.172.184.283.184.113 0 .233-.06.36-.125.059-.03.123-.062.184-.087.463-.205.51-.395.588-.71.035-.14.074-.3.159-.491.037-.1.18-.261.468-.414.075-.04.084-.137.066-.208-.019-.082-.075-.166-.16-.169-1.114-.089-1.588-.154-2.069-.872a.636.636 0 0 0-.071.031.54.54 0 0 1-.215.04c-.31 0-.688-.184-.864-.294l-.053-.04c-.03-.023-.083-.067-.1-.067-.143 0-.434.369-.642.682-.136.214-.268.232-.38.232h-.094a.298.298 0 0 0-.192.053c-.097.086-.194.133-.28.133a.188.188 0 0 1-.14-.056.253.253 0 0 1-.062-.18c-.09-.072-.077-.2-.065-.24a.14.14 0 0 1 .102-.11c.017-.097.13-.155.227-.155l.052.006a.312.312 0 0 0 .08.011c.234 0 .465-.275.69-.54.188-.224.367-.435.546-.482a.466.466 0 0 1 .122-.015c.1 0 .186.028.276.058.092.03.188.064.3.064.087 0 .174-.02.269-.057l-.036-.019a3.187 3.187 0 0 1-.33-.164c-.155-.083-.263-.144-.39-.144-.165 0-.35.108-.64.374a.955.955 0 0 0-.12.134.755.755 0 0 1-.062.069c-.081.076-.17.102-.379.115-.035.015-.07.038-.103.06-.07.045-.144.09-.217.09a.167.167 0 0 1-.119-.05c-.055-.064-.11-.135-.076-.208a.139.139 0 0 1-.068-.132.211.211 0 0 1 .125-.178.144.144 0 0 1 .027-.113c.048-.064.148-.096.252-.079.036.014.07.02.107.02.242 0 .53-.264.76-.476.107-.098.198-.182.273-.23a.404.404 0 0 1 .226-.06c.127 0 .273.038.426.078.164.042.333.086.493.086.178 0 .32-.056.431-.173.21-.21.489-.299.758-.382.24-.074.488-.152.692-.318-.036-.172.049-.363.215-.48.025-.138.127-.198.22-.198.053 0 .102.021.132.055.088-.105.15-.356.102-.448-.074-.131-.15-.27-.312-.37-.389-.217-.36-.437-.322-.74l.02-.172c.03-.129.063-.19.173-.19.019 0 .04.002.066.005.1.017.192.065.295.123.189.104.428.234.855.222.022-.048.025-.13.03-.208.005-.124.011-.242.09-.242.051 0 .127.06.235.192.08.101.105.237.132.38.011.06.022.123.037.185.032.02.066.02.118.019h.034c.123 0 .307.024.646.207l.019.011-.014.015c-.245.29-.397.4-.765.37a1.918 1.918 0 0 1-.09.615c-.114.31-.239.466-.311.558-.02.026-.038.047-.05.065.05.025.083.066.093.115a.192.192 0 0 1-.039.158.48.48 0 0 1 .344.164c.074.09.102.2.079.324a.392.392 0 0 1-.401.329c-.185 0-.394-.113-.433-.321a.244.244 0 0 1-.081.013c-.051 0-.097-.014-.131-.024l-.034-.009c-.293.214-.234.66-.045 1.009.215.389.643.748.88.93.09.054.203.079.31.103.081.017.16.033.225.064.274.127.47.307.747.687.082.015.17.023.268.023.363 0 .725-.11.92-.277.228-.197.349-.485.342-.81-.005-.325-.145-.633-.36-.805-.153-.116-.239-.154-.38-.16l-.039-.003c-.208 0-.377.105-.43.268-.05.164.027.339.207.467l.011.007-.005.011c-.031.1-.093.122-.141.122-.156 0-.367-.236-.41-.46-.044-.26-.008-.462.109-.605.122-.15.327-.228.605-.234h.03c.568 0 1.041.398 1.207 1.013.14.511.055 1.253-.639 1.657m-5.617-6.954a4.98 4.98 0 0 1-1.445 3.511c-.859.87-1.971 1.346-3.13 1.346h-.028l.01 9.109a12.423 12.423 0 0 0 4.665-.914 12.491 12.491 0 0 0 3.881-2.486 11.679 11.679 0 0 0 2.645-3.659c.65-1.418.978-3.499.978-5.029 0-.413 0-.239-.003-.65 0-.408-.003-.815-.003-1.228" fill="#f0382b"/><path d="M14.872 10.9c-.06.05-.088.122-.068.18.018.046.062.073.122.073l.026.365c-.081.07-.081.117-.06.155.022.04.065.061.118.061l.09-.002v.948l-.13-.002.002-.484-.686.002.003.482h-.132l.123-1.17c.043.01.07.012.105-.027.019-.023.022-.044.027-.07.005-.027.02-.037.024-.062.004-.026-.014-.054-.017-.077-.006-.026.014-.044.012-.07l-.021-.061c0-.024.012-.047.006-.075-.012-.049-.05-.066-.087-.091l.02-.193a423.084 423.084 0 0 0 .114-1.11l.012-.116.004-.037c.046-.018.066-.049.071-.089a.134.134 0 0 0-.046-.123.145.145 0 0 0-.162-.006.133.133 0 0 0-.056.083l.022.102a.538.538 0 0 0-.102-.01 2.05 2.05 0 0 0-.375.054 5.88 5.88 0 0 1-.48.079l-.01.265c-.006.115-.009.2-.009.31l-.002.205c-.006-.043-.027-.062-.05-.083.029-.024.046-.077.039-.129a.148.148 0 0 0-.069-.11c-.052-.03-.086-.025-.111-.029a.495.495 0 0 0 .119-.067c.074-.068.063-.206.036-.271-.031-.084-.146-.138-.22-.153-.092-.273-.347-.273-.473-.242-.126.03-.328.131-.298.402-.064.024-.145.079-.168.172a.263.263 0 0 0 .052.242l-.039.013a.192.192 0 0 0-.075.085c-.027.067-.016.127.016.21a.742.742 0 0 1-.06.167s-.014-.627-.03-.987a3.137 3.137 0 0 1-.22-.07 1.128 1.128 0 0 0-.301-.075 2.179 2.179 0 0 1-.374-.049s.012-.116-.123-.115c-.047 0-.103.03-.12.072-.01.024-.02.074.036.132l.116 1.383c-.036.015-.069.055-.088.098-.027.105-.044.145-.007.201a.545.545 0 0 0 .026.193c.037.112.102.135.15.135l.105 1.162-.124-.002v-.472l-.622-.004.002.476h-.138l.005-.936.14-.004c.067 0 .101-.047.113-.093.013-.045.003-.113-.07-.157l.01-.353.046.009a.07.07 0 0 0 .068-.046c.02-.057-.012-.126-.088-.192-.143-.16-.297-.322-.448-.482l-.35-.37.022-.035c.02-.037.04-.072.012-.125-.035-.068-.106-.093-.162-.102l-.01-.004c-.032-.033-.036-.062-.03-.077l.018-.016c.012 0 .028.014.036.055.014.03.04.049.067.049.03 0 .051-.024.058-.064l.005-.026-.021.017-.036.023v-.006c.035-.062.069-.126-.017-.18l-.042-.014c-.026 0-.044.017-.057.029l-.017.013-.009-.076.008-.008.066.031c.042 0 .064-.037.064-.074 0-.036-.025-.075-.087-.075l-.015.002-.026.025-.015.015c-.012-.015-.002-.032.017-.057l.011-.015-.004-.065a.093.093 0 0 0-.075-.04c-.037 0-.075.021-.078.084l.018.042.023.052-.013-.002c-.028-.026-.054-.04-.076-.04l-.05.03a.106.106 0 0 0 0 .096c.016.028.049.036.086.018l.047-.004c.005.008.005.027-.01.056a.13.13 0 0 0-.08-.028.086.086 0 0 0-.079.043c-.01.02-.02.06.023.12l.012.04-.012.006-.02-.01h-.02v.01l.044.033c.031 0 .073-.02.08-.05l.006-.028.006-.02.031.01-.009.063c-.067.024-.175.07-.187.141a.133.133 0 0 0 .04.126l-.882.908c-.035.037-.06.073-.037.117.02.048.069.079.125.079.046.008.04.123.037.192l-.005.159c-.116.006-.12.181-.06.224.024.017.04.037.116.04l.1-.001c-.001.062 0 .125 0 .188V15.573l-.21.016.002.687a6.929 6.929 0 0 1-.272-1.5l.028-6.235 8.98.02-.037 6.242a5.41 5.41 0 0 1-.22 1.493l.002-.708-.22-.004-.003-1.806v-2.024h.105c.06 0 .12-.04.14-.097.02-.05.006-.102-.036-.144l.005-.1a3.486 3.486 0 0 1-.001-.289l.037.008c.034 0 .057-.021.069-.05.017-.043.011-.115-.063-.187l-.795-.819a.166.166 0 0 0-.013-.163.279.279 0 0 0-.17-.104c-.015-.02-.024-.05-.003-.079.034-.043.035.05.043.062.028.04.093.036.12-.017l.003-.01-.028-.003-.002.006-.025.02-.002-.008c.04-.07.062-.117-.01-.188l-.03-.01-.065.03-.024.016-.01-.073.01-.013.066.03c.042 0 .069-.039.069-.076 0-.032-.022-.071-.09-.071l-.013.002-.023.019-.023.018.017-.057.009-.014.003-.066a.087.087 0 0 0-.075-.041c-.034 0-.073.021-.077.089.024.035.044.079.039.091l-.014.002c-.03-.034-.058-.052-.086-.052l-.05.032a.09.09 0 0 0-.003.088c.015.027.048.033.09.016l.04-.02.008.007c.008.013.007.043-.009.074a.139.139 0 0 0-.078-.027c-.037 0-.067.017-.081.045-.01.019-.018.06.024.118l.013.036-.038-.006-.016-.012v.028c.003.022.019.034.044.034.028 0 .068-.019.083-.05l.007-.026.006-.02.033.005-.008.074c-.102.026-.172.055-.197.123-.015.042 0 .092.015.12" fill="#f0382b"/><path d="M22.593 8.102l.085-.067c.006.007.033.15.036.174l.003.02-.01.01a.456.456 0 0 1-.12.015c-.027 0-.059 0-.086-.002.008-.026.023-.05.036-.072a.447.447 0 0 1 .056-.08" fill="#cccbc6"/><path d="M14.127 10.23h-.044l.014.018.024.013.009-.007-.002-.02-.001-.004M13.827 10.34h.066l-.005-.046c0-.014.002-.05.028-.05l.018.011v-.025h-.11v.043l.003.067M14.044 10.087l.01-.013v.046h.056l-.001-.017a.51.51 0 0 1 .011-.089l.006.025c.002.012.007.03.016.056l.002.005.007.02h.002v-.112h-.11M14.02 10.177h.004l.005-.012.002-.02.002-.009.002-.016H14l.014.055.004.004" fill="#f0382b"/><path d="M13.767 10.122l.012.015.014.032-.016.04-.04.021h.088v-.11h-.06l.002.002M13.955 10.223l.006-.004h.006l.002.001h.001v-.002l-.036-.017v.028h.015l.005-.007M13.82 10.374l-.057.039-.025-.008-.011-.026v-.01l-.011.005v.078h.109v-.098l-.004.02M13.824 10.612v-.05h-.006l.006.05M13.71 10.536l.006.005v-.027l-.014-.003.009.025M13.497 10.12v.103l.016-.017.003-.004a.259.259 0 0 0 .033-.069l.003-.006.002-.008h-.057M13.716 10.46v-.01H13.7l.015.01M13.825 10.12h.099l.007-.015.002-.008.002-.004v-.085h-.11" fill="#f0382b"/><path d="M13.825 10.518l.008-.01-.008.028v.025h.084l-.008-.03-.005-.015.016.01.023.012v-.087h-.11" fill="#f0382b"/><path d="M14.017 10.37c-.003.025-.02.04-.047.04h-.014l-.022-.008v.05h.09l.017-.027c.003-.026-.005-.046-.024-.055M14.177 10.17l.003.003.023.02h.002l.008-.002.004-.028-.01-.043h-.054v.005l.024.045M13.934 9.889l-.014-.008-.009-.028v-.042l.004-.021v-.001h-.09v.11h.11M13.801 9.684l-.029.01.027.001.016.004.003.001.003.001-.002.004-.016-.004-.017.018-.013-.02h-.008l-.008.001h-.006l.012.023.01.024.012.018.002.022h.038V9.68l-.024.004" fill="#f0382b"/><path d="M13.934 9.898v.11h.11v-.11zM14.153 9.787h-.08l.004.024v.033l-.029.025-.004.001v.028h.11" fill="#f0382b"/><path d="M14.19 9.953l.011.036.008.02h.033l-.002-.035-.002-.015-.005-.035-.002-.026h-.078v.11h.027a.274.274 0 0 1 .003-.083M14.224 9.784a.111.111 0 0 0-.071-.052v.055h.074l-.003-.004M13.762 9.898l-.046.015v.096h.109v-.11M13.606 9.784l-.047-.02-.062.023h.11M13.497 9.898v.11l.008-.028.006-.02.005.049h.09v-.11M13.585 10.136l-.008.064-.002.017-.002.013h.033v-.11h-.021v.016M13.46 10.062h.002l.03-.04.005-.012v-.001h-.043c-.005.037 0 .051.005.054M13.606 10.12h.034v-.012l.01.012h.042v-.034l.024-.023v-.054h-.11M13.636 9.898l-.019-.02.001-.034v-.039l-.01-.017h-.002v.11M13.496 9.787l-.025.03c-.015.025-.012.053-.01.081h.036v-.11M13.623 10.239l.004-.008h-.02v.038l.016-.03" fill="#f0382b"/><path d="M13.497 10.118v.001h.057l.005-.016.009-.033.005-.013.005.013.007.049h.021v-.11h-.09a.43.43 0 0 1-.019.11m.219-.056h.007l.024.028.004.008.015.02h.059v-.11h-.11zm-.254-.164v.057l-.005.035-.003.014v.003h.043v-.11h-.035m.251.015h-.005a.246.246 0 0 1-.061-.01l-.01-.006h-.03v.11h.109v-.095h-.003m.003.548l.067.01h.008l-.003.008c-.005.017-.033.036-.064.036l-.008-.001v.027l.04.015.026-.005.004-.001.032-.024.007-.007v-.067h-.11zm-.09-.23l.01-.048.004-.059v-.005h-.034v.111zm-.06.033v.004l-.003.019.01.007.023-.013.01-.012v-.039h-.033l-.007.034M13.477 10.193l.003.029.008.003h.002l.007-.002v-.103l-.007.02-.014.054m.342.367h.007v-.025l-.007.025m.007 0v.051l.038.018.04-.016.006-.053zm.291-.394l-.006-.048h-.056l.003.03.013.056.012.025h.045l-.009-.046-.002-.017m.093-.158l.022.021h.004l.007-.021zm-.267.458l.022.002.06-.019h-.09v.087l.031.008.031-.01.017-.038-.028.005-.032-.007-.018-.023v-.007zm-.252-.06l.009.042.002.002h.014v-.078l-.025.034m.005-.26l-.002-.014-.002-.014h-.042l.01.034.001.016.002.009.009.03.004.003.006-.004c.008-.01.016-.033.014-.06m.198.193h-.066l-.002.013v.097h.11v-.049c-.022-.01-.035-.031-.042-.061m.15-.47l-.062.015-.034.004h-.012v.008h.109zm.093-.14a.06.06 0 0 0-.06.041l-.003.016h.08v-.056h-.017m.096.144v-.01c.004-.027.007-.052-.006-.077h-.073v.11h.078l.001-.023m-.5.355h-.004l.003.004.017.011.002.011.002.011.006.012.007-.013.027-.02.026.013.007.014v-.043h-.093m-.126-.446v.004h.003l-.003-.004m.18.004l-.005.007-.01.005.016.026.002.02-.004.011-.023.04h.063v-.11zm.13-.048c-.007-.028-.026-.06-.079-.06l-.012.001v.107h.09l.001-.049m-.42.16h.11v-.11h-.11zm0-.11v-.003.002m.329.22h.11v-.11h-.11zm.11.222v-.027l-.007-.004-.025-.051.01-.017.01-.012h-.098v.11zm.006.036l.001-.001.007-.035h-.014v.025l.006.011m.255-.18a.466.466 0 0 1-.015-.077h-.028v.11h.054l-.004-.01-.007-.023m-.261.008l.04-.047.016.008.01.06v.005h.034l.009-.032v-.078h-.11zm.218.031v-.005h-.002l.002.005m-.11-.115h.11v-.111h-.11" fill="#fffff4"/><path d="M13.732 10.322l-.005-.016-.006.004.014.018M13.698 10.315l-.007-.002.006.02v-.018M13.66 10.303v.027l.008-.023-.008-.004M13.673 10.253l-.002-.005-.005.004-.005.01.011-.004v-.006M13.744 10.254l-.002-.005-.013-.007-.002.001-.019.008-.016-.004-.01-.003h-.005l.002.013h.008l-.006.008-.004.006-.009.013-.006.011h.007l.004.003.016-.014h.006v.01l-.003.011.008.001.013-.015h.004v.003l.002.007.008-.004.01-.026.008-.006v-.013M14.014 10.33l-.002-.003-.01-.014-.006.008.003.002.018.01-.004-.004M13.96 10.319l-.008.004v.005l.014.005-.002-.01-.005-.006M14.028 10.28l-.011-.002.008-.007.007-.005-.002-.007.005-.01h-.015c-.027 0-.037 0-.064-.01h-.003v-.001l-.001.002v.008l-.004.015h.004l.002.002.003.048h.004l.004.002.002-.011.012-.009h.005l.003.001v.004l.006.013.008-.006-.004-.02.01-.005.02.007.012-.003-.01-.006M14.047 10.3l-.003-.007h-.012l.017.02-.002-.014" fill="#f9d438"/><path d="M14.05 10.256l-.01-.005-.004.01.001.002h.008l.012.006-.006-.014M13.719 9.745l.01-.003.01.002.018.022v.02l-.014.008h.01l.007.002.006.002.018-.018-.013-.028-.01-.023-.017-.027-.038.023.004.025.008-.007" fill="#f9d438"/><path d="M13.799 9.702l-.01-.002-.002.002v.006l-.004.006.016-.013" fill="#fffff4"/><path d="M13.986 10.334l-.004-.005v.002" fill="#154388"/><path d="M14.248 10.034l-.01.008h-.006l-.04-.05-.002-.005.004.038v.001l.005.023.013.043.006.02.003.006.01.057-.021.029h-.008l-.03-.024-.003-.004c-.017-.021-.025-.046-.034-.071l-.002-.006-.009-.025v.006l-.001.022.007.072v.001l.007.033.001.005.006.024-.015.033-.008.002-.031-.016-.03-.046-.013-.059v-.006l-.006.026-.02.02h-.002l-.029-.05V10.083l-.009-.023-.004-.002h-.002c-.015 0-.022.017-.03.042l-.003.008-.007.017-.007.009-.002.002-.008.026.038.036.006.002.024.02-.008.01.008.001h.002l.018.002h.019l.036.011.008.026v.031l-.012-.017-.005-.006-.006-.006h-.004l.017.022-.005.033-.005.008-.005-.01-.037-.034.015.028v.001l.012.015.005.008h-.01l-.037-.013-.014-.024.003.027.009.01h-.013l-.035-.018v-.008l.003-.016.003-.021-.006.002h-.004l-.01-.014-.003-.005-.01-.006-.006.004-.003.012a.159.159 0 0 0 .005.075c.008.025.025.042.047.045l.013.002.025-.008.009-.017.002-.005v-.013l.008.002.013.006.026.032-.011.058-.055.029-.024.003-.005-.001.002.001.018.004h.023l.005-.003.008-.002.003-.002.009-.01v.022a.06.06 0 0 1-.042.062l-.02.004-.028-.006h-.003l-.013-.006.004.038-.015.042-.036.017h-.022l-.02-.008-.024-.036.001-.047-.02.01-.035.007-.017-.002-.038-.026-.008-.033.002-.005v-.001l.001-.008.007.004.01.004h.01l.051-.019h-.008l-.016-.001-.025-.006-.038-.028v-.058l.038-.032.011-.002h.005v.016l.007.02.018.006.014-.002.035-.037.006-.056-.008-.034-.02-.01h-.002l-.014.017-.014.022-.004.004-.006-.006-.009-.01.003.032.013.027h-.01c-.025-.003-.032-.02-.035-.032l-.002-.002-.001.03v.016l-.008-.005-.022-.043-.014.038v.014l-.009-.01v-.069l-.007-.007.007-.028.024-.012.014.004.011.002.007-.001-.003-.014.03-.011.029-.017.005-.008.007-.018-.009-.026-.001-.002-.011-.015-.018-.024-.004-.01-.017-.02h-.002l-.015.013.002.044.001.014c.002.028-.005.056-.017.069l-.014.007h-.005l-.02-.035-.002-.008v.007l-.014.058-.03.045-.032.016-.014-.006-.007-.026.007-.035.004-.022a.441.441 0 0 0 .01-.08l-.002-.027v-.004.001l-.008.026-.002.005a.25.25 0 0 1-.035.071l-.003.004-.03.024h-.005l-.02-.014-.002-.039.012-.042.005-.014a.619.619 0 0 0 .018-.073l.003-.025-.04.045h-.007l-.007-.006-.01-.038.006-.048.005-.042-.002-.049v-.004l-.001-.036.007-.027.044-.054.064-.02.013.002c.028.004.05.026.057.054l-.002.045.014.035.005.003.016.005h.005l.026.004.02.001.031-.006.028-.042.002-.022-.01-.017-.009-.005-.005-.002-.025-.014.02-.011-.002-.01-.01-.016-.006-.001-.006.002-.017.009-.013-.023v-.007l.003-.012.034-.026.03-.007.042-.016h.001l.01-.002.031-.004.011.001.044.017.025.033.005.013.001.046-.002.014-.005.047.002.026.01.01h.032l.028-.005.017-.004.035-.01.017-.025-.002-.019-.002-.026.036-.056.03-.009h.014l.045.011.048.043.01.021.001.002.002.06-.002.012v.052l.002.015.002.012.003.015.003.03v.004l-.008.036m-.21-.474c-.07.01-.524.113-.61.098 0 .202-.018.414-.01.626 0 .07-.016.406.028.46.183-.018.321.023.515-.045.078-.035.176-.052.263-.07a23.444 23.444 0 0 0 .103-1.103c-.104 0-.201.017-.289.034" fill="#154388"/></svg>